<svg width="294" height="294" viewBox="0 0 294 294" fill="none" xmlns="http://www.w3.org/2000/svg">
<path d="M88.2293 23.6082H38.3022V75.652H88.2293V23.6082Z" fill="#E0E0E0"/>
<path d="M84.8482 23.6082H34.9211V75.652H84.8482V23.6082Z" fill="#EBEBEB"/>
<path d="M78.1393 30.6053H41.6362V68.6548H78.1393V30.6053Z" fill="#FAFAFA"/>
<path d="M41.6361 68.9077C41.3676 69.2912 41.0623 69.6476 40.7247 69.972C40.1367 70.56 39.3135 71.4126 38.3727 72.324C37.4319 73.2354 36.6087 74.041 36.0207 74.6113C35.7027 74.9413 35.3542 75.2406 34.98 75.5051C35.238 75.1203 35.5356 74.7636 35.8679 74.4408C36.4559 73.8528 37.2791 72.9943 38.2199 72.0888C39.1607 71.1833 39.9839 70.3718 40.6013 69.7956C40.9127 69.4627 41.2597 69.1649 41.6361 68.9077Z" fill="#E0E0E0"/>
<path d="M78.1392 68.796C78.5124 69.0661 78.8589 69.3713 79.174 69.7074C79.762 70.2954 80.6146 71.1186 81.526 72.0594C82.4374 73.0002 83.2371 73.8234 83.8134 74.4114C84.145 74.7279 84.4444 75.0765 84.7071 75.4522C84.331 75.188 83.984 74.8844 83.6722 74.5467C83.0842 73.9587 82.2316 73.1355 81.3202 72.1947C80.4088 71.2539 79.6092 70.4307 79.0329 69.8427C78.6989 69.5263 78.3994 69.1754 78.1392 68.796Z" fill="#E0E0E0"/>
<path d="M78.0393 30.7053C78.3071 30.3302 78.6125 29.9835 78.9507 29.6704C79.5387 29.0824 80.356 28.2298 81.2733 27.3184C82.1906 26.407 83.0373 25.6014 83.6547 25.0311C83.9738 24.7 84.3244 24.4007 84.7013 24.1373C84.4323 24.5096 84.127 24.8543 83.7899 25.1663C83.2019 25.7543 82.3846 26.6128 81.4379 27.5183C80.4913 28.4238 79.6739 29.2353 79.0507 29.8115C78.7446 30.1428 78.4057 30.4423 78.0393 30.7053Z" fill="#E0E0E0"/>
<path d="M41.5362 30.7995C41.163 30.5294 40.8164 30.2242 40.5013 29.8881C39.9133 29.3001 39.0549 28.4769 38.1493 27.5361C37.2438 26.5953 36.4324 25.7721 35.8561 25.1841C35.525 24.8687 35.2275 24.52 34.9683 24.1433C35.3401 24.4107 35.6848 24.714 35.9973 25.0488C36.5853 25.6368 37.4437 26.46 38.3493 27.4008C39.2548 28.3416 40.0662 29.1648 40.6425 29.7528C40.9764 30.0692 41.276 30.4201 41.5362 30.7995Z" fill="#E0E0E0"/>
<path d="M78.0394 68.6548C78.0394 68.6548 78.0394 68.5901 78.0394 68.4725C78.0394 68.3549 78.0394 68.1668 78.0394 67.9433C78.0394 67.4671 78.0394 66.7673 78.0394 65.8912C78.0394 64.0919 78.0394 61.4695 78.0394 58.1355C78.0394 51.4735 78.0041 41.9773 77.9747 30.6053L78.0982 30.7229H41.6951L41.8303 30.5877C41.8303 44.5527 41.8303 57.6357 41.8303 68.6372L41.7127 68.5196L68.0787 68.5784L75.4757 68.6137H77.4337H75.5051H68.1257L41.6657 68.6725H41.5481V68.5549C41.5481 57.5357 41.5481 44.4469 41.5481 30.5054V30.3643H41.6892H78.0923H78.2099V30.4877C78.2099 41.8891 78.1629 51.4147 78.1511 58.1237C78.1511 61.4459 78.1511 64.0567 78.1158 65.8501C78.1158 66.7321 78.1158 67.4141 78.1158 67.8787C78.1158 68.1021 78.1158 68.2726 78.1158 68.3961C78.1158 68.5196 78.0394 68.6548 78.0394 68.6548Z" fill="#E0E0E0"/>
<path d="M51.2678 46.499C51.2678 46.499 50.4857 55.907 60.6758 55.907C60.6875 50.8914 56.5421 46.9224 51.2678 46.499Z" fill="#EBEBEB"/>
<path d="M69.9366 46.5049C69.9366 46.5049 60.5286 45.7229 60.5286 55.9129C65.5442 55.9306 69.5132 51.7793 69.9366 46.5049Z" fill="#EBEBEB"/>
<path d="M60.2346 41.3481C60.2346 41.3481 52.5377 48.2571 60.6579 55.9188C64.4329 51.9204 64.0919 45.6464 60.2346 41.3481Z" fill="#E0E0E0"/>
<path d="M216.772 214.185C213.665 212.243 210.156 211.036 206.512 210.657C204.836 210.486 202.984 210.533 201.655 211.551C201.501 211.642 201.373 211.772 201.286 211.928C201.198 212.083 201.153 212.26 201.155 212.439C201.239 212.685 201.407 212.893 201.631 213.027C205.806 216.208 212.121 216.613 216.772 214.173" fill="#E0E0E0"/>
<path d="M216.507 213.891C214.131 212.148 211.914 210.198 209.881 208.064C207.84 205.915 206.405 203.263 205.723 200.379C205.547 199.503 205.494 198.503 206.053 197.809C211.345 201.925 215.461 207.27 216.507 213.891Z" fill="#E0E0E0"/>
<path d="M216.719 214.144C216.229 211.26 216.268 208.311 216.837 205.441C217.501 202.601 219.048 199.885 221.476 198.262C222.387 200.396 221.993 202.854 221.353 205.083C220.356 208.537 218.803 211.806 216.754 214.761" fill="#E0E0E0"/>
<path d="M221.894 223.44C218.754 223.822 216.014 225.48 213.662 227.603C211.305 229.753 209.664 232.572 208.958 235.682C212.045 235.494 214.661 233.33 216.554 230.884C218.448 228.438 219.771 225.768 221.846 223.487" fill="#E0E0E0"/>
<path d="M223.022 224.904C221.786 221.762 221.353 218.361 221.764 215.01C222.175 211.658 223.416 208.462 225.374 205.712C227.168 212.08 226.509 219.277 223.022 224.904Z" fill="#E0E0E0"/>
<path d="M229.861 233.054C226.988 232.875 224.125 233.545 221.63 234.982C219.135 236.419 217.118 238.558 215.831 241.133C215.655 241.48 215.502 241.921 215.737 242.232C215.858 242.35 216.006 242.436 216.168 242.483C216.33 242.53 216.501 242.537 216.666 242.503C219.43 242.327 221.882 240.663 223.904 238.769C225.927 236.876 227.691 234.683 229.926 233.048" fill="#E0E0E0"/>
<path d="M229.643 232.613C228.171 227.87 228.081 222.805 229.385 218.013C229.896 216.131 230.76 214.155 232.501 213.273C232.57 213.227 232.648 213.195 232.73 213.181C232.812 213.167 232.897 213.17 232.977 213.191C233.117 213.265 233.224 213.389 233.277 213.538C233.86 214.853 234.112 216.29 234.012 217.725C233.908 219.153 233.687 220.571 233.354 221.964C232.807 224.557 232.519 227.344 231.096 229.579C230.758 230.115 230.456 230.673 230.19 231.249C229.92 231.837 229.92 232.019 229.673 232.472" fill="#E0E0E0"/>
<path d="M247.754 235.312C246.413 230.202 247.836 224.016 251.052 219.83C251.294 219.524 251.605 219.195 251.993 219.242C252.581 219.295 252.74 220.088 252.711 220.682C252.47 225.932 250.751 231.007 247.754 235.323" fill="#E0E0E0"/>
<path d="M249.388 236.423C255.592 238.04 262.707 236.47 267.863 232.666C264.772 231.116 261.241 230.684 257.867 231.443C254.528 232.207 251.476 233.701 249.394 236.423" fill="#E0E0E0"/>
<path d="M250.764 233.024C254.239 227.362 260.895 223.669 267.534 223.334C266.77 226.033 264.547 228.126 262.048 229.396C259.549 230.666 256.756 231.213 253.998 231.748C252.928 231.954 251.458 232.183 250.764 233.024Z" fill="#E0E0E0"/>
<path d="M248.101 216.537C249.042 213.315 249.988 210.069 250.247 206.717C250.506 203.366 250.023 199.879 248.289 197.004C245.043 203.283 244.72 210.616 248.001 216.872" fill="#E0E0E0"/>
<path d="M259.026 211.016C262.818 204.118 270.556 198.615 278.388 197.839C275.366 205.365 267.128 211.174 259.026 211.016Z" fill="#E0E0E0"/>
<path d="M256.638 212.368C262.295 213.226 267.117 216.843 272.403 219.03C273.51 219.567 274.739 219.802 275.966 219.712C276.538 219.709 277.096 219.53 277.563 219.199C278.03 218.869 278.384 218.402 278.576 217.863C278.769 217.325 278.791 216.739 278.64 216.188C278.488 215.636 278.171 215.144 277.73 214.779C276.981 214.088 276.101 213.554 275.143 213.209C269.38 210.81 263.206 210.751 257.138 212.203" fill="#E0E0E0"/>
<path d="M253.363 216.337C254.645 216.701 255.08 217.366 256.097 218.23C259.556 221.17 263.647 223.271 268.052 224.369C268.51 224.481 269.104 224.528 269.333 224.116C269.563 223.705 269.28 223.316 269.022 222.999C267.101 220.745 264.609 219.051 261.807 218.095C259.043 217.072 256.656 215.831 253.363 216.096" fill="#E0E0E0"/>
<path d="M249.665 192.364C251.987 194.501 254.73 196.127 257.719 197.14C260.707 198.153 263.874 198.529 267.017 198.244C267.305 198.25 267.585 198.149 267.805 197.962C268.24 197.486 267.716 196.751 267.217 196.357C262.113 192.382 255.939 190.73 249.671 192.341" fill="#E0E0E0"/>
<path d="M254.045 190.765C257.116 188.504 260.679 187.001 264.442 186.38C268.204 185.758 272.061 186.036 275.696 187.19C272.967 189.877 269.186 191.306 265.376 191.717C261.573 192.066 257.737 191.743 254.045 190.765Z" fill="#E0E0E0"/>
<path d="M252.305 179.752C251.805 174.66 252.128 170.643 251.776 165.528C251.776 165.116 251.664 164.628 251.282 164.481C250.747 164.275 250.306 164.928 250.106 165.469C249.364 167.84 249.174 170.35 249.55 172.806C249.926 175.262 250.858 177.599 252.275 179.64" fill="#E0E0E0"/>
<path d="M251.94 180.31C255.392 178.176 257.979 175.394 260.372 172.119C262.036 169.838 263.441 167.11 263.065 164.311C260.713 164.264 258.502 165.551 256.979 167.333C255.528 169.177 254.473 171.301 253.881 173.572C253.204 175.812 252.734 178.111 251.94 180.31Z" fill="#E0E0E0"/>
<path d="M260.225 178.011C267.815 175.2 274.842 171.056 280.976 165.775C278.5 164.775 275.684 165.375 273.185 166.363C267.522 168.65 262.895 172.507 260.119 177.94" fill="#E0E0E0"/>
<path d="M254.269 183.097C258.103 183.515 261.995 183.791 265.794 183.156C269.592 182.521 273.061 181.051 276.548 179.581C276.859 179.486 277.122 179.276 277.283 178.993C277.337 178.831 277.341 178.657 277.294 178.493C277.246 178.329 277.15 178.184 277.019 178.076C276.751 177.862 276.437 177.715 276.101 177.647C272.309 176.582 268.21 177.059 264.476 178.34C260.919 179.547 257.498 181.124 254.269 183.044" fill="#E0E0E0"/>
<path d="M232.395 192.541C229.784 187.249 229.955 181.11 232.207 175.671C233.8 178.093 233.971 181.175 233.701 184.062C233.43 186.949 232.525 189.906 232.477 192.805" fill="#E0E0E0"/>
<path d="M221.952 187.272C218.68 187.23 215.436 187.87 212.426 189.153C209.416 190.436 206.706 192.333 204.471 194.722C207.728 195.234 211.08 194.393 214.044 192.958C217.007 191.523 219.641 189.483 222.276 187.466" fill="#E0E0E0"/>
<path d="M214.938 184.926C211.745 184.667 208.669 184.273 205.6 185.214C202.531 186.155 199.72 188.289 198.491 191.247C201.503 191.489 204.525 190.918 207.241 189.595C209.94 188.271 212.516 186.708 214.938 184.926Z" fill="#E0E0E0"/>
<path d="M225.327 185.032C222.458 183.15 219.506 181.239 216.166 180.457C212.826 179.675 208.946 180.251 206.611 182.774C209.322 184.361 212.603 184.538 215.743 184.538C218.883 184.538 222.728 184.497 225.686 185.543" fill="#E0E0E0"/>
<path d="M225.345 185.185C220.435 180.363 218.577 171.702 220.553 165.116C224.427 171.048 226.121 178.142 225.345 185.185Z" fill="#E0E0E0"/>
<path d="M238.845 171.525C239.774 169.373 240.421 167.115 241.256 164.922C242.012 162.699 243.175 160.635 244.684 158.836C246.222 157.029 248.407 155.897 250.77 155.685C250.014 159.005 248.573 162.132 246.542 164.866C244.51 167.599 241.931 169.879 238.969 171.561" fill="#E0E0E0"/>
<path d="M236.405 174.371C234.871 172.266 233.101 169.403 231.025 167.827C228.95 166.251 226.239 165.299 223.705 165.904C225.018 168.205 226.85 170.169 229.055 171.638C231.259 173.108 233.776 174.044 236.405 174.371Z" fill="#E0E0E0"/>
<path d="M236.893 171.696C235.888 169.144 234.876 166.563 234.471 163.852C234.065 161.141 234.312 158.243 235.7 155.879C238.393 160.971 239.263 166.463 237.029 171.755" fill="#E0E0E0"/>
<path d="M238.869 155.885C240.398 150.834 245.02 147.112 250.012 145.406C250.632 145.155 251.303 145.055 251.97 145.112C252.301 145.151 252.614 145.286 252.87 145.5C253.126 145.714 253.314 145.998 253.41 146.318C253.593 147.176 252.881 147.947 252.234 148.517C248.33 151.849 243.792 154.355 238.893 155.885" fill="#E0E0E0"/>
<path d="M238.928 151.751C239.122 148.499 239.322 145.195 240.38 142.108C241.439 139.021 243.485 136.128 246.454 134.781C246.96 138.068 245.507 141.338 243.755 144.189C242.003 147.041 239.898 149.687 238.845 152.845" fill="#E0E0E0"/>
<path d="M238.845 153.997C237.587 150.316 237.452 145.642 235.253 142.431C233.712 140.191 231.243 138.662 229.914 136.292C229.112 138.568 229.224 141.065 230.225 143.26C231.227 145.433 232.606 147.41 234.3 149.099C235.935 150.863 237.328 152.151 238.845 153.997Z" fill="#E0E0E0"/>
<path d="M238.869 262.383C238.775 262.383 238.687 237.828 238.681 207.552C238.675 177.276 238.746 152.709 238.846 152.709C238.946 152.709 239.028 177.258 239.034 207.552C239.04 237.846 238.969 262.383 238.869 262.383Z" fill="#E0E0E0"/>
<path d="M260.325 188.836C260.029 188.981 259.72 189.097 259.402 189.183L256.862 190.042C254.722 190.771 251.776 191.806 248.583 193.134C245.39 194.463 242.438 195.592 240.739 197.062C240.063 197.63 239.524 198.344 239.163 199.15C238.922 199.738 238.881 200.079 238.846 200.073C238.831 199.987 238.831 199.9 238.846 199.814C238.884 199.57 238.945 199.33 239.028 199.097C239.348 198.241 239.875 197.477 240.563 196.874C241.588 196.008 242.735 195.297 243.967 194.763C245.325 194.128 246.837 193.464 248.436 192.805C251.641 191.494 254.61 190.453 256.774 189.801C257.856 189.465 258.738 189.213 259.355 189.048C259.671 188.947 259.996 188.876 260.325 188.836Z" fill="#E0E0E0"/>
<path d="M267.358 171.561C267.358 171.561 267.281 171.667 267.099 171.837L266.311 172.578L263.371 175.248L253.581 183.968C249.759 187.366 246.46 190.618 244.173 193.064C243.026 194.287 242.121 195.298 241.503 196.004C241.221 196.333 240.986 196.592 240.792 196.815C240.598 197.039 240.539 197.098 240.527 197.086C240.588 196.976 240.659 196.871 240.739 196.774C240.886 196.574 241.103 196.28 241.397 195.916C241.985 195.181 242.861 194.152 243.985 192.893C246.939 189.666 250.064 186.598 253.345 183.703C257.179 180.304 260.672 177.235 263.206 175.059L266.223 172.472L267.052 171.784C267.145 171.698 267.247 171.623 267.358 171.561Z" fill="#E0E0E0"/>
<path d="M249.459 187.425C249.359 187.378 250.153 185.537 250.953 183.203C251.752 180.869 252.129 178.905 252.234 178.922C252.34 178.94 252.099 180.957 251.288 183.321C250.949 184.321 250.556 185.302 250.112 186.261C249.951 186.678 249.731 187.07 249.459 187.425Z" fill="#E0E0E0"/>
<path d="M238.893 202.272C238.673 202.066 238.476 201.837 238.305 201.59L236.793 199.655C235.529 198.015 233.777 195.757 231.813 193.281C229.849 190.806 228.044 188.577 226.739 186.984L225.204 185.085C225.002 184.861 224.825 184.617 224.675 184.356C224.908 184.547 225.12 184.762 225.31 184.997C225.704 185.42 226.262 186.049 226.939 186.831C228.297 188.401 230.137 190.594 232.101 193.076C234.065 195.557 235.794 197.838 237.011 199.514C237.599 200.355 238.099 201.037 238.428 201.519C238.604 201.756 238.76 202.008 238.893 202.272Z" fill="#E0E0E0"/>
<path d="M234.189 196.245C234.13 196.31 232.877 194.816 232.219 192.558C231.848 191.354 231.697 190.094 231.772 188.836H231.925C231.86 189.118 231.807 189.271 231.778 189.265C231.748 189.26 231.748 189.101 231.778 188.813H231.937C232.01 190.038 232.221 191.251 232.566 192.429C233.195 194.628 234.283 196.186 234.189 196.245Z" fill="#E0E0E0"/>
<path d="M228.144 188.607C227.721 188.283 227.259 188.014 226.768 187.807C225.53 187.437 224.227 187.333 222.946 187.501C221.649 187.602 220.363 187.81 219.101 188.125C218.584 188.29 218.055 188.416 217.519 188.501C217.991 188.221 218.502 188.013 219.036 187.884C220.299 187.491 221.603 187.244 222.923 187.149C224.251 186.972 225.602 187.117 226.862 187.572C227.398 187.755 227.852 188.122 228.144 188.607Z" fill="#E0E0E0"/>
<path d="M226.674 186.755C226.674 186.808 225.874 186.431 224.569 185.984C221.154 184.814 217.496 184.537 213.944 185.179C212.585 185.42 211.762 185.673 211.745 185.614C211.917 185.506 212.105 185.426 212.303 185.379C212.824 185.196 213.357 185.047 213.897 184.932C217.484 184.144 221.224 184.428 224.651 185.749C225.166 185.946 225.669 186.174 226.157 186.431C226.503 186.619 226.686 186.731 226.674 186.755Z" fill="#E0E0E0"/>
<path d="M238.845 178.922C238.751 178.922 238.063 176.57 237.311 173.583C236.558 170.596 236.017 168.18 236.135 168.156C236.252 168.133 236.917 170.508 237.669 173.495C238.422 176.482 238.94 178.899 238.845 178.922Z" fill="#E0E0E0"/>
<path d="M238.945 178.923C238.84 178.958 238.393 177.358 237.24 175.724C236.517 174.758 235.674 173.888 234.729 173.137C235.087 173.226 235.419 173.397 235.7 173.636C236.411 174.158 237.03 174.796 237.528 175.524C238.289 176.514 238.778 177.685 238.945 178.923Z" fill="#E0E0E0"/>
<path d="M238.869 249.312C238.834 249.312 238.757 248.724 238.481 247.677C238.076 246.209 237.527 244.785 236.841 243.426C235.147 239.963 232.06 235.565 228.138 231.166C226.192 228.944 224.31 226.85 222.711 224.845C221.275 223.079 219.975 221.206 218.824 219.242C218.054 217.916 217.399 216.527 216.866 215.09C216.684 214.573 216.555 214.179 216.478 213.914C216.427 213.762 216.396 213.604 216.384 213.444C216.419 213.444 216.596 214.032 217.001 215.008C217.582 216.417 218.266 217.781 219.048 219.089C220.22 221.022 221.531 222.867 222.97 224.61C224.575 226.592 226.462 228.679 228.409 230.902C232.342 235.318 235.423 239.763 237.076 243.291C237.746 244.673 238.265 246.124 238.622 247.619C238.72 248.023 238.793 248.434 238.84 248.847C238.868 249.001 238.877 249.157 238.869 249.312Z" fill="#E0E0E0"/>
<path d="M258.261 227.397C257.934 227.613 257.595 227.81 257.244 227.985C256.325 228.509 255.444 229.098 254.61 229.749C253.374 230.709 252.216 231.765 251.147 232.907C249.929 234.189 248.677 235.682 247.401 237.276C244.849 240.48 242.462 243.314 241.033 245.578C240.304 246.701 239.775 247.648 239.428 248.312C239.268 248.667 239.081 249.009 238.869 249.335C238.886 249.235 238.918 249.138 238.963 249.047C239.04 248.865 239.146 248.589 239.304 248.254C239.753 247.288 240.257 246.35 240.815 245.443C242.209 243.126 244.579 240.251 247.125 237.052C248.407 235.453 249.671 233.959 250.911 232.677C251.999 231.539 253.179 230.493 254.439 229.549C255.296 228.916 256.207 228.359 257.162 227.885C257.497 227.715 257.75 227.609 257.956 227.532C258.047 227.467 258.151 227.421 258.261 227.397Z" fill="#E0E0E0"/>
<path d="M258.638 234.5C257.931 234.659 257.214 234.763 256.491 234.812C254.767 234.991 253.063 235.325 251.399 235.811C249.755 236.348 248.213 237.157 246.836 238.205C245.784 239.022 245.29 239.692 245.243 239.651C245.317 239.468 245.424 239.3 245.56 239.157C245.894 238.73 246.268 238.336 246.678 237.981C248.038 236.849 249.603 235.988 251.288 235.447C252.974 234.947 254.712 234.639 256.468 234.53C257.189 234.453 257.915 234.443 258.638 234.5Z" fill="#E0E0E0"/>
<path d="M245.866 238.875C245.755 238.81 246.725 237.329 247.471 235.347C248.218 233.365 248.342 231.584 248.471 231.601C248.526 231.993 248.515 232.39 248.436 232.777C248.328 233.704 248.117 234.615 247.807 235.494C247.482 236.365 247.064 237.199 246.56 237.981C246.379 238.315 246.145 238.617 245.866 238.875Z" fill="#E0E0E0"/>
<path d="M264.541 208.323C264.431 208.394 264.315 208.455 264.194 208.505L263.183 208.963C262.742 209.152 262.207 209.393 261.601 209.71C260.996 210.028 260.29 210.345 259.549 210.792L258.373 211.457C257.967 211.692 257.562 211.968 257.138 212.233C256.274 212.762 255.41 213.409 254.486 214.061C250.531 217.015 247.08 220.589 244.267 224.645C243.644 225.592 243.026 226.48 242.532 227.362C242.28 227.797 242.015 228.209 241.797 228.62L241.168 229.796C240.751 230.549 240.457 231.266 240.163 231.884C239.869 232.501 239.639 233.06 239.469 233.495L239.046 234.518C239.002 234.642 238.945 234.76 238.875 234.871C238.893 234.742 238.926 234.615 238.975 234.494C239.075 234.218 239.193 233.871 239.34 233.442C239.526 232.887 239.74 232.341 239.98 231.807C240.257 231.178 240.539 230.449 240.945 229.685L241.533 228.473C241.744 228.056 242.003 227.638 242.256 227.191C242.738 226.298 243.35 225.427 243.973 224.445C246.774 220.338 250.254 216.737 254.263 213.797C255.204 213.138 256.08 212.497 256.956 211.98C257.391 211.715 257.797 211.445 258.208 211.215L259.384 210.563C260.131 210.134 260.854 209.822 261.472 209.528C261.996 209.267 262.534 209.033 263.083 208.828L264.124 208.434C264.257 208.377 264.397 208.339 264.541 208.323Z" fill="#E0E0E0"/>
<path d="M249.194 218.601C249.338 218.106 249.632 217.669 250.035 217.348C250.98 216.524 252.186 216.061 253.44 216.043C254.666 216.035 255.882 216.273 257.015 216.743C257.494 216.894 257.95 217.114 258.367 217.395C257.884 217.3 257.412 217.158 256.956 216.972C255.833 216.588 254.656 216.389 253.469 216.384C252.293 216.409 251.156 216.808 250.223 217.525C249.856 217.859 249.512 218.218 249.194 218.601Z" fill="#E0E0E0"/>
<path d="M246.901 220.97C246.801 220.917 247.665 219.647 247.865 217.83C248.065 216.014 247.542 214.579 247.648 214.549C247.754 214.52 247.883 214.867 248.048 215.467C248.467 217.047 248.271 218.728 247.501 220.171C247.201 220.712 246.96 220.994 246.901 220.97Z" fill="#E0E0E0"/>
<path d="M221.911 252.84C222.44 262.248 225.269 271.768 229.62 281.417H248.53C252.681 271.832 255.31 262.307 255.78 252.84H221.911Z" fill="#E0E0E0"/>
<path d="M252.716 267.993C252.716 268.093 246.49 268.175 238.804 268.175C231.119 268.175 224.898 268.093 224.898 267.993C224.898 267.893 231.125 267.816 238.804 267.816C246.484 267.816 252.716 267.899 252.716 267.993Z" fill="#FAFAFA"/>
<path d="M252.293 271.391C252.293 271.491 246.454 271.574 239.257 271.574C232.06 271.574 226.215 271.491 226.215 271.391C226.215 271.291 232.054 271.215 239.257 271.215C246.46 271.215 252.293 271.297 252.293 271.391Z" fill="#FAFAFA"/>
<path d="M229.908 258.973C230.143 261.873 230.143 264.787 229.908 267.687C229.808 267.687 229.731 265.735 229.731 263.33C229.731 260.925 229.826 258.973 229.908 258.973Z" fill="#FAFAFA"/>
<path d="M240.057 258.973C240.157 258.973 240.233 260.99 240.233 263.483C240.233 265.976 240.157 267.993 240.057 267.993C239.957 267.993 239.88 265.976 239.88 263.483C239.88 260.99 239.957 258.973 240.057 258.973Z" fill="#FAFAFA"/>
<path d="M249.571 258.896C249.671 258.896 249.747 260.954 249.747 263.495C249.747 266.035 249.671 268.099 249.571 268.099C249.471 268.099 249.394 266.041 249.394 263.495C249.394 260.948 249.471 258.896 249.571 258.896Z" fill="#FAFAFA"/>
<path d="M255.192 258.973C255.192 259.073 247.889 259.149 238.881 259.149C229.873 259.149 222.57 259.073 222.57 258.973C222.57 258.873 229.867 258.796 238.881 258.796C247.895 258.796 255.192 258.873 255.192 258.973Z" fill="#FAFAFA"/>
<path d="M245.031 165.363H30.717V171.967H245.031V165.363Z" fill="#EBEBEB"/>
<path d="M49.2568 171.155L33.1985 281.387H36.6442L56.448 171.966L49.2568 171.155Z" fill="#EBEBEB"/>
<path d="M229.896 170.455L246.836 281.387H243.397L222.699 171.467L229.896 170.455Z" fill="#EBEBEB"/>
<path d="M38.8549 138.768V153.633H36.3735V155.232H38.8549V165.181H85.2599V156.126H81.8259V154.15H85.2599V151.21H86.7887V149.869H84.9659V138.768H38.8549Z" fill="#F5F5F5"/>
<path d="M72.9294 138.792V165.01H85.248V155.961H81.8141V154.156L85.248 154.215V151.257H86.8062L86.7768 149.728L84.9658 149.687V138.75L72.9294 138.792Z" fill="#E0E0E0"/>
<path d="M73.8056 155.014C73.8056 155.109 65.4148 155.179 55.0602 155.179C44.7055 155.179 36.3088 155.109 36.3088 155.014C36.3088 154.92 44.7055 154.85 55.0602 154.85C65.4148 154.85 73.8056 154.926 73.8056 155.014Z" fill="#E0E0E0"/>
<path d="M73.8056 153.503C73.8056 153.597 65.4148 153.668 55.0602 153.668C44.7055 153.668 36.3088 153.597 36.3088 153.503C36.3088 153.409 44.7055 153.339 55.0602 153.339C65.4148 153.339 73.8056 153.415 73.8056 153.503Z" fill="#E0E0E0"/>
<path d="M76.2165 149.44C76.2165 149.534 67.8198 149.605 57.471 149.605C47.1222 149.605 38.7197 149.534 38.7197 149.44C38.7197 149.346 47.1105 149.276 57.471 149.276C67.8316 149.276 76.2165 149.352 76.2165 149.44Z" fill="#E0E0E0"/>
<path d="M76.4399 160.524C76.4399 160.618 68.0491 160.695 57.6944 160.695C47.3398 160.695 38.9431 160.618 38.9431 160.524C38.9431 160.43 47.3339 160.359 57.6944 160.359C68.055 160.359 76.4399 160.424 76.4399 160.524Z" fill="#E0E0E0"/>
<path d="M88.688 128.796H80.5972V138.415H88.688V128.796Z" fill="#F5F5F5"/>
<path d="M80.8734 128.166H44.3115V139.015H80.8734V128.166Z" fill="#E0E0E0"/>
<path d="M88.9289 129.084H79.8914V128.184H88.9289C89.0506 128.184 89.1672 128.232 89.2532 128.318C89.3392 128.404 89.3876 128.521 89.3876 128.643C89.383 128.761 89.3327 128.873 89.2471 128.956C89.1616 129.038 89.0476 129.084 88.9289 129.084Z" fill="#E0E0E0"/>
<path d="M88.9289 139.021H79.8914V138.104H88.9289C89.0506 138.104 89.1672 138.152 89.2532 138.238C89.3392 138.324 89.3876 138.441 89.3876 138.562C89.3876 138.684 89.3392 138.8 89.2532 138.886C89.1672 138.972 89.0506 139.021 88.9289 139.021Z" fill="#E0E0E0"/>
<path d="M78.0039 128.166H73.6821V139.015H78.0039V128.166Z" fill="#EBEBEB"/>
<path d="M52.1143 128.29H47.7925V139.138H52.1143V128.29Z" fill="#EBEBEB"/>
<path d="M88.6879 130.389C88.6879 130.389 86.9238 130.436 84.7776 130.436C82.6314 130.436 80.8616 130.436 80.8616 130.389C80.8616 130.342 82.6256 130.336 84.7776 130.336C86.9297 130.336 88.6879 130.36 88.6879 130.389Z" fill="#E0E0E0"/>
<path d="M88.6879 131.83C88.6879 131.83 86.9238 131.877 84.7776 131.877C82.6314 131.877 80.8616 131.877 80.8616 131.83C80.8616 131.783 82.6256 131.783 84.7776 131.783C86.9297 131.783 88.6879 131.8 88.6879 131.83Z" fill="#E0E0E0"/>
<path d="M88.6879 133.605C88.6879 133.605 86.9238 133.652 84.7776 133.652C82.6314 133.652 80.8616 133.652 80.8616 133.605C80.8616 133.558 82.6256 133.558 84.7776 133.558C86.9297 133.558 88.6879 133.576 88.6879 133.605Z" fill="#E0E0E0"/>
<path d="M88.6879 135.381C88.6879 135.381 86.9238 135.428 84.7776 135.428C82.6314 135.428 80.8616 135.428 80.8616 135.381C80.8616 135.334 82.6256 135.334 84.7776 135.334C86.9297 135.334 88.6879 135.352 88.6879 135.381Z" fill="#E0E0E0"/>
<path d="M88.6879 137.157C88.6879 137.157 86.9238 137.204 84.7776 137.204C82.6314 137.204 80.8616 137.204 80.8616 137.157C80.8616 137.11 82.6256 137.11 84.7776 137.11C86.9297 137.11 88.6879 137.128 88.6879 137.157Z" fill="#E0E0E0"/>
<path d="M71.3538 132.629H54.9075V134.581H71.3538V132.629Z" fill="#EBEBEB"/>
<path d="M73.1943 117.635L77.7454 128.325H74.8172L72.7944 122.616L73.1943 117.635Z" fill="#E0E0E0"/>
<path d="M59.2232 107.969L57.4651 128.325H72.3356L73.9702 107.969H59.2232Z" fill="#EBEBEB"/>
<path d="M60.6756 109.58L59.135 126.632L70.3011 126.779L71.8064 109.48L60.6756 109.58Z" fill="#FAFAFA"/>
<path d="M63.0453 111.943L62.1692 123.674H68.1256L69.1723 111.943H63.0453Z" fill="#E0E0E0"/>
<path d="M233.931 32.3024L228.433 32.3322L228.581 59.6914L234.079 59.6616L233.931 32.3024Z" fill="#E0E0E0"/>
<path d="M195.036 32.3719L180.794 32.449L180.876 47.5545L195.117 47.4774L195.036 32.3719Z" fill="#EBEBEB"/>
<path d="M209.206 32.3011L194.965 32.3782L195.047 47.4837L209.288 47.4066L209.206 32.3011Z" fill="#F5F5F5"/>
<path d="M180.816 36.6324C190.277 36.7148 199.767 36.6324 209.228 36.5031C209.263 36.4962 209.294 36.4775 209.316 36.4501C209.339 36.4228 209.351 36.3885 209.351 36.3531C209.351 36.3178 209.339 36.2835 209.316 36.2562C209.294 36.2288 209.263 36.2101 209.228 36.2032C199.769 36.1483 190.3 36.2052 180.822 36.3737C180.787 36.3737 180.755 36.3874 180.73 36.4116C180.706 36.4359 180.692 36.4688 180.692 36.5031C180.692 36.5374 180.706 36.5703 180.73 36.5946C180.755 36.6188 180.787 36.6324 180.822 36.6324H180.816Z" fill="#E0E0E0"/>
<path d="M197.792 47.2332L171.92 47.3732L171.987 59.6798L197.858 59.5398L197.792 47.2332Z" fill="#EBEBEB"/>
<path d="M223.539 47.088L197.667 47.228L197.734 59.5347L223.606 59.3947L223.539 47.088Z" fill="#F5F5F5"/>
<path d="M171.931 50.8031C189.118 50.9972 206.364 50.8031 223.552 50.5503C223.592 50.5503 223.631 50.5342 223.66 50.5055C223.688 50.4768 223.705 50.438 223.705 50.3974C223.705 50.3569 223.688 50.318 223.66 50.2893C223.631 50.2606 223.592 50.2445 223.552 50.2445C206.364 50.1563 189.112 50.1622 171.931 50.5444C171.897 50.5444 171.864 50.558 171.84 50.5823C171.815 50.6066 171.802 50.6395 171.802 50.6738C171.802 50.7081 171.815 50.741 171.84 50.7652C171.864 50.7895 171.897 50.8031 171.931 50.8031Z" fill="#E0E0E0"/>
<path d="M262.489 59.6879H162.259V64.0979H262.489V59.6879Z" fill="#E0E0E0"/>
<path d="M182.739 61.8105H178.67V76.8575H182.739V61.8105Z" fill="#E0E0E0"/>
<path d="M243.479 61.8105H239.41V76.8575H243.479V61.8105Z" fill="#E0E0E0"/>
<path d="M239.291 22.101L233.793 22.1307L233.997 59.7622L239.495 59.7324L239.291 22.101Z" fill="#EBEBEB"/>
<path d="M247.884 29.1105L239.341 29.1567L239.506 59.65L248.049 59.6037L247.884 29.1105Z" fill="#F5F5F5"/>
<path d="M247.83 34.9918C246.41 35.1391 244.982 35.1882 243.555 35.1388C242.131 35.1884 240.704 35.1392 239.287 34.9918C242.131 34.7959 244.986 34.7959 247.83 34.9918Z" fill="#E0E0E0"/>
<path d="M247.83 33.71C246.41 33.8573 244.982 33.9064 243.555 33.857C242.131 33.9065 240.704 33.8574 239.287 33.71C242.131 33.514 244.986 33.514 247.83 33.71Z" fill="#E0E0E0"/>
<path d="M247.83 55.025C244.986 55.221 242.131 55.221 239.287 55.025C242.131 54.8291 244.986 54.8291 247.83 55.025Z" fill="#E0E0E0"/>
<path d="M247.83 53.7432C244.986 53.9392 242.131 53.9392 239.287 53.7432C242.131 53.5472 244.986 53.5472 247.83 53.7432Z" fill="#E0E0E0"/>
<path d="M243.697 50.9502C243.614 50.9502 243.544 47.8749 243.544 44.0765C243.544 40.278 243.614 37.2086 243.697 37.2086C243.779 37.2086 243.844 40.2839 243.844 44.0765C243.844 47.8691 243.773 50.9502 243.697 50.9502Z" fill="#E0E0E0"/>
<path d="M257.221 36.6089H247.918V59.6291H257.221V36.6089Z" fill="#EBEBEB"/>
<path d="M238.046 28.5357C238.047 28.8488 237.955 29.1551 237.782 29.416C237.609 29.6769 237.362 29.8806 237.073 30.0012C236.784 30.1218 236.466 30.154 236.159 30.0936C235.852 30.0332 235.569 29.8831 235.348 29.6621C235.126 29.4411 234.975 29.1593 234.913 28.8523C234.852 28.5453 234.883 28.227 235.002 27.9376C235.122 27.6483 235.324 27.4009 235.585 27.2268C235.845 27.0528 236.151 26.9598 236.464 26.9598C236.883 26.9598 237.284 27.1257 237.58 27.421C237.877 27.7164 238.044 28.1172 238.046 28.5357Z" fill="#E0E0E0"/>
<path d="M236.952 32.8868H235.976V55.272H236.952V32.8868Z" fill="#E0E0E0"/>
<path d="M270.392 281.387C270.392 281.47 215.12 281.54 147.006 281.54C78.8919 281.54 23.6082 281.47 23.6082 281.387C23.6082 281.305 78.8449 281.234 147.006 281.234C215.167 281.234 270.392 281.299 270.392 281.387Z" fill="#263238"/>
<path d="M145.994 206.9L170.238 281.387H165.822L137.421 206.9H145.994Z" fill="#E0E0E0"/>
<path d="M145.995 206.9H145.407H143.76L137.398 206.935L137.457 206.847C142.325 219.53 152.821 246.96 164.981 278.712C165.31 279.582 165.64 280.476 165.969 281.305L165.828 281.211H170.238L170.091 281.411C163.323 260.531 157.284 241.921 152.939 228.526C150.775 221.817 149.035 216.419 147.835 212.685C147.247 210.821 146.777 209.375 146.459 208.387L146.106 207.264C146.03 207.011 145.995 206.876 145.995 206.876C145.995 206.876 146.042 206.994 146.124 207.241L146.494 208.34C146.818 209.322 147.294 210.751 147.906 212.597C149.129 216.319 150.893 221.699 153.092 228.379C157.472 241.791 163.558 260.419 170.379 281.299L170.444 281.499H165.74L165.698 281.399C165.375 280.541 165.04 279.676 164.711 278.806C152.627 247.007 142.19 219.547 137.375 206.882V206.794H137.469L143.866 206.829H145.495C145.824 206.888 145.995 206.9 145.995 206.9Z" fill="#263238"/>
<path d="M98.2843 206.9L74.041 281.387H78.451L106.857 206.9H98.2843Z" fill="#E0E0E0"/>
<path d="M98.2842 206.9C98.2842 206.9 98.4665 206.9 98.831 206.9H100.46L106.857 206.864H106.951L106.916 206.952C102.106 219.618 91.6692 247.078 79.5858 278.877L78.5921 281.47L78.5568 281.57H73.8528L73.9175 281.37L91.2105 228.45L96.3967 212.668C96.9847 210.821 97.4845 209.393 97.8079 208.411L98.1783 207.311C98.2607 207.064 98.3077 206.947 98.3077 206.947C98.3077 206.947 98.2724 207.082 98.196 207.335L97.8432 208.458C97.5257 209.446 97.0611 210.892 96.4673 212.756C95.2619 216.49 93.5273 221.888 91.3634 228.597C87.0122 241.991 80.9793 260.602 74.2115 281.481L74.0645 281.282H78.4745L78.3333 281.376L79.3212 278.783C91.481 247.031 101.977 219.577 106.816 206.923L106.881 207.011L100.513 206.976H98.8722L98.2842 206.9Z" fill="#263238"/>
<path d="M138.045 208.534C137.912 208.647 137.77 208.749 137.621 208.84L136.375 209.663L131.783 212.674C127.908 215.226 122.563 218.765 116.689 222.705L101.648 232.848L97.0848 235.911L95.8441 236.699C95.704 236.803 95.5544 236.894 95.3972 236.97C95.5267 236.854 95.6642 236.748 95.8088 236.652L97.0201 235.788L101.53 232.648C105.346 230.014 110.644 226.398 116.524 222.458C122.404 218.518 127.761 215.002 131.671 212.497C133.623 211.251 135.199 210.245 136.316 209.557L137.592 208.781C137.737 208.687 137.888 208.605 138.045 208.534Z" fill="#263238"/>
<path d="M91.534 127.49C91.534 127.49 83.937 128.272 82.8316 132.847C81.7261 137.421 78.1276 193.999 82.8316 202.013C87.5356 210.028 148.1 208.91 152.304 207.811C156.508 206.711 158.49 203.983 158.06 200.649C157.631 197.315 116.389 193.181 116.389 193.181L118.905 134.135C118.905 134.135 104.076 126.667 91.534 127.49Z" fill="#263238"/>
<path d="M158.095 202.078H157.913H157.372L155.297 202.131C153.491 202.178 150.881 202.201 147.653 202.195C141.185 202.195 132.276 201.972 122.451 201.266C117.541 200.908 112.866 200.455 108.627 199.973C104.388 199.491 100.577 198.961 97.3903 198.462C95.791 198.226 94.3562 197.974 93.092 197.762C91.8278 197.55 90.74 197.356 89.8522 197.174L87.8118 196.78L87.2826 196.674L87.1062 196.627C87.1667 196.619 87.228 196.619 87.2885 196.627L87.8236 196.704L89.8757 197.039C90.7636 197.192 91.8514 197.374 93.1214 197.562C94.3915 197.75 95.8262 197.997 97.4197 198.215C100.613 198.691 104.423 199.179 108.656 199.661C112.89 200.143 117.565 200.573 122.474 200.931C132.294 201.637 141.202 201.878 147.653 201.949C150.875 201.984 153.486 201.99 155.297 201.984H157.919L158.095 202.078Z" fill="#455A64"/>
<path d="M149.205 237.805C149.158 237.875 139.562 231.131 127.778 222.752C115.995 214.373 106.475 207.511 106.522 207.464C106.569 207.417 116.165 214.138 127.955 222.523C139.744 230.908 149.252 237.734 149.205 237.805Z" fill="#263238"/>
<path d="M96.9023 76.6928L92.0513 68.1492C95.0474 63.2846 96.1156 57.4753 95.0459 51.8631C93.9762 46.2509 90.846 41.2418 86.2705 37.8204C81.6951 34.399 76.0053 32.8128 70.3197 33.3735C64.634 33.9342 59.3638 36.6013 55.5448 40.8505C51.7258 45.0998 49.6343 50.6238 49.6814 56.3368C49.7286 62.0498 51.911 67.5386 55.7996 71.7242C59.6882 75.9099 65.0018 78.4896 70.6959 78.9564C76.39 79.4232 82.0528 77.7432 86.5711 74.2468L96.9023 76.6928Z" fill="white"/>
<path d="M96.9023 76.6928L86.5418 74.3408H86.4007L86.4888 74.2232L86.6182 74.3526C83.4332 76.841 79.645 78.4399 75.6403 78.986C74.4409 79.1565 73.2287 79.2194 72.0182 79.1742C71.3949 79.1389 70.7599 79.1212 70.1189 79.0683L68.1844 78.7802C62.4198 77.6491 57.3023 74.365 53.8725 69.5956C51.9678 66.965 50.6467 63.9579 49.9976 60.7756C49.3389 57.4003 49.4312 53.9213 50.2681 50.5856C51.1342 47.1042 52.8173 43.8791 55.1779 41.1776C57.5744 38.4046 60.5982 36.2437 63.9979 34.8742C67.2588 33.5866 70.7673 33.048 74.2643 33.2984C77.5668 33.5262 80.7787 34.4777 83.6723 36.0855C88.8728 38.9622 92.7708 43.7252 94.5621 49.392C95.2679 51.8108 95.6029 54.3227 95.5558 56.8419C95.4311 60.8604 94.2487 64.7749 92.1278 68.1903V68.0962L96.9023 76.6869C96.5848 76.146 95.0913 73.5646 91.9749 68.1844V68.1433V68.0962C94.0501 64.6968 95.1958 60.8117 95.2971 56.8302C95.3355 54.343 94.9944 51.8645 94.2857 49.4802C92.5156 43.8783 88.6672 39.1672 83.5312 36.3148C80.6762 34.7352 77.5083 33.8037 74.2526 33.5865C70.8091 33.3421 67.3548 33.8746 64.1449 35.1447C60.7993 36.4949 57.824 38.6236 55.466 41.354C53.1406 44.0145 51.4836 47.1914 50.6326 50.6209C49.8028 53.9035 49.7084 57.3289 50.3563 60.6522C50.9849 63.8005 52.28 66.7777 54.1547 69.384C57.5306 74.1005 62.577 77.3534 68.2667 78.4803L70.1777 78.7743C70.8128 78.8272 71.4361 78.8449 72.0535 78.886C73.2498 78.9341 74.448 78.877 75.6344 78.7155C79.6023 78.1919 83.3623 76.6323 86.5359 74.1938L87.1239 73.7528L86.6829 74.3408L86.63 74.1997L96.9023 76.6928Z" fill="#263238"/>
<path d="M68.6607 53.114H70.1072L73.2589 48.7158V45.8287C73.2589 45.8287 75.4933 45.6935 75.2345 49.4684C74.9758 53.2434 75.2345 52.285 75.2345 52.285C75.2345 52.285 79.9797 52.285 80.3737 52.7201C80.6618 53.0141 80.7911 57.7298 80.8382 60.2818C80.871 60.8985 80.6959 61.5084 80.3409 62.0138C79.9859 62.5191 79.4715 62.8907 78.8801 63.0689C78.7136 63.1154 78.5415 63.1391 78.3686 63.1394C77.1926 63.1394 71.1421 62.1751 71.1421 62.1751H68.6431L68.6607 53.114Z" fill="#8EC3B0"/>
<path d="M64.5212 52.3202L65.415 62.2045H67.8905V52.5201L64.5212 52.3202Z" fill="#8EC3B0"/>
<path d="M188.378 177.576C188.378 177.576 201.984 177.576 202.543 190.253C203.101 202.931 162.935 269.81 162.935 269.81L150.216 263.771L177.488 198.873L118.312 193.052L119.987 178.164L188.378 177.576Z" fill="#FFA8A7"/>
<path d="M165.622 265.952L165.228 266.852C165.228 266.852 177.694 279.67 176.576 282.622L146.524 269.098L151.433 259.279C154.967 263.365 159.542 265.705 165.622 265.952Z" fill="#455A64"/>
<g opacity="0.6">
<path d="M153.039 263.853C152.71 263.812 152.378 263.893 152.105 264.08C151.831 264.268 151.637 264.549 151.557 264.871C151.503 265.198 151.576 265.533 151.762 265.808C151.948 266.083 152.233 266.276 152.557 266.346C152.905 266.389 153.256 266.302 153.544 266.101C153.832 265.9 154.035 265.6 154.115 265.259C154.138 264.912 154.025 264.57 153.8 264.305C153.575 264.041 153.255 263.874 152.909 263.842" fill="white"/>
</g>
<g opacity="0.6">
<path d="M146.524 269.104L147.7 266.752L176.071 280.576C176.071 280.576 177.147 281.752 176.57 282.634L146.524 269.104Z" fill="white"/>
</g>
<path d="M165.293 266.981C165.222 267.123 164.458 266.864 163.529 267.011C162.6 267.158 161.929 267.599 161.818 267.481C161.706 267.364 162.311 266.611 163.446 266.452C164.581 266.293 165.387 266.858 165.293 266.981Z" fill="#263238"/>
<path d="M167.862 269.704C167.833 269.857 167.08 269.821 166.304 270.221C165.528 270.621 165.087 271.209 164.946 271.139C164.805 271.068 165.081 270.192 166.057 269.716C167.033 269.239 167.921 269.563 167.862 269.704Z" fill="#263238"/>
<path d="M167.956 274.278C167.809 274.278 167.956 273.426 168.668 272.791C169.379 272.156 170.238 272.15 170.244 272.297C170.249 272.444 169.656 272.685 169.068 273.214C168.48 273.743 168.109 274.331 167.956 274.278Z" fill="#263238"/>
<path d="M162.635 129.777L165.052 137.169L151.875 138.198L150.34 134.24L162.635 129.777Z" fill="#FFA8A7"/>
<path d="M200.049 139.474C200.302 139.979 200.961 140.062 201.466 140.326C201.937 140.596 202.323 140.992 202.58 141.471C202.837 141.949 202.954 142.489 202.919 143.031C202.834 144.114 202.476 145.158 201.878 146.065C201.694 146.434 201.426 146.754 201.096 147C200.929 147.116 200.73 147.179 200.526 147.179C200.322 147.179 200.123 147.116 199.955 147C199.567 146.677 199.614 146.077 199.697 145.577C200.008 143.701 199.602 141.332 200.043 139.48" fill="#FFA8A7"/>
<path d="M112.414 46.7989C112.302 45.9743 112.504 45.1378 112.978 44.4543C113.453 43.7708 114.166 43.2898 114.978 43.1062L129.525 33.8511C135.07 32.6046 142.055 41.8656 143.049 47.4516C144.053 53.5912 144.447 59.8151 144.225 66.0324C143.825 75.5933 137.557 76.6164 137.557 76.6164L142.261 108.41L119.593 94.4328L112.414 46.7989Z" fill="#FFA8A7"/>
<path d="M140.026 55.3838C140.065 55.6964 139.981 56.0119 139.791 56.2633C139.601 56.5147 139.32 56.6822 139.009 56.7303C138.703 56.787 138.386 56.7198 138.129 56.5434C137.872 56.367 137.696 56.0958 137.639 55.7895C137.6 55.4768 137.685 55.1613 137.874 54.9099C138.064 54.6585 138.345 54.491 138.656 54.443C138.963 54.3863 139.279 54.4535 139.536 54.6299C139.793 54.8063 139.969 55.0774 140.026 55.3838Z" fill="#263238"/>
<path d="M141.896 51.9498C141.778 52.0792 140.814 52.0616 139.597 52.5378C138.38 53.0141 137.574 53.6492 137.421 53.6139C137.268 53.5786 137.421 53.4081 137.792 53.1141C138.303 52.6968 138.881 52.3706 139.503 52.1498C140.096 51.9215 140.726 51.8039 141.361 51.8028C141.784 51.7911 141.955 51.891 141.896 51.9498Z" fill="#263238"/>
<path d="M127.984 55.9658C128.021 56.2791 127.935 56.5946 127.745 56.8458C127.554 57.097 127.273 57.2642 126.961 57.3123C126.655 57.3673 126.341 57.2993 126.085 57.123C125.83 56.9468 125.654 56.6766 125.597 56.3715C125.556 56.0586 125.64 55.7423 125.831 55.4906C126.021 55.2388 126.302 55.0717 126.614 55.025C126.92 54.9683 127.237 55.0355 127.494 55.2119C127.751 55.3883 127.927 55.6595 127.984 55.9658Z" fill="#263238"/>
<path d="M129.248 54.4135C129.072 54.4841 128.166 53.9431 126.761 53.7373C125.356 53.5315 124.256 53.7373 124.121 53.6433C123.986 53.5492 124.256 53.4492 124.709 53.3375C125.414 53.1974 126.139 53.1835 126.849 53.2963C127.538 53.3906 128.202 53.614 128.807 53.9549C129.225 54.196 129.36 54.3841 129.248 54.4135Z" fill="#263238"/>
<path d="M134.987 62.4103C135.643 62.1133 136.335 61.9018 137.045 61.7811C137.369 61.7106 137.674 61.6106 137.704 61.3754C137.693 61.0308 137.576 60.698 137.369 60.4229C136.977 59.6389 136.553 58.8372 136.098 58.0179C134.334 54.5899 132.994 51.7557 133.158 51.6852C133.323 51.6146 134.852 54.3371 136.628 57.7651L137.857 60.1877C138.112 60.5635 138.227 61.0175 138.18 61.4695C138.145 61.5916 138.083 61.7042 137.999 61.7989C137.914 61.8936 137.809 61.9679 137.692 62.0163C137.514 62.086 137.329 62.1334 137.139 62.1575C136.435 62.3312 135.712 62.4161 134.987 62.4103Z" fill="#263238"/>
<path d="M137.551 76.64C133.159 77.2894 128.673 76.6776 124.615 74.876C124.615 74.876 128.478 81.4851 137.768 79.5094L137.551 76.64Z" fill="#F28F8F"/>
<path d="M135.134 65.5796C134.818 65.1677 134.414 64.8319 133.951 64.5968C133.488 64.3618 132.978 64.2335 132.459 64.2213C132.159 64.2276 131.868 64.3248 131.624 64.5002C131.38 64.6755 131.196 64.9207 131.095 65.2033C130.993 65.5683 130.981 65.9525 131.06 66.3231C131.139 66.6937 131.306 67.0397 131.547 67.3318C131.784 67.6409 132.107 67.874 132.474 68.0025C132.842 68.131 133.239 68.1492 133.617 68.0551C134.231 67.802 134.753 67.3696 135.117 66.8144C135.248 66.673 135.343 66.5014 135.393 66.3146C135.414 66.1968 135.41 66.0756 135.379 65.9598C135.349 65.844 135.293 65.7363 135.217 65.6443" fill="#F28F8F"/>
<path d="M131.277 63.751C131.489 63.7098 131.653 65.1152 132.97 65.9736C134.287 66.8321 135.769 66.5028 135.805 66.6969C135.805 66.7851 135.505 67.0085 134.87 67.1026C134.048 67.2096 133.216 67.0243 132.518 66.5793C131.847 66.1484 131.371 65.4736 131.189 64.6977C131.065 64.092 131.183 63.751 131.277 63.751Z" fill="#263238"/>
<path d="M129.66 48.6335C129.536 48.9863 128.231 48.8393 126.72 49.051C125.209 49.2627 123.962 49.6919 123.75 49.3803C123.656 49.2274 123.868 48.8922 124.338 48.5394C124.996 48.1052 125.744 47.8266 126.525 47.7247C127.307 47.6228 128.101 47.7003 128.848 47.9514C129.425 48.216 129.713 48.463 129.66 48.6335Z" fill="#263238"/>
<path d="M141.967 49.051C141.714 49.3744 140.573 49.198 139.238 49.3332C137.904 49.4685 136.798 49.8095 136.504 49.5273C136.369 49.392 136.504 49.0745 136.981 48.7452C137.628 48.3303 138.366 48.0783 139.132 48.0107C139.898 47.9432 140.669 48.062 141.379 48.3572C141.884 48.61 142.073 48.8922 141.967 49.051Z" fill="#263238"/>
<path d="M106.034 71.2362C106.269 66.9732 106.951 53.3258 109.703 45.8817C112.455 38.4376 116.33 35.1036 120.317 33.5337C121.822 32.8903 123.468 32.6465 125.096 32.8257C126.724 33.005 128.277 33.6012 129.607 34.5568C131.653 36.0033 132.841 40.7661 132.841 40.7661C132.841 40.7661 123.168 44.1059 120.493 50.1741C117.394 57.1125 116.841 60.4876 116.841 60.4876L116.006 64.1861C116.006 64.1861 117.823 80.262 118.641 83.5901L105.528 96.2674C105.958 92.0808 105.799 75.4934 106.034 71.2362Z" fill="#263238"/>
<path d="M133.129 40.7895C133.129 40.7895 138.733 39.5253 141.561 45.6934C142.843 48.4864 144.113 56.9419 144.113 56.9419C144.113 56.9419 144.589 50.0329 143.848 46.2756C143.108 42.5182 140.667 37.9318 137.457 35.6092C134.246 33.2866 131.812 32.4105 126.791 33.2925C128.303 33.6706 129.675 34.4723 130.748 35.6034C131.506 36.4912 131.883 37.2792 133.129 40.7895Z" fill="#263238"/>
<path d="M116.947 60.9462C116.606 58.8764 114.184 57.7475 112.502 58.9999C111.579 59.682 110.956 60.9168 111.297 63.1159C112.214 68.9959 117.9 66.8438 117.882 66.6792C117.865 66.5145 117.347 63.3629 116.947 60.9462Z" fill="#FFA8A7"/>
<path d="M115.748 64.7329C115.748 64.7329 115.66 64.8211 115.501 64.9269C115.272 65.0661 114.999 65.1144 114.736 65.0622C114.084 64.9328 113.413 64.0273 113.219 62.9807C113.125 62.4809 113.145 61.9663 113.278 61.4754C113.302 61.2834 113.373 61.1003 113.485 60.9423C113.597 60.7843 113.746 60.6564 113.919 60.5699C114.032 60.5224 114.158 60.5151 114.276 60.5494C114.394 60.5836 114.496 60.6573 114.566 60.758C114.672 60.9109 114.648 61.0285 114.683 61.0344C114.719 61.0403 114.795 60.9168 114.683 60.6816C114.629 60.5417 114.527 60.4253 114.395 60.3523C114.215 60.2566 114.003 60.2355 113.807 60.2935C113.574 60.3792 113.366 60.5229 113.203 60.7112C113.041 60.8995 112.929 61.126 112.878 61.3696C112.71 61.9139 112.677 62.4914 112.784 63.0512C113.002 64.2272 113.778 65.2386 114.666 65.3503C114.83 65.3711 114.996 65.355 115.153 65.3031C115.309 65.2512 115.452 65.1648 115.571 65.0504C115.76 64.874 115.771 64.7388 115.748 64.7329Z" fill="#F28F8F"/>
<path d="M122.627 32.8868C122.627 32.9339 123.439 32.8163 124.732 32.8398C125.489 32.8547 126.239 32.9876 126.955 33.2338C127.825 33.5553 128.623 34.0425 129.307 34.6685C130.573 35.7995 131.559 37.2083 132.188 38.7845C132.67 39.9605 132.776 40.7954 132.847 40.7837C132.838 40.5952 132.811 40.408 132.765 40.2251C132.296 38.0221 131.134 36.0273 129.448 34.5332C128.743 33.8799 127.913 33.3759 127.008 33.0515C126.273 32.8055 125.502 32.6843 124.727 32.6928C124.208 32.6926 123.689 32.726 123.174 32.7928C122.99 32.8089 122.807 32.8404 122.627 32.8868Z" fill="#455A64"/>
<path d="M111.991 65.8207C111.993 65.7874 111.993 65.754 111.991 65.7208L111.908 65.4562C111.867 65.3327 111.826 65.1857 111.773 65.021L111.614 64.433C111.294 63.1476 111.159 61.8229 111.214 60.4993C111.289 58.5359 111.772 56.6095 112.631 54.8428C113.73 52.7037 115.298 50.8404 117.218 49.392C118.203 48.6317 119.234 47.9326 120.305 47.2987C121.34 46.6754 122.38 46.158 123.345 45.5818C125.031 44.5529 126.635 43.395 128.143 42.1184C129.431 41.0306 130.424 40.0957 131.083 39.4372C131.418 39.1079 131.671 38.8492 131.841 38.6669L132.035 38.4611C132.077 38.414 132.1 38.3905 132.094 38.3846L132.024 38.4434L131.812 38.6375L131.036 39.396C130.348 40.0369 129.342 40.9542 128.043 42.0185C126.53 43.274 124.926 44.4158 123.245 45.4348C122.292 46.0228 121.24 46.5108 120.199 47.14C119.118 47.7736 118.079 48.4767 117.088 49.245C115.136 50.7073 113.544 52.5957 112.432 54.7663C111.569 56.5578 111.096 58.5117 111.044 60.4993C111.003 61.8341 111.16 63.1675 111.508 64.4566L111.685 65.0446C111.749 65.2092 111.802 65.3503 111.844 65.4738L111.949 65.7384C111.973 65.7913 111.985 65.8207 111.991 65.8207Z" fill="#455A64"/>
<path d="M110.373 63.751C110.373 63.751 110.373 63.7157 110.373 63.6569L110.338 63.3747C110.338 63.1277 110.244 62.7867 110.197 62.2986C110.059 60.9742 110.037 59.6402 110.132 58.312C110.276 56.3449 110.671 54.4044 111.308 52.5378C112.104 50.2581 113.266 48.1232 114.748 46.2168C116.274 44.3328 118.056 42.6705 120.04 41.2776C121.804 39.9605 123.568 38.9256 124.974 37.9966C126.379 37.0676 127.549 36.3561 128.331 35.8151C128.725 35.5564 129.019 35.3388 129.219 35.1918L129.448 35.0272L129.525 34.9625C129.525 34.9625 129.489 34.9625 129.436 35.0096L129.195 35.1566L128.284 35.7446C127.496 36.2561 126.332 36.9794 124.891 37.8614C123.451 38.7434 121.734 39.8018 119.923 41.1189C117.934 42.5133 116.152 44.1822 114.631 46.0757C113.119 48.0003 111.937 50.1621 111.132 52.4732C110.487 54.3579 110.092 56.3189 109.956 58.3061C109.874 59.6402 109.92 60.979 110.091 62.3045C110.15 62.7749 110.232 63.1336 110.274 63.3806C110.274 63.4923 110.315 63.5864 110.332 63.6569C110.35 63.7275 110.368 63.751 110.373 63.751Z" fill="#455A64"/>
<path d="M141.767 86.3948C141.767 86.3948 149.346 89.4759 150.799 93.4214C152.251 97.3669 163.27 129.948 163.27 129.948L150.481 134.852L144.648 108.039L141.767 86.3948Z" fill="#455A64"/>
<path d="M102.583 178.917C102.583 178.917 180.787 175.324 185.696 176.618C190.606 177.911 193.54 180.387 194.516 186.272C195.492 192.158 210.569 270.139 210.569 270.139L196.857 274.173C196.857 274.173 177.617 230.249 176.8 222.899C175.983 215.549 173.272 200.484 173.272 200.484C173.272 200.484 143.543 200.972 121.651 200.484C99.7602 199.996 102.7 179.734 102.7 179.734L102.583 178.917Z" fill="#FFA8A7"/>
<path d="M196.686 274.525L196.586 274.29C195.798 272.491 177.323 230.243 176.512 222.928C175.759 216.184 173.389 202.76 173.037 200.778C170.097 200.826 142.243 201.237 121.657 200.778C114.854 200.626 109.733 198.562 106.422 194.652C101.412 188.73 102.306 180.44 102.418 179.74L102.236 178.64H102.565C105.764 178.493 180.881 175.059 185.773 176.353C191.265 177.805 193.881 180.669 194.81 186.237C195.775 192.047 210.686 269.322 210.863 270.104L210.91 270.362L196.686 274.525ZM173.525 200.185L173.572 200.432C173.601 200.579 176.288 215.59 177.1 222.864C177.87 229.808 195.498 270.321 197.027 273.814L210.239 269.933C209.275 264.941 195.175 191.964 194.234 186.32C193.352 181.028 190.859 178.287 185.626 176.912C180.992 175.683 108.474 178.952 102.929 179.205L103.018 179.74V179.781C103.018 179.869 101.842 188.331 106.887 194.281C110.085 198.056 115.06 200.043 121.681 200.196C143.313 200.679 172.99 200.196 173.29 200.196L173.525 200.185Z" fill="#F28F8F"/>
<path d="M107.863 136.739L109.833 148.923C109.833 148.923 101.277 165.134 100.313 179.07C99.8542 185.69 103.653 199.25 103.653 199.25C103.653 199.25 133.782 202.56 150.034 202.137L167.374 201.378L170.432 174.289L150.969 171.478L151.263 134.564C151.263 134.564 154.791 124.844 155.062 121.969C155.685 115.901 155.426 109.762 149.364 101.895L141.767 86.3948L139.233 85.2188L140.438 103.994L118.6 83.2432L107.539 87.2122L104.405 102L107.863 136.739Z" fill="#455A64"/>
<g opacity="0.3">
<path d="M145.718 175.965C144.301 176.212 134.076 176.359 132.659 176.606C132.417 176.68 132.164 176.704 131.913 176.676C131.662 176.649 131.42 176.571 131.2 176.447C131.023 176.28 130.901 176.063 130.848 175.825C130.796 175.587 130.816 175.339 130.906 175.112C131.094 174.657 131.388 174.254 131.765 173.936C134.24 171.584 137.457 170.226 140.585 168.897C141.584 168.48 142.666 168.05 143.713 168.309C144.226 168.479 144.69 168.771 145.065 169.16C145.44 169.55 145.715 170.024 145.865 170.544C146.163 171.58 146.286 172.659 146.23 173.736" fill="black"/>
</g>
<g opacity="0.3">
<path d="M108.668 145.236C112.32 144.383 114.613 140.785 116.095 137.339C117.576 133.893 118.799 130.089 121.704 127.714C123.833 125.95 126.685 125.173 128.525 123.127C129.4 122.125 129.98 120.9 130.201 119.588C130.422 118.276 130.275 116.929 129.777 115.695C129.248 114.437 128.184 113.249 126.837 113.178C125.25 113.096 124.015 114.472 123.045 115.736C118.607 121.549 114.423 127.547 110.491 133.729C108.38 137.051 106.275 141.085 107.745 144.736" fill="black"/>
</g>
<path d="M108.692 89.1526C108.692 89.1526 102.512 91.1165 100.278 94.9914C98.0432 98.8664 94.3388 117.682 93.445 122.751C92.5512 127.819 88.2294 148.676 93.445 151.957C98.6606 155.238 105.517 150.193 107.304 147.188C109.092 144.184 116.389 128.56 116.389 128.56L109.833 123.051C109.833 123.051 111.009 108.151 110.579 105.017C110.15 101.883 108.692 89.1526 108.692 89.1526Z" fill="#FFA8A7"/>
<path d="M89.3113 127.837L103.653 128.772L110.203 121.081L112.014 108.968L111.532 85.795C111.532 85.795 98.731 88.9173 95.9616 98.6487C93.9094 105.84 89.3113 127.837 89.3113 127.837Z" fill="#455A64"/>
<path d="M114.689 100.43C113.866 100.319 112.814 101.289 113.513 103.629C114.101 105.581 115.207 107.48 115.125 108.568C115.042 109.656 114.619 111.92 114.619 113.096C114.568 114.246 114.456 115.392 114.284 116.53L104.523 128.29L112.973 135.746L119.658 125.244C119.658 125.244 121.675 125.579 122.845 124.238L124.609 122.222C124.609 122.222 129.137 120.546 128.213 118.106C128.213 118.106 129.554 116.83 128.337 114.783C128.337 114.783 128.972 112.655 128.049 111.402C128.049 111.402 127.967 108.551 127.208 108.045C126.449 107.539 118.606 107.457 118.606 107.457C118.178 106.153 117.686 104.872 117.13 103.617C116.271 102.2 115.836 100.583 114.689 100.43Z" fill="#FFA8A7"/>
<path d="M118.029 111.996C118.029 112.026 117.824 111.914 117.641 111.638C117.404 111.265 117.3 110.823 117.347 110.384C117.394 109.945 117.589 109.535 117.9 109.221C118.135 108.992 118.335 108.921 118.353 108.951C118.003 109.374 117.763 109.877 117.653 110.415C117.654 110.964 117.782 111.506 118.029 111.996Z" fill="#F28F8F"/>
<path d="M127.719 111.191C126.537 111.536 125.321 111.75 124.092 111.832C122.873 112.009 121.638 112.05 120.411 111.955C121.619 111.745 122.838 111.601 124.062 111.526C125.274 111.344 126.495 111.233 127.719 111.191Z" fill="#F28F8F"/>
<path d="M128.413 114.554C127.439 114.95 126.41 115.196 125.362 115.283C124.328 115.475 123.272 115.51 122.228 115.389C122.228 115.301 123.615 115.213 125.32 114.978C127.026 114.742 128.396 114.472 128.413 114.554Z" fill="#F28F8F"/>
<path d="M128.243 118.006C126.721 118.472 125.122 118.63 123.539 118.47C124.312 118.301 125.1 118.201 125.891 118.17C126.669 118.047 127.456 117.992 128.243 118.006Z" fill="#F28F8F"/>
<path d="M120.834 119.064C120.834 119.099 120.669 119.064 120.469 118.952C120.206 118.773 120.021 118.499 119.952 118.188C119.877 117.88 119.918 117.555 120.069 117.277C120.187 117.071 120.316 116.988 120.346 117.012C120.375 117.035 120.105 117.524 120.246 118.117C120.387 118.711 120.875 118.988 120.834 119.064Z" fill="#F28F8F"/>
<path d="M118.905 116.265C118.905 116.295 118.711 116.195 118.529 115.942C118.295 115.608 118.16 115.214 118.141 114.807C118.117 114.399 118.206 113.992 118.4 113.631C118.558 113.361 118.711 113.243 118.741 113.266C118.561 113.753 118.461 114.265 118.447 114.784C118.522 115.298 118.676 115.798 118.905 116.265Z" fill="#F28F8F"/>
<path d="M125.832 121.716C125.405 121.942 124.937 122.078 124.456 122.116C123.99 122.25 123.501 122.284 123.021 122.216C123.447 121.987 123.916 121.851 124.397 121.816C124.862 121.678 125.352 121.644 125.832 121.716Z" fill="#F28F8F"/>
<path d="M122.051 107.51C122.051 107.598 120.875 107.598 119.387 107.745C117.9 107.892 116.753 108.121 116.73 108.039C117.563 107.686 118.454 107.487 119.358 107.451C120.252 107.311 121.164 107.331 122.051 107.51Z" fill="#F28F8F"/>
<path d="M147.87 135.775H196.474C197.332 135.775 198.155 136.116 198.761 136.722C199.368 137.329 199.708 138.151 199.708 139.009V173.46H144.648V139.003C144.649 138.149 144.989 137.329 145.593 136.724C146.197 136.12 147.016 135.778 147.87 135.775Z" fill="#E0E0E0"/>
<path d="M199.708 175.965H135.028C135.028 175.307 135.29 174.676 135.755 174.21C136.22 173.745 136.852 173.484 137.51 173.484H199.708V175.965Z" fill="#E0E0E0"/>
<path d="M197.674 138.198H146.318V173.484H197.674V138.198Z" fill="white"/>
<path d="M197.668 173.46C197.668 173.46 197.668 173.237 197.668 172.813C197.668 172.39 197.668 171.755 197.668 170.943C197.668 169.303 197.668 166.904 197.633 163.834C197.633 157.696 197.597 148.893 197.568 138.174L197.691 138.298H146.341L146.494 138.145C146.494 150.746 146.494 162.711 146.494 173.425L146.359 173.284L183.35 173.354L193.934 173.395H196.751H197.474H197.727H197.492H196.78H193.993L183.462 173.431L146.377 173.501H146.236V173.46C146.236 162.741 146.236 150.775 146.236 138.18V138.027H146.388H197.739H197.862V138.18C197.862 148.929 197.815 157.76 197.797 163.917C197.797 166.974 197.797 169.362 197.797 170.973C197.797 171.778 197.797 172.396 197.797 172.819C197.797 173.242 197.668 173.46 197.668 173.46Z" fill="#263238"/>
<path d="M199.438 173.46C199.438 173.548 185.555 173.613 168.433 173.613C151.31 173.613 137.421 173.548 137.421 173.46C137.421 173.372 151.304 173.307 168.433 173.307C185.561 173.307 199.438 173.401 199.438 173.46Z" fill="#263238"/>
<path d="M171.99 169.338C179.443 169.338 185.485 163.296 185.485 155.843C185.485 148.391 179.443 142.349 171.99 142.349C164.537 142.349 158.495 148.391 158.495 155.843C158.495 163.296 164.537 169.338 171.99 169.338Z" fill="#8EC3B0"/>
<path d="M163.605 156.173L166.463 153.468L170.408 157.102L178.176 149.793L180.998 152.462L170.367 162.553L163.605 156.173Z" fill="white"/>
<path d="M114.295 116.53C114.36 116.583 110.309 121.475 105.246 127.449C100.183 133.423 96.0261 138.221 95.9615 138.18C95.8968 138.139 99.9481 133.241 105.011 127.261C110.073 121.281 114.231 116.477 114.295 116.53Z" fill="#F28F8F"/>
<path d="M113.596 108.951C113.464 110.656 113.23 112.353 112.896 114.031C112.665 115.727 112.331 117.408 111.896 119.064C112.028 117.356 112.262 115.658 112.596 113.978C112.831 112.284 113.165 110.606 113.596 108.951Z" fill="#263238"/>
<path d="M151.263 134.564C151.284 134.444 151.315 134.326 151.357 134.211L151.675 133.223C151.957 132.371 152.374 131.136 152.851 129.601C153.419 127.808 153.894 125.987 154.273 124.144C154.747 121.895 154.958 119.598 154.903 117.3C154.69 113.116 153.515 109.037 151.469 105.381C150.861 104.268 150.194 103.189 149.47 102.147C149.223 101.777 149.011 101.501 148.882 101.307C148.806 101.21 148.741 101.105 148.688 100.995C148.777 101.076 148.858 101.167 148.929 101.265C149.081 101.454 149.311 101.718 149.575 102.083C150.34 103.102 151.039 104.168 151.669 105.276C152.605 106.924 153.375 108.661 153.968 110.462C154.705 112.667 155.131 114.965 155.232 117.288C155.291 119.611 155.07 121.933 154.573 124.203C154.178 126.05 153.679 127.874 153.08 129.666C152.574 131.195 152.127 132.423 151.81 133.264C151.657 133.656 151.533 133.98 151.439 134.235C151.394 134.351 151.335 134.462 151.263 134.564Z" fill="#263238"/>
<path d="M138.768 116.254C138.792 116.527 138.792 116.803 138.768 117.077C138.767 117.399 138.743 117.722 138.697 118.041C138.655 118.468 138.59 118.891 138.503 119.311C138.409 119.82 138.283 120.323 138.127 120.816C137.961 121.389 137.765 121.952 137.539 122.504C136.996 123.748 136.322 124.931 135.528 126.032C134.714 127.131 133.781 128.137 132.747 129.031C132.293 129.418 131.818 129.779 131.324 130.113C130.901 130.413 130.459 130.686 130.001 130.93C129.621 131.15 129.228 131.346 128.825 131.518C128.536 131.659 128.237 131.779 127.931 131.877C127.677 131.982 127.413 132.062 127.143 132.118C127.114 132.053 128.243 131.706 129.866 130.759C130.309 130.504 130.739 130.226 131.153 129.925C131.612 129.619 132.053 129.231 132.535 128.837C134.561 127.054 136.168 124.845 137.239 122.369C137.463 121.83 137.66 121.281 137.827 120.722C137.99 120.236 138.125 119.742 138.233 119.241C138.721 117.43 138.709 116.254 138.768 116.254Z" fill="#263238"/>
<path d="M154.932 121.598C154.899 121.566 154.871 121.528 154.85 121.487L154.644 121.128C154.45 120.805 154.185 120.364 153.85 119.817C153.515 119.27 152.992 118.6 152.445 117.835C151.898 117.071 151.204 116.236 150.469 115.301C147.447 111.608 142.984 106.757 137.868 101.577C132.753 96.3967 127.949 91.8808 124.427 88.6409L122.028 86.4947C121.322 85.8715 120.71 85.3187 120.199 84.8954L119.023 83.9017L118.723 83.6371C118.684 83.6096 118.651 83.5758 118.623 83.5371C118.665 83.5578 118.705 83.5835 118.741 83.6135C118.829 83.6782 118.935 83.7547 119.058 83.8546L120.269 84.8013L122.133 86.3654C122.857 86.9887 123.668 87.7001 124.562 88.4822C128.131 91.6574 132.947 96.1673 138.086 101.342C143.225 106.516 147.653 111.408 150.634 115.142C151.363 116.089 152.021 116.941 152.586 117.706L153.95 119.729C154.262 120.317 154.538 120.74 154.697 121.075L154.885 121.428C154.924 121.542 154.94 121.598 154.932 121.598Z" fill="#263238"/>
<path d="M143.513 148.799C143.405 148.837 143.292 148.859 143.178 148.864L142.219 148.999C141.384 149.111 140.167 149.24 138.691 149.376C135.687 149.646 131.518 149.864 126.931 149.811C122.345 149.758 118.158 149.423 115.171 149.082C113.672 148.911 112.461 148.746 111.643 148.611L110.685 148.458C110.573 148.446 110.462 148.42 110.356 148.382C110.469 148.368 110.584 148.368 110.697 148.382L111.661 148.482C112.496 148.582 113.713 148.711 115.189 148.852C118.182 149.14 122.339 149.44 126.949 149.493C131.559 149.546 135.704 149.358 138.709 149.146C140.208 149.04 141.426 148.946 142.237 148.87L143.201 148.793C143.305 148.785 143.41 148.786 143.513 148.799Z" fill="#263238"/>
<path d="M168.979 135.734C168.979 135.734 178.611 131.977 179.522 131.677C180.434 131.377 188.854 130.718 188.854 130.718L199.708 134.617C199.708 134.617 199.808 136.845 197.274 136.545C195.04 136.168 192.837 135.626 190.683 134.922L189.16 135.828L168.979 135.734Z" fill="#FFA8A7"/>
<path d="M199.185 137.163C199.438 137.674 200.096 137.751 200.602 138.021C201.07 138.294 201.453 138.692 201.709 139.169C201.966 139.646 202.085 140.185 202.054 140.726C201.97 141.807 201.612 142.849 201.014 143.754C200.83 144.12 200.564 144.438 200.237 144.683C200.07 144.8 199.871 144.862 199.667 144.862C199.463 144.862 199.264 144.8 199.097 144.683C198.936 144.488 198.828 144.254 198.783 144.005C198.738 143.756 198.757 143.5 198.838 143.26C199.15 141.385 198.744 139.009 199.185 137.157" fill="#FFA8A7"/>
<path d="M210.098 267.228L210.428 268.146C210.428 268.146 228.303 268.845 229.526 271.75L198.432 282.675L195.216 272.179C200.596 272.697 205.518 271.239 210.098 267.228Z" fill="#455A64"/>
<g opacity="0.6">
<path d="M199.532 274.378C199.264 274.575 199.078 274.864 199.01 275.19C198.941 275.515 198.995 275.854 199.161 276.142C199.349 276.422 199.637 276.618 199.966 276.69C200.295 276.761 200.639 276.702 200.925 276.525C201.209 276.317 201.405 276.011 201.476 275.666C201.546 275.322 201.486 274.963 201.308 274.661C201.083 274.396 200.765 274.228 200.42 274.192C200.075 274.156 199.73 274.254 199.455 274.467" fill="white"/>
</g>
<g opacity="0.6">
<path d="M198.432 282.675L197.662 280.153L227.744 270.604C227.744 270.604 229.338 270.721 229.508 271.78L198.432 282.675Z" fill="white"/>
</g>
<path d="M210.569 268.199C210.616 268.351 209.881 268.687 209.304 269.439C208.728 270.192 208.558 270.968 208.399 270.956C208.24 270.945 208.152 269.986 208.863 269.092C209.575 268.199 210.551 268.046 210.569 268.199Z" fill="#263238"/>
<path d="M214.302 268.398C214.391 268.534 213.82 269.022 213.532 269.845C213.244 270.668 213.332 271.403 213.179 271.45C213.026 271.497 212.627 270.668 213.009 269.651C213.391 268.634 214.249 268.257 214.302 268.398Z" fill="#263238"/>
<path d="M217.525 271.656C217.401 271.738 216.937 271.068 217.019 270.086C217.101 269.104 217.713 268.54 217.819 268.64C217.925 268.74 217.648 269.345 217.578 270.139C217.507 270.933 217.672 271.585 217.525 271.656Z" fill="#263238"/>
</svg>
