<svg width="138" height="147" viewBox="0 0 138 147" fill="none" xmlns="http://www.w3.org/2000/svg">
<mask id="mask0_240_430" style="mask-type:alpha" maskUnits="userSpaceOnUse" x="0" y="0" width="138" height="147">
<ellipse cx="69" cy="73.5" rx="69" ry="73.5" fill="#D9D9D9"/>
</mask>
<g mask="url(#mask0_240_430)">
<circle cx="69" cy="81" r="103" fill="#F4F4F4"/>
<path d="M76.9653 93.8458C76.9343 91.7149 76.9157 89.7291 76.9102 88.0171C76.9155 89.7286 76.9343 91.7154 76.9653 93.8458Z" fill="#FACABB"/>
<path d="M112.795 113.588C112.677 113.54 112.553 113.493 112.426 113.445C112.553 113.493 112.677 113.54 112.795 113.588Z" fill="#FACABB"/>
<path d="M109.728 112.66C109.359 112.573 108.971 112.487 108.566 112.404C108.971 112.488 109.359 112.573 109.728 112.66Z" fill="#FACABB"/>
<path d="M112.795 113.588C112.677 113.54 112.553 113.493 112.426 113.445C112.393 113.433 112.359 113.42 112.325 113.408C112.213 113.367 112.097 113.327 111.977 113.286C111.957 113.28 111.938 113.273 111.918 113.266C111.777 113.219 111.63 113.173 111.479 113.127C111.448 113.117 111.417 113.108 111.386 113.099C111.255 113.06 111.121 113.021 110.984 112.982C110.954 112.974 110.924 112.965 110.894 112.957C110.728 112.911 110.558 112.866 110.384 112.821C110.365 112.816 110.347 112.812 110.328 112.807C110.17 112.767 110.007 112.727 109.841 112.687C109.804 112.678 109.766 112.669 109.728 112.66C109.359 112.573 108.971 112.488 108.566 112.404C108.544 112.4 108.524 112.395 108.503 112.39C108.503 112.39 108.502 112.391 108.502 112.391C104.308 114.589 99.9351 116.474 95.4094 117.873C91.0853 119.209 86.6239 120.114 82.1411 120.717C73.1468 121.925 63.9302 121.829 54.9767 120.327C46.9285 118.978 39.0185 116.483 31.8702 112.519C31.87 112.519 31.87 112.519 31.87 112.519C31.8061 112.534 31.7442 112.55 31.6811 112.565C31.5649 112.594 31.4502 112.623 31.3368 112.652C31.2556 112.673 31.1741 112.694 31.0942 112.715C31.0247 112.733 30.9567 112.752 30.8882 112.77C30.8197 112.789 30.7512 112.808 30.6836 112.827C30.6162 112.845 30.5495 112.864 30.4832 112.883C30.4153 112.903 30.3485 112.922 30.2816 112.942C30.2185 112.96 30.1554 112.979 30.0933 112.997C30.0135 113.021 29.935 113.046 29.8567 113.07C29.7867 113.092 29.717 113.114 29.6483 113.136C29.5568 113.165 29.4656 113.195 29.3766 113.225C29.326 113.241 29.2767 113.259 29.2271 113.276C29.1578 113.299 29.0887 113.323 29.0209 113.347C28.9715 113.365 28.9227 113.383 28.8741 113.4C28.8048 113.425 28.7365 113.451 28.6693 113.476C28.6264 113.492 28.5834 113.508 28.5414 113.525C28.4486 113.56 28.358 113.597 28.2689 113.633C28.2502 113.64 28.2311 113.648 28.2125 113.656C28.1145 113.696 28.0189 113.737 27.9251 113.778C27.8922 113.793 27.8605 113.807 27.8279 113.822C27.7613 113.852 27.6955 113.882 27.6312 113.912C27.5976 113.928 27.5641 113.944 27.5311 113.96C27.4666 113.991 27.4041 114.022 27.3421 114.053C27.3141 114.067 27.2857 114.082 27.2581 114.096C27.1709 114.141 27.0855 114.187 27.0034 114.233C15.4989 120.694 13.4591 148.076 13.4767 151.834C13.4975 156.296 73.675 156.124 105.926 154.503C105.915 154.471 105.908 154.437 105.907 154.398C105.895 151.841 105.625 149.293 105.613 146.735C105.611 146.326 106.245 146.326 106.247 146.735C106.259 149.293 106.53 151.841 106.542 154.398C106.542 154.425 106.539 154.449 106.535 154.472C118.009 153.882 125.796 153.107 125.796 152.295C125.794 150.39 124.529 118.407 112.795 113.588Z" fill="#8EC3B0"/>
<path d="M49.571 43.4756C49.6955 44.4751 50.1713 45.6755 51.3042 45.8443C52.2411 45.9839 53.1529 45.3821 53.6556 44.6255C54.937 42.6966 54.9834 39.5419 52.5661 38.5215C51.9166 38.2474 51.2139 38.1106 50.493 38.0745C50.4256 38.2695 50.3613 38.4658 50.3013 38.6636C49.8432 40.1735 49.3734 41.8859 49.571 43.4756Z" fill="#4D4441"/>
<path d="M86.6083 32.6699C87.7074 34.0588 88.6564 35.7139 89.3339 37.4654C91.9359 37.5252 94.9377 38.526 96.9959 40.3476C97.5207 39.908 98.0951 39.535 98.7033 39.2486C93.4607 32.8322 86.7055 27.659 76.2437 26.1704C80.2685 27.218 83.9562 29.3182 86.6083 32.6699Z" fill="#4D4441"/>
<path d="M33.9735 86.8974C32.8601 83.7395 29.8274 87.1144 28.6854 88.4937C27.1826 90.3083 25.7865 92.2894 25.0708 94.5471C26.9521 94.0061 28.7866 93.2686 30.4522 92.2815C32.2213 91.2333 34.8223 89.3045 33.9735 86.8974Z" fill="#4D4441"/>
<path d="M47.7222 37.7471C48.4463 37.59 49.2447 37.4716 50.0459 37.4536C50.2582 36.8818 50.4963 36.3195 50.768 35.7726C53.1041 31.0709 57.2315 28.0183 61.9947 26.5017C52.4663 28.4471 46.0166 33.8429 41.3591 39.6926C41.6921 39.8953 42.011 40.1233 42.3136 40.3768C43.8315 39.0522 45.784 38.1678 47.7222 37.7471Z" fill="#4D4441"/>
<path d="M85.3278 39.6625C84.1765 41.48 84.9427 45.6805 87.5361 45.8552C88.9032 45.9469 89.6423 44.7066 89.753 43.4755C89.9137 41.6889 89.4386 39.7786 88.8362 38.0872C87.4406 38.1203 86.0611 38.5052 85.3278 39.6625Z" fill="#4D4441"/>
<path d="M105.199 88.961C104.573 88.2532 103.541 87.4452 103.198 88.8331C102.784 90.5025 103.019 92.3754 103.776 93.9114C104.723 95.8314 106.164 97.536 107.834 98.9685C107.901 97.7015 107.935 96.4124 107.794 95.174C107.549 93.0066 106.661 90.6134 105.199 88.961Z" fill="#4D4441"/>
<path d="M41.1962 47.6825C41.7462 48.2349 42.5576 48.4569 43.3004 48.1776C45.9887 47.1669 44.0811 43.4097 42.9889 41.9611C42.7884 41.6955 42.5728 41.4496 42.3442 41.2227C41.4944 42.069 40.8593 43.1004 40.6179 44.3523C40.4096 45.4308 40.3521 46.8344 41.1962 47.6825Z" fill="#4D4441"/>
<path d="M122.381 75.1841C116.666 68.8527 114.227 63.9336 109.524 55.8847C108.557 57.1144 107.343 58.1708 105.945 59.0259C105.595 59.24 105.276 58.6912 105.625 58.4783C108.644 56.6303 110.965 53.6653 111.276 50.048C111.536 47.0313 110.795 43.5818 108.441 41.508C106.36 39.6751 103.335 38.7058 100.586 39.2994C99.4407 39.5465 98.3775 40.0762 97.4721 40.8049C98.6708 42.0387 99.4511 43.5936 99.4694 45.4421C99.4859 47.1241 98.5107 49.1036 96.5432 48.9264C94.6922 48.7595 93.8097 47.0002 94.0908 45.2872C94.3655 43.613 95.2653 41.9984 96.5212 40.7761C95.0873 39.5472 93.2234 38.7475 91.4332 38.359C90.8799 38.2387 90.2334 38.1371 89.5652 38.0998C90.0567 39.5276 90.3629 41.0048 90.4126 42.4444C90.4536 43.6336 90.2817 45.1532 89.2592 45.9439C88.5067 46.5259 87.5647 46.6564 86.6845 46.274C84.5699 45.3558 83.6302 42.2243 84.394 40.1399C85.0508 38.3473 86.8182 37.5901 88.6061 37.4776C87.3168 34.1885 85.0785 31.318 82.1049 29.3807C78.8662 27.2709 75.1026 26.2506 71.2651 26.0387C71.0807 26.0284 70.9803 25.8922 70.9629 25.7484C70.6017 25.7407 70.2374 25.7361 69.8685 25.7361C69.3582 25.7361 68.856 25.7459 68.3598 25.7631C68.3375 25.9013 68.2371 26.0289 68.0586 26.0387C61.8612 26.3811 55.6409 28.9987 52.2492 34.4235C51.6456 35.3884 51.129 36.4056 50.7171 37.4655C51.8534 37.5269 52.9573 37.8254 53.825 38.5462C55.5668 39.9931 55.4824 42.8682 54.3713 44.6825C53.3355 46.3734 50.7698 47.3962 49.5131 45.3057C48.7269 43.9984 48.8347 42.3871 49.0985 40.9443C49.2763 39.9711 49.5183 39.0081 49.8301 38.0686C48.3237 38.118 46.7819 38.5657 45.5056 39.1395C44.5378 39.5746 43.594 40.1241 42.7915 40.8102C43.2658 41.2772 43.6929 41.8124 44.0631 42.4139C45.0986 44.0961 46.1251 46.8532 44.2376 48.3663C42.9974 49.3605 41.0958 48.9672 40.3323 47.575C39.2526 45.6058 40.0257 42.8588 41.4316 41.2525C41.5706 41.0938 41.7174 40.9417 41.8675 40.7929C41.5859 40.562 41.2885 40.3575 40.9788 40.1766C40.9772 40.1786 40.9756 40.1808 40.9739 40.1828C40.9614 40.1725 40.9491 40.1619 40.9366 40.1519C38.8404 38.9452 36.1766 38.8543 33.8486 39.7352C30.1993 41.116 28.2274 44.3485 28.02 48.1855C27.7841 52.5476 30.0239 56.2291 33.6993 58.4784C34.0476 58.6914 33.729 59.2402 33.379 59.026C32.3825 58.4163 31.4499 57.6912 30.632 56.8611C30.3218 57.2861 30.0182 57.6563 29.7181 57.9637C28.8384 58.864 27.951 59.6778 27.0636 60.4259C27.161 60.5634 27.1682 60.776 26.9878 60.8973C26.6357 61.1339 26.2827 61.3687 25.9255 61.5975C25.2942 62.002 24.6529 62.392 24.0084 62.7777C21.4647 64.5793 18.9991 66.012 16.8041 67.55C16.8004 67.5532 16.7965 67.5563 16.7928 67.5595C13.8715 70.0542 10.9378 73.0727 9.67177 76.7803C7.66122 82.6705 8.90324 90.4915 14.5338 93.997C15.7235 94.7378 17.1463 95.4281 18.5679 95.5163C19.752 95.5898 20.9493 95.4534 22.1129 95.2396C22.8567 95.103 23.6027 94.9392 24.3443 94.7468C24.4728 94.293 24.6242 93.8428 24.8053 93.3988C25.7066 91.1908 27.2038 89.145 28.8035 87.3921C29.8982 86.1926 32.3482 83.6898 33.9554 85.5417C35.4062 87.2136 34.6911 89.5096 33.2935 90.9243C31.3843 92.8566 28.7094 94.0239 26.1648 94.8564C25.7427 94.9942 25.3106 95.1301 24.8714 95.2592C24.8595 95.3089 24.8451 95.3579 24.8337 95.4078C24.0441 98.8402 24.6539 102.492 26.4014 105.542C27.0841 106.734 27.9322 107.864 28.9181 108.853C30.5549 110.295 32.4742 111.382 34.4461 111.969C36.6943 111.545 39.2752 111.184 42.1027 110.882C42.4123 110.692 42.7162 110.486 43.0133 110.263C43.1677 110.147 43.3187 110.209 43.4021 110.332C44.4111 109.418 45.28 108.193 45.9382 106.608C46.368 107.954 47.0066 109.215 47.8092 110.376C52.1611 110.058 56.8855 109.853 61.7439 109.753C61.5312 103.318 61.4256 94.2991 61.3744 87.9633C53.1353 85.7587 47.2128 80.1701 44.6195 72.4637C43.9212 72.7041 43.104 72.8312 42.1506 72.8122C36.8568 72.7062 32.8507 64.7483 34.1971 60.1119C35.0136 57.644 36.8518 56.6489 38.8944 56.6448C38.939 56.6161 38.9928 56.5971 39.0581 56.5952C41.6338 56.5233 43.7379 57.8396 45.3782 59.7005C46.187 59.4262 47.0002 59.0979 47.8133 58.723C47.6438 58.5941 47.5897 58.3243 47.8335 58.2156C51.5628 56.5528 54.7407 54.0264 57.647 51.1908C60.3081 48.5942 62.8279 45.9191 65.0185 42.9086C66.4926 40.8829 67.8926 38.7991 69.201 36.6623C69.2359 36.6051 69.2708 36.5479 69.3056 36.4906C69.3067 36.4788 69.308 36.4683 69.3093 36.4528C69.3432 36.0468 69.3771 35.6408 69.4112 35.2346C69.481 34.4013 69.5506 33.5677 69.6206 32.7344C69.6544 32.33 70.289 32.3266 70.255 32.7344C70.1809 33.62 70.1066 34.5055 70.0325 35.3912C69.9907 35.8922 70.0504 36.4897 69.7809 36.9298C69.7774 36.9357 69.7736 36.9414 69.7701 36.9473C73.0045 44.2363 82.3274 54.6155 91.6006 58.8078C93.9732 56.6674 97.0177 55.7677 100.245 56.8695C100.554 56.9752 100.507 57.392 100.275 57.4821C101.074 58.041 101.725 58.8973 102.126 60.1118C103.473 64.7482 99.467 72.7063 94.1732 72.8122C93.0726 72.8339 92.1515 72.6632 91.3885 72.3447C90.3295 75.6408 88.7229 78.7463 86.5361 81.363C86.6593 81.4726 86.7194 81.6746 86.5873 81.8404C84.0136 85.0657 80.6246 86.9567 76.9101 88.017C76.9157 89.7291 76.9342 91.7148 76.9653 93.8457C76.9653 93.8461 76.9653 93.8464 76.9653 93.8469C76.9714 94.2649 76.978 94.6886 76.985 95.1167C76.9854 95.1404 76.9857 95.164 76.9862 95.1878C76.9895 95.3876 76.9929 95.5886 76.9967 95.7904C76.9972 95.8229 76.9977 95.8554 76.9982 95.8879C77.0017 96.0847 77.0052 96.2822 77.0089 96.4804C77.0092 96.49 77.0092 96.4995 77.0095 96.509C77.0131 96.7022 77.0167 96.8964 77.0205 97.091C77.0217 97.1426 77.0225 97.1943 77.0235 97.2461C77.0272 97.4302 77.0308 97.6146 77.0347 97.7996C77.0359 97.8599 77.0372 97.9203 77.0384 97.9805C77.0412 98.1233 77.0443 98.2663 77.0475 98.4094C77.0497 98.5104 77.0517 98.6114 77.054 98.7124C77.0567 98.8373 77.0595 98.9623 77.0622 99.0873C77.0643 99.1807 77.0664 99.2738 77.0684 99.3671C77.0711 99.4912 77.0742 99.6152 77.077 99.7396C77.0803 99.8835 77.0837 100.028 77.0871 100.172C77.0884 100.229 77.0898 100.287 77.0914 100.344C77.0971 100.581 77.1029 100.817 77.1089 101.054C77.1092 101.07 77.1096 101.085 77.1099 101.101C77.1276 101.799 77.1464 102.497 77.1663 103.191V103.191C77.2316 105.468 77.3087 107.706 77.3975 109.777C77.6697 109.783 77.9412 109.79 78.2124 109.797C79.0245 108.633 79.7538 107.39 80.4101 106.095C80.7716 107.521 81.3776 108.799 82.1718 109.919C90.3718 110.219 97.9776 110.792 103.769 111.597C105.238 110.127 106.269 108.324 106.942 106.33C106.853 106.263 106.8 106.151 106.84 106.01C107.369 104.166 107.642 102.263 107.754 100.35C107.766 100.148 107.779 99.9441 107.791 99.7397C105.853 98.1743 104.13 96.2696 103.145 94.0523C102.479 92.5546 102.271 91.0256 102.452 89.3942C102.535 88.649 102.827 87.3968 103.797 87.3853C104.725 87.3742 105.482 88.2573 105.986 88.9328C106.885 90.136 107.557 91.5423 107.981 92.9821C108.541 94.8818 108.52 96.8027 108.459 98.7692C108.452 99.0001 108.443 99.2309 108.433 99.4616C109.523 100.327 110.691 101.082 111.874 101.708C115.158 103.447 119.048 104.044 122.386 102.033C125.247 100.308 127.08 97.3087 128.026 94.1665C128.083 93.9768 128.257 93.9193 128.407 93.9544C129.698 88.612 128.308 81.7497 122.381 75.1841Z" fill="#4D4441"/>
<path d="M103.769 111.597C97.9776 110.792 90.3717 110.219 82.1717 109.919C80.8654 109.871 79.544 109.83 78.2124 109.797C77.9412 109.79 77.6697 109.783 77.3974 109.777C77.3087 107.706 77.2315 105.468 77.1662 103.191C76.9994 102.628 76.8614 102.057 76.7089 101.49C76.4507 100.532 76.1029 99.6319 75.6319 98.7577C75.1641 97.8896 74.6305 97.0448 74.0653 96.2369C73.579 95.5419 73.0138 94.9044 72.3862 94.3345C71.7569 93.7628 71.0605 93.2684 70.3282 92.8379C69.5055 92.3545 68.6184 92.0023 67.7177 91.6939C66.775 91.3713 65.8106 91.1093 64.8796 90.7542C63.9601 90.4032 63.0645 89.9848 62.1195 89.705C61.8743 89.6323 61.6183 89.5577 61.3867 89.4414C61.3824 88.9347 61.3782 88.4415 61.3743 87.9631C63.0687 88.4166 64.8604 88.7276 66.7419 88.8837C66.7522 88.7339 66.8531 88.5912 67.0469 88.5909C74.1339 88.5776 81.4785 87.2316 86.1387 81.3918C86.26 81.2398 86.4241 81.2633 86.5361 81.3629C88.7229 78.7462 90.3294 75.6408 91.3885 72.3446C92.1514 72.6631 93.0725 72.8338 94.1731 72.8121C99.467 72.7061 103.473 64.7481 102.126 60.1117C101.725 58.8972 101.074 58.0409 100.275 57.482C100.219 57.5038 100.152 57.5072 100.076 57.4812C96.5095 56.2633 93.2769 57.6309 90.9235 60.4218C90.6594 60.7351 90.2129 60.2838 90.4749 59.9732C90.8298 59.5523 91.2061 59.1635 91.6005 58.8078C82.3272 54.6155 73.0043 44.2363 69.77 36.9473C69.2595 37.7806 68.7321 38.6046 68.196 39.4232C67.3055 40.7826 66.3835 42.1219 65.42 43.4283C63.1742 46.4726 60.6206 49.2132 57.8948 51.8333C57.8081 51.9169 57.7202 51.999 57.6331 52.0819C54.8053 54.7686 51.7386 57.1648 48.1535 58.7633C48.0251 58.8205 47.9032 58.7913 47.8131 58.7229C47 59.0978 46.1868 59.4261 45.3779 59.7004C45.4945 59.8327 45.609 59.9672 45.7208 60.1048C45.9768 60.419 45.5307 60.8707 45.2723 60.5534C43.6894 58.6089 41.659 57.1569 39.0579 57.2297C38.7143 57.2393 38.6612 56.7948 38.8942 56.6448C36.8516 56.6489 35.0133 57.644 34.1969 60.1119C32.8505 64.7483 36.8565 72.7063 42.1504 72.8122C43.1037 72.8311 43.921 72.7041 44.6193 72.4636C47.2126 80.1702 53.1351 85.7587 61.3742 87.9633C61.4253 94.299 61.531 103.318 61.7436 109.753C56.8853 109.853 52.1609 110.058 47.809 110.376C46.2887 110.487 44.8139 110.611 43.3947 110.75C42.9588 110.793 42.5277 110.837 42.1025 110.882C39.275 111.184 36.6942 111.545 34.4459 111.969C34.3392 111.99 34.233 112.01 34.1279 112.03C33.7165 112.11 33.3166 112.192 32.9288 112.276C32.565 112.355 32.2124 112.436 31.8704 112.519C39.0186 116.483 46.9286 118.978 54.9769 120.328C63.9304 121.829 73.147 121.925 82.1413 120.717C86.6241 120.114 91.0855 119.209 95.4095 117.873C99.9352 116.474 104.308 114.589 108.502 112.391C107.114 112.106 105.525 111.84 103.769 111.597Z" fill="#FACABB"/>
<path d="M69.3026 36.5164C69.2901 36.5622 69.2942 36.5841 69.3026 36.5164V36.5164Z" fill="#4D4441"/>
<path d="M94.8258 44.8698C94.5831 45.8226 94.5509 47.0036 95.3269 47.7361C95.8822 48.2605 96.6988 48.4513 97.4187 48.1644C99.6814 47.2622 98.8801 43.6725 97.8082 42.1693C97.5662 41.83 97.292 41.5145 96.9958 41.2183C95.9588 42.1998 95.1842 43.4634 94.8258 44.8698Z" fill="#4D4441"/>
<path d="M55.2321 56.7037C54.5248 56.8321 53.8426 57.099 53.4808 57.3694C53.0623 57.6823 52.5072 58.2333 52.5117 58.8006C52.5236 60.3237 57.2157 59.5666 57.5437 58.2672C57.939 56.7015 56.5426 56.4654 55.2321 56.7037Z" fill="#4D4441"/>
<path d="M81.9759 57.3694C81.6139 57.0991 80.9318 56.8323 80.2246 56.7037C78.914 56.4654 77.5175 56.7015 77.9129 58.2672C78.241 59.5666 82.9331 60.3237 82.9449 58.8006C82.9492 58.2333 82.3944 57.6823 81.9759 57.3694Z" fill="#4D4441"/>
<path d="M77.1089 101.054C77.1029 100.817 77.0971 100.581 77.0913 100.344C77.0898 100.287 77.0884 100.229 77.0871 100.172C77.0837 100.028 77.0803 99.8835 77.077 99.7395C77.0742 99.6152 77.0711 99.4911 77.0684 99.3671C77.0664 99.2738 77.0643 99.1806 77.0622 99.0873C77.0595 98.9623 77.0566 98.8373 77.0539 98.7123C77.0517 98.6114 77.0497 98.5104 77.0475 98.4094C77.0443 98.2663 77.0413 98.1232 77.0384 97.9805C77.0372 97.9202 77.0359 97.8598 77.0347 97.7996C77.0308 97.6146 77.0273 97.4302 77.0235 97.2461C77.0225 97.1943 77.0217 97.1427 77.0205 97.091C77.0167 96.8964 77.0131 96.7021 77.0095 96.5089C77.0092 96.4995 77.0092 96.49 77.0088 96.4804C77.0053 96.2821 77.0018 96.0846 76.9982 95.8879C76.9977 95.8553 76.9972 95.8229 76.9967 95.7904C76.993 95.5885 76.9896 95.3875 76.9862 95.1878C76.9857 95.164 76.9854 95.1404 76.985 95.1167C76.9779 94.6886 76.9713 94.265 76.9653 93.8469C76.9653 93.8464 76.9653 93.846 76.9653 93.8457C76.9342 91.7154 76.9155 89.7286 76.9101 88.017C73.7575 88.9172 70.3707 89.2191 67.0469 89.2253C66.8313 89.2258 66.7306 89.0503 66.7419 88.8837C64.8604 88.7276 63.0688 88.4166 61.3743 87.9631C61.3781 88.4415 61.3824 88.9347 61.3867 89.4414C61.6183 89.5577 61.8743 89.6323 62.1195 89.705C63.0645 89.9848 63.9601 90.4032 64.8796 90.7542C65.8106 91.1093 66.775 91.3714 67.7177 91.694C68.6184 92.0023 69.5055 92.3545 70.3282 92.838C71.0604 93.2684 71.7569 93.7628 72.3862 94.3345C73.0138 94.9044 73.5789 95.5419 74.0653 96.2369C74.6305 97.0449 75.1641 97.8897 75.6319 98.7577C76.1029 99.6319 76.4507 100.532 76.7089 101.49C76.8614 102.057 76.9994 102.628 77.1662 103.191C77.1463 102.497 77.1276 101.799 77.1099 101.101C77.1096 101.085 77.1092 101.07 77.1089 101.054Z" fill="#F7B8A7"/>
<path d="M90.5579 67.3547C89.7901 65.9467 88.5457 65.1575 87.1769 64.8757C83.6412 64.1472 79.2787 66.8046 80.1744 70.9249C80.5715 72.7515 81.3656 74.7371 83.1924 75.3723C85.4161 76.0872 87.9576 75.8491 89.4664 74.0219C89.5772 73.8883 89.6778 73.747 89.7728 73.6015C90.8386 71.9689 91.5502 69.1744 90.5579 67.3547Z" fill="#F7B8A7"/>
<path d="M48.9355 64.8757C47.5668 65.1575 46.3221 65.9467 45.5543 67.3547C44.5621 69.1744 45.2739 71.969 46.3395 73.6015C46.4343 73.7469 46.5351 73.8882 46.6458 74.0218C48.155 75.849 50.6964 76.087 52.9201 75.3723C54.7467 74.7371 55.5411 72.7515 55.9381 70.9248C56.8339 66.8046 52.4712 64.1472 48.9355 64.8757Z" fill="#F7B8A7"/>
<path d="M128.026 94.1665C127.08 97.3088 125.247 100.308 122.385 102.033C119.048 104.044 115.158 103.447 111.874 101.708C110.691 101.082 109.522 100.327 108.433 99.4616C108.443 99.2309 108.452 99.0001 108.459 98.7692C108.52 96.8027 108.541 94.8818 107.981 92.9821C107.557 91.5423 106.885 90.136 105.986 88.9328C105.482 88.2572 104.725 87.3742 103.797 87.3854C102.827 87.3969 102.535 88.649 102.452 89.3942C102.271 91.0256 102.479 92.5547 103.145 94.0524C104.13 96.2696 105.853 98.1744 107.791 99.7397C107.778 99.9441 107.766 100.148 107.754 100.35C107.642 102.263 107.368 104.166 106.84 106.01C106.799 106.151 106.853 106.263 106.942 106.33C107.102 106.452 107.379 106.431 107.452 106.179C108.01 104.232 108.273 102.228 108.394 100.212C109.115 100.757 109.856 101.257 110.595 101.709C114.078 103.843 118.134 104.757 121.978 102.968C125.395 101.378 127.585 97.8302 128.638 94.3352C128.699 94.1332 128.566 93.9918 128.407 93.9546C128.257 93.9193 128.083 93.9769 128.026 94.1665ZM103.777 93.9114C103.02 92.3754 102.784 90.5024 103.198 88.8331C103.541 87.4452 104.573 88.2532 105.2 88.9609C106.661 90.6134 107.549 93.0066 107.794 95.174C107.935 96.4124 107.901 97.7015 107.834 98.9685C106.164 97.5359 104.723 95.8313 103.777 93.9114Z" fill="#3D1C10"/>
<path d="M33.6862 111.895C31.8752 111.292 30.2666 110.205 28.9177 108.853C27.9318 107.864 27.0836 106.734 26.401 105.542C24.6536 102.492 24.0437 98.8401 24.8333 95.4077C24.8448 95.3578 24.8591 95.3088 24.871 95.2591C25.3101 95.13 25.7423 94.9941 26.1644 94.8563C28.709 94.0238 31.3838 92.8564 33.2931 90.9242C34.6907 89.5095 35.4058 87.2135 33.955 85.5416C32.3477 83.6897 29.8978 86.1925 28.803 87.392C27.2034 89.1449 25.7062 91.1907 24.8049 93.3987C24.6238 93.8427 24.4724 94.293 24.3438 94.7467C23.6023 94.9391 22.8562 95.1029 22.1125 95.2395C20.9489 95.4533 19.7516 95.5897 18.5675 95.5162C17.1459 95.428 15.7231 94.7378 14.5334 93.9969C8.90281 90.4914 7.66079 82.6704 9.67134 76.7802C10.9373 73.0726 13.871 70.0541 16.7923 67.5593C16.7961 67.5562 16.7999 67.5531 16.8037 67.5499C19.0065 65.6711 21.5319 64.2587 24.008 62.7776C24.6525 62.392 25.2937 62.002 25.925 61.5974C26.2823 61.3686 26.6353 61.1338 26.9873 60.8972C27.1677 60.7759 27.1605 60.5633 27.0631 60.4258C26.9786 60.3058 26.8261 60.2428 26.6672 60.3493C23.6475 62.379 20.3581 64.0003 17.461 66.2109C15.8168 67.4653 14.3351 68.9091 12.9515 70.4431C11.7397 71.7864 10.6299 73.1678 9.81924 74.7919C7.12406 80.1906 7.56568 87.3217 11.4076 92.0626C13.1059 94.1585 15.8268 95.9389 18.5675 96.1509C20.409 96.2931 22.3348 95.9536 24.1643 95.4585C22.9005 101.131 25.5185 107.305 30.171 110.75C31.0421 111.395 31.9696 111.905 32.9284 112.276C33.3162 112.192 33.7162 112.11 34.1276 112.03C33.9805 111.988 33.8334 111.944 33.6862 111.895ZM28.6853 88.4936C29.8273 87.1144 32.86 83.7395 33.9734 86.8973C34.8223 89.3045 32.2212 91.2333 30.4522 92.2815C28.7865 93.2685 26.952 94.006 25.0707 94.547C25.7864 92.2893 27.1826 90.3083 28.6853 88.4936Z" fill="#3D1C10"/>
<path d="M98.0648 60.7547C96.0744 61.4911 94.3473 62.8272 92.885 64.4137C92.8618 64.763 92.833 65.1128 92.7991 65.4629C92.9975 65.2275 93.2017 64.9962 93.4113 64.7705C93.432 64.7613 93.453 64.7493 93.4739 64.7344C94.2761 64.1592 95.179 63.7945 96.1186 64.2743C96.6767 64.559 97.0658 65.1486 97.185 65.7511C97.2643 66.1522 97.8757 65.982 97.7967 65.5825C97.6287 64.7321 97.0389 64.0326 96.2758 63.6433C95.7906 63.3957 95.2826 63.3561 94.7879 63.4459C95.8268 62.5609 96.9758 61.8317 98.2334 61.3665C98.6136 61.2257 98.4492 60.6123 98.0648 60.7547Z" fill="#3D1C10"/>
<path d="M43.1736 64.1325C41.7688 62.6701 40.1299 61.4471 38.2584 60.7547C37.8738 60.6123 37.7094 61.2257 38.0897 61.3665C39.3473 61.8317 40.4963 62.5609 41.535 63.4459C41.0406 63.3561 40.5323 63.3957 40.0473 63.6433C39.2842 64.0326 38.6944 64.7321 38.5265 65.5825C38.4475 65.9819 39.0589 66.1522 39.1382 65.7511C39.2643 65.1134 39.6551 64.6118 40.2044 64.2743C41.0885 63.7309 42.0992 64.1965 42.8491 64.7344C42.87 64.7493 42.8909 64.7614 42.9119 64.7705C43.0155 64.882 43.1173 64.995 43.2181 65.1093C43.1985 64.7859 43.1833 64.4606 43.1736 64.1325Z" fill="#3D1C10"/>
<path d="M70.6659 73.7958C70.859 73.4352 70.3114 73.1149 70.1181 73.4756C69.3007 75.0017 66.8186 75.0017 66.001 73.4756C65.8078 73.1149 65.2601 73.4352 65.4532 73.7958C66.491 75.7328 69.6283 75.7328 70.6659 73.7958Z" fill="#3D1C10"/>
<path d="M54.5704 62.9779C54.5495 62.9982 54.5299 63.0213 54.5131 63.0503C54.4877 63.0858 54.473 63.1207 54.4642 63.1552C54.2437 63.6378 54.3413 64.2549 54.7699 64.5939C55.2681 64.9878 55.9892 64.8276 56.3056 64.2917C56.5765 63.833 56.4744 63.2035 56.1245 62.8205C55.6879 62.3426 54.9449 62.5366 54.5704 62.9779Z" fill="#3D1C10"/>
<path d="M79.4862 64.5938C79.9842 64.9877 80.7053 64.8276 81.0216 64.2916C81.2923 63.8329 81.1902 63.2034 80.8404 62.8204C80.4038 62.3425 79.6615 62.5367 79.2867 62.9779C79.2657 62.9981 79.246 63.0213 79.229 63.0503C79.2037 63.0857 79.1888 63.121 79.18 63.1554C78.9598 63.638 79.0575 64.255 79.4862 64.5938Z" fill="#3D1C10"/>
<path d="M68.6984 69.1796C68.9948 68.8964 68.5455 68.4487 68.2498 68.7309C67.4919 69.4549 66.4263 68.3364 66.8358 67.5165C67.0796 67.0288 67.9663 66.6771 68.0393 67.4639C68.0718 67.8147 68.5492 67.9027 68.6625 67.5481C68.9894 66.5233 69.0167 65.5658 68.5126 64.5957C68.3239 64.2326 67.7765 64.5534 67.9648 64.9158C68.2542 65.4729 68.3157 66.0159 68.2395 66.5758C67.6482 66.1423 66.6284 66.5149 66.2177 67.3368C65.4939 68.7858 67.5357 70.29 68.6984 69.1796Z" fill="#3D1C10"/>
<path d="M86.1386 81.3918C81.4784 87.2316 74.1338 88.5776 67.0468 88.5909C66.853 88.5912 66.7521 88.7338 66.7418 88.8837C66.7305 89.0502 66.8313 89.2258 67.0468 89.2253C70.3706 89.219 73.7574 88.9171 76.91 88.017C80.6245 86.9567 84.0134 85.0656 86.5872 81.8404C86.7193 81.6744 86.6592 81.4725 86.5361 81.363C86.424 81.2632 86.2599 81.2398 86.1386 81.3918Z" fill="#3D1C10"/>
<path d="M39.0579 57.2296C41.659 57.1569 43.6894 58.6089 45.2723 60.5534C45.5307 60.8707 45.9769 60.419 45.7209 60.1047C45.609 59.9672 45.4946 59.8327 45.378 59.7004C43.7377 57.8395 41.6336 56.5232 39.0579 56.5951C38.9926 56.597 38.9388 56.616 38.8942 56.6447C38.6612 56.7947 38.7143 57.2393 39.0579 57.2296Z" fill="#3D1C10"/>
<path d="M90.4749 59.9731C90.2128 60.2838 90.6594 60.7351 90.9234 60.4217C93.2769 57.6308 96.5094 56.2632 100.076 57.4811C100.152 57.5071 100.219 57.5037 100.275 57.482C100.507 57.3918 100.554 56.975 100.245 56.8694C97.0176 55.7676 93.973 56.6672 91.6005 58.8077C91.2061 59.1635 90.8298 59.5523 90.4749 59.9731Z" fill="#3D1C10"/>
<path d="M48.1534 58.7632C51.7387 57.1647 54.8053 54.7685 57.6331 52.0818C57.7201 51.999 57.8081 51.9168 57.8948 51.8332C60.6205 49.2132 63.1741 46.4725 65.4199 43.4282C66.3835 42.1218 67.3054 40.7825 68.1959 39.4231C68.7321 38.6045 69.2594 37.7805 69.7699 36.9472C69.7735 36.9413 69.7772 36.9355 69.7807 36.9296C70.0502 36.4896 69.9905 35.8921 70.0323 35.3911C70.1064 34.5055 70.1806 33.62 70.2548 32.7343C70.2889 32.3264 69.6542 32.3298 69.6204 32.7343C69.5504 33.5677 69.4808 34.4011 69.411 35.2344C69.3769 35.6407 69.343 36.0467 69.3091 36.4527C69.3078 36.4682 69.3066 36.4787 69.3054 36.4905C69.2706 36.5477 69.2357 36.605 69.2008 36.6622C67.8925 38.7989 66.4924 40.8828 65.0183 42.9085C62.8277 45.919 60.3079 48.5941 57.6468 51.1907C54.7405 54.0263 51.5626 56.5528 47.8333 58.2155C47.5895 58.3242 47.6437 58.594 47.8131 58.7229C47.9032 58.7912 48.025 58.8204 48.1534 58.7632ZM69.3025 36.5163C69.2903 36.5612 69.2943 36.5827 69.3025 36.5163V36.5163Z" fill="#3D1C10"/>
<path d="M33.3789 59.0258C33.7289 59.24 34.0475 58.6912 33.6992 58.4782C30.0238 56.2289 27.784 52.5475 28.0199 48.1853C28.2273 44.3483 30.1992 41.1158 33.8485 39.735C36.1765 38.8541 38.8403 38.945 40.9365 40.1517C40.9506 40.1596 40.9646 40.1681 40.9787 40.1763C41.2884 40.3572 41.5859 40.5617 41.8674 40.7926C41.7173 40.9414 41.5705 41.0936 41.4315 41.2523C40.0256 42.8585 39.2525 45.6055 40.3322 47.5747C41.0957 48.9669 42.9973 49.3603 44.2375 48.366C46.125 46.8529 45.0985 44.0958 44.063 42.4137C43.6927 41.8121 43.2657 41.2769 42.7914 40.81C43.5938 40.1238 44.5377 39.5743 45.5055 39.1393C46.7818 38.5655 48.3236 38.1178 49.83 38.0683C49.5182 39.0078 49.2762 39.9708 49.0984 40.9441C48.8346 42.3868 48.7268 43.9981 49.513 45.3054C50.7697 47.396 53.3354 46.3732 54.3712 44.6822C55.4823 42.8679 55.5667 39.9928 53.8249 38.5459C52.9572 37.8251 51.8534 37.5266 50.7169 37.4652C51.1289 36.4054 51.6455 35.3881 52.2491 34.4232C55.6408 28.9984 61.8611 26.3808 68.0584 26.0384C68.237 26.0286 68.3374 25.901 68.3597 25.7628C68.3882 25.5858 68.2884 25.3912 68.0584 25.4039C65.9834 25.5185 63.9364 25.883 61.9946 26.5015C57.2315 28.018 53.1041 31.0707 50.7679 35.7724C50.4962 36.3193 50.2581 36.8816 50.0458 37.4533C49.2446 37.4714 48.4462 37.5897 47.7221 37.7469C45.7839 38.1676 43.8314 39.052 42.3135 40.3766C42.0109 40.1231 41.692 39.8951 41.359 39.6924C39.861 38.7796 38.0781 38.3833 36.1874 38.5525C33.1661 38.8227 30.2536 40.5339 28.7278 43.178C27.2644 45.7148 27.0271 49.1281 27.7481 51.9206C28.2402 53.8266 29.2788 55.4874 30.6318 56.8608C31.4499 57.691 32.3824 58.4161 33.3789 59.0258ZM52.5661 38.5213C54.9833 39.5418 54.9369 42.6965 53.6556 44.6254C53.1528 45.3819 52.2411 45.9837 51.3041 45.8441C50.1713 45.6754 49.6954 44.475 49.571 43.4754C49.3734 41.8857 49.8432 40.1734 50.3012 38.6633C50.3614 38.4656 50.4256 38.2693 50.4929 38.0742C51.2139 38.1104 51.9166 38.2473 52.5661 38.5213ZM42.9891 41.9611C44.0812 43.4097 45.9888 47.1668 43.3006 48.1775C42.5578 48.4569 41.7463 48.2349 41.1964 47.6824C40.3523 46.8342 40.4098 45.4308 40.6181 44.3522C40.8596 43.1004 41.4946 42.0689 42.3445 41.2226C42.5729 41.4496 42.7886 41.6955 42.9891 41.9611Z" fill="#3D1C10"/>
<path d="M71.265 26.0385C75.1025 26.2504 78.8661 27.2707 82.1048 29.3805C85.0783 31.3178 87.3167 34.1883 88.606 37.4774C86.818 37.5899 85.0506 38.3471 84.3939 40.1397C83.63 42.2241 84.5698 45.3555 86.6843 46.2738C87.5646 46.6561 88.5066 46.5257 89.2591 45.9437C90.2815 45.153 90.4536 43.6334 90.4125 42.4442C90.3629 41.0045 90.0565 39.5274 89.5651 38.0996C90.2332 38.1369 90.8797 38.2385 91.4331 38.3588C93.2233 38.7473 95.0872 39.547 96.5211 40.7759C95.2652 41.9981 94.3654 43.6128 94.0907 45.287C93.8095 47.0001 94.6921 48.7593 96.543 48.9262C98.5106 49.1034 99.4857 47.1239 99.4692 45.4419C99.451 43.5934 98.6707 42.0385 97.472 40.8047C98.3773 40.076 99.4406 39.5463 100.585 39.2992C103.335 38.7055 106.36 39.6749 108.441 41.5078C110.795 43.5816 111.536 47.0311 111.276 50.0477C110.965 53.665 108.644 56.63 105.625 58.4781C105.276 58.691 105.595 59.2398 105.945 59.0257C107.342 58.1706 108.557 57.1142 109.524 55.8844C110.823 54.2317 111.674 52.265 111.91 50.0477C112.275 46.6345 111.172 42.888 108.453 40.6909C106.096 38.7856 102.803 38.0394 99.8699 38.8189C99.4705 38.925 99.0806 39.0707 98.703 39.2485C98.0948 39.5349 97.5204 39.9078 96.9955 40.3475C94.9374 38.5259 91.9355 37.525 89.3335 37.4653C88.6559 35.7138 87.7071 34.0587 86.608 32.6698C83.9558 29.318 80.2682 27.2179 76.2434 26.1704C74.6233 25.7488 72.949 25.497 71.2649 25.4039C71.0415 25.3916 70.9418 25.5754 70.9627 25.7481C70.9801 25.8919 71.0806 26.0281 71.265 26.0385ZM97.808 42.1694C98.88 43.6725 99.6813 47.2623 97.4186 48.1645C96.6987 48.4513 95.8821 48.2605 95.3267 47.7362C94.5508 47.0036 94.583 45.8226 94.8257 44.8699C95.1841 43.4635 95.9587 42.1999 96.9957 41.2184C97.2919 41.5147 97.5661 41.8301 97.808 42.1694ZM89.7528 43.4754C89.6421 44.7065 88.903 45.9468 87.5359 45.8551C84.9425 45.6804 84.1763 41.4799 85.3276 39.6624C86.0609 38.5051 87.4404 38.1202 88.8361 38.0871C89.4385 39.7785 89.9136 41.6888 89.7528 43.4754Z" fill="#3D1C10"/>
<path d="M35.6079 146.735C35.6145 149.387 35.7672 152.044 35.9027 154.693C35.9235 155.1 36.558 155.102 36.5371 154.693C36.4016 152.044 36.2489 149.387 36.2423 146.735C36.2414 146.325 35.6069 146.325 35.6079 146.735Z" fill="#3D1C10"/>
<path d="M106.247 146.735C106.245 146.326 105.61 146.326 105.613 146.735C105.625 149.293 105.895 151.841 105.907 154.398C105.908 154.437 105.915 154.471 105.925 154.503C106.018 154.781 106.472 154.772 106.535 154.472C106.539 154.449 106.542 154.425 106.542 154.398C106.53 151.841 106.259 149.293 106.247 146.735Z" fill="#3D1C10"/>
</g>
</svg>
