<svg width="244" height="244" viewBox="0 0 244 244" fill="none" xmlns="http://www.w3.org/2000/svg">
<path d="M122 233.23C185.495 233.23 236.968 203.512 236.968 166.852C236.968 130.193 185.495 100.474 122 100.474C58.505 100.474 7.0321 130.193 7.0321 166.852C7.0321 203.512 58.505 233.23 122 233.23Z" fill="#F0F0F0"/>
<path d="M98.2101 217.15C120.105 217.15 137.855 206.903 137.855 194.263C137.855 181.623 120.105 171.376 98.2101 171.376C76.3147 171.376 58.5649 181.623 58.5649 194.263C58.5649 206.903 76.3147 217.15 98.2101 217.15Z" fill="#E0E0E0"/>
<path d="M210.953 165.627L206.302 162.943C206.302 162.943 205.165 152.988 205.921 145.278C206.985 134.444 213.983 121.405 222.328 124.469C230.673 127.534 218.502 138.563 215.794 147.752C213.085 156.941 210.953 165.627 210.953 165.627Z" fill="#8EC3B0"/>
<path opacity="0.15" d="M210.953 165.627L206.302 162.943C206.302 162.943 205.165 152.988 205.921 145.278C206.985 134.444 213.983 121.405 222.328 124.469C230.673 127.534 218.502 138.563 215.794 147.752C213.085 156.941 210.953 165.627 210.953 165.627Z" fill="black"/>
<path d="M208.508 164.5C208.582 164.496 208.652 164.463 208.702 164.409C208.752 164.354 208.779 164.281 208.776 164.207C207.961 140.134 219.946 128.022 220.064 127.905C220.117 127.852 220.146 127.78 220.146 127.705C220.146 127.63 220.117 127.558 220.064 127.505C220.038 127.479 220.007 127.458 219.973 127.444C219.939 127.43 219.903 127.422 219.866 127.422C219.829 127.422 219.793 127.43 219.759 127.444C219.725 127.458 219.694 127.479 219.668 127.505C219.541 127.622 207.385 139.91 208.21 164.227C208.211 164.264 208.22 164.301 208.236 164.335C208.251 164.37 208.274 164.4 208.302 164.426C208.329 164.451 208.362 164.471 208.397 164.484C208.433 164.496 208.47 164.502 208.508 164.5Z" fill="white"/>
<path d="M213.876 167.301L210.567 165.393C210.567 165.393 210.001 158.561 213.354 150.265C216.282 143.043 223.504 137.045 227.144 138.304C230.785 139.563 230.692 142.145 228.916 144.853C227.14 147.561 216.35 154.008 213.876 167.301Z" fill="#8EC3B0"/>
<path d="M212.129 166.579C212.203 166.578 212.275 166.547 212.327 166.495C212.38 166.442 212.41 166.37 212.412 166.296C212.343 151.07 226.637 140.783 226.783 140.681C226.814 140.66 226.84 140.633 226.86 140.602C226.879 140.57 226.893 140.536 226.899 140.499C226.905 140.463 226.903 140.425 226.894 140.389C226.885 140.353 226.869 140.32 226.847 140.29C226.804 140.23 226.739 140.189 226.666 140.176C226.593 140.164 226.517 140.18 226.456 140.222C226.31 140.324 211.782 150.787 211.846 166.296C211.846 166.371 211.875 166.443 211.929 166.496C211.982 166.549 212.054 166.579 212.129 166.579Z" fill="white"/>
<path d="M38.8741 159.649L43.1685 156.75C43.1685 156.75 45.0571 145.526 43.3003 135.625C40.831 121.736 31.232 117.12 27.816 118.584C24.4 120.048 23.668 124.181 30.0462 132.106C33.8282 136.767 38.7424 146.717 38.8741 159.649Z" fill="#8EC3B0"/>
<g opacity="0.15">
<path d="M38.8741 159.649L43.1685 156.75C43.1685 156.75 45.0571 145.526 43.3003 135.625C40.831 121.736 31.232 117.12 27.816 118.584C24.4 120.048 23.668 124.181 30.0462 132.106C33.8282 136.767 38.7424 146.717 38.8741 159.649Z" fill="black"/>
</g>
<path d="M40.3478 154.086H40.3039C40.2601 154.083 40.2173 154.071 40.1784 154.051C40.1394 154.03 40.1053 154.002 40.0781 153.967C40.0509 153.933 40.0313 153.893 40.0206 153.85C40.0099 153.808 40.0084 153.763 40.016 153.72C41.5678 140.647 36.0486 126.455 30.0413 120.809C29.9835 120.751 29.951 120.672 29.951 120.59C29.951 120.507 29.9835 120.429 30.0413 120.37C30.0699 120.341 30.1041 120.318 30.1418 120.302C30.1795 120.286 30.22 120.278 30.2609 120.278C30.3018 120.278 30.3423 120.286 30.38 120.302C30.4177 120.318 30.4519 120.341 30.4805 120.37C36.6 126.119 42.2218 140.544 40.6504 153.808C40.6412 153.883 40.6057 153.952 40.5503 154.003C40.4948 154.054 40.4231 154.083 40.3478 154.086Z" fill="white"/>
<path d="M27.6306 167.233C26.9474 167.643 24.9563 166.164 24.4049 165.808C23.4598 165.191 22.69 164.34 22.1699 163.338C21.5864 162.202 21.3698 160.913 21.5501 159.649C21.6501 158.989 21.7952 158.337 21.9844 157.697C22.1552 157.058 22.326 156.419 22.4724 155.774C22.6888 155.148 22.772 154.483 22.7164 153.822C22.5261 152.519 21.35 151.626 20.2764 150.86C19.0955 150.006 17.8364 148.879 17.8364 147.308C17.8966 146.073 18.3692 144.894 19.1784 143.96C19.9104 142.984 20.7888 142.135 21.4476 141.115C21.9628 140.408 22.2257 139.549 22.1943 138.675C22.1094 138.136 21.9169 137.62 21.6282 137.157C21.0523 136.142 20.3057 135.205 19.9007 134.127C19.4956 133.048 19.5249 131.662 20.3887 130.857C21.0767 130.198 22.1259 130.091 23.0775 130.135C23.9742 130.224 24.8405 130.509 25.6151 130.969C28.1381 132.311 29.6216 135.239 32.291 136.259C33.3207 136.65 34.4431 136.718 35.5118 136.982C36.5805 137.245 37.6834 137.767 38.1958 138.738C39.2059 140.666 37.4443 143.096 38.1665 145.141C38.8107 146.956 40.6065 147.62 41.6215 149.245C42.0335 149.967 42.2045 150.801 42.1095 151.626C42.0523 153.02 41.7397 154.391 41.1872 155.672C40.5518 157 39.8347 158.288 39.04 159.527C39.04 159.527 27.7331 167.169 27.6306 167.233Z" fill="#8EC3B0"/>
<path d="M34.2283 163.187C34.1873 163.187 34.1468 163.178 34.1092 163.162C34.0715 163.145 34.0375 163.122 34.0089 163.092C33.9804 163.063 33.9579 163.028 33.9428 162.99C33.9277 162.952 33.9203 162.911 33.9209 162.87C34.1942 150.514 28.1137 137.006 23.8095 133.102C23.7484 133.047 23.7115 132.97 23.7069 132.887C23.7023 132.805 23.7305 132.724 23.7851 132.663C23.8138 132.634 23.8479 132.61 23.8856 132.595C23.9233 132.579 23.9638 132.571 24.0047 132.571C24.0456 132.571 24.0861 132.579 24.1238 132.595C24.1615 132.61 24.1957 132.634 24.2243 132.663C28.6163 136.616 34.8188 150.358 34.5407 162.885C34.54 162.925 34.5314 162.965 34.5154 163.002C34.4994 163.039 34.4762 163.073 34.4472 163.101C34.4182 163.129 34.3839 163.151 34.3464 163.166C34.3088 163.181 34.2687 163.188 34.2283 163.187Z" fill="white"/>
<path d="M31.9493 148.132C31.9205 148.14 31.8903 148.14 31.8615 148.132C27.8697 146.981 22.9213 146.864 22.8725 146.859C22.8317 146.858 22.7915 146.849 22.7541 146.833C22.7167 146.817 22.683 146.793 22.6548 146.763C22.6266 146.734 22.6046 146.699 22.5901 146.661C22.5755 146.623 22.5687 146.582 22.57 146.541C22.5692 146.5 22.577 146.459 22.5929 146.421C22.6087 146.383 22.6323 146.349 22.6621 146.321C22.692 146.292 22.7274 146.27 22.7661 146.256C22.8048 146.242 22.8461 146.236 22.8872 146.239C22.936 146.239 27.9624 146.361 32.0323 147.532C32.111 147.556 32.1771 147.61 32.2164 147.682C32.2556 147.754 32.2649 147.839 32.2421 147.918C32.2231 147.98 32.1843 148.035 32.1315 148.074C32.0787 148.113 32.0148 148.133 31.9493 148.132Z" fill="white"/>
<path d="M146.966 151.153L145.117 150.084C144.808 149.884 144.552 149.614 144.368 149.296C144.184 148.978 144.078 148.621 144.058 148.254V71.3846C144.078 71.0184 144.184 70.6619 144.367 70.3441C144.55 70.0262 144.805 69.7558 145.112 69.5546L196.522 39.8745C196.85 39.7085 197.212 39.6221 197.579 39.6221C197.946 39.6221 198.308 39.7085 198.636 39.8745L200.485 40.9432C200.793 41.1433 201.05 41.4133 201.234 41.7313C201.418 42.0493 201.524 42.4063 201.544 42.7732V119.643C201.524 120.009 201.418 120.366 201.235 120.683C201.052 121.001 200.797 121.272 200.49 121.473L149.079 151.158C148.752 151.324 148.389 151.411 148.022 151.41C147.655 151.409 147.293 151.321 146.966 151.153Z" fill="#455A64"/>
<path d="M201.544 42.6024C201.471 42.0558 201.027 41.8557 200.495 42.1632L149.079 71.8482C148.768 72.0433 148.512 72.3135 148.333 72.6339L144.365 70.3452C144.543 70.0223 144.8 69.7502 145.112 69.5546L196.523 39.8745C196.85 39.7085 197.212 39.6221 197.579 39.6221C197.946 39.6221 198.308 39.7085 198.636 39.8745L200.485 40.9432C200.771 41.1271 201.013 41.3706 201.196 41.6569C201.379 41.9433 201.498 42.2658 201.544 42.6024Z" fill="#455A64"/>
<path d="M148.899 151.241C148.586 151.368 148.25 151.426 147.914 151.411C147.577 151.397 147.247 151.311 146.947 151.158L145.092 150.084C144.785 149.883 144.53 149.613 144.347 149.295C144.164 148.977 144.058 148.621 144.038 148.254V71.3847C144.051 71.0177 144.156 70.66 144.346 70.3452L148.313 72.6339C148.12 72.9491 148.013 73.309 148.001 73.6783V150.548C148.02 151.153 148.401 151.431 148.899 151.241Z" fill="#263238"/>
<path d="M148.02 73.688V150.548C148.02 151.221 148.508 151.495 149.079 151.158L200.49 121.473C200.797 121.272 201.052 121.001 201.235 120.683C201.418 120.366 201.524 120.009 201.544 119.643V42.7732C201.544 42.0998 201.056 41.8265 200.49 42.1632L149.079 71.8482C148.77 72.0493 148.512 72.3209 148.328 72.6407C148.144 72.9605 148.039 73.3194 148.02 73.688Z" fill="#37474F"/>
<path d="M136.015 102.968C135.352 102.573 132.272 100.821 132.111 100.728C131.986 100.653 131.879 100.551 131.798 100.429C131.717 100.308 131.665 100.169 131.645 100.024C131.625 99.8797 131.637 99.7323 131.682 99.5931C131.726 99.4539 131.801 99.3264 131.902 99.2201L144.058 86.1808L148.02 88.4549L135.869 101.504C135.774 101.606 135.701 101.726 135.656 101.858C135.611 101.99 135.595 102.131 135.609 102.269C135.623 102.408 135.667 102.542 135.737 102.663C135.807 102.783 135.902 102.887 136.015 102.968Z" fill="#455A64"/>
<path d="M148.02 88.4695L135.869 101.504C135.734 101.648 135.646 101.83 135.616 102.025C135.587 102.22 135.617 102.42 135.703 102.597C135.789 102.775 135.927 102.922 136.099 103.02C136.271 103.117 136.468 103.16 136.664 103.144L148.02 102.207V88.4695Z" fill="#37474F"/>
<path d="M174.782 65.0016C180.775 61.5417 185.63 64.3477 185.63 71.2675C185.63 78.1874 180.775 86.5956 174.782 90.0555C168.789 93.5155 163.934 90.7095 163.934 83.7945C163.934 76.8796 168.789 68.4615 174.782 65.0016Z" fill="#8EC3B0"/>
<path d="M174.704 70.4476C176.656 69.3252 178.223 70.2329 178.223 72.4777C178.156 73.698 177.803 74.8854 177.191 75.9435C176.58 77.0017 175.728 77.9008 174.704 78.568C172.752 79.6904 171.181 78.7827 171.181 76.5379C171.248 75.3172 171.602 74.1295 172.214 73.0713C172.826 72.0131 173.679 71.1142 174.704 70.4476Z" fill="white"/>
<path d="M181.643 82.4135C181.643 78.7291 179.052 77.2309 175.861 79.0755L173.865 80.2272C170.673 82.0719 168.082 86.5712 168.082 90.2459V91.256C168.684 91.4486 169.313 91.5458 169.946 91.5439C171.658 91.4857 173.325 90.9811 174.782 90.0799C177.556 88.3712 179.903 86.0511 181.643 83.2968V82.4135Z" fill="white"/>
<path d="M167.911 124.308L181.653 116.373C182.239 116.037 182.712 116.31 182.712 116.983V121.409C182.692 121.776 182.586 122.133 182.402 122.451C182.218 122.769 181.961 123.039 181.653 123.239L167.911 131.174C167.326 131.511 166.852 131.238 166.852 130.564V126.138C166.872 125.771 166.978 125.414 167.162 125.096C167.346 124.778 167.603 124.508 167.911 124.308Z" fill="#8EC3B0"/>
<path d="M161.182 114.421L188.368 98.7175C189.066 98.3124 189.637 98.6394 189.637 99.4495V101.094C189.613 101.534 189.486 101.962 189.265 102.344C189.045 102.725 188.737 103.05 188.368 103.29L161.167 118.994C160.469 119.399 159.903 119.072 159.903 118.262V116.632C159.925 116.188 160.053 115.757 160.275 115.372C160.498 114.988 160.808 114.662 161.182 114.421Z" fill="#FAFAFA"/>
<path d="M164.363 103.056C164.734 102.841 165.022 102.807 165.227 102.958C165.432 103.11 165.535 103.446 165.535 103.964C165.545 104.436 165.439 104.903 165.227 105.325C165.035 105.706 164.735 106.022 164.363 106.233L163.631 106.657V108.234C163.63 108.288 163.617 108.341 163.592 108.39C163.575 108.434 163.544 108.471 163.504 108.497L163.134 108.712C163.121 108.721 163.106 108.726 163.09 108.726C163.074 108.726 163.058 108.721 163.046 108.712C163.019 108.679 163.007 108.637 163.012 108.595V104.032C163.011 103.978 163.023 103.925 163.046 103.876C163.064 103.832 163.095 103.795 163.134 103.768L164.363 103.056ZM163.631 105.774L164.339 105.364C164.51 105.268 164.654 105.13 164.759 104.964C164.87 104.768 164.924 104.545 164.915 104.32C164.915 104.056 164.861 103.905 164.759 103.861C164.686 103.843 164.611 103.843 164.538 103.859C164.465 103.875 164.397 103.907 164.339 103.954L163.631 104.364V105.774Z" fill="#FAFAFA"/>
<path d="M167.579 101.197C167.628 101.167 167.667 101.167 167.691 101.197C167.723 101.24 167.744 101.29 167.755 101.343L168.882 105.159C168.882 105.159 168.882 105.188 168.882 105.203C168.881 105.257 168.868 105.311 168.843 105.359C168.826 105.403 168.795 105.441 168.755 105.467L168.423 105.657C168.365 105.691 168.321 105.696 168.297 105.657C168.273 105.632 168.256 105.602 168.248 105.569L168.048 104.9L166.584 105.74L166.388 106.638C166.375 106.686 166.357 106.734 166.335 106.779C166.311 106.839 166.265 106.887 166.208 106.916L165.876 107.106C165.864 107.117 165.848 107.122 165.832 107.122C165.816 107.122 165.801 107.117 165.788 107.106C165.763 107.075 165.75 107.034 165.754 106.994C165.751 106.976 165.751 106.958 165.754 106.94L166.876 101.826C166.89 101.751 166.911 101.677 166.94 101.606C166.964 101.555 167.003 101.513 167.052 101.484L167.579 101.197ZM167.833 104.154L167.345 102.431L166.857 104.735L167.833 104.154Z" fill="#FAFAFA"/>
<path d="M170.59 99.3861C170.754 99.283 170.939 99.2211 171.132 99.2055C171.268 99.1933 171.405 99.224 171.522 99.2934C171.629 99.3629 171.713 99.4633 171.761 99.5813C171.815 99.7014 171.845 99.8306 171.849 99.9619C171.853 100.016 171.841 100.07 171.815 100.118C171.798 100.162 171.767 100.2 171.727 100.225L171.405 100.411C171.351 100.44 171.312 100.445 171.288 100.411C171.258 100.391 171.233 100.364 171.215 100.333C171.195 100.289 171.167 100.249 171.132 100.217C171.097 100.184 171.055 100.159 171.01 100.142C170.861 100.121 170.71 100.16 170.59 100.25C170.511 100.301 170.436 100.358 170.366 100.421C170.293 100.487 170.229 100.563 170.175 100.645C170.124 100.725 170.081 100.81 170.049 100.899C170.02 100.984 170.005 101.073 170.005 101.162C169.999 101.245 170.014 101.327 170.049 101.402C170.064 101.428 170.085 101.45 170.11 101.466C170.136 101.482 170.165 101.492 170.195 101.494C170.285 101.51 170.378 101.51 170.468 101.494L170.893 101.402C171.051 101.355 171.216 101.335 171.381 101.343C171.498 101.343 171.613 101.38 171.708 101.45C171.797 101.525 171.862 101.626 171.893 101.738C171.941 101.896 171.962 102.061 171.957 102.226C171.956 102.444 171.925 102.661 171.864 102.87C171.804 103.086 171.717 103.292 171.605 103.485C171.487 103.683 171.346 103.867 171.186 104.032C171.021 104.202 170.834 104.348 170.629 104.466C170.479 104.558 170.314 104.622 170.141 104.656C170.001 104.683 169.856 104.672 169.722 104.622C169.6 104.566 169.499 104.472 169.434 104.354C169.354 104.203 169.31 104.036 169.307 103.866C169.306 103.81 169.318 103.755 169.341 103.705C169.363 103.663 169.394 103.628 169.434 103.602L169.756 103.417C169.805 103.388 169.844 103.378 169.873 103.393C169.902 103.407 169.922 103.432 169.941 103.476C169.961 103.526 169.988 103.573 170.019 103.617C170.05 103.66 170.092 103.692 170.141 103.71C170.205 103.725 170.272 103.725 170.336 103.71C170.44 103.685 170.539 103.644 170.629 103.588C170.724 103.534 170.814 103.472 170.898 103.402C171.062 103.272 171.192 103.105 171.278 102.914C171.317 102.817 171.337 102.712 171.337 102.607C171.341 102.569 171.338 102.53 171.327 102.493C171.316 102.456 171.298 102.422 171.273 102.392C171.247 102.369 171.216 102.352 171.182 102.342C171.149 102.331 171.113 102.329 171.078 102.334C170.967 102.338 170.858 102.356 170.751 102.387C170.624 102.417 170.478 102.451 170.307 102.48C170.176 102.513 170.041 102.523 169.907 102.509C169.801 102.502 169.701 102.459 169.624 102.387C169.54 102.305 169.48 102.2 169.453 102.085C169.414 101.915 169.396 101.741 169.399 101.567C169.399 101.353 169.43 101.139 169.492 100.933C169.55 100.721 169.636 100.518 169.746 100.328C169.852 100.139 169.979 99.964 170.127 99.8058C170.26 99.6446 170.417 99.5033 170.59 99.3861Z" fill="#FAFAFA"/>
<path d="M173.796 97.5415C173.958 97.4352 174.145 97.3715 174.338 97.356C174.474 97.3444 174.61 97.3751 174.728 97.4439C174.833 97.5152 174.914 97.6152 174.963 97.7318C175.016 97.8519 175.046 97.9811 175.05 98.1124C175.056 98.1668 175.044 98.2216 175.016 98.2686C174.999 98.3128 174.968 98.3503 174.928 98.3759L174.606 98.5614C174.558 98.5907 174.519 98.6004 174.489 98.5614C174.458 98.5418 174.434 98.5127 174.421 98.4784C174.376 98.3928 174.302 98.3267 174.211 98.293C174.138 98.2823 174.064 98.2863 173.993 98.3047C173.922 98.3232 173.855 98.3557 173.796 98.4003C173.715 98.4501 173.638 98.5073 173.567 98.5712C173.496 98.6379 173.434 98.7133 173.382 98.7956C173.328 98.874 173.285 98.9594 173.255 99.0494C173.224 99.134 173.208 99.223 173.206 99.3129C173.2 99.395 173.215 99.4773 173.25 99.552C173.265 99.5782 173.286 99.6004 173.311 99.6165C173.337 99.6327 173.366 99.6424 173.396 99.6448C173.487 99.6605 173.579 99.6605 173.669 99.6448L174.094 99.552C174.253 99.5078 174.417 99.4881 174.582 99.4935C174.7 99.4924 174.815 99.5301 174.909 99.6008C174.998 99.677 175.064 99.7768 175.099 99.8888C175.142 100.048 175.162 100.212 175.158 100.377C175.158 100.595 175.126 100.812 175.065 101.021C175.006 101.236 174.919 101.443 174.806 101.636C174.689 101.836 174.548 102.021 174.387 102.187C174.222 102.353 174.037 102.498 173.835 102.617C173.685 102.708 173.52 102.772 173.347 102.807C173.209 102.834 173.065 102.822 172.933 102.773C172.808 102.718 172.705 102.624 172.64 102.504C172.56 102.354 172.518 102.187 172.518 102.016C172.512 101.962 172.524 101.907 172.552 101.86C172.569 101.816 172.6 101.779 172.64 101.753L172.962 101.567C173.011 101.538 173.055 101.528 173.079 101.543C173.096 101.551 173.111 101.562 173.123 101.577C173.135 101.591 173.143 101.608 173.147 101.626C173.169 101.675 173.195 101.723 173.225 101.768C173.257 101.81 173.302 101.843 173.352 101.86C173.416 101.875 173.483 101.875 173.547 101.86C173.651 101.836 173.75 101.795 173.84 101.738C173.933 101.683 174.021 101.621 174.104 101.553C174.189 101.486 174.265 101.407 174.328 101.319C174.391 101.234 174.444 101.143 174.484 101.045C174.523 100.948 174.543 100.843 174.543 100.738C174.548 100.7 174.544 100.661 174.533 100.624C174.522 100.587 174.504 100.553 174.48 100.523C174.453 100.5 174.422 100.483 174.388 100.473C174.355 100.462 174.319 100.46 174.284 100.465C174.175 100.471 174.067 100.489 173.962 100.518C173.835 100.548 173.684 100.582 173.518 100.611C173.386 100.644 173.249 100.654 173.113 100.64C173.007 100.635 172.907 100.591 172.83 100.518C172.747 100.435 172.69 100.33 172.664 100.216C172.621 100.048 172.601 99.876 172.606 99.7033C172.607 99.487 172.639 99.2719 172.698 99.064C172.759 98.853 172.844 98.6499 172.952 98.4589C173.058 98.269 173.187 98.0935 173.338 97.9368C173.469 97.7819 173.624 97.6486 173.796 97.5415Z" fill="#FAFAFA"/>
<path d="M177.354 98.1514L176.959 100.489C176.947 100.559 176.927 100.628 176.9 100.694C176.881 100.747 176.845 100.791 176.798 100.821L176.427 101.035C176.378 101.065 176.344 101.065 176.319 101.035C176.287 100.995 176.268 100.946 176.266 100.894L175.68 96.7704C175.68 96.7704 175.68 96.7313 175.68 96.7167C175.681 96.6624 175.695 96.6091 175.719 96.5605C175.738 96.5171 175.768 96.4799 175.807 96.4532L176.144 96.258C176.172 96.2466 176.203 96.2466 176.231 96.258C176.261 96.258 176.28 96.297 176.29 96.3751L176.676 99.1518L177.012 97.0681C177.021 97.0161 177.036 96.9653 177.056 96.9168C177.076 96.8551 177.117 96.8028 177.173 96.7704L177.549 96.5508C177.603 96.5215 177.642 96.5264 177.666 96.5508C177.687 96.5818 177.702 96.6166 177.71 96.6533L178.052 98.3466L178.437 95.1258C178.442 95.0625 178.46 95.0009 178.491 94.9453C178.514 94.9088 178.544 94.8773 178.579 94.8525L178.915 94.6573C178.928 94.6478 178.944 94.6427 178.959 94.6427C178.975 94.6427 178.991 94.6478 179.003 94.6573C179.017 94.6733 179.028 94.6919 179.035 94.712C179.041 94.7321 179.044 94.7533 179.042 94.7745C179.044 94.7939 179.044 94.8135 179.042 94.833L178.457 99.6301C178.447 99.7003 178.429 99.769 178.403 99.835C178.381 99.8871 178.343 99.9313 178.296 99.9619L177.92 100.177C177.876 100.201 177.842 100.201 177.817 100.177C177.793 100.132 177.773 100.084 177.759 100.035L177.354 98.1514Z" fill="#FAFAFA"/>
<path d="M179.638 96.0823C179.649 95.8117 179.681 95.5425 179.735 95.2771C179.791 95.0178 179.876 94.7657 179.989 94.5256C180.097 94.2922 180.235 94.074 180.399 93.8766C180.566 93.6807 180.766 93.5155 180.99 93.3886C181.161 93.2719 181.363 93.206 181.57 93.1982C181.725 93.1999 181.874 93.2611 181.985 93.369C182.103 93.5019 182.189 93.6607 182.234 93.8326C182.297 94.0568 182.331 94.288 182.336 94.5207C182.336 94.6086 182.336 94.7062 182.336 94.8135C182.336 94.9209 182.336 95.0331 182.336 95.1502C182.336 95.2674 182.336 95.3796 182.336 95.487C182.336 95.5943 182.336 95.6968 182.336 95.7895C182.326 96.0585 182.293 96.3262 182.239 96.5898C182.182 96.8484 182.099 97.1003 181.99 97.3414C181.879 97.574 181.74 97.792 181.575 97.9904C181.408 98.1844 181.21 98.3493 180.99 98.4784C180.814 98.5942 180.61 98.66 180.399 98.6687C180.323 98.6703 180.248 98.6564 180.177 98.6278C180.107 98.5993 180.043 98.5568 179.989 98.5028C179.862 98.3662 179.774 98.1975 179.735 98.0148C179.677 97.7898 179.645 97.559 179.638 97.3267C179.638 97.2389 179.638 97.1413 179.638 97.0339C179.638 96.9266 179.638 96.8143 179.638 96.6972C179.638 96.5801 179.638 96.4727 179.638 96.3605C179.638 96.2482 179.633 96.1702 179.638 96.0823ZM181.717 94.916C181.728 94.7966 181.714 94.6763 181.677 94.5622C181.64 94.4481 181.581 94.3427 181.502 94.2523C181.375 94.1401 181.199 94.145 180.99 94.2523C180.762 94.3862 180.581 94.5874 180.472 94.8282C180.334 95.1127 180.261 95.4244 180.258 95.7407C180.258 95.9213 180.258 96.1214 180.258 96.341C180.258 96.5606 180.258 96.7558 180.258 96.9314C180.247 97.0508 180.26 97.1712 180.297 97.2852C180.334 97.3993 180.394 97.5047 180.472 97.5951C180.599 97.7025 180.775 97.6927 180.99 97.5707C181.214 97.4359 181.392 97.237 181.502 96.9998C181.64 96.717 181.714 96.4069 181.717 96.0921C181.717 95.9066 181.717 95.7066 181.717 95.487C181.717 95.2674 181.722 95.0917 181.717 94.916Z" fill="#FAFAFA"/>
<path d="M184.464 91.4415C184.85 91.2219 185.138 91.1877 185.338 91.3488C185.456 91.4794 185.544 91.6347 185.596 91.8034C185.647 91.9721 185.661 92.1502 185.635 92.3248C185.639 92.6562 185.588 92.986 185.484 93.3008C185.385 93.5939 185.231 93.8655 185.03 94.1011L185.665 95.4821C185.667 95.5048 185.667 95.5277 185.665 95.5504C185.665 95.5944 185.655 95.6379 185.635 95.6773C185.622 95.7127 185.598 95.7433 185.567 95.7652L185.177 95.9896C185.113 96.0238 185.069 96.0287 185.04 95.9896C185.014 95.964 184.993 95.9344 184.977 95.9018L184.376 94.5988L183.766 94.9502V96.5996C183.767 96.6536 183.755 96.7069 183.732 96.7558C183.712 96.7982 183.682 96.8351 183.644 96.8632L183.273 97.0779C183.261 97.0882 183.246 97.0939 183.229 97.0939C183.213 97.0939 183.198 97.0882 183.186 97.0779C183.172 97.0629 183.161 97.0452 183.154 97.0259C183.147 97.0066 183.145 96.986 183.147 96.9656V92.4028C183.148 92.3486 183.161 92.2952 183.186 92.2467C183.203 92.2025 183.234 92.1649 183.273 92.1393L184.464 91.4415ZM183.776 94.0669L184.464 93.696C184.632 93.6022 184.776 93.4701 184.884 93.3105C184.997 93.1225 185.051 92.905 185.04 92.6859C185.04 92.4223 184.986 92.276 184.884 92.2467C184.735 92.2265 184.585 92.265 184.464 92.354L183.8 92.7347L183.776 94.0669Z" fill="#FAFAFA"/>
<path d="M187.734 89.5627C187.911 89.4471 188.113 89.3767 188.324 89.3577C188.477 89.3521 188.626 89.4064 188.739 89.509C188.868 89.6449 188.958 89.8137 188.998 89.997C189.063 90.239 189.099 90.4881 189.105 90.7387C189.105 91.0803 189.105 91.4317 189.105 91.7879C189.095 92.0785 189.059 92.3675 188.998 92.6517C188.942 92.9157 188.857 93.1727 188.744 93.4179C188.635 93.643 188.497 93.853 188.334 94.0425C188.171 94.2365 187.976 94.4015 187.758 94.5305L186.601 95.16C186.589 95.1703 186.574 95.176 186.558 95.176C186.541 95.176 186.526 95.1703 186.514 95.16C186.499 95.1453 186.488 95.1276 186.482 95.1082C186.475 95.0888 186.473 95.0682 186.475 95.0478V90.485C186.476 90.4307 186.489 90.3774 186.514 90.3288C186.531 90.2847 186.562 90.2471 186.601 90.2215L187.734 89.5627ZM188.485 91.0803C188.483 90.9482 188.463 90.8169 188.427 90.6899C188.404 90.5939 188.355 90.506 188.285 90.4362C188.254 90.4055 188.218 90.3815 188.178 90.3656C188.137 90.3496 188.094 90.3421 188.051 90.3435C187.929 90.3516 187.811 90.392 187.709 90.4606L187.094 90.8119V93.9937L187.734 93.6277C187.857 93.5557 187.968 93.4633 188.061 93.3544C188.151 93.2474 188.229 93.1293 188.29 93.0031C188.351 92.8686 188.397 92.7279 188.427 92.5834C188.461 92.4327 188.48 92.2791 188.485 92.1247C188.5 91.7684 188.5 91.4219 188.485 91.0803Z" fill="#FAFAFA"/>
<path d="M120.721 18.7343C121.564 18.9217 122.375 19.2273 123.132 19.642C123.857 20.0315 124.506 20.5471 125.05 21.1645C125.57 21.7584 125.956 22.4575 126.182 23.2141C126.412 24.024 126.429 24.8797 126.231 25.698C126.1 26.3468 125.843 26.9636 125.475 27.5134C125.138 27.9835 124.737 28.4041 124.284 28.7627C123.838 29.1084 123.363 29.4138 122.864 29.6752L121.458 30.4219C121.035 30.6427 120.633 30.9025 120.258 31.1978C119.918 31.4582 119.658 31.808 119.506 32.208C119.432 32.3907 119.309 32.5494 119.15 32.6667C119.075 32.725 118.988 32.7654 118.895 32.7849C118.802 32.8043 118.705 32.8023 118.613 32.7789L116.544 32.3202C116.444 32.2993 116.35 32.2588 116.266 32.201C116.182 32.1431 116.111 32.0692 116.056 31.9835C115.998 31.9038 115.959 31.8114 115.943 31.714C115.927 31.6165 115.934 31.5165 115.963 31.4223C116.13 30.7815 116.424 30.1807 116.827 29.6557C117.195 29.1913 117.622 28.7764 118.096 28.4211C118.558 28.0829 119.048 27.7841 119.56 27.528C120.048 27.2792 120.536 27.04 120.961 26.8009C121.355 26.5886 121.727 26.3351 122.068 26.0445C122.368 25.7937 122.576 25.4503 122.659 25.0685C122.736 24.737 122.733 24.3915 122.648 24.0618C122.563 23.7321 122.399 23.4278 122.171 23.1751C121.6 22.5521 120.837 22.138 120.004 21.999C118.462 21.6574 117.161 22.1763 116.1 23.5557C115.998 23.7063 115.869 23.8369 115.719 23.9412C115.551 24.0247 115.356 24.0388 115.178 23.9803L112.977 23.4923C112.82 23.462 112.681 23.3707 112.591 23.2385C112.543 23.1679 112.511 23.0878 112.497 23.0036C112.482 22.9194 112.486 22.8331 112.508 22.7505C112.695 22.0724 113.044 21.4496 113.523 20.9352C114.064 20.3386 114.707 19.8429 115.422 19.4712C116.203 19.0624 117.045 18.7823 117.915 18.6416C118.848 18.4899 119.801 18.5214 120.721 18.7343ZM118.384 34.4381C118.577 34.4836 118.746 34.603 118.852 34.7708C118.959 34.9386 118.996 35.1415 118.955 35.336L118.428 37.7272C118.41 37.8274 118.371 37.9226 118.314 38.0067C118.257 38.0908 118.182 38.1618 118.096 38.2152C118.014 38.2716 117.922 38.3102 117.824 38.3287C117.727 38.3472 117.626 38.3451 117.53 38.3226L115.168 37.7809C115.068 37.764 114.972 37.7256 114.888 37.6683C114.803 37.611 114.733 37.5363 114.68 37.4491C114.625 37.3667 114.588 37.2739 114.57 37.1766C114.553 37.0793 114.555 36.9794 114.577 36.883L115.109 34.4918C115.155 34.298 115.274 34.1294 115.442 34.022C115.609 33.9145 115.812 33.8765 116.007 33.916L118.384 34.4381Z" fill="#8EC3B0"/>
<path d="M123.327 41.6264C123.915 41.5321 124.513 41.5206 125.104 41.5922C125.668 41.6593 126.216 41.8244 126.724 42.0802C127.207 42.3309 127.633 42.68 127.973 43.105C128.279 43.5209 128.495 43.9964 128.605 44.5007C128.716 45.005 128.72 45.527 128.617 46.033C128.524 46.422 128.375 46.7952 128.173 47.1408C127.979 47.4768 127.753 47.7938 127.5 48.0875C127.251 48.3803 127.012 48.6584 126.792 48.9268C126.577 49.1769 126.386 49.4465 126.221 49.732C126.066 49.9823 125.988 50.2724 125.997 50.5665C125.992 50.704 125.954 50.8382 125.884 50.9569C125.849 51.0116 125.803 51.0582 125.748 51.0936C125.693 51.1289 125.632 51.1522 125.567 51.1619L124.103 51.3961C124.035 51.4085 123.965 51.4072 123.897 51.3921C123.829 51.377 123.765 51.3485 123.708 51.3083C123.65 51.272 123.602 51.2226 123.567 51.1641C123.532 51.1055 123.512 51.0395 123.508 50.9716C123.446 50.5174 123.48 50.0556 123.605 49.6149C123.72 49.2248 123.884 48.8509 124.093 48.5023C124.299 48.1677 124.534 47.8524 124.796 47.5604C125.055 47.2676 125.284 46.9944 125.509 46.7308C125.709 46.4955 125.883 46.2385 126.026 45.9647C126.153 45.729 126.199 45.4581 126.158 45.1936C126.121 44.9608 126.029 44.7403 125.888 44.5509C125.748 44.3614 125.564 44.2086 125.352 44.1054C124.828 43.852 124.234 43.7799 123.664 43.9004C123.148 43.9759 122.668 44.2092 122.289 44.5683C121.911 44.9273 121.653 45.3946 121.551 45.9061C121.522 46.0291 121.473 46.1463 121.405 46.2526C121.317 46.3452 121.199 46.4026 121.073 46.4136L119.531 46.6625C119.422 46.6833 119.31 46.6605 119.218 46.5991C119.171 46.5668 119.132 46.5248 119.102 46.476C119.073 46.4272 119.054 46.3727 119.047 46.316C119.002 45.8318 119.077 45.3437 119.267 44.896C119.46 44.3749 119.744 43.8924 120.106 43.471C120.503 43.0096 120.971 42.6142 121.492 42.2998C122.055 41.9588 122.678 41.7301 123.327 41.6264ZM125.845 52.2892C125.913 52.2785 125.981 52.2812 126.047 52.2971C126.113 52.313 126.176 52.3418 126.231 52.3819C126.288 52.4197 126.337 52.4692 126.374 52.5273C126.411 52.5853 126.436 52.6505 126.446 52.7186L126.719 54.3924C126.74 54.5282 126.707 54.6669 126.626 54.7783C126.546 54.8898 126.425 54.965 126.289 54.9878L124.655 55.2562C124.519 55.2772 124.38 55.2439 124.269 55.1635C124.212 55.1252 124.165 55.0754 124.128 55.0174C124.092 54.9594 124.069 54.8944 124.059 54.8268L123.786 53.1529C123.774 53.0857 123.775 53.0167 123.791 52.9503C123.807 52.8839 123.837 52.8216 123.879 52.7674C123.917 52.7108 123.967 52.6629 124.025 52.6267C124.083 52.5906 124.148 52.567 124.215 52.5576L125.845 52.2892Z" fill="#8EC3B0"/>
<g opacity="0.2">
<path d="M123.327 41.6264C123.915 41.5321 124.513 41.5206 125.104 41.5922C125.668 41.6593 126.216 41.8244 126.724 42.0802C127.207 42.3309 127.633 42.68 127.973 43.105C128.279 43.5209 128.495 43.9964 128.605 44.5007C128.716 45.005 128.72 45.527 128.617 46.033C128.524 46.422 128.375 46.7952 128.173 47.1408C127.979 47.4768 127.753 47.7938 127.5 48.0875C127.251 48.3803 127.012 48.6584 126.792 48.9268C126.577 49.1769 126.386 49.4465 126.221 49.732C126.066 49.9823 125.988 50.2724 125.997 50.5665C125.992 50.704 125.954 50.8382 125.884 50.9569C125.849 51.0116 125.803 51.0582 125.748 51.0936C125.693 51.1289 125.632 51.1522 125.567 51.1619L124.103 51.3961C124.035 51.4085 123.965 51.4072 123.897 51.3921C123.829 51.377 123.765 51.3485 123.708 51.3083C123.65 51.272 123.602 51.2226 123.567 51.1641C123.532 51.1055 123.512 51.0395 123.508 50.9716C123.446 50.5174 123.48 50.0556 123.605 49.6149C123.72 49.2248 123.884 48.8509 124.093 48.5023C124.299 48.1677 124.534 47.8524 124.796 47.5604C125.055 47.2676 125.284 46.9944 125.509 46.7308C125.709 46.4955 125.883 46.2385 126.026 45.9647C126.153 45.729 126.199 45.4581 126.158 45.1936C126.121 44.9608 126.029 44.7403 125.888 44.5509C125.748 44.3614 125.564 44.2086 125.352 44.1054C124.828 43.852 124.234 43.7799 123.664 43.9004C123.148 43.9759 122.668 44.2092 122.289 44.5683C121.911 44.9273 121.653 45.3946 121.551 45.9061C121.522 46.0291 121.473 46.1463 121.405 46.2526C121.317 46.3452 121.199 46.4026 121.073 46.4136L119.531 46.6625C119.422 46.6833 119.31 46.6605 119.218 46.5991C119.171 46.5668 119.132 46.5248 119.102 46.476C119.073 46.4272 119.054 46.3727 119.047 46.316C119.002 45.8318 119.077 45.3437 119.267 44.896C119.46 44.3749 119.744 43.8924 120.106 43.471C120.503 43.0096 120.971 42.6142 121.492 42.2998C122.055 41.9588 122.678 41.7301 123.327 41.6264ZM125.845 52.2892C125.913 52.2785 125.981 52.2812 126.047 52.2971C126.113 52.313 126.176 52.3418 126.231 52.3819C126.288 52.4197 126.337 52.4692 126.374 52.5273C126.411 52.5853 126.436 52.6505 126.446 52.7186L126.719 54.3924C126.74 54.5282 126.707 54.6669 126.626 54.7783C126.546 54.8898 126.425 54.965 126.289 54.9878L124.655 55.2562C124.519 55.2772 124.38 55.2439 124.269 55.1635C124.212 55.1252 124.165 55.0754 124.128 55.0174C124.092 54.9594 124.069 54.8944 124.059 54.8268L123.786 53.1529C123.774 53.0857 123.775 53.0167 123.791 52.9503C123.807 52.8839 123.837 52.8216 123.879 52.7674C123.917 52.7108 123.967 52.6629 124.025 52.6267C124.083 52.5906 124.148 52.567 124.215 52.5576L125.845 52.2892Z" fill="black"/>
</g>
<path d="M137.128 44.2566C137.195 44.3029 137.251 44.3622 137.294 44.4311C137.337 44.4999 137.365 44.5767 137.377 44.6568C137.392 44.7362 137.391 44.8179 137.374 44.8969C137.356 44.9758 137.322 45.0503 137.274 45.1155L136.113 46.7503C136.067 46.8169 136.007 46.8733 135.939 46.916C135.87 46.9588 135.793 46.9871 135.713 46.9992C135.633 47.0147 135.552 47.0136 135.473 46.996C135.394 46.9784 135.319 46.9446 135.254 46.8967L133.653 45.7597C133.587 45.714 133.531 45.6548 133.488 45.5858C133.446 45.5168 133.419 45.4397 133.409 45.3595C133.394 45.2801 133.395 45.1984 133.413 45.1194C133.43 45.0405 133.464 44.966 133.512 44.9008L134.688 43.266C134.783 43.1335 134.927 43.0438 135.087 43.0164C135.248 42.989 135.413 43.0261 135.547 43.1196L137.128 44.2566ZM143.882 33.1839C144.466 33.5929 144.985 34.0863 145.424 34.6479C145.852 35.1703 146.183 35.7654 146.4 36.4047C146.603 37.0174 146.671 37.6665 146.6 38.3079C146.517 38.9919 146.258 39.6427 145.849 40.1965C145.544 40.6443 145.152 41.026 144.697 41.3189C144.296 41.5702 143.86 41.7609 143.404 41.885C142.959 42.0012 142.505 42.0796 142.047 42.1192L140.749 42.2363C140.36 42.2674 139.974 42.3344 139.597 42.4364C139.25 42.5153 138.931 42.6913 138.68 42.9439C138.566 43.0593 138.423 43.1405 138.265 43.1782C138.19 43.1997 138.111 43.2029 138.035 43.1876C137.958 43.1723 137.887 43.139 137.826 43.0903L136.411 42.085C136.275 41.9885 136.183 41.8433 136.152 41.68C136.134 41.6009 136.134 41.5185 136.154 41.4397C136.173 41.3608 136.211 41.2877 136.264 41.2262C136.595 40.7972 137.008 40.4388 137.479 40.1721C137.904 39.9403 138.357 39.7648 138.826 39.6499C139.28 39.5399 139.742 39.4697 140.207 39.4401C140.666 39.4108 141.095 39.3766 141.496 39.3376C141.862 39.3053 142.223 39.2333 142.574 39.1229C142.881 39.0207 143.145 38.82 143.326 38.5519C143.489 38.3256 143.595 38.0632 143.635 37.787C143.675 37.5109 143.647 37.2292 143.555 36.9659C143.324 36.3155 142.883 35.7608 142.301 35.3897C141.247 34.6382 140.097 34.6138 138.851 35.3165C138.725 35.3963 138.586 35.4525 138.441 35.4824C138.365 35.4877 138.289 35.4779 138.217 35.4536C138.145 35.4293 138.078 35.391 138.021 35.3409L136.518 34.2722C136.464 34.236 136.417 34.1893 136.381 34.1349C136.345 34.0804 136.32 34.0192 136.308 33.955C136.296 33.8886 136.299 33.8204 136.315 33.7549C136.331 33.6894 136.36 33.6279 136.401 33.5743C136.756 33.12 137.216 32.7597 137.743 32.5251C138.341 32.2541 138.982 32.089 139.636 32.0371C140.357 31.9769 141.082 32.0346 141.784 32.2079C142.541 32.3904 143.254 32.7222 143.882 33.1839Z" fill="#8EC3B0"/>
<g opacity="0.6">
<path d="M137.128 44.2566C137.195 44.3029 137.251 44.3622 137.294 44.4311C137.337 44.4999 137.365 44.5767 137.377 44.6568C137.392 44.7362 137.391 44.8179 137.374 44.8969C137.356 44.9758 137.322 45.0503 137.274 45.1155L136.113 46.7503C136.067 46.8169 136.007 46.8733 135.939 46.916C135.87 46.9588 135.793 46.9871 135.713 46.9992C135.633 47.0147 135.552 47.0136 135.473 46.996C135.394 46.9784 135.319 46.9446 135.254 46.8967L133.653 45.7597C133.587 45.714 133.531 45.6548 133.488 45.5858C133.446 45.5168 133.419 45.4397 133.409 45.3595C133.394 45.2801 133.395 45.1984 133.413 45.1194C133.43 45.0405 133.464 44.966 133.512 44.9008L134.688 43.266C134.783 43.1335 134.927 43.0438 135.087 43.0164C135.248 42.989 135.413 43.0261 135.547 43.1196L137.128 44.2566ZM143.882 33.1839C144.466 33.5929 144.985 34.0863 145.424 34.6479C145.852 35.1703 146.183 35.7654 146.4 36.4047C146.603 37.0174 146.671 37.6665 146.6 38.3079C146.517 38.9919 146.258 39.6427 145.849 40.1965C145.544 40.6443 145.152 41.026 144.697 41.3189C144.296 41.5702 143.86 41.7609 143.404 41.885C142.959 42.0012 142.505 42.0796 142.047 42.1192L140.749 42.2363C140.36 42.2674 139.974 42.3344 139.597 42.4364C139.25 42.5153 138.931 42.6913 138.68 42.9439C138.566 43.0593 138.423 43.1405 138.265 43.1782C138.19 43.1997 138.111 43.2029 138.035 43.1876C137.958 43.1723 137.887 43.139 137.826 43.0903L136.411 42.085C136.275 41.9885 136.183 41.8433 136.152 41.68C136.134 41.6009 136.134 41.5185 136.154 41.4397C136.173 41.3608 136.211 41.2877 136.264 41.2262C136.595 40.7972 137.008 40.4388 137.479 40.1721C137.904 39.9403 138.357 39.7648 138.826 39.6499C139.28 39.5399 139.742 39.4697 140.207 39.4401C140.666 39.4108 141.095 39.3766 141.496 39.3376C141.862 39.3053 142.223 39.2333 142.574 39.1229C142.881 39.0207 143.145 38.82 143.326 38.5519C143.489 38.3256 143.595 38.0632 143.635 37.787C143.675 37.5109 143.647 37.2292 143.555 36.9659C143.324 36.3155 142.883 35.7608 142.301 35.3897C141.247 34.6382 140.097 34.6138 138.851 35.3165C138.725 35.3963 138.586 35.4525 138.441 35.4824C138.365 35.4877 138.289 35.4779 138.217 35.4536C138.145 35.4293 138.078 35.391 138.021 35.3409L136.518 34.2722C136.464 34.236 136.417 34.1893 136.381 34.1349C136.345 34.0804 136.32 34.0192 136.308 33.955C136.296 33.8886 136.299 33.8204 136.315 33.7549C136.331 33.6894 136.36 33.6279 136.401 33.5743C136.756 33.12 137.216 32.7597 137.743 32.5251C138.341 32.2541 138.982 32.089 139.636 32.0371C140.357 31.9769 141.082 32.0346 141.784 32.2079C142.541 32.3904 143.254 32.7222 143.882 33.1839Z" fill="white"/>
</g>
<path d="M100.787 87.4544H83.448V45.4474C83.448 41.7989 84.8974 38.2998 87.4772 35.7199C90.0571 33.14 93.5562 31.6907 97.2047 31.6907H98.8054C102.454 31.6907 105.953 33.14 108.533 35.7199C111.113 38.2998 112.562 41.7989 112.562 45.4474V75.7034C112.556 78.8222 111.312 81.8111 109.105 84.0141C106.897 86.2172 103.905 87.4544 100.787 87.4544Z" fill="#263238"/>
<path d="M81.7595 188.583C81.4528 190.323 81.2896 192.086 81.2715 193.853C81.2081 197.054 80.6225 198.191 80.5444 200.817C80.4517 203.818 80.9738 204.941 82.1889 206.629C83.4041 208.317 86.581 209.845 87.9571 206.995C89.3333 204.145 89.1332 202.276 88.6989 199.333C88.2548 196.288 88.2109 194.605 87.9376 192.287C87.7131 190.242 87.4496 188.685 87.4496 188.685L81.7595 188.583Z" fill="#263238"/>
<path d="M90.8461 167.321L80.3053 167.13C80.4615 174.167 81.579 181.98 81.7693 188.602C81.8083 189.847 81.74 198.26 82.2085 200.802C82.9161 204.648 87.474 204.126 87.718 201.827C87.962 199.529 87.4252 189.705 87.4399 188.69C87.3959 184.454 89.3919 177.305 90.4215 169.702C90.4655 169.336 90.7973 167.687 90.8461 167.321Z" fill="#FFA8A7"/>
<path d="M104.388 183.107C104.388 183.107 103.973 182.883 103.9 183.327C103.798 183.854 103.641 184.942 103.412 185.811C103.11 187.016 102.856 189.002 103.036 189.988C103.217 190.974 105.51 192.233 106.999 192.692C108.833 193.258 110.506 194.253 111.879 195.595C113.343 196.981 116.53 198.289 118.711 198.274C121.273 198.274 123.059 197.42 123.903 196.049C124.747 194.678 123.132 194.512 120.204 192.633L117.935 191.169C113.294 188.139 111.591 186.519 110.288 183.488L104.388 183.107Z" fill="#263238"/>
<path d="M110.327 181.229C110.249 179.052 111.752 160.552 111.752 160.552L101.743 165.115C103.885 177.91 104.344 180.931 104.378 183.024C104.334 183.2 104.316 183.381 104.325 183.561C104.325 186.045 107.14 187.387 109.327 189.046C111.185 190.502 113.166 191.795 115.246 192.911C116.837 193.707 120.067 193.78 120.468 192.76C117.803 190.725 113.928 187.68 111.81 185.357C110.776 184.264 110.405 183.41 110.327 181.229Z" fill="#FFA8A7"/>
<path d="M84.6241 98.6541C80.7786 107.092 80.7786 113.621 81.4179 124.391C81.984 134.273 82.9258 142.984 82.9258 142.984C82.7794 144.736 80.3443 148.157 80.0271 155.906C79.7343 163.148 80.5151 172.357 80.5151 172.357C80.5151 172.357 85.9856 175.387 90.0311 172.327C90.0311 172.327 93.9351 153.691 95.077 144.624C96.053 136.713 97.8098 126.607 97.8098 126.607L101.504 144.57C100.707 147.119 100.129 149.731 99.7765 152.378C99.2592 157.712 102.246 168.184 102.246 168.184C102.246 168.184 107.897 169.868 111.347 166.808C111.347 166.808 112.635 149.782 113.118 143.36C113.763 134.756 112.406 111.469 111.347 99.1372L84.6241 98.6541Z" fill="#455A64"/>
<path d="M97.8196 126.592L99.3373 113.055C99.3373 113.055 106.14 112.147 109.224 109.249C108.341 110.63 107.165 111.799 105.78 112.675C104.394 113.55 102.833 114.11 101.206 114.314L99.0103 126.909L101.504 144.57L97.8196 126.592Z" fill="#263238"/>
<path d="M125.367 95.3259C125.648 92.8556 125.772 90.37 125.738 87.8839C125.587 85.7367 125.201 85.3854 122.2 81.5839C118.15 76.4452 114.69 71.8239 111.03 67.2318C108.414 63.9524 105.662 63.4498 102.988 63.5962C101.114 63.6987 104.774 72.712 106.613 78.0459L117.12 89.3577C117.445 89.8041 117.595 90.3549 117.54 90.9047L116.905 100.528L120.053 104.744C120.053 104.744 124.821 100.635 125.367 95.3259Z" fill="#FFA8A7"/>
<path d="M92.8566 63.889C90.8217 64.0305 87.1226 64.377 87.1226 64.377C84.9901 65.5677 84.4484 66.5486 84.0531 69.379C83.8823 70.5892 84.8681 73.8052 85.7123 78.3777L87.3129 86.8543L87.1373 91.0608C86.3077 93.6277 84.4289 96.8144 82.7697 101.514C90.9193 106.062 97.7513 106.233 103.949 105.418C108.673 104.808 111.176 103.666 112.011 102.534C111.835 97.8928 111.523 95.0234 111.425 90.1727C111.391 88.1377 111.513 86.0784 111.596 83.736C114.763 81.13 114.802 76.7966 113.06 73.976C109.044 67.4709 105.135 63.3766 102.548 63.5864L92.8566 63.889Z" fill="#8EC3B0"/>
<path opacity="0.6" d="M92.8566 63.889C90.8217 64.0305 87.1226 64.377 87.1226 64.377C84.9901 65.5677 84.4484 66.5486 84.0531 69.379C83.8823 70.5892 84.8681 73.8052 85.7123 78.3777L87.3129 86.8543L87.1373 91.0608C86.3077 93.6277 84.4289 96.8144 82.7697 101.514C90.9193 106.062 97.7513 106.233 103.949 105.418C108.673 104.808 111.176 103.666 112.011 102.534C111.835 97.8928 111.523 95.0234 111.425 90.1727C111.391 88.1377 111.513 86.0784 111.596 83.736C114.763 81.13 114.802 76.7966 113.06 73.976C109.044 67.4709 105.135 63.3766 102.548 63.5864L92.8566 63.889Z" fill="white"/>
<path opacity="0.1" d="M105.286 83.7993C105.286 83.7993 101.567 86.6883 97.3169 85.1803C96.1233 84.8042 95.047 84.1265 94.1921 83.2126C93.3372 82.2987 92.7326 81.1796 92.4369 79.9636C92.4369 79.9636 91.9879 84.8192 97.3413 86.4735C102.529 88.0693 105.286 83.7993 105.286 83.7993Z" fill="black"/>
<path d="M110.332 50.5616C110.171 57.6083 107.892 59.3456 106.74 59.8336C105.589 60.3216 103.383 60.0288 101.236 59.6726V63.9279C101.236 63.9279 103.715 66.5241 103.529 68.4615C103.344 70.3988 99.6251 70.6184 96.8533 68.7201C95.3239 67.6695 93.9405 66.4208 92.7395 65.0064C92.5088 64.7336 92.3826 64.3877 92.3832 64.0304V54.0752C92.3832 54.0752 91.2071 55.3196 89.1283 53.8947C88.6797 53.6084 88.2956 53.2319 88.0004 52.7892C87.7052 52.3465 87.5054 51.8472 87.4136 51.323C87.3218 50.7989 87.3401 50.2614 87.4672 49.7447C87.5944 49.228 87.8277 48.7434 88.1523 48.3217C89.0599 47.253 91.3633 47.1798 92.4662 48.8097C93.0908 50.0248 93.1738 51.2497 93.8716 50.7617C95.726 49.4246 94.7305 46.3697 96.9704 44.9057C97.7054 44.5221 98.469 44.1958 99.2543 43.9297C103.251 42.5487 106.716 41.3872 107.55 38.6544C109.122 39.5523 110.527 42.251 110.332 50.5616Z" fill="#FFA8A7"/>
<path d="M102.451 56.8568C102.963 56.8568 103.378 56.4417 103.378 55.9296C103.378 55.4176 102.963 55.0024 102.451 55.0024C101.939 55.0024 101.523 55.4176 101.523 55.9296C101.523 56.4417 101.939 56.8568 102.451 56.8568Z" fill="#B16668"/>
<path d="M101.836 49.493C101.836 49.6839 101.779 49.8705 101.674 50.0298C101.569 50.1891 101.419 50.314 101.244 50.3891C101.068 50.4642 100.874 50.4861 100.687 50.4523C100.499 50.4184 100.325 50.3302 100.187 50.1985C100.048 50.0668 99.9518 49.8975 99.9089 49.7115C99.8659 49.5255 99.8784 49.331 99.9448 49.152C100.011 48.9731 100.129 48.8175 100.283 48.7046C100.437 48.5918 100.62 48.5265 100.811 48.517C100.943 48.5103 101.075 48.5307 101.199 48.5768C101.324 48.6228 101.437 48.6937 101.533 48.785C101.629 48.8763 101.705 48.9861 101.757 49.1078C101.809 49.2296 101.836 49.3606 101.836 49.493Z" fill="#263238"/>
<path d="M109.229 49.5906C109.239 49.71 109.225 49.8302 109.188 49.9441C109.151 50.0581 109.092 50.1636 109.014 50.2544C108.936 50.3453 108.84 50.4197 108.733 50.4733C108.626 50.5268 108.509 50.5586 108.39 50.5666C108.269 50.5777 108.147 50.5631 108.033 50.5236C107.918 50.4841 107.814 50.4208 107.725 50.3377C107.637 50.2546 107.568 50.1537 107.522 50.0417C107.475 49.9298 107.454 49.8092 107.458 49.6882C107.445 49.5679 107.457 49.4463 107.493 49.3309C107.529 49.2154 107.588 49.1086 107.667 49.0169C107.746 48.9251 107.843 48.8505 107.951 48.7974C108.06 48.7444 108.179 48.7141 108.299 48.7085C108.42 48.7028 108.541 48.7219 108.654 48.7645C108.767 48.8072 108.87 48.8725 108.958 48.9564C109.045 49.0404 109.114 49.1412 109.16 49.2528C109.207 49.3644 109.23 49.4843 109.229 49.6052V49.5906Z" fill="#263238"/>
<path d="M100.582 52.0012C99.7399 52.0012 98.9326 51.6672 98.337 51.0724C97.7414 50.4777 97.4061 49.6709 97.4048 48.8292C97.4048 46.6722 99.6301 46.6722 100.582 46.6722C101.533 46.6722 103.754 46.6722 103.754 48.8292C103.752 49.6701 103.418 50.4761 102.823 51.0707C102.229 51.6653 101.423 51.9999 100.582 52.0012ZM100.582 47.17C98.6297 47.17 97.9074 47.658 97.9074 48.8292C97.9074 49.541 98.1902 50.2237 98.6935 50.7271C99.1969 51.2304 99.8796 51.5132 100.591 51.5132C101.303 51.5132 101.986 51.2304 102.489 50.7271C102.993 50.2237 103.275 49.541 103.275 48.8292C103.256 47.6336 102.504 47.17 100.582 47.17Z" fill="#455A64"/>
<path d="M108.639 52.0012C107.797 52.0012 106.99 51.6672 106.394 51.0724C105.798 50.4777 105.463 49.6709 105.462 48.8292C105.462 46.6722 107.687 46.6722 108.639 46.6722C109.59 46.6722 111.811 46.6722 111.811 48.8292C111.809 49.6701 111.475 50.4761 110.88 51.0707C110.285 51.6653 109.479 51.9999 108.639 52.0012ZM108.639 47.17C106.716 47.17 105.964 47.658 105.964 48.8292C105.964 49.541 106.247 50.2237 106.75 50.7271C107.254 51.2304 107.936 51.5132 108.648 51.5132C109.36 51.5132 110.043 51.2304 110.546 50.7271C111.05 50.2237 111.332 49.541 111.332 48.8292C111.313 47.6336 110.561 47.17 108.639 47.17Z" fill="#455A64"/>
<path d="M104.246 47.8044L104.403 53.7336L107.521 52.7674L104.246 47.8044Z" fill="#F28F8F"/>
<path d="M101.231 59.6872C98.9664 59.3895 94.306 58.0524 93.5789 56.2078C93.8715 57.14 94.4419 57.9607 95.2137 58.5599C96.6045 59.7555 101.231 61.0975 101.231 61.0975V59.6872Z" fill="#F28F8F"/>
<path d="M101.343 44.9253L99.2738 46.1892C99.1108 45.9051 99.0634 45.5692 99.1415 45.2511C99.2197 44.933 99.4174 44.6573 99.6935 44.4812C99.83 44.3983 99.9819 44.344 100.14 44.3216C100.298 44.2991 100.459 44.3089 100.613 44.3504C100.767 44.3919 100.912 44.4643 101.037 44.5631C101.162 44.6619 101.266 44.7851 101.343 44.9253Z" fill="#263238"/>
<path d="M109.761 46.3307L107.458 45.5255C107.502 45.3728 107.577 45.2309 107.679 45.1085C107.78 44.986 107.906 44.8856 108.047 44.8133C108.189 44.7411 108.344 44.6987 108.503 44.6885C108.662 44.6784 108.821 44.7008 108.97 44.7545C109.279 44.8655 109.534 45.0911 109.681 45.3845C109.828 45.6779 109.857 46.0167 109.761 46.3307Z" fill="#263238"/>
<path d="M103.505 49.083C103.472 49.083 103.439 49.0764 103.408 49.0636C103.378 49.0508 103.35 49.032 103.327 49.0084C103.304 48.9847 103.286 48.9567 103.273 48.9259C103.261 48.8952 103.255 48.8623 103.256 48.8292C103.256 48.4242 104.056 48.1606 104.778 48.1606C105.501 48.1606 105.964 48.4242 105.964 48.8292C105.949 48.8822 105.917 48.9289 105.873 48.9621C105.829 48.9953 105.775 49.0133 105.72 49.0133C105.665 49.0133 105.612 48.9953 105.567 48.9621C105.523 48.9289 105.491 48.8822 105.476 48.8292C105.476 48.7804 105.227 48.6584 104.793 48.6584C104.443 48.651 104.096 48.7106 103.768 48.8341C103.768 48.868 103.761 48.9016 103.748 48.9328C103.735 48.964 103.715 48.9921 103.69 49.0155C103.666 49.0388 103.636 49.0568 103.605 49.0684C103.573 49.08 103.539 49.085 103.505 49.083Z" fill="#455A64"/>
<path d="M97.6634 48.8683H97.6341L92.0562 48.3803C91.7956 48.1219 91.4851 47.9194 91.1437 47.7849L97.6926 48.39C97.7583 48.3986 97.818 48.4325 97.859 48.4844C97.9001 48.5364 97.9192 48.6023 97.9122 48.6682C97.9008 48.7254 97.8696 48.7768 97.8241 48.8134C97.7786 48.85 97.7217 48.8694 97.6634 48.8683Z" fill="#455A64"/>
<path d="M74.7616 54.6853C76.5867 52.2453 77.8311 50.4055 79.4952 48.3413C80.4419 47.1554 81.047 46.3063 81.9352 45.0912C82.5598 44.2518 82.9112 43.5442 83.6236 43.2856C84.3934 42.9702 85.0871 42.4944 85.6586 41.8899C86.0099 41.5013 86.3359 41.0905 86.6346 40.6601C87.6805 39.2523 88.9229 38.0017 90.3239 36.9465C91.7879 35.8436 93.4227 34.9945 94.9306 33.9453C95.8285 33.3157 96.7899 32.2714 95.6968 31.2954C95.3615 31.0131 94.9603 30.82 94.5304 30.7342C91.8708 30.1584 89.5577 31.0709 86.9567 31.7346C85.8269 32.0166 84.7219 32.3904 83.6529 32.8521C83.1271 33.0601 82.634 33.3428 82.1889 33.6915C81.5666 34.3189 81.0566 35.0485 80.681 35.8485C79.544 37.8785 77.104 39.6939 75.396 41.2994C73.4 43.1782 71.614 44.9009 69.335 46.97C67.2854 48.839 65.2797 50.5568 63.4009 52.5966C61.8442 54.2802 62.4249 55.5978 62.6299 56.0565C63.8987 58.6625 65.3188 59.5994 67.0219 61.2147C69.9499 64.0109 80.0759 72.0581 83.4284 74.7177C84.1488 75.2834 84.7144 76.022 85.073 76.8648L85.7172 78.3533C89.5431 79.056 92.0953 73.3122 88.9282 66.3973C88.4037 65.2791 87.6025 64.3132 86.6004 63.5913C82.5988 60.6779 74.7616 54.6853 74.7616 54.6853Z" fill="#FFA8A7"/>
<path d="M74.7616 54.6853C73.5438 56.1834 71.921 57.2997 70.0865 57.9012C70.0865 57.9012 72.5266 58.5259 75.8694 55.5247L74.7616 54.6853Z" fill="#F28F8F"/>
<path d="M124.372 90.2361L123.747 89.6993C123.654 89.6378 123.547 89.5991 123.436 89.5864C123.325 89.5737 123.213 89.5873 123.108 89.6261L116.329 91.4707C115.988 91.5846 115.675 91.7708 115.412 92.0168C115.15 92.2627 114.943 92.5625 114.807 92.8957L109.927 106.965C109.868 107.079 109.845 107.209 109.861 107.337C109.876 107.465 109.93 107.585 110.015 107.682L110.659 108.238C110.753 108.303 110.861 108.344 110.974 108.358C111.087 108.371 111.202 108.357 111.308 108.316L118.096 106.472C118.437 106.358 118.75 106.172 119.013 105.926C119.276 105.68 119.482 105.38 119.619 105.047C120.595 102.28 123.523 93.7448 124.499 90.9778C124.616 90.6314 124.557 90.3679 124.372 90.2361Z" fill="#455A64"/>
<path d="M110.566 107.506L115.446 93.4373C115.582 93.1044 115.788 92.8049 116.051 92.5597C116.314 92.3145 116.627 92.1294 116.969 92.0173L123.742 90.1726C124.372 90.0018 124.718 90.3629 124.494 90.9778C123.518 93.7448 120.59 102.28 119.614 105.047C119.478 105.38 119.271 105.68 119.008 105.926C118.745 106.172 118.433 106.358 118.091 106.472L111.318 108.336C110.693 108.482 110.356 108.121 110.566 107.506Z" fill="#8EC3B0"/>
<path d="M116.232 92.4077C115.879 92.6746 115.606 93.0321 115.441 93.4422L110.561 107.506C110.505 107.618 110.482 107.743 110.494 107.868C110.506 107.992 110.553 108.11 110.63 108.209L110.024 107.692C109.938 107.596 109.882 107.476 109.866 107.348C109.849 107.219 109.872 107.089 109.932 106.974L114.812 92.9054C114.966 92.523 115.217 92.1868 115.539 91.9294L116.232 92.4077Z" fill="#37474F"/>
<path d="M122.512 96.6484C122.024 98.0782 120.331 99.0347 117.53 99.6984C114.729 100.362 113.182 103.334 113.626 104.237C114.07 105.14 118.599 105.984 120.409 105.725C122.22 105.467 124.035 102.851 124.586 102.041C125.138 101.231 125.772 95.5796 125.191 94.8037C124.611 94.0278 123.386 94.1498 123.386 94.1498L122.512 96.6484Z" fill="#F28F8F"/>
</svg>
