<svg width="138" height="147" viewBox="0 0 138 147" fill="none" xmlns="http://www.w3.org/2000/svg">
<mask id="mask0_240_383" style="mask-type:alpha" maskUnits="userSpaceOnUse" x="0" y="0" width="138" height="147">
<ellipse cx="69" cy="73.5" rx="69" ry="73.5" fill="#D9D9D9"/>
</mask>
<g mask="url(#mask0_240_383)">
<circle cx="69" cy="85" r="103" fill="#F4F4F4"/>
<path d="M57.6877 166.839C57.5243 166.832 57.361 166.724 57.3474 166.516C56.9414 160.281 56.6001 154.038 55.9929 147.818C55.8713 146.582 55.755 145.34 55.5515 144.113C55.3365 142.822 54.8597 141.607 54.3192 140.417C53.065 137.651 51.6032 134.892 49.8963 132.345C50.0971 133.149 50.289 133.954 50.4888 134.757C50.7874 135.957 51.2281 137.116 51.495 138.329C51.754 139.509 51.9611 140.696 52.1301 141.892C52.6371 145.498 52.7602 149.151 52.9515 152.784C53.1956 157.425 53.3859 162.071 53.5714 166.715C53.5888 167.15 52.915 167.148 52.8986 166.715C52.7137 162.123 52.5272 157.531 52.2855 152.942C52.0889 149.209 51.9799 145.447 51.4341 141.744C51.2423 140.444 51.0139 139.147 50.6958 137.871C50.4374 136.834 50.0597 135.829 49.8038 134.795C49.4723 133.451 49.1579 132.1 48.789 130.765C48.7874 130.763 48.7849 130.76 48.7834 130.758C46.932 132.124 39.1944 134.173 39.1944 134.173C39.1944 134.173 45.7229 117.52 46.3934 115.619C46.4346 115.567 46.4849 115.513 46.5441 115.457C36.1012 117.477 25.6593 118.512 21.4654 120.867C8.44579 128.179 6.13822 159.167 6.15784 163.42C6.1721 166.469 31.153 167.621 59.0225 167.656C58.5834 167.654 58.1427 167.654 57.6971 167.652C57.694 167.381 57.6909 167.11 57.6877 166.839Z" fill="#8EC3B0"/>
<path d="M115.677 121.7C110.969 119.767 103.551 116.764 91.7627 115.303C91.9058 115.414 92.0195 115.52 92.0986 115.619C92.7683 117.521 99.2961 134.173 99.2961 134.173C99.2961 134.173 91.5591 132.125 89.7069 130.758C89.7062 130.761 89.7047 130.762 89.703 130.765C89.3205 132.147 88.9986 133.546 88.6525 134.936C88.3533 136.137 87.9132 137.295 87.6463 138.509C87.3699 139.765 87.1425 141.032 86.9797 142.309C86.5279 145.835 86.3905 149.395 86.2056 152.943C85.9656 157.531 85.7775 162.123 85.5935 166.715C85.5761 167.148 84.9024 167.15 84.9197 166.715C85.1053 162.071 85.2924 157.426 85.5396 152.784C85.7331 149.151 85.855 145.498 86.3619 141.892C86.5443 140.59 86.7631 139.29 87.0696 138.01C87.3317 136.911 87.7313 135.85 88.0023 134.757C88.2015 133.953 88.395 133.145 88.5948 132.34C86.8423 134.945 85.3282 137.779 84.0801 140.622C83.0194 143.037 82.7297 145.395 82.4817 148.001C81.8941 154.161 81.5458 160.341 81.1443 166.516C81.131 166.714 80.9809 166.821 80.8261 166.837C80.8166 167.071 80.8096 167.285 80.8071 167.471C80.7068 167.474 80.6073 167.475 80.5079 167.477C95.7964 167.212 110.264 166.67 120.282 165.982C128.68 165.405 131.787 164.39 131.786 163.681C131.785 161.526 128.956 127.154 115.677 121.7Z" fill="#8EC3B0"/>
<path d="M90.6232 80.5917C92.6853 78.5381 94.2982 76.2321 95.5587 73.8425C94.9796 73.7691 94.4562 73.6396 93.9901 73.4553C93.1741 75.9801 92.0565 78.3979 90.6232 80.5917Z" fill="#4D4441"/>
<path d="M44.3239 73.5059C43.6827 73.7399 42.9443 73.8811 42.0958 73.9067C44.0817 78.4024 47.3458 82.5967 52.6305 85.3615C48.7817 82.3716 45.9393 78.3284 44.3239 73.5059Z" fill="#4D4441"/>
<path d="M43.7192 58.5068C46.4647 55.1946 47.721 50.9667 49.9532 47.3341C52.1804 43.7116 54.6795 40.2699 55.8633 36.1281C55.9833 35.7111 56.6327 35.8888 56.5133 36.3073C55.5922 39.5286 53.8904 42.3162 52.1385 45.1009C51.5973 46.2338 50.896 47.2552 50.3828 48.3884C50.4743 48.4559 50.5683 48.5116 50.664 48.5616C50.5519 48.3185 50.8362 47.9652 51.1497 48.1231C53.3936 49.2496 55.173 46.0781 55.9864 44.4773C56.9578 42.5693 57.7494 40.5072 58.2234 38.4155C58.3197 37.9918 58.9697 38.1717 58.874 38.5947C58.5406 40.0613 58.0628 41.5501 57.4577 42.9739C57.3614 43.5099 57.149 44.0745 57.0217 44.5311C56.797 45.3394 56.2391 46.0768 56.0487 46.8592C56.0376 46.9064 56.0323 46.9511 56.0282 46.9951C56.0946 46.9818 56.1672 46.9881 56.2416 47.0223C58.9073 48.236 60.6385 45.4436 61.5358 43.3378C62.4825 41.1157 63.0537 38.7277 63.4542 36.3512C63.5268 35.9235 64.1752 36.1055 64.1043 36.5304C63.7512 38.6227 62.9179 42.949 61.1581 45.653C61.0451 45.923 60.9324 46.1906 60.832 46.4651C60.8795 46.4379 60.9387 46.423 61.0112 46.4296C66.1497 46.8909 66.7912 39.2261 68.133 35.8009C68.2901 35.401 68.9417 35.5748 68.7831 35.9798C68.2793 37.2656 67.8652 39.0469 67.3086 40.8083C67.4144 40.6053 67.5312 40.4214 67.6654 40.2716C67.2918 41.3659 67.4561 42.7491 67.1078 43.9251C66.8527 44.7882 66.333 45.8078 66.2257 46.7373C66.2478 46.738 66.2707 46.7402 66.2944 46.7453C68.6726 47.2715 69.8178 44.7845 70.3896 42.9053C70.9345 41.1141 71.1099 39.2568 71.5744 37.4521C71.6824 37.0316 72.3318 37.2102 72.2235 37.6313C71.9454 38.7123 71.7213 40.3682 71.3335 42.0168C71.4218 42.721 71.5893 43.4454 71.8008 44.1145C71.9613 44.0761 72.1526 44.1354 72.2236 44.3335C72.7694 45.861 74.1594 46.9498 75.7913 46.9969C75.867 46.9998 75.9278 47.0226 75.9775 47.0581C75.7856 46.2852 75.8426 45.3373 75.7856 44.5603C75.7534 44.1274 75.7571 43.687 75.7328 43.2529C74.9447 41.1496 74.661 38.6005 74.1886 36.6678C74.0854 36.2461 74.7354 36.0668 74.8387 36.4886C75.7518 40.2269 75.7787 46.8624 81.1661 46.4825C81.1898 46.4809 81.2111 46.4822 81.2322 46.4847C81.0663 45.9341 81.0679 45.2179 80.9473 44.6805C80.7348 43.7401 80.3501 42.6953 79.9955 41.8044C80.1424 41.9238 80.2704 42.0681 80.384 42.2302C79.8327 39.9841 79.6181 37.4926 79.069 35.9798C78.9205 35.5704 79.5721 35.3956 79.7191 35.8009C80.4679 37.8672 80.5626 40.1294 81.1227 42.249C81.6754 44.3421 82.6982 46.8067 85.2967 46.4379C85.4271 46.4193 85.5335 46.468 85.6079 46.5449C85.5817 46.2204 85.5377 45.8971 85.4822 45.5744C88.1818 49.9812 91.6611 55.9593 93.3377 60.0726C95.137 58.0241 97.4155 56.7075 99.9256 56.5061C100.054 53.6714 99.8892 51.8473 99.8892 51.8473C99.8892 51.8473 100.364 24.2881 69.6526 24.2881C38.9408 24.2881 39.6918 51.8473 39.6918 51.8473C39.6918 51.8473 39.3498 53.7559 39.233 56.7034C40.9327 56.8087 42.4287 57.4872 43.7192 58.5068Z" fill="#4D4441"/>
<path d="M105.298 60.4231C104.867 59.1206 104.167 58.2064 103.306 57.6134C99.5386 56.3501 96.1257 57.8018 93.6371 60.7521C93.3565 61.0849 92.8828 60.6058 93.1615 60.2759C93.2191 60.2069 93.2793 60.1398 93.3376 60.0723C91.661 55.9591 88.1817 49.9809 85.4821 45.5741C85.5376 45.8967 85.5816 46.2201 85.6078 46.5446C85.776 46.72 85.7728 47.0449 85.4752 47.087C84.4018 47.2399 83.5494 47.0544 82.8646 46.6314C82.5866 46.5535 82.3396 46.4224 82.1506 46.2118C81.9597 45.9981 81.8039 45.7369 81.6696 45.4487C81.074 44.5739 80.6801 43.4378 80.3838 42.2299C80.2702 42.0678 80.1423 41.9235 79.9953 41.8041C80.3499 42.695 80.7346 43.7399 80.9471 44.6803C81.0677 45.2176 81.0661 45.9338 81.2321 46.4844C81.5978 46.5243 81.5734 47.1272 81.1659 47.1559C80.0159 47.237 79.0879 47.0357 78.3296 46.6301C78.076 46.5294 77.8439 46.3939 77.6479 46.2067C77.596 46.1564 77.546 46.1012 77.4963 46.0471C76.7009 45.3423 76.1474 44.3592 75.7327 43.2525C75.7571 43.6866 75.7533 44.1271 75.7855 44.5599C75.8425 45.3369 75.7855 46.2848 75.9774 47.0577C76.2114 47.2243 76.1506 47.6811 75.7912 47.6704C73.8449 47.6141 72.2235 46.3295 71.5744 44.5121C71.4994 44.3021 71.6327 44.1543 71.8008 44.1141C71.5894 43.4451 71.4218 42.7207 71.3335 42.0164C70.6163 45.0747 69.3385 48.1074 66.1152 47.3949C65.7147 47.3062 65.8527 46.7233 66.2257 46.737C66.333 45.8073 66.8526 44.7878 67.1078 43.9247C67.4561 42.7488 67.2918 41.3655 67.6654 40.2712C67.5312 40.421 67.4143 40.6049 67.3086 40.8079C66.563 43.1693 65.5621 45.4942 63.7497 46.5442C63.5791 46.6575 63.4084 46.7399 63.2355 46.7975C62.5924 47.0619 61.8579 47.1787 61.0113 47.1028C60.6535 47.0708 60.5927 46.5997 60.8321 46.4648C60.9324 46.1902 61.0452 45.9227 61.1582 45.6526C60.3438 46.9036 59.3322 47.8072 58.0765 47.982C57.9704 48.0184 57.8656 48.0456 57.7627 48.0548C57.4059 48.0868 56.9794 48.0279 56.6374 47.8724C56.3987 47.8068 56.1549 47.7186 55.9019 47.6039C55.5815 47.4579 55.7465 47.0498 56.0283 46.9946C56.0324 46.9506 56.0378 46.906 56.0489 46.8588C56.2392 46.0764 56.797 45.339 57.0219 44.5306C57.1491 44.074 57.3616 43.5095 57.4579 42.9735C57.0345 43.9683 56.553 44.9321 56.0072 45.8307C54.9348 47.5981 53.1084 49.8584 50.8101 48.7043C50.7367 48.6676 50.6901 48.6173 50.6641 48.5612C50.5685 48.5112 50.4745 48.4554 50.3829 48.388C50.8962 47.2548 51.5975 46.2334 52.1386 45.1005C51.5478 46.0392 50.9522 46.9777 50.3782 47.9324C48.2416 51.4868 46.9678 55.5395 44.3478 58.7948C44.3219 58.8543 44.2958 58.9142 44.2705 58.973C44.7553 59.4116 45.2103 59.896 45.6329 60.4149C45.9052 60.749 45.4316 61.2287 45.1567 60.8918C43.4758 58.8267 41.3196 57.2848 38.557 57.3621C38.1961 57.3719 38.1368 56.9083 38.3768 56.745C36.1164 56.6731 34.0558 57.7095 33.1576 60.4229C31.728 65.3464 35.9828 73.7977 41.6048 73.9101C41.7722 73.9133 41.9357 73.9111 42.0959 73.9063C42.9445 73.8807 43.6828 73.7394 44.324 73.5055C45.9394 78.328 48.7817 82.3713 52.6305 85.3612C54.4518 86.7762 56.4984 87.9553 58.7477 88.8693C58.8022 94.8415 58.9143 103.592 59.141 110.534C59.1425 110.584 59.1388 110.638 59.1331 110.693C59.1774 110.703 59.2002 110.721 59.2002 110.747L59.0732 111.934C59.2161 111.865 59.3953 111.884 59.4918 112.064C60.0171 113.05 61.3754 113.642 62.3532 114.04C63.9952 114.71 65.7518 115.147 67.5179 115.316C71.7965 115.722 76.1482 114.705 79.1446 111.461C79.2102 111.391 79.2836 111.361 79.3555 111.358L79.29 110.747C78.986 103.782 78.8296 95.5329 78.8194 90.0075C78.8178 90.0082 78.8163 90.0085 78.8147 90.0091C78.82 94.407 78.9188 100.526 79.1218 106.349C78.9068 105.751 78.764 104.967 78.5674 104.365C78.2333 103.347 77.7837 102.392 77.1758 101.464C76.5714 100.542 75.8821 99.6446 75.1522 98.7868C74.5244 98.0488 73.7946 97.3715 72.9834 96.7664C72.1706 96.1592 71.2701 95.6342 70.3247 95.177C69.2618 94.6634 68.1156 94.2895 66.9529 93.9622C65.7342 93.6195 64.4886 93.3413 63.2858 92.9639C62.0988 92.5915 60.9418 92.147 59.7206 91.85C59.404 91.7728 59.0732 91.6936 58.7746 91.5698C58.7641 90.6221 58.7546 89.7182 58.7476 88.8696C61.5057 89.9901 64.5662 90.7123 67.8889 90.9821C67.9427 90.9046 68.0294 90.8491 68.1526 90.8488C75.6015 90.8276 83.469 88.9893 88.4283 83.0216C88.5593 82.8645 88.7316 82.888 88.8506 82.9902C89.488 82.2278 90.0782 81.4258 90.6231 80.5915C92.0565 78.3976 93.1741 75.9799 93.9901 73.4551C94.4561 73.6393 94.9795 73.7689 95.5586 73.8423C95.9623 73.8933 96.3904 73.9192 96.8514 73.91C102.473 73.798 106.728 65.3466 105.298 60.4231Z" fill="#E7B9A1"/>
<path d="M81.8774 147.286C82.0474 145.613 82.2583 144.065 82.6901 142.529L79.4378 112.129C76.257 115.423 71.5713 116.511 67.112 115.945C65.2401 115.707 63.3768 115.259 61.6575 114.467C60.727 114.039 59.5811 113.475 59.0061 112.568L58.3842 118.374C62.3556 121.13 67.2588 121.932 72.0782 121.112C74.6371 120.677 77.279 119.938 79.5853 118.713C79.9685 118.509 80.3088 119.091 79.9257 119.295C77.3312 120.672 74.337 121.487 71.4446 121.883C66.7895 122.522 62.1511 121.678 58.3037 119.129L55.8844 141.75C55.9193 142.155 55.962 142.66 56.0117 143.247C56.3615 144.735 56.5148 146.25 56.6655 147.818C57.2667 154.039 57.615 160.281 58.0209 166.516C58.0352 166.741 57.8623 166.847 57.6876 166.839C57.6907 167.11 57.6939 167.381 57.697 167.652C58.1425 167.654 58.5833 167.654 59.0225 167.656C66.4207 167.667 73.0273 167.615 80.5079 167.477C80.6073 167.475 80.7067 167.474 80.8071 167.471C80.8096 167.285 80.8165 167.071 80.826 166.837C80.6443 166.856 80.4556 166.75 80.4698 166.516C80.4771 166.418 80.4831 166.321 80.4887 166.223C80.8943 159.909 81.2378 153.582 81.8774 147.286Z" fill="#E7DAD2"/>
<path d="M79.0459 57.1668C77.9602 60.9995 87.4677 61.1376 87.9449 58.4368C88.422 55.736 80.1329 53.3344 79.0459 57.1668Z" fill="#4D3A3C"/>
<path d="M49.8348 58.4368C50.3125 61.1376 59.8201 60.9995 58.7344 57.1668C57.6474 53.3344 49.3576 55.736 49.8348 58.4368Z" fill="#4D3A3C"/>
<path d="M68.1528 91.5229C67.8425 91.5239 67.7548 91.1791 67.889 90.9824C64.5664 90.7127 61.5059 89.9905 58.7478 88.8699C58.7548 89.7184 58.7643 90.6224 58.7747 91.5701C59.0733 91.6939 59.4042 91.773 59.7208 91.8503C60.942 92.1473 62.099 92.5918 63.2859 92.9642C64.4888 93.3416 65.7344 93.6199 66.9531 93.9624C68.1157 94.2898 69.2618 94.6637 70.3248 95.1773C71.2702 95.6345 72.1707 96.1594 72.9835 96.7667C73.7947 97.3718 74.5245 98.049 75.1524 98.7871C75.8822 99.6448 76.5715 100.542 77.176 101.464C77.7839 102.392 78.2335 103.348 78.5675 104.365C78.7642 104.967 78.907 105.751 79.1219 106.349C78.919 100.526 78.8202 94.4073 78.8148 90.0094C75.3978 91.0875 71.7252 91.5128 68.1528 91.5229Z" fill="#E5A58B"/>
<path d="M93.1213 68.115C92.3063 66.6199 90.9848 65.7818 89.5308 65.4826C85.776 64.7087 81.1428 67.5305 82.0946 71.9065C82.5157 73.8465 83.3598 75.9549 85.2998 76.6293C87.6605 77.3886 90.3601 77.1356 91.9625 75.1954C92.0802 75.0535 92.187 74.9034 92.2873 74.7489C93.419 73.0154 94.175 70.0473 93.1213 68.115Z" fill="#E5A58B"/>
<path d="M48.92 65.4826C47.4667 65.7817 46.1445 66.6198 45.3285 68.115C44.2751 70.0474 45.0309 73.0154 46.1628 74.7489C46.2638 74.9034 46.3706 75.0535 46.488 75.1954C48.0907 77.1357 50.7893 77.3887 53.1517 76.6293C55.0917 75.9549 55.9345 73.8465 56.3562 71.9065C57.3077 67.5305 52.6749 64.7087 48.92 65.4826Z" fill="#E5A58B"/>
<path d="M59.0068 112.049C55.8016 118.182 52.5958 124.316 49.39 130.45C49.4613 130.546 49.5322 130.641 49.6009 130.737C51.8258 133.872 53.7522 137.338 55.2489 140.877C55.4724 141.404 55.6551 141.933 55.808 142.466L55.8846 141.75L58.3039 119.129L58.3843 118.374L59.0062 112.568L59.0733 111.935L59.2003 110.747C59.2003 110.84 59.0866 111.14 58.882 111.601C59.0188 111.689 59.103 111.863 59.0068 112.049Z" fill="#BBCDB2"/>
<path d="M80.4637 113.965C80.3801 113.806 80.4314 113.656 80.5333 113.56C79.7766 112.009 79.2899 110.938 79.2899 110.747L79.3555 111.358L79.4378 112.129L82.6902 142.529C82.9005 141.781 83.1616 141.036 83.4989 140.282C85.0257 136.862 86.8801 133.451 89.113 130.435C86.23 124.945 83.3465 119.455 80.4637 113.965Z" fill="#BBCDB2"/>
<path d="M59.133 110.694C58.2281 110.491 48.3425 113.782 46.5441 115.457C46.4849 115.513 46.4345 115.567 46.3934 115.619C45.7228 117.521 39.1943 134.173 39.1943 134.173C39.1943 134.173 46.932 132.124 48.7833 130.758C48.763 130.73 48.7441 130.701 48.7225 130.673C48.6436 130.566 48.6436 130.46 48.6896 130.374C48.6956 130.342 48.706 130.307 48.7235 130.274C51.9569 124.085 55.1911 117.897 58.4249 111.709C58.5297 111.509 58.7351 111.505 58.8821 111.601C59.0866 111.14 59.2003 110.84 59.2003 110.747C59.2002 110.721 59.1774 110.704 59.133 110.694Z" fill="#78AA72"/>
<path d="M89.7069 130.758C91.5591 132.124 99.2961 134.173 99.2961 134.173C99.2961 134.173 92.7683 117.52 92.0987 115.619C92.0195 115.52 91.9058 115.414 91.7627 115.303C89.4542 113.502 79.2899 110.186 79.2899 110.747C79.2899 110.938 79.7766 112.009 80.5333 113.56C80.6786 113.424 80.9266 113.399 81.045 113.624C83.9595 119.175 86.8737 124.724 89.7892 130.273C89.8221 130.337 89.8326 130.398 89.8284 130.456C89.8395 130.523 89.8237 130.598 89.7686 130.673C89.748 130.701 89.7274 130.73 89.7069 130.758Z" fill="#78AA72"/>
<path d="M51.1497 48.123C50.8362 47.965 50.5519 48.3183 50.664 48.5615C50.6899 48.6175 50.7365 48.6679 50.81 48.7046C53.1084 49.8587 54.9346 47.5984 56.007 45.831C56.5528 44.9324 57.0345 43.9686 57.4577 42.9738C58.0628 41.5499 58.5405 40.0611 58.874 38.5946C58.9697 38.1716 58.3196 37.9917 58.2234 38.4154C57.7494 40.507 56.9579 42.5691 55.9864 44.4771C55.173 46.078 53.3936 49.2495 51.1497 48.123Z" fill="#3D1C10"/>
<path d="M56.2416 47.0221C56.1672 46.9878 56.0947 46.9815 56.0282 46.9948C55.7464 47.0499 55.5814 47.4581 55.9018 47.604C56.1548 47.7186 56.3986 47.807 56.6373 47.8726C57.149 48.0138 57.6284 48.0445 58.0764 47.9822C59.3321 47.8074 60.3438 46.9037 61.1581 45.6528C62.9179 42.9488 63.7512 38.6225 64.1043 36.5302C64.1752 36.1053 63.5267 35.9233 63.4542 36.351C63.0537 38.7276 62.4825 41.1155 61.5358 43.3376C60.6386 45.4433 58.9072 48.2357 56.2416 47.0221Z" fill="#3D1C10"/>
<path d="M61.0113 46.4294C60.9388 46.4228 60.8796 46.4377 60.8321 46.4649C60.5927 46.5998 60.6535 47.071 61.0113 47.1029C61.8579 47.1789 62.5925 47.0621 63.2355 46.7977C63.4131 46.7242 63.5845 46.6397 63.7498 46.5444C65.5621 45.4944 66.563 43.1694 67.3086 40.8081C67.8652 39.0467 68.2794 37.2654 68.7831 35.9796C68.9417 35.5746 68.2901 35.4007 68.133 35.8007C66.7913 39.2258 66.1498 46.8907 61.0113 46.4294Z" fill="#3D1C10"/>
<path d="M66.2945 46.7452C66.2707 46.7401 66.2479 46.7379 66.2257 46.7372C65.8527 46.7236 65.7147 47.3065 66.1152 47.3952C69.3385 48.1076 70.6163 45.0749 71.3335 42.0167C71.7214 40.368 71.9456 38.7121 72.2235 37.6312C72.3318 37.2101 71.6824 37.0315 71.5744 37.452C71.11 39.2568 70.9345 41.1141 70.3896 42.9052C69.8179 44.7844 68.6726 47.2714 66.2945 46.7452Z" fill="#3D1C10"/>
<path d="M71.8009 44.1143C71.6328 44.1545 71.4995 44.3023 71.5745 44.5123C72.2236 46.3297 73.8451 47.6143 75.7913 47.6706C76.1507 47.6814 76.2115 47.2245 75.9775 47.0579C75.9278 47.0224 75.867 46.9996 75.7913 46.9968C74.1594 46.9496 72.7695 45.8607 72.2235 44.3334C72.1527 44.1352 71.9614 44.0759 71.8009 44.1143Z" fill="#3D1C10"/>
<path d="M75.7327 43.2527C76.1475 44.3593 76.7009 45.3424 77.4963 46.0473C77.7493 46.2715 78.0263 46.4671 78.3296 46.6301C79.0879 47.0357 80.016 47.2371 81.1659 47.156C81.5734 47.1272 81.5978 46.5244 81.2321 46.4845C81.2108 46.482 81.1897 46.4807 81.1659 46.4823C75.7786 46.8623 75.7517 40.2267 74.8385 36.4884C74.7353 36.0666 74.0852 36.2459 74.1884 36.6676C74.6609 38.6003 74.9446 41.1494 75.7327 43.2527Z" fill="#3D1C10"/>
<path d="M80.3838 42.2302C80.6801 43.4381 81.0741 44.5741 81.6696 45.449C81.9998 45.9347 82.3925 46.3399 82.8645 46.6316C83.5494 47.0546 84.4017 47.2401 85.4751 47.0872C85.7727 47.045 85.7759 46.7202 85.6078 46.5448C85.5334 46.4679 85.427 46.4191 85.2965 46.4379C82.6979 46.8067 81.6753 44.3422 81.1225 42.2489C80.5624 40.1295 80.4677 37.8671 79.7189 35.8008C79.572 35.3956 78.9204 35.5703 79.0688 35.9797C79.6179 37.4926 79.8326 39.984 80.3838 42.2302Z" fill="#3D1C10"/>
<path d="M95.5926 65.0014C95.5698 65.3449 95.5413 65.6891 95.5081 66.0334C97.3137 64.0088 99.6634 62.3602 101.461 64.4503C101.745 64.7801 102.219 64.3011 101.937 63.9737C99.9937 61.7132 97.5585 63.0374 95.5926 65.0014Z" fill="#3D1C10"/>
<path d="M37.1438 63.6107C36.8478 63.9276 37.323 64.4048 37.62 64.0872C38.2694 63.3945 39.0527 62.798 40.052 62.9784C40.8616 63.1247 41.5224 63.7665 42.0619 64.3418C42.333 64.6308 42.5825 64.9395 42.8225 65.2561C42.807 64.906 42.7949 64.5532 42.7896 64.198C41.1916 62.3746 39.2494 61.3621 37.1438 63.6107Z" fill="#3D1C10"/>
<path d="M44.2704 58.9734C44.2568 58.9617 44.245 58.9493 44.2317 58.9379C44.271 58.8904 44.3083 58.8429 44.3477 58.7951C46.9677 55.5399 48.2415 51.4871 50.378 47.9327C50.9521 46.9781 51.5477 46.0396 52.1385 45.1008C53.8903 42.3161 55.5922 39.5285 56.5133 36.3072C56.6327 35.8886 55.9833 35.711 55.8633 36.128C54.6794 40.2698 52.1803 43.7115 49.9532 47.3339C47.721 50.9665 46.4647 55.1944 43.7192 58.5066C42.4287 57.4871 40.9326 56.8086 39.233 56.7031C39.011 56.6895 38.7868 56.6819 38.557 56.6885C38.4841 56.6904 38.4249 56.7123 38.3768 56.7452C38.1368 56.9086 38.1959 57.3721 38.557 57.3623C41.3195 57.285 43.4757 58.827 45.1567 60.892C45.4315 61.2289 45.9051 60.7492 45.6329 60.4152C45.2102 59.8964 44.7552 59.412 44.2704 58.9734Z" fill="#3D1C10"/>
<path d="M103.536 56.9799C102.299 56.5575 101.087 56.4125 99.9256 56.5059C97.4154 56.7072 95.137 58.0238 93.3376 60.0724C93.2794 60.1398 93.2192 60.2069 93.1616 60.276C92.8829 60.6059 93.3566 61.0849 93.6371 60.7522C96.1258 57.8019 99.5387 56.3501 103.306 57.6134C103.323 57.6188 103.34 57.6236 103.357 57.6293C103.769 57.7702 103.944 57.1192 103.536 56.9799Z" fill="#3D1C10"/>
<path d="M54.2298 62.5949C54.2079 62.6165 54.1864 62.6411 54.169 62.6722C54.1414 62.7095 54.1266 62.7469 54.117 62.7836C53.872 63.3162 53.9796 63.997 54.4527 64.3712C54.9991 64.8037 55.7907 64.6251 56.1374 64.0381C56.4351 63.534 56.323 62.8404 55.9383 62.4195C55.458 61.894 54.6408 62.1092 54.2298 62.5949Z" fill="#3D1C10"/>
<path d="M83.6688 64.0381C83.9674 63.534 83.8544 62.8404 83.469 62.4195C82.9897 61.894 82.1721 62.1092 81.7615 62.5949C81.7394 62.6165 81.7188 62.6411 81.6997 62.6722C81.6738 62.7095 81.657 62.7469 81.6484 62.7836C81.4027 63.3162 81.5101 63.997 81.9841 64.3712C82.5305 64.8037 83.3221 64.6251 83.6688 64.0381Z" fill="#3D1C10"/>
<path d="M65.5978 54.1016C65.2084 53.9123 64.8665 54.4933 65.2575 54.6833C67.9428 55.9897 69.8634 58.2219 69.9758 61.2906C70.0673 63.8116 68.9839 66.2353 67.0401 67.8261C66.8213 68.0049 66.9809 68.3044 67.1886 68.389C68.1134 68.7654 69.0389 69.1419 69.9637 69.5184C70.3665 69.6821 70.5387 69.0302 70.1433 68.8687C69.3983 68.5657 68.6536 68.2626 67.9089 67.96C69.8052 66.2005 70.737 63.6887 70.6423 61.093C70.5255 57.889 68.3778 55.4542 65.5978 54.1016Z" fill="#3D1C10"/>
<path d="M66.0795 73.9577C65.7983 73.6256 65.3247 74.1047 65.6033 74.4342C66.8055 75.8546 68.3574 76.6775 70.2381 76.3502C71.1772 76.1867 72.1432 75.683 72.8524 75.0466C73.177 74.7559 72.6992 74.281 72.3759 74.5701C71.8684 75.026 71.219 75.3521 70.5784 75.5675C68.799 76.1645 67.2263 75.3125 66.0795 73.9577Z" fill="#3D1C10"/>
<path d="M67.889 90.9825C67.7548 91.1791 67.8425 91.5239 68.1528 91.5229C71.7252 91.5128 75.3978 91.0876 78.8147 90.0095C78.8164 90.0088 78.8179 90.0085 78.8195 90.0079C82.6823 88.7883 86.2162 86.7334 88.9046 83.4984C89.0506 83.3224 88.985 83.1061 88.8508 82.9905C88.7317 82.8882 88.5595 82.8648 88.4284 83.0219C83.4691 88.9896 75.6017 90.828 68.1528 90.8491C68.0295 90.8494 67.9428 90.9049 67.889 90.9825Z" fill="#3D1C10"/>
<path d="M59.4918 112.065C59.3953 111.884 59.216 111.865 59.0732 111.935L59.0061 112.568C59.5811 113.475 60.727 114.039 61.6575 114.467C63.3768 115.259 65.2401 115.707 67.112 115.945C71.5713 116.511 76.257 115.423 79.4378 112.129L79.3554 111.358C79.2835 111.361 79.2101 111.391 79.1445 111.462C76.148 114.706 71.7964 115.723 67.5178 115.316C65.7517 115.148 63.9951 114.71 62.3531 114.041C61.3754 113.642 60.0171 113.05 59.4918 112.065Z" fill="#3D1C10"/>
<path d="M79.5854 118.713C77.2792 119.938 74.6372 120.677 72.0783 121.112C67.259 121.933 62.3558 121.13 58.3844 118.374L58.304 119.129C62.1513 121.679 66.7898 122.522 71.4448 121.883C74.3372 121.487 77.3314 120.672 79.9259 119.295C80.3089 119.091 79.9685 118.509 79.5854 118.713Z" fill="#3D1C10"/>
<path d="M54.7751 142.358C54.4391 141.849 53.828 141.752 53.3594 142.103C53.3329 142.118 53.3081 142.137 53.2837 142.163C53.2483 142.195 53.2229 142.23 53.2055 142.265C52.8911 142.687 52.9142 143.259 53.3034 143.643C53.6352 143.97 54.2159 143.943 54.5844 143.701C55.0499 143.394 55.0616 142.793 54.7751 142.358Z" fill="#3D1C10"/>
<path d="M56.0118 143.247C55.9501 142.987 55.883 142.726 55.8079 142.466C55.655 141.933 55.4723 141.404 55.2488 140.877C53.7521 137.338 51.8258 133.872 49.6008 130.737C49.5321 130.641 49.4612 130.546 49.3899 130.45C52.5958 124.316 55.8016 118.182 59.0067 112.049C59.103 111.863 59.0187 111.689 58.8819 111.601C58.735 111.505 58.5295 111.509 58.4247 111.709C55.191 117.897 51.9567 124.085 48.7233 130.274C48.7059 130.307 48.6954 130.342 48.6894 130.375C48.6436 130.46 48.6436 130.566 48.7224 130.673C48.7439 130.701 48.7629 130.73 48.7831 130.758C48.7848 130.761 48.7873 130.763 48.7888 130.765C49.1577 132.1 49.4721 133.452 49.8036 134.795C50.0594 135.829 50.4372 136.834 50.6956 137.871C51.0138 139.147 51.242 140.444 51.4339 141.745C51.9797 145.447 52.0887 149.209 52.2853 152.942C52.5269 157.531 52.7134 162.124 52.8983 166.715C52.9148 167.148 53.5886 167.15 53.5712 166.715C53.3856 162.071 53.1953 157.426 52.9513 152.784C52.7601 149.151 52.6369 145.498 52.1299 141.892C51.9608 140.696 51.7537 139.509 51.4948 138.329C51.2279 137.116 50.7872 135.958 50.4886 134.757C50.2888 133.955 50.0969 133.149 49.8961 132.346C51.6031 134.892 53.0649 137.651 54.319 140.418C54.8595 141.607 55.3363 142.822 55.5513 144.114C55.7549 145.34 55.8711 146.582 55.9926 147.818C56.5999 154.038 56.9412 160.282 57.3472 166.516C57.3608 166.724 57.5242 166.832 57.6875 166.839C57.8623 166.847 58.0352 166.741 58.0209 166.516C57.615 160.281 57.2667 154.039 56.6654 147.818C56.515 146.25 56.3617 144.735 56.0118 143.247Z" fill="#3D1C10"/>
<path d="M89.7891 130.274C86.8736 124.724 83.9595 119.175 81.0449 113.625C80.9265 113.399 80.6786 113.424 80.5332 113.56C80.4313 113.656 80.38 113.806 80.4636 113.965C83.3464 119.455 86.23 124.945 89.1128 130.435C86.88 133.452 85.0255 136.862 83.4987 140.282C83.1615 141.036 82.9003 141.781 82.69 142.529C82.2582 144.065 82.0473 145.613 81.8773 147.286C81.2377 153.582 80.8942 159.909 80.4889 166.223C80.4832 166.321 80.4771 166.418 80.4699 166.516C80.4557 166.75 80.6444 166.856 80.8262 166.837C80.981 166.821 81.1311 166.714 81.1444 166.516C81.5459 160.341 81.8942 154.161 82.4818 148.001C82.7298 145.395 83.0195 143.037 84.0801 140.621C85.3282 137.779 86.8424 134.945 88.5949 132.34C88.3951 133.145 88.2016 133.953 88.0024 134.757C87.7314 135.85 87.3319 136.911 87.0696 138.01C86.7632 139.29 86.5444 140.59 86.362 141.892C85.8551 145.498 85.7332 149.151 85.5397 152.784C85.2924 157.426 85.1053 162.071 84.9198 166.715C84.9024 167.15 85.5762 167.148 85.5936 166.715C85.7776 162.123 85.9657 157.531 86.2057 152.943C86.3906 149.395 86.528 145.835 86.9798 142.309C87.1426 141.032 87.3699 139.765 87.6463 138.509C87.9133 137.295 88.3534 136.137 88.6526 134.936C88.9987 133.546 89.3206 132.147 89.7031 130.765C89.7048 130.762 89.7063 130.76 89.7069 130.758C89.7275 130.73 89.7481 130.701 89.7687 130.673C89.8238 130.598 89.8396 130.523 89.8285 130.456C89.8326 130.398 89.8221 130.337 89.7891 130.274Z" fill="#3D1C10"/>
</g>
</svg>
