<svg width="246" height="246" viewBox="0 0 246 246" fill="none" xmlns="http://www.w3.org/2000/svg">
<path d="M48.1815 29.0476H30.8828V34.5531H48.1815V29.0476Z" fill="#EBEBEB"/>
<path d="M167.241 94.2476H149.942V99.753H167.241V94.2476Z" fill="#EBEBEB"/>
<path d="M38.5335 22.1057C35.6602 22.1549 28.295 22.2779 25.5201 22.3123H21.2348L21.4611 22.086V27.5915L21.2151 27.3455C24.0884 27.3455 31.4143 27.3848 34.1892 27.4242L38.5138 27.4783L38.3958 27.5915L38.5138 22.086L38.5335 22.1057ZM38.5335 22.1057L38.6467 27.6112V27.7292H38.5286C36.3687 27.7588 32.0342 27.808 29.8792 27.8227L21.2299 27.8572H20.9839V27.6112V22.1057V21.8843H21.2053H25.5693C28.3245 21.9138 35.6553 22.0368 38.504 22.086L38.5335 22.1057Z" fill="#EBEBEB"/>
<path d="M87.4827 140.712C84.6094 140.761 77.2442 140.884 74.4693 140.914H70.184L70.4103 140.692V146.198L70.1643 145.952C73.0376 145.952 80.3635 145.986 83.1384 146.026L87.463 146.08L87.345 146.198L87.463 140.692L87.4827 140.712ZM87.4827 140.712L87.6008 146.217V146.331H87.4827C85.3228 146.331 80.9932 146.409 78.8334 146.424L70.184 146.459H69.938V146.213V140.707V140.481H70.1594L74.5234 140.505C77.2786 140.535 84.6143 140.658 87.4581 140.707L87.4827 140.712Z" fill="#EBEBEB"/>
<path d="M77.8345 133.76C74.9612 133.809 67.596 133.932 64.8211 133.962H60.5358L60.7621 133.74V139.246L60.5161 139C63.3894 139 70.7153 139.034 73.4902 139.074L77.8148 139.128L77.6968 139.246L77.8148 133.74L77.8345 133.76ZM77.8345 133.76L77.9526 139.266V139.379H77.8345C75.6746 139.403 71.3401 139.457 69.1852 139.472L60.5358 139.507H60.2898V139.261V133.755V133.529H60.5161H64.8802C67.6354 133.558 74.9662 133.681 77.8148 133.731L77.8345 133.76Z" fill="#EBEBEB"/>
<path d="M68.2257 140.702H50.927V146.208H68.2257V140.702Z" fill="#EBEBEB"/>
<path d="M224.765 22.1057H207.467V27.6112H224.765V22.1057Z" fill="#EBEBEB"/>
<path d="M215.117 192.116H197.819V197.622H215.117V192.116Z" fill="#EBEBEB"/>
<path d="M224.765 185.174C221.892 185.223 214.527 185.346 211.752 185.381H207.467L207.693 185.154V190.66L207.447 190.414C210.32 190.414 217.646 190.453 220.421 190.493L224.746 190.547L224.628 190.66L224.746 185.154L224.765 185.174ZM224.765 185.174L224.883 190.68V190.798H224.765C222.606 190.827 218.276 190.876 216.116 190.896L207.467 190.926H207.221V190.675L207.245 185.169V184.948H207.467H211.831C214.586 184.977 221.922 185.105 224.765 185.149V185.174Z" fill="#EBEBEB"/>
<path d="M48.1817 192.116C45.3084 192.165 37.9432 192.288 35.1683 192.323H30.883L31.1093 192.097V197.602L30.8633 197.356L39.5126 197.391C41.6676 197.391 46.007 197.459 48.162 197.489L48.0439 197.602L48.162 192.097L48.1817 192.116ZM48.1817 192.116L48.2998 197.622V197.74H48.1817C46.0218 197.769 41.6873 197.819 39.5323 197.838L30.883 197.868H30.637V197.617V192.111V191.88H30.8584H35.2224C37.9776 191.91 45.3084 192.038 48.1571 192.082L48.1817 192.116Z" fill="#EBEBEB"/>
<path d="M99.4185 59.1138L98.523 65.5098C98.449 66.1497 98.2458 66.7679 97.9258 67.3269C97.6058 67.8859 97.1756 68.3742 96.6612 68.762C96.1469 69.1498 95.5592 69.4291 94.9337 69.583C94.3082 69.7369 93.658 69.7622 93.0225 69.6574C91.746 69.4744 90.5938 68.7937 89.8176 67.764C89.0414 66.7343 88.7043 65.4392 88.8798 64.1618L90.3115 53.9282C90.3115 53.8298 90.4247 53.8445 90.4395 53.7461C90.3558 53.633 90.3558 53.633 90.3657 53.5346C90.579 52.2723 91.2671 51.1394 92.2889 50.3682C93.3108 49.597 94.5889 49.246 95.8613 49.387C97.3174 49.6089 98.8031 49.5396 100.232 49.1831C101.661 48.8265 103.005 48.1898 104.187 47.3099C105.368 46.43 106.363 45.3244 107.113 44.0572C107.864 42.7899 108.356 41.3862 108.56 39.9275C108.764 38.4689 108.677 36.9841 108.303 35.5595C107.929 34.1348 107.276 32.7986 106.381 31.6282C105.487 30.4578 104.369 29.4766 103.093 28.7414C101.817 28.0062 100.407 27.5317 98.9461 27.3454C97.0356 27.0717 95.0867 27.306 93.2955 28.0246C91.5042 28.7431 89.9338 29.9207 88.742 31.4388C88.3428 31.9512 87.8461 32.3794 87.2805 32.6988C86.7149 33.0182 86.0916 33.2225 85.4467 33.2998C84.8017 33.3771 84.1479 33.3259 83.5228 33.1492C82.8978 32.9725 82.3139 32.6738 81.8049 32.2703C81.3057 31.8728 80.8901 31.3804 80.5821 30.8215C80.2741 30.2626 80.0797 29.6483 80.0102 29.014C79.9407 28.3797 79.9974 27.7378 80.1771 27.1255C80.3567 26.5132 80.6558 25.9425 81.057 25.4463C83.1901 22.7231 85.9663 20.5725 89.1362 19.1878C92.306 17.803 95.7703 17.2275 99.2176 17.5128C102.665 17.7982 105.987 18.9356 108.886 20.8227C111.785 22.7099 114.17 25.2877 115.826 28.3246C117.483 31.3615 118.359 34.7622 118.375 38.2213C118.392 41.6804 117.549 45.0895 115.922 48.1422C114.295 51.1949 111.936 53.7957 109.055 55.7107C106.174 57.6258 102.863 58.7952 99.4185 59.1138ZM96.4025 80.6585L96.1516 82.4297C96.08 83.0707 95.8788 83.6904 95.5601 84.2511C95.2413 84.8118 94.8118 85.3018 94.2977 85.6912C93.7836 86.0806 93.1955 86.3613 92.5695 86.5161C91.9434 86.671 91.2923 86.6968 90.6559 86.592C89.3783 86.4115 88.2246 85.7314 87.4479 84.7011C86.6712 83.6707 86.3351 82.3743 86.5133 81.0964L86.7593 79.3252C86.9519 78.0533 87.635 76.9074 88.6623 76.1331C89.6895 75.3588 90.9792 75.0175 92.2549 75.1826C92.8893 75.264 93.5011 75.4711 94.0546 75.7917C94.608 76.1123 95.092 76.5401 95.4781 77.0499C95.8643 77.5598 96.145 78.1415 96.3037 78.7612C96.4624 79.3807 96.496 80.0258 96.4025 80.6585Z" fill="#EBEBEB"/>
<path d="M51.7536 89.7359L53.1853 94.956C53.3412 95.4719 53.3906 96.0141 53.3305 96.5496C53.2703 97.0852 53.1019 97.603 52.8355 98.0714C52.569 98.5399 52.2101 98.9493 51.7805 99.2747C51.351 99.6002 50.8597 99.8349 50.3366 99.9646C49.2954 100.25 48.1835 100.111 47.2446 99.5778C46.3057 99.0447 45.6165 98.1612 45.3281 97.1208L43.0304 88.7568C43.0304 88.683 43.0944 88.6584 43.0698 88.5748C42.9665 88.5206 42.9665 88.5206 42.9419 88.437C42.6865 87.3962 42.8394 86.2972 43.3692 85.3657C43.899 84.4342 44.7655 83.7409 45.7905 83.4284C47.0163 83.1467 48.1724 82.6197 49.189 81.8792C50.2057 81.1387 51.0619 80.2001 51.7062 79.1198C52.3504 78.0396 52.7693 76.8401 52.9376 75.5937C53.1059 74.3473 53.0201 73.0797 52.6854 71.8673C52.3508 70.6549 51.7741 69.5228 50.9902 68.5392C50.2064 67.5556 49.2315 66.7408 48.1243 66.1441C47.0172 65.5473 45.8007 65.1808 44.5481 65.0667C43.2955 64.9527 42.0328 65.0933 40.8361 65.4803C39.2772 65.9024 37.8573 66.7283 36.7196 67.8747C35.582 69.021 34.7668 70.4471 34.3565 72.0091C34.2221 72.5373 33.984 73.0335 33.656 73.4688C33.328 73.9041 32.9166 74.2698 32.4459 74.5445C31.9752 74.8192 31.4545 74.9976 30.9142 75.0691C30.3738 75.1406 29.8247 75.1039 29.2987 74.9611C28.7833 74.8206 28.3008 74.5795 27.8789 74.2519C27.4569 73.9242 27.1039 73.5164 26.8401 73.0519C26.5763 72.5874 26.4069 72.0753 26.3416 71.5451C26.2764 71.0149 26.3166 70.477 26.4599 69.9624C27.195 67.1613 28.6146 64.5867 30.591 62.47C32.5674 60.3532 35.0387 58.7607 37.7829 57.8354C40.5271 56.9102 43.4582 56.6812 46.3128 57.169C49.1674 57.6569 51.856 58.8463 54.1372 60.6304C56.4184 62.4145 58.2205 64.7374 59.3818 67.3903C60.5431 70.0433 61.027 72.9432 60.7902 75.8295C60.5534 78.7157 59.6032 81.498 58.025 83.9262C56.4468 86.3543 54.2901 88.3524 51.7487 89.7408L51.7536 89.7359ZM56.585 107.3L56.9835 108.742C57.1393 109.259 57.1881 109.803 57.1271 110.339C57.0661 110.876 56.8965 111.395 56.6286 111.864C56.3607 112.333 56.0001 112.742 55.5689 113.067C55.1376 113.393 54.6447 113.627 54.1201 113.755C53.0783 114.038 51.967 113.897 51.0287 113.363C50.0904 112.83 49.4013 111.946 49.1115 110.907L48.7081 109.46C48.4388 108.419 48.5856 107.314 49.1174 106.379C49.6491 105.444 50.5241 104.752 51.5568 104.452C52.0737 104.301 52.6154 104.256 53.1501 104.319C53.6847 104.381 54.2015 104.55 54.6697 104.816C55.1379 105.081 55.5482 105.438 55.8764 105.865C56.2045 106.291 56.4438 106.78 56.5801 107.3H56.585Z" fill="#EBEBEB"/>
<path d="M77.2047 113.204L76.9931 117.209C76.9792 117.608 76.8843 118.001 76.7144 118.362C76.5444 118.724 76.3029 119.047 76.0043 119.312C75.7058 119.578 75.3565 119.78 74.9776 119.906C74.5987 120.033 74.1981 120.081 73.8 120.048C73.0011 120.005 72.252 119.646 71.717 119.051C71.182 118.456 70.9049 117.674 70.9464 116.875L71.281 110.479C71.281 110.42 71.3499 110.424 71.3548 110.361C71.3597 110.297 71.2908 110.297 71.2958 110.233C71.3596 109.441 71.724 108.704 72.314 108.172C72.9041 107.641 73.6752 107.355 74.4692 107.374C75.3737 107.422 76.2789 107.292 77.133 106.99C77.9871 106.688 78.7734 106.221 79.4471 105.616C80.1207 105.01 80.6685 104.278 81.0591 103.461C81.4497 102.643 81.6756 101.757 81.7237 100.853C81.7718 99.9481 81.6413 99.0429 81.3397 98.1888C81.038 97.3347 80.571 96.5483 79.9654 95.8747C79.3599 95.201 78.6275 94.6533 77.8103 94.2627C76.993 93.872 76.1068 93.6462 75.2022 93.5981C74.0064 93.531 72.814 93.7799 71.7448 94.3197C70.6757 94.8594 69.7674 95.6711 69.1113 96.6731C68.893 97.0128 68.6093 97.3056 68.2767 97.5344C67.9441 97.7633 67.5692 97.9237 67.174 98.0061C66.7787 98.0885 66.371 98.0914 65.9746 98.0146C65.5783 97.9378 65.2011 97.7828 64.8653 97.5587C64.5358 97.3395 64.2528 97.0574 64.0327 96.7285C63.8126 96.3995 63.6598 96.0303 63.583 95.6421C63.5061 95.2539 63.5069 94.8543 63.5851 94.4663C63.6633 94.0784 63.8175 93.7097 64.0388 93.3816C65.2116 91.5828 66.8131 90.1037 68.6991 89.0772C70.5852 88.0507 72.6968 87.5089 74.8442 87.5006C76.9915 87.4923 79.1072 88.0177 81.0012 89.0296C82.8952 90.0415 84.508 91.5082 85.6947 93.2979C86.8815 95.0875 87.6049 97.144 87.8 99.2824C87.995 101.421 87.6557 103.574 86.8124 105.549C85.9691 107.524 84.6482 109.258 82.9686 110.596C81.289 111.934 79.3033 112.834 77.1899 113.214L77.2047 113.204ZM76.4913 126.69L76.4322 127.797C76.4208 128.197 76.3283 128.59 76.1604 128.952C75.9925 129.315 75.7527 129.64 75.4555 129.907C75.1583 130.174 74.8099 130.379 74.4315 130.507C74.053 130.636 73.6524 130.686 73.2539 130.656C72.4541 130.612 71.7042 130.253 71.169 129.657C70.6339 129.061 70.3574 128.277 70.4003 127.477L70.4594 126.37C70.5126 125.575 70.8737 124.831 71.4662 124.297C72.0587 123.764 72.8359 123.482 73.6328 123.512C74.0307 123.528 74.4215 123.624 74.7819 123.793C75.1424 123.963 75.4653 124.202 75.7317 124.499C75.998 124.795 76.2024 125.141 76.3329 125.518C76.4634 125.894 76.5172 126.293 76.4913 126.69Z" fill="#DBDBDB"/>
<path d="M195.782 40.4326H156.412V79.8025H195.782V40.4326Z" fill="white"/>
<path d="M154.36 38.376V81.8393H197.828V38.376H154.36ZM195.782 79.7925H156.422V40.4325H195.782V79.7925Z" fill="#DBDBDB"/>
<path d="M192.943 72.1715V58.5627H162.257V72.1715H192.943Z" fill="#EBEBEB"/>
<path d="M183.954 67.9797V52.2554H168.23V67.9797H183.954Z" fill="#C7C7C7"/>
<path d="M199.506 38.3809H197.828V81.8491H199.506V38.3809Z" fill="#C7C7C7"/>
<path d="M216.126 98.2869H176.756V137.657H216.126V98.2869Z" fill="white"/>
<path d="M193.804 104.584H183.526V134.282H193.804V104.584Z" fill="#C7C7C7"/>
<path d="M174.709 96.2354V139.728H218.173V96.2354H174.709ZM216.126 137.657H176.766V98.2968H216.126V137.657Z" fill="#DBDBDB"/>
<path d="M204.303 110.11H188.584V125.829H204.303V110.11Z" fill="#EBEBEB"/>
<path d="M219.855 96.2354H218.177V139.704H219.855V96.2354Z" fill="#C7C7C7"/>
<path d="M23.3406 215.368L48.2555 215.25L73.1703 215.206L123 215.122L172.83 215.206L197.745 215.25L222.66 215.368L197.745 215.486L172.83 215.53L123 215.614L73.1703 215.53L48.2555 215.486L23.3406 215.368Z" fill="#263238"/>
<path d="M141.588 119.664C166.414 145.607 197.326 199.86 191.25 210.684C184.48 222.723 149.922 186.365 150.075 184.274C150.198 182.694 138.34 149.834 129.327 125.957C120.314 102.08 135.448 113.248 141.588 119.664Z" fill="#FF928E"/>
<path d="M149.839 184.284C148.815 180.776 132.663 137.46 128.063 123.768C123.463 110.075 127.979 105.928 141.514 118.611C155.049 131.295 184.5 173.415 191.024 195.634C197.312 217.036 186.345 216.869 172.023 206.832C160.294 198.611 149.839 184.284 149.839 184.284Z" fill="#8EC3B0"/>
<path d="M126.975 113.002C126.882 112.968 126.788 112.934 126.69 112.889C126.729 112.768 126.78 112.651 126.842 112.54C127.029 112.614 127.221 112.683 127.413 112.747C128.963 113.239 130.857 113.401 132.22 112.333C132.374 112.213 132.516 112.078 132.643 111.93L133.017 112.117C131.63 113.78 128.963 113.731 126.975 113.002ZM137.676 115.266L137.297 114.966C137.081 115.071 136.864 115.169 136.648 115.261C133.548 116.624 129.721 117.996 127.039 120.299L127.157 120.791C128.582 119.562 130.18 118.551 131.9 117.79C133.794 116.875 135.792 116.151 137.676 115.266ZM141.12 124.496C142.034 123.327 143.048 122.24 144.151 121.248C144.053 121.14 143.949 121.037 143.851 120.934C141.022 123.394 138.995 127.152 136.304 129.539C134.824 130.912 133.045 131.922 131.108 132.491C131.152 132.619 131.197 132.746 131.246 132.874C132.588 132.491 133.854 131.88 134.99 131.069C137.534 129.342 139.236 126.857 141.125 124.476L141.12 124.496ZM155.098 134.237C151.005 139.792 143.58 141.125 137.066 142.109C136.279 142.227 135.492 142.355 134.705 142.513C134.759 142.655 134.808 142.803 134.862 142.951C137.612 142.39 140.441 142.153 143.177 141.529C147.738 140.486 152.525 138.326 155.383 134.606L155.098 134.237ZM160.672 182.124C157.858 181.42 155.3 182.355 152.825 183.664C152.013 184.096 151.192 184.554 150.365 184.982L150.645 185.346C153.981 183.629 157.194 181.489 161.036 182.739C162.291 183.147 163.496 183.949 163.988 185.199C164.628 186.827 163.91 188.524 162.773 189.73C161.184 191.408 159.014 192.077 156.913 192.869L157.278 193.277L159.093 192.569C161.597 191.585 164.539 189.754 164.722 186.743C164.854 184.318 162.877 182.67 160.677 182.124H160.672ZM150.882 152.112C152.85 149.312 154.695 146.404 156.677 143.6C157.533 142.385 158.434 141.14 159.418 139.974L159.137 139.595C158.611 140.215 158.114 140.85 157.632 141.489C155.634 144.141 153.843 146.941 151.984 149.686C149.179 153.824 145.888 158.483 141.568 161.351C141.622 161.504 141.676 161.651 141.735 161.804C145.435 159.349 148.412 155.585 150.886 152.107L150.882 152.112ZM151.866 159.492C151.713 160.693 151.888 161.913 152.374 163.023C152.859 164.133 153.635 165.09 154.621 165.794C156.913 167.368 159.477 166.399 161.105 164.382C162.089 163.191 162.763 161.824 163.624 160.564C164.62 159.083 165.855 157.777 167.28 156.702C168.117 156.082 169.038 155.585 170.015 155.226L169.735 154.798C169.126 155.03 168.539 155.318 167.983 155.659C165.204 157.351 163.511 159.964 161.809 162.645C160.933 164.013 159.88 165.469 158.262 165.986C157.571 166.179 156.841 166.183 156.149 165.997C155.456 165.811 154.826 165.442 154.326 164.928C151.964 162.724 151.811 159.334 153.592 156.741C155.472 153.996 158.724 152.52 161.799 151.536C163.373 151.044 164.997 150.621 166.586 150.114L166.316 149.716C163.118 150.744 159.708 151.462 156.968 153.086C154.611 154.488 152.323 156.672 151.89 159.501L151.866 159.492ZM177.942 168.008C176.612 169.613 175.034 170.995 173.268 172.102C170.385 174.015 167.071 175.179 163.624 175.486C160.215 175.795 156.818 174.778 154.139 172.648C151.802 170.768 149.711 168.436 146.611 167.924C145.733 167.779 144.838 167.76 143.954 167.87C144.018 168.043 144.077 168.21 144.141 168.362C145.358 168.227 146.589 168.355 147.752 168.736C149.386 169.282 150.734 170.399 152.013 171.506C153.202 172.628 154.509 173.617 155.91 174.458C157.288 175.197 158.788 175.681 160.338 175.89C163.43 176.266 166.568 175.843 169.45 174.66C172.564 173.43 175.964 171.314 178.227 168.51L177.942 168.008ZM177.966 210.512C178.424 210.758 178.876 211.004 179.319 211.201C180.837 211.545 182.296 212.112 183.649 212.883C184.22 213.043 184.8 213.168 185.386 213.257C183.889 212.321 182.285 211.567 180.608 211.014C179.749 210.759 178.865 210.594 177.971 210.522L177.966 210.512ZM180.426 172.367L180.21 171.983C176.057 172.874 172.18 175.846 170.635 179.629C169.415 182.616 170.143 185.533 171.432 188.367C172.243 189.952 172.954 191.585 173.563 193.258C174.048 194.796 174.318 196.393 174.365 198.005C174.473 201.116 173.68 204.191 172.082 206.861L172.466 207.127C173.697 205.104 174.467 202.835 174.719 200.48C175.049 197.497 174.624 194.479 173.484 191.703C172.141 188.436 169.858 185.218 170.532 181.509C171.398 177.071 175.792 173.346 180.446 172.377L180.426 172.367ZM191.28 196.588C189.936 197.021 188.559 197.338 187.162 197.538C185.489 197.745 183.472 197.671 182.488 196.062C181.779 194.901 181.907 193.41 182.291 192.16C183.132 189.435 185.336 187.87 187.417 186.143C187.363 186.005 187.299 185.868 187.235 185.73C186.188 186.591 185.085 187.403 184.141 188.308C182.448 189.932 181.189 192.51 181.587 194.901C182.079 197.902 185.13 198.32 187.663 197.927C188.924 197.694 190.166 197.375 191.383 196.972C191.388 196.864 191.339 196.731 191.299 196.598L191.28 196.588Z" fill="white"/>
<path opacity="0.1" d="M172.023 206.832C160.294 198.615 149.838 184.283 149.838 184.283C148.82 180.775 132.658 137.46 128.063 123.767C126.365 118.705 125.908 114.951 126.695 112.87L172.023 206.832Z" fill="black"/>
<path d="M149.042 215.279H53.1655C53.1655 215.279 72.7767 139.069 105.175 107.531C109.519 103.3 126.439 104.014 130.341 110.385C144.958 134.282 149.307 214.94 149.042 215.279Z" fill="#8EC3B0"/>
<path d="M136.85 172.584C133.081 177.937 137.179 185.228 143.187 186.488C144.421 186.739 145.696 186.697 146.911 186.365L146.955 186.857C145.834 187.162 144.661 187.233 143.511 187.063C138.168 186.232 133.671 180.539 135.103 175.117C136.205 170.891 140.515 167.949 144.786 167.816C144.786 167.993 144.83 168.165 144.855 168.343C144.487 168.347 144.121 168.377 143.757 168.431C142.387 168.625 141.069 169.093 139.882 169.806C138.695 170.519 137.664 171.464 136.85 172.584ZM57.2835 201.72L57.1359 201.597C57.0818 201.759 57.0326 201.922 56.9834 202.089C60.7275 205.184 61.5 210.758 62.7004 215.289H63.1924C61.9132 210.541 61.2146 205.065 57.2835 201.72ZM73.308 174.168C76.2354 173.981 79.212 173.002 80.993 170.547C82.3706 168.653 83.0889 165.986 82.0705 163.772C80.8897 161.209 78.0066 160.53 75.4285 160.594C74.3116 160.618 73.2096 160.726 72.1124 160.849L71.9058 161.341C73.6942 161.046 75.5135 160.985 77.3178 161.159C78.902 161.376 80.4616 162.07 81.3472 163.457C81.6989 164.059 81.9278 164.724 82.0207 165.415C82.1136 166.106 82.0686 166.808 81.8884 167.482C81.1406 170.704 78.5133 172.736 75.3842 173.415C72.6142 174.015 69.7951 173.691 67.0202 173.292L66.8431 173.74C68.9787 174.095 71.1442 174.238 73.308 174.168ZM77.4358 210.03C74.6413 209.538 70.1542 212.204 68.6487 208.554C67.5171 205.818 69.1407 202.763 70.8726 200.706C72.9832 198.212 75.7089 196.347 78.4002 194.532C83.3694 191.171 95.4086 180.884 89.662 176.525C84.3042 172.466 77.4211 184.308 73.3916 188.023C69.8295 191.299 64.6143 194.266 59.5172 194.192L59.3696 194.63C64.5208 194.719 69.613 191.786 73.4408 188.613C78.4789 184.441 83.4432 173.592 89.2635 176.918C94.095 179.678 85.0864 189.356 80.0976 192.795C77.5834 194.532 74.9709 196.16 72.6782 198.207C70.6512 200.008 68.6635 202.232 68.0485 204.947C67.5958 206.955 67.8271 209.533 69.8689 210.586C71.1678 211.26 72.6388 211.004 74.0115 210.743C75.7384 210.409 77.3571 210.207 78.961 211.078C79.7616 211.519 80.463 212.12 81.0216 212.844C81.5801 213.567 81.9841 214.398 82.2082 215.284H82.7347C82.7347 215.284 82.7347 215.284 82.7347 215.26C82.0606 212.765 80.0139 210.512 77.4211 210.035L77.4358 210.03ZM112.511 149.302C111.3 148.604 109.913 148.27 108.517 148.338C107.121 148.407 105.775 148.877 104.639 149.691C102.179 151.433 100.668 154.247 99.5119 156.963C98.2228 159.998 97.0519 163.359 94.5427 165.607C93.1848 166.832 91.0446 167.905 89.3767 166.591C88.2894 165.735 87.9007 164.225 87.8367 162.891C87.7432 160.038 89.4456 157.341 91.1479 155.186C92.9092 152.948 94.9658 150.965 96.7419 148.736C98.3901 146.67 99.8366 144.308 100.225 141.652C100.417 140.338 100.225 138.916 99.1478 138.035C98.2173 137.376 97.0682 137.101 95.94 137.268C93.1454 137.538 90.7592 139.57 89.0766 141.696C88.1383 142.9 87.3147 144.19 86.6166 145.548C85.854 147 85.2882 148.549 84.5157 149.976C83.6203 151.649 82.0803 152.461 80.2206 151.89C78.9975 151.486 77.9367 150.699 77.1948 149.647C77.1259 149.789 77.057 149.932 76.993 150.075C78.3608 151.752 80.4075 153.061 82.5871 152.353C83.9696 151.9 84.7125 150.65 85.2832 149.401C85.9425 147.925 86.5821 146.483 87.3595 145.086C88.9191 142.276 91.0888 139.398 94.1688 138.153C95.4627 137.632 97.1208 137.42 98.4049 138.094C100.191 139.034 99.9645 141.228 99.4971 142.886C97.9326 148.382 92.7616 151.856 89.6571 156.426C88.2402 158.522 87.0643 161.051 87.3988 163.644C87.7039 165.976 89.3668 168.146 91.9498 167.58C94.9855 166.921 96.9633 163.718 98.1982 161.13C99.6054 158.178 100.55 155.024 102.552 152.407C104.555 149.789 107.63 148.038 110.961 149.174C114.528 150.389 116.57 153.912 116.702 157.538C116.948 164.165 112.274 169.651 107.512 173.651C102.926 177.494 97.7456 180.623 93.5046 184.879C88.8059 189.614 85.7487 195.73 84.7814 202.33C84.1861 206.379 84.191 211.25 85.8294 215.27H86.4493C85.9643 214.079 85.6048 212.84 85.3767 211.575C84.1172 204.815 85.6522 197.494 89.0372 191.565C92.2992 185.853 97.4258 181.941 102.616 178.089C107.182 174.699 111.964 171.167 114.852 166.143C117.942 160.844 118.675 152.741 112.496 149.307L112.511 149.302ZM128.486 180.588C128.433 179.085 128.031 177.615 127.311 176.295C126.591 174.975 125.573 173.84 124.338 172.982C123.219 172.213 121.898 171.792 120.54 171.772C119.182 171.752 117.849 172.134 116.707 172.869C114.341 174.384 112.811 177.066 112.225 179.757C111.374 183.668 112.082 187.683 112.161 191.629C112.292 199.194 110.248 206.638 106.272 213.075C105.805 213.828 105.288 214.551 104.757 215.279H105.426C107.027 213.091 108.362 210.719 109.401 208.214C110.841 204.874 111.819 201.353 112.309 197.749C112.825 193.951 112.584 190.227 112.383 186.433C112.191 182.783 112.309 178.96 114.439 175.841C116.314 173.095 119.59 171.413 122.843 172.78C126.095 174.148 127.92 177.612 127.989 181.056C128.186 188.175 123.069 194.153 119.561 199.885C117.888 202.61 116.387 205.493 115.684 208.632C115.197 210.82 115.123 213.079 115.467 215.294H115.959C115.561 212.781 115.709 210.212 116.392 207.762C118.198 201.366 122.906 196.342 125.913 190.542C127.492 187.452 128.687 184.067 128.471 180.593L128.486 180.588ZM142.778 202.236C140.948 200.052 138.296 198.601 135.398 198.886C132.742 199.147 130.409 200.854 129.839 203.535C129.184 206.635 130.823 209.853 132.52 212.337C133.179 213.321 133.927 214.271 134.641 215.265H135.197C133.858 213.346 132.358 211.525 131.339 209.405C129.863 206.335 129.371 202.123 132.815 200.15C135.723 198.473 139.305 199.447 141.622 201.651C144.131 204.042 145.307 207.457 146.006 210.768C146.316 212.244 146.552 213.72 146.788 215.265H147.256C146.537 210.625 145.839 205.917 142.764 202.251L142.778 202.236ZM112.52 104.998C112.251 105.024 111.986 105.053 111.723 105.086C110.601 106.395 109.307 107.545 107.876 108.506C105.906 109.847 103.724 110.845 101.421 111.458L100.821 112.136C101.377 112.023 101.927 111.88 102.469 111.708C106.075 110.547 110.021 108.21 112.52 104.998ZM113.209 118.641C112.618 117.463 112.466 116.112 112.781 114.833C113.332 112.333 115.33 109.913 117.947 109.494C121.337 108.943 124.013 111.925 126.975 113.002C128.481 113.553 130.37 113.716 131.807 113.042C131.753 112.924 131.694 112.811 131.639 112.702C130.355 113.352 128.751 113.194 127.413 112.747C124.402 111.763 122.001 108.993 118.651 109.032C114.223 109.091 110.828 114.724 112.747 118.695C113.421 120.072 114.715 121.007 115.822 121.991C116.979 122.951 117.905 124.158 118.533 125.524C119.098 126.805 119.397 128.188 119.411 129.589C119.426 130.99 119.155 132.379 118.616 133.671C118.104 134.924 117.243 136.004 116.135 136.782C115.028 137.56 113.72 138.003 112.368 138.06C111.078 138.092 109.797 137.829 108.624 137.291C107.45 136.753 106.416 135.954 105.598 134.955C104.813 133.975 104.366 132.767 104.324 131.511C104.279 129.829 104.914 128.195 105.308 126.591C105.932 124.205 106.026 121.076 103.295 119.984C101.106 119.103 98.5131 120.2 96.801 121.593C94.5132 123.448 93.5882 126.375 92.309 128.924C90.9412 131.644 88.9437 134.227 85.6916 134.522C85.485 134.522 85.2832 134.552 85.0815 134.552C84.993 134.709 84.9044 134.872 84.8109 135.044H84.9388C87.5661 135.069 89.7604 133.701 91.2807 131.6C93.0716 129.14 93.8391 126.09 95.571 123.58C97.047 121.45 100.211 119.482 102.877 120.323C106.759 121.548 104.811 126.35 104.171 129.037C103.591 131.462 103.861 133.75 105.578 135.649C108.742 139.137 114.715 139.585 117.804 135.797C120.973 131.89 120.294 125.612 116.697 122.213C115.536 121.086 114.011 120.151 113.209 118.641ZM127.344 132.805C129.957 133.789 132.84 132.584 134.995 131.093C135.909 130.454 136.753 129.72 137.514 128.904L137.396 128.481C137.047 128.855 136.682 129.214 136.309 129.548C134.04 131.561 130.587 133.583 127.477 132.402C124.274 131.187 123.595 127.448 124.609 124.53C125.75 121.219 128.884 119.211 131.9 117.794C132.461 117.532 133.027 117.281 133.598 117.042C133.553 116.914 133.499 116.791 133.445 116.663C128.83 118.665 123.999 121.258 123.718 126.788C123.59 129.337 124.84 131.856 127.344 132.805ZM143.664 159.777C141.698 161.516 139.373 162.801 136.855 163.541C133.337 164.525 129.77 163.669 127.536 160.672C126.575 159.329 125.85 157.831 125.391 156.244C124.786 154.276 124.348 152.156 124.899 150.134C125.795 146.739 129.052 144.613 132.22 143.62C134.936 142.763 137.789 142.478 140.584 142.021C140.55 141.863 140.52 141.706 140.491 141.529C139.339 141.735 138.193 141.917 137.076 142.085C133.755 142.577 130.346 143.265 127.64 145.381C126.409 146.287 125.445 147.507 124.848 148.914C124.252 150.32 124.045 151.862 124.25 153.376C124.638 156.416 125.854 159.772 128.033 161.966C130.213 164.161 133.263 164.785 136.235 164.156C139.016 163.501 141.593 162.171 143.738 160.284C143.703 160.131 143.664 159.954 143.664 159.777Z" fill="white"/>
<path d="M190.355 210.128C183.467 217.262 169.72 217.897 130.473 219.338C125.061 219.54 113.327 181.592 119.113 181.08C126.405 180.436 154.837 179.521 156.923 179.713C174.532 181.361 195.019 205.292 190.355 210.128Z" fill="#FF928E"/>
<path d="M131.743 181.996C131.743 181.996 116.279 178.552 107.596 179.265C95.9696 180.215 86.3214 185.823 82.4199 188.416C74.2773 193.828 58.3119 212.524 62.9219 218.079C67.0793 223.087 82.41 203.132 82.41 203.132C82.41 203.132 63.4188 220.898 69.5295 226.01C75.6401 231.122 92.1221 206.94 92.1221 206.94C92.1221 206.94 73.0227 225.636 80.1567 229.907C85.5687 233.139 101.711 212.081 101.711 212.081C101.711 212.081 85.4014 228.288 90.8036 231.82C96.7764 235.756 112.914 217.252 112.914 217.252C128.166 223.993 138.193 220.962 145.061 217.956C146.724 217.228 131.743 181.996 131.743 181.996Z" fill="#FF928E"/>
<path d="M88.5847 196.564C86.2772 198.571 83.9304 200.588 81.8098 202.793C79.6893 204.997 77.6475 207.275 75.7386 209.681C71.0646 215.55 69.0572 219.953 69.2097 219.693C72.8456 213.582 80.3142 205.572 82.4347 203.368C84.5552 201.164 86.5576 198.861 88.6732 196.657C88.7274 196.588 88.6388 196.52 88.5847 196.564Z" fill="#263238"/>
<path d="M96.6829 204.077C93.849 206.763 90.9364 209.331 88.2205 212.145C85.5047 214.96 83.1972 217.843 80.688 220.824C80.4961 221.051 80.688 221.08 80.8848 220.859C83.5022 217.981 86.1492 215.521 88.8011 212.677C91.453 209.833 93.9966 206.876 96.742 204.141C96.7961 204.096 96.7272 204.037 96.6829 204.077Z" fill="#263238"/>
<path d="M104.796 209.272C100.255 213.159 96.432 217.882 92.801 222.601C92.619 222.837 92.865 222.847 93.0618 222.601C96.9683 218.094 99.9941 214.527 104.929 209.41C105.008 209.351 104.889 209.189 104.796 209.272Z" fill="#263238"/>
<path d="M123.64 180.018L151.123 222.428C151.123 222.428 185.071 219.299 191.398 211.432C195.57 206.256 174.793 179.978 155.197 179.634L123.64 180.018Z" fill="#8EC3B0"/>
<path d="M128.471 180.593C128.565 182.521 128.303 184.449 127.699 186.281L127.369 185.789C127.816 184.254 128.025 182.659 127.989 181.061C127.979 180.7 127.949 180.341 127.9 179.983H128.392C128.432 180.18 128.458 180.383 128.471 180.593ZM135.851 198.871L136.146 199.324C138.188 199.407 140.127 200.241 141.593 201.666C144.102 204.057 145.278 207.471 145.976 210.783C146.326 212.421 146.577 214.118 146.837 215.826L147.447 216.77C146.655 211.648 146.163 206.31 142.759 202.251C141.037 200.19 138.577 198.768 135.856 198.871H135.851ZM173.499 191.727C172.515 189.371 171.073 187.044 170.591 184.534L170.134 184.264C170.374 185.69 170.816 187.075 171.447 188.377C172.258 189.961 172.969 191.595 173.578 193.267C174.063 194.805 174.332 196.403 174.379 198.015C174.576 204.495 171.029 210.846 164.564 212.667C158.749 214.305 152.151 211.791 150.522 205.626C149.803 203.002 150.096 200.202 151.344 197.784C152.992 194.729 156.043 193.789 159.083 192.583C161.587 191.599 164.53 189.769 164.712 186.758C164.854 184.298 162.877 182.665 160.677 182.119C157.863 181.415 155.305 182.35 152.83 183.659C149.824 185.248 146.739 187.23 143.187 186.483C141.501 186.097 139.943 185.287 138.66 184.128C137.377 182.97 136.411 181.502 135.856 179.865H135.261C135.865 181.692 136.949 183.324 138.399 184.588C139.85 185.853 141.614 186.704 143.506 187.053C149.902 188.037 154.601 180.657 161.032 182.729C162.286 183.137 163.492 183.939 163.984 185.189C164.623 186.817 163.905 188.515 162.768 189.72C160.279 192.347 156.372 192.495 153.519 194.547C149.47 197.459 148.736 203.378 150.793 207.693C153.219 212.785 159.3 214.517 164.485 213.144C170.355 211.589 174.094 206.374 174.744 200.475C175.067 197.501 174.641 194.494 173.504 191.727H173.499ZM186.074 198.069L185.715 197.626C184.451 197.592 183.211 197.233 182.502 196.082C182.063 195.311 181.89 194.417 182.01 193.538L181.582 193.11C181.489 193.71 181.489 194.321 181.582 194.92C181.996 197.292 184.008 198.054 186.079 198.069H186.074ZM180.613 211.024C178.291 210.335 175.565 210.212 173.322 211.25C170.931 212.352 169.917 214.694 170.247 217.262C170.366 218.022 170.53 218.775 170.739 219.516L171.152 219.437C170.66 217.42 170.252 215.407 171.349 213.572C172.766 211.211 175.924 210.768 178.429 211.058C181.568 211.422 184.17 213.183 186.866 214.684L187.403 214.413C185.169 213.179 183.024 211.737 180.613 211.024Z" fill="white"/>
<path d="M177.184 189.194C167.319 181.154 163.984 179.767 148.456 179.58C148.328 179.58 148.304 179.742 148.431 179.747C165.46 180.515 173.322 186.808 177.071 189.322C177.169 189.381 177.272 189.268 177.184 189.194Z" fill="#263238"/>
<path d="M161.223 217.651C158.454 212.825 155.423 208.151 152.367 203.486C149.312 198.822 146.291 194.138 143.133 189.558C141.347 186.96 139.575 184.357 137.721 181.824C137.671 181.76 137.548 181.824 137.593 181.897C140.358 186.719 143.369 191.408 146.375 196.082C149.381 200.756 152.446 205.43 155.551 210.06C157.307 212.672 159.108 215.255 160.963 217.789C161.076 217.912 161.307 217.789 161.223 217.651Z" fill="#263238"/>
<path opacity="0.1" d="M158.296 179.895L135.664 198.591L123.625 180.018L155.191 179.634C155.56 179.634 155.934 179.659 156.308 179.683L158.075 179.875L158.296 179.895Z" fill="black"/>
<path d="M93.6031 133.745C89.5736 179.236 95.8712 215.471 114.971 218.084C127.654 219.816 124.476 181.351 124.447 180.53C124.348 177.715 122.887 154.242 113.893 128.707C103.999 100.619 95.4038 113.421 93.6031 133.745Z" fill="#FF928E"/>
<path d="M93.6031 133.745C89.5736 179.236 95.8712 215.471 114.971 218.084C127.654 219.816 129.431 187.378 129.401 186.557C129.298 183.742 122.887 154.242 113.893 128.707C103.999 100.619 95.4038 113.421 93.6031 133.745Z" fill="#8EC3B0"/>
<path d="M114.995 131.945C117.775 140.51 120.304 149.165 122.759 157.824C125.096 166.517 127.59 175.201 129.056 184.092C125.726 168.84 119.143 147.241 114.995 131.94V131.945Z" fill="#263238"/>
<path d="M117.347 134.07C117.977 136.53 118.449 139.152 117.868 141.642C117.942 139.148 117.48 136.56 117.347 134.07Z" fill="#263238"/>
<path d="M95.6153 123.595C95.3939 123.915 95.1922 124.24 94.9954 124.579C95.0971 124.123 95.2053 123.676 95.3201 123.236C95.7564 122.631 96.2691 122.086 96.8453 121.613C98.5575 120.22 101.15 119.123 103.34 120.004C106.07 121.096 105.977 124.225 105.352 126.611C104.934 128.215 104.299 129.849 104.368 131.531C104.41 132.787 104.857 133.995 105.642 134.975C106.46 135.974 107.495 136.773 108.668 137.311C109.841 137.849 111.122 138.112 112.412 138.08C113.927 138.039 115.383 137.488 116.545 136.515C116.599 136.668 116.648 136.82 116.698 136.978C113.445 139.487 108.447 138.769 105.647 135.684C103.93 133.785 103.679 131.497 104.24 129.071C104.88 126.385 106.828 121.583 102.946 120.358C100.255 119.497 97.0864 121.465 95.6153 123.595ZM100.23 141.666C100.422 140.353 100.23 138.931 99.1528 138.05C98.2231 137.384 97.0718 137.104 95.9401 137.268C94.9909 137.366 94.0701 137.649 93.2291 138.099C93.2291 138.272 93.1996 138.444 93.1898 138.616C93.5068 138.438 93.8356 138.282 94.1738 138.149C95.4677 137.627 97.1258 137.416 98.4099 138.09C100.196 139.029 99.9695 141.224 99.5021 142.882C98.3558 146.906 95.2759 149.848 92.501 152.928C92.501 153.15 92.501 153.371 92.501 153.588C93.913 151.969 95.4136 150.429 96.7519 148.746C98.4001 146.685 99.8416 144.328 100.23 141.666ZM114.887 166.153C117.942 160.845 118.675 152.741 112.496 149.307C111.285 148.609 109.899 148.275 108.503 148.343C107.107 148.412 105.76 148.882 104.624 149.696C102.164 151.438 100.653 154.252 99.4972 156.968C98.2082 160.003 97.0372 163.364 94.528 165.612C93.9489 166.143 93.2833 166.57 92.56 166.877C92.56 167.054 92.56 167.226 92.5846 167.398C95.266 166.463 97.052 163.531 98.1983 161.13C99.6055 158.178 100.55 155.024 102.553 152.407C104.555 149.789 107.63 148.038 110.961 149.174C114.528 150.39 116.57 153.912 116.702 157.538C116.948 164.166 112.274 169.651 107.512 173.651C103.148 177.307 98.2475 180.318 94.1295 184.269C94.1639 184.5 94.1984 184.731 94.2377 184.958C96.8641 182.472 99.6588 180.171 102.602 178.07C107.217 174.709 111.994 171.177 114.887 166.153ZM125.923 190.507C127.399 187.678 128.515 184.549 128.496 181.336C128.496 181.086 128.496 180.844 128.471 180.594C128.392 179.249 128.058 177.932 127.487 176.712C126.796 175.2 125.697 173.91 124.314 172.987C123.195 172.218 121.873 171.797 120.515 171.777C119.158 171.757 117.824 172.139 116.683 172.874C114.316 174.389 112.786 177.071 112.201 179.762C111.35 183.673 112.058 187.688 112.137 191.634C112.274 199.195 110.238 206.637 106.272 213.075C106.164 213.252 106.051 213.425 105.938 213.602C106.07 213.73 106.208 213.853 106.346 213.976C107.535 212.151 108.558 210.223 109.401 208.214C110.841 204.874 111.819 201.354 112.309 197.75C112.826 193.951 112.584 190.227 112.383 186.434C112.191 182.783 112.309 178.96 114.439 175.841C116.314 173.095 119.59 171.413 122.843 172.781C126.095 174.148 127.92 177.612 127.989 181.056C128.186 188.175 123.069 194.153 119.561 199.885C117.888 202.611 116.388 205.494 115.684 208.633C115.025 211.61 115.128 214.705 115.984 217.631C116.033 217.808 116.092 217.986 116.147 218.163C116.314 218.163 116.481 218.163 116.639 218.128C115.541 214.771 115.457 211.166 116.397 207.762C118.208 201.346 122.916 196.308 125.923 190.507Z" fill="white"/>
<path d="M92.7372 139.984C92.6831 151.088 92.9684 162.207 93.8885 173.268C95.0545 187.108 98.3165 216.283 116.028 217.661C118.803 217.828 121.362 217.287 123.605 215.55C126.966 213.144 129.775 210.049 132.461 206.92C137.809 200.603 142.66 193.592 147.157 186.778L146.08 185.681L147.197 186.739C145.78 189.139 144.279 191.486 142.769 193.818C138.267 200.534 127.881 215.958 120.25 218.167C110.902 220.239 103.876 213.818 100.078 205.897C91.7138 188.219 92.2058 159.56 92.7224 139.969L92.7372 139.984Z" fill="#263238"/>
<path d="M91.8219 142.734C92.0581 144.84 92.4025 146.872 92.6288 148.978C91.8668 146.99 91.5902 144.85 91.8219 142.734Z" fill="#263238"/>
<path d="M125.204 131.856C125.204 131.856 108.835 116.879 98.5772 117.588L90.1197 125.608C90.1197 125.608 87.2907 126.641 86.3412 124.855C84.0042 120.427 83.2071 109.603 92.2993 102.262C100.629 95.5267 118.208 96.2598 129.982 98.9461C141.298 101.524 147.694 107.915 144.491 115.34C141.288 122.764 125.204 131.856 125.204 131.856Z" fill="#8EC3B0"/>
<path opacity="0.1" d="M126.213 128.383C126.213 128.383 138.759 118.774 139.905 113.283C141.052 107.792 129.982 102.951 122.877 101.155C111.881 98.3656 104.486 99.3152 98.5772 105.332C92.6683 111.349 126.213 128.383 126.213 128.383Z" fill="black"/>
<path d="M128.023 126.552C122.159 127.29 113.263 117.494 110.159 109.991C109.947 109.499 111.241 104.437 112.525 98.2376C113.288 94.4738 114.051 90.2672 114.469 86.3755C114.552 85.5735 138.237 94.9215 138.237 94.9215C138.237 94.9215 134.965 102.823 134.277 109.613C134.23 110.15 134.23 110.689 134.277 111.226C134.277 111.3 134.277 111.394 134.277 111.497C134.449 114.582 133.691 125.834 128.023 126.552Z" fill="#FF928E"/>
<path d="M131.763 111.354C132.595 111.475 133.436 111.521 134.277 111.492C134.277 111.389 134.277 111.3 134.277 111.221C134.225 110.685 134.225 110.144 134.277 109.608C134.961 102.828 138.213 94.9264 138.213 94.9264C138.213 94.9264 118.985 87.3348 115.089 86.4148C115.413 90.9904 117.401 109.495 131.763 111.354Z" fill="#263238"/>
<path d="M106.705 66.789C106.09 75.8664 116.259 99.3151 123.561 103.374C134.144 109.278 148.653 106.685 152.913 94.6165C157.061 82.9118 143.265 52.5898 135.374 49.195C123.758 44.1914 107.615 53.377 106.705 66.789Z" fill="#FF928E"/>
<path d="M134.06 76.5797C134.021 76.5256 133.967 76.7077 133.996 76.7716C134.724 78.3362 135.295 80.2451 134.09 81.3817C134.05 81.421 134.09 81.4948 134.139 81.4653C135.792 80.4715 135 77.9426 134.06 76.5797Z" fill="#263238"/>
<path d="M131.94 75.5319C129.312 76.4322 131.295 81.6228 133.731 80.7914C136.166 79.9599 134.144 74.784 131.94 75.5319Z" fill="#263238"/>
<path d="M143.841 72.5946C143.841 72.5257 143.994 72.5946 144.018 72.6881C144.579 74.3166 145.494 76.0829 147.162 76.0632C147.211 76.0632 147.236 76.1419 147.162 76.1567C145.312 76.5847 144.112 74.2231 143.841 72.5946Z" fill="#263238"/>
<path d="M144.648 70.3559C147.157 69.1702 149.347 74.2919 147.019 75.3743C144.692 76.4567 142.527 71.3399 144.648 70.3559Z" fill="#263238"/>
<path d="M129.706 75.7383C130.423 75.4842 131.126 75.1918 131.812 74.8626C132.619 74.5182 133.288 74.3263 133.78 73.5588C133.897 73.3274 133.934 73.0637 133.885 72.809C133.836 72.5543 133.704 72.3231 133.509 72.1516C132.638 71.4579 131.541 71.635 130.557 72.0139C129.552 72.3527 128.71 73.0546 128.196 73.9819C127.659 74.956 128.722 76.0434 129.706 75.7383Z" fill="#263238"/>
<path d="M144.766 66.0608C144.015 66.1852 143.258 66.2706 142.498 66.3167C141.627 66.4052 140.938 66.5627 140.136 66.1346C139.922 65.9888 139.761 65.7763 139.679 65.5299C139.597 65.2836 139.599 65.0171 139.684 64.7718C140.117 63.7435 141.16 63.3696 142.198 63.222C143.247 63.0363 144.328 63.2486 145.229 63.8173C146.173 64.388 145.77 65.8542 144.766 66.0608Z" fill="#263238"/>
<path d="M138.203 91.5121C138.729 91.7433 139.315 92.1123 139.915 91.9401C140.509 91.6988 141.045 91.335 141.489 90.8725C141.498 90.8612 141.51 90.8532 141.524 90.8501C141.537 90.847 141.552 90.8488 141.564 90.8554C141.576 90.8619 141.586 90.8727 141.591 90.8857C141.597 90.8988 141.597 90.9133 141.593 90.9266C141.483 91.3308 141.267 91.698 140.966 91.9898C140.666 92.2815 140.293 92.487 139.885 92.5846C139.108 92.7322 138.508 92.2402 138.075 91.6449C138.016 91.5514 138.124 91.4678 138.203 91.5121Z" fill="#263238"/>
<path d="M139.197 88.9683C140.919 87.3693 143.625 86.6116 145.381 86.1738C145.553 86.0754 145.583 85.6424 145.544 85.4555L144.122 82.1C144.658 82.1492 147.334 82.287 147.049 81.6621C144.678 76.4961 142.041 70.7496 138.592 66.1051C138.571 66.0686 138.536 66.0418 138.496 66.0307C138.455 66.0197 138.412 66.0252 138.375 66.0461C138.339 66.0669 138.312 66.1015 138.301 66.1421C138.29 66.1827 138.295 66.226 138.316 66.2625C140.397 71.3154 143.354 75.9746 145.529 81.0225C144.692 81.0225 143.31 80.9783 142.675 81.2439C142.518 81.3571 144.363 84.7175 144.515 85.2882C144.515 85.2882 140.894 85.5785 138.902 88.2943C138.38 88.9831 138.37 89.7309 139.197 88.9683Z" fill="#263238"/>
<path d="M111.935 89.052C115.901 88.6879 117.037 82.1935 117.106 79.6056C117.175 77.0176 113.544 67.3892 114.016 63.3696C114.488 59.3499 118.213 56.7128 121.495 56.4816C124.776 56.2503 130.065 58.666 132.166 57.6427C134.267 56.6193 133.002 51.6993 134.518 51.1237C137.854 49.8592 142.39 56.7325 144.387 60.1617C144.387 60.1617 140.082 43.4337 122.38 48.3537C106.238 52.7817 105.298 65.4901 105.726 70.7053C106.538 80.6486 111.935 89.052 111.935 89.052Z" fill="#263238"/>
<path d="M135.635 87.1971C134.318 87.5765 132.921 87.5786 131.603 87.2034C130.285 86.8281 129.099 86.0906 128.18 85.0746C127.26 84.0586 126.645 82.8049 126.402 81.4562C126.16 80.1075 126.301 78.7179 126.81 77.4455C127.318 76.1731 128.174 75.0689 129.279 74.2586C130.384 73.4482 131.694 72.9643 133.06 72.8618C134.427 72.7593 135.795 73.0424 137.008 73.6788C138.222 74.3152 139.232 75.2794 139.925 76.4617C140.904 78.1378 141.178 80.1335 140.687 82.0113C140.196 83.8891 138.981 85.4957 137.307 86.4788C136.781 86.7859 136.22 87.0272 135.635 87.1971ZM131.856 74.0657C131.349 74.2108 130.863 74.4208 130.41 74.6905C129.024 75.5074 128.002 76.8216 127.551 78.3656C127.101 79.9097 127.256 81.5674 127.984 83.0012C128.713 84.4351 129.961 85.5373 131.474 86.0834C132.987 86.6294 134.651 86.5784 136.128 85.9405C137.604 85.3027 138.782 84.1261 139.421 82.6502C140.061 81.1744 140.114 79.5103 139.569 77.9968C139.025 76.4833 137.924 75.2342 136.491 74.5039C135.058 73.7735 133.401 73.6168 131.856 74.0657Z" fill="#EBEBEB"/>
<path d="M151.088 80.6092C148.397 81.3866 145.184 79.3349 143.708 75.8122C142.971 74.1412 142.777 72.281 143.152 70.4937C143.292 69.7263 143.614 69.0038 144.092 68.3872C144.57 67.7707 145.189 67.2781 145.898 66.9513C147.275 66.3707 148.85 66.5626 150.35 67.4728C151.888 68.4565 153.08 69.8963 153.76 71.5908C155.319 75.3153 154.335 79.2906 151.565 80.4468C151.41 80.5123 151.251 80.5666 151.088 80.6092ZM146.616 67.7336C146.496 67.7679 146.377 67.809 146.262 67.8566C145.696 68.1241 145.204 68.524 144.826 69.0226C144.448 69.5211 144.197 70.1034 144.092 70.72C143.762 72.3041 143.934 73.9515 144.584 75.4334C145.942 78.656 148.884 80.5108 151.162 79.5514C153.44 78.592 154.183 75.1972 152.83 71.9697C152.232 70.4655 151.18 69.1857 149.819 68.3092C149.354 67.9958 148.83 67.7828 148.278 67.6837C147.727 67.5846 147.16 67.6015 146.616 67.7336Z" fill="#EBEBEB"/>
<path d="M140.023 77.3374L139.152 76.8897C139.817 75.6006 141.701 73.4457 144.072 74.5232L143.674 75.4137C141.548 74.4494 140.087 77.2439 140.023 77.3374Z" fill="#EBEBEB"/>
<path d="M110.7 91.6988L109.716 91.6201C109.751 91.1675 110.124 87.1429 112.004 85.972C113.76 84.8797 126.331 80.9339 126.862 80.7666L127.157 81.7014C123.551 82.8281 113.873 85.9523 112.52 86.7985C111.271 87.5759 110.769 90.5968 110.7 91.6988Z" fill="#EBEBEB"/>
<path d="M118.193 85.977C118.193 85.977 110.7 79.4925 107.6 82.3658C104.501 85.239 111.571 95.6104 116.166 96.1122C120.761 96.6141 121.303 92.3632 121.303 92.3632L118.193 85.977Z" fill="#FF928E"/>
<path d="M109.716 85.2882C109.7 85.2882 109.685 85.2945 109.674 85.3055C109.663 85.3166 109.657 85.3316 109.657 85.3473C109.657 85.3629 109.663 85.378 109.674 85.389C109.685 85.4001 109.7 85.4063 109.716 85.4063C112.963 85.854 115.207 88.191 117.007 90.7445C115.856 89.8786 114.513 89.5834 113.317 90.9954C113.258 91.0692 113.362 91.1726 113.44 91.1332C114.577 90.5674 115.502 90.5576 116.56 91.3152C117.285 91.8977 117.945 92.5576 118.528 93.2832C118.734 93.5096 119.172 93.2488 118.995 92.9733C118.985 92.9503 118.972 92.9288 118.956 92.9093C118.08 89.1554 113.819 84.624 109.716 85.2882Z" fill="#263238"/>
<path d="M126.213 128.382C126.213 128.382 112.786 107.295 96.8452 105.696L98.5771 117.588C98.5771 117.588 108.043 117.293 125.204 131.856L126.213 128.382Z" fill="#8EC3B0"/>
<path d="M94.3066 117.937C97.1996 117.48 100.107 118.026 102.863 118.793C105.623 119.615 108.28 120.749 110.784 122.174C113.307 123.567 115.735 125.127 118.051 126.843L121.46 129.514L124.752 132.343L125.121 132.663L125.514 132.446C128.423 130.824 131.217 129.004 133.878 127C135.224 126.016 136.509 124.952 137.726 123.812C138.954 122.688 140.069 121.447 141.056 120.107C138.783 122.528 136.092 124.442 133.371 126.282C132.004 127.192 130.597 128.048 129.175 128.87C127.753 129.691 126.326 130.523 124.88 131.266L125.637 131.364L122.341 128.437C121.204 127.507 120.043 126.602 118.897 125.701C117.75 124.801 116.481 124.009 115.236 123.241C113.992 122.474 112.712 121.706 111.374 121.076C108.746 119.709 105.953 118.683 103.064 118.026C102.351 117.849 101.613 117.75 100.885 117.627C100.157 117.504 99.4087 117.475 98.6756 117.465C97.203 117.374 95.7257 117.534 94.3066 117.937Z" fill="#263238"/>
<path d="M90.1196 125.608C91.6936 124.457 93.1878 123.201 94.5919 121.849C96.0166 120.518 97.3481 119.091 98.5771 117.578C97.0005 118.725 95.5045 119.98 94.0999 121.332C92.6793 122.667 91.3496 124.095 90.1196 125.608Z" fill="#263238"/>
<path d="M120.137 124.181C119.633 129.2 119.564 134.254 119.93 139.285C120.161 142.798 122.601 155.251 126.459 154.458C130.316 153.666 123.266 146.094 121.573 139.571C119.861 132.938 121.239 128.028 121.13 124.038L120.137 124.181Z" fill="#8EC3B0"/>
<g opacity="0.1">
<path d="M120.137 124.181C119.633 129.2 119.564 134.254 119.93 139.285C120.161 142.798 122.601 155.251 126.459 154.458C130.316 153.666 123.266 146.094 121.573 139.571C119.861 132.938 121.239 128.028 121.13 124.038L120.137 124.181Z" fill="black"/>
</g>
<path d="M133.293 124.806C135.018 129.042 136.374 133.419 137.347 137.888C138.05 141.002 139.128 152.461 135.571 152.761C132.013 153.061 136.2 144.678 135.994 138.557C135.792 132.348 133.332 128.412 132.392 124.934L133.293 124.806Z" fill="#8EC3B0"/>
<g opacity="0.1">
<path d="M133.293 124.806C135.018 129.042 136.374 133.419 137.347 137.888C138.05 141.002 139.128 152.461 135.571 152.761C132.013 153.061 136.2 144.678 135.994 138.557C135.792 132.348 133.332 128.412 132.392 124.934L133.293 124.806Z" fill="black"/>
</g>
<path d="M118.523 215.324C128.992 213.715 146.148 190.129 157.022 163.172C159.093 158.04 119.251 137.293 117.662 143C112.604 161.307 102.7 185.253 103.02 200.023C103.281 211.506 111.285 216.441 118.523 215.324Z" fill="#FF928E"/>
<path d="M137.16 123.571C134.621 120.461 134.232 111.763 131.954 106.636C129.676 101.509 123 99.1035 121.824 100.988C120.648 102.872 122.39 104.771 122.936 113.194C123.285 118.606 119.138 129.43 120.909 139.27C121.8 144.205 139.728 126.68 137.16 123.571Z" fill="#F7A9A0"/>
<path d="M137.16 123.571C134.621 120.461 134.232 111.763 131.954 106.636C129.676 101.509 123 99.1035 121.824 100.988C120.648 102.872 122.39 104.771 122.936 113.194C123.285 118.606 119.138 129.43 120.909 139.27C121.8 144.205 139.728 126.68 137.16 123.571Z" fill="#FF928E"/>
<path opacity="0.06" d="M137.16 123.571C134.621 120.461 134.232 111.763 131.954 106.636C129.676 101.509 123 99.1035 121.824 100.988C120.648 102.872 122.39 104.771 122.936 113.194C123.285 118.606 119.138 129.43 120.909 139.27C121.8 144.205 139.728 126.68 137.16 123.571Z" fill="black"/>
<path d="M156.948 97.1159C160.505 100.432 151.58 108.506 151.58 108.506C151.58 108.506 154.823 107.63 157.642 109.204C160.869 111 159.462 116.855 159.462 116.855C159.462 116.855 162.931 116.648 165.74 118.607C168.658 120.643 168.077 126.749 168.077 126.749C168.077 126.749 171.413 128.333 172.623 131.768C174.699 137.647 168.195 144.697 165.046 149.858C161.666 155.383 157.425 162.242 154.995 165.647L116.889 146.262C116.889 146.262 123.418 117.121 128.589 112.132C132.963 107.93 151.536 92.0434 156.948 97.1159Z" fill="#FF928E"/>
<path d="M151.428 108.481C145.721 111.837 140.83 116.55 136.176 121.15C136.154 121.172 136.142 121.201 136.142 121.231C136.142 121.262 136.154 121.291 136.176 121.312C136.197 121.334 136.226 121.346 136.257 121.346C136.287 121.346 136.317 121.334 136.338 121.312C140.928 116.683 146.867 113.17 151.629 108.732C151.663 108.705 151.684 108.666 151.689 108.624C151.693 108.581 151.681 108.539 151.654 108.506C151.627 108.472 151.588 108.451 151.546 108.446C151.504 108.442 151.461 108.454 151.428 108.481Z" fill="#263238"/>
<path d="M159 116.643C157.73 117.44 156.732 118.656 155.728 119.748C154.646 120.924 153.583 122.124 152.545 123.334C150.459 125.762 148.433 128.24 146.469 130.769C146.38 130.882 146.532 131.044 146.631 130.931C148.712 128.515 150.833 126.129 153.027 123.807C154.119 122.642 155.221 121.494 156.333 120.363C157.361 119.295 158.542 118.257 159.32 116.978C159.342 116.957 159.359 116.932 159.371 116.904C159.384 116.876 159.39 116.846 159.391 116.816C159.392 116.785 159.386 116.755 159.375 116.727C159.364 116.698 159.348 116.673 159.327 116.651C159.306 116.629 159.281 116.611 159.253 116.599C159.225 116.587 159.195 116.58 159.165 116.579C159.135 116.578 159.104 116.584 159.076 116.595C159.048 116.606 159.022 116.622 159 116.643Z" fill="#263238"/>
<path d="M168.003 126.847C166.872 127.497 166.035 128.815 165.204 129.799C164.279 130.928 163.346 132.05 162.404 133.165C160.525 135.393 158.645 137.622 156.687 139.787C156.589 139.895 156.751 140.058 156.85 139.949C158.847 137.76 160.874 135.6 162.852 133.391C163.836 132.309 164.802 131.22 165.75 130.124C166.567 129.194 167.693 128.127 168.116 126.941C168.121 126.926 168.122 126.91 168.117 126.894C168.113 126.879 168.104 126.866 168.092 126.855C168.08 126.845 168.065 126.839 168.049 126.838C168.033 126.836 168.017 126.84 168.003 126.847Z" fill="#263238"/>
<path d="M152.712 96.127C146.242 98.8034 138.488 104.491 133.942 108.024C132.245 109.339 130.618 110.741 129.066 112.225C127.561 113.736 126.577 115.669 125.622 117.563C124.968 118.848 124.412 120.181 123.861 121.499C124.845 118.055 126.026 114.395 128.476 111.659C130.007 110.097 131.641 108.639 133.367 107.295C137.942 103.778 142.636 100.211 147.959 97.9129L152.712 96.127Z" fill="#263238"/>
<path d="M109.465 153.632L147.177 186.758C147.177 186.758 127.458 218.63 118.262 218.005C109.067 217.38 99.0742 211.427 99.8269 189.322C100.009 183.787 109.465 153.632 109.465 153.632Z" fill="#8EC3B0"/>
<path d="M102.651 178.104L102.159 178.458C102.228 178.193 102.302 177.927 102.37 177.656C104.117 176.362 105.864 175.063 107.527 173.666C111.723 170.153 115.832 165.489 116.594 159.89L116.968 160.22C116.625 162.297 115.914 164.297 114.867 166.124C111.994 171.177 107.217 174.709 102.651 178.104ZM124.324 172.992C123.204 172.223 121.883 171.802 120.525 171.782C119.167 171.762 117.834 172.144 116.693 172.879C114.326 174.394 112.796 177.076 112.21 179.767C111.359 183.678 112.068 187.693 112.147 191.639C112.28 199.125 110.282 206.495 106.385 212.888C106.518 213.026 106.656 213.159 106.794 213.287C107.789 211.662 108.663 209.964 109.406 208.209C110.846 204.869 111.824 201.349 112.314 197.745C112.83 193.946 112.589 190.222 112.388 186.429C112.196 182.778 112.314 178.955 114.444 175.836C116.319 173.09 119.595 171.408 122.848 172.776C126.1 174.143 127.92 177.612 127.989 181.056C128.186 188.175 123.069 194.153 119.561 199.885C117.888 202.61 116.388 205.494 115.684 208.633C115.025 211.61 115.128 214.705 115.984 217.631C115.995 217.673 116.008 217.714 116.023 217.754L116.55 217.838C115.539 214.562 115.488 211.066 116.402 207.762C118.208 201.366 122.916 196.342 125.923 190.542C127.492 187.496 128.688 184.101 128.471 180.628C128.424 179.119 128.024 177.642 127.304 176.315C126.584 174.989 125.563 173.849 124.324 172.987V172.992ZM135.374 198.906C132.717 199.166 130.385 200.874 129.814 203.555C129.411 205.474 129.883 207.442 130.705 209.248C130.818 209.115 130.941 208.982 131.059 208.849C129.795 205.848 129.583 202.02 132.791 200.17C133.632 199.702 134.564 199.419 135.524 199.341C136.484 199.263 137.449 199.391 138.355 199.718C138.454 199.585 138.547 199.452 138.651 199.319C137.603 198.937 136.484 198.794 135.374 198.901V198.906ZM146.769 186.404C145.59 186.697 144.36 186.718 143.172 186.468C138.528 185.484 135.025 180.918 135.413 176.421L134.921 175.974C134.159 181.115 138.449 186.256 143.507 187.044C144.726 187.221 145.97 187.132 147.152 186.783L147.177 186.739L146.769 186.404Z" fill="white"/>
<path d="M109.047 167.334C110.892 168.874 112.614 170.576 114.365 172.22C116.117 173.863 117.859 175.531 119.576 177.218C123.006 180.593 126.409 183.993 129.785 187.417C130.705 188.357 131.625 189.297 132.53 190.256C133.435 191.216 134.336 192.426 135.315 193.435C135.326 193.452 135.331 193.472 135.33 193.493C135.328 193.513 135.319 193.532 135.304 193.547C135.289 193.562 135.27 193.571 135.25 193.573C135.229 193.574 135.209 193.569 135.192 193.558C134.336 192.746 133.361 192.052 132.486 191.255C131.61 190.458 130.69 189.582 129.804 188.731C128.072 187.062 126.347 185.386 124.628 183.703C121.184 180.338 117.775 176.948 114.454 173.474C112.579 171.506 110.626 169.578 108.87 167.506C108.847 167.483 108.834 167.451 108.835 167.418C108.835 167.386 108.849 167.354 108.872 167.332C108.896 167.309 108.927 167.296 108.96 167.297C108.993 167.297 109.024 167.311 109.047 167.334Z" fill="#263238"/>
<path d="M113.736 157.386L109.376 153.735L109.588 153.676C107.517 161.489 105.229 169.243 103.084 177.031C102.093 180.399 101.272 183.815 100.624 187.265C100.062 191.757 100.049 196.3 100.584 200.795C99.5004 196.33 99.1515 191.719 99.5512 187.142C100.619 179.59 103.039 172.303 105.293 165.046C106.577 161.135 107.935 157.253 109.406 153.406L109.549 153.533L113.731 157.386H113.736Z" fill="#263238"/>
<path d="M221.858 168.412C215.403 177.15 208.677 187.29 207.039 198.247C207.039 198.409 207.285 198.463 207.324 198.301C208.066 195.313 209.02 192.381 210.178 189.528C214.419 188.362 218.581 187.403 220.81 183.191C223.083 178.862 222.778 173.223 222.359 168.505C222.33 168.264 221.986 168.264 221.858 168.412Z" fill="#8EC3B0"/>
<path d="M210.242 189.445C213.139 182.94 216.859 176.412 221.587 171.063C221.594 171.056 221.603 171.052 221.612 171.052C221.622 171.051 221.632 171.055 221.639 171.061C221.646 171.068 221.65 171.077 221.651 171.086C221.651 171.096 221.648 171.106 221.641 171.113C218.547 174.926 216.19 179.073 213.892 183.295C216.032 181.125 218.369 179.181 220.396 176.899C220.436 176.849 220.5 176.899 220.46 176.963C218.448 179.373 216.254 181.991 213.641 183.777C212.939 185.069 212.229 186.366 211.511 187.668C211.688 187.57 211.87 187.482 212.047 187.393C212.082 187.393 212.106 187.427 212.077 187.442C211.875 187.545 211.678 187.649 211.472 187.737C211.132 188.352 210.798 188.967 210.448 189.582C210.37 189.7 210.178 189.582 210.242 189.445Z" fill="#263238"/>
<path d="M212.397 187.177C214.13 186.203 215.787 185.098 217.351 183.87C217.39 183.836 217.454 183.87 217.41 183.929C215.903 185.236 214.252 186.366 212.49 187.3C212.387 187.339 212.318 187.221 212.397 187.177Z" fill="#263238"/>
<path d="M206.291 196.618C206.291 196.751 206.532 196.746 206.527 196.618C206.561 193.012 206.527 189.386 206.586 185.76C207.511 183.895 209.494 182.862 210.876 181.371C211.868 180.277 212.731 179.074 213.449 177.784C215.11 174.704 216.127 171.317 216.436 167.831C216.815 163.974 215.348 151.236 213.725 151.679C212.879 151.905 210.148 158.217 209.425 160.299C208.25 163.74 207.391 167.28 206.856 170.877C205.538 179.354 205.656 188.072 206.291 196.618Z" fill="#8EC3B0"/>
<path d="M206.266 181.056C206.463 176.49 207.491 171.88 208.451 167.452C209.489 162.68 210.704 158.188 213.159 153.932C213.203 153.853 213.321 153.932 213.277 154.006C211.641 157.316 210.374 160.795 209.499 164.382C209.666 164.121 209.863 163.89 210.035 163.634C210.104 163.541 210.261 163.634 210.192 163.728C209.974 164.114 209.717 164.477 209.425 164.81C209.415 164.814 209.405 164.814 209.395 164.81C208.549 168.22 207.944 171.698 207.427 175.187L207.545 175.054C207.57 175.024 207.614 175.054 207.599 175.093C207.535 175.211 207.462 175.324 207.393 175.442C207.127 177.209 206.901 178.97 206.645 180.717C209.789 178.03 212.47 174.862 213.986 170.955C213.986 170.955 214.025 170.955 214.015 170.955C212.539 175.005 210.192 178.601 206.591 181.061C206.527 181.553 206.463 182.001 206.394 182.468C206.394 182.567 206.227 182.542 206.227 182.468C206.227 182.05 206.227 181.632 206.266 181.218C206.252 181.21 206.24 181.198 206.232 181.184C206.223 181.17 206.219 181.154 206.219 181.137C206.219 181.121 206.223 181.105 206.232 181.09C206.24 181.076 206.252 181.064 206.266 181.056Z" fill="#263238"/>
<path d="M207.747 174.434C210.153 170.847 212.396 167.364 214.143 163.403C214.143 163.359 214.241 163.403 214.222 163.433C212.746 167.369 210.665 171.364 207.86 174.527C207.811 174.591 207.698 174.507 207.747 174.434Z" fill="#263238"/>
<path d="M210.94 162.517C211.924 160.756 212.987 159.039 213.922 157.243C213.951 157.194 214.02 157.243 213.996 157.287C213.23 159.162 212.258 160.946 211.098 162.606C211.029 162.695 210.886 162.616 210.94 162.517Z" fill="#263238"/>
<path d="M210.576 163.28V163.314C210.576 163.314 210.532 163.28 210.576 163.28Z" fill="#263238"/>
<path d="M203.85 186.183C203.802 188.574 203.521 190.955 203.009 193.292C203.044 193.548 203.083 193.784 203.117 194.069C203.857 191.488 204.285 188.827 204.392 186.143C204.414 186.106 204.425 186.064 204.425 186.02C204.425 185.977 204.414 185.935 204.392 185.897C204.499 182.298 204.235 178.697 203.604 175.152C202.488 168.525 200.047 162.158 195.422 157.189C195.384 157.161 195.341 157.141 195.294 157.13C195.248 157.12 195.2 157.12 195.153 157.129C195.107 157.139 195.063 157.159 195.024 157.187C194.986 157.215 194.954 157.251 194.93 157.292C193.066 162.04 193.715 167.703 195.304 172.436C196.169 174.999 197.406 177.421 198.975 179.624C200.539 181.858 202.561 183.742 203.85 186.183Z" fill="#8EC3B0"/>
<path d="M195.968 159.408C200.352 166.522 203.403 174.955 203.772 183.359C203.772 183.506 203.531 183.546 203.511 183.393C203.408 182.64 203.289 181.893 203.171 181.15C201.356 179.413 199.496 177.583 198.197 175.408C198.197 175.374 198.232 175.324 198.261 175.364C199.768 177.208 201.381 178.962 203.093 180.618C202.765 178.762 202.389 176.933 201.966 175.132C201.848 174.995 201.735 174.857 201.617 174.724C201.499 174.591 201.671 174.503 201.749 174.596L201.853 174.709C201.237 172.239 200.471 169.809 199.56 167.433C198.448 166.104 197.198 164.973 196.387 163.349C196.383 163.341 196.383 163.333 196.386 163.325C196.388 163.317 196.394 163.31 196.401 163.306C196.408 163.302 196.417 163.3 196.425 163.302C196.433 163.303 196.441 163.308 196.446 163.315C197.1 164.235 197.73 165.155 198.473 166.006C198.768 166.345 199.093 166.66 199.398 166.99C198.39 164.411 197.192 161.909 195.816 159.507C195.813 159.487 195.815 159.468 195.823 159.45C195.83 159.432 195.843 159.417 195.86 159.407C195.876 159.396 195.895 159.391 195.914 159.391C195.934 159.391 195.953 159.397 195.968 159.408Z" fill="#263238"/>
<path d="M196.854 168.185C198.271 170.089 199.885 171.91 201.203 173.883C201.243 173.937 201.159 173.996 201.11 173.952C199.417 172.363 197.986 170.198 196.761 168.24C196.721 168.181 196.8 168.126 196.854 168.185Z" fill="#263238"/>
<path d="M201.4 174.321L201.459 174.385C201.504 174.424 201.459 174.488 201.395 174.449L201.336 174.39C201.292 174.345 201.361 174.281 201.4 174.321Z" fill="#263238"/>
<path d="M189.1 173.086C189.455 176.746 191.378 181.115 193.725 183.934C194.758 185.162 196.037 186.159 197.479 186.862C199.103 187.669 200.805 188.594 202.483 189.253C203.283 191.286 203.876 193.394 204.254 195.546L204.416 194.99C203.339 185.725 197.341 177.804 189.656 172.722C189.597 172.686 189.528 172.668 189.459 172.669C189.39 172.67 189.322 172.691 189.264 172.729C189.206 172.767 189.16 172.821 189.131 172.884C189.102 172.947 189.091 173.017 189.1 173.086Z" fill="#8EC3B0"/>
<path d="M191.752 175.821C191.698 175.772 191.752 175.678 191.831 175.723C196.045 178.855 199.405 182.997 201.602 187.767C201.656 187.89 201.484 188.003 201.41 187.875C201.056 187.25 200.692 186.645 200.323 186.045C198.571 185.715 196.913 184.48 195.614 183.309C195.58 183.28 195.614 183.231 195.663 183.26C196.334 183.87 197.08 184.393 197.882 184.815C198.596 185.179 199.358 185.405 200.106 185.696C199.45 184.669 198.773 183.685 198.074 182.744C196.184 182.026 194.412 181.031 192.815 179.792C192.808 179.789 192.802 179.785 192.797 179.78C192.792 179.775 192.788 179.769 192.786 179.762C192.784 179.755 192.783 179.748 192.783 179.741C192.784 179.734 192.786 179.727 192.79 179.721C192.794 179.715 192.798 179.709 192.804 179.705C192.81 179.701 192.817 179.698 192.824 179.697C192.831 179.696 192.838 179.696 192.845 179.698C192.852 179.7 192.859 179.703 192.864 179.708C194.446 180.666 196.078 181.538 197.754 182.32C196.686 180.913 195.536 179.569 194.31 178.296C193.715 177.981 193.11 177.666 192.534 177.312C192.525 177.305 192.518 177.296 192.515 177.285C192.511 177.274 192.512 177.262 192.517 177.251C192.522 177.241 192.53 177.232 192.54 177.227C192.551 177.222 192.562 177.221 192.574 177.223C193.053 177.392 193.51 177.617 193.937 177.892C193.228 177.189 192.515 176.495 191.752 175.821Z" fill="#263238"/>
<path d="M191.915 179.019C192.018 179.082 192.117 179.153 192.21 179.231C192.239 179.231 192.21 179.295 192.17 179.28C192.07 179.222 191.973 179.158 191.88 179.088C191.811 179.088 191.88 178.985 191.915 179.019Z" fill="#263238"/>
<path d="M216.387 215.614H195.368L197.066 196.475L197.44 192.254H214.32L214.689 196.475L216.387 215.614Z" fill="#455A64"/>
<path d="M214.689 196.475H197.066L197.44 192.254H214.32L214.689 196.475Z" fill="#263238"/>
<path d="M215.324 189.302H196.436V193.479H215.324V189.302Z" fill="#455A64"/>
<path d="M175.118 65.7707C175.204 66.7865 174.988 67.8051 174.496 68.6979C174.004 69.5907 173.258 70.3175 172.353 70.7867C171.448 71.2558 170.424 71.4461 169.411 71.3335C168.398 71.221 167.441 70.8106 166.66 70.1543C165.88 69.4979 165.312 68.6251 165.028 67.6461C164.744 66.667 164.757 65.6257 165.064 64.6538C165.372 63.6818 165.96 62.8228 166.756 62.1853C167.551 61.5478 168.518 61.1604 169.533 61.0721C170.209 61.0134 170.889 61.0884 171.535 61.2928C172.182 61.4973 172.781 61.8271 173.3 62.2635C173.818 62.6999 174.246 63.2343 174.558 63.8361C174.87 64.4379 175.06 65.0953 175.118 65.7707Z" fill="white"/>
<path d="M175.117 65.7707C175.56 70.3562 170.104 73.259 166.522 70.3217C165.979 69.8704 165.532 69.3159 165.204 68.6904C164.877 68.0648 164.678 67.3806 164.617 66.6773C164.556 65.974 164.635 65.2656 164.85 64.5932C165.065 63.9207 165.411 63.2975 165.868 62.7597C168.889 59.2468 174.768 61.1705 175.117 65.7707ZM175.117 65.7707C174.719 61.2788 169.012 59.5371 166.193 63.0303C165.372 64.0441 164.975 65.3363 165.086 66.636C165.197 67.9357 165.807 69.1419 166.788 70.0019C170.163 72.9539 175.491 70.2578 175.113 65.7707H175.117Z" fill="#263238"/>
<path d="M161.45 71.1237C161.498 71.6889 161.378 72.2558 161.105 72.7526C160.831 73.2495 160.416 73.6541 159.913 73.9153C159.409 74.1764 158.839 74.2824 158.275 74.2198C157.712 74.1572 157.179 73.9289 156.745 73.5636C156.311 73.1984 155.995 72.7127 155.837 72.1679C155.679 71.6231 155.686 71.0436 155.858 70.5029C156.029 69.9621 156.357 69.4843 156.799 69.1297C157.242 68.7752 157.78 68.56 158.345 68.5112C159.103 68.4471 159.856 68.6861 160.438 69.1758C161.019 69.6655 161.384 70.366 161.45 71.1237Z" fill="white"/>
<path d="M161.45 71.1237C161.49 71.6181 161.408 72.1148 161.209 72.5693C161.01 73.0238 160.702 73.4219 160.311 73.7278C159.921 74.0337 159.46 74.2378 158.972 74.3219C158.483 74.4061 157.981 74.3675 157.51 74.2097C157.04 74.0519 156.616 73.7798 156.277 73.4179C155.938 73.0559 155.694 72.6154 155.567 72.1359C155.44 71.6564 155.434 71.1529 155.55 70.6705C155.665 70.1881 155.899 69.742 156.23 69.3722C156.621 68.9402 157.13 68.6314 157.694 68.4835C158.258 68.3355 158.853 68.3547 159.406 68.5387C159.959 68.7228 160.447 69.0638 160.81 69.5201C161.173 69.9765 161.395 70.5285 161.45 71.109V71.1237ZM161.45 71.1237C161.017 67.4977 155.772 67.9799 155.979 71.6157C156.397 75.2172 161.647 74.7891 161.45 71.1237Z" fill="#263238"/>
<path d="M220.16 43.6552C220.478 46.2753 220.101 48.9327 219.069 51.3616C218.036 53.7904 216.384 55.9054 214.277 57.4947C212.17 59.0841 209.682 60.092 207.063 60.4176C204.444 60.7432 201.786 60.3751 199.354 59.35C198.171 60.8945 196.648 62.1451 194.903 63.0044C193.158 63.8637 191.239 64.3086 189.293 64.3043C187.348 64.3 185.431 63.8467 183.689 62.9797C181.948 62.1127 180.431 60.8554 179.255 59.3058C178.705 59.4742 178.14 59.5927 177.568 59.66C175.601 59.8994 173.607 59.5637 171.828 58.6935C170.048 57.8233 168.558 56.4559 167.54 54.7567C166.521 53.0576 166.016 51.0996 166.087 49.1197C166.158 47.1398 166.802 45.223 167.939 43.6011C165.715 40.7779 164.574 37.2524 164.722 33.6613C164.87 30.0703 166.297 26.6506 168.746 24.0199C171.195 21.3893 174.504 19.7211 178.075 19.3168C181.646 18.9125 185.245 19.7987 188.22 21.8154C189.613 20.0727 191.444 18.7303 193.525 17.9248C195.606 17.1192 197.863 16.8791 200.067 17.229C202.271 17.579 204.343 18.5063 206.072 19.9168C207.802 21.3274 209.126 23.1707 209.912 25.2594C210.437 25.0804 210.98 24.9568 211.531 24.8904C213.206 24.6853 214.905 24.9984 216.398 25.7875C217.89 26.5765 219.105 27.8038 219.88 29.3041C220.654 30.8045 220.95 32.506 220.729 34.1797C220.507 35.8535 219.778 37.4192 218.64 38.6664C219.439 40.2259 219.954 41.9152 220.16 43.6552Z" fill="white"/>
<path d="M220.16 43.6553C220.479 46.2815 220.103 48.9453 219.07 51.3809C218.038 53.8165 216.384 55.9386 214.275 57.5354C212.166 59.1323 209.675 60.1479 207.05 60.481C204.426 60.8141 201.76 60.453 199.319 59.4337L199.422 59.4042C198.232 60.9656 196.697 62.2311 194.937 63.1022C193.178 63.9733 191.241 64.4265 189.277 64.4265C187.314 64.4265 185.377 63.9733 183.617 63.1022C181.858 62.2311 180.323 60.9656 179.132 59.4042L179.3 59.4583C178.531 59.6947 177.736 59.8319 176.933 59.8667C168.264 60.403 162.788 50.5925 167.772 43.4732V43.7389C160.343 34.4254 166.232 20.4378 178.06 19.1389C181.671 18.7352 185.307 19.6394 188.308 21.6875L188.106 21.7219C194.251 14.0516 206.546 16.0246 209.986 25.2299L209.892 25.1856C210.541 24.9631 211.219 24.8323 211.904 24.7969C213.562 24.6739 215.219 25.0512 216.66 25.8802C218.101 26.7092 219.26 27.9517 219.988 29.4468C220.715 30.9419 220.976 32.6208 220.739 34.2663C220.501 35.9117 219.775 37.448 218.655 38.6762C219.458 40.2296 219.97 41.9172 220.165 43.6553H220.16ZM220.16 43.6553C219.948 41.9129 219.429 40.222 218.625 38.6615C219.838 37.3081 220.568 35.5913 220.703 33.779C220.837 31.9667 220.367 30.1609 219.367 28.6437C218.367 27.1265 216.892 25.9832 215.174 25.3923C213.455 24.8014 211.589 24.7962 209.867 25.3775C206.487 16.3099 194.36 14.3321 188.333 21.9335L188.249 22.0417L188.131 21.963C185.189 19.9645 181.627 19.0912 178.094 19.503C166.601 20.8314 160.987 34.386 168.116 43.4683L168.22 43.6012L168.126 43.734C163.305 50.5679 168.559 60.029 176.913 59.5518C177.728 59.5182 178.536 59.3776 179.314 59.1336C180.468 60.6873 181.967 61.9523 183.692 62.8291C185.417 63.7059 187.323 64.1707 189.258 64.1869C191.193 64.2031 193.106 63.7703 194.846 62.9225C196.585 62.0747 198.105 60.835 199.285 59.3009L199.329 59.2468L199.388 59.2763C201.811 60.2979 204.46 60.6659 207.071 60.3436C209.681 60.0213 212.161 59.0199 214.263 57.4395C216.365 55.8591 218.016 53.7549 219.051 51.337C220.086 48.9191 220.468 46.2721 220.16 43.6602V43.6553Z" fill="#263238"/>
<path d="M194.463 42.8286L194.34 44.9098C194.334 45.1171 194.286 45.3211 194.198 45.5092C194.111 45.6973 193.986 45.8656 193.831 46.0037C193.676 46.1419 193.495 46.247 193.298 46.3127C193.102 46.3784 192.894 46.4033 192.687 46.3858C192.272 46.3617 191.884 46.1741 191.607 45.8643C191.331 45.5544 191.188 45.1475 191.211 44.7327L191.398 41.4067C191.398 41.3723 191.432 41.3772 191.437 41.3428C191.442 41.3083 191.388 41.328 191.388 41.2788C191.422 40.8678 191.612 40.4855 191.92 40.2108C192.227 39.9361 192.629 39.7901 193.041 39.8028C193.52 39.8447 194.003 39.7898 194.46 39.6415C194.918 39.4933 195.341 39.2546 195.705 38.9397C196.068 38.6249 196.365 38.2402 196.577 37.8085C196.789 37.3768 196.912 36.9069 196.939 36.4266C196.966 35.9464 196.897 35.4657 196.734 35.0129C196.572 34.5601 196.32 34.1446 195.995 33.7909C195.669 33.4372 195.275 33.1526 194.837 32.9539C194.399 32.7552 193.925 32.6466 193.445 32.6344C192.823 32.5976 192.203 32.7252 191.647 33.0042C191.091 33.2831 190.618 33.7037 190.276 34.2235C190.168 34.4069 190.024 34.5664 189.852 34.6924C189.68 34.8184 189.485 34.9083 189.278 34.9567C189.07 35.005 188.856 35.0109 188.646 34.9738C188.436 34.9367 188.236 34.8575 188.058 34.741C187.88 34.6244 187.727 34.4729 187.609 34.2957C187.491 34.1185 187.411 33.9192 187.372 33.7099C187.333 33.5006 187.337 33.2855 187.384 33.0779C187.431 32.8702 187.519 32.6741 187.644 32.5015C188.257 31.5689 189.092 30.8031 190.074 30.2731C191.056 29.7431 192.154 29.4655 193.27 29.4651C194.386 29.4647 195.485 29.7417 196.468 30.271C197.45 30.8004 198.286 31.5656 198.899 32.4978C199.513 33.4301 199.885 34.5002 199.982 35.6119C200.08 36.7237 199.9 37.8422 199.458 38.8671C199.016 39.8919 198.327 40.7909 197.451 41.4832C196.576 42.1756 195.542 42.6396 194.443 42.8335L194.463 42.8286ZM194.069 49.8347L194.035 50.4103C194.028 50.6175 193.98 50.8211 193.892 51.0089C193.804 51.1966 193.679 51.3646 193.525 51.5026C193.37 51.6406 193.189 51.7458 192.993 51.8118C192.796 51.8777 192.588 51.9031 192.382 51.8863C191.967 51.8597 191.58 51.6707 191.303 51.3604C191.027 51.05 190.884 50.6433 190.906 50.2283L190.94 49.6527C190.969 49.2398 191.158 48.8546 191.467 48.579C191.776 48.3033 192.18 48.159 192.593 48.1767C192.8 48.186 193.003 48.2366 193.19 48.3255C193.376 48.4145 193.543 48.5399 193.681 48.6944C193.819 48.8489 193.924 49.0294 193.991 49.2253C194.057 49.4211 194.084 49.6283 194.069 49.8347Z" fill="#8EC3B0"/>
</svg>
