<svg width="24" height="24" viewBox="0 0 24 24" fill="none" xmlns="http://www.w3.org/2000/svg">
<path d="M16.21 13.761C16.21 14.601 16.449 14.936 17.074 14.936C18.467 14.936 19.354 13.161 19.354 10.209C19.354 5.697 16.066 3.537 11.961 3.537C7.738 3.537 3.897 6.369 3.897 11.721C3.897 16.833 7.257 19.617 12.417 19.617C14.169 19.617 15.345 19.425 17.144 18.825L17.53 20.432C15.754 21.009 13.856 21.176 12.393 21.176C5.625 21.176 2 17.456 2 11.72C2 5.936 6.201 2 11.985 2C18.009 2 21.2 5.6 21.2 10.016C21.2 13.76 20.025 16.616 16.329 16.616C14.648 16.616 13.545 15.944 13.401 14.455C12.969 16.111 11.817 16.616 10.256 16.616C8.168 16.616 6.416 15.007 6.416 11.768C6.416 8.504 7.953 6.488 10.713 6.488C12.177 6.488 13.089 7.064 13.495 7.976L14.192 6.704H16.208V13.761H16.21ZM13.259 10.593C13.259 9.274 12.274 8.721 11.458 8.721C10.57 8.721 9.587 9.44 9.587 11.553C9.587 13.233 10.331 14.169 11.458 14.169C12.25 14.169 13.259 13.665 13.259 12.273V10.593Z" fill="#8EC3B0"/>
</svg>
