<svg width="24" height="24" viewBox="0 0 24 24" fill="none" xmlns="http://www.w3.org/2000/svg">
<path d="M15.7778 10.9823V8.30678C15.7778 7.16455 15.3271 6.0691 14.5248 5.26143C13.7226 4.45375 12.6345 4 11.5 4C10.3655 4 9.27739 4.45375 8.47516 5.26143C7.67292 6.0691 7.22222 7.16455 7.22222 8.30678V10.9823C6.5696 11.7954 6.15891 12.7778 6.03764 13.816C5.91638 14.8542 6.08949 15.9058 6.53697 16.8491C6.98445 17.7924 7.68801 18.5889 8.56629 19.1465C9.44457 19.7041 10.4617 20 11.5 20C12.5383 20 13.5554 19.7041 14.4337 19.1465C15.312 18.5889 16.0155 17.7924 16.463 16.8491C16.9105 15.9058 17.0836 14.8542 16.9624 13.816C16.8411 12.7778 16.4304 11.7954 15.7778 10.9823Z" stroke="#8EC3B0" stroke-linecap="round" stroke-linejoin="round"/>
<path d="M11.5 8.71121C12.3184 8.71176 13.1254 8.91342 13.8572 9.30025V8.08899C13.8572 7.42889 13.6088 6.79583 13.1668 6.32908C12.7247 5.86232 12.1252 5.6001 11.5 5.6001C10.8749 5.6001 10.2753 5.86232 9.83327 6.32908C9.39122 6.79583 9.14288 7.42889 9.14288 8.08899V9.30025C9.87466 8.91341 10.6817 8.71174 11.5 8.71121ZM12.875 13.4816C12.8759 13.2215 12.8106 12.966 12.686 12.7418C12.5613 12.5175 12.3819 12.3327 12.1665 12.2066C11.9511 12.0806 11.7076 12.0179 11.4615 12.0252C11.2153 12.0325 10.9755 12.1095 10.7671 12.2481C10.5587 12.3867 10.3895 12.5819 10.2769 12.8132C10.1644 13.0445 10.1128 13.3034 10.1275 13.563C10.1422 13.8226 10.2226 14.0732 10.3604 14.2888C10.4982 14.5043 10.6882 14.6768 10.9107 14.7882V16.8001H12.0893V14.7882C12.3239 14.6712 12.5223 14.4863 12.6614 14.2551C12.8005 14.0238 12.8745 13.7556 12.875 13.4816Z" stroke="#8EC3B0" stroke-linecap="round" stroke-linejoin="round"/>
</svg>
