<svg width="24" height="24" viewBox="0 0 24 24" fill="none" xmlns="http://www.w3.org/2000/svg">
<path d="M9.67512 7.21699C8.53762 7.67115 7.96929 7.89865 7.90012 8.36949C7.83179 8.84032 8.30845 9.24365 9.26262 10.0495L9.50929 10.2578C9.78012 10.487 9.91512 10.602 9.99262 10.7578C10.071 10.9137 10.0818 11.0937 10.1043 11.4537L10.1243 11.7812C10.2018 13.0478 10.241 13.6812 10.6526 13.8995C11.0643 14.1178 11.576 13.777 12.5993 13.0945L12.8643 12.9178C13.1551 12.7237 13.3001 12.6262 13.4668 12.6003C13.6335 12.5737 13.8018 12.6203 14.1385 12.7137L14.4451 12.7987C15.6301 13.127 16.2226 13.2912 16.5451 12.9553C16.8685 12.6195 16.7076 12.0053 16.3868 10.7778M16.6668 8.86282C17.3218 7.79949 17.6485 7.26782 17.4368 6.84115C17.2251 6.41615 16.6135 6.37699 15.3918 6.30115L15.0751 6.28115C14.7285 6.25949 14.5551 6.24865 14.4043 6.16865C14.2535 6.08865 14.1426 5.94865 13.921 5.66865L13.7185 5.41365C12.9385 4.42782 12.5476 3.93449 12.0935 4.00699C11.6401 4.08032 11.4226 4.67032 10.9885 5.85115" stroke="#8EC3B0" stroke-width="1.5" stroke-linecap="round"/>
<path d="M7.87181 8.36768C5.92598 9.79101 4.43681 12.5135 5.20681 17.3343C5.88931 15.3243 7.94514 13.7152 10.2426 12.9402" stroke="#8EC3B0" stroke-width="1.5" stroke-linecap="round" stroke-linejoin="round"/>
<path d="M10.2335 15.6668C10.2335 15.6668 10.7618 16.8252 11.4118 17.2252C12.0618 17.6227 13.3335 17.5668 13.3335 17.5668C13.3335 17.5668 12.1752 18.0943 11.7752 18.7443C11.3768 19.3943 11.4335 20.6668 11.4335 20.6668C11.4335 20.6668 10.9052 19.5085 10.2552 19.1085C9.606 18.7118 8.3335 18.7668 8.3335 18.7668C8.3335 18.7668 9.49183 18.2393 9.89183 17.5893C10.2902 16.9393 10.2335 15.6668 10.2335 15.6668ZM17.0668 14.8335C17.0668 14.8335 16.7152 15.606 16.2818 15.8718C15.8485 16.1377 15.0002 16.1002 15.0002 16.1002C15.0002 16.1002 15.7727 16.4518 16.0385 16.8852C16.3043 17.3185 16.2668 18.1668 16.2668 18.1668C16.2668 18.1668 16.6185 17.3943 17.0518 17.1285C17.4852 16.8627 18.3335 16.9002 18.3335 16.9002C18.3335 16.9002 17.561 16.5485 17.2952 16.1152C17.0293 15.6818 17.0668 14.8335 17.0668 14.8335Z" stroke="#8EC3B0" stroke-linejoin="round"/>
</svg>
