<svg width="140" height="161" viewBox="0 0 140 161" fill="none" xmlns="http://www.w3.org/2000/svg">
<mask id="mask0_387_6635" style="mask-type:luminance" maskUnits="userSpaceOnUse" x="2" y="24" width="136" height="135">
<path d="M2.72827 24.6572H137.448V158.777H2.72827V24.6572Z" fill="white"/>
</mask>
<g mask="url(#mask0_387_6635)">
<mask id="mask1_387_6635" style="mask-type:luminance" maskUnits="userSpaceOnUse" x="-22" y="0" width="184" height="184">
<path d="M-21.2582 65.8375L96.1085 0.884766L161.606 118.185L44.2409 183.137L-21.2582 65.8375Z" fill="white"/>
</mask>
<g mask="url(#mask1_387_6635)">
<mask id="mask2_387_6635" style="mask-type:luminance" maskUnits="userSpaceOnUse" x="2" y="24" width="136" height="135">
<path d="M37.4259 33.3613C5.015 51.2971 -6.63372 92.0272 11.4056 124.334C29.4463 156.641 70.3426 168.292 102.752 150.354C135.163 132.419 146.812 91.6885 128.772 59.3815C110.733 27.0744 69.8353 15.424 37.4259 33.3613Z" fill="white"/>
</mask>
<g mask="url(#mask2_387_6635)">
<path d="M-21.2582 65.8377L96.1085 0.88501L161.352 117.728L43.9851 182.68L-21.2582 65.8377Z" fill="#8EC3B0"/>
</g>
</g>
</g>
<mask id="mask3_387_6635" style="mask-type:luminance" maskUnits="userSpaceOnUse" x="9" y="35" width="122" height="126">
<path d="M9.79913 35.772H130.377V161H9.79913V35.772Z" fill="white"/>
</mask>
<g mask="url(#mask3_387_6635)">
<mask id="mask4_387_6635" style="mask-type:luminance" maskUnits="userSpaceOnUse" x="7" y="33" width="126" height="131">
<path d="M7.86426 38.1758L127.75 33.8022L132.35 158.748L12.4653 163.123L7.86426 38.1758Z" fill="white"/>
</mask>
<g mask="url(#mask4_387_6635)">
<mask id="mask5_387_6635" style="mask-type:luminance" maskUnits="userSpaceOnUse" x="10" y="35" width="121" height="126">
<path d="M67.8073 35.9893C34.7015 37.1978 8.89204 66.1066 10.1611 100.561C11.4302 135.016 39.2953 161.967 72.401 160.758C105.507 159.551 131.315 130.641 130.047 96.1864C128.778 61.733 100.913 34.7808 67.8073 35.9893Z" fill="white"/>
</mask>
<g mask="url(#mask5_387_6635)">
<path d="M7.86426 38.1758L127.75 33.8022L132.35 158.748L12.4653 163.123L7.86426 38.1758Z" fill="white"/>
</g>
</g>
</g>
<path d="M6.27994 32.7946L16.3572 42.8211L15.5896 43.5853L5.22163 33.275C4.60961 32.6657 4.00631 32.3256 3.41319 32.2562C2.82007 32.1867 2.2095 32.4646 1.58149 33.0898L1.3896 33.2808L1 32.893L2.24439 31.6483C2.8346 31.0622 3.42918 30.6627 4.02957 30.45C4.63141 30.2344 5.28414 30.1577 5.98919 30.2184L21.0498 31.8394L11.5482 22.3859L12.3158 21.616L25.1784 34.4097L24.7946 34.7976L6.27994 32.7946Z" fill="#8EC3B0" stroke="#8EC3B0"/>
<path d="M37.8663 26.9278C36.3661 27.6847 34.8571 27.9814 33.3423 27.8193C31.8305 27.6543 30.4407 27.0826 29.173 26.1057C27.9098 25.1303 26.8762 23.8567 26.0737 22.285C25.2756 20.7104 24.8555 19.1271 24.8119 17.5322C24.7653 15.9388 25.1244 14.4857 25.8876 13.1731C26.6479 11.8575 27.7775 10.8213 29.2777 10.0644C30.778 9.30457 32.284 9.00789 33.7959 9.17287C35.3107 9.33931 36.7034 9.91097 37.971 10.8864C39.2416 11.859 40.2766 13.1326 41.0762 14.7072C41.8786 16.2789 42.2988 17.8622 42.338 19.46C42.3802 21.0548 42.0196 22.5079 41.2564 23.8191C40.4961 25.1317 39.3666 26.168 37.8663 26.9278ZM37.3779 25.9668C38.4275 25.4386 39.1805 24.6744 39.6341 23.6744C40.0905 22.6757 40.2359 21.5151 40.0702 20.1952C39.903 18.8753 39.4306 17.4541 38.6514 15.9287C37.8751 14.4004 37.0028 13.1818 36.0346 12.27C35.065 11.3597 34.0401 10.7938 32.9586 10.5738C31.8799 10.3509 30.8158 10.5029 29.7662 11.0311C28.7195 11.5608 27.9694 12.3221 27.5158 13.3178C27.0622 14.3135 26.9169 15.4713 27.0797 16.7912C27.2425 18.1111 27.7121 19.5352 28.4869 21.0635C29.2661 22.5889 30.1412 23.8061 31.1152 24.7164C32.0878 25.6281 33.1127 26.1969 34.1913 26.4241C35.2685 26.6485 36.3312 26.4965 37.3779 25.9668Z" fill="#8EC3B0" stroke="#8EC3B0"/>
<path d="M58.6484 20.0457C56.9301 20.3091 55.5258 20.2281 54.4326 19.8026C53.3423 19.3785 52.4992 18.6303 51.9031 17.5565C51.31 16.4797 50.8739 15.0324 50.5948 13.2147L49.5423 6.40681C49.4027 5.50083 49.173 4.84957 48.8561 4.45591C48.5348 4.05937 47.9984 3.91609 47.2454 4.02753L46.7162 4.11436L46.6348 3.57598L49.048 3.20549C49.7109 3.10563 50.2197 3.11576 50.5773 3.23443C50.9335 3.35021 51.217 3.62085 51.4263 4.04489C51.6386 4.46604 51.8159 5.13033 51.9555 6.03631L53.1301 13.6489C53.4354 15.6258 54.0328 17.0644 54.9211 17.9675C55.8078 18.8706 57.1031 19.1933 58.8054 18.9342C60.1618 18.7258 61.2012 18.3206 61.9222 17.7185C62.6433 17.1165 63.0983 16.3002 63.2887 15.2698C63.4777 14.2393 63.4472 12.9122 63.1957 11.2869L61.6489 1.27774L62.7247 1.10986L64.2715 11.1191C64.5578 12.9716 64.5913 14.4941 64.3703 15.6866C64.1493 16.8791 63.5853 17.8372 62.6782 18.558C61.7739 19.2758 60.4307 19.7722 58.6484 20.0457Z" fill="#8EC3B0" stroke="#8EC3B0"/>
<path d="M85.2296 20.9547C84.2948 20.8187 83.5156 20.4192 82.892 19.7564C82.2669 19.0965 81.6331 17.9719 80.9905 16.3814L78.9553 11.455L77.0829 11.1887L75.9025 19.3396L73.4835 18.9923L75.571 4.55445C75.7018 3.64413 75.6728 2.95379 75.4838 2.48199C75.2977 2.01163 74.8282 1.72218 74.0766 1.61364L73.5416 1.53838L73.6172 1L80.6009 2.0015C82.2785 2.24174 83.7671 2.79459 85.0668 3.66295C86.3693 4.5313 86.8868 5.89461 86.6193 7.74999C86.4173 9.13935 85.859 10.1206 84.9447 10.6908C84.0332 11.2625 82.94 11.6026 81.665 11.7097L83.8049 16.7866C84.3079 17.9835 84.7935 18.8374 85.2587 19.3512C85.7238 19.8635 86.2995 20.2079 86.9857 20.3816L86.9101 20.9142C86.7356 20.9634 86.4914 20.9953 86.1774 21.0068C85.8663 21.0184 85.5509 21.001 85.2296 20.9547ZM79.1414 10.5229C79.7345 10.6083 80.3814 10.5663 81.0835 10.3956C81.7842 10.2262 82.405 9.88903 82.9443 9.38249C83.4866 8.8774 83.8195 8.19574 83.9445 7.33897C84.0681 6.4822 83.9358 5.73541 83.5491 5.09862C83.1653 4.45894 82.6667 3.95529 82.0546 3.58769C81.4412 3.21719 80.8393 2.98997 80.2462 2.90459C79.6763 2.82354 79.0207 2.82065 78.2808 2.89301L77.2166 10.2508L79.1414 10.5229Z" fill="#8EC3B0" stroke="#8EC3B0"/>
<path d="M94.3849 23.9248C93.7598 23.6845 93.3222 23.424 93.0707 23.1433C92.8221 22.8654 92.7102 22.4906 92.7335 22.0202C92.7567 21.5498 92.9326 20.8856 93.2626 20.0288L98.5135 6.40723L100.799 7.27558L95.5479 20.8971C95.2179 21.7539 95.0914 22.4327 95.1699 22.9349C95.247 23.44 95.6409 23.8278 96.3503 24.0985L96.8562 24.2895L96.6643 24.7931L94.3849 23.9248Z" fill="#8EC3B0" stroke="#8EC3B0"/>
<path d="M106.53 30.774C105.696 30.2298 104.951 29.5844 104.297 28.8405C103.642 28.0951 103.198 27.3469 102.966 26.5943C102.736 25.8418 102.8 25.1963 103.158 24.655L104.739 22.2352L105.146 22.5015C104.421 24.1731 104.207 25.5856 104.507 26.7391C104.809 27.8925 105.611 28.8926 106.914 29.7378C107.731 30.266 108.565 30.5164 109.414 30.4903C110.266 30.4628 110.929 30.088 111.403 29.3673C111.817 28.7305 111.98 28.0488 111.892 27.3237C111.806 26.6016 111.492 25.6999 110.949 24.6145L109.234 21.1527C108.641 19.9485 108.336 18.9224 108.321 18.0729C108.305 17.2248 108.573 16.3796 109.124 15.5373C109.887 14.3723 110.903 13.7022 112.171 13.5285C113.441 13.352 114.736 13.6906 116.055 14.5474C116.83 15.0496 117.523 15.6574 118.137 16.3709C118.753 17.0815 119.172 17.8037 119.393 18.536C119.614 19.2654 119.545 19.9022 119.189 20.4464L117.602 22.872L117.189 22.6115C117.922 20.9298 118.143 19.5259 117.852 18.4029C117.561 17.2798 116.764 16.2957 115.462 15.4505C114.767 14.9989 114.015 14.8122 113.206 14.8889C112.399 14.9671 111.775 15.3448 111.333 16.0236C110.926 16.6459 110.781 17.2856 110.897 17.9455C111.016 18.6026 111.354 19.4955 111.909 20.6259L113.63 24.0935C114.249 25.383 114.598 26.4279 114.677 27.2311C114.758 28.0329 114.531 28.8419 113.997 29.6567C113.166 30.926 112.079 31.6655 110.734 31.8739C109.388 32.0823 107.987 31.7147 106.53 30.774Z" fill="#8EC3B0" stroke="#8EC3B0"/>
<path d="M128.062 28.6224C128.763 28.029 129.199 27.492 129.371 27.013C129.541 26.5354 129.378 26.0086 128.882 25.4326L128.533 25.0216L128.952 24.6685L130.539 26.5152C130.97 27.0217 131.227 27.4573 131.313 27.8235C131.401 28.1867 131.321 28.5703 131.074 28.9755C130.826 29.3778 130.35 29.8757 129.65 30.469L125.94 33.6299L131.226 39.7894L137.413 34.5214L139 36.3681L127.864 45.8505C127.162 46.4482 126.725 46.9866 126.55 47.4656C126.379 47.9432 126.54 48.47 127.033 49.046L127.388 49.457L126.975 49.8044L125.387 47.9577C124.953 47.4511 124.692 47.0155 124.608 46.6493C124.522 46.2861 124.604 45.904 124.852 45.5031C125.099 45.1008 125.575 44.6015 126.277 44.0038L130.4 40.4956L125.114 34.3361L118.514 39.9515L116.927 38.1048L128.062 28.6224Z" fill="#8EC3B0" stroke="#8EC3B0"/>
<mask id="mask6_387_6635" style="mask-type:luminance" maskUnits="userSpaceOnUse" x="56" y="58" width="25" height="42">
<path d="M56.3184 58.7429H80.1362V99.4976H56.3184V58.7429Z" fill="white"/>
</mask>
<g mask="url(#mask6_387_6635)">
<mask id="mask7_387_6635" style="mask-type:luminance" maskUnits="userSpaceOnUse" x="47" y="56" width="45" height="46">
<path d="M47.2064 76.754L69.8977 56.9976L91.3954 81.4706L68.7041 101.227L47.2064 76.754Z" fill="white"/>
</mask>
<g mask="url(#mask7_387_6635)">
<mask id="mask8_387_6635" style="mask-type:luminance" maskUnits="userSpaceOnUse" x="29" y="57" width="63" height="61">
<path d="M29.0595 92.5535L69.8191 57.0654L91.3169 81.5385L50.5558 117.027L29.0595 92.5535Z" fill="white"/>
</mask>
<g mask="url(#mask8_387_6635)">
<path d="M68.3596 99.2428C65.5598 97.9215 60.5357 94.9777 58.0018 89.3682C53.8456 80.1651 58.0033 67.3526 69.1054 58.8789C78.2857 66.5262 82.141 77.8249 78.9152 87.1713C76.7418 93.4668 71.9649 97.1124 69.5619 98.6798C70.3018 95.1152 70.8949 90.8473 70.9923 86.0135C71.1406 78.5543 70.0547 72.2255 68.8437 67.4756C69.3729 72.9216 69.6535 79.058 69.4383 85.766C69.2828 90.6056 68.8903 95.1123 68.3596 99.2428Z" fill="#99CA9D"/>
</g>
</g>
</g>
<mask id="mask9_387_6635" style="mask-type:luminance" maskUnits="userSpaceOnUse" x="69" y="79" width="42" height="27">
<path d="M69.3439 79.4905H110.653V105.796H69.3439V79.4905Z" fill="white"/>
</mask>
<g mask="url(#mask9_387_6635)">
<mask id="mask10_387_6635" style="mask-type:luminance" maskUnits="userSpaceOnUse" x="66" y="69" width="47" height="48">
<path d="M83.3593 69.6189L112.698 85.7022L95.8715 116.129L66.5309 100.046L83.3593 69.6189Z" fill="white"/>
</mask>
<g mask="url(#mask10_387_6635)">
<mask id="mask11_387_6635" style="mask-type:luminance" maskUnits="userSpaceOnUse" x="45" y="57" width="68" height="60">
<path d="M62.084 57.9585L112.697 85.7009L95.8686 116.128L45.2556 88.3841L62.084 57.9585Z" fill="white"/>
</mask>
<g mask="url(#mask11_387_6635)">
<path d="M69.6812 99.6263C69.9894 96.3497 71.1219 90.2597 75.8479 85.6849C83.6007 78.1794 98.0202 77.6555 110.605 85.6458C106.251 97.6001 96.2786 105.569 85.6897 105.758C78.5562 105.887 73.1411 102.448 70.6872 100.621C74.5454 100.059 79.0607 99.0951 83.9641 97.4279C91.5322 94.8561 97.5099 91.4623 101.851 88.5215C96.5606 91.0368 90.4812 93.5551 83.6472 95.7867C78.7176 97.3961 74.0337 98.6479 69.6812 99.6263Z" fill="#5E9C76"/>
</g>
</g>
</g>
<mask id="mask12_387_6635" style="mask-type:luminance" maskUnits="userSpaceOnUse" x="28" y="80" width="42" height="28">
<path d="M28.7791 80.2317H69.3439V107.648H28.7791V80.2317Z" fill="white"/>
</mask>
<g mask="url(#mask12_387_6635)">
<mask id="mask13_387_6635" style="mask-type:luminance" maskUnits="userSpaceOnUse" x="27" y="71" width="45" height="44">
<path d="M39.3418 114.721L27.3616 83.5834L59.9426 71.1587L71.9228 102.298L39.3418 114.721Z" fill="white"/>
</mask>
<g mask="url(#mask13_387_6635)">
<mask id="mask14_387_6635" style="mask-type:luminance" maskUnits="userSpaceOnUse" x="27" y="71" width="54" height="67">
<path d="M48.0788 137.429L27.4126 83.7138L59.9935 71.2905L80.6597 125.004L48.0788 137.429Z" fill="white"/>
</mask>
<g mask="url(#mask14_387_6635)">
<path d="M69.2944 100.722C66.9336 103.027 62.1203 106.949 55.5451 107.406C44.7569 108.156 33.4048 99.2902 28.9738 85.0999C40.0498 78.7681 52.8339 79.0894 61.0445 85.7511C66.5745 90.2376 68.4803 96.3421 69.1709 99.3162C65.8593 97.2655 61.7859 95.0989 56.9595 93.2219C49.5121 90.323 42.7464 89.0726 37.5246 88.5299C43.1956 90.009 49.4714 91.9917 56.1367 94.6792C60.9471 96.6186 65.3359 98.6708 69.2944 100.722Z" fill="#5E9C76"/>
</g>
</g>
</g>
<path d="M71.8754 134.476C70.8476 134.476 70.0495 134.32 69.4796 134.007C68.9127 133.697 68.5114 133.214 68.2759 132.554C68.0433 131.894 67.927 131.013 67.927 129.908V121.734L62.5948 133.521H62.1645L56.617 121.52V133.521H55.7681V119.5H57.7917L62.9146 130.545L67.927 119.5H69.846V129.908C69.846 131.225 70.0117 132.246 70.3461 132.971C70.6833 133.692 71.1921 134.053 71.8754 134.053V134.476Z" fill="#8EC3B0" stroke="#8EC3B0"/>
<path d="M74.4308 122.053C74.4308 121.332 74.3291 120.796 74.1284 120.449C73.9307 120.102 73.5324 119.928 72.9364 119.928H72.5119V119.5H81.6006C82.8101 119.5 83.4149 120.067 83.4149 121.202V122.794H82.9846C82.9846 121.166 82.0963 120.351 80.3213 120.351H76.3497V125.873H82.1123V126.724H76.3497V132.67H80.0829C81.0627 132.67 81.8303 132.495 82.3856 132.143C82.9439 131.788 83.3858 131.186 83.7114 130.337L84.1359 130.441L83.3916 132.461C83.1357 133.168 82.6022 133.521 81.7925 133.521H74.4308V122.053Z" fill="#8EC3B0" stroke="#8EC3B0"/>
</svg>
