<svg width="372" height="415" viewBox="0 0 372 415" fill="none" xmlns="http://www.w3.org/2000/svg">
<mask id="mask0_1010_2649" style="mask-type:luminance" maskUnits="userSpaceOnUse" x="1" y="53" width="372" height="357">
<path d="M1.98047 53.1359H372V409.527H1.98047V53.1359Z" fill="white"/>
</mask>
<g mask="url(#mask0_1010_2649)">
<mask id="mask1_1010_2649" style="mask-type:luminance" maskUnits="userSpaceOnUse" x="1" y="53" width="372" height="357">
<path d="M186.987 53.1359C84.8112 53.1359 1.98047 132.807 1.98047 231.082C1.98047 329.364 84.8112 409.036 186.987 409.036C289.169 409.036 372 329.364 372 231.082C372 132.807 289.169 53.1359 186.987 53.1359Z" fill="white"/>
</mask>
<g mask="url(#mask1_1010_2649)">
<path d="M1.98047 53.1359H372V409.527H1.98047V53.1359Z" fill="#85B8A7"/>
</g>
</g>
<mask id="mask2_1010_2649" style="mask-type:luminance" maskUnits="userSpaceOnUse" x="20" y="75" width="334" height="340">
<path d="M20.3511 75.8694H353.528V415H20.3511V75.8694Z" fill="white"/>
</mask>
<g mask="url(#mask2_1010_2649)">
<mask id="mask3_1010_2649" style="mask-type:luminance" maskUnits="userSpaceOnUse" x="15" y="71" width="344" height="351">
<path d="M15.6157 82.8808L345.317 71.4235L358.393 409.746L28.6918 421.21L15.6157 82.8808Z" fill="white"/>
</mask>
<g mask="url(#mask3_1010_2649)">
<mask id="mask4_1010_2649" style="mask-type:luminance" maskUnits="userSpaceOnUse" x="22" y="77" width="330" height="338">
<path d="M180.467 77.1553C89.4251 80.3152 18.5392 158.448 22.137 251.671C25.7416 344.886 102.467 417.888 193.515 414.722C284.557 411.556 355.443 333.422 351.845 240.207C348.241 146.991 271.515 73.9888 180.467 77.1553Z" fill="white"/>
</mask>
<g mask="url(#mask4_1010_2649)">
<path d="M15.6157 82.8808L345.317 71.4235L358.345 408.525L28.6441 419.989L15.6157 82.8808Z" fill="white"/>
</g>
</g>
</g>
<path d="M14.1731 85.5626L41.9469 110.687L39.9572 112.703L11.393 86.8551C9.70311 85.3235 8.06094 84.4899 6.45966 84.3478C4.84474 84.1927 3.20939 84.9358 1.55359 86.5707L1.06298 87.0618L0 86.1054L3.27071 82.8744C4.81749 81.3235 6.39151 80.2573 7.98599 79.6692C9.58727 79.0682 11.3521 78.8356 13.2736 78.9713L53.9122 82.2023L27.7465 58.5252L29.7635 56.5349L65.2234 88.6127L64.215 89.595L14.1731 85.5626Z" fill="#5F9D77"/>
<path d="M98.9648 68.664C94.9445 70.6996 90.897 71.5461 86.8086 71.1972C82.7202 70.8547 78.9317 69.4782 75.4429 67.0614C71.9746 64.6317 69.1127 61.42 66.8573 57.42C64.5882 53.4264 63.3549 49.3811 63.1505 45.2971C62.9324 41.2001 63.8183 37.4521 65.7943 34.053C67.7567 30.6411 70.7481 27.9205 74.7615 25.885C78.7409 23.8559 82.7611 23.0029 86.8359 23.326C90.9243 23.6555 94.6992 25.032 98.1744 27.4617C101.663 29.8915 104.539 33.1096 106.814 37.1032C109.063 41.1032 110.29 45.142 110.494 49.226C110.712 53.3101 109.84 57.071 107.877 60.4959C105.915 63.9079 102.944 66.6349 98.9648 68.664ZM97.5475 66.1826C100.328 64.7544 102.297 62.7577 103.462 60.1857C104.641 57.6203 104.968 54.6477 104.443 51.2681C103.912 47.8755 102.563 44.2373 100.382 40.36C98.1812 36.4828 95.7486 33.4068 93.0775 31.1322C90.4064 28.8575 87.6059 27.4746 84.6827 26.9706C81.7731 26.4536 78.9317 26.9124 76.1516 28.3406C73.3374 29.7558 71.3545 31.7525 70.2098 34.3374C69.0514 36.9093 68.7311 39.8819 69.2558 43.2551C69.7669 46.6347 71.1228 50.26 73.3169 54.1372C75.4974 58.0145 77.9232 61.1034 80.5943 63.3909C83.279 65.6656 86.0727 67.055 88.9618 67.5525C91.8646 68.0566 94.7265 67.5978 97.5475 66.1826Z" fill="#5F9D77"/>
<path d="M154.453 49.7645C149.854 50.5399 146.072 50.4107 143.115 49.3767C140.151 48.3428 137.834 46.4753 136.164 43.7676C134.488 41.0471 133.227 37.3702 132.376 32.7304L129.105 15.3086C128.669 12.9822 128.008 11.3215 127.115 10.3198C126.23 9.32468 124.785 8.98866 122.782 9.31176L121.337 9.57024L121.092 8.20028L127.579 7.11465C129.337 6.80447 130.7 6.79801 131.667 7.0888C132.648 7.36667 133.425 8.03873 134.011 9.10497C134.611 10.1777 135.129 11.8707 135.565 14.1971L139.217 33.6609C140.157 38.7143 141.861 42.3718 144.314 44.6465C146.767 46.9082 150.269 47.6449 154.835 46.8694C158.466 46.2685 161.24 45.1764 163.148 43.5867C165.056 41.9841 166.228 39.8581 166.664 37.2022C167.113 34.5527 166.964 31.1536 166.2 27.0179L161.403 1.40216L164.265 0.93689L169.062 26.5526C169.934 31.2764 170.112 35.1731 169.607 38.2361C169.096 41.2862 167.645 43.7676 165.246 45.6804C162.862 47.5932 159.264 48.9567 154.453 49.7645Z" fill="#5F9D77"/>
<path d="M226.137 50.5077C223.609 50.2105 221.483 49.2282 219.759 47.561C218.029 45.9067 216.25 43.0763 214.417 39.0569L208.639 26.4946L203.569 25.9259L200.898 46.9148L194.357 46.1652L199.072 8.99523C199.379 6.65596 199.263 4.88534 198.718 3.69632C198.186 2.49437 196.919 1.77708 194.902 1.5509L193.458 1.36996L193.621 0L212.482 2.17126C217.02 2.68823 221.075 4.02588 224.638 6.17776C228.195 8.31671 229.681 11.7739 229.081 16.543C228.624 20.1294 227.18 22.6819 224.747 24.1941C222.328 25.7127 219.405 26.6497 215.971 27.0115L222.022 39.9099C223.439 42.9471 224.788 45.1054 226.083 46.3978C227.391 47.6902 228.958 48.5303 230.798 48.931L230.635 50.3268C230.178 50.4625 229.531 50.5465 228.699 50.5853C227.861 50.637 227.01 50.6111 226.137 50.5077ZM209.102 24.1165C210.683 24.3104 212.414 24.1618 214.308 23.6771C216.196 23.1989 217.852 22.2942 219.269 20.963C220.686 19.6189 221.538 17.8483 221.831 15.6383C222.104 13.4541 221.701 11.5478 220.632 9.92577C219.555 8.31025 218.179 7.05014 216.489 6.15191C214.813 5.24076 213.191 4.69148 211.61 4.49762C210.043 4.3296 208.271 4.36191 206.295 4.60101L203.869 23.522L209.102 24.1165Z" fill="#5F9D77"/>
<path d="M250.978 57.5864C249.288 57.0177 248.095 56.378 247.407 55.6736C246.712 54.9822 246.385 54.0322 246.426 52.8303C246.46 51.609 246.896 49.8836 247.734 47.6606L261.008 12.4034L267.195 14.4972L253.921 49.7543C253.083 51.9773 252.783 53.7221 253.022 55.0016C253.274 56.294 254.364 57.2633 256.292 57.9224L257.655 58.3618L257.165 59.6801L250.978 57.5864Z" fill="#5F9D77"/>
<path d="M284.127 74.4577C281.851 73.1266 279.807 71.5175 277.995 69.6241C276.175 67.7436 274.928 65.8502 274.261 63.9375C273.586 62.0247 273.722 60.3575 274.669 58.9229L278.785 52.6159L279.902 53.2879C278.029 57.6498 277.538 61.2945 278.431 64.2218C279.337 67.1491 281.565 69.6629 285.108 71.7695C287.343 73.0749 289.606 73.6694 291.895 73.5531C294.185 73.4303 295.936 72.4286 297.155 70.5546C298.246 68.9003 298.641 67.1427 298.355 65.2816C298.062 63.4334 297.162 61.1588 295.656 58.4318L290.832 49.6175C289.142 46.5544 288.243 43.9308 288.134 41.7596C288.038 39.5883 288.713 37.4041 290.151 35.1941C292.127 32.1634 294.825 30.3992 298.246 29.8952C301.66 29.3782 305.169 30.173 308.767 32.2732C310.892 33.5139 312.8 35.0325 314.49 36.8225C316.194 38.5996 317.359 40.4284 317.979 42.3024C318.613 44.1635 318.47 45.8048 317.543 47.2136L313.427 53.4947L312.337 52.8485C314.19 48.5254 314.688 44.9324 313.836 42.0697C312.998 39.2135 310.79 36.7321 307.213 34.6254C305.319 33.5075 303.288 33.068 301.108 33.3071C298.941 33.5527 297.278 34.5608 296.12 36.3314C295.084 37.934 294.737 39.5883 295.084 41.2943C295.445 42.9874 296.42 45.2491 298 48.0924L302.825 56.9067C304.569 60.1636 305.564 62.8195 305.823 64.868C306.095 66.9359 305.55 69.0296 304.188 71.1492C302.021 74.4577 299.132 76.4222 295.52 77.0426C291.902 77.6629 288.107 76.797 284.127 74.4577Z" fill="#5F9D77"/>
<path d="M341.972 67.6939C343.826 66.1107 344.957 64.7084 345.379 63.4806C345.815 62.2399 345.359 60.8957 344.016 59.4482L343.035 58.4143L344.125 57.4838L348.486 62.1365C349.699 63.416 350.435 64.5145 350.694 65.4451C350.946 66.3756 350.755 67.3708 350.122 68.4176C349.481 69.4516 348.241 70.7634 346.388 72.3466L336.603 80.6439L351.212 96.1271L367.511 82.2723L371.926 86.9251L342.545 111.895C340.691 113.478 339.546 114.88 339.11 116.108C338.674 117.349 339.138 118.68 340.5 120.114L341.482 121.148L340.391 122.079L336.003 117.452C334.783 116.16 334.047 115.048 333.795 114.118C333.536 113.2 333.727 112.218 334.368 111.171C335.022 110.137 336.276 108.825 338.129 107.242L349.004 98.014L334.395 82.5308L316.978 97.3161L312.563 92.6634L341.972 67.6939Z" fill="#5F9D77"/>
<mask id="mask5_1010_2649" style="mask-type:luminance" maskUnits="userSpaceOnUse" x="144" y="142" width="69" height="110">
<path d="M144.201 142.041H212.232V251.225H144.201V142.041Z" fill="white"/>
</mask>
<g mask="url(#mask5_1010_2649)">
<mask id="mask6_1010_2649" style="mask-type:luminance" maskUnits="userSpaceOnUse" x="120" y="138" width="124" height="119">
<path d="M120.128 190.875L183.157 138.603L243.447 203.98L180.418 256.252L120.128 190.875Z" fill="white"/>
</mask>
<g mask="url(#mask6_1010_2649)">
<mask id="mask7_1010_2649" style="mask-type:luminance" maskUnits="userSpaceOnUse" x="69" y="138" width="175" height="161">
<path d="M69.4727 232.885L183.716 138.138L243.999 203.522L129.763 298.262L69.4727 232.885Z" fill="white"/>
</mask>
<g mask="url(#mask7_1010_2649)">
<path d="M179.171 250.682C171.348 247.167 157.325 239.341 150.259 224.42C138.655 199.954 150.259 165.886 181.249 143.353C206.876 163.689 217.636 193.731 208.628 218.578C202.563 235.322 189.228 245.015 182.523 249.183C184.588 239.703 186.244 228.355 186.516 215.502C186.932 195.67 183.9 178.843 180.52 166.209C181.998 180.691 182.775 197.008 182.176 214.843C181.74 227.709 180.642 239.696 179.171 250.682Z" fill="#5F9D77"/>
</g>
</g>
</g>
<mask id="mask8_1010_2649" style="mask-type:luminance" maskUnits="userSpaceOnUse" x="180" y="198" width="118" height="72">
<path d="M180.833 198.287H297.707V269.422H180.833V198.287Z" fill="white"/>
</mask>
<g mask="url(#mask8_1010_2649)">
<mask id="mask9_1010_2649" style="mask-type:luminance" maskUnits="userSpaceOnUse" x="173" y="172" width="130" height="126">
<path d="M220.43 172.484L302.94 215.567L255.617 297.08L173.1 253.997L220.43 172.484Z" fill="white"/>
</mask>
<g mask="url(#mask9_1010_2649)">
<mask id="mask10_1010_2649" style="mask-type:luminance" maskUnits="userSpaceOnUse" x="113" y="141" width="191" height="157">
<path d="M161.046 141.473L303.159 215.677L255.829 297.196L113.723 222.992L161.046 141.473Z" fill="white"/>
</mask>
<g mask="url(#mask10_1010_2649)">
<path d="M182.251 252.259C183.117 243.548 186.278 227.36 199.463 215.192C221.105 195.237 261.348 193.841 296.474 215.089C284.318 246.869 256.49 268.059 226.931 268.563C207.027 268.905 191.913 259.761 185.059 254.902C195.831 253.409 208.431 250.844 222.12 246.417C243.236 239.574 259.924 230.553 272.039 222.734C257.273 229.422 240.306 236.116 221.234 242.049C207.47 246.333 194.401 249.661 182.251 252.259Z" fill="#8EC3B0"/>
</g>
</g>
</g>
<mask id="mask11_1010_2649" style="mask-type:luminance" maskUnits="userSpaceOnUse" x="172" y="171" width="18" height="79">
<path d="M172.112 171.819H189.556V249.57H172.112V171.819Z" fill="white"/>
</mask>
<g mask="url(#mask11_1010_2649)">
<mask id="mask12_1010_2649" style="mask-type:luminance" maskUnits="userSpaceOnUse" x="173" y="172" width="130" height="126">
<path d="M220.43 172.484L302.94 215.567L255.617 297.08L173.1 253.997L220.43 172.484Z" fill="white"/>
</mask>
<g mask="url(#mask12_1010_2649)">
<mask id="mask13_1010_2649" style="mask-type:luminance" maskUnits="userSpaceOnUse" x="113" y="141" width="191" height="157">
<path d="M161.046 141.473L303.159 215.677L255.829 297.196L113.723 222.992L161.046 141.473Z" fill="white"/>
</mask>
<g mask="url(#mask13_1010_2649)">
<path d="M172.098 247.955C165.475 246.618 153.292 243.05 145.054 232.892C131.548 216.22 133.906 188.258 153.244 165.77C176.657 176.885 190.578 197.945 188.445 218.436C187.014 232.239 178.694 241.913 174.374 246.236C174.143 238.663 173.243 229.726 171.001 219.877C167.54 204.685 162.027 192.375 157.039 183.328C160.923 194.113 164.63 206.417 167.567 220.116C169.686 230.003 171.138 239.328 172.098 247.955Z" fill="#8EC3B0"/>
</g>
</g>
</g>
<mask id="mask14_1010_2649" style="mask-type:luminance" maskUnits="userSpaceOnUse" x="69" y="201" width="114" height="74">
<path d="M69.1934 201.596H182.578V274.385H69.1934V201.596Z" fill="white"/>
</mask>
<g mask="url(#mask14_1010_2649)">
<mask id="mask15_1010_2649" style="mask-type:luminance" maskUnits="userSpaceOnUse" x="64" y="177" width="126" height="116">
<path d="M98.1737 292.97L64.9487 210.708L156.583 177.421L189.808 259.684L98.1737 292.97Z" fill="white"/>
</mask>
<g mask="url(#mask15_1010_2649)">
<mask id="mask16_1010_2649" style="mask-type:luminance" maskUnits="userSpaceOnUse" x="64" y="176" width="151" height="178">
<path d="M122.561 353.339L64.5327 209.667L156.16 176.387L214.188 320.059L122.561 353.339Z" fill="white"/>
</mask>
<g mask="url(#mask16_1010_2649)">
<path d="M181.774 255.748C175.185 261.874 161.748 272.304 143.398 273.519C113.287 275.516 81.6018 251.942 69.2344 214.216C100.149 197.376 135.827 198.236 158.743 215.942C174.183 227.871 179.498 244.103 181.427 252.007C172.187 246.559 160.814 240.801 147.35 235.806C126.56 228.103 107.679 224.775 93.1038 223.334C108.933 227.263 126.445 232.536 145.054 239.683C158.477 244.834 170.722 250.294 181.774 255.748Z" fill="#8EC3B0"/>
</g>
</g>
</g>
<path d="M188.966 345.051C186.111 345.051 183.883 344.637 182.289 343.81C180.708 342.983 179.59 341.704 178.936 339.959C178.282 338.201 177.955 335.862 177.955 332.928V311.19L163.073 342.518H161.874L146.393 310.621V342.518H144.021V305.27H149.663L163.945 334.608L177.955 305.27H183.297V332.928C183.297 336.43 183.76 339.145 184.687 341.07C185.627 342.983 187.058 343.939 188.966 343.939V345.051Z" fill="#5F9D77"/>
<path d="M196.124 312.043C196.124 310.117 195.838 308.695 195.279 307.778C194.714 306.847 193.603 306.382 191.954 306.382H190.755V305.27H216.103C219.483 305.27 221.173 306.769 221.173 309.768V314.007H219.973C219.973 309.684 217.493 307.519 212.532 307.519H201.466V322.201H217.547V324.45H201.466V340.269H211.878C214.617 340.269 216.764 339.797 218.311 338.847C219.851 337.904 221.091 336.301 222.017 334.039L223.189 334.324L221.118 339.7C220.389 341.581 218.897 342.518 216.648 342.518H196.124V312.043Z" fill="#5F9D77"/>
</svg>
