<svg width="211" height="246" viewBox="0 0 211 246" fill="none" xmlns="http://www.w3.org/2000/svg">
<mask id="mask0_451_2343" style="mask-type:luminance" maskUnits="userSpaceOnUse" x="2" y="36" width="207" height="207">
<path d="M2.64258 36.333H208.627V242.318H2.64258V36.333Z" fill="white"/>
</mask>
<g mask="url(#mask0_451_2343)">
<mask id="mask1_451_2343" style="mask-type:luminance" maskUnits="userSpaceOnUse" x="-35" y="-1" width="281" height="281">
<path d="M-34.0327 99.5788L145.419 -0.177246L245.564 179.975L66.1145 279.731L-34.0327 99.5788Z" fill="white"/>
</mask>
<g mask="url(#mask1_451_2343)">
<mask id="mask2_451_2343" style="mask-type:luminance" maskUnits="userSpaceOnUse" x="2" y="36" width="207" height="207">
<path d="M55.6943 49.7009C6.13862 77.2471 -11.6721 139.801 15.9097 189.419C43.4938 239.037 106.024 256.93 155.577 229.382C205.133 201.835 222.944 139.281 195.362 89.6633C167.78 40.0453 105.248 22.1524 55.6943 49.7009Z" fill="white"/>
</mask>
<g mask="url(#mask2_451_2343)">
<path d="M-34.0327 99.579L145.419 -0.177002L245.175 179.273L65.7233 279.029L-34.0327 99.579Z" fill="#8EC198"/>
</g>
</g>
</g>
<mask id="mask3_451_2343" style="mask-type:luminance" maskUnits="userSpaceOnUse" x="13" y="53" width="185" height="193">
<path d="M13.4539 53.4036H197.816V245.732H13.4539V53.4036Z" fill="white"/>
</mask>
<g mask="url(#mask3_451_2343)">
<mask id="mask4_451_2343" style="mask-type:luminance" maskUnits="userSpaceOnUse" x="10" y="50" width="191" height="199">
<path d="M10.4954 57.0955L193.799 50.3784L200.832 242.273L17.5303 248.992L10.4954 57.0955Z" fill="white"/>
</mask>
<g mask="url(#mask4_451_2343)">
<mask id="mask5_451_2343" style="mask-type:luminance" maskUnits="userSpaceOnUse" x="13" y="53" width="185" height="193">
<path d="M102.147 53.7371C51.5292 55.593 12.0669 99.992 14.0073 152.908C15.9478 205.825 58.553 247.217 109.171 245.361C159.789 243.507 199.249 199.106 197.311 146.189C195.371 93.2749 152.766 51.8811 102.147 53.7371Z" fill="white"/>
</mask>
<g mask="url(#mask5_451_2343)">
<path d="M10.4954 57.0955L193.799 50.3784L200.832 242.273L17.5303 248.992L10.4954 57.0955Z" fill="white"/>
</g>
</g>
</g>
<path d="M8.07295 48.8309L23.4809 64.23L22.3073 65.4036L6.4548 49.5689C5.51903 48.6331 4.5966 48.1108 3.68973 48.0041C2.78286 47.8974 1.84931 48.3242 0.889091 49.2844L0.595691 49.5778L0 48.9821L1.90266 47.0705C2.80508 46.1703 3.71418 45.5569 4.63216 45.2301C5.55237 44.8989 6.55038 44.7811 7.6284 44.8745L30.6559 47.3639L16.1281 32.8451L17.3017 31.6626L36.9684 51.3115L36.3816 51.9072L8.07295 48.8309Z" fill="#388148"/>
<path d="M56.3681 39.8202C54.0742 40.9827 51.767 41.4384 49.4509 41.1894C47.1393 40.936 45.0144 40.058 43.0762 38.5577C41.1446 37.0596 39.5642 35.1036 38.3373 32.6897C37.117 30.2714 36.4747 27.8397 36.408 25.3903C36.3368 22.943 36.8859 20.7114 38.0528 18.6954C39.2153 16.6749 40.9423 15.0835 43.2362 13.921C45.53 12.7541 47.8328 12.2984 50.1444 12.5518C52.4605 12.8074 54.5899 13.6854 56.5281 15.1835C58.4708 16.6772 60.0534 18.6332 61.2759 21.0515C62.5028 23.4654 63.1452 25.897 63.2052 28.3509C63.2696 30.8004 62.7184 33.032 61.5515 35.0458C60.389 37.0618 58.6619 38.6533 56.3681 39.8202ZM55.6212 38.3443C57.226 37.533 58.3774 36.3594 59.0709 34.8235C59.7688 33.2898 59.9911 31.5072 59.7377 29.4801C59.4821 27.453 58.7597 25.2702 57.5683 22.9275C56.3814 20.5803 55.0478 18.7087 53.5674 17.3084C52.0849 15.9103 50.5178 15.0412 48.8641 14.7034C47.2149 14.3611 45.5878 14.5945 43.983 15.4058C42.3827 16.2193 41.2357 17.3884 40.5422 18.9177C39.8488 20.4469 39.6265 22.2251 39.8754 24.2522C40.1244 26.2794 40.8423 28.4665 42.027 30.8137C43.2184 33.1565 44.5565 35.0258 46.0457 36.4239C47.5327 37.8242 49.0998 38.6977 50.749 39.0467C52.3961 39.3912 54.0209 39.1578 55.6212 38.3443Z" fill="#388148"/>
<path d="M88.1435 29.2506C85.5163 29.6552 83.3691 29.5307 81.6976 28.8772C80.0306 28.226 78.7414 27.0768 77.8301 25.4275C76.9232 23.7738 76.2564 21.5511 75.8296 18.7594L74.2204 8.30364C74.007 6.91221 73.6558 5.91199 73.1712 5.3074C72.68 4.69838 71.8598 4.47833 70.7084 4.64948L69.8994 4.78284L69.7749 3.95599L73.4646 3.38697C74.4782 3.2336 75.2561 3.24916 75.8029 3.43142C76.3475 3.60924 76.7809 4.02489 77.101 4.67615C77.4255 5.32296 77.6967 6.34319 77.9101 7.73462L79.706 19.4262C80.1728 22.4624 81.0864 24.6718 82.4445 26.0588C83.8003 27.4458 85.7808 27.9414 88.3836 27.5436C90.4574 27.2235 92.0466 26.6011 93.1491 25.6765C94.2516 24.7518 94.9473 23.4982 95.2385 21.9156C95.5274 20.333 95.4807 18.2948 95.0962 15.7987L92.7312 0.426293L94.3761 0.168457L96.741 15.5408C97.1789 18.3859 97.23 20.7242 96.8922 22.5558C96.5543 24.3873 95.6919 25.8587 94.3049 26.9657C92.9224 28.0681 90.8686 28.8305 88.1435 29.2506Z" fill="#388148"/>
<path d="M128.786 30.647C127.357 30.438 126.165 29.8246 125.212 28.8066C124.256 27.793 123.287 26.0659 122.304 23.6231L119.193 16.057L116.33 15.648L114.525 28.1664L110.826 27.633L114.018 5.45902C114.218 4.06092 114.174 3.00068 113.885 2.27607C113.6 1.55369 112.882 1.10914 111.733 0.942437L110.915 0.826855L111.031 0L121.709 1.53813C124.274 1.9071 126.55 2.75618 128.537 4.08982C130.528 5.42346 131.32 7.51726 130.911 10.3668C130.602 12.5006 129.748 14.0076 128.35 14.8834C126.957 15.7614 125.285 16.2837 123.336 16.4482L126.608 24.2455C127.377 26.0837 128.119 27.3951 128.83 28.1842C129.542 28.971 130.422 29.5 131.471 29.7668L131.355 30.5847C131.089 30.6603 130.715 30.7092 130.235 30.727C129.759 30.7448 129.277 30.7181 128.786 30.647ZM119.477 14.6255C120.384 14.7567 121.373 14.6922 122.447 14.4299C123.518 14.1699 124.467 13.652 125.292 12.874C126.121 12.0983 126.63 11.0514 126.821 9.73555C127.01 8.41969 126.808 7.27277 126.216 6.29476C125.63 5.31232 124.867 4.53881 123.931 3.97424C122.993 3.40522 122.073 3.05625 121.166 2.92511C120.295 2.80064 119.293 2.79619 118.161 2.90733L116.534 14.2077L119.477 14.6255Z" fill="#388148"/>
<path d="M142.784 35.2083C141.828 34.8394 141.159 34.4393 140.775 34.0081C140.395 33.5813 140.224 33.0056 140.259 32.2832C140.295 31.5608 140.564 30.5406 141.068 29.2248L149.097 8.30444L152.591 9.63808L144.562 30.5584C144.058 31.8743 143.864 32.9167 143.985 33.688C144.102 34.4637 144.705 35.0594 145.789 35.4751L146.563 35.7685L146.269 36.542L142.784 35.2083Z" fill="#388148"/>
<path d="M161.354 45.7276C160.078 44.8918 158.94 43.9005 157.94 42.758C156.937 41.6133 156.259 40.4642 155.904 39.3083C155.553 38.1525 155.65 37.1612 156.197 36.3299L158.616 32.6135L159.238 33.0225C158.129 35.5897 157.802 37.7591 158.26 39.5306C158.722 41.3021 159.949 42.838 161.941 44.1361C163.19 44.9474 164.466 45.3319 165.764 45.2919C167.066 45.2497 168.08 44.674 168.804 43.5671C169.438 42.5891 169.687 41.5422 169.551 40.4286C169.42 39.3195 168.94 37.9347 168.111 36.2676L165.488 30.9509C164.581 29.1016 164.115 27.5257 164.092 26.2209C164.068 24.9184 164.477 23.6203 165.319 22.3267C166.486 20.5374 168.04 19.5083 169.978 19.2416C171.921 18.9704 173.901 19.4905 175.917 20.8064C177.102 21.5776 178.162 22.5112 179.1 23.607C180.043 24.6983 180.683 25.8075 181.021 26.9322C181.358 28.0524 181.254 29.0304 180.709 29.8662L178.282 33.5915L177.651 33.1914C178.771 30.6086 179.109 28.4525 178.665 26.7277C178.22 25.0029 177.002 23.4914 175.01 22.1933C173.948 21.4998 172.799 21.2131 171.561 21.3309C170.327 21.4509 169.374 22.0311 168.698 23.0735C168.075 24.0293 167.853 25.0118 168.031 26.0253C168.213 27.0344 168.729 28.4059 169.578 30.1418L172.21 35.4675C173.157 37.4479 173.69 39.0527 173.81 40.2863C173.935 41.5177 173.588 42.7602 172.77 44.0116C171.501 45.961 169.838 47.0968 167.782 47.4168C165.724 47.7369 163.581 47.1723 161.354 45.7276Z" fill="#388148"/>
<path d="M194.276 42.4228C195.347 41.5115 196.014 40.6869 196.277 39.9512C196.537 39.2177 196.288 38.4086 195.53 37.5239L194.996 36.8927L195.636 36.3503L198.064 39.1865C198.722 39.9645 199.115 40.6335 199.246 41.1959C199.382 41.7538 199.259 42.3428 198.882 42.9652C198.501 43.5831 197.775 44.3477 196.703 45.259L191.031 50.1135L199.113 59.5734L208.573 51.4827L211 54.3189L193.974 68.8822C192.9 69.8002 192.231 70.627 191.964 71.3628C191.702 72.0962 191.949 72.9053 192.702 73.79L193.245 74.4212L192.613 74.9547L190.186 72.1185C189.522 71.3405 189.124 70.6715 188.995 70.1091C188.864 69.5512 188.988 68.9644 189.368 68.3487C189.746 67.7308 190.473 66.964 191.547 66.046L197.85 60.6581L189.768 51.1982L179.677 59.8223L177.25 56.9861L194.276 42.4228Z" fill="#388148"/>
<mask id="mask6_451_2343" style="mask-type:luminance" maskUnits="userSpaceOnUse" x="84" y="88" width="37" height="64">
<path d="M84.5811 88.6829H120.998V151.275H84.5811V88.6829Z" fill="white"/>
</mask>
<g mask="url(#mask6_451_2343)">
<mask id="mask7_451_2343" style="mask-type:luminance" maskUnits="userSpaceOnUse" x="70" y="86" width="69" height="68">
<path d="M70.6489 116.345L105.343 86.0022L138.213 123.589L103.519 153.931L70.6489 116.345Z" fill="white"/>
</mask>
<g mask="url(#mask7_451_2343)">
<mask id="mask8_451_2343" style="mask-type:luminance" maskUnits="userSpaceOnUse" x="42" y="86" width="97" height="93">
<path d="M42.9026 140.61L105.223 86.1069L138.093 123.693L75.7701 178.197L42.9026 140.61Z" fill="white"/>
</mask>
<g mask="url(#mask8_451_2343)">
<path d="M102.992 150.884C98.7109 148.854 91.0291 144.333 87.1549 135.718C80.8001 121.584 87.1571 101.906 104.132 88.8918C118.169 100.637 124.063 117.99 119.131 132.344C115.808 142.013 108.504 147.612 104.83 150.019C105.961 144.545 106.868 137.99 107.017 130.566C107.244 119.11 105.584 109.39 103.732 102.095C104.541 110.459 104.97 119.883 104.641 130.186C104.403 137.618 103.803 144.54 102.992 150.884Z" fill="#99CA9D"/>
</g>
</g>
</g>
<mask id="mask9_451_2343" style="mask-type:luminance" maskUnits="userSpaceOnUse" x="104" y="120" width="64" height="41">
<path d="M104.497 120.548H167.658V160.948H104.497V120.548Z" fill="white"/>
</mask>
<g mask="url(#mask9_451_2343)">
<mask id="mask10_451_2343" style="mask-type:luminance" maskUnits="userSpaceOnUse" x="100" y="105" width="71" height="72">
<path d="M125.926 105.387L170.785 130.088L145.057 176.819L100.196 152.117L125.926 105.387Z" fill="white"/>
</mask>
<g mask="url(#mask10_451_2343)">
<mask id="mask11_451_2343" style="mask-type:luminance" maskUnits="userSpaceOnUse" x="67" y="87" width="104" height="90">
<path d="M93.3963 87.4783L170.783 130.086L145.053 176.816L67.666 134.207L93.3963 87.4783Z" fill="white"/>
</mask>
<g mask="url(#mask11_451_2343)">
<path d="M105.012 151.473C105.484 146.441 107.215 137.087 114.441 130.061C126.295 118.534 148.342 117.73 167.584 130.001C160.927 148.361 145.679 160.599 129.489 160.89C118.582 161.088 110.303 155.807 106.551 153C112.45 152.137 119.353 150.657 126.851 148.096C138.422 144.147 147.562 138.937 154.199 134.418C146.111 138.281 136.815 142.148 126.366 145.576C118.829 148.048 111.667 149.97 105.012 151.473Z" fill="#5E9C76"/>
</g>
</g>
</g>
<mask id="mask12_451_2343" style="mask-type:luminance" maskUnits="userSpaceOnUse" x="42" y="121" width="63" height="43">
<path d="M42.4736 121.686H104.497V163.793H42.4736V121.686Z" fill="white"/>
</mask>
<g mask="url(#mask12_451_2343)">
<mask id="mask13_451_2343" style="mask-type:luminance" maskUnits="userSpaceOnUse" x="40" y="107" width="69" height="68">
<path d="M58.6239 174.656L40.3064 126.834L90.1222 107.752L108.44 155.576L58.6239 174.656Z" fill="white"/>
</mask>
<g mask="url(#mask13_451_2343)">
<mask id="mask14_451_2343" style="mask-type:luminance" maskUnits="userSpaceOnUse" x="40" y="107" width="82" height="103">
<path d="M71.9823 209.53L40.384 127.034L90.1998 107.954L121.798 190.448L71.9823 209.53Z" fill="white"/>
</mask>
<g mask="url(#mask14_451_2343)">
<path d="M104.421 153.155C100.811 156.696 93.4517 162.719 83.3983 163.422C66.9034 164.575 49.5461 150.957 42.7712 129.163C59.7062 119.438 79.2529 119.932 91.8068 130.163C100.262 137.054 103.176 146.429 104.232 150.997C99.1685 147.847 92.9404 144.52 85.561 141.637C74.1739 137.185 63.8294 135.264 55.8453 134.431C64.5162 136.702 74.1117 139.748 84.3029 143.875C91.6579 146.854 98.3683 150.005 104.421 153.155Z" fill="#5E9C76"/>
</g>
</g>
</g>
<path d="M108.367 204.995C106.796 204.995 105.576 204.755 104.704 204.275C103.837 203.8 103.224 203.057 102.864 202.044C102.508 201.03 102.33 199.676 102.33 197.98V185.427L94.1774 203.528H93.5195L85.0376 185.098V203.528H83.7395V181.995H86.8335L94.6664 198.958L102.33 181.995H105.264V197.98C105.264 200.003 105.518 201.57 106.029 202.684C106.545 203.791 107.323 204.346 108.367 204.346V204.995Z" fill="#388148"/>
<path d="M112.275 185.916C112.275 184.809 112.119 183.986 111.812 183.453C111.51 182.919 110.901 182.653 109.99 182.653H109.341V181.995H123.237C125.086 181.995 126.011 182.866 126.011 184.609V187.054H125.353C125.353 184.553 123.995 183.302 121.281 183.302H115.209V191.784H124.019V193.09H115.209V202.221H120.917C122.415 202.221 123.588 201.953 124.437 201.412C125.291 200.868 125.967 199.943 126.464 198.638L127.114 198.798L125.975 201.901C125.584 202.986 124.769 203.528 123.53 203.528H112.275V185.916Z" fill="#388148"/>
</svg>
