<svg width="30" height="35" viewBox="0 0 30 35" fill="none" xmlns="http://www.w3.org/2000/svg">
<mask id="mask0_453_1349" style="mask-type:luminance" maskUnits="userSpaceOnUse" x="0" y="5" width="30" height="30">
<path d="M0.375732 5.16602H29.6627V34.453H0.375732V5.16602Z" fill="white"/>
</mask>
<g mask="url(#mask0_453_1349)">
<mask id="mask1_453_1349" style="mask-type:luminance" maskUnits="userSpaceOnUse" x="-5" y="-1" width="40" height="41">
<path d="M-4.83862 14.158L20.6759 -0.0253906L34.9146 25.5887L9.40035 39.7721L-4.83862 14.158Z" fill="white"/>
</mask>
<g mask="url(#mask1_453_1349)">
<mask id="mask2_453_1349" style="mask-type:luminance" maskUnits="userSpaceOnUse" x="0" y="5" width="30" height="30">
<path d="M7.91853 7.0664C0.872681 10.9829 -1.65966 19.8769 2.26194 26.9316C6.18385 33.9863 15.0744 36.5304 22.1199 32.6135C29.1658 28.697 31.6981 19.803 27.7765 12.7483C23.8549 5.69357 14.9641 3.14954 7.91853 7.0664Z" fill="white"/>
</mask>
<g mask="url(#mask2_453_1349)">
<path d="M-4.83862 14.158L20.6759 -0.0253906L34.8593 25.4888L9.34473 39.6722L-4.83862 14.158Z" fill="#8EC198"/>
</g>
</g>
</g>
<mask id="mask3_453_1349" style="mask-type:luminance" maskUnits="userSpaceOnUse" x="1" y="7" width="28" height="28">
<path d="M1.91284 7.59277H28.1255V34.9381H1.91284V7.59277Z" fill="white"/>
</mask>
<g mask="url(#mask3_453_1349)">
<mask id="mask4_453_1349" style="mask-type:luminance" maskUnits="userSpaceOnUse" x="1" y="7" width="28" height="29">
<path d="M1.49219 8.11764L27.5544 7.1626L28.5543 34.4463L2.49242 35.4016L1.49219 8.11764Z" fill="white"/>
</mask>
<g mask="url(#mask4_453_1349)">
<mask id="mask5_453_1349" style="mask-type:luminance" maskUnits="userSpaceOnUse" x="1" y="7" width="28" height="28">
<path d="M14.5235 7.64037C7.32656 7.90426 1.71579 14.2169 1.99169 21.7406C2.26758 29.2643 8.32521 35.1494 15.5221 34.8855C22.719 34.6219 28.3295 28.3089 28.0539 20.7853C27.778 13.2619 21.7204 7.37649 14.5235 7.64037Z" fill="white"/>
</mask>
<g mask="url(#mask5_453_1349)">
<path d="M1.49219 8.11764L27.5544 7.1626L28.5543 34.4463L2.49242 35.4016L1.49219 8.11764Z" fill="white"/>
</g>
</g>
</g>
<path d="M1.14781 6.94296L3.33852 9.1324L3.17166 9.29926L0.917746 7.04788C0.784698 6.91483 0.653547 6.84056 0.524607 6.82539C0.395668 6.81022 0.262936 6.8709 0.126411 7.00743L0.0846956 7.04914L0 6.96445L0.27052 6.69266C0.398828 6.56467 0.528083 6.47745 0.658603 6.43099C0.789439 6.3839 0.931336 6.36715 1.08461 6.38043L4.35866 6.73438L2.2931 4.67008L2.45996 4.50195L5.25618 7.29564L5.17275 7.38034L1.14781 6.94296Z" fill="#388148"/>
<path d="M8.01434 5.66159C7.6882 5.82688 7.36016 5.89166 7.03086 5.85627C6.70219 5.82024 6.40007 5.69541 6.12449 5.48209C5.84986 5.26909 5.62517 4.99098 5.45072 4.64777C5.27722 4.30393 5.18589 3.9582 5.17641 3.60994C5.16629 3.26199 5.24435 2.9447 5.41027 2.65806C5.57555 2.37079 5.8211 2.14451 6.14725 1.97923C6.47339 1.81332 6.80079 1.74853 7.12946 1.78456C7.45876 1.8209 7.76152 1.94573 8.0371 2.15873C8.3133 2.37111 8.53832 2.64921 8.71213 2.99305C8.88658 3.33626 8.97791 3.68199 8.98644 4.03089C8.99561 4.37915 8.91723 4.69644 8.75132 4.98276C8.58604 5.2694 8.34048 5.49568 8.01434 5.66159ZM7.90816 5.45175C8.13633 5.3364 8.30003 5.16954 8.39863 4.95116C8.49786 4.7331 8.52947 4.47965 8.49344 4.19143C8.4571 3.90321 8.35439 3.59287 8.185 3.25978C8.01624 2.92605 7.82662 2.65996 7.61615 2.46086C7.40535 2.26208 7.18255 2.13851 6.94743 2.09047C6.71294 2.0418 6.4816 2.07499 6.25343 2.19034C6.02589 2.306 5.86282 2.47223 5.76422 2.68966C5.66562 2.90709 5.63402 3.15991 5.66941 3.44813C5.70481 3.73635 5.80688 4.04732 5.97533 4.38105C6.14472 4.71414 6.33497 4.97992 6.54671 5.1787C6.75813 5.3778 6.98093 5.502 7.21542 5.55161C7.4496 5.6006 7.68062 5.56742 7.90816 5.45175Z" fill="#388148"/>
<path d="M12.5321 4.15884C12.1585 4.21636 11.8532 4.19866 11.6156 4.10575C11.3786 4.01315 11.1953 3.84977 11.0657 3.61527C10.9368 3.38015 10.8419 3.06412 10.7813 2.66719L10.5525 1.18059C10.5221 0.982756 10.4722 0.840543 10.4033 0.754583C10.3335 0.667992 10.2168 0.636705 10.0531 0.661039L9.93811 0.680001L9.92041 0.562438L10.445 0.481535C10.5891 0.459729 10.6997 0.461941 10.7775 0.487855C10.8549 0.513138 10.9165 0.572235 10.962 0.664831C11.0082 0.756796 11.0467 0.901853 11.0771 1.09969L11.3324 2.762C11.3988 3.19369 11.5287 3.50782 11.7218 3.70502C11.9145 3.90223 12.1961 3.9727 12.5662 3.91613C12.8611 3.87062 13.087 3.78214 13.2438 3.65067C13.4005 3.5192 13.4994 3.34096 13.5408 3.11595C13.5819 2.89094 13.5753 2.60114 13.5206 2.24624L13.1844 0.0605851L13.4182 0.0239258L13.7545 2.20958C13.8167 2.61409 13.824 2.94656 13.776 3.20696C13.7279 3.46737 13.6053 3.67658 13.4081 3.83396C13.2115 3.99071 12.9195 4.09911 12.5321 4.15884Z" fill="#388148"/>
<path d="M18.3108 4.3574C18.1076 4.32769 17.9382 4.24047 17.8027 4.09573C17.6668 3.95162 17.529 3.70606 17.3893 3.35875L16.9469 2.28299L16.5398 2.22484L16.2832 4.00471L15.7573 3.92886L16.2111 0.776166C16.2396 0.577384 16.2333 0.426638 16.1922 0.323613C16.1517 0.220904 16.0497 0.157698 15.8863 0.133996L15.77 0.117563L15.7864 0L17.3046 0.218692C17.6693 0.271152 17.9929 0.391875 18.2754 0.581492C18.5586 0.771109 18.6711 1.06881 18.613 1.47396C18.569 1.77734 18.4477 1.99161 18.2489 2.11613C18.0507 2.24096 17.8131 2.31522 17.5359 2.33861L18.0011 3.44724C18.1105 3.70859 18.216 3.89505 18.3172 4.00724C18.4183 4.11911 18.5434 4.19433 18.6926 4.23225L18.6762 4.34855C18.6382 4.3593 18.5851 4.36625 18.5169 4.36878C18.4493 4.3713 18.3807 4.36751 18.3108 4.3574ZM16.9873 2.07947C17.1162 2.09811 17.2569 2.08895 17.4095 2.05166C17.5618 2.01468 17.6968 1.94105 17.814 1.83044C17.9319 1.72014 18.0043 1.57129 18.0315 1.3842C18.0583 1.19712 18.0296 1.03404 17.9455 0.894992C17.8621 0.755308 17.7537 0.64533 17.6206 0.565059C17.4873 0.484156 17.3564 0.434539 17.2275 0.415893C17.1036 0.398196 16.9611 0.397564 16.8002 0.413365L16.5689 2.02005L16.9873 2.07947Z" fill="#388148"/>
<path d="M20.3011 5.00587C20.1652 4.95341 20.07 4.89653 20.0154 4.83522C19.9613 4.77454 19.937 4.69269 19.9421 4.58998C19.9471 4.48727 19.9854 4.34221 20.0571 4.15512L21.1986 1.18066L21.6954 1.37028L20.5539 4.34474C20.4822 4.53183 20.4547 4.68005 20.4717 4.78971C20.4885 4.9 20.5741 4.9847 20.7283 5.04379L20.8383 5.08551L20.7966 5.19549L20.3011 5.00587Z" fill="#388148"/>
<path d="M22.9414 6.50177C22.76 6.38295 22.5982 6.242 22.456 6.07956C22.3135 5.91681 22.2171 5.75342 22.1665 5.58908C22.1166 5.42475 22.1305 5.2838 22.2082 5.16561L22.5521 4.63721L22.6405 4.69536C22.4828 5.06037 22.4364 5.36881 22.5015 5.62069C22.5672 5.87256 22.7417 6.09094 23.0248 6.2755C23.2024 6.39085 23.3838 6.44552 23.5684 6.43983C23.7536 6.43383 23.8977 6.35198 24.0007 6.1946C24.0908 6.05554 24.1262 5.90669 24.1069 5.74836C24.0883 5.59066 24.02 5.39378 23.9021 5.15676L23.5292 4.40082C23.4003 4.13788 23.3339 3.91382 23.3307 3.72831C23.3273 3.54312 23.3854 3.35856 23.5052 3.17463C23.6711 2.92023 23.892 2.7739 24.1676 2.73598C24.4438 2.69743 24.7254 2.77138 25.012 2.95846C25.1805 3.06813 25.3312 3.20086 25.4646 3.35666C25.5986 3.51183 25.6896 3.66953 25.7376 3.82944C25.7857 3.98872 25.7708 4.12777 25.6934 4.2466L25.3483 4.77626L25.2585 4.71937C25.4178 4.35215 25.4658 4.0456 25.4026 3.80036C25.3394 3.55513 25.1662 3.34023 24.8831 3.15567C24.732 3.05707 24.5686 3.0163 24.3926 3.03305C24.2172 3.05011 24.0816 3.1326 23.9856 3.28081C23.8971 3.41671 23.8655 3.55639 23.8907 3.7005C23.9167 3.84398 23.99 4.03897 24.1107 4.28578L24.4849 5.04299C24.6195 5.32457 24.6954 5.55274 24.7124 5.72814C24.7301 5.90322 24.6808 6.07988 24.5645 6.2578C24.3841 6.53496 24.1477 6.69645 23.8554 6.74196C23.5627 6.78746 23.2581 6.70719 22.9414 6.50177Z" fill="#388148"/>
<path d="M27.6222 6.03185C27.7745 5.90228 27.8693 5.78503 27.9066 5.68042C27.9436 5.57613 27.9082 5.4611 27.8004 5.33532L27.7246 5.24557L27.8156 5.16846L28.1607 5.57171C28.2542 5.68232 28.3102 5.77744 28.3288 5.8574C28.3481 5.93672 28.3307 6.02047 28.277 6.10896C28.223 6.19681 28.1196 6.30553 27.9673 6.4351L27.1608 7.1253L28.3099 8.47032L29.6549 7.31998L30 7.72323L27.5792 9.79385C27.4266 9.92437 27.3314 10.0419 27.2935 10.1465C27.2562 10.2508 27.2913 10.3659 27.3984 10.4916L27.4756 10.5814L27.3858 10.6572L27.0407 10.254C26.9462 10.1434 26.8896 10.0483 26.8713 9.9683C26.8527 9.88897 26.8704 9.80554 26.9244 9.718C26.9781 9.63015 27.0815 9.52112 27.2341 9.3906L28.1304 8.62454L26.9813 7.27953L25.5465 8.50572L25.2014 8.10246L27.6222 6.03185Z" fill="#388148"/>
<mask id="mask6_453_1349" style="mask-type:luminance" maskUnits="userSpaceOnUse" x="12" y="12" width="6" height="10">
<path d="M12.0259 12.6089H17.2037V21.5082H12.0259V12.6089Z" fill="white"/>
</mask>
<g mask="url(#mask6_453_1349)">
<mask id="mask7_453_1349" style="mask-type:luminance" maskUnits="userSpaceOnUse" x="10" y="12" width="10" height="10">
<path d="M10.0449 16.5421L14.9778 12.228L19.6512 17.5721L14.7183 21.8862L10.0449 16.5421Z" fill="white"/>
</mask>
<g mask="url(#mask7_453_1349)">
<mask id="mask8_453_1349" style="mask-type:luminance" maskUnits="userSpaceOnUse" x="6" y="12" width="14" height="14">
<path d="M6.1001 19.992L14.9609 12.2427L19.6343 17.5867L10.7732 25.336L6.1001 19.992Z" fill="white"/>
</mask>
<g mask="url(#mask8_453_1349)">
<path d="M14.6436 21.4527C14.0349 21.1642 12.9427 20.5214 12.3919 19.2964C11.4884 17.2868 12.3922 14.489 14.8057 12.6387C16.8014 14.3086 17.6396 16.7758 16.9383 18.8167C16.4658 20.1914 15.4274 20.9875 14.905 21.3298C15.0658 20.5514 15.1948 19.6194 15.2159 18.5639C15.2482 16.9351 15.0121 15.5531 14.7488 14.5159C14.8639 15.7051 14.9249 17.0451 14.8781 18.5098C14.8443 19.5666 14.759 20.5508 14.6436 21.4527Z" fill="#99CA9D"/>
</g>
</g>
</g>
<mask id="mask9_453_1349" style="mask-type:luminance" maskUnits="userSpaceOnUse" x="14" y="17" width="10" height="6">
<path d="M14.8574 17.1396H23.8377V22.8838H14.8574V17.1396Z" fill="white"/>
</mask>
<g mask="url(#mask9_453_1349)">
<mask id="mask10_453_1349" style="mask-type:luminance" maskUnits="userSpaceOnUse" x="14" y="14" width="11" height="12">
<path d="M17.9042 14.9839L24.2823 18.4959L20.6242 25.1401L14.2458 21.6281L17.9042 14.9839Z" fill="white"/>
</mask>
<g mask="url(#mask10_453_1349)">
<mask id="mask11_453_1349" style="mask-type:luminance" maskUnits="userSpaceOnUse" x="9" y="12" width="16" height="14">
<path d="M13.2792 12.438L24.282 18.4959L20.6237 25.1401L9.62085 19.0819L13.2792 12.438Z" fill="white"/>
</mask>
<g mask="url(#mask11_453_1349)">
<path d="M14.9309 21.5361C14.9979 20.8207 15.2441 19.4908 16.2715 18.4918C17.9569 16.8529 21.0916 16.7385 23.8274 18.4833C22.8809 21.0937 20.713 22.8338 18.411 22.8752C16.8603 22.9033 15.6831 22.1524 15.1496 21.7533C15.9883 21.6306 16.9699 21.4202 18.0359 21.0561C19.6811 20.4945 20.9806 19.7537 21.9243 19.1113C20.7743 19.6605 19.4526 20.2104 17.967 20.6977C16.8953 21.0491 15.8771 21.3225 14.9309 21.5361Z" fill="#5E9C76"/>
</g>
</g>
</g>
<mask id="mask12_453_1349" style="mask-type:luminance" maskUnits="userSpaceOnUse" x="6" y="17" width="9" height="7">
<path d="M6.03906 17.3013H14.8575V23.2881H6.03906V17.3013Z" fill="white"/>
</mask>
<g mask="url(#mask12_453_1349)">
<mask id="mask13_453_1349" style="mask-type:luminance" maskUnits="userSpaceOnUse" x="5" y="15" width="11" height="10">
<path d="M8.33535 24.8328L5.73096 18.0334L12.8138 15.3203L15.4182 22.12L8.33535 24.8328Z" fill="white"/>
</mask>
<g mask="url(#mask13_453_1349)">
<mask id="mask14_453_1349" style="mask-type:luminance" maskUnits="userSpaceOnUse" x="5" y="15" width="13" height="15">
<path d="M10.2344 29.7908L5.7417 18.0614L12.8245 15.3486L17.3172 27.0777L10.2344 29.7908Z" fill="white"/>
</mask>
<g mask="url(#mask14_453_1349)">
<path d="M14.8467 21.7757C14.3334 22.2791 13.2871 23.1356 11.8577 23.2354C9.51242 23.3995 7.04455 21.4631 6.0813 18.3645C8.48912 16.9819 11.2683 17.052 13.0532 18.5067C14.2554 19.4864 14.6697 20.8194 14.8198 21.4688C14.0999 21.021 13.2144 20.5479 12.1652 20.138C10.5461 19.505 9.07535 19.232 7.94018 19.1135C9.173 19.4365 10.5373 19.8694 11.9863 20.4563C13.032 20.8798 13.9861 21.3279 14.8467 21.7757Z" fill="#5E9C76"/>
</g>
</g>
</g>
<path d="M15.4076 29.1467C15.1842 29.1467 15.0107 29.1126 14.8868 29.0443C14.7635 28.9767 14.6763 28.8712 14.6251 28.727C14.5745 28.5829 14.5493 28.3905 14.5493 28.1493V26.3644L13.3901 28.9381H13.2965L12.0906 26.3176V28.9381H11.906V25.8765H12.3459L13.4596 28.2884L14.5493 25.8765H14.9664V28.1493C14.9664 28.4369 15.0025 28.6597 15.0751 28.8181C15.1485 28.9754 15.2591 29.0544 15.4076 29.0544V29.1467Z" fill="#388148"/>
<path d="M15.9633 26.4339C15.9633 26.2766 15.9412 26.1596 15.8976 26.0838C15.8546 26.0079 15.768 25.97 15.6384 25.97H15.5461V25.8765H17.522C17.7849 25.8765 17.9164 26.0003 17.9164 26.2481V26.5957H17.8228C17.8228 26.2402 17.6297 26.0623 17.2438 26.0623H16.3805V27.2683H17.6332V27.4541H16.3805V28.7523H17.192C17.405 28.7523 17.5719 28.7141 17.6926 28.6373C17.814 28.5599 17.91 28.4284 17.9808 28.2429L18.0731 28.2656L17.9113 28.7068C17.8557 28.861 17.7397 28.9381 17.5637 28.9381H15.9633V26.4339Z" fill="#388148"/>
</svg>
