<svg width="17" height="17" viewBox="0 0 17 17" fill="none" xmlns="http://www.w3.org/2000/svg">
<path d="M10.625 0.53125C10.625 1.52181 10.8076 2.4349 11.1729 3.27051C11.5381 4.10612 12.0638 4.87533 12.75 5.57812C13.4362 6.28092 13.9619 7.05013 14.3271 7.88574C14.6924 8.72135 14.875 9.63444 14.875 10.625C14.875 11.2116 14.8003 11.776 14.6509 12.3184C14.5015 12.8607 14.2856 13.367 14.0034 13.8374C13.7212 14.3078 13.3892 14.7394 13.0073 15.1323C12.6255 15.5252 12.1966 15.8573 11.7207 16.1284C11.2448 16.3996 10.7357 16.6126 10.1934 16.7676C9.65104 16.9225 9.08659 17 8.5 17C7.91341 17 7.34896 16.9253 6.80664 16.7759C6.26432 16.6265 5.75798 16.4106 5.2876 16.1284C4.81722 15.8462 4.38558 15.5142 3.99268 15.1323C3.59977 14.7505 3.26774 14.3216 2.99658 13.8457C2.72542 13.3698 2.51237 12.8607 2.35742 12.3184C2.20247 11.776 2.125 11.2116 2.125 10.625C2.125 10.1602 2.1748 9.70361 2.27441 9.25537C2.37402 8.80713 2.5179 8.37825 2.70605 7.96875C2.89421 7.55924 3.12663 7.16911 3.40332 6.79834C3.68001 6.42757 3.99268 6.09277 4.34131 5.79395C4.38005 6.00423 4.43262 6.22005 4.49902 6.44141C4.56543 6.66276 4.6429 6.88411 4.73145 7.10547C4.81999 7.32682 4.92513 7.53711 5.04688 7.73633C5.16862 7.93555 5.2959 8.12093 5.42871 8.29248C5.53939 8.43083 5.68327 8.5 5.86035 8.5C6.00977 8.5 6.13428 8.44743 6.23389 8.34229C6.3335 8.23714 6.38607 8.10986 6.3916 7.96045C6.3916 7.89958 6.3833 7.84424 6.3667 7.79443C6.3501 7.74463 6.32243 7.69482 6.28369 7.64502C6.12874 7.41813 5.99316 7.19401 5.87695 6.97266C5.76074 6.7513 5.65837 6.52441 5.56982 6.29199C5.48128 6.05957 5.41764 5.81885 5.37891 5.56982C5.34017 5.3208 5.31803 5.05794 5.3125 4.78125C5.3125 4.12272 5.43701 3.50293 5.68604 2.92188C5.93506 2.34082 6.27816 1.83447 6.71533 1.40283C7.15251 0.971191 7.65885 0.630859 8.23438 0.381836C8.8099 0.132812 9.42969 0.00553385 10.0938 0H10.625V0.53125ZM8.5 15.9375C9.236 15.9375 9.92497 15.7992 10.5669 15.5225C11.2088 15.2458 11.7733 14.8667 12.2603 14.3853C12.7472 13.9038 13.1263 13.3421 13.3975 12.7002C13.6686 12.0583 13.807 11.3665 13.8125 10.625C13.8125 9.78939 13.6576 9.01188 13.3477 8.29248C13.0378 7.57308 12.5895 6.92008 12.0029 6.3335C11.2835 5.60856 10.7191 4.80892 10.3096 3.93457C9.90006 3.06022 9.65658 2.11393 9.5791 1.0957C9.11979 1.15658 8.69645 1.29492 8.30908 1.51074C7.92171 1.72656 7.58138 2.00049 7.28809 2.33252C6.99479 2.66455 6.77067 3.03809 6.61572 3.45312C6.46077 3.86816 6.38053 4.31087 6.375 4.78125C6.375 5.21289 6.43864 5.60303 6.56592 5.95166C6.6932 6.30029 6.88135 6.64893 7.13037 6.99756C7.23551 7.14144 7.31576 7.29085 7.37109 7.4458C7.42643 7.60075 7.45687 7.7723 7.4624 7.96045C7.4624 8.1818 7.4209 8.38932 7.33789 8.58301C7.25488 8.77669 7.13867 8.94548 6.98926 9.08936C6.83984 9.23324 6.67106 9.34945 6.48291 9.43799C6.29476 9.52653 6.08724 9.56803 5.86035 9.5625C5.60579 9.5625 5.38167 9.51546 5.18799 9.42139C4.9943 9.32731 4.82275 9.20003 4.67334 9.03955C4.52393 8.87907 4.39111 8.69922 4.2749 8.5C4.15869 8.30078 4.04801 8.10156 3.94287 7.90234C3.68831 8.30632 3.50016 8.74072 3.37842 9.20557C3.25667 9.67041 3.19303 10.1436 3.1875 10.625C3.1875 11.361 3.32585 12.05 3.60254 12.6919C3.87923 13.3338 4.2583 13.8983 4.73975 14.3853C5.22119 14.8722 5.78288 15.2513 6.4248 15.5225C7.06673 15.7936 7.75846 15.932 8.5 15.9375Z" fill="#8EC3B0"/>
</svg>
