<svg width="16" height="16" viewBox="0 0 16 16" fill="none" xmlns="http://www.w3.org/2000/svg">
<path d="M11.0821 2.58616C10.6181 3.05016 10.1071 3.99916 9.91007 4.90616C9.78207 5.49816 9.54807 6.17316 9.02807 6.67116L8.80107 6.88716L9.65007 7.66016L9.83507 7.46616C10.3301 6.94816 11.0031 6.71416 11.5931 6.58616C12.5001 6.38816 13.4471 5.87816 13.9111 5.41416C14.0968 5.22841 14.244 5.0079 14.3445 4.76522C14.445 4.52255 14.4967 4.26246 14.4966 3.99981C14.4966 3.73716 14.4448 3.47709 14.3442 3.23445C14.2437 2.99181 14.0963 2.77135 13.9106 2.58566C13.7248 2.39997 13.5043 2.25269 13.2616 2.15222C13.019 2.05175 12.7589 2.00006 12.4962 2.00011C11.9658 2.0002 11.4571 2.21101 11.0821 2.58616ZM10.5581 8.15716L10.3901 8.33316L13.4061 11.0782L13.4141 11.0862C13.6051 11.2707 13.7575 11.4913 13.8623 11.7354C13.9671 11.9794 14.0223 12.2418 14.0246 12.5074C14.0269 12.7729 13.9763 13.0363 13.8757 13.2821C13.7752 13.5279 13.6266 13.7512 13.4389 13.939C13.2511 14.1267 13.0278 14.2752 12.782 14.3758C12.5362 14.4764 12.2728 14.527 12.0073 14.5247C11.7417 14.5224 11.4793 14.4672 11.2353 14.3624C10.9913 14.2575 10.7706 14.1052 10.5861 13.9142L10.5781 13.9062L7.88807 10.9512L4.98807 13.9882C4.65987 14.3164 4.21473 14.5008 3.75057 14.5008C3.28642 14.5008 2.84128 14.3164 2.51307 13.9882C2.18487 13.66 2.00048 13.2148 2.00048 12.7507C2.00048 12.2865 2.18487 11.8414 2.51307 11.5132L2.52107 11.5052L5.14107 9.00216H4.62107C4.09068 9.00205 3.58206 8.79126 3.20707 8.41616L1.08607 6.29516C0.90027 6.10943 0.752879 5.88892 0.652318 5.64622C0.551758 5.40351 0.5 5.14337 0.5 4.88066C0.5 4.61795 0.551758 4.35781 0.652318 4.11511C0.752879 3.8724 0.90027 3.65189 1.08607 3.46616L2.96407 1.58816C3.1498 1.40236 3.37032 1.25497 3.61302 1.15441C3.85572 1.05385 4.11586 1.00209 4.37857 1.00209C4.64128 1.00209 4.90142 1.05385 5.14413 1.15441C5.38683 1.25497 5.60735 1.40236 5.79307 1.58816L7.91407 3.70816C8.10004 3.89407 8.24752 4.11484 8.34808 4.35781C8.44863 4.60078 8.50028 4.8612 8.50007 5.12416V5.76416C8.70807 5.48516 8.84107 5.11816 8.93307 4.69616C9.16307 3.63416 9.75307 2.50216 10.3751 1.88016C10.6528 1.59783 10.9836 1.37327 11.3486 1.21945C11.7135 1.06562 12.1053 0.985572 12.5013 0.983913C12.8973 0.982254 13.2897 1.05902 13.6559 1.20978C14.0221 1.36054 14.3549 1.58232 14.6349 1.86232C14.915 2.14231 15.1368 2.47499 15.2877 2.84115C15.4385 3.20732 15.5154 3.59973 15.5138 3.99575C15.5123 4.39177 15.4323 4.78356 15.2786 5.14852C15.1248 5.51348 14.9003 5.84439 14.6181 6.12216C13.9961 6.74416 12.8661 7.33316 11.8061 7.56416C11.2861 7.67716 10.8481 7.85416 10.5581 8.15816M6.33507 9.24416L3.21607 12.2242C3.08359 12.3663 3.01147 12.5544 3.0149 12.7487C3.01833 12.943 3.09704 13.1284 3.23445 13.2658C3.37186 13.4032 3.55725 13.4819 3.75155 13.4853C3.94585 13.4888 4.1339 13.4166 4.27607 13.2842L7.21407 10.2102L6.33507 9.24416ZM5.08507 2.29416C4.89759 2.107 4.64349 2.00188 4.37857 2.00188C4.11365 2.00188 3.85956 2.107 3.67207 2.29416L1.79207 4.17416C1.6046 4.36169 1.49929 4.616 1.49929 4.88116C1.49929 5.14633 1.6046 5.40063 1.79207 5.58816L3.91407 7.70816C4.00683 7.80121 4.11701 7.87506 4.23832 7.92551C4.35963 7.97596 4.48969 8.002 4.62107 8.00216H5.89407C6.10302 8.00202 6.30968 8.04554 6.50083 8.12992C6.69198 8.2143 6.86339 8.33768 7.00407 8.49216L11.3001 13.2152C11.4877 13.4028 11.7422 13.5082 12.0076 13.5082C12.2729 13.5082 12.5274 13.4028 12.7151 13.2152C12.9027 13.0275 13.0081 12.773 13.0081 12.5077C13.0081 12.2423 12.9027 11.9878 12.7151 11.8002L7.99007 7.50116C7.83572 7.36059 7.71241 7.18934 7.62803 6.99838C7.54366 6.80741 7.50007 6.60094 7.50007 6.39216V5.12316C7.50002 4.85797 7.39462 4.60365 7.20707 4.41616L5.08507 2.29416ZM3.35507 4.64716C3.30858 4.60067 3.2534 4.5638 3.19266 4.53864C3.13192 4.51348 3.06682 4.50053 3.00107 4.50053C2.93533 4.50053 2.87023 4.51348 2.80949 4.53864C2.74875 4.5638 2.69356 4.60067 2.64707 4.64716C2.60058 4.69365 2.56371 4.74884 2.53855 4.80958C2.51339 4.87032 2.50044 4.93542 2.50044 5.00116C2.50044 5.06691 2.51339 5.13201 2.53855 5.19275C2.56371 5.25349 2.60058 5.30867 2.64707 5.35516L4.14707 6.85516C4.24096 6.94905 4.3683 7.00179 4.50107 7.00179C4.63385 7.00179 4.76119 6.94905 4.85507 6.85516C4.94896 6.76128 5.0017 6.63394 5.0017 6.50116C5.0017 6.36839 4.94896 6.24105 4.85507 6.14716L3.35507 4.64716ZM4.14707 3.14716C4.19352 3.1006 4.24869 3.06366 4.30944 3.03845C4.37018 3.01324 4.43531 3.00027 4.50107 3.00027C4.56684 3.00027 4.63196 3.01324 4.69271 3.03845C4.75345 3.06366 4.80863 3.1006 4.85507 3.14716L6.35507 4.64716C6.40156 4.69365 6.43844 4.74884 6.4636 4.80958C6.48876 4.87032 6.5017 4.93542 6.5017 5.00116C6.5017 5.06691 6.48876 5.13201 6.4636 5.19275C6.43844 5.25349 6.40156 5.30867 6.35507 5.35516C6.30859 5.40165 6.2534 5.43853 6.19266 5.46369C6.13192 5.48884 6.06682 5.50179 6.00107 5.50179C5.93533 5.50179 5.87023 5.48884 5.80949 5.46369C5.74875 5.43853 5.69356 5.40165 5.64707 5.35516L4.14707 3.85516C4.10051 3.80872 4.06357 3.75354 4.03836 3.6928C4.01315 3.63205 4.00018 3.56693 4.00018 3.50116C4.00018 3.4354 4.01315 3.37027 4.03836 3.30953C4.06357 3.24878 4.10051 3.19361 4.14707 3.14716ZM11.7501 4.00016C11.7501 3.86755 11.6974 3.74038 11.6036 3.64661C11.5099 3.55284 11.3827 3.50016 11.2501 3.50016C11.1175 3.50016 10.9903 3.55284 10.8965 3.64661C10.8028 3.74038 10.7501 3.86755 10.7501 4.00016C10.7501 4.96616 11.5341 5.75016 12.5001 5.75016C12.6327 5.75016 12.7599 5.69748 12.8536 5.60372C12.9474 5.50995 13.0001 5.38277 13.0001 5.25016C13.0001 5.11755 12.9474 4.99038 12.8536 4.89661C12.7599 4.80284 12.6327 4.75016 12.5001 4.75016C12.3012 4.75016 12.1104 4.67114 11.9697 4.53049C11.8291 4.38984 11.7501 4.19907 11.7501 4.00016Z" fill="#8EC3B0"/>
</svg>
