<svg width="14" height="14" viewBox="0 0 14 14" fill="none" xmlns="http://www.w3.org/2000/svg">
<g clip-path="url(#clip0_451_623)">
<path d="M11.9584 1.1665H2.04175C1.80968 1.1665 1.58712 1.25869 1.42303 1.42279C1.25894 1.58688 1.16675 1.80944 1.16675 2.0415V11.9582C1.16675 12.1902 1.25894 12.4128 1.42303 12.5769C1.58712 12.741 1.80968 12.8332 2.04175 12.8332H11.9584C12.1905 12.8332 12.413 12.741 12.5771 12.5769C12.7412 12.4128 12.8334 12.1902 12.8334 11.9582V2.0415C12.8334 1.80944 12.7412 1.58688 12.5771 1.42279C12.413 1.25869 12.1905 1.1665 11.9584 1.1665Z" stroke="#8EC3B0" stroke-linejoin="round"/>
<path d="M3.5 5.55713C4.46979 4.39046 5.63646 3.80713 7 3.80713C8.36354 3.80713 9.53021 4.39046 10.5 5.55713" stroke="#8EC3B0" stroke-linecap="round"/>
<path d="M7 9.0415C7.23206 9.0415 7.45462 8.94932 7.61872 8.78522C7.78281 8.62113 7.875 8.39857 7.875 8.1665C7.875 7.93444 7.78281 7.71188 7.61872 7.54779C7.45462 7.38369 7.23206 7.2915 7 7.2915C6.76794 7.2915 6.54538 7.38369 6.38128 7.54779C6.21719 7.71188 6.125 7.93444 6.125 8.1665C6.125 8.39857 6.21719 8.62113 6.38128 8.78522C6.54538 8.94932 6.76794 9.0415 7 9.0415Z" fill="#8EC3B0"/>
<path d="M5.54175 6.125L7.00241 8.16667" stroke="#8EC3B0" stroke-linecap="round"/>
</g>
<defs>
<clipPath id="clip0_451_623">
<rect width="14" height="14" fill="white"/>
</clipPath>
</defs>
</svg>
