<svg width="24" height="25" viewBox="0 0 24 25" fill="none" xmlns="http://www.w3.org/2000/svg">
<path d="M9 20.5H6C4.93913 20.5 3.92172 20.0786 3.17157 19.3284C2.42143 18.5783 2 17.5609 2 16.5V7.5C2 6.43913 2.42143 5.42172 3.17157 4.67157C3.92172 3.92143 4.93913 3.5 6 3.5H17C18.0609 3.5 19.0783 3.92143 19.8284 4.67157C20.5786 5.42172 21 6.43913 21 7.5V10.5M8 2.5V4.5M15 2.5V4.5M2 8.5H21" stroke="black" stroke-linecap="round" stroke-linejoin="round"/>
<path d="M21.12 14.1534C21.12 12.9501 20.1213 10.1001 18.5471 10.1001C16.9957 10.1001 16.0533 12.9156 16.0533 14.1534C16.0533 15.3765 16.9253 16.4 18.08 16.6356V22.2601H19.0933V16.6356C20.248 16.4 21.12 15.377 21.12 14.1534ZM18.5866 15.6734C17.7486 15.6734 17.0666 14.9915 17.0666 14.1534C17.0666 13.053 17.9224 11.1134 18.5471 11.1134C19.1901 11.1134 20.1066 13.0798 20.1066 14.1534C20.1066 14.9915 19.4247 15.6734 18.5866 15.6734ZM13.52 13.6468H14.5333V16.3899L12.8648 18.0583L12.1484 17.3419L13.52 15.9703V13.6468ZM17.0666 18.8523V20.2238C16.2185 20.8632 15.1676 21.2468 14.0266 21.2468C11.2329 21.2468 8.95996 18.9739 8.95996 16.1801C8.95996 13.3863 11.2329 11.1134 14.0266 11.1134C14.6179 11.1134 15.1839 11.2203 15.7118 11.4078C15.5694 11.7204 15.4488 12.0406 15.3531 12.3543C14.9366 12.2094 14.4917 12.1268 14.0266 12.1268C11.7917 12.1268 9.97329 13.9452 9.97329 16.1801C9.97329 18.415 11.7917 20.2334 14.0266 20.2334C15.2376 20.2334 16.3233 19.6969 17.0666 18.8523Z" fill="black"/>
</svg>
