<svg width="18" height="18" viewBox="0 0 18 18" fill="none" xmlns="http://www.w3.org/2000/svg">
<path d="M8.98887 9.90298L9.3158 9.90045L9.44458 9.59995L11.1236 5.68195L11.1236 5.68189C11.19 5.52686 11.3673 5.45847 11.5165 5.52319L11.5185 5.52407C11.6707 5.58929 11.7413 5.76598 11.6763 5.91781L9.99294 9.84501L9.86449 10.1447L10.0869 10.3831C10.3439 10.6585 10.5 11.0121 10.5 11.4C10.5 12.2284 9.82836 12.9 9 12.9C8.17164 12.9 7.5 12.2284 7.5 11.4C7.5 10.5771 8.16506 9.90937 8.98887 9.90298ZM9 17.5C13.6946 17.5 17.5 13.6946 17.5 9C17.5 4.30536 13.6946 0.5 9 0.5C4.30536 0.5 0.5 4.30536 0.5 9C0.5 13.6946 4.30536 17.5 9 17.5Z" stroke="#8EC3B0"/>
</svg>
