<svg width="293" height="293" viewBox="0 0 293 293" fill="none" xmlns="http://www.w3.org/2000/svg">
<path d="M53.1619 219.393C102.263 245.042 181.865 245.042 230.96 219.393C280.055 193.743 280.061 152.155 230.96 126.506C181.859 100.856 102.257 100.856 53.1619 126.506C4.06681 152.155 4.06095 193.743 53.1619 219.393Z" fill="#FAFAFA"/>
<path d="M171.012 184.666C159.462 191.329 159.462 202.141 171.012 208.809C182.562 215.478 201.279 215.478 212.829 208.809C224.379 202.141 224.374 191.329 212.829 184.666C201.285 178.003 182.557 177.998 171.012 184.666Z" fill="#EBEBEB"/>
<path d="M49.4056 89.0896L80.3464 79.4675L56.5431 95.9576L49.4056 89.0896Z" fill="#8EC3B0"/>
<path d="M80.3465 79.4674L47.0207 84.9641L39.8832 78.0903L80.3465 79.4674Z" fill="#8EC3B0"/>
<path d="M47.0206 84.9642V93.2092L49.4056 89.0896L80.3465 79.4675L47.0206 84.9642Z" fill="#455A64"/>
<path d="M47.0206 93.2092L51.7848 91.3809L49.4056 89.0896L47.0206 93.2092Z" fill="#8EC3B0"/>
<path d="M49.4056 89.0896L51.7848 91.3809L51.023 91.668L49.4056 89.0896Z" fill="#455A64"/>
<path d="M41.8931 91.9668C41.7946 91.9687 41.6983 91.9373 41.6197 91.8779C41.5412 91.8184 41.4848 91.7343 41.4598 91.6389C41.4348 91.5436 41.4426 91.4427 41.4818 91.3523C41.5211 91.2619 41.5896 91.1873 41.6763 91.1405C42.2037 90.8475 42.737 90.5545 43.2644 90.326C43.3167 90.2977 43.3742 90.2803 43.4334 90.2749C43.4926 90.2695 43.5523 90.2761 43.6089 90.2944C43.6654 90.3127 43.7177 90.3424 43.7625 90.3815C43.8073 90.4206 43.8437 90.4683 43.8695 90.5219C43.8953 90.5755 43.9099 90.6337 43.9126 90.6931C43.9152 90.7525 43.9058 90.8119 43.8848 90.8675C43.8638 90.9231 43.8318 90.974 43.7906 91.0169C43.7495 91.0598 43.7 91.0939 43.6453 91.1171C43.1355 91.3632 42.6139 91.6269 42.1041 91.9141C42.0389 91.9479 41.9666 91.966 41.8931 91.9668Z" fill="#E0E0E0"/>
<path d="M36.4843 139.292C36.3945 139.293 36.3066 139.267 36.2324 139.216C35.2793 138.544 34.3764 137.804 33.5309 137.001C33.4773 136.966 33.432 136.92 33.398 136.866C33.364 136.812 33.3422 136.751 33.3342 136.688C33.3261 136.624 33.332 136.56 33.3514 136.499C33.3707 136.438 33.4031 136.382 33.4463 136.335C33.4895 136.288 33.5424 136.251 33.6014 136.227C33.6604 136.202 33.7241 136.191 33.7879 136.193C33.8517 136.196 33.9142 136.212 33.971 136.241C34.0279 136.271 34.0776 136.312 34.1169 136.362C34.9325 137.136 35.8041 137.849 36.7246 138.495C36.8005 138.55 36.8571 138.627 36.8863 138.715C36.9155 138.804 36.9158 138.899 36.8871 138.988C36.8584 139.077 36.8022 139.154 36.7266 139.209C36.651 139.263 36.56 139.293 36.4668 139.292H36.4843ZM31.8901 135.026C31.8252 135.027 31.761 135.013 31.7022 134.986C31.6434 134.958 31.5914 134.918 31.5502 134.868C30.8118 133.967 30.1401 133.013 29.5402 132.014C29.4796 131.914 29.4613 131.794 29.4893 131.68C29.5174 131.566 29.5894 131.468 29.6897 131.408C29.7899 131.347 29.9101 131.329 30.0239 131.357C30.1376 131.385 30.2356 131.457 30.2962 131.557C30.874 132.52 31.5202 133.441 32.23 134.311C32.3032 134.401 32.3381 134.516 32.3271 134.631C32.3161 134.746 32.2602 134.852 32.1714 134.927C32.0929 134.993 31.9929 135.028 31.8901 135.026ZM28.5909 129.694C28.5058 129.694 28.4223 129.67 28.3505 129.625C28.2787 129.579 28.2218 129.513 28.1866 129.436C27.7077 128.375 27.2967 127.285 26.956 126.172C26.931 126.063 26.9479 125.95 27.0034 125.853C27.0589 125.757 27.1488 125.685 27.255 125.653C27.3612 125.62 27.4758 125.629 27.5758 125.677C27.6758 125.726 27.7538 125.81 27.794 125.914C28.1179 126.99 28.5093 128.045 28.966 129.072C28.9905 129.125 29.0044 129.182 29.0068 129.24C29.0091 129.298 29 129.356 28.9798 129.411C28.9597 129.465 28.9289 129.515 28.8893 129.558C28.8497 129.6 28.8021 129.634 28.7491 129.658C28.6993 129.681 28.6455 129.692 28.5909 129.694ZM26.6864 123.711C26.5848 123.71 26.4866 123.673 26.4086 123.608C26.3306 123.543 26.2776 123.453 26.2586 123.353C26.0349 122.214 25.8765 121.064 25.784 119.907C25.7747 119.791 25.812 119.675 25.8878 119.586C25.9637 119.497 26.0718 119.442 26.1883 119.433C26.3049 119.423 26.4204 119.461 26.5094 119.537C26.5984 119.612 26.6537 119.72 26.663 119.837C26.7492 120.96 26.9018 122.078 27.1201 123.183C27.132 123.24 27.1324 123.298 27.1214 123.355C27.1104 123.412 27.0881 123.466 27.0559 123.514C27.0237 123.562 26.9822 123.603 26.9338 123.635C26.8854 123.667 26.8312 123.688 26.7743 123.699L26.6864 123.711ZM26.1297 117.452C26.0718 117.452 26.0144 117.44 25.961 117.418C25.9076 117.395 25.8593 117.362 25.8189 117.321C25.7784 117.279 25.7468 117.23 25.7257 117.176C25.7046 117.122 25.6945 117.065 25.6961 117.007C25.7098 115.847 25.788 114.689 25.9305 113.538C25.9312 113.476 25.9448 113.415 25.9707 113.359C25.9965 113.303 26.0339 113.252 26.0803 113.212C26.1268 113.171 26.1814 113.141 26.2404 113.122C26.2995 113.104 26.3617 113.099 26.423 113.106C26.4844 113.113 26.5434 113.134 26.5964 113.166C26.6494 113.197 26.695 113.24 26.7304 113.291C26.7657 113.341 26.79 113.399 26.8016 113.46C26.8132 113.52 26.8119 113.583 26.7978 113.643C26.6623 114.763 26.5879 115.89 26.5751 117.018C26.5743 117.076 26.5622 117.133 26.5394 117.186C26.5166 117.239 26.4836 117.287 26.4422 117.327C26.4009 117.368 26.352 117.399 26.2984 117.421C26.2447 117.442 26.1874 117.453 26.1297 117.452ZM26.8446 111.211C26.8117 111.217 26.778 111.217 26.745 111.211C26.6318 111.186 26.5331 111.117 26.4705 111.019C26.408 110.921 26.3866 110.803 26.411 110.69C26.6678 109.554 26.9966 108.437 27.3955 107.344C27.4149 107.286 27.4458 107.234 27.4864 107.189C27.5269 107.145 27.5762 107.109 27.6312 107.084C27.6861 107.06 27.7456 107.046 27.8059 107.046C27.8661 107.045 27.9259 107.057 27.9815 107.08C28.038 107.1 28.0899 107.131 28.134 107.172C28.1782 107.213 28.2136 107.262 28.2382 107.317C28.2629 107.371 28.2762 107.431 28.2774 107.491C28.2786 107.551 28.2676 107.61 28.2452 107.666C27.8607 108.723 27.5436 109.803 27.2959 110.901C27.2669 110.996 27.2065 111.078 27.1246 111.135C27.0426 111.191 26.9439 111.218 26.8446 111.211ZM28.9308 105.293C28.8632 105.295 28.7963 105.279 28.7374 105.246C28.685 105.221 28.638 105.187 28.5991 105.144C28.5603 105.101 28.5305 105.05 28.5114 104.996C28.4922 104.941 28.4843 104.883 28.4879 104.826C28.4915 104.768 28.5066 104.711 28.5323 104.66C29.0438 103.615 29.6192 102.604 30.2552 101.63C30.3192 101.539 30.4152 101.476 30.524 101.453C30.6327 101.43 30.746 101.45 30.8412 101.507C30.934 101.569 30.9993 101.665 31.0233 101.774C31.0474 101.883 31.0283 101.998 30.9701 102.093C30.3519 103.033 29.7941 104.012 29.3 105.023C29.2697 105.098 29.219 105.163 29.1538 105.21C29.0886 105.258 29.0113 105.286 28.9308 105.293ZM32.3003 100.019C32.2023 100.02 32.107 99.9864 32.0307 99.9248C31.9851 99.8888 31.947 99.8441 31.9187 99.7933C31.8904 99.7425 31.8724 99.6866 31.8659 99.6289C31.8593 99.5711 31.8643 99.5126 31.8806 99.4568C31.8968 99.4009 31.9239 99.3489 31.9604 99.3036C32.6927 98.3989 33.4753 97.5362 34.3044 96.7193C34.3868 96.637 34.4985 96.5908 34.615 96.5908C34.7315 96.5908 34.8432 96.637 34.9256 96.7193C35.0079 96.8018 35.0541 96.9135 35.0541 97.0299C35.0541 97.1464 35.0079 97.2581 34.9256 97.3405C34.127 98.1372 33.3719 98.9764 32.6636 99.8544C32.6182 99.9046 32.5617 99.9434 32.4986 99.9679C32.4356 99.9923 32.3676 100.002 32.3003 99.9951V100.019ZM36.707 95.518C36.6431 95.5179 36.5801 95.5037 36.5223 95.4763C36.4646 95.449 36.4136 95.4092 36.373 95.3598C36.2988 95.27 36.2627 95.1546 36.2726 95.0385C36.2824 94.9223 36.3374 94.8147 36.4257 94.7387C37.3178 93.9968 38.2469 93.3006 39.2092 92.6525C39.3037 92.5946 39.4166 92.5745 39.5252 92.5962C39.6339 92.6179 39.7303 92.6799 39.7952 92.7697C39.8607 92.867 39.885 92.9862 39.8631 93.1014C39.8411 93.2166 39.7747 93.3185 39.678 93.385C38.7391 94.0155 37.8335 94.6942 36.9649 95.4184C36.8913 95.4774 36.8012 95.5122 36.707 95.518Z" fill="#E0E0E0"/>
<path d="M40.5161 141.583C40.4532 141.584 40.391 141.57 40.3344 141.542C39.7894 141.296 39.2503 141.033 38.7346 140.751C38.6842 140.725 38.6395 140.689 38.6031 140.645C38.5667 140.601 38.5392 140.55 38.5224 140.496C38.5055 140.442 38.4995 140.384 38.5048 140.328C38.51 140.271 38.5264 140.216 38.553 140.165C38.6077 140.065 38.6996 139.989 38.809 139.955C38.9185 139.921 39.0369 139.932 39.139 139.984C39.6429 140.253 40.1645 140.511 40.6919 140.751C40.7823 140.793 40.8558 140.865 40.9001 140.954C40.9445 141.044 40.9572 141.145 40.936 141.243C40.9149 141.34 40.8612 141.428 40.7838 141.491C40.7065 141.554 40.61 141.589 40.5102 141.589L40.5161 141.583Z" fill="#E0E0E0"/>
<path d="M240.957 120.317L265.745 104.449L276.662 107.953L240.957 120.317Z" fill="#8EC3B0"/>
<path d="M240.957 120.318L262.381 102.456L257.617 96.9596L240.957 120.318Z" fill="#8EC3B0"/>
<path d="M262.381 102.456V106.599L240.957 120.318L262.381 102.456Z" fill="#455A64"/>
<path d="M267.216 100.728C267.11 100.728 267.007 100.688 266.929 100.616C266.842 100.539 266.789 100.43 266.782 100.314C266.774 100.198 266.812 100.083 266.888 99.995C267.651 99.1438 268.328 98.2193 268.91 97.235C268.969 97.134 269.065 97.0605 269.179 97.0309C269.292 97.0012 269.412 97.0177 269.513 97.0768C269.614 97.1358 269.688 97.2326 269.717 97.3458C269.747 97.459 269.73 97.5793 269.671 97.6803C269.058 98.7122 268.347 99.6835 267.55 100.581C267.508 100.628 267.457 100.665 267.399 100.691C267.341 100.716 267.279 100.728 267.216 100.728ZM270.568 95.266C270.515 95.2744 270.462 95.2744 270.41 95.266C270.354 95.2448 270.304 95.2126 270.261 95.1713C270.218 95.13 270.184 95.0804 270.161 95.0257C270.138 94.9709 270.127 94.912 270.127 94.8526C270.127 94.7932 270.14 94.7345 270.164 94.68C270.578 93.6127 270.888 92.5078 271.089 91.3808C271.11 91.2658 271.176 91.1639 271.272 91.0974C271.369 91.0309 271.487 91.0053 271.602 91.0263C271.717 91.0473 271.819 91.1131 271.886 91.2093C271.952 91.3054 271.978 91.4241 271.957 91.5391C271.741 92.7199 271.413 93.8776 270.978 94.9965C270.945 95.0776 270.888 95.1468 270.815 95.1949C270.742 95.243 270.655 95.2678 270.568 95.266ZM271.822 88.9782C271.764 88.9775 271.708 88.9653 271.655 88.9425C271.602 88.9196 271.555 88.8865 271.515 88.845C271.475 88.8036 271.444 88.7547 271.423 88.7011C271.402 88.6475 271.393 88.5903 271.394 88.5329C271.394 88.3805 271.394 88.2282 271.394 88.0758C271.392 87.081 271.313 86.0877 271.16 85.1048C271.143 84.9891 271.172 84.8715 271.241 84.7772C271.31 84.6829 271.414 84.6196 271.529 84.6008C271.644 84.5855 271.761 84.6153 271.855 84.6841C271.949 84.7529 272.013 84.8553 272.033 84.97C272.191 85.9977 272.272 87.036 272.273 88.0758C272.273 88.234 272.273 88.3922 272.273 88.5505C272.269 88.6665 272.219 88.7762 272.135 88.8561C272.05 88.936 271.938 88.9799 271.822 88.9782ZM270.937 82.626C270.843 82.6257 270.751 82.5946 270.676 82.5375C270.601 82.4804 270.547 82.4004 270.521 82.3096C270.185 81.21 269.764 80.1383 269.261 79.1041C269.235 79.0523 269.22 78.9959 269.217 78.9381C269.213 78.8804 269.221 78.8225 269.24 78.7679C269.259 78.7133 269.289 78.6631 269.328 78.6202C269.367 78.5773 269.414 78.5426 269.466 78.5182C269.571 78.4678 269.692 78.4611 269.802 78.4995C269.911 78.538 270.002 78.6184 270.052 78.7232C270.576 79.7979 271.013 80.913 271.359 82.0576C271.376 82.1126 271.382 82.1705 271.376 82.2278C271.371 82.2851 271.354 82.3408 271.327 82.3915C271.3 82.4423 271.262 82.4871 271.218 82.5233C271.173 82.5595 271.121 82.5865 271.066 82.6026C271.025 82.6188 270.981 82.6268 270.937 82.626ZM268.218 76.807C268.144 76.8077 268.071 76.7892 268.006 76.7532C267.942 76.7173 267.887 76.6651 267.849 76.6019C267.221 75.6376 266.53 74.7155 265.78 73.8419C265.742 73.7981 265.714 73.7472 265.695 73.6922C265.677 73.6373 265.67 73.5793 265.675 73.5215C265.679 73.4638 265.695 73.4075 265.721 73.3559C265.747 73.3043 265.783 73.2583 265.827 73.2207C265.87 73.183 265.921 73.1544 265.975 73.1363C266.03 73.1183 266.087 73.1112 266.145 73.1156C266.202 73.1199 266.258 73.1356 266.309 73.1617C266.36 73.1878 266.405 73.2238 266.442 73.2676C267.22 74.1719 267.937 75.1273 268.587 76.1273C268.641 76.2238 268.658 76.3368 268.634 76.4448C268.61 76.5528 268.548 76.6484 268.458 76.7133C268.388 76.7648 268.305 76.7953 268.218 76.8012V76.807ZM264.116 71.8788C264.004 71.8784 263.897 71.8342 263.817 71.7557C262.973 70.9659 262.087 70.2226 261.163 69.5289C261.116 69.4943 261.077 69.4509 261.048 69.4012C261.019 69.3516 260.999 69.2966 260.991 69.2395C260.983 69.1823 260.986 69.1241 261.001 69.0682C261.015 69.0123 261.04 68.9598 261.075 68.9136C261.109 68.8674 261.153 68.8285 261.202 68.7991C261.252 68.7697 261.307 68.7504 261.364 68.7422C261.421 68.7341 261.479 68.7372 261.535 68.7516C261.591 68.7659 261.644 68.7911 261.69 68.8257C262.642 69.5376 263.554 70.3026 264.421 71.117C264.486 71.1774 264.531 71.2561 264.551 71.3428C264.57 71.4295 264.563 71.52 264.53 71.6025C264.497 71.685 264.44 71.7556 264.366 71.8049C264.292 71.8542 264.205 71.88 264.116 71.8788ZM258.977 67.976C258.894 67.9752 258.812 67.9508 258.742 67.9057C258.344 67.6596 257.928 67.4134 257.506 67.1732C256.92 66.845 256.334 66.5169 255.713 66.2063C255.656 66.1836 255.605 66.1492 255.562 66.1055C255.519 66.0619 255.486 66.0097 255.465 65.9525C255.443 65.8953 255.434 65.8343 255.438 65.7733C255.441 65.7123 255.457 65.6527 255.485 65.5983C255.513 65.5439 255.552 65.4959 255.599 65.4573C255.646 65.4188 255.701 65.3906 255.76 65.3744C255.819 65.3583 255.881 65.3547 255.941 65.3637C256.002 65.3727 256.06 65.3943 256.111 65.4269C256.727 65.7433 257.342 66.0715 257.94 66.4114C258.373 66.6516 258.795 66.9036 259.205 67.1615C259.3 67.2219 259.368 67.3163 259.395 67.4253C259.422 67.5343 259.407 67.6496 259.352 67.7475C259.314 67.8143 259.26 67.8705 259.194 67.9104C259.128 67.9504 259.054 67.973 258.977 67.976ZM206.442 67.6771C206.365 67.6763 206.289 67.6553 206.222 67.6163C206.155 67.5772 206.1 67.5215 206.061 67.4545C206.005 67.3555 205.991 67.2387 206.02 67.1292C206.05 67.0196 206.121 66.926 206.219 66.8685C207.239 66.2825 208.288 65.6965 209.348 65.2042C209.453 65.1534 209.573 65.1459 209.682 65.1832C209.792 65.2205 209.883 65.2997 209.934 65.4035C209.983 65.5086 209.989 65.6287 209.951 65.7381C209.913 65.8475 209.833 65.9377 209.729 65.9895C208.686 66.4993 207.655 67.0443 206.653 67.6244C206.587 67.6563 206.515 67.6705 206.442 67.6654V67.6771ZM253.263 64.9991C253.202 64.9995 253.142 64.9855 253.088 64.9581C252.033 64.4952 250.943 64.0615 249.853 63.6748C249.742 63.6351 249.652 63.5533 249.602 63.4472C249.552 63.3412 249.547 63.2196 249.586 63.1093C249.626 62.9989 249.708 62.9088 249.814 62.8588C249.92 62.8088 250.041 62.803 250.152 62.8426C251.259 63.2411 252.367 63.6806 253.445 64.1553C253.539 64.1953 253.616 64.2667 253.663 64.3574C253.71 64.4481 253.724 64.5524 253.703 64.6522C253.681 64.7521 253.625 64.8414 253.545 64.9047C253.465 64.968 253.365 65.0014 253.263 64.9991ZM212.214 64.8175C212.127 64.8181 212.043 64.7927 211.971 64.7446C211.898 64.6966 211.842 64.6281 211.81 64.5479C211.786 64.4942 211.773 64.4361 211.771 64.3773C211.77 64.3184 211.781 64.2599 211.803 64.2053C211.825 64.1506 211.857 64.1009 211.899 64.0591C211.94 64.0173 211.99 63.9843 212.044 63.9619C213.128 63.5048 214.242 63.0829 215.355 62.702C215.411 62.6788 215.471 62.6675 215.532 62.6686C215.592 62.6698 215.652 62.6834 215.707 62.7088C215.762 62.7341 215.811 62.7705 215.851 62.8157C215.892 62.8609 215.922 62.914 215.941 62.9716C215.962 63.0281 215.972 63.0883 215.97 63.1486C215.967 63.2089 215.953 63.2682 215.927 63.3228C215.901 63.3775 215.865 63.4264 215.82 63.4667C215.775 63.507 215.723 63.5379 215.666 63.5576C214.57 63.9326 213.468 64.3487 212.407 64.794C212.344 64.8115 212.279 64.8155 212.214 64.8057V64.8175ZM247.216 62.7899C247.175 62.7956 247.134 62.7956 247.093 62.7899C245.985 62.4676 244.848 62.2039 243.717 61.9285C243.661 61.9162 243.607 61.8928 243.56 61.8598C243.512 61.8268 243.472 61.7847 243.44 61.736C243.409 61.6873 243.388 61.6329 243.377 61.576C243.367 61.519 243.368 61.4606 243.38 61.404C243.393 61.3475 243.416 61.2939 243.449 61.2463C243.482 61.1988 243.524 61.1582 243.573 61.1269C243.622 61.0956 243.676 61.0742 243.733 61.064C243.79 61.0537 243.848 61.0548 243.905 61.0671C245.077 61.319 246.214 61.6179 247.339 61.9461C247.44 61.9757 247.528 62.041 247.585 62.1299C247.643 62.2188 247.666 62.3254 247.651 62.4301C247.636 62.5349 247.584 62.6307 247.504 62.7C247.424 62.7693 247.322 62.8075 247.216 62.8075V62.7899ZM218.297 62.702C218.201 62.7016 218.108 62.67 218.032 62.6118C217.955 62.5536 217.9 62.4721 217.875 62.3797C217.859 62.3247 217.854 62.267 217.86 62.2101C217.866 62.1531 217.884 62.0979 217.912 62.0478C217.94 61.9977 217.977 61.9535 218.022 61.918C218.067 61.8824 218.118 61.8561 218.174 61.8406C219.305 61.5241 220.465 61.2546 221.619 60.9967C221.678 60.9781 221.74 60.9719 221.801 60.9785C221.862 60.9852 221.921 61.0046 221.974 61.0354C222.027 61.0663 222.073 61.1079 222.109 61.1576C222.145 61.2074 222.17 61.2641 222.183 61.3242C222.196 61.3842 222.196 61.4463 222.183 61.5064C222.17 61.5665 222.145 61.6232 222.109 61.673C222.073 61.7227 222.027 61.7644 221.974 61.7953C221.921 61.8262 221.862 61.8456 221.801 61.8523C220.664 62.0926 219.527 62.3738 218.414 62.6844L218.297 62.702ZM240.934 61.3776H240.846C239.703 61.196 238.537 61.0495 237.389 60.944C237.328 60.9433 237.268 60.9302 237.213 60.9054C237.158 60.8805 237.108 60.8446 237.068 60.7997C237.027 60.7549 236.996 60.7021 236.977 60.6447C236.958 60.5874 236.95 60.5266 236.956 60.4663C236.961 60.406 236.978 60.3475 237.007 60.2943C237.036 60.2411 237.076 60.1945 237.124 60.1574C237.172 60.1203 237.227 60.0934 237.285 60.0785C237.344 60.0637 237.405 60.061 237.465 60.0709C238.637 60.1763 239.809 60.3228 240.981 60.5104C241.095 60.5305 241.197 60.5944 241.265 60.6885C241.333 60.7827 241.361 60.8995 241.344 61.0143C241.323 61.1092 241.272 61.1945 241.198 61.257C241.124 61.3196 241.031 61.3558 240.934 61.3601V61.3776ZM224.59 61.3366C224.486 61.3366 224.385 61.2994 224.306 61.2318C224.226 61.1641 224.173 61.0704 224.157 60.9674C224.14 60.8518 224.169 60.7342 224.238 60.6399C224.307 60.5456 224.41 60.4822 224.526 60.4635C225.698 60.2877 226.87 60.1412 228.042 60.0416C228.1 60.0366 228.158 60.043 228.213 60.0604C228.268 60.0779 228.319 60.1061 228.364 60.1434C228.408 60.1806 228.445 60.2263 228.471 60.2777C228.498 60.3291 228.514 60.3853 228.519 60.443C228.524 60.5007 228.518 60.5588 228.501 60.6141C228.483 60.6693 228.455 60.7206 228.418 60.7649C228.38 60.8093 228.335 60.8458 228.283 60.8725C228.232 60.8992 228.176 60.9156 228.118 60.9206C226.946 61.0202 225.803 61.155 224.661 61.3366H224.59ZM234.523 60.7506C233.351 60.7096 232.179 60.7037 231.036 60.7506C230.979 60.7538 230.921 60.7453 230.867 60.7256C230.813 60.7058 230.763 60.6754 230.721 60.636C230.679 60.5965 230.645 60.549 230.621 60.4962C230.598 60.4434 230.586 60.3864 230.585 60.3287C230.583 60.2708 230.592 60.213 230.612 60.1587C230.633 60.1044 230.664 60.0548 230.704 60.0127C230.744 59.9707 230.791 59.937 230.845 59.9138C230.898 59.8906 230.955 59.8782 231.013 59.8775C232.185 59.8365 233.357 59.8423 234.529 59.8775C234.587 59.879 234.643 59.8919 234.696 59.9154C234.749 59.9389 234.797 59.9726 234.836 60.0145C234.876 60.0564 234.907 60.1057 234.928 60.1596C234.948 60.2135 234.958 60.271 234.957 60.3287C234.948 60.4386 234.899 60.5414 234.819 60.6172C234.739 60.693 234.633 60.7363 234.523 60.7389V60.7506Z" fill="#E0E0E0"/>
<path d="M232.314 128.885V127.947H232.085C231.737 127.312 231.209 126.794 230.568 126.459C229.258 125.794 227.811 125.448 226.343 125.448C224.874 125.448 223.427 125.794 222.118 126.459C221.476 126.794 220.948 127.312 220.6 127.947H220.371V128.855C220.371 129.752 220.957 130.655 222.129 131.34C223.439 132.002 224.887 132.346 226.354 132.346C227.822 132.346 229.269 132.002 230.579 131.34C231.74 130.678 232.32 129.776 232.314 128.885Z" fill="#37474F"/>
<path d="M226.343 131.399C229.64 131.399 232.314 129.853 232.314 127.947C232.314 126.041 229.64 124.496 226.343 124.496C223.045 124.496 220.371 126.041 220.371 127.947C220.371 129.853 223.045 131.399 226.343 131.399Z" fill="#455A64"/>
<path d="M224.807 99.2098V127.543C224.82 127.677 224.868 127.806 224.946 127.916C225.024 128.026 225.13 128.114 225.253 128.17C225.59 128.34 225.962 128.429 226.34 128.429C226.717 128.429 227.09 128.34 227.427 128.17C227.551 128.115 227.658 128.028 227.738 127.918C227.817 127.808 227.865 127.678 227.878 127.543V99.2098H224.807Z" fill="#37474F"/>
<path d="M233.228 78.0025C231.734 77.141 230.374 77.0707 229.355 77.6391L210.374 88.6091L219.897 107.707L238.942 96.69V88.3336C238.942 84.4485 236.381 79.8249 233.228 78.0025Z" fill="#455A64"/>
<path d="M219.896 99.3445V107.707L208.475 101.108V92.752C208.475 88.8669 211.03 87.1968 214.183 89.0192C216.205 90.1912 217.98 92.5001 218.994 95.0316C219.561 96.4004 219.867 97.8632 219.896 99.3445Z" fill="#37474F"/>
<path d="M219.896 99.3446V107.707L208.475 101.108L218.994 95.0316C219.561 96.4004 219.867 97.8632 219.896 99.3446Z" fill="#263238"/>
<path d="M217.992 102.21C216.943 99.1747 213.533 95.2367 210.374 93.4201C207.215 91.6035 205.516 92.5822 206.565 95.6176L208.47 101.114L219.897 107.713C219.897 107.713 219.047 105.246 217.992 102.21Z" fill="#455A64"/>
<path d="M225.85 99.6611L225.212 99.2919C225.074 99.2289 224.923 99.2032 224.773 99.2177C224.622 99.2321 224.479 99.286 224.356 99.3739C224.003 99.6049 223.709 99.9156 223.499 100.281C223.288 100.647 223.166 101.056 223.143 101.478C223.127 101.629 223.152 101.781 223.215 101.919C223.278 102.057 223.376 102.176 223.5 102.263L224.086 102.603L224.198 102.421C224.319 102.395 224.436 102.349 224.544 102.286C224.896 102.057 225.19 101.747 225.401 101.382C225.612 101.018 225.734 100.609 225.757 100.188C225.756 100.084 225.742 99.9793 225.716 99.8779L225.85 99.6611Z" fill="#263238"/>
<path d="M224.965 99.7313C224.613 99.961 224.319 100.271 224.108 100.635C223.897 101 223.775 101.409 223.752 101.829C223.752 102.603 224.297 102.913 224.965 102.527C225.319 102.297 225.613 101.988 225.823 101.623C226.034 101.258 226.156 100.849 226.178 100.429C226.196 99.6551 225.61 99.3446 224.965 99.7313Z" fill="#37474F"/>
<path d="M224.965 101.46C224.919 101.46 224.873 101.451 224.831 101.433C224.788 101.416 224.749 101.39 224.717 101.357C224.684 101.324 224.658 101.286 224.641 101.243C224.623 101.2 224.614 101.155 224.614 101.108V89.0192C224.614 88.926 224.651 88.8365 224.717 88.7706C224.783 88.7046 224.872 88.6676 224.965 88.6676C225.059 88.6676 225.148 88.7046 225.214 88.7706C225.28 88.8365 225.317 88.926 225.317 89.0192V101.108C225.317 101.202 225.28 101.291 225.214 101.357C225.148 101.423 225.059 101.46 224.965 101.46Z" fill="#263238"/>
<path d="M225.282 89.3357V92.4884L228.663 89.0193L225.282 89.3357Z" fill="#37474F"/>
<path d="M47.5129 193.913C47.2199 194.072 41.8404 195.595 39.848 192.964C37.8556 190.333 41.1665 186.231 39.2972 184.719C37.4278 183.207 32.189 184.719 30.9291 181.543C29.6692 178.367 33.402 176.995 31.3041 173.79C29.9798 171.768 26.2763 170.655 26.4462 168.774C26.6923 166.026 31.7554 165.258 36.1738 168.229C40.5923 171.2 42.655 168.762 44.0555 168.563C45.4561 168.364 48.4798 168.803 48.3861 173.726C48.2923 178.648 47.5129 193.913 47.5129 193.913Z" fill="#8EC3B0"/>
<path d="M47.8704 186.934C47.8005 186.934 47.7329 186.909 47.6794 186.864C47.6258 186.819 47.5897 186.757 47.5774 186.688C46.0362 177.312 35.1776 169.735 29.5286 168.106C29.4912 168.096 29.4563 168.078 29.4259 168.054C29.3954 168.03 29.3701 168.001 29.3515 167.967C29.3329 167.933 29.3214 167.895 29.3176 167.857C29.3137 167.818 29.3178 167.779 29.3294 167.743C29.3511 167.668 29.4016 167.605 29.4698 167.568C29.5379 167.53 29.6181 167.522 29.6927 167.543C35.4648 169.213 46.5753 177.001 48.1575 186.594C48.1694 186.67 48.1509 186.748 48.1059 186.81C48.0609 186.873 47.9932 186.915 47.9173 186.928L47.8704 186.934Z" fill="white"/>
<path d="M35.0604 179.087C34.996 179.088 34.9331 179.067 34.8816 179.029C34.83 178.99 34.7927 178.935 34.7753 178.873C34.758 178.811 34.7616 178.745 34.7856 178.685C34.8096 178.626 34.8526 178.575 34.908 178.543C35.0838 178.437 39.2679 175.993 43.3816 177.136C43.4593 177.156 43.5258 177.207 43.5665 177.276C43.6071 177.345 43.6186 177.428 43.5984 177.505C43.5782 177.583 43.528 177.649 43.4587 177.69C43.3895 177.731 43.3069 177.742 43.2292 177.722C39.3499 176.644 35.2479 179.041 35.2069 179.064C35.1613 179.086 35.1105 179.094 35.0604 179.087Z" fill="white"/>
<path d="M200.705 144.402C203.014 144.719 206.946 143.383 207.227 139.538C207.508 135.694 209.097 134.651 212.009 134.024C214.921 133.397 215.777 132.383 216.111 130.555C216.445 128.727 214.23 126.541 214.851 123.787C215.472 121.032 217.547 121.038 219.586 117.927C220.893 115.923 218.215 112.864 213.755 114.176C209.296 115.489 209.653 118.366 205.194 118.735C200.734 119.105 197.939 121.812 197.851 125.181C197.763 128.551 200.705 144.402 200.705 144.402Z" fill="#8EC3B0"/>
<path opacity="0.2" d="M200.705 144.402C203.014 144.719 206.946 143.383 207.227 139.538C207.508 135.694 209.097 134.651 212.009 134.024C214.921 133.397 215.777 132.383 216.111 130.555C216.445 128.727 214.23 126.541 214.851 123.787C215.472 121.032 217.547 121.038 219.586 117.927C220.893 115.923 218.215 112.864 213.755 114.176C209.296 115.489 209.653 118.366 205.194 118.735C200.734 119.105 197.939 121.812 197.851 125.181C197.763 128.551 200.705 144.402 200.705 144.402Z" fill="black"/>
<path d="M199.861 137.03H199.826C199.788 137.023 199.752 137.008 199.721 136.986C199.689 136.965 199.661 136.937 199.64 136.905C199.619 136.873 199.604 136.837 199.597 136.799C199.59 136.761 199.59 136.722 199.597 136.685C201.754 126.025 213.515 116.268 216.381 115.272C216.458 115.246 216.543 115.253 216.616 115.29C216.689 115.326 216.745 115.391 216.77 115.468C216.796 115.546 216.79 115.631 216.753 115.704C216.716 115.777 216.652 115.832 216.574 115.858C213.773 116.831 202.281 126.406 200.166 136.831C200.144 136.893 200.102 136.946 200.047 136.982C199.992 137.018 199.927 137.035 199.861 137.03Z" fill="white"/>
<path d="M45.0516 133.251C45.0803 132.722 45.2332 132.208 45.4979 131.75C45.7626 131.291 46.1317 130.902 46.5752 130.614L124.461 85.6439C124.932 85.4068 125.453 85.2833 125.981 85.2833C126.509 85.2833 127.03 85.4068 127.502 85.6439L129.219 86.6401C129.663 86.9277 130.033 87.3168 130.298 87.7752C130.563 88.2336 130.715 88.7483 130.742 89.2771V148.979C130.712 149.507 130.559 150.021 130.294 150.479C130.03 150.936 129.661 151.326 129.219 151.616L51.3336 196.58C50.8615 196.819 50.3395 196.944 49.81 196.944C49.2805 196.944 48.7584 196.819 48.2864 196.58L46.5752 195.589C46.1324 195.3 45.7638 194.91 45.4991 194.452C45.2345 193.994 45.0812 193.48 45.0516 192.952V133.251Z" fill="#8EC3B0"/>
<path opacity="0.3" d="M45.0516 133.251C45.0803 132.722 45.2332 132.208 45.4979 131.75C45.7626 131.291 46.1317 130.902 46.5752 130.614L124.461 85.6439C124.932 85.4068 125.453 85.2833 125.981 85.2833C126.509 85.2833 127.03 85.4068 127.502 85.6439L129.219 86.6401C129.663 86.9277 130.033 87.3168 130.298 87.7752C130.563 88.2336 130.715 88.7483 130.742 89.2771V148.979C130.712 149.507 130.559 150.021 130.294 150.479C130.03 150.936 129.661 151.326 129.219 151.616L51.3336 196.58C50.8615 196.819 50.3395 196.944 49.81 196.944C49.2805 196.944 48.7584 196.819 48.2864 196.58L46.5752 195.589C46.1324 195.3 45.7638 194.91 45.4991 194.452C45.2345 193.994 45.0812 193.48 45.0516 192.952V133.251Z" fill="black"/>
<path d="M52.1891 135.618L45.497 131.75C45.2234 132.204 45.0701 132.721 45.0516 133.251V192.952C45.0812 193.48 45.2345 193.994 45.4991 194.452C45.7638 194.91 46.1324 195.3 46.5752 195.589L48.2864 196.58C48.7584 196.819 49.2805 196.944 49.81 196.944C50.3395 196.944 50.8615 196.819 51.3336 196.58L52.1891 196.087V135.618Z" fill="#8EC3B0"/>
<path opacity="0.5" d="M52.1891 135.618L45.497 131.75C45.2234 132.204 45.0701 132.721 45.0516 133.251V192.952C45.0812 193.48 45.2345 193.994 45.4991 194.452C45.7638 194.91 46.1324 195.3 46.5752 195.589L48.2864 196.58C48.7584 196.819 49.2805 196.944 49.81 196.944C50.3395 196.944 50.8615 196.819 51.3336 196.58L52.1891 196.087V135.618Z" fill="black"/>
<path d="M130.742 89.2771V148.979C130.723 149.525 130.559 150.057 130.268 150.52C130.043 150.91 129.739 151.249 129.377 151.516L129.318 151.551L129.219 151.616L51.3336 196.58C51.1845 196.685 51.0113 196.751 50.83 196.771C50.6487 196.792 50.4652 196.766 50.2964 196.697C50.1341 196.595 50.003 196.45 49.9173 196.278C49.8315 196.107 49.7944 195.915 49.81 195.724V135.999C49.7967 135.785 49.8355 135.571 49.923 135.376C50.0105 135.18 50.1441 135.009 50.3123 134.877C50.4806 134.744 50.6784 134.654 50.889 134.615C51.0995 134.576 51.3164 134.588 51.5211 134.651L84.2726 142.439L88.5622 143.459C89.0685 143.554 89.5911 143.508 90.0734 143.327C90.5558 143.147 90.9795 142.837 91.2988 142.433L96.2681 135.513L129.717 88.9431C130.28 88.1579 130.742 88.3044 130.742 89.2771Z" fill="#8EC3B0"/>
<path opacity="0.2" d="M130.742 89.2771V148.979C130.723 149.525 130.559 150.057 130.268 150.52C130.043 150.91 129.739 151.249 129.377 151.516L129.318 151.551L129.219 151.616L51.3336 196.58C51.1845 196.685 51.0113 196.751 50.83 196.771C50.6487 196.792 50.4652 196.766 50.2964 196.697C50.1341 196.595 50.003 196.45 49.9173 196.278C49.8315 196.107 49.7944 195.915 49.81 195.724V135.999C49.7967 135.785 49.8355 135.571 49.923 135.376C50.0105 135.18 50.1441 135.009 50.3123 134.877C50.4806 134.744 50.6784 134.654 50.889 134.615C51.0995 134.576 51.3164 134.588 51.5211 134.651L84.2726 142.439L88.5622 143.459C89.0685 143.554 89.5911 143.508 90.0734 143.327C90.5558 143.147 90.9795 142.837 91.2988 142.433L96.2681 135.513L129.717 88.9431C130.28 88.1579 130.742 88.3044 130.742 89.2771Z" fill="black"/>
<path d="M129.219 151.616L129.318 151.551L129.377 151.516C129.739 151.249 130.043 150.91 130.268 150.52C130.556 150.064 130.719 149.541 130.742 149.002L96.2681 135.524L119.356 157.323L129.219 151.616Z" fill="#8EC3B0"/>
<path opacity="0.6" d="M129.219 151.616L129.318 151.551L129.377 151.516C129.739 151.249 130.043 150.91 130.268 150.52C130.556 150.064 130.719 149.541 130.742 149.002L96.2681 135.524L119.356 157.323L129.219 151.616Z" fill="black"/>
<path d="M49.81 195.724C49.7876 195.919 49.8202 196.116 49.9041 196.293C49.988 196.47 50.1198 196.62 50.2846 196.726C50.4534 196.795 50.637 196.821 50.8183 196.8C50.9996 196.78 51.1728 196.714 51.3218 196.609L78.1489 181.074L84.2726 142.398L49.81 194.71V195.724Z" fill="#8EC3B0"/>
<path opacity="0.6" d="M49.81 195.724C49.7876 195.919 49.8202 196.116 49.9041 196.293C49.988 196.47 50.1198 196.62 50.2846 196.726C50.4534 196.795 50.637 196.821 50.8183 196.8C50.9996 196.78 51.1728 196.714 51.3218 196.609L78.1489 181.074L84.2726 142.398L49.81 194.71V195.724Z" fill="black"/>
<path d="M130.268 150.52C130.043 150.91 129.74 151.249 129.377 151.516L129.318 151.551L51.3336 196.58C51.1845 196.685 51.0113 196.751 50.83 196.771C50.6487 196.792 50.4652 196.766 50.2964 196.697L87.5953 137.153C88.3449 135.961 89.4991 135.078 90.8465 134.667C92.1939 134.256 93.6442 134.344 94.932 134.915L130.268 150.52Z" fill="#8EC3B0"/>
<path opacity="0.2" d="M130.268 150.52C130.043 150.91 129.74 151.249 129.377 151.516L129.318 151.551L51.3336 196.58C51.1845 196.685 51.0113 196.751 50.83 196.771C50.6487 196.792 50.4652 196.766 50.2964 196.697L87.5953 137.153C88.3449 135.961 89.4991 135.078 90.8465 134.667C92.1939 134.256 93.6442 134.344 94.932 134.915L130.268 150.52Z" fill="black"/>
<path d="M49.8099 134.241L85.6321 150.063C86.9219 150.632 88.3737 150.718 89.7213 150.303C91.0689 149.889 92.2219 149.002 92.9688 147.807L130.584 87.6069L49.8099 134.241Z" fill="#8EC3B0"/>
<path opacity="0.6" d="M49.8099 134.241L85.6321 150.063C86.9219 150.632 88.3737 150.718 89.7213 150.303C91.0689 149.889 92.2219 149.002 92.9688 147.807L130.584 87.6069L49.8099 134.241Z" fill="black"/>
<path d="M49.8099 134.241L85.8841 147.719C87.1307 148.184 88.4987 148.212 89.7629 147.796C91.0271 147.381 92.1122 146.548 92.8399 145.433L130.584 87.6069L49.8099 134.241Z" fill="#8EC3B0"/>
<path opacity="0.2" d="M49.8099 134.241L85.8841 147.719C87.1307 148.184 88.4987 148.212 89.7629 147.796C91.0271 147.381 92.1122 146.548 92.8399 145.433L130.584 87.6069L49.8099 134.241Z" fill="black"/>
<path d="M58.3539 140.605C58.3811 140.076 58.5334 139.561 58.7983 139.103C59.0631 138.644 59.433 138.255 59.8775 137.968L137.763 92.9982C138.235 92.7583 138.757 92.6333 139.286 92.6333C139.816 92.6333 140.338 92.7583 140.81 92.9982L142.527 93.9885C142.969 94.2779 143.337 94.6674 143.601 95.1256C143.865 95.5837 144.017 96.0976 144.045 96.6255V156.327C144.016 156.855 143.863 157.368 143.6 157.826C143.336 158.284 142.969 158.674 142.527 158.964L64.6358 203.928C64.1639 204.165 63.6432 204.289 63.1151 204.289C62.5871 204.289 62.0663 204.165 61.5945 203.928L59.8775 202.938C59.435 202.648 59.0666 202.258 58.802 201.8C58.5374 201.342 58.3839 200.829 58.3539 200.301V140.605Z" fill="#455A64"/>
<path d="M58.3539 140.605C58.3811 140.076 58.5334 139.561 58.7983 139.103C59.0631 138.644 59.433 138.255 59.8775 137.968L137.763 92.9982C138.235 92.7583 138.757 92.6333 139.286 92.6333C139.816 92.6333 140.338 92.7583 140.81 92.9982L142.527 93.9885C142.969 94.2779 143.337 94.6674 143.601 95.1256C143.865 95.5837 144.017 96.0976 144.045 96.6255V156.327C144.016 156.855 143.863 157.368 143.6 157.826C143.336 158.284 142.969 158.674 142.527 158.964L64.6358 203.928C64.1639 204.165 63.6432 204.289 63.1151 204.289C62.5871 204.289 62.0663 204.165 61.5945 203.928L59.8775 202.938C59.435 202.648 59.0666 202.258 58.802 201.8C58.5374 201.342 58.3839 200.829 58.3539 200.301V140.605Z" fill="#455A64"/>
<path d="M65.4972 142.984L58.7992 139.122C58.5249 139.576 58.3716 140.093 58.3539 140.622V200.307C58.3839 200.835 58.5374 201.348 58.802 201.806C59.0666 202.264 59.435 202.654 59.8775 202.944L61.5945 203.934C62.0663 204.171 62.5871 204.294 63.1151 204.294C63.6432 204.294 64.1639 204.171 64.6358 203.934L65.4972 203.436V142.984Z" fill="#263238"/>
<path d="M144.051 96.6255V156.327C144.031 156.874 143.867 157.405 143.576 157.868C143.351 158.258 143.048 158.597 142.685 158.865L142.627 158.9L142.527 158.964L64.6417 203.928C64.4926 204.033 64.3194 204.099 64.1381 204.12C63.9568 204.14 63.7732 204.115 63.6045 204.045C63.4396 203.939 63.3078 203.789 63.2239 203.612C63.14 203.435 63.1074 203.238 63.1298 203.043V143.347C63.1165 143.134 63.1553 142.92 63.2428 142.724C63.3303 142.529 63.4639 142.357 63.6321 142.225C63.8004 142.092 63.9982 142.003 64.2088 141.963C64.4193 141.924 64.6362 141.937 64.8409 141.999L97.5924 149.787L101.882 150.807C102.388 150.902 102.911 150.857 103.393 150.676C103.876 150.495 104.299 150.186 104.619 149.782L109.582 142.861L143.031 96.2915C143.57 95.518 144.051 95.6527 144.051 96.6255Z" fill="#37474F"/>
<path d="M142.527 158.964L142.626 158.9L142.685 158.865C143.047 158.598 143.351 158.258 143.576 157.868C143.86 157.414 144.022 156.893 144.045 156.357L109.576 142.879L132.659 164.666L142.527 158.964Z" fill="#263238"/>
<path d="M63.118 203.049C63.0957 203.244 63.1283 203.441 63.2121 203.618C63.296 203.795 63.4279 203.945 63.5927 204.051C63.7615 204.12 63.945 204.146 64.1263 204.126C64.3077 204.105 64.4809 204.039 64.6299 203.934L91.4453 188.452L97.569 149.776L63.1063 202.047L63.118 203.049Z" fill="#263238"/>
<path d="M143.57 157.868C143.345 158.258 143.042 158.597 142.679 158.865L142.621 158.9L64.6416 203.928C64.4925 204.033 64.3193 204.099 64.138 204.12C63.9567 204.14 63.7732 204.115 63.6044 204.045L100.897 144.508C101.645 143.313 102.799 142.428 104.146 142.014C105.494 141.601 106.945 141.687 108.234 142.257L143.57 157.868Z" fill="#37474F"/>
<path d="M63.118 141.595L98.9402 157.417C100.229 157.985 101.68 158.069 103.026 157.655C104.372 157.241 105.524 156.355 106.271 155.161L143.886 94.932L63.118 141.595Z" fill="#263238"/>
<path d="M63.118 141.595L99.1863 155.073C100.434 155.54 101.803 155.568 103.068 155.153C104.334 154.737 105.42 153.903 106.148 152.788L143.886 94.932L63.118 141.595Z" fill="#37474F"/>
<path d="M115.483 187.995V128.293C115.537 127.16 115.891 126.062 116.509 125.111L153.655 73.3848C154.333 72.4398 155.277 71.7178 156.366 71.3108C157.456 70.9038 158.641 70.8302 159.773 71.0994L194.704 79.403C195.83 79.7026 196.916 80.1354 197.939 80.6922L199.656 81.6825C200.098 81.9729 200.465 82.3627 200.728 82.8207C200.992 83.2786 201.144 83.792 201.174 84.3195V144.021C201.144 144.549 200.991 145.062 200.727 145.519C200.464 145.977 200.097 146.367 199.656 146.658L121.765 191.622C121.293 191.86 120.773 191.985 120.244 191.985C119.716 191.985 119.195 191.86 118.724 191.622L117.007 190.632C116.564 190.342 116.195 189.953 115.931 189.495C115.666 189.037 115.513 188.523 115.483 187.995Z" fill="#8EC3B0"/>
<path opacity="0.3" d="M115.483 187.995V128.293C115.537 127.16 115.891 126.062 116.509 125.111L153.655 73.3848C154.333 72.4398 155.277 71.7178 156.366 71.3108C157.456 70.9038 158.641 70.8302 159.773 71.0994L194.704 79.403C195.83 79.7026 196.916 80.1354 197.939 80.6922L199.656 81.6825C200.098 81.9729 200.465 82.3627 200.728 82.8207C200.992 83.2786 201.144 83.792 201.174 84.3195V144.021C201.144 144.549 200.991 145.062 200.727 145.519C200.464 145.977 200.097 146.367 199.656 146.658L121.765 191.622C121.293 191.86 120.773 191.985 120.244 191.985C119.716 191.985 119.195 191.86 118.724 191.622L117.007 190.632C116.564 190.342 116.195 189.953 115.931 189.495C115.666 189.037 115.513 188.523 115.483 187.995Z" fill="white"/>
<path d="M122.62 99.4383V175.618C122.62 176.585 123.306 176.984 124.144 176.497L197.271 134.305C197.715 134.017 198.084 133.628 198.349 133.169C198.614 132.711 198.766 132.197 198.795 131.668V55.4883C198.795 54.5155 198.115 54.1229 197.271 54.6093L124.144 96.8013C123.701 97.09 123.331 97.4793 123.067 97.9375C122.802 98.3957 122.649 98.9099 122.62 99.4383Z" fill="#FAFAFA"/>
<path d="M123.464 177.007C123.275 177.009 123.089 176.96 122.925 176.867C122.725 176.733 122.564 176.547 122.461 176.329C122.358 176.112 122.316 175.87 122.339 175.63V99.4501C122.367 98.8694 122.533 98.3038 122.824 97.8003C123.114 97.2968 123.521 96.8699 124.009 96.5552L197.136 54.3632C197.327 54.2077 197.561 54.114 197.806 54.0945C198.052 54.075 198.297 54.1306 198.51 54.254C198.723 54.3774 198.894 54.5627 198.999 54.7852C199.104 55.0078 199.139 55.2571 199.099 55.5001V131.68C199.072 132.26 198.906 132.825 198.616 133.328C198.325 133.83 197.918 134.256 197.429 134.569L124.302 176.761C124.05 176.916 123.761 177.001 123.464 177.007ZM197.951 54.6621C197.762 54.6729 197.578 54.7314 197.418 54.832L124.291 97.0533C123.892 97.3175 123.561 97.6704 123.322 98.0842C123.083 98.498 122.943 98.9615 122.913 99.4383V175.618C122.878 175.756 122.889 175.901 122.944 176.032C122.999 176.162 123.095 176.272 123.218 176.343C123.341 176.414 123.483 176.442 123.624 176.425C123.765 176.407 123.896 176.344 123.998 176.245L197.125 134.053C197.523 133.789 197.855 133.437 198.094 133.023C198.333 132.609 198.472 132.145 198.502 131.668V55.4883C198.518 55.3509 198.499 55.2115 198.447 55.0834C198.395 54.9552 198.311 54.8425 198.203 54.7558C198.129 54.7023 198.042 54.6699 197.951 54.6621Z" fill="#E0E0E0"/>
<path d="M121.044 129.746L115.77 126.699C115.599 127.214 115.505 127.751 115.489 128.293V187.995C115.518 188.523 115.672 189.037 115.936 189.495C116.201 189.953 116.57 190.342 117.012 190.632L118.724 191.622C119.195 191.862 119.716 191.987 120.244 191.987C120.773 191.987 121.294 191.862 121.765 191.622L122.497 191.206L121.044 129.746Z" fill="#8EC3B0"/>
<g opacity="0.1">
<path d="M121.044 129.746L115.77 126.699C115.599 127.214 115.505 127.751 115.489 128.293V187.995C115.518 188.523 115.672 189.037 115.936 189.495C116.201 189.953 116.57 190.342 117.012 190.632L118.724 191.622C119.195 191.862 119.716 191.987 120.244 191.987C120.773 191.987 121.294 191.862 121.765 191.622L122.497 191.206L121.044 129.746Z" fill="black"/>
</g>
<path d="M201.18 84.3195V144.021C201.16 144.568 200.996 145.099 200.705 145.562C200.48 145.952 200.177 146.291 199.814 146.559L199.756 146.594L199.656 146.658L121.771 191.622C121.622 191.727 121.448 191.793 121.267 191.814C121.086 191.834 120.902 191.808 120.733 191.739C120.569 191.633 120.437 191.483 120.353 191.306C120.269 191.129 120.236 190.932 120.259 190.737V131.041C120.246 130.828 120.284 130.614 120.372 130.418C120.459 130.223 120.593 130.051 120.761 129.919C120.929 129.786 121.127 129.697 121.338 129.657C121.548 129.618 121.765 129.631 121.97 129.693L154.704 137.481L158.993 138.501C159.501 138.597 160.024 138.552 160.508 138.371C160.991 138.191 161.416 137.881 161.736 137.476L166.705 130.555L200.154 83.9855C200.717 83.2119 201.18 83.3467 201.18 84.3195Z" fill="#8EC3B0"/>
<path opacity="0.3" d="M201.18 84.3195V144.021C201.16 144.568 200.996 145.099 200.705 145.562C200.48 145.952 200.177 146.291 199.814 146.559L199.756 146.594L199.656 146.658L121.771 191.622C121.622 191.727 121.448 191.793 121.267 191.814C121.086 191.834 120.902 191.808 120.733 191.739C120.569 191.633 120.437 191.483 120.353 191.306C120.269 191.129 120.236 190.932 120.259 190.737V131.041C120.246 130.828 120.284 130.614 120.372 130.418C120.459 130.223 120.593 130.051 120.761 129.919C120.929 129.786 121.127 129.697 121.338 129.657C121.548 129.618 121.765 129.631 121.97 129.693L154.704 137.481L158.993 138.501C159.501 138.597 160.024 138.552 160.508 138.371C160.991 138.191 161.416 137.881 161.736 137.476L166.705 130.555L200.154 83.9855C200.717 83.2119 201.18 83.3467 201.18 84.3195Z" fill="white"/>
<path d="M199.656 146.658L199.756 146.594L199.814 146.559C200.177 146.292 200.48 145.952 200.705 145.562C200.99 145.105 201.151 144.583 201.174 144.045L166.705 130.567L189.788 152.36L199.656 146.658Z" fill="#8EC3B0"/>
<path d="M120.247 190.743C120.225 190.938 120.257 191.135 120.341 191.312C120.425 191.489 120.557 191.639 120.722 191.745C120.891 191.814 121.074 191.84 121.256 191.819C121.437 191.799 121.61 191.733 121.759 191.628L148.574 176.146L154.698 137.47L120.235 189.741L120.247 190.743Z" fill="#8EC3B0"/>
<path d="M200.705 145.562C200.48 145.952 200.177 146.291 199.814 146.559L199.756 146.594L121.771 191.622C121.622 191.727 121.448 191.793 121.267 191.814C121.086 191.834 120.902 191.809 120.734 191.739L158.027 132.202C158.774 131.008 159.927 130.124 161.273 129.711C162.619 129.298 164.069 129.383 165.357 129.951L200.705 145.562Z" fill="#8EC3B0"/>
<path opacity="0.3" d="M200.705 145.562C200.48 145.952 200.177 146.291 199.814 146.559L199.756 146.594L121.771 191.622C121.622 191.727 121.448 191.793 121.267 191.814C121.086 191.834 120.902 191.809 120.734 191.739L158.027 132.202C158.774 131.008 159.927 130.124 161.273 129.711C162.619 129.298 164.069 129.383 165.357 129.951L200.705 145.562Z" fill="white"/>
<path d="M154.821 116.983C154.137 117.089 153.438 117.027 152.784 116.802C152.129 116.578 151.539 116.197 151.065 115.694C150.174 114.704 149.729 113.174 149.729 111.117C149.73 108.797 150.228 106.503 151.188 104.39C152.174 102.216 153.534 100.232 155.208 98.5301C157.007 96.6641 159.059 95.0585 161.302 93.76C163.502 92.4943 165.379 91.793 166.934 91.6563C168.498 91.5156 169.676 91.92 170.485 92.8576C171.294 93.7952 171.692 95.2309 171.692 97.1529C171.726 99.0592 171.274 100.943 170.379 102.626C169.591 104.151 168.388 105.422 166.91 106.295C166.4 106.657 165.774 106.82 165.152 106.752C164.931 106.708 164.727 106.601 164.565 106.444C164.403 106.287 164.289 106.087 164.238 105.867C163.75 106.79 163.13 107.637 162.398 108.381C161.657 109.145 160.813 109.802 159.89 110.332C158.296 111.235 157.024 111.504 156.087 111.194C155.149 110.883 154.704 109.934 154.704 108.351C154.717 106.363 155.33 104.425 156.462 102.79C157.694 100.978 159.331 99.4773 161.244 98.407C162.042 97.9313 162.91 97.5834 163.816 97.3756C164.49 97.1931 165.2 97.1931 165.873 97.3756V103.546C165.873 104.044 165.961 104.349 166.131 104.466C166.301 104.583 166.582 104.525 166.981 104.296C167.723 103.813 168.272 103.086 168.534 102.239C168.93 101.096 169.118 99.8918 169.09 98.6824C169.09 97.1432 168.754 96.0239 168.082 95.3246C167.723 94.9736 167.285 94.7137 166.805 94.5669C166.325 94.4201 165.816 94.3906 165.322 94.4808C163.892 94.6994 162.521 95.21 161.296 95.9809C158.706 97.4181 156.472 99.4212 154.763 101.841C153.183 104.112 152.343 106.816 152.36 109.582C152.36 111.266 152.706 112.494 153.397 113.268C153.756 113.655 154.204 113.948 154.703 114.119C155.202 114.291 155.736 114.337 156.257 114.252C157.715 114.046 159.113 113.533 160.359 112.746C161.218 112.249 162.032 111.677 162.791 111.035C163.497 110.452 164.139 109.796 164.707 109.078C164.766 109.002 164.835 108.935 164.912 108.879C164.965 108.85 165.017 108.879 165.064 108.949L165.709 110.121C165.733 110.168 165.75 110.217 165.762 110.268C165.741 110.398 165.677 110.518 165.58 110.608C164.872 111.459 164.087 112.243 163.236 112.952C162.34 113.703 161.381 114.378 160.371 114.967C158.687 116.03 156.794 116.718 154.821 116.983ZM162.439 105.966C162.997 105.308 163.322 104.484 163.365 103.622V100.048C162.529 100.118 161.723 100.396 161.021 100.856C159.903 101.485 158.951 102.371 158.243 103.441C157.579 104.422 157.222 105.579 157.218 106.763C157.218 107.754 157.464 108.346 157.962 108.521C158.46 108.697 159.228 108.521 160.277 107.894C161.126 107.403 161.869 106.748 162.463 105.966H162.439Z" fill="#E0E0E0"/>
<path d="M80.1882 122.855L74.4747 119.544H74.4337C72.4823 118.442 69.7926 118.606 66.8157 120.323C60.8327 123.775 55.9865 132.172 55.9865 139.075C55.9865 142.527 57.1936 144.935 59.145 146.107L64.46 149.149L65.4211 147.549C66.511 147.305 67.558 146.898 68.5269 146.342C74.5041 142.884 79.3561 134.487 79.3561 127.59C79.3529 126.658 79.2388 125.729 79.0162 124.824L80.1882 122.855Z" fill="#F28F8F"/>
<path d="M80.1882 122.855L74.4747 119.544H74.4337C72.4823 118.442 69.7926 118.606 66.8157 120.323C60.8327 123.775 55.9865 132.172 55.9865 139.075C55.9865 142.527 57.1936 144.935 59.145 146.107L64.46 149.149L65.4211 147.549C66.511 147.305 67.558 146.898 68.5269 146.342C74.5041 142.884 79.3561 134.487 79.3561 127.59C79.3529 126.658 79.2388 125.729 79.0162 124.824L80.1882 122.855Z" fill="#8EC3B0"/>
<path opacity="0.4" d="M80.1882 122.855L74.4747 119.544H74.4337C72.4823 118.442 69.7926 118.606 66.8157 120.323C60.8327 123.775 55.9865 132.172 55.9865 139.075C55.9865 142.527 57.1936 144.935 59.145 146.107L64.46 149.149L65.4211 147.549C66.511 147.305 67.558 146.898 68.5269 146.342C74.5041 142.884 79.3561 134.487 79.3561 127.59C79.3529 126.658 79.2388 125.729 79.0162 124.824L80.1882 122.855Z" fill="black"/>
<path d="M72.3066 123.47C66.3235 126.928 61.4773 135.325 61.4773 142.222C61.4773 149.119 66.3235 151.926 72.3066 148.475C78.2896 145.023 83.1359 136.626 83.1359 129.723C83.1359 122.82 78.2896 120.019 72.3066 123.47Z" fill="#8EC3B0"/>
<path d="M68.0756 143.875C67.9642 143.875 67.9056 143.81 67.9056 143.711C67.9172 143.6 67.949 143.493 67.9994 143.394L68.5444 142.169C68.5805 142.049 68.652 141.943 68.7495 141.865C68.8306 141.828 68.9183 141.808 69.0073 141.806C69.4949 141.777 69.9761 141.68 70.4372 141.519C71.0502 141.312 71.6395 141.041 72.1952 140.71C73.0598 140.242 73.818 139.599 74.422 138.823C74.8749 138.236 75.1276 137.52 75.1427 136.778C75.1427 135.483 74.3516 135.296 72.7694 136.192L71.2283 137.124C70.9763 137.265 70.8005 137.317 70.695 137.27C70.5895 137.224 70.5368 137.083 70.5368 136.849V136.362C70.5284 136.155 70.5836 135.951 70.695 135.776C70.8361 135.586 71.0184 135.429 71.2283 135.319L72.7577 134.434C73.3706 134.101 73.8903 133.619 74.2696 133.034C74.5874 132.542 74.7619 131.972 74.7736 131.387C74.7736 130.133 73.8907 130.016 72.1248 131.035C71.0389 131.654 70.0611 132.446 69.23 133.379C69.1519 133.468 69.0656 133.548 68.9722 133.62C68.9377 133.636 68.8987 133.64 68.8615 133.632C68.8243 133.623 68.791 133.603 68.7671 133.573L68.2455 132.987C68.2164 132.96 68.1931 132.927 68.177 132.891C68.1609 132.855 68.1523 132.816 68.1518 132.776C68.1636 132.641 68.2216 132.515 68.3158 132.418C68.835 131.769 69.4246 131.179 70.0738 130.66C70.8299 130.044 71.6354 129.492 72.4823 129.008C73.2469 128.532 74.0903 128.197 74.9728 128.018C75.2505 127.95 75.5397 127.944 75.82 127.999C76.1004 128.055 76.3652 128.171 76.596 128.34C76.8041 128.54 76.9647 128.785 77.0661 129.056C77.1675 129.327 77.2071 129.616 77.182 129.904C77.1688 130.55 77.0253 131.185 76.7601 131.774C76.4769 132.453 76.0806 133.079 75.5881 133.626C75.841 133.541 76.1113 133.522 76.3737 133.57C76.6361 133.618 76.8819 133.732 77.0883 133.901C77.2688 134.111 77.4058 134.355 77.4913 134.619C77.5768 134.882 77.6091 135.16 77.5864 135.436C77.5416 136.735 77.0861 137.987 76.2854 139.011C75.3026 140.329 74.0475 141.42 72.6054 142.21C70.5426 143.418 69.0327 143.972 68.0756 143.875Z" fill="white"/>
<path d="M190.96 207.497L191.071 207.397C191.153 207.327 191.241 207.257 191.317 207.18L191.581 206.923L191.845 206.671C191.999 206.526 192.146 206.373 192.284 206.214L194.37 207.772L195.759 208.809C195.253 209.357 194.842 209.985 194.54 210.667C194.54 210.667 194.124 211.341 192.712 211.001C190.966 210.597 190.69 208.03 190.96 207.497Z" fill="#FFA8A7"/>
<path d="M170.526 206.782C168.932 204.93 170.35 201.854 171.897 197.863C173.597 193.474 176.222 186.014 176.222 186.014L194.862 182.164C194.862 182.164 214.722 181.783 216.544 185.58C218.021 188.622 204.942 193.198 203.066 193.362L191.587 193.966L190.38 194.552L182.316 204.754L170.526 206.782Z" fill="#8EC3B0"/>
<path d="M204.871 188.692C203.424 190.164 202.075 191.73 200.834 193.38C197.476 198.068 192.161 206.583 192.161 206.583C192.161 206.583 192.987 209.278 195.525 209.161C195.525 209.161 212.987 192.853 214.417 191.347C216.58 189.061 218.314 185.293 214.576 184.983C210.837 184.672 206.325 187.122 204.871 188.692Z" fill="#8EC3B0"/>
<path d="M200.74 193.474C200.74 193.474 203.858 188.915 207.086 187.028C207.086 187.028 203.875 187.661 199.011 193.579L200.74 193.474Z" fill="#8EC3B0"/>
<path opacity="0.1" d="M200.74 193.474C200.74 193.474 203.858 188.915 207.086 187.028C207.086 187.028 203.875 187.661 199.011 193.579L200.74 193.474Z" fill="black"/>
<path d="M202.861 199.24L201.637 199.474L202.774 203.676C202.774 203.676 203.875 203.571 204.256 203.594C204.811 203.462 205.345 203.255 205.844 202.979L205.551 200.412L204.203 199.006L202.861 199.24Z" fill="#FFA8A7"/>
<path d="M212.53 200.23C213.115 200.466 213.645 200.82 214.086 201.27C214.528 201.719 214.872 202.255 215.097 202.844C215.358 203.46 215.572 204.094 215.736 204.743C215.929 205.422 215.835 206.577 214.974 206.764C214.694 206.797 214.411 206.746 214.16 206.618C212.431 205.95 210.743 205.176 208.973 204.614C207.457 204.052 205.869 203.707 204.256 203.588C204.623 203.024 204.806 202.36 204.781 201.688C204.756 201.015 204.523 200.367 204.115 199.832C203.769 199.511 203.33 199.306 202.861 199.246C203.307 199.047 203.723 198.789 204.151 198.549C204.947 197.991 205.923 197.751 206.887 197.875C207.626 198.033 208.188 198.619 208.815 199.047C210.011 199.826 211.165 199.773 212.53 200.23Z" fill="#263238"/>
<path d="M173.04 202.756C174.581 202.281 177.042 201.859 184.344 201.484C191.645 201.109 201.637 199.469 201.637 199.469C203.336 201.104 202.773 203.67 202.773 203.67C202.773 203.67 189.805 207.772 185.58 208.317C178.853 209.184 176.532 209.12 173.497 208.47C170.086 207.737 167.936 204.321 173.04 202.756Z" fill="#8EC3B0"/>
<path d="M199.726 167.977L205.211 181.086L201.285 183.5L193.737 170.719L199.726 167.977Z" fill="#F28F8F"/>
<path d="M188.381 155.624C191.382 155.659 194.681 156.749 195.818 159.099L200.506 168.768C200.506 168.768 197.857 172.647 193.649 172.372L188.381 155.624Z" fill="#E0E0E0"/>
<path d="M168.434 175.999C168.469 175.489 169.202 172.999 169.987 170.315L175.683 172.284L174.153 177.107L169.354 181.66C168.314 179.968 167.984 177.934 168.434 175.999Z" fill="#FFA8A7"/>
<path d="M182.246 155.806C178.671 156.667 173.802 157.786 172.389 161.666C170.977 165.545 168.955 172.395 168.955 172.395C169.741 173.755 174.048 174.88 175.542 174.095L176.245 171.751V186.002C179.041 189.044 192.829 188.264 194.886 182.152V162.738C194.886 159.632 193.163 155.899 188.399 155.624L182.246 155.806Z" fill="#FAFAFA"/>
<path d="M176.228 171.763L178.021 166.119L176.228 174.288V171.763Z" fill="#E0E0E0"/>
<path d="M180.886 139.919C180.568 139.878 180.245 139.909 179.94 140.011C179.636 140.112 179.358 140.281 179.128 140.505C178.372 141.279 178.542 142.709 179.128 145.99L181.472 146.254L180.886 139.919Z" fill="#263238"/>
<path d="M194.487 138.97C194.989 138.972 195.486 138.87 195.947 138.671C196.662 138.261 196.849 139.075 196.456 139.779C196.197 140.286 195.812 140.718 195.338 141.034C194.864 141.35 194.317 141.539 193.749 141.583C193.749 141.484 193.081 139.761 193.081 139.761L194.487 138.97Z" fill="#263238"/>
<path d="M181.982 146.289C181.637 146.494 181.138 145.832 180.711 145.381C180.543 145.189 180.329 145.043 180.089 144.957C179.849 144.87 179.591 144.847 179.34 144.888C179.088 144.929 178.851 145.033 178.651 145.191C178.451 145.349 178.295 145.556 178.197 145.791C177.488 147.285 179.099 149.272 180.043 149.928C180.307 150.156 180.638 150.295 180.986 150.325C181.334 150.354 181.683 150.273 181.982 150.092L182.228 155.806C182.646 156.721 183.285 157.519 184.086 158.128C184.888 158.736 185.828 159.136 186.823 159.292C190.175 159.744 189.483 156.978 188.381 155.624V153.532C189.221 153.711 190.083 153.755 190.936 153.661C191.37 153.544 192.413 152.284 193.087 150.872C193.843 149.289 195.103 146.477 193.984 141.712C192.776 136.602 187.286 136.438 184.022 138.507C180.758 140.576 181.982 146.289 181.982 146.289Z" fill="#FFA8A7"/>
<path d="M181.982 146.869C181.806 146.869 181.144 145.773 180.711 145.381C180.125 144.836 180.886 139.919 180.886 139.919C180.886 139.919 180.3 138.05 181.472 136.813C182.644 135.577 184.941 135.782 186.617 135.724C188.671 135.735 190.705 135.326 192.595 134.522C194.974 133.491 195.15 133.35 195.443 134.411C195.736 135.472 195.853 137.845 194.435 139.445L193.661 140.705C193.661 140.705 192.94 141.291 190.731 141.584C188.522 141.877 184.736 140.663 184.285 140.599C183.641 140.511 183.506 141.132 183.16 142.832C182.832 144.326 182.568 146.858 181.982 146.869Z" fill="#263238"/>
<path d="M180.892 140.3L178.794 139.175C178.863 139.036 178.96 138.911 179.077 138.809C179.195 138.707 179.331 138.63 179.479 138.581C179.627 138.533 179.783 138.514 179.938 138.527C180.093 138.539 180.244 138.582 180.383 138.654C180.662 138.811 180.87 139.069 180.965 139.375C181.06 139.682 181.034 140.013 180.892 140.3Z" fill="#263238"/>
<path d="M188.375 153.532C188.375 153.532 185.27 152.905 184.186 152.36C183.548 152.026 183.025 151.507 182.685 150.872C182.85 151.509 183.141 152.107 183.541 152.63C184.332 153.643 188.375 154.388 188.375 154.388V153.532Z" fill="#F28F8F"/>
<path d="M188.475 146.172C188.471 146.294 188.43 146.411 188.359 146.51C188.288 146.609 188.19 146.685 188.076 146.729C187.962 146.772 187.838 146.781 187.719 146.755C187.6 146.728 187.492 146.667 187.407 146.58C187.323 146.492 187.266 146.381 187.244 146.261C187.221 146.142 187.235 146.018 187.283 145.906C187.33 145.794 187.41 145.698 187.511 145.631C187.613 145.563 187.732 145.527 187.854 145.527C187.937 145.529 188.019 145.547 188.095 145.58C188.172 145.613 188.24 145.661 188.298 145.721C188.356 145.781 188.401 145.851 188.431 145.929C188.462 146.006 188.477 146.089 188.475 146.172Z" fill="#263238"/>
<path d="M187.819 143.828L186.483 144.56C186.39 144.377 186.371 144.166 186.429 143.969C186.486 143.772 186.617 143.604 186.793 143.5C186.882 143.452 186.979 143.422 187.079 143.412C187.179 143.403 187.28 143.414 187.376 143.444C187.472 143.475 187.561 143.525 187.637 143.591C187.713 143.657 187.775 143.737 187.819 143.828Z" fill="#263238"/>
<path d="M188.106 150.333L189.53 150.872C189.498 150.967 189.448 151.054 189.382 151.13C189.316 151.205 189.235 151.266 189.145 151.31C189.055 151.354 188.957 151.379 188.857 151.384C188.757 151.389 188.657 151.375 188.563 151.34C188.371 151.264 188.216 151.117 188.131 150.929C188.046 150.741 188.037 150.527 188.106 150.333Z" fill="#F28F8F"/>
<path d="M194.025 144.344L192.812 143.406C192.869 143.325 192.942 143.256 193.027 143.203C193.112 143.151 193.207 143.116 193.305 143.102C193.404 143.087 193.504 143.092 193.601 143.117C193.697 143.142 193.787 143.187 193.866 143.248C194.028 143.375 194.135 143.56 194.165 143.764C194.194 143.968 194.144 144.176 194.025 144.344Z" fill="#263238"/>
<path d="M193.649 145.996C193.645 146.118 193.605 146.236 193.534 146.335C193.463 146.434 193.364 146.509 193.25 146.553C193.136 146.596 193.012 146.605 192.893 146.579C192.774 146.552 192.666 146.491 192.581 146.404C192.497 146.316 192.44 146.205 192.418 146.085C192.396 145.966 192.409 145.842 192.457 145.73C192.505 145.618 192.584 145.522 192.686 145.455C192.787 145.387 192.906 145.352 193.028 145.351C193.111 145.353 193.193 145.371 193.27 145.404C193.346 145.437 193.415 145.485 193.472 145.545C193.53 145.605 193.575 145.676 193.606 145.753C193.636 145.83 193.651 145.913 193.649 145.996Z" fill="#263238"/>
<path d="M190.72 145.92L190.134 149.623L192.185 149.383L190.72 145.92Z" fill="#F28F8F"/>
<path d="M212.097 187.977L199.469 180.687C199.358 180.624 199.233 180.591 199.105 180.591C198.978 180.591 198.853 180.624 198.742 180.687L176.597 193.474L189.583 200.998L212.097 187.977Z" fill="#37474F"/>
<path d="M189.465 199.902L182.656 195.976L202.568 184.479L209.413 188.387L189.465 199.902Z" fill="#263238"/>
<path d="M186.119 188.979L186.248 189.049L189.583 190.977L195.519 187.549L195.642 187.479L192.179 185.481L186.119 188.979Z" fill="#263238"/>
<path d="M186.248 189.05L189.583 190.977L195.519 187.549L192.179 185.621L186.248 189.05Z" fill="#263238"/>
<path d="M176.597 193.474V193.773C176.595 193.984 176.648 194.192 176.751 194.377C176.854 194.562 177.002 194.717 177.183 194.828L188.95 201.619C189.135 201.727 189.345 201.783 189.559 201.783C189.773 201.783 189.984 201.727 190.169 201.619L211.464 189.313C211.644 189.203 211.792 189.047 211.895 188.863C211.998 188.678 212.051 188.47 212.05 188.258V187.96L189.583 200.998L176.597 193.474Z" fill="#263238"/>
<path d="M189.583 200.998V201.807C189.789 201.805 189.991 201.748 190.169 201.643L211.464 189.337C211.644 189.226 211.792 189.071 211.895 188.886C211.998 188.701 212.051 188.493 212.05 188.282V187.983L189.583 200.998Z" fill="#263238"/>
<path d="M189.928 201.156C190.13 201.233 190.346 201.264 190.561 201.247C190.776 201.23 190.984 201.165 191.171 201.057L212.372 188.815C212.556 188.71 212.714 188.564 212.835 188.39C212.955 188.216 213.036 188.016 213.069 187.807L215.413 173.972C215.419 173.892 215.419 173.811 215.413 173.731C215.412 173.346 215.259 172.978 214.986 172.706L192.952 185.428C192.817 185.506 192.7 185.614 192.611 185.742C192.522 185.871 192.462 186.018 192.436 186.172L189.928 201.156Z" fill="#263238"/>
<path d="M189.583 200.998L189.729 201.08C189.794 201.117 189.86 201.15 189.928 201.18L192.436 186.196C192.462 186.041 192.522 185.894 192.611 185.766C192.7 185.637 192.817 185.53 192.952 185.451L214.986 172.729C214.896 172.646 214.798 172.571 214.693 172.507L192.618 185.229C192.482 185.307 192.365 185.414 192.275 185.543C192.185 185.672 192.124 185.818 192.097 185.973L189.583 200.998Z" fill="#455A64"/>
<path d="M201.865 188.376C202.199 187.219 202.965 186.235 204.004 185.627C205.03 185.041 205.733 185.305 205.58 186.213C205.247 187.37 204.481 188.354 203.442 188.962C202.416 189.577 201.713 189.278 201.865 188.376Z" fill="#37474F"/>
<path d="M174.153 177.095C174.153 177.095 177.956 191.745 179.562 192.794C181.168 193.843 184.156 194.611 185.586 195.138C187.016 195.665 187.666 196.386 187.42 196.585C187.174 196.785 185.111 197.002 184.397 197.254C183.682 197.506 184.607 198.66 186.19 199.885C187.772 201.109 189.12 200.998 188.944 201.813C188.768 202.627 185.24 203.442 182.263 201.695C179.287 199.949 178.384 197.593 176.609 195.595C174.833 193.597 170.778 185.293 169.354 181.66C169.354 181.66 169.489 174.909 171.698 175.337C173.907 175.765 174.153 177.095 174.153 177.095Z" fill="#FFA8A7"/>
<path d="M192.249 206.782C192.519 207.432 193.45 209.225 195.525 209.126L200.623 204.356L192.249 206.782Z" fill="#8EC3B0"/>
<path opacity="0.1" d="M192.249 206.782C192.519 207.432 193.45 209.225 195.525 209.126L200.623 204.356L192.249 206.782Z" fill="black"/>
<path d="M193.79 215.173C193.741 213.639 193.994 212.11 194.534 210.673C194.289 210.844 194.006 210.954 193.709 210.993C193.412 211.032 193.11 210.998 192.829 210.896C191.124 210.386 190.696 208.007 190.966 207.491C190.72 207.708 190.462 207.913 190.21 208.124C189.402 208.666 188.826 209.492 188.598 210.439C188.481 211.183 188.827 211.915 188.997 212.654C189.325 214.06 188.997 215.525 188.944 216.967C188.956 217.596 189.097 218.216 189.358 218.788C189.619 219.361 189.995 219.874 190.462 220.295C190.942 220.764 191.459 221.193 192.009 221.578C192.209 221.803 192.473 221.96 192.766 222.028C193.059 222.096 193.366 222.072 193.644 221.958C193.923 221.844 194.159 221.647 194.321 221.393C194.482 221.139 194.561 220.842 194.546 220.541C194.323 218.713 193.896 217.078 193.79 215.173Z" fill="#263238"/>
<path d="M195.724 208.821C195.566 209.12 195.425 209.407 195.302 209.694C195.449 209.413 195.589 209.12 195.724 208.821Z" fill="#37474F"/>
</svg>
