<svg width="24" height="24" viewBox="0 0 24 24" fill="none" xmlns="http://www.w3.org/2000/svg">
<g clip-path="url(#clip0_451_828)">
<path d="M18.2043 3.64479L18.2557 3.49131L18.6619 3.54212C19.0544 3.59122 19.4504 3.64412 19.8513 3.70178L19.8779 3.7056L20.2075 3.753L3.3807 1.4175L3.73096 3.40417L3.73478 3.42584L3.79231 3.75213L3.79239 3.75212L3.7925 3.75274L4.12208 3.70549L4.14883 3.70166C4.54474 3.64489 4.94116 3.59168 5.33803 3.54202L5.74419 3.49121L5.79566 3.64486M18.2043 3.64479C18.0373 3.62514 17.8709 3.60626 17.7051 3.58815M18.2043 3.64479L18.1257 3.87941C17.3905 6.07391 16.5205 8.47816 15.0957 10.0002L15.0301 10.0703L14.9951 10.1597C14.8103 10.6321 14.6863 11.0705 14.5712 11.4771C14.5129 11.683 14.457 11.8807 14.3966 12.0706C14.2094 12.6595 13.943 13.3201 13.3561 14.2683L13.1847 14.5451L13.3686 14.8138C14.5177 16.4934 15.2564 19.3928 15.6674 22.152L15.7234 22.5274L16.0059 22.5627H15.3554C14.946 21.428 14.2653 19.9043 13.6718 18.6325C13.3422 17.9262 13.0363 17.2908 12.8127 16.832C12.7009 16.6025 12.6097 16.4171 12.5463 16.2889L12.4731 16.1412L12.4539 16.1026L12.4489 16.0926L12.4476 16.09L12.4473 16.0894L12.4472 16.0892L12 16.3127M18.2043 3.64479C18.3499 3.66191 18.4959 3.67962 18.6424 3.69791C19.0342 3.74681 19.4295 3.79989 19.829 3.85712C19.8378 3.85839 19.8467 3.85966 19.8556 3.86093L20.1802 3.90758L20.1225 4.23474L20.1187 4.25639L19.751 6.34161L19.4125 6.28194L19.6933 4.68934C19.6985 4.69009 19.7037 4.69084 19.709 4.6916L19.7801 4.19669L19.2877 4.10987L19.2846 4.12747C19.0551 4.09633 18.8269 4.06665 18.5998 4.03825C17.8711 6.21339 16.9725 8.72697 15.4607 10.3419C15.2837 10.7944 15.173 11.1868 15.0628 11.5776C14.8329 12.3928 14.6051 13.2006 13.7812 14.5315C15 16.3127 15.75 19.3127 16.162 22.0783L18.412 22.3596M17.7051 3.58815L17.7678 3.43284L17.1033 3.36714C15.3653 3.19534 13.6829 3.10864 12 3.10864C10.3169 3.10864 8.63457 3.19534 6.89662 3.36714L6.23207 3.43284L6.29483 3.5882M17.7051 3.58815C17.4985 3.56558 17.2927 3.5442 17.0878 3.52401C15.3538 3.35322 13.6761 3.2677 12 3.2677C10.3239 3.2677 8.64616 3.35322 6.91213 3.52405C6.70718 3.54425 6.50144 3.56563 6.29483 3.5882M17.7051 3.58815L17.5177 4.052C16.8384 5.73363 15.6733 7.58231 14.486 8.95262M6.29483 3.5882C6.12902 3.60632 5.96265 3.6252 5.79566 3.64486M6.29483 3.5882L6.48221 4.05201C7.16155 5.73358 8.32662 7.5823 9.51383 8.95261M5.79566 3.64486C5.6501 3.66199 5.50407 3.6797 5.35754 3.698C4.96581 3.74691 4.57054 3.79999 4.17113 3.85724C4.16224 3.85851 4.15334 3.85979 4.14444 3.86107L3.81983 3.90773L4.5875 6.28185L4.30667 4.68925C4.30136 4.69001 4.29606 4.69077 4.29075 4.69153L4.21979 4.19659L4.71219 4.10976L4.71531 4.12745C4.94342 4.0965 5.17168 4.06673 5.4001 4.03816C6.12854 6.21269 7.02652 8.72542 8.53773 10.3404C8.6261 10.6485 8.69786 10.9272 8.76675 11.1947C9.01654 12.1649 9.22856 12.9883 10.0575 14.5315C8.99996 16.3127 8.24996 19.3127 7.83793 22.0783L5.58793 22.3596M5.79566 3.64486L5.87421 3.87934C6.60913 6.07323 7.47853 8.47667 8.90282 9.99878L8.98513 10.0867L9.01834 10.2025C9.11081 10.5249 9.18462 10.8113 9.25448 11.0823C9.50151 12.0409 9.69913 12.8077 10.4979 14.2949L10.6316 14.5438L10.4874 14.7867C9.48235 16.4796 8.74284 19.3975 8.33247 22.152L8.27655 22.5274L7.99406 22.5627M7.99406 22.5627H7.89848H6.08793V22.3596H5.58793M7.99406 22.5627H8.64454M7.99406 22.5627L7.89995 22.5745L6.08793 22.801V23.0627M5.58793 22.3596L5.61332 22.5627H5.58793V22.3596ZM6.08793 23.0627H8.99996M6.08793 23.0627L17.912 22.5627V22.3596H18.412M6.08793 23.0627L8.64454 22.5627M8.99996 23.0627C9.58754 21.3 11.0958 18.1562 11.7215 16.8773C11.6947 16.8228 11.6707 16.7742 11.6499 16.732L11.5777 16.5864L11.559 16.5488L11.5543 16.5393L11.5531 16.537L11.5528 16.5365L11.5528 16.5363L12 16.3127M8.99996 23.0627V22.5627H8.64454M8.99996 23.0627L8.52562 22.9046C8.56203 22.7954 8.60181 22.6811 8.64454 22.5627M12 16.3127L11.5527 16.0891L12 15.1947L12.4472 16.0891L12 16.3127ZM12 16.3127L11.5527 16.0892L11.5526 16.0894L11.5523 16.09L11.551 16.0926L11.546 16.1026L11.5268 16.1412L11.4536 16.2889C11.3902 16.4171 11.299 16.6025 11.1872 16.832C10.9637 17.2908 10.6577 17.9262 10.3281 18.6325C9.7346 19.9043 9.05393 21.428 8.64454 22.5627M12 16.3127L8.64454 22.5627M18.412 22.3596L18.3866 22.5627H18.412V22.3596ZM17.912 23.0627V22.801V23.0627ZM17.912 23.0627H15C14.4124 21.3 12.9041 18.1562 12.2784 16.8773L17.912 23.0627ZM19.818 6.86112L20.1566 6.92078M19.818 6.86112L20.2725 4.28351L20.2764 4.26186L20.3348 3.9305L20.6677 3.98229L20.6846 3.98491C20.9272 4.02263 21.1695 4.06158 21.4117 4.10176C21.4145 4.10222 21.4173 4.10269 21.4202 4.10316L21.7543 4.15862L21.6948 4.49607L21.694 4.50031L21.4508 5.87962L21.1123 5.81994L21.2687 4.93305C21.2704 4.93333 21.2721 4.93361 21.2738 4.93389L21.3556 4.44062L20.8632 4.35379L20.862 4.36045C20.7794 4.34731 20.6971 4.33435 20.6149 4.32156L20.1566 6.92078M19.818 6.86112L19.8181 6.86108M19.818 6.86112L19.8181 6.86108M20.1566 6.92078L19.8181 6.86108M20.1566 6.92078L19.8181 6.86108M21.9084 4.18471L21.8487 4.52322L21.848 4.52746L21.6047 5.90675L21.9432 5.96642L22.1003 5.0753C22.1003 5.07529 22.1003 5.07529 22.1003 5.07529L21.9084 4.18471ZM21.9084 4.18471L22.2468 4.24439C22.2468 4.24439 22.2469 4.24439 22.2469 4.2444C22.3498 4.26254 22.4529 4.28091 22.5564 4.29952M21.9084 4.18471L22.5564 4.29952M22.5564 4.29952L22.4938 4.63596L22.5958 4.65494L22.1872 4.58289L22.5564 4.29952ZM9.51383 8.95261C9.50845 8.94501 9.50311 8.93739 9.4978 8.92974L9.9084 8.64442M9.51383 8.95261C10.0772 9.74973 10.9613 10.2971 12 10.2971C13.0386 10.2971 13.9227 9.74972 14.486 8.95262M9.51383 8.95261C9.51958 8.95925 9.52533 8.96588 9.53108 8.97249L9.9084 8.64442M14.486 8.95262C14.4914 8.94502 14.4968 8.93739 14.5021 8.92974L14.0915 8.64442M14.486 8.95262C14.4803 8.95926 14.4745 8.96589 14.4688 8.9725L14.0915 8.64442M14.0915 8.64442C15.1385 7.44027 16.1711 5.84731 16.8478 4.34698C16.9001 4.35201 16.9525 4.35711 17.0049 4.36229L17.0541 3.86472L16.5905 3.67743C16.572 3.72337 16.553 3.76946 16.5337 3.81569C14.9948 3.67797 13.4972 3.60864 12 3.60864C10.5027 3.60864 9.00509 3.67796 7.46627 3.81569C7.44692 3.76946 7.42796 3.72336 7.4094 3.67743L6.9458 3.86472L6.99499 4.36229C7.04743 4.35711 7.09982 4.352 7.15215 4.34698C7.82879 5.84727 8.86141 7.44027 9.9084 8.64442M14.0915 8.64442C13.6074 9.34099 12.8601 9.79708 12 9.79708C11.1398 9.79708 10.3924 9.34099 9.9084 8.64442M22.274 4.09048L21.9355 4.03079L21.9944 3.69672L21.9952 3.69229L22.2125 2.4599L22.551 2.51957L22.4205 3.25958L22.3336 3.75198C22.3361 3.75242 22.3386 3.75286 22.3411 3.7533C22.443 3.77128 22.5453 3.78949 22.6478 3.80794L22.585 4.14587C22.481 4.12716 22.3773 4.10871 22.274 4.09049L22.274 4.09048ZM10.6718 6.7502C10.6718 5.69279 11.3725 5.04708 12 5.04708C12.6274 5.04708 13.3281 5.69279 13.3281 6.7502C13.3281 7.80762 12.6274 8.45333 12 8.45333C11.3725 8.45333 10.6718 7.80762 10.6718 6.7502Z" stroke="black"/>
</g>
<defs>
<clipPath id="clip0_451_828">
<rect width="24" height="24" fill="white"/>
</clipPath>
</defs>
</svg>
