<svg width="390" height="483" viewBox="0 0 390 483" fill="none" xmlns="http://www.w3.org/2000/svg">
<path d="M386.507 384.941H355.772V385.183H386.507V384.941Z" fill="#EBEBEB"/>
<path d="M276.372 387.569H268.308V387.81H276.372V387.569Z" fill="#EBEBEB"/>
<path d="M354.844 375.977H337.036V376.218H354.844V375.977Z" fill="#EBEBEB"/>
<path d="M57.7632 377.6H17.6829V377.841H57.7632V377.6Z" fill="#EBEBEB"/>
<path d="M71.9059 377.6H66.0317V377.841H71.9059V377.6Z" fill="#EBEBEB"/>
<path d="M177.939 381.676H91.0042V381.918H177.939V381.676Z" fill="#EBEBEB"/>
<path d="M188.936 326.315H9.75774C8.35239 326.315 7.0046 325.734 6.01087 324.699C5.01714 323.665 4.45886 322.262 4.45886 320.799V58.5974C4.4711 57.1429 5.03477 55.7523 6.02718 54.7283C7.01959 53.7043 8.36039 53.1298 9.75774 53.1299H188.936C190.341 53.1299 191.689 53.711 192.683 54.7454C193.677 55.7799 194.235 57.1828 194.235 58.6457V320.799C194.235 322.262 193.677 323.665 192.683 324.699C191.689 325.734 190.341 326.315 188.936 326.315ZM9.75774 53.3231C8.41467 53.3256 7.12732 53.8821 6.17763 54.8707C5.22794 55.8593 4.69332 57.1994 4.69086 58.5974V320.799C4.69332 322.197 5.22794 323.537 6.17763 324.526C7.12732 325.514 8.41467 326.071 9.75774 326.073H188.936C190.279 326.071 191.566 325.514 192.516 324.526C193.466 323.537 194 322.197 194.003 320.799V58.5974C194 57.1994 193.466 55.8593 192.516 54.8707C191.566 53.8821 190.279 53.3256 188.936 53.3231H9.75774Z" fill="#EBEBEB"/>
<path d="M389.672 326.315H210.475C209.07 326.312 207.724 325.73 206.731 324.696C205.738 323.662 205.178 322.261 205.176 320.799V58.5974C205.191 57.1437 205.755 55.7546 206.747 54.7311C207.739 53.7077 209.078 53.1323 210.475 53.1299H389.672C391.066 53.1349 392.402 53.7117 393.39 54.7351C394.379 55.7586 394.94 57.1463 394.952 58.5974V320.799C394.952 322.258 394.396 323.658 393.407 324.692C392.417 325.726 391.074 326.31 389.672 326.315ZM210.475 53.3231C209.132 53.3256 207.844 53.8821 206.895 54.8707C205.945 55.8593 205.41 57.1994 205.408 58.5974V320.799C205.41 322.197 205.945 323.537 206.895 324.526C207.844 325.514 209.132 326.071 210.475 326.073H389.672C391.015 326.071 392.302 325.514 393.252 324.526C394.202 323.537 394.736 322.197 394.739 320.799V58.5974C394.736 57.1994 394.202 55.8593 393.252 54.8707C392.302 53.8821 391.015 53.3256 389.672 53.3231H210.475Z" fill="#EBEBEB"/>
<path d="M433 369.398H-31V369.64H433V369.398Z" fill="#EBEBEB"/>
<path d="M258.202 95.8849C258.202 95.8849 288.826 99.4784 285.745 90.4946C283.397 83.5877 279.035 90.031 276.929 89.2871C275.073 88.6303 275.806 83.7809 270.786 84.3316C265.765 84.8822 267.612 90.002 266.006 91.364C264.401 92.7261 258.007 89.2871 258.202 95.8849Z" fill="#FAFAFA"/>
<path d="M371.464 289.8H28.5962C27.941 289.801 27.2919 289.668 26.6863 289.408C26.0806 289.148 25.5301 288.766 25.0664 288.284C24.6027 287.802 24.2348 287.23 23.9837 286.6C23.7327 285.97 23.6035 285.294 23.6035 284.612C23.6035 283.234 24.1295 281.912 25.0658 280.937C26.0021 279.963 27.272 279.415 28.5962 279.415H371.464C372.788 279.415 374.058 279.963 374.995 280.937C375.931 281.912 376.457 283.234 376.457 284.612C376.457 285.294 376.328 285.97 376.077 286.6C375.826 287.23 375.458 287.802 374.994 288.284C374.53 288.766 373.98 289.148 373.374 289.408C372.769 289.668 372.12 289.801 371.464 289.8Z" fill="#E6E6E6"/>
<path d="M49.8288 296.426C48.8918 296.424 47.9939 296.035 47.3314 295.346C46.6688 294.656 46.2955 293.721 46.2931 292.746V283.231H53.3645V292.746C53.3645 293.722 52.9919 294.658 52.3289 295.349C51.6658 296.039 50.7665 296.426 49.8288 296.426Z" fill="#F0F0F0"/>
<path d="M123.141 296.426C122.204 296.424 121.306 296.035 120.643 295.346C119.981 294.656 119.608 293.721 119.605 292.746V283.231H126.676V292.746C126.674 293.721 126.301 294.656 125.638 295.346C124.976 296.035 124.078 296.424 123.141 296.426Z" fill="#F0F0F0"/>
<path d="M192.917 283.231H199.988V292.698C199.988 293.674 199.616 294.61 198.953 295.3C198.29 295.99 197.391 296.378 196.453 296.378C195.515 296.378 194.616 295.99 193.953 295.3C193.29 294.61 192.917 293.674 192.917 292.698V283.231Z" fill="#F0F0F0"/>
<path d="M269.765 296.426C268.827 296.426 267.928 296.039 267.265 295.349C266.602 294.658 266.229 293.722 266.229 292.746V283.231H273.291V292.746C273.291 293.72 272.92 294.655 272.259 295.345C271.598 296.035 270.701 296.424 269.765 296.426Z" fill="#F0F0F0"/>
<path d="M343.067 296.426C342.131 296.424 341.234 296.035 340.573 295.345C339.912 294.655 339.541 293.72 339.541 292.746V283.231H346.603V292.746C346.603 293.722 346.231 294.658 345.568 295.349C344.904 296.039 344.005 296.426 343.067 296.426Z" fill="#F0F0F0"/>
<path d="M371.464 286.902H28.5962C27.941 286.903 27.2919 286.77 26.6863 286.51C26.0806 286.25 25.5301 285.868 25.0664 285.386C24.6027 284.904 24.2348 284.332 23.9837 283.702C23.7327 283.072 23.6035 282.396 23.6035 281.714C23.6035 280.336 24.1295 279.014 25.0658 278.04C26.0021 277.065 27.272 276.517 28.5962 276.517H371.464C372.788 276.517 374.058 277.065 374.995 278.04C375.931 279.014 376.457 280.336 376.457 281.714C376.457 282.396 376.328 283.072 376.077 283.702C375.826 284.332 375.458 284.904 374.994 285.386C374.53 285.868 373.98 286.25 373.374 286.51C372.769 286.77 372.12 286.903 371.464 286.902Z" fill="#F5F5F5"/>
<path d="M353.971 104.917H272.762V265.891H353.971V104.917Z" fill="#F0F0F0"/>
<path d="M278.33 107.815H275.546V262.993H278.33V107.815Z" fill="#E0E0E0"/>
<path d="M353.971 153.691V124.672L272.762 201.836V230.864L353.971 153.691Z" fill="#FAFAFA"/>
<path d="M272.762 176.846L348.45 104.917H342.334L272.762 171.03V176.846Z" fill="#FAFAFA"/>
<path d="M353.972 214.606V208.791L293.884 265.891H300.008L353.972 214.606Z" fill="#FAFAFA"/>
<path d="M353.971 175.85V165.205L272.762 242.379V253.024L353.971 175.85Z" fill="#FAFAFA"/>
<path d="M356.756 268.789H269.978V102.019H356.756V268.789ZM275.546 262.993H351.188V107.815H275.546V262.993Z" fill="#EBEBEB"/>
<path d="M74.792 139.703H98.3632C102.793 139.703 107.042 141.535 110.175 144.796C113.307 148.057 115.067 152.479 115.067 157.091V290.573C115.067 292.735 114.242 294.809 112.773 296.338C111.304 297.867 109.312 298.726 107.235 298.726H65.9575C64.9258 298.731 63.9033 298.524 62.9488 298.116C61.9942 297.709 61.1264 297.109 60.3952 296.351C59.6639 295.594 59.0837 294.693 58.6877 293.702C58.2918 292.71 58.088 291.647 58.088 290.573V157.062C58.088 152.45 59.8479 148.028 62.9805 144.767C66.1131 141.506 70.3618 139.674 74.792 139.674V139.703Z" fill="#F0F0F0"/>
<path d="M65.9575 298.726H107.216C109.294 298.726 111.286 297.867 112.755 296.338C114.223 294.809 115.049 292.735 115.049 290.573V264.491C115.05 265.443 114.871 266.386 114.522 267.266C114.172 268.146 113.66 268.946 113.013 269.62C112.367 270.294 111.599 270.828 110.754 271.193C109.909 271.558 109.003 271.745 108.089 271.745H65.0944C64.1784 271.75 63.2704 271.568 62.4224 271.207C61.5744 270.847 60.8029 270.316 60.1522 269.645C59.5015 268.973 58.9842 268.175 58.63 267.296C58.2758 266.417 58.0917 265.473 58.088 264.52V290.602C58.0917 291.673 58.2982 292.733 58.6957 293.722C59.0933 294.71 59.6741 295.607 60.405 296.362C61.1359 297.116 62.0024 297.713 62.9552 298.119C63.9079 298.525 64.9281 298.731 65.9575 298.726Z" fill="#E0E0E0"/>
<path d="M115.049 166.615H58.1251V172.827H115.049V166.615Z" fill="#E0E0E0"/>
<path d="M58.088 157.062V160.095H115.012V157.062C115.007 155.992 114.908 154.925 114.715 153.874H58.4221C58.2162 154.924 58.1044 155.991 58.088 157.062Z" fill="#E0E0E0"/>
<path d="M86.5868 101.923C85.4558 101.925 84.3497 101.577 83.4084 100.924C82.4671 100.272 81.733 99.3431 81.2989 98.2559C80.8648 97.1688 80.7503 95.972 80.9698 94.8171C81.1893 93.6621 81.733 92.601 82.5321 91.7678C83.3312 90.9346 84.3498 90.3669 85.4589 90.1365C86.5681 89.9061 87.7179 90.0234 88.763 90.4735C89.8081 90.9236 90.7015 91.6863 91.33 92.6651C91.9585 93.6439 92.294 94.7947 92.294 95.972C92.2941 97.5486 91.693 99.0606 90.623 100.176C89.553 101.292 88.1013 101.92 86.5868 101.923ZM86.5868 93.2286C86.0597 93.2286 85.5444 93.3914 85.1062 93.6965C84.668 94.0016 84.3267 94.4351 84.1254 94.9423C83.924 95.4495 83.8718 96.0074 83.9754 96.5455C84.0789 97.0835 84.3335 97.5775 84.7069 97.9648C85.0803 98.3522 85.5557 98.6155 86.073 98.7213C86.5902 98.8272 87.126 98.7709 87.6125 98.5596C88.099 98.3483 88.5143 97.9914 88.8059 97.5343C89.0974 97.0771 89.252 96.5401 89.2502 95.9914C89.2527 95.6261 89.1855 95.264 89.0527 94.9259C88.9198 94.5879 88.7239 94.2806 88.4762 94.0219C88.2285 93.7631 87.934 93.5581 87.6097 93.4186C87.2854 93.2791 86.9377 93.208 86.5868 93.2093V93.2286Z" fill="#E0E0E0"/>
<path d="M86.5869 153.874C86.3867 153.875 86.1882 153.835 86.003 153.756C85.8178 153.677 85.6496 153.56 85.508 153.413C85.3664 153.265 85.2544 153.09 85.1783 152.898C85.1023 152.705 85.0637 152.498 85.065 152.29V100.329H88.1088V152.29C88.11 152.498 88.0715 152.705 87.9955 152.898C87.9194 153.09 87.8074 153.265 87.6658 153.413C87.5242 153.56 87.356 153.677 87.1708 153.756C86.9856 153.835 86.7871 153.875 86.5869 153.874Z" fill="#E0E0E0"/>
<path d="M112.71 153.178L87.1066 100.56L89.8256 99.1211L115.429 151.749C115.61 152.124 115.64 152.559 115.513 152.957C115.386 153.356 115.112 153.685 114.752 153.874C114.574 153.969 114.38 154.026 114.181 154.042C113.982 154.059 113.781 154.034 113.592 153.969C113.402 153.904 113.226 153.801 113.075 153.665C112.924 153.53 112.8 153.364 112.71 153.178Z" fill="#E0E0E0"/>
<path d="M58.4221 153.874C58.2436 153.781 58.0846 153.652 57.9542 153.494C57.8239 153.337 57.7248 153.154 57.6627 152.956C57.6006 152.759 57.5766 152.55 57.5923 152.343C57.608 152.136 57.6629 151.934 57.7539 151.749L83.3482 99.1309L86.0672 100.561L60.473 153.179C60.3825 153.365 60.2576 153.53 60.1055 153.666C59.9533 153.802 59.7769 153.905 59.5863 153.97C59.3958 154.034 59.1948 154.059 58.995 154.043C58.7953 154.026 58.6005 153.969 58.4221 153.874Z" fill="#E0E0E0"/>
<path d="M86.5869 94.1752C86.2177 94.1752 85.8636 94.0226 85.6026 93.7508C85.3415 93.4791 85.1949 93.1105 85.1949 92.7262V53.7771H87.9789V92.7359C87.9764 93.1185 87.8287 93.4846 87.5679 93.7542C87.3071 94.0239 86.9545 94.1752 86.5869 94.1752Z" fill="#EBEBEB"/>
<path d="M196.527 409.304C295.9 409.304 376.457 404.408 376.457 398.369C376.457 392.329 295.9 387.434 196.527 387.434C97.1545 387.434 16.5971 392.329 16.5971 398.369C16.5971 404.408 97.1545 409.304 196.527 409.304Z" fill="#EBEBEB"/>
<path d="M308.333 386.506H306.245C305.856 386.506 305.472 386.426 305.113 386.271C304.754 386.116 304.429 385.889 304.155 385.603C303.88 385.317 303.663 384.977 303.515 384.603C303.368 384.229 303.292 383.829 303.293 383.425C303.293 382.61 303.604 381.829 304.158 381.253C304.711 380.676 305.462 380.353 306.245 380.353H308.333V386.506Z" fill="#8EC3B0"/>
<path d="M356.301 380.353H323.45V386.506H356.301V380.353Z" fill="#8EC3B0"/>
<path d="M371.418 380.353H373.497C373.885 380.352 374.27 380.43 374.629 380.584C374.988 380.738 375.314 380.964 375.589 381.249C375.864 381.534 376.083 381.874 376.231 382.247C376.38 382.62 376.457 383.02 376.457 383.425C376.457 384.242 376.145 385.026 375.59 385.604C375.035 386.182 374.282 386.506 373.497 386.506H371.418V380.353Z" fill="#8EC3B0"/>
<path d="M318.411 372.567H313.372V394.273H318.411V372.567Z" fill="#263238"/>
<path d="M313.372 376.199H308.333V390.651H313.372V376.199Z" fill="#263238"/>
<path d="M323.45 368.935H318.411V397.905H323.45V368.935Z" fill="#263238"/>
<path d="M361.331 394.283H366.37V372.577H361.331V394.283Z" fill="#263238"/>
<path opacity="0.2" d="M318.411 372.567H313.372V394.273H318.411V372.567Z" fill="white"/>
<path opacity="0.2" d="M361.331 394.283H366.37V372.577H361.331V394.283Z" fill="white"/>
<path d="M366.37 390.65H371.409V376.199H366.37V390.65Z" fill="#263238"/>
<path opacity="0.4" d="M313.372 376.199H308.333V390.651H313.372V376.199Z" fill="white"/>
<path opacity="0.4" d="M366.37 390.65H371.409V376.199H366.37V390.65Z" fill="white"/>
<path d="M356.292 397.915H361.331V368.944H356.292V397.915Z" fill="#263238"/>
<path d="M313.372 357.893H311.284C310.501 357.893 309.75 357.57 309.197 356.994C308.643 356.418 308.333 355.636 308.333 354.822C308.331 354.417 308.407 354.017 308.555 353.643C308.702 353.269 308.919 352.929 309.194 352.643C309.468 352.357 309.793 352.13 310.152 351.975C310.511 351.82 310.895 351.74 311.284 351.74H313.372V357.893Z" fill="#8EC3B0"/>
<path d="M356.301 351.74H323.45V357.893H356.301V351.74Z" fill="#8EC3B0"/>
<path d="M366.49 351.74H368.569C369.354 351.74 370.107 352.065 370.662 352.643C371.217 353.22 371.529 354.004 371.529 354.822C371.529 355.226 371.453 355.626 371.304 355.999C371.155 356.373 370.937 356.712 370.662 356.997C370.387 357.282 370.06 357.509 369.701 357.662C369.342 357.816 368.957 357.895 368.569 357.893H366.49V351.74Z" fill="#8EC3B0"/>
<path d="M318.411 343.964H313.372V365.67H318.411V343.964Z" fill="#263238"/>
<path d="M323.45 340.332H318.411V369.302H323.45V340.332Z" fill="#263238"/>
<path d="M361.331 365.679H366.37V343.973H361.331V365.679Z" fill="#263238"/>
<path opacity="0.4" d="M318.411 343.964H313.372V365.67H318.411V343.964Z" fill="white"/>
<path opacity="0.4" d="M361.331 365.679H366.37V343.973H361.331V365.679Z" fill="white"/>
<path d="M356.292 369.312H361.331V340.341H356.292V369.312Z" fill="#263238"/>
<path opacity="0.2" d="M323.45 340.332H318.411V369.302H323.45V340.332Z" fill="white"/>
<path opacity="0.2" d="M356.292 369.312H361.331V340.341H356.292V369.312Z" fill="white"/>
<path d="M318.411 329.29H316.323C315.935 329.29 315.551 329.211 315.193 329.056C314.835 328.902 314.51 328.676 314.236 328.39C313.962 328.105 313.744 327.767 313.596 327.394C313.448 327.021 313.371 326.622 313.371 326.218C313.37 325.814 313.446 325.414 313.593 325.04C313.741 324.666 313.958 324.326 314.233 324.04C314.507 323.754 314.832 323.526 315.191 323.371C315.55 323.216 315.934 323.137 316.323 323.137H318.411V329.29Z" fill="#8EC3B0"/>
<path d="M356.301 323.137H323.45V329.29H356.301V323.137Z" fill="#8EC3B0"/>
<path d="M361.34 323.137H363.4C364.185 323.137 364.938 323.461 365.493 324.039C366.048 324.617 366.36 325.401 366.36 326.218C366.36 326.622 366.284 327.023 366.135 327.396C365.986 327.769 365.768 328.108 365.493 328.394C365.218 328.679 364.891 328.905 364.532 329.059C364.173 329.213 363.788 329.291 363.4 329.29H361.321L361.34 323.137Z" fill="#8EC3B0"/>
<path d="M323.45 311.728H318.411V340.699H323.45V311.728Z" fill="#263238"/>
<path d="M356.292 340.708H361.331V311.738H356.292V340.708Z" fill="#263238"/>
<path opacity="0.4" d="M323.45 311.728H318.411V340.699H323.45V311.728Z" fill="white"/>
<path opacity="0.4" d="M356.292 340.708H361.331V311.738H356.292V340.708Z" fill="white"/>
<path d="M269.394 298.765C262.257 298.765 256.402 290.505 256.402 287.829C256.402 283.965 264.559 282.884 269.394 282.884C274.228 282.884 282.386 283.927 282.386 287.829C282.376 290.505 276.539 298.765 269.394 298.765ZM258.926 287.868C259.056 289.269 263.668 296.156 269.394 296.156C275.119 296.156 279.722 289.269 279.88 287.868C279.564 287.182 276.084 285.521 269.412 285.521C262.74 285.521 259.241 287.163 258.926 287.868Z" fill="#8EC3B0"/>
<g opacity="0.4">
<path d="M269.394 298.765C262.257 298.765 256.402 290.505 256.402 287.829C256.402 283.965 264.559 282.884 269.394 282.884C274.228 282.884 282.386 283.927 282.386 287.829C282.376 290.505 276.539 298.765 269.394 298.765ZM258.926 287.868C259.056 289.269 263.668 296.156 269.394 296.156C275.119 296.156 279.722 289.269 279.88 287.868C279.564 287.182 276.084 285.521 269.412 285.521C262.74 285.521 259.241 287.163 258.926 287.868Z" fill="black"/>
</g>
<path d="M269.394 282.449C266.728 282.396 264.066 282.684 261.468 283.309C261.04 283.425 260.672 283.712 260.445 284.107C260.217 284.503 260.148 284.976 260.253 285.424C260.305 285.65 260.4 285.862 260.531 286.05C260.663 286.237 260.828 286.396 261.019 286.516C261.21 286.636 261.421 286.716 261.642 286.751C261.862 286.786 262.087 286.775 262.304 286.718C264.628 286.161 267.008 285.895 269.394 285.926C271.782 285.892 274.166 286.162 276.493 286.728C276.718 286.785 276.952 286.792 277.18 286.751C277.409 286.71 277.626 286.621 277.82 286.488C278.014 286.356 278.18 286.184 278.307 285.983C278.435 285.782 278.522 285.555 278.562 285.318C278.639 284.88 278.553 284.428 278.322 284.053C278.092 283.679 277.733 283.409 277.319 283.299C274.721 282.677 272.059 282.392 269.394 282.449Z" fill="#263238"/>
<path d="M265.598 316.51H273.189C275.91 315.571 278.221 313.655 279.708 311.104C281.194 308.553 281.76 305.534 281.303 302.588C280.847 299.643 279.397 296.963 277.215 295.028C275.033 293.094 272.26 292.031 269.394 292.031C266.527 292.031 263.755 293.094 261.572 295.028C259.39 296.963 257.94 299.643 257.484 302.588C257.027 305.534 257.593 308.553 259.08 311.104C260.566 313.655 262.877 315.571 265.598 316.51Z" fill="#263238"/>
<path opacity="0.9" d="M274.535 302.223C274.535 303.281 274.233 304.316 273.668 305.196C273.103 306.076 272.3 306.762 271.361 307.167C270.422 307.572 269.388 307.678 268.391 307.472C267.393 307.265 266.477 306.755 265.758 306.007C265.039 305.258 264.55 304.305 264.351 303.267C264.153 302.229 264.255 301.153 264.644 300.175C265.033 299.197 265.692 298.361 266.537 297.773C267.383 297.185 268.377 296.871 269.394 296.871C270.069 296.871 270.737 297.01 271.361 297.278C271.985 297.547 272.551 297.942 273.029 298.439C273.506 298.935 273.885 299.525 274.143 300.175C274.402 300.824 274.535 301.52 274.535 302.223Z" fill="white"/>
<path d="M294.941 310.83H284.01C282.327 310.832 280.714 311.529 279.524 312.768C278.334 314.007 277.665 315.686 277.662 317.437V398.407H280.539V317.437C280.541 316.48 280.908 315.562 281.558 314.885C282.209 314.208 283.09 313.827 284.01 313.824H294.941C295.861 313.827 296.743 314.208 297.393 314.885C298.043 315.562 298.41 316.48 298.412 317.437V398.407H301.289V317.437C301.287 315.686 300.617 314.007 299.427 312.768C298.237 311.529 296.624 310.832 294.941 310.83Z" fill="#8EC3B0"/>
<path d="M302.05 316.056H229.508V319.505H302.05V316.056Z" fill="#263238"/>
<path opacity="0.5" d="M302.143 318.567H231.819V321.91H302.143V318.567Z" fill="white"/>
<path opacity="0.5" d="M254.666 316.056H229.508V319.505H254.666V316.056Z" fill="black"/>
<path d="M302.05 372.18H229.508V375.629H302.05V372.18Z" fill="#263238"/>
<path opacity="0.5" d="M302.143 372.982H231.819V376.325H302.143V372.982Z" fill="white"/>
<path opacity="0.5" d="M254.666 372.18H229.508V375.629H254.666V372.18Z" fill="black"/>
<path d="M247.558 310.83H236.626C234.943 310.832 233.33 311.529 232.14 312.768C230.95 314.007 230.281 315.686 230.278 317.437V398.407H233.155V317.437C233.158 316.48 233.524 315.562 234.174 314.885C234.825 314.208 235.706 313.827 236.626 313.824H247.558C248.478 313.827 249.359 314.208 250.009 314.885C250.66 315.562 251.026 316.48 251.029 317.437V398.407H253.896V317.437C253.894 315.687 253.225 314.01 252.037 312.771C250.85 311.533 249.239 310.835 247.558 310.83Z" fill="#8EC3B0"/>
<path d="M269.394 351.199C260.856 351.199 253.877 341.317 253.877 338.119C253.877 333.453 263.631 332.207 269.394 332.207C275.156 332.207 284.919 333.453 284.919 338.119C284.919 341.317 277.931 351.199 269.394 351.199ZM256.884 338.148C257.033 339.829 262.545 348.069 269.394 348.069C276.242 348.069 281.745 339.848 281.912 338.148C281.532 337.327 277.374 335.337 269.394 335.337C261.413 335.337 257.255 337.327 256.884 338.148Z" fill="#8EC3B0"/>
<g opacity="0.4">
<path d="M269.394 351.199C260.856 351.199 253.877 341.317 253.877 338.119C253.877 333.453 263.631 332.207 269.394 332.207C275.156 332.207 284.919 333.453 284.919 338.119C284.919 341.317 277.931 351.199 269.394 351.199ZM256.884 338.148C257.033 339.829 262.545 348.069 269.394 348.069C276.242 348.069 281.745 339.848 281.912 338.148C281.532 337.327 277.374 335.337 269.394 335.337C261.413 335.337 257.255 337.327 256.884 338.148Z" fill="black"/>
</g>
<path d="M269.394 331.686C266.207 331.624 263.025 331.968 259.919 332.71C259.405 332.851 258.965 333.196 258.693 333.671C258.42 334.146 258.337 334.713 258.462 335.25C258.523 335.521 258.635 335.776 258.791 336.001C258.948 336.227 259.146 336.417 259.374 336.562C259.602 336.707 259.855 336.803 260.119 336.844C260.383 336.886 260.653 336.873 260.912 336.806C263.692 336.132 266.539 335.808 269.394 335.84C272.251 335.802 275.102 336.127 277.885 336.806C278.154 336.873 278.434 336.883 278.707 336.834C278.98 336.785 279.24 336.679 279.472 336.522C279.704 336.364 279.903 336.159 280.056 335.919C280.209 335.679 280.313 335.408 280.363 335.125C280.451 334.599 280.347 334.058 280.07 333.609C279.794 333.159 279.364 332.835 278.868 332.7C275.762 331.962 272.58 331.621 269.394 331.686Z" fill="#263238"/>
<path d="M264.856 372.422H273.931C277.179 371.3 279.936 369.011 281.71 365.965C283.483 362.92 284.158 359.317 283.612 355.801C283.066 352.285 281.335 349.086 278.73 346.777C276.125 344.469 272.815 343.201 269.394 343.201C265.972 343.201 262.663 344.469 260.057 346.777C257.452 349.086 255.722 352.285 255.176 355.801C254.63 359.317 255.304 362.92 257.077 365.965C258.851 369.011 261.609 371.3 264.856 372.422Z" fill="#263238"/>
<path opacity="0.9" d="M275.546 355.334C275.546 356.6 275.185 357.839 274.509 358.892C273.833 359.945 272.872 360.766 271.748 361.251C270.624 361.735 269.387 361.862 268.193 361.615C267 361.368 265.903 360.758 265.043 359.862C264.183 358.967 263.597 357.825 263.359 356.583C263.122 355.341 263.244 354.053 263.709 352.883C264.175 351.712 264.964 350.712 265.975 350.008C266.987 349.305 268.177 348.929 269.394 348.929C271.025 348.929 272.59 349.604 273.744 350.805C274.898 352.006 275.546 353.635 275.546 355.334Z" fill="white"/>
<path d="M121.387 397.915H108.72C107.296 397.913 105.888 397.614 104.577 397.038C103.266 396.461 102.079 395.617 101.086 394.556C100.092 393.495 99.3126 392.238 98.7925 390.859C98.2724 389.48 98.0223 388.007 98.0569 386.526L99.2912 336.835C99.3472 333.935 100.497 331.174 102.492 329.15C104.487 327.125 107.168 325.999 109.954 326.015H113.155C115.668 326.009 118.101 326.927 120.025 328.609C121.95 330.29 123.24 332.625 123.67 335.202L131.901 384.893C132.165 386.488 132.09 388.123 131.684 389.684C131.277 391.246 130.547 392.696 129.546 393.934C128.544 395.171 127.295 396.166 125.886 396.849C124.477 397.531 122.941 397.885 121.387 397.886V397.915ZM109.954 329.01C107.918 328.997 105.959 329.818 104.5 331.297C103.041 332.776 102.2 334.793 102.159 336.912L100.924 386.603C100.898 387.685 101.081 388.762 101.461 389.77C101.841 390.778 102.411 391.697 103.138 392.472C103.864 393.247 104.732 393.863 105.691 394.284C106.65 394.704 107.679 394.92 108.72 394.92H121.387C122.522 394.92 123.644 394.662 124.673 394.164C125.703 393.666 126.615 392.94 127.347 392.036C128.079 391.133 128.612 390.074 128.91 388.934C129.208 387.793 129.263 386.599 129.071 385.434L120.839 335.743C120.536 333.851 119.597 332.132 118.19 330.894C116.782 329.656 114.998 328.978 113.155 328.981L109.954 329.01Z" fill="black"/>
<path d="M126.073 349.334H18.815V352.783H126.073V349.334Z" fill="#263238"/>
<path opacity="0.5" d="M126.073 349.334H18.815V352.783H126.073V349.334Z" fill="white"/>
<path opacity="0.5" d="M43.9731 349.334H18.815V352.783H43.9731V349.334Z" fill="black"/>
<path d="M131.576 385.666H18.815V389.114H131.576V385.666Z" fill="#263238"/>
<path opacity="0.5" d="M131.576 385.666H18.815V389.114H131.576V385.666Z" fill="white"/>
<path opacity="0.5" d="M49.1606 385.666H18.815V389.114H49.1606V385.666Z" fill="black"/>
<path d="M97.5094 339.491L94.8739 334.729C94.5681 334.177 94.1286 333.719 93.5992 333.401C93.0699 333.082 92.4694 332.914 91.8579 332.913H81.288C80.6749 332.912 80.0725 333.079 79.5414 333.398C79.0103 333.717 78.5692 334.176 78.2627 334.729L75.6272 339.491C75.3217 340.042 75.1609 340.666 75.1609 341.302C75.1609 341.938 75.3217 342.563 75.6272 343.114L78.2627 347.876C78.5692 348.429 79.0103 348.887 79.5414 349.206C80.0725 349.525 80.6749 349.693 81.288 349.692H91.8208C92.4323 349.691 93.0328 349.523 93.5621 349.204C94.0915 348.885 94.531 348.427 94.8368 347.876L97.4723 343.114C97.7834 342.566 97.9506 341.943 97.9571 341.307C97.9636 340.672 97.8092 340.045 97.5094 339.491Z" fill="#8EC3B0"/>
<path opacity="0.1" d="M97.5094 339.491L94.8739 334.729C94.5681 334.177 94.1286 333.719 93.5992 333.401C93.0699 333.082 92.4694 332.914 91.8579 332.913H81.288C80.6749 332.912 80.0725 333.079 79.5414 333.398C79.0103 333.717 78.5692 334.176 78.2627 334.729L75.6272 339.491C75.3217 340.042 75.1609 340.666 75.1609 341.302C75.1609 341.938 75.3217 342.563 75.6272 343.114L78.2627 347.876C78.5692 348.429 79.0103 348.887 79.5414 349.206C80.0725 349.525 80.6749 349.693 81.288 349.692H91.8208C92.4323 349.691 93.0328 349.523 93.5621 349.204C94.0915 348.885 94.531 348.427 94.8368 347.876L97.4723 343.114C97.7834 342.566 97.9506 341.943 97.9571 341.307C97.9636 340.672 97.8092 340.045 97.5094 339.491Z" fill="black"/>
<path opacity="0.2" d="M91.8579 332.913H86.5776C85.966 332.914 85.3655 333.082 84.8362 333.401C84.3069 333.719 83.8673 334.177 83.5616 334.729L80.926 339.491C80.616 340.04 80.4525 340.665 80.4525 341.302C80.4525 341.939 80.616 342.565 80.926 343.114L83.5616 347.876C83.8673 348.427 84.3069 348.885 84.8362 349.204C85.3655 349.523 85.966 349.691 86.5776 349.692H91.8579C92.4694 349.691 93.0699 349.523 93.5992 349.204C94.1286 348.885 94.5681 348.427 94.8739 347.876L97.5094 343.114C97.8148 342.563 97.9756 341.938 97.9756 341.302C97.9756 340.666 97.8148 340.042 97.5094 339.491L94.8739 334.729C94.5681 334.177 94.1286 333.719 93.5992 333.401C93.0699 333.082 92.4694 332.914 91.8579 332.913Z" fill="black"/>
<path d="M112.144 341.307C112.144 343.568 106.984 345.403 100.628 345.403C94.2707 345.403 89.111 343.568 89.111 341.307C89.111 339.047 94.2707 337.202 100.628 337.202C106.984 337.202 112.144 339.066 112.144 341.307Z" fill="#8EC3B0"/>
<path opacity="0.1" d="M112.144 341.307C112.144 343.568 106.984 345.403 100.628 345.403C94.2707 345.403 89.111 343.568 89.111 341.307C89.111 339.047 94.2707 337.202 100.628 337.202C106.984 337.202 112.144 339.066 112.144 341.307Z" fill="black"/>
<path d="M126.816 339.491L124.18 334.729C123.874 334.177 123.435 333.719 122.905 333.401C122.376 333.082 121.776 332.914 121.164 332.913H110.622C110.011 332.914 109.41 333.082 108.881 333.401C108.351 333.719 107.912 334.177 107.606 334.729L104.971 339.491C104.665 340.042 104.504 340.666 104.504 341.302C104.504 341.938 104.665 342.563 104.971 343.114L107.606 347.876C107.912 348.427 108.351 348.885 108.881 349.204C109.41 349.523 110.011 349.691 110.622 349.692H121.192C121.803 349.691 122.404 349.523 122.933 349.204C123.463 348.885 123.902 348.427 124.208 347.876L126.843 343.114C127.145 342.56 127.301 341.934 127.296 341.298C127.291 340.663 127.125 340.039 126.816 339.491Z" fill="#8EC3B0"/>
<path opacity="0.1" d="M126.816 339.491L124.18 334.729C123.874 334.177 123.435 333.719 122.905 333.401C122.376 333.082 121.776 332.914 121.164 332.913H110.622C110.011 332.914 109.41 333.082 108.881 333.401C108.351 333.719 107.912 334.177 107.606 334.729L104.971 339.491C104.665 340.042 104.504 340.666 104.504 341.302C104.504 341.938 104.665 342.563 104.971 343.114L107.606 347.876C107.912 348.427 108.351 348.885 108.881 349.204C109.41 349.523 110.011 349.691 110.622 349.692H121.192C121.803 349.691 122.404 349.523 122.933 349.204C123.463 348.885 123.902 348.427 124.208 347.876L126.843 343.114C127.145 342.56 127.301 341.934 127.296 341.298C127.291 340.663 127.125 340.039 126.816 339.491Z" fill="black"/>
<path d="M121.192 332.913H115.912C115.3 332.914 114.7 333.082 114.17 333.401C113.641 333.719 113.201 334.177 112.896 334.729L110.251 339.491C109.945 340.042 109.785 340.666 109.785 341.302C109.785 341.938 109.945 342.563 110.251 343.114L112.896 347.876C113.201 348.427 113.641 348.885 114.17 349.204C114.7 349.523 115.3 349.691 115.912 349.692H121.192C121.803 349.691 122.404 349.523 122.933 349.204C123.463 348.885 123.902 348.427 124.208 347.876L126.843 343.114C127.149 342.563 127.31 341.938 127.31 341.302C127.31 340.666 127.149 340.042 126.843 339.491L124.208 334.729C123.902 334.177 123.463 333.719 122.933 333.401C122.404 333.082 121.803 332.914 121.192 332.913Z" fill="#8EC3B0"/>
<path d="M63.1827 341.529L61.0668 337.723C60.8223 337.282 60.4706 336.916 60.047 336.662C59.6235 336.408 59.143 336.274 58.654 336.274H50.2278C49.7372 336.272 49.2549 336.405 48.8295 336.66C48.4042 336.914 48.051 337.281 47.8057 337.723L45.6992 341.529C45.4548 341.97 45.3262 342.47 45.3262 342.978C45.3262 343.487 45.4548 343.987 45.6992 344.427L47.8057 348.233C48.0498 348.677 48.4025 349.046 48.8279 349.302C49.2533 349.559 49.7363 349.693 50.2278 349.692H58.654C59.1439 349.691 59.625 349.556 60.0487 349.3C60.4723 349.044 60.8235 348.676 61.0668 348.233L63.1827 344.427C63.427 343.987 63.5557 343.487 63.5557 342.978C63.5557 342.47 63.427 341.97 63.1827 341.529Z" fill="#8EC3B0"/>
<path opacity="0.1" d="M63.1827 341.529L61.0668 337.723C60.8223 337.282 60.4706 336.916 60.047 336.662C59.6235 336.408 59.143 336.274 58.654 336.274H50.2278C49.7372 336.272 49.2549 336.405 48.8295 336.66C48.4042 336.914 48.051 337.281 47.8057 337.723L45.6992 341.529C45.4548 341.97 45.3262 342.47 45.3262 342.978C45.3262 343.487 45.4548 343.987 45.6992 344.427L47.8057 348.233C48.0498 348.677 48.4025 349.046 48.8279 349.302C49.2533 349.559 49.7363 349.693 50.2278 349.692H58.654C59.1439 349.691 59.625 349.556 60.0487 349.3C60.4723 349.044 60.8235 348.676 61.0668 348.233L63.1827 344.427C63.427 343.987 63.5557 343.487 63.5557 342.978C63.5557 342.47 63.427 341.97 63.1827 341.529Z" fill="black"/>
<path opacity="0.2" d="M58.6541 336.274H54.4317C53.9427 336.274 53.4622 336.408 53.0386 336.662C52.6151 336.916 52.2634 337.282 52.0189 337.723L49.903 341.529C49.6587 341.97 49.53 342.47 49.53 342.978C49.53 343.487 49.6587 343.987 49.903 344.427L52.0189 348.233C52.2622 348.676 52.6134 349.044 53.037 349.3C53.4607 349.556 53.9417 349.691 54.4317 349.692H58.6541C59.144 349.691 59.625 349.556 60.0487 349.3C60.4723 349.044 60.8235 348.676 61.0669 348.233L63.1827 344.427C63.427 343.987 63.5557 343.487 63.5557 342.978C63.5557 342.47 63.427 341.97 63.1827 341.529L61.0669 337.723C60.8224 337.282 60.4706 336.916 60.0471 336.662C59.6235 336.408 59.1431 336.274 58.6541 336.274Z" fill="black"/>
<path d="M65.6698 346.263C70.7591 346.263 74.8848 344.792 74.8848 342.978C74.8848 341.164 70.7591 339.694 65.6698 339.694C60.5804 339.694 56.4547 341.164 56.4547 342.978C56.4547 344.792 60.5804 346.263 65.6698 346.263Z" fill="#8EC3B0"/>
<path opacity="0.1" d="M65.6698 346.263C70.7591 346.263 74.8848 344.792 74.8848 342.978C74.8848 341.164 70.7591 339.694 65.6698 339.694C60.5804 339.694 56.4547 341.164 56.4547 342.978C56.4547 344.792 60.5804 346.263 65.6698 346.263Z" fill="black"/>
<path d="M86.624 341.529L84.5081 337.723C84.2636 337.282 83.9119 336.916 83.4883 336.662C83.0648 336.408 82.5843 336.274 82.0953 336.274H73.6691C73.1801 336.274 72.6996 336.408 72.2761 336.662C71.8525 336.916 71.5008 337.282 71.2563 337.723L69.1404 341.529C68.8961 341.97 68.7675 342.47 68.7675 342.978C68.7675 343.487 68.8961 343.987 69.1404 344.427L71.2563 348.233C71.4996 348.676 71.8508 349.044 72.2745 349.3C72.6981 349.556 73.1792 349.691 73.6691 349.692H82.0953C82.5852 349.691 83.0663 349.556 83.4899 349.3C83.9136 349.044 84.2648 348.676 84.5081 348.233L86.624 344.427C86.8683 343.987 86.9969 343.487 86.9969 342.978C86.9969 342.47 86.8683 341.97 86.624 341.529Z" fill="#8EC3B0"/>
<path opacity="0.1" d="M86.624 341.529L84.5081 337.723C84.2636 337.282 83.9119 336.916 83.4883 336.662C83.0648 336.408 82.5843 336.274 82.0953 336.274H73.6691C73.1801 336.274 72.6996 336.408 72.2761 336.662C71.8525 336.916 71.5008 337.282 71.2563 337.723L69.1404 341.529C68.8961 341.97 68.7675 342.47 68.7675 342.978C68.7675 343.487 68.8961 343.987 69.1404 344.427L71.2563 348.233C71.4996 348.676 71.8508 349.044 72.2745 349.3C72.6981 349.556 73.1792 349.691 73.6691 349.692H82.0953C82.5852 349.691 83.0663 349.556 83.4899 349.3C83.9136 349.044 84.2648 348.676 84.5081 348.233L86.624 344.427C86.8683 343.987 86.9969 343.487 86.9969 342.978C86.9969 342.47 86.8683 341.97 86.624 341.529Z" fill="black"/>
<path d="M82.0953 336.274H77.8729C77.3839 336.274 76.9035 336.408 76.4799 336.662C76.0564 336.916 75.7046 337.282 75.4601 337.723L73.3536 341.529C73.1092 341.97 72.9806 342.47 72.9806 342.978C72.9806 343.487 73.1092 343.987 73.3536 344.427L75.4601 348.233C75.7035 348.676 76.0547 349.044 76.4783 349.3C76.902 349.556 77.383 349.691 77.8729 349.692H82.0953C82.5852 349.691 83.0663 349.556 83.49 349.3C83.9136 349.044 84.2648 348.676 84.5081 348.233L86.624 344.427C86.8683 343.987 86.997 343.487 86.997 342.978C86.997 342.47 86.8683 341.97 86.624 341.529L84.5081 337.723C84.2636 337.282 83.9119 336.916 83.4884 336.662C83.0648 336.408 82.5843 336.274 82.0953 336.274Z" fill="#8EC3B0"/>
<path d="M37.4864 343.162L35.816 340.119C35.6223 339.764 35.3416 339.468 35.0025 339.263C34.6634 339.058 34.278 338.95 33.8857 338.95H27.1299C26.7364 338.95 26.3499 339.058 26.0094 339.263C25.6688 339.468 25.3863 339.764 25.1904 340.119L23.5014 343.162C23.305 343.514 23.2016 343.914 23.2016 344.321C23.2016 344.728 23.305 345.128 23.5014 345.48L25.1904 348.523C25.3863 348.878 25.6688 349.173 26.0094 349.379C26.3499 349.584 26.7364 349.692 27.1299 349.692H33.8672C34.2626 349.696 34.6518 349.589 34.9945 349.384C35.3371 349.178 35.6208 348.881 35.816 348.523L37.505 345.48C37.6985 345.126 37.7988 344.725 37.7955 344.318C37.7923 343.911 37.6856 343.512 37.4864 343.162Z" fill="#8EC3B0"/>
<path opacity="0.1" d="M37.4864 343.162L35.816 340.119C35.6223 339.764 35.3416 339.468 35.0025 339.263C34.6634 339.058 34.278 338.95 33.8857 338.95H27.1299C26.7364 338.95 26.3499 339.058 26.0094 339.263C25.6688 339.468 25.3863 339.764 25.1904 340.119L23.5014 343.162C23.305 343.514 23.2016 343.914 23.2016 344.321C23.2016 344.728 23.305 345.128 23.5014 345.48L25.1904 348.523C25.3863 348.878 25.6688 349.173 26.0094 349.379C26.3499 349.584 26.7364 349.692 27.1299 349.692H33.8672C34.2626 349.696 34.6518 349.589 34.9945 349.384C35.3371 349.178 35.6208 348.881 35.816 348.523L37.505 345.48C37.6985 345.126 37.7988 344.725 37.7955 344.318C37.7923 343.911 37.6856 343.512 37.4864 343.162Z" fill="black"/>
<path opacity="0.2" d="M33.8672 338.95H30.4893C30.097 338.95 29.7116 339.058 29.3725 339.263C29.0334 339.468 28.7527 339.764 28.559 340.119L26.8701 343.162C26.6737 343.514 26.5703 343.914 26.5703 344.321C26.5703 344.728 26.6737 345.128 26.8701 345.48L28.559 348.523C28.7527 348.878 29.0334 349.174 29.3725 349.379C29.7116 349.584 30.097 349.692 30.4893 349.692H33.8672C34.2626 349.696 34.6518 349.589 34.9945 349.384C35.3371 349.178 35.6208 348.881 35.816 348.523L37.505 345.48C37.7014 345.128 37.8048 344.728 37.8048 344.321C37.8048 343.914 37.7014 343.514 37.505 343.162L35.816 340.119C35.6208 339.761 35.3371 339.464 34.9945 339.258C34.6518 339.053 34.2626 338.946 33.8672 338.95Z" fill="black"/>
<path d="M46.8499 344.321C46.8499 345.77 43.5462 346.949 39.4816 346.949C35.417 346.949 32.104 345.77 32.104 344.321C32.104 342.872 35.3984 341.694 39.4723 341.694C43.5462 341.694 46.8499 342.872 46.8499 344.321Z" fill="#8EC3B0"/>
<path opacity="0.1" d="M46.8499 344.321C46.8499 345.77 43.5462 346.949 39.4816 346.949C35.417 346.949 32.104 345.77 32.104 344.321C32.104 342.872 35.3984 341.694 39.4723 341.694C43.5462 341.694 46.8499 342.872 46.8499 344.321Z" fill="black"/>
<path d="M56.232 343.162L54.543 340.119C54.3493 339.764 54.0686 339.468 53.7295 339.263C53.3904 339.058 53.0051 338.95 52.6128 338.95H45.8848C45.4913 338.95 45.1048 339.058 44.7642 339.263C44.4237 339.468 44.1412 339.764 43.9453 340.119L42.2563 343.162C42.0599 343.514 41.9565 343.914 41.9565 344.321C41.9565 344.728 42.0599 345.128 42.2563 345.48L43.9453 348.523C44.1412 348.878 44.4237 349.173 44.7642 349.379C45.1048 349.584 45.4913 349.692 45.8848 349.692H52.6221C53.0144 349.692 53.3997 349.584 53.7388 349.379C54.0779 349.173 54.3586 348.878 54.5523 348.523L56.232 345.48C56.4284 345.128 56.5318 344.728 56.5318 344.321C56.5318 343.914 56.4284 343.514 56.232 343.162Z" fill="#8EC3B0"/>
<path opacity="0.1" d="M56.232 343.162L54.543 340.119C54.3493 339.764 54.0686 339.468 53.7295 339.263C53.3904 339.058 53.0051 338.95 52.6128 338.95H45.8848C45.4913 338.95 45.1048 339.058 44.7642 339.263C44.4237 339.468 44.1412 339.764 43.9453 340.119L42.2563 343.162C42.0599 343.514 41.9565 343.914 41.9565 344.321C41.9565 344.728 42.0599 345.128 42.2563 345.48L43.9453 348.523C44.1412 348.878 44.4237 349.173 44.7642 349.379C45.1048 349.584 45.4913 349.692 45.8848 349.692H52.6221C53.0144 349.692 53.3997 349.584 53.7388 349.379C54.0779 349.173 54.3586 348.878 54.5523 348.523L56.232 345.48C56.4284 345.128 56.5318 344.728 56.5318 344.321C56.5318 343.914 56.4284 343.514 56.232 343.162Z" fill="black"/>
<path d="M52.622 338.95H49.2441C48.8518 338.95 48.4665 339.058 48.1274 339.263C47.7883 339.468 47.5076 339.764 47.3139 340.119L45.6249 343.162C45.4285 343.514 45.3251 343.914 45.3251 344.321C45.3251 344.728 45.4285 345.128 45.6249 345.48L47.3139 348.523C47.5076 348.878 47.7883 349.173 48.1274 349.379C48.4665 349.584 48.8518 349.692 49.2441 349.692H52.622C53.0143 349.692 53.3997 349.584 53.7388 349.379C54.0779 349.173 54.3586 348.878 54.5523 348.523L56.2319 345.48C56.4283 345.128 56.5318 344.728 56.5318 344.321C56.5318 343.914 56.4283 343.514 56.2319 343.162L54.543 340.119C54.3501 339.765 54.0708 339.471 53.7335 339.265C53.3962 339.06 53.0128 338.951 52.622 338.95Z" fill="#8EC3B0"/>
<path d="M97.5094 375.851L94.8739 371.089C94.5677 370.539 94.1278 370.082 93.5984 369.765C93.069 369.448 92.4687 369.282 91.8579 369.283H81.288C80.6756 369.28 80.0734 369.446 79.5422 369.763C79.0111 370.08 78.5697 370.537 78.2627 371.089L75.6272 375.851C75.3218 376.404 75.1611 377.03 75.1611 377.667C75.1611 378.305 75.3218 378.931 75.6272 379.483L78.2627 384.236C78.5692 384.789 79.0103 385.248 79.5414 385.567C80.0725 385.885 80.6749 386.053 81.288 386.052H91.8208C92.4323 386.051 93.0328 385.883 93.5621 385.564C94.0915 385.245 94.531 384.787 94.8368 384.236L97.4723 379.483C97.7833 378.934 97.9504 378.31 97.9569 377.673C97.9634 377.035 97.8091 376.407 97.5094 375.851Z" fill="#8EC3B0"/>
<path opacity="0.1" d="M97.5094 375.851L94.8739 371.089C94.5677 370.539 94.1278 370.082 93.5984 369.765C93.069 369.448 92.4687 369.282 91.8579 369.283H81.288C80.6756 369.28 80.0734 369.446 79.5422 369.763C79.0111 370.08 78.5697 370.537 78.2627 371.089L75.6272 375.851C75.3218 376.404 75.1611 377.03 75.1611 377.667C75.1611 378.305 75.3218 378.931 75.6272 379.483L78.2627 384.236C78.5692 384.789 79.0103 385.248 79.5414 385.567C80.0725 385.885 80.6749 386.053 81.288 386.052H91.8208C92.4323 386.051 93.0328 385.883 93.5621 385.564C94.0915 385.245 94.531 384.787 94.8368 384.236L97.4723 379.483C97.7833 378.934 97.9504 378.31 97.9569 377.673C97.9634 377.035 97.8091 376.407 97.5094 375.851Z" fill="black"/>
<path opacity="0.2" d="M91.8579 369.282H86.5776C85.9668 369.282 85.3665 369.448 84.8371 369.765C84.3077 370.082 83.8678 370.539 83.5616 371.089L80.9261 375.851C80.6161 376.402 80.4528 377.029 80.4528 377.667C80.4528 378.306 80.6161 378.933 80.9261 379.483L83.5616 384.236C83.8673 384.787 84.3069 385.245 84.8362 385.564C85.3656 385.883 85.9661 386.051 86.5776 386.052H91.8579C92.4694 386.051 93.0699 385.883 93.5992 385.564C94.1286 385.245 94.5681 384.787 94.8739 384.236L97.5094 379.483C97.8148 378.931 97.9755 378.305 97.9755 377.667C97.9755 377.03 97.8148 376.404 97.5094 375.851L94.8739 371.089C94.5677 370.539 94.1278 370.082 93.5984 369.765C93.0689 369.448 92.4687 369.282 91.8579 369.282Z" fill="black"/>
<path d="M100.628 381.773C106.988 381.773 112.144 379.935 112.144 377.667C112.144 375.4 106.988 373.562 100.628 373.562C94.2671 373.562 89.111 375.4 89.111 377.667C89.111 379.935 94.2671 381.773 100.628 381.773Z" fill="#8EC3B0"/>
<path opacity="0.1" d="M100.628 381.773C106.988 381.773 112.144 379.935 112.144 377.667C112.144 375.4 106.988 373.562 100.628 373.562C94.2671 373.562 89.111 375.4 89.111 377.667C89.111 379.935 94.2671 381.773 100.628 381.773Z" fill="black"/>
<path d="M126.816 375.851L124.18 371.089C123.874 370.539 123.434 370.082 122.905 369.765C122.375 369.448 121.775 369.282 121.164 369.282H110.622C110.011 369.282 109.411 369.448 108.882 369.765C108.352 370.082 107.912 370.539 107.606 371.089L104.971 375.851C104.665 376.404 104.504 377.03 104.504 377.667C104.504 378.305 104.665 378.931 104.971 379.483L107.606 384.236C107.912 384.787 108.351 385.245 108.881 385.564C109.41 385.883 110.011 386.051 110.622 386.052H121.192C121.803 386.051 122.404 385.883 122.933 385.564C123.463 385.245 123.902 384.787 124.208 384.236L126.843 379.483C127.145 378.928 127.3 378.301 127.296 377.663C127.291 377.026 127.125 376.401 126.816 375.851Z" fill="#8EC3B0"/>
<path opacity="0.1" d="M126.816 375.851L124.18 371.089C123.874 370.539 123.434 370.082 122.905 369.765C122.375 369.448 121.775 369.282 121.164 369.282H110.622C110.011 369.282 109.411 369.448 108.882 369.765C108.352 370.082 107.912 370.539 107.606 371.089L104.971 375.851C104.665 376.404 104.504 377.03 104.504 377.667C104.504 378.305 104.665 378.931 104.971 379.483L107.606 384.236C107.912 384.787 108.351 385.245 108.881 385.564C109.41 385.883 110.011 386.051 110.622 386.052H121.192C121.803 386.051 122.404 385.883 122.933 385.564C123.463 385.245 123.902 384.787 124.208 384.236L126.843 379.483C127.145 378.928 127.3 378.301 127.296 377.663C127.291 377.026 127.125 376.401 126.816 375.851Z" fill="black"/>
<path d="M121.192 369.282H115.912C115.301 369.282 114.701 369.448 114.171 369.765C113.642 370.082 113.202 370.539 112.896 371.089L110.251 375.851C109.946 376.404 109.785 377.03 109.785 377.667C109.785 378.305 109.946 378.931 110.251 379.483L112.896 384.236C113.201 384.787 113.641 385.245 114.17 385.564C114.7 385.883 115.3 386.051 115.912 386.052H121.192C121.803 386.051 122.404 385.883 122.933 385.564C123.463 385.245 123.902 384.787 124.208 384.236L126.843 379.483C127.149 378.931 127.31 378.305 127.31 377.667C127.31 377.03 127.149 376.404 126.843 375.851L124.208 371.089C123.902 370.539 123.462 370.082 122.932 369.765C122.403 369.448 121.803 369.282 121.192 369.282Z" fill="#8EC3B0"/>
<path d="M63.1827 377.89L61.0668 374.084C60.8223 373.643 60.4706 373.277 60.047 373.022C59.6235 372.768 59.143 372.634 58.654 372.635H50.2278C49.7372 372.633 49.2549 372.765 48.8295 373.02C48.4042 373.274 48.051 373.641 47.8057 374.084L45.6992 377.89C45.4548 378.33 45.3262 378.83 45.3262 379.339C45.3262 379.847 45.4548 380.347 45.6992 380.788L47.8057 384.584C48.0498 385.028 48.4025 385.397 48.8279 385.653C49.2533 385.909 49.7363 386.044 50.2278 386.043H58.654C59.1439 386.042 59.625 385.907 60.0487 385.651C60.4723 385.395 60.8235 385.027 61.0668 384.584L63.1827 380.788C63.427 380.347 63.5557 379.847 63.5557 379.339C63.5557 378.83 63.427 378.33 63.1827 377.89Z" fill="#8EC3B0"/>
<path opacity="0.1" d="M63.1827 377.89L61.0668 374.084C60.8223 373.643 60.4706 373.277 60.047 373.022C59.6235 372.768 59.143 372.634 58.654 372.635H50.2278C49.7372 372.633 49.2549 372.765 48.8295 373.02C48.4042 373.274 48.051 373.641 47.8057 374.084L45.6992 377.89C45.4548 378.33 45.3262 378.83 45.3262 379.339C45.3262 379.847 45.4548 380.347 45.6992 380.788L47.8057 384.584C48.0498 385.028 48.4025 385.397 48.8279 385.653C49.2533 385.909 49.7363 386.044 50.2278 386.043H58.654C59.1439 386.042 59.625 385.907 60.0487 385.651C60.4723 385.395 60.8235 385.027 61.0668 384.584L63.1827 380.788C63.427 380.347 63.5557 379.847 63.5557 379.339C63.5557 378.83 63.427 378.33 63.1827 377.89Z" fill="black"/>
<path opacity="0.2" d="M58.6541 372.635H54.4317C53.9427 372.634 53.4622 372.768 53.0386 373.022C52.6151 373.277 52.2634 373.643 52.0189 374.084L49.903 377.89C49.6587 378.33 49.53 378.83 49.53 379.339C49.53 379.847 49.6587 380.347 49.903 380.788L52.0189 384.584C52.2622 385.027 52.6134 385.395 53.037 385.651C53.4607 385.907 53.9417 386.042 54.4317 386.043H58.6541C59.144 386.042 59.625 385.907 60.0487 385.651C60.4723 385.395 60.8235 385.027 61.0669 384.584L63.1827 380.788C63.427 380.347 63.5557 379.847 63.5557 379.339C63.5557 378.83 63.427 378.33 63.1827 377.89L61.0669 374.084C60.8224 373.643 60.4706 373.277 60.0471 373.022C59.6235 372.768 59.1431 372.634 58.6541 372.635Z" fill="black"/>
<path d="M74.8848 379.339C74.8848 381.155 70.7552 382.623 65.6698 382.623C60.5843 382.623 56.4547 381.155 56.4547 379.339C56.4547 377.523 60.5843 376.054 65.6698 376.054C70.7552 376.054 74.8848 377.532 74.8848 379.339Z" fill="#8EC3B0"/>
<path opacity="0.1" d="M74.8848 379.339C74.8848 381.155 70.7552 382.623 65.6698 382.623C60.5843 382.623 56.4547 381.155 56.4547 379.339C56.4547 377.523 60.5843 376.054 65.6698 376.054C70.7552 376.054 74.8848 377.532 74.8848 379.339Z" fill="black"/>
<path d="M86.624 377.89L84.5081 374.084C84.2636 373.643 83.9119 373.277 83.4883 373.022C83.0648 372.768 82.5843 372.634 82.0953 372.635H73.6691C73.1801 372.634 72.6996 372.768 72.2761 373.022C71.8525 373.277 71.5008 373.643 71.2563 374.084L69.1404 377.89C68.8961 378.33 68.7675 378.83 68.7675 379.339C68.7675 379.847 68.8961 380.347 69.1404 380.788L71.2563 384.584C71.4996 385.027 71.8508 385.395 72.2745 385.651C72.6981 385.907 73.1792 386.042 73.6691 386.043H82.0953C82.5852 386.042 83.0663 385.907 83.4899 385.651C83.9136 385.395 84.2648 385.027 84.5081 384.584L86.624 380.788C86.8683 380.347 86.9969 379.847 86.9969 379.339C86.9969 378.83 86.8683 378.33 86.624 377.89Z" fill="#8EC3B0"/>
<path opacity="0.1" d="M86.624 377.89L84.5081 374.084C84.2636 373.643 83.9119 373.277 83.4883 373.022C83.0648 372.768 82.5843 372.634 82.0953 372.635H73.6691C73.1801 372.634 72.6996 372.768 72.2761 373.022C71.8525 373.277 71.5008 373.643 71.2563 374.084L69.1404 377.89C68.8961 378.33 68.7675 378.83 68.7675 379.339C68.7675 379.847 68.8961 380.347 69.1404 380.788L71.2563 384.584C71.4996 385.027 71.8508 385.395 72.2745 385.651C72.6981 385.907 73.1792 386.042 73.6691 386.043H82.0953C82.5852 386.042 83.0663 385.907 83.4899 385.651C83.9136 385.395 84.2648 385.027 84.5081 384.584L86.624 380.788C86.8683 380.347 86.9969 379.847 86.9969 379.339C86.9969 378.83 86.8683 378.33 86.624 377.89Z" fill="black"/>
<path d="M82.0953 372.635H77.8729C77.3839 372.634 76.9035 372.768 76.4799 373.022C76.0564 373.277 75.7046 373.643 75.4601 374.084L73.3536 377.89C73.1092 378.33 72.9806 378.83 72.9806 379.339C72.9806 379.847 73.1092 380.347 73.3536 380.788L75.4601 384.584C75.7035 385.027 76.0547 385.395 76.4783 385.651C76.902 385.907 77.383 386.042 77.8729 386.043H82.0953C82.5852 386.042 83.0663 385.907 83.49 385.651C83.9136 385.395 84.2648 385.027 84.5081 384.584L86.624 380.788C86.8683 380.347 86.997 379.847 86.997 379.339C86.997 378.83 86.8683 378.33 86.624 377.89L84.5081 374.084C84.2636 373.643 83.9119 373.277 83.4884 373.022C83.0648 372.768 82.5843 372.634 82.0953 372.635Z" fill="#8EC3B0"/>
<path d="M37.4864 379.522L35.816 376.479C35.6211 376.126 35.3399 375.832 35.0009 375.629C34.6619 375.425 34.2771 375.319 33.8857 375.32H27.1299C26.7371 375.318 26.3509 375.424 26.0102 375.628C25.6696 375.831 25.3868 376.125 25.1904 376.479L23.5014 379.522C23.305 379.874 23.2016 380.274 23.2016 380.681C23.2016 381.088 23.305 381.488 23.5014 381.84L25.1904 384.893C25.3882 385.246 25.6714 385.538 26.0117 385.742C26.352 385.945 26.7375 386.052 27.1299 386.052H33.8672C34.2582 386.051 34.6422 385.944 34.9809 385.741C35.3196 385.537 35.6011 385.245 35.7974 384.893L37.4864 381.84C37.6828 381.488 37.7862 381.088 37.7862 380.681C37.7862 380.274 37.6828 379.874 37.4864 379.522Z" fill="#8EC3B0"/>
<path opacity="0.1" d="M37.4864 379.522L35.816 376.479C35.6211 376.126 35.3399 375.832 35.0009 375.629C34.6619 375.425 34.2771 375.319 33.8857 375.32H27.1299C26.7371 375.318 26.3509 375.424 26.0102 375.628C25.6696 375.831 25.3868 376.125 25.1904 376.479L23.5014 379.522C23.305 379.874 23.2016 380.274 23.2016 380.681C23.2016 381.088 23.305 381.488 23.5014 381.84L25.1904 384.893C25.3882 385.246 25.6714 385.538 26.0117 385.742C26.352 385.945 26.7375 386.052 27.1299 386.052H33.8672C34.2582 386.051 34.6422 385.944 34.9809 385.741C35.3196 385.537 35.6011 385.245 35.7974 384.893L37.4864 381.84C37.6828 381.488 37.7862 381.088 37.7862 380.681C37.7862 380.274 37.6828 379.874 37.4864 379.522Z" fill="black"/>
<path opacity="0.2" d="M33.8672 375.32H30.4893C30.0979 375.319 29.7132 375.425 29.3742 375.629C29.0351 375.832 28.7539 376.126 28.559 376.479L26.8701 379.522C26.6737 379.874 26.5703 380.274 26.5703 380.681C26.5703 381.088 26.6737 381.488 26.8701 381.84L28.559 384.893C28.7554 385.245 29.0369 385.537 29.3756 385.741C29.7143 385.944 30.0983 386.052 30.4893 386.052H33.8672C34.2582 386.052 34.6422 385.944 34.9809 385.741C35.3196 385.537 35.6011 385.245 35.7974 384.893L37.4864 381.84C37.6828 381.488 37.7862 381.088 37.7862 380.681C37.7862 380.274 37.6828 379.874 37.4864 379.522L35.816 376.479C35.6196 376.123 35.3354 375.828 34.9929 375.624C34.6503 375.42 34.2617 375.315 33.8672 375.32Z" fill="black"/>
<path d="M46.8499 380.681C46.8499 382.13 43.5462 383.309 39.4816 383.309C35.417 383.309 32.104 382.13 32.104 380.681C32.104 379.232 35.3984 378.054 39.4723 378.054C43.5462 378.054 46.8499 379.232 46.8499 380.681Z" fill="#8EC3B0"/>
<path opacity="0.1" d="M46.8499 380.681C46.8499 382.13 43.5462 383.309 39.4816 383.309C35.417 383.309 32.104 382.13 32.104 380.681C32.104 379.232 35.3984 378.054 39.4723 378.054C43.5462 378.054 46.8499 379.232 46.8499 380.681Z" fill="black"/>
<path d="M56.232 379.522L54.543 376.479C54.3482 376.126 54.0669 375.832 53.7279 375.629C53.3889 375.425 53.0042 375.319 52.6128 375.32H45.8848C45.492 375.318 45.1057 375.424 44.7651 375.628C44.4245 375.831 44.1417 376.125 43.9453 376.479L42.2563 379.522C42.0599 379.874 41.9565 380.274 41.9565 380.681C41.9565 381.088 42.0599 381.488 42.2563 381.84L43.9453 384.893C44.1431 385.246 44.4263 385.538 44.7666 385.742C45.1068 385.945 45.4924 386.052 45.8848 386.052H52.6221C53.0131 386.051 53.3971 385.944 53.7358 385.741C54.0745 385.537 54.356 385.245 54.5523 384.893L56.232 381.84C56.4284 381.488 56.5318 381.088 56.5318 380.681C56.5318 380.274 56.4284 379.874 56.232 379.522Z" fill="#8EC3B0"/>
<path opacity="0.1" d="M56.232 379.522L54.543 376.479C54.3482 376.126 54.0669 375.832 53.7279 375.629C53.3889 375.425 53.0042 375.319 52.6128 375.32H45.8848C45.492 375.318 45.1057 375.424 44.7651 375.628C44.4245 375.831 44.1417 376.125 43.9453 376.479L42.2563 379.522C42.0599 379.874 41.9565 380.274 41.9565 380.681C41.9565 381.088 42.0599 381.488 42.2563 381.84L43.9453 384.893C44.1431 385.246 44.4263 385.538 44.7666 385.742C45.1068 385.945 45.4924 386.052 45.8848 386.052H52.6221C53.0131 386.051 53.3971 385.944 53.7358 385.741C54.0745 385.537 54.356 385.245 54.5523 384.893L56.232 381.84C56.4284 381.488 56.5318 381.088 56.5318 380.681C56.5318 380.274 56.4284 379.874 56.232 379.522Z" fill="black"/>
<path d="M52.622 375.32H49.2441C48.8527 375.319 48.468 375.425 48.129 375.629C47.79 375.833 47.5087 376.126 47.3139 376.479L45.6249 379.522C45.4285 379.874 45.3251 380.274 45.3251 380.681C45.3251 381.089 45.4285 381.488 45.6249 381.841L47.3139 384.893C47.5102 385.245 47.7917 385.537 48.1304 385.741C48.4691 385.944 48.8531 386.052 49.2441 386.052H52.622C53.013 386.052 53.397 385.944 53.7357 385.741C54.0744 385.537 54.356 385.245 54.5523 384.893L56.2319 381.841C56.4283 381.488 56.5318 381.089 56.5318 380.681C56.5318 380.274 56.4283 379.874 56.2319 379.522L54.543 376.479C54.3489 376.127 54.0691 375.835 53.7319 375.631C53.3947 375.428 53.0118 375.321 52.622 375.32Z" fill="#8EC3B0"/>
<path d="M39.927 397.915H27.2598C25.8366 397.913 24.4281 397.614 23.1171 397.038C21.8061 396.461 20.6191 395.617 19.6257 394.556C18.6324 393.495 17.8527 392.238 17.3326 390.859C16.8126 389.48 16.5625 388.007 16.5971 386.526L17.8313 336.834C17.8897 333.936 19.0403 331.177 21.035 329.153C23.0297 327.129 25.7086 326.002 28.4941 326.015H31.6957C34.2078 326.009 36.6413 326.927 38.5655 328.609C40.4897 330.29 41.7806 332.625 42.2099 335.202L50.4413 384.893C50.7048 386.488 50.6306 388.123 50.2237 389.684C49.8169 391.246 49.0872 392.696 48.0858 393.934C47.0844 395.171 45.8354 396.166 44.4261 396.849C43.0169 397.531 41.4814 397.885 39.927 397.886V397.915ZM28.4941 329.01C26.4589 328.997 24.5006 329.819 23.0434 331.298C21.5861 332.777 20.7471 334.794 20.7081 336.912L19.4739 386.603C19.4466 387.685 19.6279 388.762 20.0069 389.77C20.386 390.778 20.9552 391.696 21.6809 392.472C22.4066 393.247 23.2742 393.863 24.2323 394.283C25.1905 394.704 26.2199 394.92 27.2598 394.92H39.927C41.0623 394.92 42.1839 394.662 43.2134 394.164C44.2429 393.666 45.1555 392.94 45.8873 392.036C46.6192 391.133 47.1526 390.074 47.4503 388.933C47.748 387.793 47.8028 386.599 47.6109 385.434L39.3795 335.743C39.076 333.851 38.137 332.132 36.7297 330.894C35.3224 329.656 33.5384 328.978 31.6957 328.981L28.4941 329.01Z" fill="black"/>
<path d="M130.723 226.943C130.673 226.941 130.625 226.929 130.58 226.908C130.535 226.886 130.495 226.855 130.463 226.817C124.459 219.62 120.719 209.265 120.199 198.388C120.212 198.302 120.255 198.224 120.319 198.167C120.382 198.111 120.463 198.08 120.547 198.08C120.631 198.08 120.712 198.111 120.775 198.167C120.839 198.224 120.881 198.302 120.895 198.388C121.405 209.091 125.09 219.292 130.982 226.402C131.046 226.47 131.082 226.562 131.082 226.658C131.082 226.753 131.046 226.845 130.982 226.914C130.902 226.957 130.809 226.968 130.723 226.943Z" fill="#8EC3B0"/>
<path d="M120.505 196.001C120.412 195.999 120.324 195.959 120.258 195.891C120.193 195.823 120.155 195.731 120.153 195.634C120.153 194.224 120.153 193.413 120.264 192.002C120.273 191.908 120.317 191.822 120.386 191.76C120.455 191.699 120.545 191.668 120.635 191.674C120.681 191.676 120.726 191.688 120.768 191.709C120.809 191.73 120.846 191.759 120.876 191.795C120.906 191.831 120.929 191.873 120.944 191.919C120.958 191.964 120.964 192.012 120.96 192.06C120.867 193.461 120.839 194.224 120.849 195.634C120.85 195.682 120.842 195.73 120.825 195.774C120.808 195.819 120.783 195.859 120.751 195.893C120.719 195.928 120.681 195.955 120.639 195.973C120.597 195.992 120.551 196.001 120.505 196.001Z" fill="#8EC3B0"/>
<path d="M120.914 189.413C120.821 189.399 120.738 189.347 120.683 189.269C120.627 189.192 120.603 189.094 120.617 188.998C120.858 187.18 121.196 185.377 121.628 183.598C121.66 183.515 121.72 183.446 121.796 183.406C121.873 183.365 121.962 183.355 122.045 183.378C122.128 183.4 122.201 183.454 122.249 183.528C122.297 183.603 122.317 183.693 122.306 183.781C121.875 185.535 121.541 187.312 121.303 189.104C121.298 189.151 121.283 189.197 121.26 189.238C121.237 189.279 121.207 189.315 121.171 189.344C121.134 189.373 121.093 189.394 121.049 189.405C121.005 189.417 120.959 189.42 120.914 189.413Z" fill="#8EC3B0"/>
<path d="M141.033 231.695C140.96 231.692 140.889 231.669 140.828 231.628C130.073 223.687 123.475 207.806 124.412 192.089C124.415 192.042 124.427 191.996 124.447 191.954C124.467 191.912 124.495 191.874 124.529 191.844C124.563 191.813 124.603 191.789 124.646 191.774C124.688 191.759 124.734 191.753 124.779 191.756C124.824 191.759 124.868 191.771 124.908 191.792C124.949 191.813 124.985 191.842 125.015 191.878C125.044 191.913 125.067 191.954 125.082 191.999C125.096 192.043 125.102 192.091 125.099 192.138C124.171 207.594 130.667 223.243 141.237 231.038C141.274 231.065 141.306 231.1 141.331 231.14C141.355 231.18 141.372 231.225 141.38 231.271C141.387 231.318 141.386 231.366 141.376 231.412C141.366 231.458 141.347 231.502 141.32 231.541C141.287 231.587 141.243 231.626 141.193 231.652C141.144 231.679 141.089 231.694 141.033 231.695Z" fill="#8EC3B0"/>
<path d="M228.905 166.007C228.853 166.007 228.802 165.995 228.755 165.972C228.709 165.948 228.668 165.914 228.636 165.872C226.381 162.986 223.619 160.573 220.497 158.762C220.45 158.744 220.406 158.715 220.37 158.678C220.334 158.641 220.307 158.596 220.289 158.547C220.271 158.497 220.264 158.445 220.267 158.392C220.271 158.339 220.285 158.288 220.309 158.242C220.334 158.196 220.367 158.155 220.408 158.124C220.448 158.092 220.495 158.07 220.544 158.059C220.594 158.048 220.645 158.048 220.695 158.059C220.744 158.07 220.791 158.093 220.831 158.125C224.034 159.978 226.869 162.45 229.183 165.408C229.225 165.462 229.252 165.527 229.26 165.595C229.268 165.664 229.257 165.733 229.229 165.796C229.201 165.858 229.157 165.911 229.101 165.949C229.045 165.986 228.98 166.006 228.914 166.007H228.905Z" fill="#8EC3B0"/>
<path d="M238.946 194.523C238.856 194.523 238.769 194.487 238.703 194.423C238.637 194.358 238.598 194.27 238.593 194.176C238.274 184.89 235.422 175.89 230.371 168.229C230.345 168.19 230.326 168.147 230.315 168.1C230.305 168.054 230.304 168.006 230.312 167.959C230.32 167.913 230.336 167.868 230.361 167.828C230.385 167.788 230.417 167.753 230.455 167.726C230.492 167.699 230.535 167.679 230.58 167.668C230.625 167.657 230.672 167.656 230.718 167.664C230.764 167.672 230.807 167.689 230.847 167.715C230.886 167.741 230.92 167.774 230.947 167.813C236.07 175.591 238.966 184.723 239.299 194.147C239.301 194.241 239.269 194.332 239.209 194.403C239.148 194.473 239.064 194.516 238.974 194.523H238.946Z" fill="#8EC3B0"/>
<path d="M223.866 167.041C223.821 167.042 223.776 167.033 223.734 167.015C223.692 166.997 223.655 166.969 223.625 166.934C220.16 163.079 215.668 160.388 210.725 159.206C210.643 159.179 210.573 159.12 210.53 159.042C210.486 158.965 210.472 158.873 210.489 158.784C210.506 158.696 210.554 158.617 210.623 158.563C210.692 158.509 210.778 158.484 210.865 158.492C215.941 159.705 220.555 162.466 224.116 166.422C224.18 166.491 224.216 166.583 224.216 166.678C224.216 166.774 224.18 166.866 224.116 166.934C224.049 167.002 223.959 167.04 223.866 167.041Z" fill="#8EC3B0"/>
<path d="M228.209 172.624C228.15 172.623 228.093 172.608 228.042 172.579C227.99 172.551 227.946 172.51 227.912 172.46C227.193 171.337 226.419 170.253 225.592 169.214C225.555 169.179 225.525 169.135 225.506 169.087C225.486 169.039 225.476 168.987 225.478 168.934C225.479 168.882 225.491 168.83 225.513 168.783C225.535 168.736 225.567 168.694 225.605 168.661C225.644 168.628 225.69 168.603 225.738 168.589C225.787 168.576 225.838 168.573 225.887 168.582C225.937 168.59 225.985 168.609 226.026 168.639C226.068 168.668 226.104 168.706 226.13 168.751C226.972 169.813 227.762 170.919 228.497 172.064C228.546 172.145 228.563 172.243 228.544 172.337C228.525 172.431 228.471 172.513 228.394 172.566C228.339 172.604 228.275 172.624 228.209 172.624Z" fill="#8EC3B0"/>
<path d="M234.408 188.022C234.329 188.022 234.252 187.995 234.19 187.944C234.127 187.893 234.083 187.822 234.065 187.742C233.136 183.281 231.572 178.99 229.425 175.01C229.379 174.927 229.367 174.828 229.392 174.736C229.416 174.643 229.475 174.565 229.555 174.518C229.634 174.47 229.729 174.458 229.818 174.483C229.907 174.508 229.982 174.569 230.028 174.653C232.218 178.695 233.816 183.054 234.77 187.587C234.787 187.681 234.768 187.777 234.718 187.856C234.667 187.936 234.59 187.992 234.501 188.013L234.408 188.022Z" fill="#8EC3B0"/>
<path d="M139.919 167.592L137.748 163.254C137.524 162.765 137.173 162.352 136.735 162.06C136.298 161.768 135.79 161.609 135.27 161.602H126.602C126.081 161.607 125.571 161.765 125.131 162.057C124.692 162.349 124.339 162.764 124.115 163.254L121.944 167.572C121.692 168.082 121.561 168.646 121.561 169.219C121.561 169.792 121.692 170.357 121.944 170.866L124.115 175.184C124.339 175.674 124.692 176.089 125.131 176.381C125.571 176.673 126.081 176.831 126.602 176.836H135.27C135.79 176.829 136.298 176.671 136.735 176.379C137.173 176.087 137.524 175.673 137.748 175.184L139.919 170.866C140.172 170.361 140.304 169.799 140.304 169.229C140.304 168.659 140.172 168.097 139.919 167.592Z" fill="#8EC3B0"/>
<path opacity="0.2" d="M139.919 167.592L137.748 163.254C137.524 162.765 137.173 162.352 136.735 162.06C136.298 161.768 135.79 161.609 135.27 161.602H126.602C126.081 161.607 125.571 161.765 125.131 162.057C124.692 162.349 124.339 162.764 124.115 163.254L121.944 167.572C121.692 168.082 121.561 168.646 121.561 169.219C121.561 169.792 121.692 170.357 121.944 170.866L124.115 175.184C124.339 175.674 124.692 176.089 125.131 176.381C125.571 176.673 126.081 176.831 126.602 176.836H135.27C135.79 176.829 136.298 176.671 136.735 176.379C137.173 176.087 137.524 175.673 137.748 175.184L139.919 170.866C140.172 170.361 140.304 169.799 140.304 169.229C140.304 168.659 140.172 168.097 139.919 167.592Z" fill="black"/>
<path d="M135.112 161.622H131.112C130.561 161.621 130.02 161.779 129.548 162.077C129.077 162.375 128.693 162.802 128.44 163.312L126.194 167.785C125.967 168.231 125.849 168.729 125.849 169.234C125.849 169.739 125.967 170.236 126.194 170.683L128.44 175.165C128.695 175.672 129.08 176.097 129.551 176.393C130.022 176.69 130.562 176.846 131.112 176.846H135.112C135.661 176.844 136.199 176.687 136.668 176.391C137.138 176.095 137.52 175.671 137.775 175.165L140.03 170.683C140.253 170.235 140.369 169.738 140.369 169.234C140.369 168.73 140.253 168.233 140.03 167.785L137.775 163.312C137.522 162.804 137.14 162.377 136.671 162.079C136.201 161.781 135.662 161.623 135.112 161.622Z" fill="#8EC3B0"/>
<path d="M151.955 169.243C151.955 171.301 147.714 172.972 142.48 172.972C137.246 172.972 133.005 171.301 133.005 169.243C133.005 167.186 137.256 165.514 142.48 165.514C147.705 165.514 151.955 167.186 151.955 169.243Z" fill="#8EC3B0"/>
<path opacity="0.2" d="M151.955 169.243C151.955 171.301 147.714 172.972 142.48 172.972C137.246 172.972 133.005 171.301 133.005 169.243C133.005 167.186 137.256 165.514 142.48 165.514C147.705 165.514 151.955 167.186 151.955 169.243Z" fill="black"/>
<path d="M230.111 205.372L230.974 200.542C231.078 199.992 231.038 199.423 230.859 198.894C230.679 198.366 230.367 197.897 229.954 197.538L222.901 191.51C222.481 191.161 221.979 190.936 221.447 190.856C220.916 190.776 220.373 190.845 219.875 191.056L215.477 192.891C214.963 193.104 214.509 193.448 214.157 193.892C213.805 194.336 213.566 194.866 213.463 195.432L212.6 200.262C212.495 200.812 212.535 201.381 212.714 201.91C212.894 202.438 213.207 202.907 213.621 203.266L220.674 209.294C221.092 209.646 221.594 209.874 222.126 209.954C222.659 210.034 223.202 209.963 223.699 209.748L228.098 207.922C228.612 207.707 229.066 207.361 229.418 206.915C229.77 206.469 230.008 205.939 230.111 205.372Z" fill="#8EC3B0"/>
<path opacity="0.2" d="M230.111 205.372L230.974 200.542C231.078 199.992 231.038 199.423 230.859 198.894C230.679 198.366 230.367 197.897 229.954 197.538L222.901 191.51C222.481 191.161 221.979 190.936 221.447 190.856C220.916 190.776 220.373 190.845 219.875 191.056L215.477 192.891C214.963 193.104 214.509 193.448 214.157 193.892C213.805 194.336 213.566 194.866 213.463 195.432L212.6 200.262C212.495 200.812 212.535 201.381 212.714 201.91C212.894 202.438 213.207 202.907 213.621 203.266L220.674 209.294C221.092 209.646 221.594 209.874 222.126 209.954C222.659 210.034 223.202 209.963 223.699 209.748L228.098 207.922C228.612 207.707 229.066 207.361 229.418 206.915C229.77 206.469 230.008 205.939 230.111 205.372Z" fill="black"/>
<path d="M229.898 197.47L226.492 194.572C226.064 194.204 225.548 193.964 224.999 193.875C224.451 193.787 223.889 193.854 223.374 194.07L218.901 195.924C218.424 196.133 218.005 196.463 217.681 196.883C217.357 197.303 217.138 197.8 217.045 198.33L216.164 203.266C216.063 203.831 216.109 204.415 216.299 204.955C216.488 205.495 216.813 205.973 217.24 206.338L220.646 209.236C221.074 209.601 221.588 209.84 222.134 209.928C222.681 210.016 223.24 209.951 223.755 209.738L228.237 207.883C228.714 207.674 229.133 207.345 229.457 206.925C229.781 206.505 229.999 206.008 230.093 205.478L230.974 200.542C231.073 199.976 231.025 199.394 230.836 198.854C230.647 198.314 230.323 197.836 229.898 197.47Z" fill="#8EC3B0"/>
<path d="M189.864 176.44C189.864 176.44 199.998 175.117 202.318 187.066C203.596 193.59 204.304 200.221 204.434 206.879C206.85 207.019 209.254 207.342 211.626 207.845C214.465 208.347 216.173 209.033 222.715 210.308C222.715 210.308 226.297 204.966 228.088 203.865C229.016 203.266 231.485 202.599 232.533 203.053C233.461 203.43 235.893 204.763 236.125 205.739C236.301 206.473 234.584 209.844 234.584 209.844C234.584 209.844 227.374 214.365 225.657 214.752C220.043 216.046 216.293 216.51 206.716 217.398C194.216 218.558 195.321 213.119 193.483 207.12C191.646 201.121 185.966 174.112 189.864 176.44Z" fill="#FFA8A7"/>
<path d="M185.53 175.329C185.499 175.325 185.467 175.329 185.439 175.343C185.41 175.356 185.385 175.378 185.368 175.405C185.35 175.432 185.341 175.464 185.34 175.497C185.339 175.529 185.347 175.562 185.363 175.59C186.189 177.078 189.335 183.453 181.772 183.463C174.209 183.473 170.497 176.875 169.838 175.522C169.801 175.45 169.748 175.387 169.684 175.34C169.619 175.293 169.545 175.263 169.467 175.252C167.796 175.049 158.739 174.286 158.386 181.251C158.006 188.979 165.736 200.078 167.156 224.441C172.592 227.511 178.774 228.855 184.936 228.305C194.977 227.339 199.098 223.9 199.098 223.9C199.107 218.382 199.485 212.873 200.23 207.41C202.281 192.089 201.381 187.124 190.551 175.938L185.53 175.329Z" fill="#263238"/>
<path d="M206.215 385.173C206.828 387.729 206.932 390.389 206.522 392.988C205.751 396.466 205.928 399.818 207.719 399.856C213.602 399.992 212.711 398.601 216.999 398.89C221.286 399.18 227.383 399.528 227.921 398.002C228.719 395.703 221.091 394.737 218.298 392.776C214.484 390.109 213.899 382.343 213.899 382.343L206.215 385.173Z" fill="#FFA8A7"/>
<path d="M214.577 386.487L206.624 387.511C203.645 377.098 197.019 353.701 194.866 343.539C193.91 338.825 193.213 334.058 192.778 329.261C191.933 320.567 192.546 317.264 191.85 313.371C191.089 309.149 187.59 301.344 186.022 297.393C184.677 294.022 182.208 287.26 180.046 281.241C179.934 280.952 179.832 280.662 179.73 280.382C177.605 274.499 175.842 269.533 175.842 269.533C161.152 256.241 166.228 236.071 168.826 228.585C169.068 227.889 169.29 227.31 169.476 226.846C169.773 226.073 169.968 225.648 169.968 225.648L175.925 225.339L182.821 224.972L187.572 224.721L195.144 224.325L198.652 224.141L198.764 225.629L198.977 228.527L200.388 247.354L208.628 310.917L214.577 386.487Z" fill="#8EC3B0"/>
<path opacity="0.2" d="M184.584 245.683H174.524L170.376 263.023C171.875 265.453 173.704 267.646 175.805 269.533C175.805 269.533 180.009 281.406 183.229 290.215C185.224 276.547 184.584 245.683 184.584 245.683Z" fill="black"/>
<path d="M145.654 382.391C145.565 385.559 144.936 388.686 143.798 391.626C142.007 395.77 140.968 397.915 145.654 398.243C150.34 398.572 151.63 398.514 155.806 399.499C159.982 400.484 165.485 399.721 165.17 398.002C164.854 396.282 159.695 397.036 156.317 393.172C152.939 389.308 152.605 385.801 153.227 383.83L145.654 382.391Z" fill="#FFA8A7"/>
<path d="M188.212 225.31C188.212 225.368 188.212 225.629 188.138 226.063C188.082 226.662 187.999 227.59 187.887 228.749C187.813 229.551 187.73 230.468 187.628 231.483C186.913 238.824 185.725 250.716 184.983 255.739C184.055 262.163 182.301 270.934 180.092 280.922C180.092 281.019 180.046 281.116 180.027 281.222C170.692 323.272 153.227 386.516 153.227 386.516L145.162 385.231C145.932 374.393 147.77 350.049 149.227 339.829C149.944 335.144 150.92 330.506 152.15 325.938C154.322 317.698 156.02 315.003 156.688 311.149C157.412 306.966 156.827 298.233 156.688 293.915C156.502 286.38 156.744 263.853 156.744 263.853C156.855 246.977 164.938 228.99 166.766 225.146C166.998 224.653 167.128 224.392 167.128 224.392C167.128 224.392 180.018 224.962 182.774 224.923L188.212 225.31Z" fill="#8EC3B0"/>
<path opacity="0.2" d="M198.764 225.629C197.418 227.754 191.516 228.353 187.887 228.758C181.682 229.516 175.393 228.856 169.457 226.826C169.095 226.701 168.724 226.556 168.353 226.411C168.149 226.334 167.954 226.218 167.75 226.141C167.535 226.062 167.341 225.935 167.18 225.768C167.019 225.601 166.897 225.398 166.822 225.175C167.054 224.682 167.184 224.421 167.184 224.421C167.184 224.421 180.074 224.991 182.83 224.952L187.581 224.701L195.154 224.305L198.661 224.122L198.764 225.629Z" fill="black"/>
<path d="M167.685 181.956C167.898 174.846 160.391 171.89 154.377 185.907C152.487 190.514 150.936 195.265 149.737 200.117C149.737 200.117 144.299 188.95 142.091 178.198C142.091 178.198 147.659 172.779 148.076 170.2C148.327 168.77 147.454 165.457 146.22 164.722C144.624 163.756 140.179 164.626 138.889 166.017C136.866 168.19 137.293 178.005 137.293 178.005C136.933 187.016 138.104 196.022 140.754 204.609C145.654 220.702 156.094 212.81 160.075 205.14C163.286 198.996 167.481 189.037 167.685 181.956Z" fill="#FFA8A7"/>
<path d="M167.23 149.17C166.942 151.372 165.272 154.309 163.101 155.12C162.771 155.262 162.409 155.301 162.059 155.235C161.708 155.168 161.384 154.997 161.124 154.744C160.969 154.653 160.834 154.532 160.725 154.386C160.617 154.239 160.538 154.072 160.493 153.894C159.887 153.877 159.284 153.8 158.693 153.662C157.765 153.44 157.133 152.019 157.95 151.382C161.662 148.561 162.915 144.369 162.089 142.533C157.922 133.25 167.1 123.213 174.394 130.217C182.561 138.08 171.267 140.843 167.128 140.65C166.915 140.64 168.019 145.615 167.23 149.17Z" fill="#263238"/>
<path d="M170.218 142.302C170.218 142.302 167.824 138.438 170.571 135.443C173.318 132.448 176.918 134.96 176.918 134.96L170.218 142.302Z" fill="#8EC3B0"/>
<path d="M171.118 175.31H168.687C170.079 177.879 176.185 186.564 183.312 185.994C190.003 185.453 189.688 178.073 187.59 175.484C186.828 175.463 186.07 175.366 185.326 175.194C182.208 174.344 181.382 170.605 181.846 167.543L172.64 160.511C173.635 164.739 173.846 169.125 173.262 173.436C173.176 173.962 172.914 174.439 172.521 174.783C172.128 175.126 171.631 175.313 171.118 175.31Z" fill="#FFA8A7"/>
<path d="M170.32 148.648C170.181 156.598 169.949 159.96 173.476 164.336C178.784 170.914 188.184 169.359 190.606 161.621C192.778 154.647 192.648 142.833 185.456 139.065C183.875 138.224 182.112 137.819 180.338 137.887C178.563 137.956 176.835 138.496 175.317 139.457C173.8 140.417 172.544 141.766 171.669 143.375C170.795 144.984 170.33 146.799 170.32 148.648Z" fill="#FFA8A7"/>
<path d="M186.904 154.328C187.43 155.813 188.149 157.217 189.038 158.501C188.718 158.731 188.354 158.885 187.971 158.952C187.587 159.019 187.194 158.997 186.82 158.888L186.904 154.328Z" fill="#EC883E"/>
<path d="M181.113 150.213C181.065 150.193 181.02 150.164 180.983 150.126C180.954 150.097 180.932 150.063 180.916 150.025C180.901 149.987 180.893 149.945 180.893 149.904C180.893 149.863 180.901 149.822 180.916 149.783C180.932 149.745 180.954 149.711 180.983 149.682C181.377 149.257 181.864 148.938 182.402 148.751C182.94 148.564 183.513 148.516 184.073 148.61C184.151 148.63 184.217 148.681 184.26 148.75C184.304 148.82 184.32 148.905 184.305 148.986C184.288 149.066 184.241 149.135 184.175 149.18C184.11 149.225 184.03 149.242 183.953 149.228C183.487 149.156 183.012 149.202 182.567 149.359C182.121 149.517 181.718 149.784 181.391 150.136C181.355 150.172 181.31 150.198 181.262 150.212C181.213 150.226 181.162 150.226 181.113 150.213Z" fill="#2E353A"/>
<path d="M191.553 150.541C191.501 150.527 191.454 150.501 191.414 150.464C191.089 150.116 190.688 149.854 190.246 149.701C189.803 149.548 189.332 149.508 188.871 149.585C188.792 149.606 188.709 149.593 188.639 149.549C188.57 149.506 188.52 149.435 188.5 149.353C188.483 149.27 188.498 149.183 188.541 149.111C188.584 149.039 188.653 148.988 188.732 148.967C189.292 148.87 189.867 148.914 190.408 149.096C190.949 149.277 191.44 149.591 191.841 150.01C191.869 150.039 191.892 150.074 191.908 150.112C191.923 150.15 191.931 150.191 191.931 150.232C191.931 150.274 191.923 150.315 191.908 150.353C191.892 150.391 191.869 150.426 191.841 150.455C191.801 150.499 191.751 150.53 191.695 150.545C191.639 150.561 191.58 150.559 191.525 150.541H191.553Z" fill="#2E353A"/>
<path d="M181.707 153.198C181.707 153.845 181.967 154.386 182.375 154.415C182.783 154.444 183.136 153.942 183.164 153.285C183.192 152.628 182.904 152.106 182.505 152.077C182.106 152.048 181.744 152.551 181.707 153.198Z" fill="#2E353A"/>
<path d="M188.704 153.642C188.704 154.28 188.964 154.821 189.372 154.85C189.78 154.879 190.133 154.377 190.17 153.729C190.207 153.082 189.91 152.541 189.511 152.512C189.112 152.483 188.741 152.986 188.704 153.642Z" fill="#2E353A"/>
<path d="M189.326 152.541L190.838 152.193C190.838 152.193 190.003 153.343 189.326 152.541Z" fill="#2E353A"/>
<path d="M182.329 152.106L183.841 151.749C183.841 151.749 183.006 152.908 182.329 152.106Z" fill="#2E353A"/>
<path d="M187.275 161.254C187.275 161.254 185.567 160.414 180.473 159.535C180.649 161.544 181.401 163.273 184.036 163.718C184.732 163.838 185.446 163.678 186.034 163.271C186.621 162.864 187.038 162.24 187.201 161.525C187.228 161.428 187.256 161.322 187.275 161.254Z" fill="#2E353A"/>
<path d="M183.164 161.998C184.187 162.103 185.134 162.611 185.809 163.418C185.273 163.721 184.653 163.82 184.055 163.698C183.034 163.6 182.09 163.094 181.419 162.288C181.947 161.972 182.568 161.869 183.164 161.998Z" fill="#882B29"/>
<path d="M187.08 161.167C186.993 161.379 186.855 161.564 186.68 161.705C186.504 161.845 186.297 161.936 186.078 161.969C184.573 161.692 183.097 161.265 181.67 160.694C181.43 160.61 181.217 160.459 181.054 160.258C180.89 160.057 180.782 159.814 180.742 159.554C182.899 159.882 185.021 160.422 187.08 161.167Z" fill="white"/>
<path d="M171.555 153.382C172.579 152.813 173.459 151.998 174.123 151.006C174.786 150.013 175.213 148.871 175.369 147.673C175.814 143.644 179.73 144.359 179.73 144.359C179.73 144.359 191.015 148.223 194.3 143.828C197.585 139.433 190.746 139.713 190.746 139.713C190.746 139.713 193.53 132.226 186.672 136.312C186.672 136.312 178.19 131.337 172.315 136.264C162.822 144.234 167.778 152.754 167.778 152.754C167.778 152.754 164.066 157.873 168.613 157.902C168.613 157.902 165.829 159.632 168.613 161.399C172.993 164.152 171.555 153.382 171.555 153.382Z" fill="#263238"/>
<path d="M191.312 145.624C180.714 141.258 171.684 145.161 166.831 150.29C166.831 150.445 166.831 150.561 166.785 150.657C166.707 151.071 166.761 151.499 166.938 151.877C167.116 152.256 167.407 152.563 167.768 152.754C168.242 152.28 178.236 141.876 191.386 147.991C191.386 147.991 192.045 147.518 191.989 147.093C191.933 146.668 191.804 145.866 191.312 145.624Z" fill="#8EC3B0"/>
<path d="M164.038 167.592L161.866 163.254C161.642 162.764 161.29 162.349 160.85 162.057C160.411 161.765 159.901 161.607 159.379 161.602H150.712C150.192 161.615 149.685 161.776 149.247 162.067C148.808 162.358 148.455 162.769 148.225 163.254L146.053 167.572C145.802 168.082 145.67 168.646 145.67 169.219C145.67 169.792 145.802 170.357 146.053 170.866L148.225 175.184C148.455 175.67 148.808 176.08 149.247 176.371C149.685 176.663 150.192 176.823 150.712 176.836H159.379C159.901 176.831 160.411 176.673 160.85 176.381C161.29 176.089 161.642 175.674 161.866 175.184L164.038 170.866C164.286 170.359 164.416 169.798 164.416 169.229C164.416 168.66 164.286 168.099 164.038 167.592Z" fill="#8EC3B0"/>
<path opacity="0.2" d="M164.038 167.592L161.866 163.254C161.642 162.764 161.29 162.349 160.85 162.057C160.411 161.765 159.901 161.607 159.379 161.602H150.712C150.192 161.615 149.685 161.776 149.247 162.067C148.808 162.358 148.455 162.769 148.225 163.254L146.053 167.572C145.802 168.082 145.67 168.646 145.67 169.219C145.67 169.792 145.802 170.357 146.053 170.866L148.225 175.184C148.455 175.67 148.808 176.08 149.247 176.371C149.685 176.663 150.192 176.823 150.712 176.836H159.379C159.901 176.831 160.411 176.673 160.85 176.381C161.29 176.089 161.642 175.674 161.866 175.184L164.038 170.866C164.286 170.359 164.416 169.798 164.416 169.229C164.416 168.66 164.286 168.099 164.038 167.592Z" fill="black"/>
<path d="M159.24 161.622H155.231C154.681 161.623 154.142 161.781 153.672 162.079C153.203 162.377 152.821 162.804 152.568 163.312L150.313 167.785C150.091 168.233 149.975 168.73 149.975 169.234C149.975 169.738 150.091 170.235 150.313 170.683L152.568 175.165C152.823 175.671 153.206 176.095 153.675 176.391C154.144 176.687 154.682 176.844 155.231 176.846H159.24C159.79 176.846 160.331 176.69 160.802 176.393C161.273 176.097 161.657 175.672 161.913 175.165L164.158 170.683C164.385 170.236 164.504 169.739 164.504 169.234C164.504 168.729 164.385 168.231 164.158 167.785L161.913 163.312C161.659 162.802 161.276 162.375 160.804 162.077C160.333 161.779 159.792 161.621 159.24 161.622Z" fill="#8EC3B0"/>
<path d="M237.637 214.22C236.385 215.804 231.912 214.152 227.652 210.511C223.393 206.869 220.961 202.628 222.214 201.034C223.467 199.44 227.94 201.102 232.199 204.744C236.459 208.385 238.89 212.626 237.637 214.22Z" fill="#8EC3B0"/>
<path opacity="0.2" d="M237.637 214.22C236.385 215.804 231.912 214.152 227.652 210.511C223.393 206.869 220.961 202.628 222.214 201.034C223.467 199.44 227.94 201.102 232.199 204.744C236.459 208.385 238.89 212.626 237.637 214.22Z" fill="black"/>
<path d="M246.546 219.871L247.409 215.041C247.514 214.491 247.475 213.922 247.295 213.393C247.115 212.865 246.802 212.396 246.388 212.037L239.336 206.009C238.917 205.657 238.415 205.429 237.883 205.349C237.351 205.269 236.807 205.34 236.31 205.555L231.912 207.381C231.398 207.597 230.945 207.944 230.594 208.39C230.242 208.835 230.003 209.365 229.898 209.931L229.035 214.761C228.931 215.311 228.971 215.88 229.15 216.409C229.33 216.937 229.643 217.406 230.056 217.765L237.108 223.793C237.527 224.145 238.029 224.373 238.561 224.453C239.094 224.533 239.637 224.462 240.134 224.247L244.532 222.421C245.046 222.205 245.499 221.858 245.851 221.413C246.202 220.967 246.441 220.437 246.546 219.871Z" fill="#8EC3B0"/>
<path opacity="0.2" d="M246.546 219.871L247.409 215.041C247.514 214.491 247.475 213.922 247.295 213.393C247.115 212.865 246.802 212.396 246.388 212.037L239.336 206.009C238.917 205.657 238.415 205.429 237.883 205.349C237.351 205.269 236.807 205.34 236.31 205.555L231.912 207.381C231.398 207.597 230.945 207.944 230.594 208.39C230.242 208.835 230.003 209.365 229.898 209.931L229.035 214.761C228.931 215.311 228.971 215.88 229.15 216.409C229.33 216.937 229.643 217.406 230.056 217.765L237.108 223.793C237.527 224.145 238.029 224.373 238.561 224.453C239.094 224.533 239.637 224.462 240.134 224.247L244.532 222.421C245.046 222.205 245.499 221.858 245.851 221.413C246.202 220.967 246.441 220.437 246.546 219.871Z" fill="black"/>
<path d="M246.333 211.969L242.927 209.071C242.498 208.706 241.982 208.466 241.434 208.378C240.885 208.29 240.324 208.356 239.809 208.569L235.336 210.414C234.858 210.621 234.437 210.95 234.113 211.37C233.789 211.79 233.571 212.289 233.48 212.82L232.598 217.746C232.497 218.313 232.543 218.898 232.733 219.44C232.922 219.982 233.247 220.461 233.675 220.828L237.081 223.726C237.509 224.091 238.023 224.33 238.569 224.418C239.116 224.506 239.675 224.441 240.189 224.228L244.616 222.373C245.093 222.167 245.513 221.84 245.837 221.421C246.161 221.003 246.38 220.507 246.472 219.978L247.354 215.041C247.459 214.481 247.42 213.902 247.241 213.362C247.061 212.823 246.748 212.342 246.333 211.969Z" fill="#8EC3B0"/>
</svg>
