<svg width="16" height="16" viewBox="0 0 16 16" fill="none" xmlns="http://www.w3.org/2000/svg">
<g clip-path="url(#clip0_840_3727)">
<path d="M4.432 5.334C3.92733 5.334 3.578 5.72533 3.50867 6.112L2.67333 10.2727C2.63267 10.4767 2.788 10.6667 2.996 10.6667C3.15267 10.6667 3.28733 10.556 3.31867 10.4027L3.53533 9.33333H5.30867L5.52933 10.4033C5.56067 10.5567 5.69533 10.666 5.852 10.666H5.85667C6.06533 10.666 6.22133 10.4747 6.17933 10.2707L5.32867 6.12867C5.24867 5.68333 4.93667 5.334 4.432 5.334ZM3.67067 8.66667L4.16467 6.22867C4.17733 6.15733 4.262 6.00067 4.43133 6.00067C4.49 6.00067 4.628 6.00067 4.67533 6.26267L5.17067 8.66667H3.67067ZM7.33333 7.05933V8.93267C7.33333 9.44333 7.68667 9.918 8.19267 9.98933C8.81933 10.078 9.33333 9.57133 9.33333 8.97133V8.666H8.658C8.47867 8.666 8.33333 8.52067 8.33333 8.34133V8.32467C8.33333 8.14533 8.47867 8 8.658 8H9.33333C9.70133 8 10 8.29867 10 8.66667V9.06667H9.99267C9.952 10.016 9.12267 10.7613 8.14 10.6513C7.28267 10.5547 6.66667 9.76867 6.66667 8.90533V7.096C6.66667 6.21267 7.30933 5.40933 8.18933 5.33533C9.03333 5.26467 9.76067 5.82333 9.95133 6.594C10.002 6.79867 9.84533 6.996 9.63533 6.996H9.61667C9.46533 6.996 9.33867 6.89067 9.3 6.744C9.17533 6.27267 8.71533 5.93733 8.19 6.01067C7.68667 6.08067 7.33333 6.55133 7.33333 7.06V7.05933ZM16 8C16 12.4113 12.4113 16 8 16C3.58867 16 0 12.4113 0 8C0 3.58867 3.58867 0 8 0C10.3267 0 12.4793 0.994 14 2.72733V0.333333C14 0.149333 14.1493 0 14.3333 0C14.5173 0 14.6667 0.149333 14.6667 0.333333V3C14.6667 3.55133 14.218 4 13.6667 4H11C10.816 4 10.6667 3.85067 10.6667 3.66667C10.6667 3.48267 10.816 3.33333 11 3.33333H13.644C12.244 1.64 10.2067 0.666667 8 0.666667C3.95667 0.666667 0.666667 3.95667 0.666667 8C0.666667 12.0433 3.95667 15.3333 8 15.3333C12.0433 15.3333 15.3333 12.0433 15.3333 8C15.3333 7.816 15.4827 7.66667 15.6667 7.66667C15.8507 7.66667 16 7.816 16 8ZM11.3333 6.33333V7.66667H13C13.184 7.66667 13.3333 7.816 13.3333 8C13.3333 8.184 13.184 8.33333 13 8.33333H11.3333V9.66667C11.3333 9.85067 11.4827 10 11.6667 10H13C13.184 10 13.3333 10.1493 13.3333 10.3333C13.3333 10.5173 13.184 10.6667 13 10.6667H11.6667C11.1153 10.6667 10.6667 10.218 10.6667 9.66667V6.33333C10.6667 5.782 11.1153 5.33333 11.6667 5.33333H13C13.184 5.33333 13.3333 5.48267 13.3333 5.66667C13.3333 5.85067 13.184 6 13 6H11.6667C11.4827 6 11.3333 6.14933 11.3333 6.33333Z" fill="#8EC3B0"/>
</g>
<defs>
<clipPath id="clip0_840_3727">
<rect width="16" height="16" fill="white"/>
</clipPath>
</defs>
</svg>
