<svg width="16" height="16" viewBox="0 0 16 16" fill="none" xmlns="http://www.w3.org/2000/svg">
<path d="M6.34937 14.6668V11.6668C6.34937 11.3132 6.48984 10.974 6.73989 10.724C6.98994 10.4739 7.32908 10.3335 7.6827 10.3335V6.33346C7.6827 6.33346 6.6827 5.66679 5.01603 5.66679C3.34937 5.66679 2.34937 6.33346 2.34937 6.33346V10.3335C2.70299 10.3335 3.04213 10.4739 3.29217 10.724C3.54222 10.974 3.6827 11.3132 3.6827 11.6668V14.6668M12.3494 2.00012V14.0001M12.3494 2.00012C12.3494 2.23879 12.486 2.53612 12.6287 2.78079C12.8187 3.10746 13.0687 3.39279 13.354 3.63146C13.5754 3.81679 13.8394 4.00012 14.016 4.00012M12.3494 2.00012C12.3494 2.23879 12.212 2.53612 12.0694 2.78079C11.8794 3.10746 11.63 3.39279 11.3447 3.63146C11.1227 3.81679 10.8594 4.00012 10.6827 4.00012M12.3494 14.0001C12.3494 13.7615 12.486 13.4641 12.6287 13.2195C12.8187 12.8928 13.0687 12.6075 13.354 12.3688C13.5754 12.1835 13.8394 12.0001 14.016 12.0001M12.3494 14.0001C12.3494 13.7615 12.212 13.4641 12.0694 13.2195C11.8789 12.896 11.6337 12.6082 11.3447 12.3688C11.1227 12.1835 10.8594 12.0001 10.6827 12.0001M4.91603 4.33346C4.91603 4.33346 3.84937 3.66679 3.84937 2.83346C3.84937 2.52448 3.97211 2.22816 4.19059 2.00968C4.40907 1.7912 4.70539 1.66846 5.01437 1.66846C5.32334 1.66846 5.61966 1.7912 5.83814 2.00968C6.05662 2.22816 6.17937 2.52448 6.17937 2.83346C6.17937 3.66679 5.11603 4.33346 5.11603 4.33346H4.91603Z" stroke="#8EC3B0"/>
</svg>
