<svg width="24" height="25" viewBox="0 0 24 25" fill="none" xmlns="http://www.w3.org/2000/svg">
<g clip-path="url(#clip0_543_3042)">
<path d="M22.4733 12.0269L12.4733 2.02687C12.3484 1.9027 12.1795 1.83301 12.0034 1.83301C11.8272 1.83301 11.6583 1.9027 11.5334 2.02687L1.53335 12.0269C1.42413 12.1544 1.36706 12.3185 1.37354 12.4862C1.38002 12.654 1.44958 12.8132 1.56831 12.9319C1.68704 13.0506 1.8462 13.1202 2.01398 13.1267C2.18177 13.1332 2.34582 13.0761 2.47335 12.9669L12 3.4402L21.5267 12.9735C21.6542 13.0828 21.8183 13.1398 21.9861 13.1333C22.1538 13.1269 22.313 13.0573 22.4317 12.9386C22.5505 12.8198 22.62 12.6607 22.6265 12.4929C22.633 12.3251 22.5759 12.1611 22.4667 12.0335L22.4733 12.0269Z" fill="black"/>
<path d="M18.6667 21.8332H15.3333V15.1665H8.66667V21.8332H5.33333V12.4998L4 13.8332V21.8332C4 22.1868 4.14048 22.5259 4.39052 22.776C4.64057 23.026 4.97971 23.1665 5.33333 23.1665H10V16.4998H14V23.1665H18.6667C19.0203 23.1665 19.3594 23.026 19.6095 22.776C19.8595 22.5259 20 22.1868 20 21.8332V13.6732L18.6667 12.3398V21.8332Z" fill="black"/>
</g>
<defs>
<clipPath id="clip0_543_3042">
<rect width="24" height="24" fill="white" transform="translate(0 0.5)"/>
</clipPath>
</defs>
</svg>
