<svg width="338" height="338" viewBox="0 0 338 338" fill="none" xmlns="http://www.w3.org/2000/svg">
<path d="M314.002 76.7056C312.929 74.9029 311.803 73.1228 310.622 71.3652C294.959 48.1446 267.993 32.2653 241.467 25.0862C229.829 21.9903 217.873 20.246 205.835 19.8878C127 17.1838 95.5999 79.3758 69.5469 95.3767C43.4939 111.378 3.38002 138.803 6.08402 196.256C8.78802 253.709 50.1727 307.796 130.34 311.176C210.506 314.556 215.854 278.444 260.612 265.08C290.234 256.238 311.312 226.372 321.587 198.771C335.634 161.145 334.972 112.29 314.002 76.7056Z" fill="#8EC3B0"/>
<path opacity="0.7" d="M314.002 76.7056C312.929 74.9029 311.803 73.1228 310.622 71.3652C294.959 48.1446 267.993 32.2653 241.467 25.0862C229.829 21.9903 217.873 20.246 205.835 19.8878C127 17.1838 95.5999 79.3758 69.5469 95.3767C43.4939 111.378 3.38002 138.803 6.08402 196.256C8.78802 253.709 50.1727 307.796 130.34 311.176C210.506 314.556 215.854 278.444 260.612 265.08C290.234 256.238 311.312 226.372 321.587 198.771C335.634 161.145 334.972 112.29 314.002 76.7056Z" fill="white"/>
<path d="M296.466 82.1271V79.903H255.325V46.9277H253.987V79.903H213.136V82.1271H253.987V112.655H213.136V114.886H253.987V145.414H213.136V147.638H253.987V179.714H255.325V147.638H296.466V145.414H255.325V114.886H296.466V112.655H255.325V82.1271H296.466Z" fill="#263238" stroke="#263238" stroke-miterlimit="10"/>
<path d="M210.317 44.251V183.284H298.995V44.251H210.317ZM296 178.586H213.312V48.9424H296V178.586Z" fill="#263238" stroke="#263238" stroke-miterlimit="10"/>
<path d="M171.704 218.97C171.707 218.961 171.709 218.952 171.708 218.943C171.708 218.934 171.706 218.925 171.702 218.917C171.698 218.909 171.693 218.902 171.686 218.896C171.68 218.89 171.672 218.885 171.663 218.882C171.655 218.879 171.646 218.877 171.637 218.877C171.628 218.878 171.619 218.88 171.611 218.884C171.603 218.887 171.595 218.893 171.589 218.899C171.583 218.906 171.578 218.914 171.575 218.922C169.59 223.679 168.02 228.598 166.884 233.625C165.725 238.653 164.851 243.743 164.268 248.869L163.903 252.722C163.849 253.365 163.774 254.007 163.727 254.649L163.626 256.582C163.572 257.874 163.491 259.165 163.45 260.456L163.491 264.329L163.531 266.263C163.531 266.905 163.605 267.554 163.653 268.196C163.747 269.48 163.829 270.772 163.943 272.056C164.194 274.625 164.579 277.173 164.971 279.722C164.975 279.737 164.984 279.75 164.996 279.76C165.008 279.769 165.023 279.775 165.039 279.776C165.048 279.777 165.057 279.776 165.066 279.773C165.074 279.77 165.082 279.765 165.089 279.759C165.095 279.752 165.1 279.744 165.103 279.735C165.106 279.727 165.107 279.718 165.106 279.708C165.106 278.417 165.045 277.14 165.018 275.848C164.991 274.557 164.87 273.293 164.89 272.009C164.91 270.724 164.89 269.44 164.849 268.162L164.809 266.242V264.323V260.483L164.91 256.65L164.951 254.73C164.951 254.088 165.025 253.453 165.059 252.81L165.295 248.977C165.731 243.873 166.456 238.797 167.465 233.774C168.448 228.726 169.866 223.773 171.704 218.97Z" fill="#263238"/>
<path d="M172.252 239.033C172.256 239.017 172.254 239 172.247 238.985C172.239 238.97 172.227 238.958 172.211 238.952C172.203 238.949 172.194 238.947 172.185 238.948C172.176 238.948 172.167 238.95 172.158 238.954C172.15 238.958 172.143 238.963 172.137 238.97C172.131 238.976 172.126 238.984 172.123 238.993C169.932 245.396 168.474 252.027 167.776 258.759C167.438 262.139 167.06 265.478 167.013 268.858C166.932 272.243 167.052 275.628 167.371 278.998C167.375 279.012 167.382 279.025 167.393 279.035C167.404 279.044 167.417 279.05 167.432 279.053C167.44 279.055 167.449 279.055 167.457 279.053C167.466 279.051 167.474 279.048 167.481 279.042C167.488 279.037 167.494 279.031 167.498 279.023C167.503 279.016 167.505 279.007 167.506 278.998C167.898 275.618 168.135 272.279 168.371 268.926C168.608 265.573 168.642 262.213 168.858 258.86C169.318 252.159 170.45 245.521 172.238 239.047L172.252 239.033Z" fill="#263238"/>
<path d="M183.379 246.098C183.366 246.086 183.349 246.079 183.331 246.079C183.314 246.079 183.297 246.086 183.284 246.098C180.502 247.884 177.997 250.068 175.848 252.581C174.769 253.85 173.796 255.207 172.941 256.637L172.346 257.766L171.873 258.942C171.715 259.328 171.579 259.723 171.467 260.125C171.346 260.531 171.211 260.923 171.102 261.328C170.253 264.538 169.738 267.828 169.568 271.144C169.402 274.442 169.524 277.749 169.933 281.027C169.937 281.042 169.946 281.055 169.958 281.065C169.97 281.074 169.985 281.08 170 281.081C170.009 281.082 170.018 281.081 170.026 281.078C170.034 281.076 170.042 281.071 170.048 281.066C170.054 281.06 170.059 281.053 170.063 281.045C170.066 281.037 170.068 281.029 170.068 281.02L170.92 271.238C171.151 268.002 171.564 264.782 172.157 261.592C172.245 261.193 172.36 260.814 172.461 260.422C172.552 260.031 172.665 259.645 172.799 259.266L173.198 258.137L173.712 257.069C174.486 255.646 175.376 254.289 176.375 253.013C178.361 250.422 180.713 248.133 183.358 246.22C183.369 246.215 183.379 246.207 183.386 246.197C183.394 246.188 183.399 246.176 183.401 246.164C183.403 246.152 183.402 246.14 183.398 246.128C183.394 246.117 183.387 246.106 183.379 246.098Z" fill="#263238"/>
<path d="M177.991 258.665C176.547 259.718 175.386 261.111 174.611 262.721C173.794 264.305 173.156 265.976 172.711 267.703C172.583 268.129 172.475 268.561 172.38 268.994L172.076 270.292C171.915 271.166 171.805 272.048 171.745 272.935C171.745 273.827 171.711 274.713 171.745 275.598C171.809 276.485 171.924 277.368 172.089 278.242C172.094 278.254 172.101 278.265 172.11 278.275C172.119 278.284 172.131 278.291 172.143 278.296C172.152 278.298 172.161 278.298 172.17 278.296C172.179 278.294 172.188 278.291 172.195 278.286C172.203 278.281 172.209 278.274 172.214 278.267C172.219 278.259 172.223 278.25 172.224 278.242C172.429 277.383 172.587 276.514 172.698 275.639C172.833 274.774 172.968 273.922 173.069 273.063C173.171 272.205 173.306 271.36 173.374 270.501C173.441 269.643 173.556 268.784 173.745 267.946C174.043 266.252 174.528 264.597 175.192 263.011C175.791 261.394 176.764 259.942 178.031 258.773C178.037 258.767 178.042 258.76 178.045 258.753C178.048 258.745 178.05 258.737 178.05 258.729C178.05 258.721 178.048 258.712 178.045 258.705C178.042 258.697 178.037 258.691 178.031 258.685C178.02 258.674 178.006 258.667 177.991 258.665Z" fill="#263238"/>
<path d="M162.389 268.467C162.024 264.127 161.307 259.82 160.631 255.528C159.955 251.235 159.198 246.943 158.414 242.684C157.63 238.425 156.751 234.146 155.825 229.901C155.828 229.891 155.829 229.88 155.827 229.869C155.826 229.859 155.821 229.849 155.815 229.84C155.809 229.831 155.801 229.824 155.791 229.819C155.782 229.815 155.771 229.812 155.76 229.812C155.75 229.812 155.739 229.815 155.73 229.819C155.72 229.824 155.712 229.831 155.706 229.84C155.699 229.849 155.695 229.859 155.694 229.869C155.692 229.88 155.693 229.891 155.696 229.901C156.44 234.187 157.109 238.479 157.724 242.779C158.339 247.078 158.988 251.37 159.536 255.677C160.083 259.983 160.482 264.309 161.016 268.608L162.605 281.54C162.609 281.556 162.617 281.57 162.629 281.581C162.641 281.592 162.657 281.599 162.673 281.601C162.691 281.601 162.709 281.594 162.723 281.582C162.737 281.569 162.745 281.552 162.747 281.534C162.794 280.445 162.794 279.357 162.821 278.262C162.848 277.167 162.774 276.085 162.76 274.997C162.74 272.813 162.551 270.643 162.389 268.467Z" fill="#263238"/>
<path d="M159.786 268.406C159.549 266.682 159.239 264.972 158.907 263.268L158.299 260.733C158.096 259.888 157.907 259.043 157.663 258.205C156.796 254.836 155.685 251.535 154.338 248.328L153.817 247.132L153.242 245.962C152.871 245.178 152.431 244.428 152.005 243.664C151.152 242.145 150.097 240.749 148.869 239.513C148.863 239.507 148.856 239.503 148.849 239.5C148.841 239.496 148.833 239.495 148.825 239.495C148.817 239.495 148.808 239.496 148.801 239.5C148.793 239.503 148.786 239.507 148.781 239.513C148.768 239.526 148.761 239.543 148.761 239.561C148.761 239.578 148.768 239.595 148.781 239.608C149.925 240.889 150.889 242.319 151.647 243.86C152.026 244.631 152.424 245.388 152.749 246.185L153.263 247.368L153.716 248.579C154.917 251.797 155.884 255.097 156.609 258.455C157.001 260.125 157.285 261.835 157.589 263.518L157.995 266.06C158.143 266.905 158.326 267.75 158.441 268.602C158.711 270.298 159.029 271.982 159.32 273.692C159.61 275.402 159.894 277.072 160.259 278.796C160.262 278.811 160.269 278.825 160.28 278.836C160.291 278.847 160.305 278.854 160.32 278.857C160.339 278.857 160.357 278.85 160.37 278.837C160.384 278.825 160.393 278.808 160.394 278.789C160.394 277.054 160.354 275.319 160.273 273.584C160.171 271.853 159.962 270.129 159.786 268.406Z" fill="#263238"/>
<path d="M156.19 268.629C155.385 266.344 154.453 264.113 153.439 261.93C152.416 259.747 151.26 257.629 149.977 255.589C149.974 255.58 149.968 255.571 149.961 255.565C149.954 255.558 149.946 255.552 149.937 255.549C149.927 255.546 149.917 255.545 149.908 255.546C149.898 255.547 149.888 255.55 149.88 255.555C149.872 255.56 149.864 255.566 149.859 255.575C149.853 255.583 149.849 255.592 149.848 255.602C149.846 255.611 149.846 255.621 149.849 255.631C149.852 255.64 149.856 255.649 149.863 255.656C150.979 257.776 151.965 259.961 152.817 262.2C153.695 264.417 154.493 266.675 155.156 268.96C155.818 271.245 156.325 273.577 156.933 275.876C157.542 278.174 158.089 280.493 158.799 282.818C158.803 282.831 158.811 282.843 158.822 282.851C158.833 282.86 158.846 282.865 158.86 282.865C158.879 282.866 158.897 282.859 158.91 282.846C158.924 282.834 158.933 282.816 158.934 282.798C158.96 280.372 158.733 277.95 158.258 275.571C157.756 273.206 157.064 270.884 156.19 268.629Z" fill="#263238"/>
<path d="M156.041 276.22C155.598 274.798 154.954 273.446 154.128 272.205C153.359 270.934 152.422 269.772 151.343 268.751C150.792 268.25 150.199 267.798 149.572 267.399C148.945 266.996 148.262 266.691 147.544 266.493C147.529 266.49 147.513 266.493 147.499 266.5C147.486 266.507 147.475 266.519 147.469 266.533C147.459 266.546 147.453 266.561 147.453 266.577C147.453 266.593 147.459 266.609 147.469 266.621C148.751 267.239 149.887 268.121 150.802 269.21C151.726 270.275 152.506 271.457 153.121 272.725C153.797 273.969 154.121 275.348 154.696 276.64C154.946 277.316 155.196 277.958 155.493 278.62C155.736 279.316 156.027 279.994 156.366 280.648C156.372 280.658 156.381 280.667 156.392 280.673C156.402 280.679 156.414 280.682 156.426 280.682C156.435 280.683 156.444 280.682 156.452 280.679C156.46 280.677 156.467 280.673 156.474 280.667C156.48 280.661 156.485 280.654 156.489 280.646C156.492 280.638 156.494 280.63 156.494 280.621C156.521 279.879 156.494 279.135 156.413 278.397C156.366 277.66 156.217 276.937 156.041 276.22Z" fill="#263238"/>
<path d="M156.312 236.093C154.138 235.492 152.17 234.307 150.621 232.668C149.072 231.028 148.001 228.996 147.524 226.791C145.881 219.126 151.174 222.411 146.428 210.365C141.683 198.318 142.778 195.58 144.4 192.113C146.023 188.645 146.956 189.74 148.416 194.303C149.876 198.866 155.176 205.984 157.204 219.315C159.232 232.646 156.312 236.093 156.312 236.093Z" fill="#8EC3B0"/>
<path d="M170.352 223.141C170.352 223.141 165.62 221.498 165.424 212.555C165.228 203.611 168.892 205.436 169.44 194.303C169.987 183.169 170.717 175.321 172.725 175.138C174.733 174.956 180.026 180.614 181.851 193.025C183.676 205.436 179.478 213.65 175.828 217.3C172.177 220.951 170.352 223.141 170.352 223.141Z" fill="#8EC3B0"/>
<path d="M153.756 246.862C153.756 246.862 152.661 240.291 150.471 237.188C148.281 234.085 143.535 231.348 140.432 225.331C137.329 219.315 133.861 216.388 134.044 224.966C134.227 233.545 138.059 237.918 142.832 240.839C147.605 243.759 153.756 246.862 153.756 246.862Z" fill="#8EC3B0"/>
<path d="M151.749 258.178C151.749 258.178 147.368 249.782 140.98 243.576C134.592 237.371 129.488 234.268 131.306 237.371C133.125 240.473 135.322 240.291 138.425 245.766C141.527 251.242 140.615 255.23 144.995 258.36C149.376 261.49 151.749 258.178 151.749 258.178Z" fill="#8EC3B0"/>
<path d="M151.201 268.947C151.018 268.399 150.836 264.384 144.63 261.098C138.424 257.813 132.584 259.07 133.314 260.733C134.044 262.396 137.877 265.114 141.71 266.756C145.543 268.399 151.201 268.947 151.201 268.947Z" fill="#8EC3B0"/>
<path d="M169.994 247.226C169.994 247.226 167.256 243.759 168.716 236.458C170.176 229.157 173.448 230.982 177.112 227.149C180.776 223.316 180.032 222.776 183.683 218.76C187.333 214.745 190.619 212.554 192.079 214.197C193.539 215.84 191.349 220.957 189.158 223.871C186.968 226.784 183.5 228.244 181.844 231.868C180.188 235.491 180.931 241.332 176.733 244.097C172.535 246.861 169.994 247.226 169.994 247.226Z" fill="#8EC3B0"/>
<path d="M179.14 249.235C179.14 249.235 185.711 241.751 190.456 236.276C195.202 230.8 197.027 226.609 197.216 230.253C197.406 233.896 198.859 236.823 195.026 241.569C191.193 246.314 179.14 249.235 179.14 249.235Z" fill="#8EC3B0"/>
<path d="M175.652 261.281C175.652 261.281 175.469 258.361 185.873 251.607C196.277 244.854 200.657 243.576 199.562 246.314C198.467 249.052 193.904 251.79 188.976 256.718C184.048 261.646 175.652 261.281 175.652 261.281Z" fill="#8EC3B0"/>
<path d="M156.744 235.316C156.744 235.316 154.304 222.228 151.748 212.92C149.193 203.611 147.551 197.953 147.551 197.953" stroke="#263238" stroke-linecap="round" stroke-linejoin="round"/>
<path d="M169.94 223.276C169.94 223.276 174.374 209.08 175.834 200.509C177.295 191.937 175.652 185.542 174.922 181.709" stroke="#263238" stroke-linecap="round" stroke-linejoin="round"/>
<path d="M153.182 246.591C151.216 243.211 148.966 240.004 146.455 237.005C142.44 232.273 139.337 229.705 137.512 225.148" stroke="#263238" stroke-linecap="round" stroke-linejoin="round"/>
<path d="M169.994 247.227C169.994 247.227 171.454 238.439 174.922 233.903C178.39 229.367 185.325 222.228 188.063 217.679" stroke="#263238" stroke-linecap="round" stroke-linejoin="round"/>
<path d="M150.748 268.744C150.748 268.744 144.61 264.749 140.229 262.559" stroke="#263238" stroke-linecap="round" stroke-linejoin="round"/>
<path d="M170.954 307.451H158.272L151.931 275.7H177.295L170.954 307.451Z" fill="#263238" stroke="#263238" stroke-linecap="round" stroke-linejoin="round"/>
<path d="M43.8047 307.452H331.226" stroke="#263238" stroke-miterlimit="10"/>
<path d="M21.0776 307.452H38.9038" stroke="#263238" stroke-miterlimit="10"/>
<path d="M146.111 112.892V91.5979H144.184V64.3483C144.185 62.1417 143.751 59.9566 142.907 57.9177C142.063 55.8788 140.826 54.0262 139.266 52.4656C137.706 50.9049 135.854 49.667 133.816 48.8223C131.777 47.9777 129.592 47.543 127.385 47.543H37.1259C32.6689 47.543 28.3943 49.3135 25.2427 52.4651C22.0911 55.6168 20.3206 59.8913 20.3206 64.3483V278.931C20.3206 283.388 22.0911 287.663 25.2427 290.814C28.3943 293.966 32.6689 295.736 37.1259 295.736H127.385C129.592 295.736 131.777 295.302 133.816 294.457C135.854 293.612 137.706 292.374 139.266 290.814C140.826 289.253 142.063 287.401 142.907 285.362C143.751 283.323 144.185 281.138 144.184 278.931V131.042H146.111V118.462H144.184V112.892H146.111Z" fill="#707070" stroke="#263238" stroke-linejoin="round"/>
<path d="M124.438 293.418H40.0664C35.3458 293.418 30.8185 291.542 27.4806 288.204C24.1426 284.866 22.2673 280.339 22.2673 275.618V67.6606C22.2673 57.8248 27.3103 49.8547 40.0664 49.8547H124.438C136.14 49.6993 142.244 57.8248 142.244 67.6606V275.618C142.244 277.956 141.783 280.271 140.888 282.431C139.993 284.591 138.682 286.554 137.028 288.207C135.375 289.86 133.412 291.171 131.251 292.065C129.091 292.959 126.776 293.418 124.438 293.418Z" fill="#263238" stroke="#263238" stroke-linejoin="round"/>
<path d="M88.7858 52.5925L88.752 52.7209C87.765 56.3983 85.4937 58.8049 82.9789 58.8049H81.5323C79.0176 58.8049 76.7462 56.4254 75.7593 52.7209V52.5925L40.5532 52.4708C38.6039 52.4646 36.6725 52.843 34.8696 53.5845C33.0668 54.3259 31.428 55.4158 30.0471 56.7917C28.6662 58.1676 27.5704 59.8024 26.8223 61.6025C26.0743 63.4026 25.6888 65.3326 25.6879 67.2819L25.6406 273.421C25.6406 283.027 33.1577 290.815 42.4392 290.815H122.099C131.381 290.815 138.904 283.027 138.904 273.421V65.8015C138.905 62.4207 137.572 59.1761 135.195 56.7716C132.819 54.3671 129.59 52.9966 126.209 52.9575L88.7858 52.5925Z" fill="white" stroke="#263238" stroke-miterlimit="10"/>
<path d="M138.891 69.5468V65.8018C138.891 62.4209 137.558 59.1763 135.182 56.7719C132.805 54.3674 129.576 52.9969 126.196 52.9578L88.7858 52.5724L88.752 52.7009C87.7651 56.3783 85.4937 58.7849 82.979 58.7849H81.5324C79.0176 58.7849 76.7463 56.4054 75.7593 52.7009V52.5724L40.5532 52.4508C38.6022 52.4445 36.6691 52.8237 34.865 53.5664C33.0609 54.3091 31.4212 55.4008 30.04 56.7788C28.6588 58.1569 27.5634 59.7941 26.8166 61.5965C26.0697 63.399 25.6862 65.3312 25.688 67.2822V69.5468H138.891Z" fill="#DBDBDB" stroke="#263238" stroke-miterlimit="10"/>
<path d="M83.4859 52.1873C83.4859 51.8741 83.393 51.5681 83.2189 51.3078C83.0448 51.0475 82.7973 50.8448 82.5079 50.7252C82.2184 50.6057 81.9 50.5748 81.593 50.6364C81.286 50.6979 81.0041 50.8493 80.7832 51.0712C80.5622 51.2931 80.4121 51.5756 80.3518 51.8829C80.2916 52.1901 80.3239 52.5084 80.4446 52.7973C80.5654 53.0863 80.7692 53.3328 81.0302 53.5058C81.2912 53.6788 81.5977 53.7705 81.9109 53.7691C82.1183 53.7691 82.3236 53.7282 82.5152 53.6486C82.7067 53.569 82.8807 53.4524 83.027 53.3054C83.1734 53.1584 83.2892 52.984 83.368 52.7921C83.4468 52.6003 83.4868 52.3947 83.4859 52.1873Z" fill="#707070"/>
<path d="M36.7743 56.2027C36.7743 57.8049 34.9829 58.3795 34.9761 59.5827V59.6639H36.7135V60.1979H34.3948V59.7585C34.3948 58.0482 36.1862 57.7305 36.1862 56.2298C36.1862 55.6822 36.0037 55.3983 35.5643 55.3983C35.1249 55.3983 34.9423 55.7093 34.9423 56.1757V56.6421H34.3948V56.2163C34.3948 55.4051 34.7598 54.8643 35.5778 54.8643C36.3957 54.8643 36.7743 55.4321 36.7743 56.2027Z" fill="#263238"/>
<path d="M39.6744 56.1957V56.331C39.6972 56.5623 39.6434 56.7948 39.5213 56.9927C39.3992 57.1905 39.2154 57.3428 38.9984 57.4261C39.2168 57.5074 39.4019 57.6593 39.5243 57.8576C39.6467 58.056 39.6995 58.2895 39.6744 58.5212V58.9268C39.6744 59.738 39.2958 60.2788 38.4778 60.2788C37.6599 60.2788 37.2881 59.7515 37.2881 58.9268V58.5685H37.8559V58.9674C37.8559 59.4406 38.052 59.7312 38.4778 59.7312C38.9037 59.7312 39.093 59.4473 39.093 58.9133V58.5077C39.093 57.9804 38.8767 57.7303 38.417 57.7167H38.0993V57.1895H38.444C38.5361 57.1905 38.6273 57.1715 38.7112 57.1338C38.7952 57.0962 38.87 57.0407 38.9305 56.9713C38.9909 56.9018 39.0355 56.8201 39.0612 56.7317C39.087 56.6433 39.0932 56.5504 39.0795 56.4594V56.2228C39.0795 55.6752 38.8902 55.3981 38.4643 55.3981C38.0384 55.3981 37.8424 55.6887 37.8424 56.1687V56.4391H37.2881V56.1957C37.2881 55.3913 37.6666 54.8438 38.4778 54.8438C39.289 54.8438 39.6744 55.3913 39.6744 56.1957Z" fill="#263238"/>
<path d="M40.8169 56.6016V57.3316H40.249V56.6016H40.8169ZM40.8169 59.4813V60.2114H40.249V59.4881L40.8169 59.4813Z" fill="#263238"/>
<path d="M42.0066 57.0744C42.085 56.9353 42.2005 56.8207 42.34 56.7431C42.4796 56.6655 42.638 56.6281 42.7975 56.635C43.4735 56.635 43.7777 57.1352 43.7777 57.8924V58.9266C43.7777 59.7378 43.3924 60.2786 42.588 60.2786C41.7835 60.2786 41.3982 59.7514 41.3982 58.9266V58.5751H41.9458V58.9672C41.9458 59.4404 42.1486 59.7311 42.5677 59.7311C42.9868 59.7311 43.1896 59.4404 43.1896 58.9672V57.9397C43.1896 57.4597 42.9936 57.1758 42.5677 57.1758C42.4909 57.1721 42.4141 57.1841 42.3421 57.211C42.27 57.2379 42.2042 57.2792 42.1486 57.3323C42.0929 57.3854 42.0487 57.4492 42.0185 57.5199C41.9882 57.5906 41.9727 57.6667 41.9728 57.7436V57.8586H41.4185L41.5604 54.918H43.6493V55.4317H42.0945L42.0066 57.0744Z" fill="#263238"/>
<path d="M46.7252 56.189V56.2904H46.1709V56.1552C46.1709 55.6753 45.9748 55.3981 45.5422 55.3981C45.1096 55.3981 44.8662 55.682 44.8662 56.2499V57.4599C44.9274 57.2857 45.0436 57.1362 45.1973 57.0338C45.3509 56.9313 45.5336 56.8816 45.718 56.8921C46.394 56.8921 46.7049 57.3856 46.7049 58.1494V58.9471C46.7049 59.7583 46.3061 60.2991 45.4949 60.2991C44.6837 60.2991 44.2781 59.7718 44.2781 58.9471V56.2431C44.2781 55.4049 44.6566 54.8911 45.4949 54.8911C46.3331 54.8911 46.7252 55.3778 46.7252 56.189ZM44.9 58.1697V58.9674C44.9 59.4406 45.096 59.7313 45.5287 59.7313C45.9613 59.7313 46.1574 59.4406 46.1574 58.9674V58.1697C46.1574 57.6965 45.9546 57.4058 45.5287 57.4058C45.1028 57.4058 44.9 57.6965 44.9 58.1697Z" fill="#263238"/>
<path d="M104.523 56.4258H103.029V60.1641H104.523V56.4258Z" fill="#263238"/>
<path d="M106.517 55.6753H105.023V60.1639H106.517V55.6753Z" fill="#263238"/>
<path d="M108.512 55.1411H107.018V60.157H108.512V55.1411Z" fill="#263238"/>
<path d="M110.499 54.2148H109.005V60.1569H110.499V54.2148Z" fill="#263238"/>
<path d="M129.001 60.0556H120.031V54.5732H129.001V60.0556ZM120.531 59.5621H128.501V55.0735H120.531V59.5621Z" fill="#263238"/>
<path d="M126.013 55.6143H121.281V59.0145H126.013V55.6143Z" fill="#263238"/>
<path d="M129.819 56.6689H128.69V57.9601H129.819V56.6689Z" fill="#263238"/>
<path d="M116.745 58.8661C116.683 58.8675 116.622 58.851 116.569 58.8188C114.744 57.7305 113.541 58.7377 113.487 58.785C113.425 58.8465 113.341 58.881 113.254 58.881C113.166 58.881 113.082 58.8465 113.02 58.785C112.959 58.7218 112.924 58.6369 112.924 58.5484C112.924 58.4599 112.959 58.375 113.02 58.3118C113.088 58.2577 114.629 56.9598 116.887 58.3118C116.948 58.3507 116.994 58.4078 117.02 58.4748C117.045 58.5419 117.049 58.6154 117.03 58.6847C117.012 58.754 116.971 58.8155 116.915 58.8602C116.859 58.905 116.79 58.9308 116.718 58.9337L116.745 58.8661Z" fill="#263238"/>
<path d="M117.421 57.7369C117.359 57.7383 117.298 57.7218 117.245 57.6896C114.609 56.1213 112.831 57.6423 112.818 57.6896C112.75 57.7358 112.668 57.7558 112.586 57.7458C112.505 57.7358 112.43 57.6965 112.375 57.6353C112.32 57.5741 112.29 57.4951 112.289 57.413C112.289 57.331 112.318 57.2515 112.372 57.1894C112.372 57.1894 114.535 55.3371 117.59 57.1488C117.628 57.1711 117.662 57.2008 117.688 57.2361C117.715 57.2714 117.734 57.3116 117.744 57.3545C117.755 57.3973 117.757 57.4418 117.75 57.4854C117.744 57.5291 117.728 57.5709 117.705 57.6085C117.672 57.652 117.629 57.6866 117.58 57.709C117.53 57.7315 117.476 57.7411 117.421 57.7369Z" fill="#263238"/>
<path d="M118.03 56.4325C117.97 56.4329 117.911 56.4165 117.861 56.3852C114.521 54.3977 112.297 56.2703 112.202 56.3852C112.172 56.4167 112.135 56.4417 112.094 56.4587C112.053 56.4758 112.01 56.4846 111.966 56.4846C111.922 56.4846 111.878 56.4758 111.837 56.4587C111.797 56.4417 111.76 56.4167 111.729 56.3852C111.7 56.3527 111.678 56.3147 111.664 56.2734C111.649 56.2321 111.644 56.1883 111.647 56.1448C111.65 56.1012 111.662 56.0587 111.682 56.0199C111.702 55.9811 111.729 55.9467 111.763 55.9187C111.763 55.9187 114.426 53.6339 118.205 55.8782C118.281 55.9244 118.335 55.9985 118.357 56.0845C118.378 56.1705 118.365 56.2615 118.32 56.3379C118.283 56.3758 118.237 56.4042 118.186 56.4207C118.136 56.4372 118.082 56.4412 118.03 56.4325Z" fill="#263238"/>
<path d="M115.738 59.4271C115.739 59.5956 115.69 59.7607 115.597 59.901C115.504 60.0414 115.37 60.1507 115.215 60.2148C115.059 60.279 114.887 60.295 114.722 60.2609C114.557 60.2268 114.406 60.1442 114.288 60.0235C114.171 59.9029 114.092 59.7498 114.062 59.584C114.032 59.4181 114.052 59.2471 114.12 59.0928C114.188 58.9386 114.3 58.8082 114.443 58.7184C114.585 58.6285 114.752 58.5834 114.92 58.5888C115.139 58.5941 115.347 58.6848 115.5 58.8414C115.653 58.998 115.738 59.2082 115.738 59.4271Z" fill="#263238"/>
<path d="M82.1542 147.138C97.0262 147.368 109.417 153.006 119.185 164.282C119.5 164.623 119.742 165.025 119.896 165.462C120.051 165.9 120.116 166.364 120.086 166.827C120.056 167.29 119.933 167.742 119.724 168.157C119.514 168.571 119.223 168.938 118.868 169.237C118.524 169.531 118.125 169.754 117.693 169.892C117.262 170.029 116.807 170.078 116.357 170.037C115.906 169.995 115.468 169.863 115.069 169.649C114.67 169.435 114.318 169.143 114.034 168.791C110.549 164.672 106.312 161.253 101.549 158.718C94.2244 154.827 85.8998 153.227 77.6549 154.125C69.4099 155.023 61.6251 158.378 55.3103 163.754C53.5452 165.323 51.8705 166.991 50.2943 168.75C50.0002 169.106 49.6382 169.401 49.2295 169.616C48.8208 169.832 48.3734 169.964 47.9133 170.005C47.4531 170.047 46.9893 169.997 46.5486 169.858C46.1079 169.719 45.6992 169.494 45.346 169.196C44.9975 168.891 44.714 168.519 44.5123 168.103C44.3107 167.686 44.1951 167.233 44.1724 166.77C44.1497 166.308 44.2203 165.846 44.3802 165.411C44.54 164.976 44.7857 164.579 45.1027 164.241C52.9211 154.953 63.951 148.951 75.9959 147.429C76.9693 147.3 77.9495 147.192 78.9297 147.152C79.9099 147.111 81.0794 147.138 82.1542 147.138Z" fill="#263238"/>
<path d="M83.3846 160.922C92.781 161.165 101.637 165.174 108.559 173.205C108.877 173.542 109.123 173.941 109.281 174.377C109.439 174.813 109.506 175.277 109.476 175.74C109.447 176.203 109.323 176.655 109.112 177.067C108.9 177.48 108.606 177.845 108.248 178.14C107.901 178.44 107.497 178.667 107.06 178.807C106.623 178.947 106.162 178.996 105.706 178.951C105.249 178.907 104.806 178.77 104.404 178.55C104.002 178.329 103.649 178.028 103.367 177.666C99.8965 173.466 95.2271 170.424 89.9823 168.946C79.092 165.999 69.628 168.689 61.7188 176.767C61.4213 177.072 61.1509 177.396 60.8738 177.707C60.5808 178.055 60.2215 178.342 59.8169 178.55C59.4122 178.758 58.9702 178.884 58.5165 178.919C58.0629 178.955 57.6066 178.901 57.1743 178.759C56.742 178.617 56.3422 178.39 55.9982 178.092C55.6541 177.794 55.3728 177.431 55.1704 177.023C54.968 176.616 54.8486 176.172 54.8192 175.718C54.7898 175.264 54.8509 174.808 54.9991 174.378C55.1472 173.948 55.3794 173.551 55.6821 173.212C58.738 169.587 62.5071 166.63 66.755 164.525C71.6154 162.112 76.7733 160.942 83.3846 160.922Z" fill="#263238"/>
<path d="M98.838 184.419C98.8409 185.115 98.6323 185.795 98.24 186.37C97.8477 186.945 97.2901 187.386 96.641 187.637C95.983 187.898 95.2598 187.945 94.5733 187.773C93.8869 187.601 93.2718 187.218 92.8148 186.677C91.3877 184.993 89.5931 183.658 87.5691 182.777C81.9312 180.384 75.712 181.844 71.5141 186.576C71.0906 187.116 70.5105 187.511 69.8534 187.709C69.1962 187.906 68.4942 187.895 67.8434 187.678C67.304 187.509 66.8146 187.209 66.419 186.806C66.0233 186.402 65.7336 185.907 65.5757 185.364C65.4178 184.822 65.3965 184.248 65.5138 183.695C65.6311 183.142 65.8834 182.627 66.248 182.195C68.1879 179.862 70.6185 177.986 73.3666 176.7C76.1147 175.414 79.1126 174.75 82.1467 174.755C85.1808 174.76 88.1765 175.434 90.9202 176.73C93.6639 178.025 96.0881 179.91 98.02 182.249C98.4409 182.902 98.7814 183.604 99.034 184.338L98.838 184.419Z" fill="#263238"/>
<path d="M82.1476 202.462C80.7815 202.466 79.4451 202.064 78.3078 201.307C77.1705 200.55 76.2836 199.473 75.7596 198.211C75.2356 196.95 75.0982 195.561 75.3647 194.221C75.6312 192.882 76.2897 191.651 77.2565 190.686C78.2234 189.721 79.4552 189.065 80.7955 188.801C82.1358 188.537 83.5243 188.678 84.7848 189.204C86.0453 189.731 87.121 190.62 87.8755 191.758C88.63 192.897 89.0292 194.234 89.0225 195.6C89.0234 196.503 88.8461 197.397 88.5007 198.23C88.1554 199.064 87.6488 199.821 87.0101 200.459C86.3713 201.096 85.613 201.601 84.7785 201.945C83.9441 202.289 83.05 202.464 82.1476 202.462Z" fill="#263238"/>
<path d="M82.188 123.032C72.4647 123.03 62.9594 125.913 54.8743 131.314C46.7892 136.715 40.4873 144.392 36.7658 153.375C33.0442 162.358 32.0701 172.243 33.9667 181.779C35.8633 191.316 40.5454 200.076 47.4207 206.951C54.2961 213.826 63.056 218.508 72.5925 220.405C82.129 222.302 92.0137 221.327 100.997 217.606C109.979 213.884 117.657 207.583 123.058 199.497C128.459 191.412 131.341 181.907 131.34 172.184C131.324 159.153 126.14 146.66 116.926 137.446C107.712 128.232 95.2189 123.048 82.188 123.032ZM39.7892 172.211C39.7784 163.974 42.1685 155.913 46.667 149.013C51.1654 142.114 57.5774 136.675 65.1183 133.362C72.6593 130.049 81.0023 129.006 89.1268 130.36C97.2513 131.714 104.805 135.407 110.864 140.986L50.9635 200.86C43.7735 193.052 39.7844 182.825 39.7892 172.211ZM82.188 214.609C72.6508 214.615 63.3931 211.389 55.9254 205.456L115.413 145.968C120.357 152.213 123.44 159.724 124.309 167.641C125.179 175.558 123.799 183.559 120.328 190.727C116.857 197.896 111.436 203.94 104.686 208.168C97.9367 212.396 90.132 214.635 82.1677 214.63L82.188 214.609Z" fill="#8EC3B0"/>
<path d="M288.99 307.452H282.582L281.209 292.201H290.362L288.99 307.452Z" fill="#263238" stroke="#263238" stroke-miterlimit="10"/>
<path d="M315.678 307.452H309.27L307.898 292.201H317.051L315.678 307.452Z" fill="#263238" stroke="#263238" stroke-miterlimit="10"/>
<path d="M251.628 307.452H245.219L243.854 292.201H253L251.628 307.452Z" fill="#263238" stroke="#263238" stroke-miterlimit="10"/>
<path d="M223.033 307.452H216.631L215.259 292.201H224.405L223.033 307.452Z" fill="#263238" stroke="#263238" stroke-miterlimit="10"/>
<path d="M253.615 193.944H320.215C320.215 193.944 320.478 217.097 317.051 233.49C313.624 249.883 309.426 259.794 309.426 259.794H246.138C246.138 259.794 255.528 223.533 253.615 193.944Z" fill="white" stroke="#263238" stroke-miterlimit="10"/>
<path d="M281.257 197.48C275.416 197.02 273.097 195.844 268.73 193.424C263.045 190.308 261.829 192.383 262.234 195.499C262.64 198.616 256.711 219.159 255.474 229.502C254.237 239.845 254.656 245.408 254.656 245.408C254.656 245.408 251.006 248.525 253.439 249.559C255.005 250.209 256.64 250.674 258.313 250.945H305.403C305.403 250.945 313.772 207.945 314.584 201.029C315.395 194.114 311.744 193.424 309.71 194.458C307.675 195.493 307.276 196.189 304.43 196.534C297.778 197.392 289.261 198.102 281.257 197.48Z" fill="#8EC3B0"/>
<path d="M266.094 198.176C267.312 196.809 268.17 195.159 268.588 193.377C268.02 193.073 267.5 192.822 267.02 192.62C266.708 194.283 265.945 195.828 264.816 197.088C263.973 198.112 262.929 198.952 261.747 199.555C261.625 200.171 261.49 200.84 261.342 201.583C263.207 200.904 264.851 199.725 266.094 198.176Z" fill="white"/>
<path d="M308.256 211.629C305.275 215.13 305.39 218.24 305.498 221.255C305.606 224.067 305.701 226.717 303.146 229.725C300.59 232.734 297.947 233.051 295.155 233.403C292.167 233.768 289.071 234.153 286.097 237.655C283.122 241.156 283.224 244.266 283.339 247.274C283.423 248.507 283.39 249.746 283.237 250.972H284.941C285.07 249.723 285.095 248.466 285.015 247.213C284.914 244.401 284.812 241.745 287.374 238.743C289.936 235.742 292.566 235.411 295.365 235.066C298.353 234.701 301.449 234.315 304.423 230.814C307.398 227.312 307.289 224.202 307.181 221.187C307.073 218.375 306.978 215.719 309.54 212.717C310.508 211.538 311.747 210.61 313.15 210.013C313.265 209.337 313.38 208.715 313.488 208.1C311.433 208.733 309.613 209.961 308.256 211.629Z" fill="white"/>
<path d="M260.416 250.215C263.41 249.843 266.5 249.458 269.481 245.956C272.462 242.455 272.347 239.345 272.239 236.337C272.131 233.525 272.036 230.868 274.591 227.866C277.147 224.865 279.79 224.534 282.582 224.189C285.569 223.817 288.666 223.439 291.64 219.937C294.614 216.435 294.513 213.319 294.398 210.311C294.297 207.499 294.195 204.842 296.757 201.84C299.319 198.839 301.956 198.508 304.748 198.163C307.54 197.818 310.331 197.487 313.089 194.688C312.556 194.29 311.903 194.086 311.237 194.107C309.709 195.355 307.847 196.124 305.883 196.318C305.41 196.425 304.932 196.506 304.45 196.561L302.422 196.797C299.692 197.206 297.214 198.624 295.48 200.772C292.492 204.281 292.607 207.39 292.722 210.399C292.823 213.211 292.924 215.867 290.362 218.876C287.8 221.884 285.171 222.202 282.372 222.546C279.384 222.918 276.288 223.297 273.314 226.798C270.339 230.3 270.447 233.416 270.556 236.425C270.664 239.237 270.758 241.893 268.203 244.895C265.648 247.896 263.005 248.228 260.213 248.572C258.25 248.7 256.328 249.195 254.548 250.032C255.432 250.342 256.335 250.595 257.252 250.79C258.291 250.52 259.348 250.328 260.416 250.215Z" fill="white"/>
<path d="M256.704 235.079C259.685 231.578 259.571 228.468 259.462 225.46C259.361 222.641 259.26 219.991 261.822 216.983C264.384 213.975 267.013 213.657 269.805 213.312C272.793 212.94 275.889 212.555 278.87 209.053C281.852 205.552 281.737 202.442 281.628 199.434C281.628 198.758 281.581 198.143 281.588 197.501H281.257L279.905 197.372C279.905 198.095 279.905 198.805 279.938 199.515C280.047 202.327 280.141 204.984 277.586 207.985C275.031 210.987 272.388 211.318 269.596 211.663C266.608 212.034 263.512 212.413 260.53 215.915C257.549 219.416 257.664 222.526 257.779 225.541C257.881 228.353 257.975 231.01 255.42 234.011C255.278 234.18 255.136 234.336 254.987 234.484C254.92 235.343 254.859 236.154 254.812 236.911C255.506 236.37 256.141 235.756 256.704 235.079Z" fill="white"/>
<path d="M281.257 197.48C275.416 197.02 273.097 195.844 268.73 193.424C263.045 190.308 261.829 192.383 262.234 195.499C262.64 198.616 256.711 219.159 255.474 229.502C254.237 239.845 254.656 245.408 254.656 245.408C254.656 245.408 251.006 248.525 253.439 249.559C255.005 250.209 256.64 250.674 258.313 250.945H305.403C305.403 250.945 313.772 207.945 314.584 201.029C315.395 194.114 311.744 193.424 309.71 194.458C307.675 195.493 307.276 196.189 304.43 196.534C297.778 197.392 289.261 198.102 281.257 197.48Z" stroke="#263238" stroke-miterlimit="10"/>
<path d="M253.615 193.944H249.85C249.167 193.944 248.503 194.174 247.967 194.597C247.431 195.02 247.054 195.612 246.895 196.277L242.218 215.881C241.352 219.517 238.391 229.995 235.133 231.827C233.132 232.95 230.877 233.539 228.583 233.538H214.468L220.471 294.898H246.159L252.919 197.196C252.941 196.971 252.941 196.745 252.919 196.52H253.683L253.615 193.944Z" fill="white" stroke="#263238" stroke-miterlimit="10"/>
<path d="M218.233 233.531H232.355C234.649 233.531 236.904 232.942 238.905 231.821C242.164 229.989 245.118 219.511 245.99 215.874L250.661 196.27C250.82 195.606 251.198 195.015 251.734 194.592C252.27 194.169 252.932 193.939 253.615 193.938C254.031 193.938 254.443 194.023 254.825 194.189C255.207 194.355 255.55 194.598 255.834 194.902C256.118 195.207 256.337 195.566 256.476 195.958C256.615 196.351 256.672 196.767 256.643 197.183L249.714 294.892H224.026L218.233 233.531Z" fill="white" stroke="#263238" stroke-miterlimit="10"/>
<path d="M278.539 294.925L280.006 250.972L221.12 250.451L222.593 294.925H278.539Z" fill="white" stroke="#263238" stroke-miterlimit="10"/>
<path d="M323.98 193.944H320.215C319.532 193.945 318.869 194.176 318.334 194.599C317.798 195.022 317.42 195.613 317.26 196.277L312.583 215.881C311.717 219.517 308.763 229.995 305.498 231.827C303.498 232.951 301.242 233.54 298.948 233.538H284.833L287.3 294.891H316.246L323.243 197.189C323.269 196.965 323.269 196.738 323.243 196.513H324.007L323.98 193.944Z" fill="white" stroke="#263238" stroke-miterlimit="10"/>
<path d="M288.598 233.531H302.72C305.013 233.531 307.269 232.942 309.27 231.821C312.528 229.989 315.489 219.511 316.354 215.874L321.032 196.27C321.19 195.607 321.567 195.016 322.102 194.593C322.636 194.17 323.298 193.939 323.98 193.938C324.396 193.937 324.809 194.022 325.191 194.187C325.573 194.353 325.917 194.596 326.201 194.9C326.486 195.205 326.704 195.565 326.843 195.957C326.982 196.35 327.038 196.767 327.008 197.183L320.14 293.384C320.109 293.789 319.928 294.167 319.631 294.444C319.334 294.721 318.944 294.876 318.538 294.878H290.903L288.598 233.531Z" fill="white" stroke="#263238" stroke-miterlimit="10"/>
<path d="M280.006 237.952L278.512 294.926H290.876L293.026 237.952C293.026 237.371 292.911 236.796 292.689 236.259C292.466 235.722 292.14 235.234 291.728 234.824C291.317 234.413 290.829 234.088 290.292 233.866C289.755 233.644 289.179 233.53 288.598 233.531H284.434C283.853 233.53 283.277 233.644 282.74 233.866C282.203 234.088 281.714 234.413 281.303 234.824C280.892 235.234 280.566 235.722 280.343 236.259C280.12 236.796 280.006 237.371 280.006 237.952Z" fill="white" stroke="#263238" stroke-miterlimit="10"/>
<path d="M208.167 237.952L210.29 294.926H222.654L221.18 237.952C221.18 236.78 220.715 235.655 219.886 234.826C219.056 233.997 217.932 233.531 216.759 233.531H212.595C212.014 233.53 211.439 233.644 210.901 233.866C210.364 234.088 209.876 234.413 209.465 234.824C209.054 235.234 208.727 235.722 208.505 236.259C208.282 236.796 208.167 237.371 208.167 237.952Z" fill="white" stroke="#263238" stroke-miterlimit="10"/>
<path d="M221.417 269.88H279.445" stroke="#263238" stroke-miterlimit="10"/>
<path d="M193.032 194.167C193.032 194.167 187.664 223.992 186.488 229.035C185.312 234.078 182.432 259.787 182.432 266.175C182.432 272.563 182.932 291.863 182.932 291.863C182.932 291.863 180.749 292.87 180.749 293.708C180.749 294.547 182.432 299.927 182.432 299.927L192.342 303.625C192.342 303.625 194.37 298.893 194.526 297.237C194.681 295.581 193.349 294.885 193.349 292.025C193.349 289.166 198.392 255.9 199.907 250.356C201.421 244.813 205.788 228.177 206.626 226.663C207.464 225.148 211.669 214.062 211.669 214.062L214.021 215.238C214.021 215.238 215.529 250.187 216.374 252.371C217.219 254.554 228.488 290.139 228.488 290.139C228.488 290.139 226.642 290.977 227.812 292.998C228.981 295.02 231.003 299.549 231.003 299.549C231.003 299.549 232.855 297.027 235.059 296.527C237.262 296.027 240.94 298.204 240.94 298.204C240.94 298.204 243.123 293.161 242.616 290.815C242.109 288.469 239.912 284.427 239.764 283.251C239.615 282.074 235.032 248.193 235.032 248.193C235.032 248.193 236.208 200.806 236.208 197.615C236.145 195.438 235.748 193.283 235.032 191.227C227.982 193.646 220.627 195.061 213.183 195.431C201.252 195.932 194.701 191.064 194.701 191.064L193.032 194.167Z" fill="#263238" stroke="#263238" stroke-miterlimit="10"/>
<path d="M182.459 299.948C182.459 299.948 176.909 304.984 175.902 305.66C174.895 306.336 167.837 309.04 168.006 310.392C168.175 311.744 170.034 312.575 170.034 312.575H192.89C192.89 312.575 193.052 311.899 193.39 308.709C193.552 306.64 193.206 304.563 192.383 302.659L182.459 299.948Z" fill="white" stroke="#263238" stroke-miterlimit="10"/>
<path d="M193.221 310.122L168.128 310.798C168.56 311.562 169.222 312.17 170.021 312.535H192.876C192.876 312.535 192.991 312.082 193.221 310.122Z" fill="white" stroke="#263238" stroke-miterlimit="10"/>
<path d="M231.016 299.549C231.016 299.549 230.847 303.747 230.847 305.937C230.847 308.128 230.516 310.669 230.678 311.143C230.841 311.616 231.185 312.495 231.185 312.495H244.462C244.462 312.495 244.962 311.143 244.293 308.628C243.624 306.113 242.441 304.768 242.109 302.544C241.853 301.055 241.459 299.593 240.933 298.177C240.933 298.177 234.376 292.999 231.016 299.549Z" fill="white" stroke="#263238" stroke-miterlimit="10"/>
<path d="M244.638 310.899C239.588 310.899 233.301 310.737 230.631 310.669C230.63 310.828 230.646 310.987 230.678 311.143C230.847 311.65 231.185 312.495 231.185 312.495H244.462C244.608 311.976 244.667 311.437 244.638 310.899Z" fill="white" stroke="#263238" stroke-miterlimit="10"/>
<path d="M188.266 130.9C188.266 130.9 173.989 144.305 174.611 145.556C175.233 146.807 179.14 156.953 179.14 156.953C179.14 156.953 180.262 163.713 179.64 167.979C179.26 170.676 179.133 173.404 179.262 176.125C180.574 177.779 182.178 179.179 183.994 180.255C186.752 181.763 188.881 184.392 190.639 180.133C192.396 175.875 191.639 168.229 191.639 168.229C191.639 168.229 194.012 177.504 194.411 179.14C194.81 180.776 193.059 194.174 193.059 194.174C193.059 194.174 201.671 201.448 216.32 199.798C230.969 198.149 235.613 193.038 235.613 193.038C235.613 193.038 234.106 176.625 234.106 174.746C234.091 173.447 234.008 172.149 233.855 170.859C233.855 170.859 238.993 176.125 241.501 175.875C244.009 175.625 248.389 165.349 247.261 163.707C246.132 162.064 242.251 155.426 239.872 150.667C238.437 147.798 237.244 144.816 236.303 141.75C236.303 141.75 232.165 127.716 230.895 126.716C229.624 125.715 215.549 125.871 213.041 125.249C209.73 124.597 206.382 124.146 203.016 123.897C202.178 123.884 191.024 126.513 188.266 130.9Z" fill="#8EC3B0" stroke="#263238" stroke-miterlimit="10"/>
<path d="M230.381 149.66C230.313 146.063 230.3 143.265 230.3 143.265" stroke="#263238" stroke-miterlimit="10"/>
<path d="M233.896 170.859C232.94 168.909 232.104 166.902 231.395 164.849C230.895 163.355 230.631 158.022 230.489 153.026" stroke="#263238" stroke-miterlimit="10"/>
<path d="M184.501 156.021C183.223 153.79 182.25 152.046 182.128 151.694" stroke="#263238" stroke-miterlimit="10"/>
<path d="M191.653 168.229C191.653 168.229 188.449 162.821 185.758 158.197" stroke="#263238" stroke-miterlimit="10"/>
<path d="M207.938 125.635C208.454 130.045 208.497 134.498 208.066 138.918" stroke="#263238" stroke-miterlimit="10"/>
<path d="M216.367 187.468C217.875 187.772 219.49 188.05 221.214 188.273" stroke="#263238" stroke-miterlimit="10"/>
<path d="M198.163 179.383C198.163 179.383 202.219 183.831 213.035 186.684" stroke="#263238" stroke-miterlimit="10"/>
<path d="M209.188 188.901C213.833 190.986 218.882 192.013 223.972 191.91" stroke="#263238" stroke-miterlimit="10"/>
<path d="M179.248 110.6C179.248 110.6 180.749 117.617 180.877 119.124C181.006 120.632 181.377 122.633 183.257 125.634C185.136 128.636 190.017 135.281 191.024 135.659C192.031 136.038 195.911 135.031 195.911 135.031C195.911 135.031 200.042 143.177 201.171 142.926C202.3 142.676 205.179 133.402 205.558 129.643C205.797 127.773 205.837 125.883 205.68 124.005L203.929 117.745C203.929 117.745 202.428 108.957 202.428 108.349C202.428 107.741 203.3 103.211 198.419 101.332C193.539 99.4528 187.516 99.3041 183.507 103.962C179.498 108.619 179.248 110.6 179.248 110.6Z" fill="white" stroke="#263238" stroke-miterlimit="10"/>
<path d="M192.66 102.711C190.903 105.378 188.599 107.641 185.9 109.35C181.269 112.358 183.521 109.1 183.521 109.1C183.521 109.1 180.262 111.128 177.633 112.48C175.003 113.832 176.003 114.237 175.003 113.832C174.002 113.426 170.271 102.759 178.647 97.6076C187.022 92.4564 193.133 93.8152 193.133 93.8152C193.133 93.8152 189.496 92.186 192.755 92.186C196.013 92.186 197.392 93.9639 197.392 93.9639C197.392 93.9639 199.143 93.4637 199.893 94.4642C200.222 94.8215 200.632 95.093 201.09 95.2551C205.146 96.9721 206.559 100.812 207.322 104.82C207.823 107.45 205.693 113.717 205.693 113.717L202.178 115.596C201.326 114.82 200.637 113.882 200.15 112.838C199.83 111.825 199.661 110.77 199.65 109.708C199.65 109.708 197.52 112.459 197.142 110.458C196.763 108.457 195.79 103.32 195.79 103.32C195.79 103.32 196.168 105.348 194.918 105.348C193.667 105.348 192.66 102.711 192.66 102.711Z" fill="#263238" stroke="#263238" stroke-miterlimit="10"/>
<path d="M201.921 116.488C201.921 116.488 201.799 112.23 204.307 110.851C206.815 109.472 208.566 110.979 207.809 114.988C207.052 118.996 202.55 120.497 202.55 120.497" fill="white"/>
<path d="M201.921 116.488C201.921 116.488 201.799 112.23 204.307 110.851C206.815 109.472 208.566 110.979 207.809 114.988C207.052 118.996 202.55 120.497 202.55 120.497" stroke="#263238" stroke-miterlimit="10"/>
<path d="M195.912 135.031L202.55 128.393L198.163 138.539L195.912 135.031Z" fill="#263238" stroke="#263238" stroke-miterlimit="10"/>
<path d="M192.842 128.318C192.983 128.564 193.026 128.854 192.962 129.129C192.898 129.405 192.732 129.647 192.498 129.805C192.045 129.988 191.47 129.616 191.213 128.974C190.956 128.332 191.112 127.663 191.558 127.48C192.004 127.297 192.579 127.676 192.842 128.318Z" fill="#263238"/>
<path d="M194.573 116.718C194.816 117.516 194.641 118.273 194.188 118.415C193.735 118.557 193.153 118.023 192.91 117.232C192.667 116.441 192.842 115.684 193.295 115.542C193.748 115.4 194.33 115.927 194.573 116.718Z" fill="#263238"/>
<path d="M186.346 118.11C186.589 118.908 186.414 119.665 185.954 119.807C185.494 119.949 184.926 119.422 184.683 118.624C184.44 117.827 184.609 117.076 185.068 116.934C185.528 116.792 186.096 117.32 186.346 118.11Z" fill="#263238"/>
<path d="M186.644 114.987C187.199 115.442 187.645 116.016 187.948 116.667C188.252 117.317 188.404 118.028 188.394 118.746C188.394 121.254 188.016 125.012 188.016 125.012L192.532 124.384" stroke="#263238" stroke-miterlimit="10"/>
<path d="M189.645 113.358C189.645 113.358 191.903 109.35 195.411 110.1" stroke="#263238" stroke-miterlimit="10"/>
<path d="M185.636 114.109C185.636 114.109 182.885 113.236 181.006 114.359" stroke="#263238" stroke-miterlimit="10"/>
<path d="M262.288 146.307C262.288 146.307 265.046 145.306 266.047 144.955C267.047 144.603 268.075 145.205 269.805 144.333C271.536 143.461 273.564 141.696 273.692 142.981C273.821 144.265 273.185 144.731 272.185 145.36C271.184 145.989 269.555 147.239 269.555 147.239L269.055 148.49L261.538 147.868C261.538 147.868 261.68 146.692 262.288 146.307Z" fill="white" stroke="#263238" stroke-miterlimit="10"/>
<path d="M277.396 149.545C277.396 149.545 280.851 146.807 281.351 145.556C281.851 144.306 280.973 144.204 280.1 144.678C279.228 145.151 276.484 147.436 276.484 147.436L277.396 149.545Z" fill="white" stroke="#263238" stroke-miterlimit="10"/>
<path d="M274.571 150.14C274.571 150.14 277.14 150.41 277.397 149.545C277.653 148.68 279.681 143.231 279.35 142.548C279.019 141.865 278.377 141.926 277.667 143.055C276.908 144.603 276.253 146.199 275.707 147.835C275.707 147.835 273.989 148.22 273.557 149.396C273.124 150.572 274.571 150.14 274.571 150.14Z" fill="white" stroke="#263238" stroke-miterlimit="10"/>
<path d="M271.326 150.816C271.326 150.816 273.712 151.823 274.213 151.066C274.713 150.309 278.221 145.658 278.093 144.928C277.965 144.198 277.343 144.056 276.342 144.928C275.166 146.188 274.077 147.527 273.084 148.936C273.084 148.936 271.326 148.815 270.576 149.815C269.825 150.816 271.326 150.816 271.326 150.816Z" fill="white" stroke="#263238" stroke-miterlimit="10"/>
<path d="M236.377 171.366C237.367 167.358 239.885 163.896 243.394 161.719C249.403 157.832 257.556 150.816 257.556 150.816C257.556 150.816 260.314 146.935 262.288 146.307C264.262 145.678 270.806 147.557 270.806 147.557C270.806 147.557 276.072 142.298 276.214 143.427C276.355 144.556 273.712 148.564 272.455 150.065C271.198 151.566 267.317 151.944 266.445 151.944C264.894 151.991 263.346 152.118 261.808 152.323C261.308 152.445 253.02 163.72 249.282 169.223C245.543 174.726 243.874 175.733 241.514 175.861C239.155 175.99 236.627 174.104 235.998 173.232C235.37 172.36 236.377 171.366 236.377 171.366Z" fill="white" stroke="#263238" stroke-miterlimit="10"/>
<path d="M158.028 150.626L165.924 167.756C166.046 168 166.243 168.198 166.487 168.32C166.731 168.442 167.008 168.481 167.276 168.432L173.827 167.222C174.008 167.187 174.18 167.112 174.33 167.002C174.479 166.892 174.602 166.751 174.69 166.588C174.778 166.425 174.829 166.245 174.838 166.06C174.848 165.875 174.816 165.69 174.746 165.518L167.648 148.801C167.545 148.554 167.365 148.347 167.135 148.212C166.904 148.077 166.636 148.02 166.37 148.051L159.009 148.869C158.814 148.892 158.627 148.961 158.464 149.071C158.301 149.18 158.166 149.326 158.071 149.498C157.975 149.669 157.922 149.861 157.914 150.057C157.907 150.253 157.946 150.448 158.028 150.626Z" fill="#263238" stroke="#263238" stroke-miterlimit="10"/>
<path d="M163.213 165.289C163.213 165.289 160.381 160.949 160.381 159.975C160.381 159.002 162.03 156.697 162.997 154.615C163.964 152.533 164.112 151.14 164.944 151.424C165.775 151.708 165.62 152.533 165.356 153.918C164.848 155.706 164.248 157.466 163.558 159.191L163.835 160.861C164.505 159.51 165.343 158.249 166.33 157.109C167.58 155.865 168.966 153.783 169.939 154.195C170.913 154.608 171.325 154.871 170.494 155.865C169.45 157.116 168.514 158.452 167.695 159.86C166.961 161.062 166.33 162.324 165.809 163.632C166.738 162.743 167.725 161.916 168.763 161.158C170.115 160.185 172.022 158.779 172.819 159.333C173.617 159.887 173.793 160.442 172.961 161.138C172.13 161.834 171.373 162.307 170.257 163.281C169.094 164.442 168.001 165.673 166.985 166.965C167.976 166.2 169.08 165.593 170.257 165.167C172.616 164.2 174.773 164.308 174.861 165.052C174.949 165.796 172.38 166.472 172.38 166.472C170.541 166.891 170.453 167.519 170.453 167.519C170.453 167.519 171.981 170.575 171.704 171.575C171.704 171.575 177.869 170.609 180.228 169.919C182.587 169.23 186.272 170.595 187.387 171.711C189.746 174.07 190.855 177.68 189.611 180.735C188.367 183.791 188.36 182.817 178.504 180.059C168.648 177.301 168.838 176.314 166.431 172.285C165.559 170.717 163.213 165.289 163.213 165.289Z" fill="white" stroke="#263238" stroke-miterlimit="10"/>
<path d="M171.744 171.548L171.535 174.09" stroke="#263238" stroke-miterlimit="10"/>
<path d="M48.858 239V231.421H50.596L53.324 237.823H53.544V231.421H54.6V239H52.895L50.123 232.587H49.914V239H48.858ZM58.3811 239.11C57.7651 239.11 57.2811 239.007 56.9291 238.802C56.5771 238.589 56.3277 238.267 56.1811 237.834C56.0344 237.401 55.9611 236.851 55.9611 236.184C55.9611 235.546 56.0381 235.022 56.1921 234.611C56.3534 234.2 56.6101 233.892 56.9621 233.687C57.3214 233.482 57.7944 233.379 58.3811 233.379C58.9751 233.379 59.4481 233.482 59.8001 233.687C60.1521 233.892 60.4051 234.2 60.5591 234.611C60.7204 235.022 60.8011 235.546 60.8011 236.184C60.8011 236.851 60.7277 237.401 60.5811 237.834C60.4417 238.267 60.1961 238.589 59.8441 238.802C59.4921 239.007 59.0044 239.11 58.3811 239.11ZM58.3811 238.241C58.7697 238.241 59.0631 238.171 59.2611 238.032C59.4591 237.893 59.5911 237.673 59.6571 237.372C59.7231 237.064 59.7561 236.668 59.7561 236.184C59.7561 235.707 59.7157 235.33 59.6351 235.051C59.5544 234.765 59.4151 234.56 59.2171 234.435C59.0191 234.31 58.7404 234.248 58.3811 234.248C58.0291 234.248 57.7504 234.31 57.5451 234.435C57.3471 234.56 57.2077 234.765 57.1271 235.051C57.0464 235.33 57.0061 235.707 57.0061 236.184C57.0061 236.668 57.0391 237.064 57.1051 237.372C57.1711 237.673 57.2994 237.893 57.4901 238.032C57.6881 238.171 57.9851 238.241 58.3811 238.241ZM66.5646 239.11C65.9706 239.11 65.5049 239.015 65.1676 238.824C64.8302 238.626 64.5919 238.311 64.4526 237.878C64.3132 237.445 64.2436 236.877 64.2436 236.173C64.2436 235.491 64.3206 234.948 64.4746 234.545C64.6286 234.134 64.8779 233.837 65.2226 233.654C65.5672 233.471 66.0182 233.379 66.5756 233.379C66.7076 233.379 66.8652 233.39 67.0486 233.412C67.2392 233.427 67.4299 233.449 67.6206 233.478C67.8186 233.507 67.9872 233.533 68.1266 233.555L68.0936 234.391C67.9689 234.376 67.8222 234.362 67.6536 234.347C67.4849 234.332 67.3236 234.321 67.1696 234.314C67.0156 234.299 66.8872 234.292 66.7846 234.292C66.3886 234.292 66.0806 234.354 65.8606 234.479C65.6479 234.604 65.4976 234.802 65.4096 235.073C65.3289 235.344 65.2886 235.711 65.2886 236.173C65.2886 236.672 65.3252 237.071 65.3986 237.372C65.4792 237.665 65.6259 237.878 65.8386 238.01C66.0512 238.135 66.3666 238.197 66.7846 238.197C66.8872 238.197 67.0156 238.193 67.1696 238.186C67.3309 238.171 67.4959 238.157 67.6646 238.142C67.8406 238.127 67.9909 238.116 68.1156 238.109L68.1486 238.945C68.0019 238.967 67.8296 238.989 67.6316 239.011C67.4409 239.04 67.2502 239.062 67.0596 239.077C66.8689 239.099 66.7039 239.11 66.5646 239.11ZM71.4865 239.11C70.8705 239.11 70.3865 239.007 70.0345 238.802C69.6825 238.589 69.4332 238.267 69.2865 237.834C69.1399 237.401 69.0665 236.851 69.0665 236.184C69.0665 235.546 69.1435 235.022 69.2975 234.611C69.4589 234.2 69.7155 233.892 70.0675 233.687C70.4269 233.482 70.8999 233.379 71.4865 233.379C72.0805 233.379 72.5535 233.482 72.9055 233.687C73.2575 233.892 73.5105 234.2 73.6645 234.611C73.8259 235.022 73.9065 235.546 73.9065 236.184C73.9065 236.851 73.8332 237.401 73.6865 237.834C73.5472 238.267 73.3015 238.589 72.9495 238.802C72.5975 239.007 72.1099 239.11 71.4865 239.11ZM71.4865 238.241C71.8752 238.241 72.1685 238.171 72.3665 238.032C72.5645 237.893 72.6965 237.673 72.7625 237.372C72.8285 237.064 72.8615 236.668 72.8615 236.184C72.8615 235.707 72.8212 235.33 72.7405 235.051C72.6599 234.765 72.5205 234.56 72.3225 234.435C72.1245 234.31 71.8459 234.248 71.4865 234.248C71.1345 234.248 70.8559 234.31 70.6505 234.435C70.4525 234.56 70.3132 234.765 70.2325 235.051C70.1519 235.33 70.1115 235.707 70.1115 236.184C70.1115 236.668 70.1445 237.064 70.2105 237.372C70.2765 237.673 70.4049 237.893 70.5955 238.032C70.7935 238.171 71.0905 238.241 71.4865 238.241ZM75.1628 239V233.489H76.1858V233.874C76.3031 233.801 76.4534 233.727 76.6368 233.654C76.8201 233.581 77.0144 233.518 77.2198 233.467C77.4251 233.408 77.6231 233.379 77.8138 233.379C78.3271 233.379 78.7194 233.471 78.9908 233.654C79.2621 233.83 79.4491 234.12 79.5518 234.523C79.6618 234.919 79.7168 235.443 79.7168 236.096V239H78.6828V236.151C78.6828 235.696 78.6571 235.333 78.6058 235.062C78.5544 234.791 78.4518 234.596 78.2978 234.479C78.1438 234.354 77.9128 234.292 77.6048 234.292C77.4361 234.292 77.2601 234.31 77.0768 234.347C76.9008 234.384 76.7321 234.431 76.5708 234.49C76.4168 234.549 76.2884 234.604 76.1858 234.655V239H75.1628ZM81.1247 239V233.489H82.1477V233.874C82.265 233.801 82.4154 233.727 82.5987 233.654C82.782 233.581 82.9764 233.518 83.1817 233.467C83.387 233.408 83.585 233.379 83.7757 233.379C84.289 233.379 84.6814 233.471 84.9527 233.654C85.224 233.83 85.411 234.12 85.5137 234.523C85.6237 234.919 85.6787 235.443 85.6787 236.096V239H84.6447V236.151C84.6447 235.696 84.619 235.333 84.5677 235.062C84.5164 234.791 84.4137 234.596 84.2597 234.479C84.1057 234.354 83.8747 234.292 83.5667 234.292C83.398 234.292 83.222 234.31 83.0387 234.347C82.8627 234.384 82.694 234.431 82.5327 234.49C82.3787 234.549 82.2504 234.604 82.1477 234.655V239H81.1247ZM89.1106 239.11C88.5459 239.11 88.0986 239.007 87.7686 238.802C87.4459 238.589 87.2113 238.274 87.0646 237.856C86.9179 237.438 86.8446 236.914 86.8446 236.283C86.8446 235.594 86.9399 235.036 87.1306 234.611C87.3286 234.186 87.6036 233.874 87.9556 233.676C88.3076 233.478 88.7293 233.379 89.2206 233.379C89.9759 233.379 90.5443 233.584 90.9256 233.995C91.3143 234.398 91.5086 235.051 91.5086 235.953L91.4536 236.646H87.8896C87.8969 237.174 87.9959 237.574 88.1866 237.845C88.3773 238.109 88.7219 238.241 89.2206 238.241C89.4333 238.241 89.6643 238.237 89.9136 238.23C90.1703 238.215 90.4233 238.201 90.6726 238.186C90.9219 238.171 91.1346 238.157 91.3106 238.142L91.3326 238.912C91.1493 238.941 90.9293 238.971 90.6726 239C90.4159 239.037 90.1483 239.062 89.8696 239.077C89.5983 239.099 89.3453 239.11 89.1106 239.11ZM87.8896 235.887H90.4856C90.4856 235.264 90.3829 234.827 90.1776 234.578C89.9796 234.329 89.6606 234.204 89.2206 234.204C88.7879 234.204 88.4579 234.332 88.2306 234.589C88.0033 234.846 87.8896 235.278 87.8896 235.887ZM94.795 239.11C94.201 239.11 93.7354 239.015 93.398 238.824C93.0607 238.626 92.8224 238.311 92.683 237.878C92.5437 237.445 92.474 236.877 92.474 236.173C92.474 235.491 92.551 234.948 92.705 234.545C92.859 234.134 93.1084 233.837 93.453 233.654C93.7977 233.471 94.2487 233.379 94.806 233.379C94.938 233.379 95.0957 233.39 95.279 233.412C95.4697 233.427 95.6604 233.449 95.851 233.478C96.049 233.507 96.2177 233.533 96.357 233.555L96.324 234.391C96.1994 234.376 96.0527 234.362 95.884 234.347C95.7154 234.332 95.554 234.321 95.4 234.314C95.246 234.299 95.1177 234.292 95.015 234.292C94.619 234.292 94.311 234.354 94.091 234.479C93.8784 234.604 93.728 234.802 93.64 235.073C93.5594 235.344 93.519 235.711 93.519 236.173C93.519 236.672 93.5557 237.071 93.629 237.372C93.7097 237.665 93.8564 237.878 94.069 238.01C94.2817 238.135 94.597 238.197 95.015 238.197C95.1177 238.197 95.246 238.193 95.4 238.186C95.5614 238.171 95.7264 238.157 95.895 238.142C96.071 238.127 96.2214 238.116 96.346 238.109L96.379 238.945C96.2324 238.967 96.06 238.989 95.862 239.011C95.6714 239.04 95.4807 239.062 95.29 239.077C95.0994 239.099 94.9344 239.11 94.795 239.11ZM99.376 239.121C98.9873 239.121 98.6757 239.062 98.441 238.945C98.2137 238.828 98.0487 238.626 97.946 238.34C97.8507 238.047 97.803 237.636 97.803 237.108V234.358H97.055V233.489H97.803V231.872H98.815V233.489H100.454V234.358H98.815V236.822C98.815 237.181 98.8297 237.464 98.859 237.669C98.8957 237.867 98.9653 238.006 99.068 238.087C99.1707 238.168 99.332 238.208 99.552 238.208C99.6253 238.208 99.717 238.208 99.827 238.208C99.937 238.201 100.051 238.193 100.168 238.186C100.285 238.171 100.388 238.16 100.476 238.153L100.531 238.989C100.362 239.018 100.164 239.048 99.937 239.077C99.7097 239.106 99.5227 239.121 99.376 239.121ZM101.406 239V233.489H102.429V239H101.406ZM101.406 232.378V231.311H102.429V232.378H101.406ZM106.087 239.11C105.471 239.11 104.987 239.007 104.635 238.802C104.283 238.589 104.034 238.267 103.887 237.834C103.74 237.401 103.667 236.851 103.667 236.184C103.667 235.546 103.744 235.022 103.898 234.611C104.059 234.2 104.316 233.892 104.668 233.687C105.027 233.482 105.5 233.379 106.087 233.379C106.681 233.379 107.154 233.482 107.506 233.687C107.858 233.892 108.111 234.2 108.265 234.611C108.426 235.022 108.507 235.546 108.507 236.184C108.507 236.851 108.434 237.401 108.287 237.834C108.148 238.267 107.902 238.589 107.55 238.802C107.198 239.007 106.71 239.11 106.087 239.11ZM106.087 238.241C106.476 238.241 106.769 238.171 106.967 238.032C107.165 237.893 107.297 237.673 107.363 237.372C107.429 237.064 107.462 236.668 107.462 236.184C107.462 235.707 107.422 235.33 107.341 235.051C107.26 234.765 107.121 234.56 106.923 234.435C106.725 234.31 106.446 234.248 106.087 234.248C105.735 234.248 105.456 234.31 105.251 234.435C105.053 234.56 104.914 234.765 104.833 235.051C104.752 235.33 104.712 235.707 104.712 236.184C104.712 236.668 104.745 237.064 104.811 237.372C104.877 237.673 105.005 237.893 105.196 238.032C105.394 238.171 105.691 238.241 106.087 238.241ZM109.763 239V233.489H110.786V233.874C110.904 233.801 111.054 233.727 111.237 233.654C111.421 233.581 111.615 233.518 111.82 233.467C112.026 233.408 112.224 233.379 112.414 233.379C112.928 233.379 113.32 233.471 113.591 233.654C113.863 233.83 114.05 234.12 114.152 234.523C114.262 234.919 114.317 235.443 114.317 236.096V239H113.283V236.151C113.283 235.696 113.258 235.333 113.206 235.062C113.155 234.791 113.052 234.596 112.898 234.479C112.744 234.354 112.513 234.292 112.205 234.292C112.037 234.292 111.861 234.31 111.677 234.347C111.501 234.384 111.333 234.431 111.171 234.49C111.017 234.549 110.889 234.604 110.786 234.655V239H109.763Z" fill="black"/>
</svg>
