<svg width="378" height="378" viewBox="0 0 378 378" fill="none" xmlns="http://www.w3.org/2000/svg">
<path d="M378 289.094H0V289.283H378V289.094Z" fill="#EBEBEB"/>
<path d="M324.861 294.243H251.075V294.432H324.861V294.243Z" fill="#EBEBEB"/>
<path d="M253.766 298.612H218.484V298.801H253.766V298.612Z" fill="#EBEBEB"/>
<path d="M340.124 301.258H325.617V301.447H340.124V301.258Z" fill="#EBEBEB"/>
<path d="M165.564 298.703H95.6113V298.892H165.564V298.703Z" fill="#EBEBEB"/>
<path d="M88.883 298.703H73.8386V298.892H88.883V298.703Z" fill="#EBEBEB"/>
<path d="M68.5314 295.513H43.6892V295.702H68.5314V295.513Z" fill="#EBEBEB"/>
<path d="M179.172 255.377H33.1959C32.0524 255.375 30.9563 254.919 30.1484 254.11C29.3405 253.301 28.8867 252.204 28.8867 251.06V45.859C28.8967 44.722 29.3548 43.6349 30.1617 42.8337C30.9685 42.0325 32.0589 41.582 33.1959 41.5801H179.172C180.317 41.5801 181.415 42.0349 182.224 42.8444C183.034 43.654 183.489 44.752 183.489 45.8968V251.06C183.489 252.205 183.034 253.303 182.224 254.113C181.415 254.922 180.317 255.377 179.172 255.377ZM33.1959 41.7313C32.1025 41.7333 31.0545 42.1691 30.282 42.9429C29.5096 43.7168 29.0757 44.7656 29.0757 45.859V251.06C29.0757 252.154 29.5096 253.202 30.282 253.976C31.0545 254.75 32.1025 255.186 33.1959 255.188H179.172C180.266 255.186 181.315 254.75 182.089 253.977C182.862 253.203 183.298 252.154 183.3 251.06V45.859C183.298 44.7649 182.862 43.7162 182.089 42.9425C181.315 42.1688 180.266 41.7333 179.172 41.7313H33.1959Z" fill="#EBEBEB"/>
<path d="M342.702 255.377H196.719C195.575 255.375 194.478 254.919 193.669 254.11C192.86 253.301 192.404 252.204 192.402 251.06V45.859C192.414 44.7213 192.874 43.6342 193.682 42.8332C194.49 42.0322 195.581 41.582 196.719 41.5801H342.702C343.838 41.584 344.927 42.0354 345.732 42.8363C346.537 43.6373 346.994 44.7233 347.004 45.859V251.06C347.004 252.202 346.551 253.298 345.745 254.107C344.939 254.916 343.845 255.373 342.702 255.377ZM196.719 41.7313C195.625 41.7333 194.576 42.1688 193.802 42.9425C193.029 43.7162 192.593 44.7649 192.591 45.859V251.06C192.593 252.154 193.029 253.203 193.802 253.977C194.576 254.75 195.625 255.186 196.719 255.188H342.702C343.797 255.186 344.845 254.75 345.619 253.977C346.393 253.203 346.828 252.154 346.83 251.06V45.859C346.828 44.7649 346.393 43.7162 345.619 42.9425C344.845 42.1688 343.797 41.7333 342.702 41.7313H196.719Z" fill="#EBEBEB"/>
<path d="M295.649 282.132H67.3067L53.6912 127.243H282.033L295.649 282.132Z" fill="#F0F0F0"/>
<path d="M63.2772 287.069L67.3067 282.132L53.6911 127.243L49.6616 132.255L63.2772 287.069Z" fill="#E0E0E0"/>
<path d="M70.308 276.257L57.7811 133.577C57.7507 133.222 57.7944 132.865 57.9094 132.527C58.0243 132.19 58.2081 131.88 58.4489 131.617C58.6898 131.354 58.9825 131.144 59.3087 131C59.6349 130.856 59.9874 130.781 60.3439 130.78H276.454C277.097 130.778 277.718 131.018 278.193 131.452C278.668 131.886 278.962 132.483 279.017 133.124L291.559 275.804C291.59 276.159 291.548 276.517 291.433 276.855C291.319 277.193 291.135 277.504 290.894 277.767C290.653 278.03 290.359 278.24 290.033 278.384C289.706 278.527 289.353 278.601 288.996 278.601H72.886C72.24 278.607 71.6155 278.369 71.1375 277.935C70.6595 277.5 70.3632 276.901 70.308 276.257Z" fill="#FAFAFA"/>
<path d="M99.4065 282.132H65.001L62.5667 289.095H96.9722L99.4065 282.132Z" fill="#E0E0E0"/>
<path d="M99.4065 282.132H325.617L323.182 289.095H96.9722L99.4065 282.132Z" fill="#F5F5F5"/>
<path d="M192.553 282.132H235.917L235.449 286.691H192.092L192.553 282.132Z" fill="#E0E0E0"/>
<path d="M258.265 117.074H313.052C317.588 147.133 296.594 171.862 266.535 171.862C256.579 171.774 246.794 169.254 238.034 164.521L258.265 117.074Z" fill="#E0E0E0"/>
<path d="M258.265 117.074L287.136 75.1089C294.031 80.2362 299.895 86.6205 304.418 93.9257C308.823 100.983 311.76 108.856 313.052 117.074H258.265Z" fill="#EBEBEB"/>
<path d="M258.265 117.074L249.987 62.2871C256.539 62.3142 263.042 63.4332 269.227 65.5984C275.65 67.8301 281.69 71.0379 287.136 75.1089L258.265 117.074Z" fill="#E6E6E6"/>
<path d="M258.265 117.074L238.034 164.521C219.625 154.753 206.426 136.625 203.477 117.074C198.941 87.0234 219.928 62.2871 249.986 62.2871L258.265 117.074Z" fill="#F0F0F0"/>
<path d="M190.625 214.848H239.229C239.871 219.011 239.952 223.242 239.471 227.427C239.013 231.462 237.974 235.409 236.386 239.145L190.625 214.848Z" fill="#EBEBEB"/>
<path d="M190.625 214.848L191.843 166.985C203.744 169.16 214.679 174.971 223.141 183.617C231.805 192.364 237.505 203.432 239.229 214.855L190.625 214.848Z" fill="#E0E0E0"/>
<path d="M190.625 214.848L147.473 231.48C144.766 226.269 142.927 220.651 142.03 214.848C138 188.184 156.628 166.245 183.285 166.245C186.154 166.254 189.016 166.506 191.843 167.001L190.625 214.848Z" fill="#F0F0F0"/>
<path d="M190.625 214.848L236.386 239.145C229.983 254.167 215.309 263.443 197.974 263.443C177.562 263.443 157.339 250.591 147.473 231.472L190.625 214.848Z" fill="white"/>
<path d="M189 323.235C269.954 323.235 335.581 319.404 335.581 314.678C335.581 309.951 269.954 306.12 189 306.12C108.046 306.12 42.4192 309.951 42.4192 314.678C42.4192 319.404 108.046 323.235 189 323.235Z" fill="#F5F5F5"/>
<path d="M181.886 180.979H113.785C111.653 180.937 109.61 180.114 108.044 178.667C106.477 177.219 105.497 175.247 105.288 173.124L101.878 131.257C101.779 130.254 101.893 129.242 102.212 128.286C102.531 127.33 103.048 126.453 103.73 125.711C104.411 124.968 105.242 124.379 106.167 123.979C107.092 123.58 108.091 123.381 109.098 123.394H177.191C179.325 123.436 181.369 124.26 182.935 125.709C184.502 127.158 185.482 129.133 185.689 131.257L189.098 173.124C189.197 174.126 189.084 175.137 188.765 176.092C188.446 177.046 187.93 177.923 187.249 178.665C186.568 179.406 185.739 179.995 184.814 180.394C183.89 180.793 182.892 180.992 181.886 180.979Z" fill="white"/>
<path d="M181.886 181.304H113.785C111.566 181.265 109.439 180.409 107.811 178.9C106.183 177.391 105.169 175.334 104.963 173.124L101.553 131.249C101.451 130.201 101.571 129.142 101.906 128.143C102.241 127.145 102.783 126.228 103.497 125.453C104.21 124.678 105.079 124.062 106.047 123.646C107.015 123.23 108.06 123.023 109.113 123.039H177.206C179.422 123.077 181.547 123.93 183.174 125.434C184.801 126.939 185.817 128.99 186.029 131.196L189.423 173.124C189.526 174.172 189.405 175.231 189.07 176.23C188.736 177.228 188.194 178.145 187.48 178.92C186.766 179.695 185.897 180.311 184.929 180.727C183.961 181.143 182.917 181.35 181.863 181.334L181.886 181.304ZM109.098 123.719C108.136 123.701 107.18 123.888 106.295 124.267C105.409 124.646 104.615 125.208 103.963 125.917C103.311 126.626 102.817 127.465 102.514 128.379C102.211 129.293 102.105 130.261 102.204 131.219L105.613 173.124C105.81 175.168 106.751 177.068 108.258 178.462C109.765 179.856 111.733 180.647 113.785 180.684H181.886C182.854 180.702 183.814 180.513 184.703 180.13C185.592 179.747 186.389 179.179 187.041 178.463C187.693 177.748 188.185 176.901 188.483 175.98C188.782 175.06 188.881 174.086 188.773 173.124L185.364 131.249C185.167 129.205 184.226 127.305 182.719 125.911C181.211 124.517 179.244 123.726 177.191 123.689L109.098 123.719Z" fill="#8EC3B0"/>
<path d="M163.402 168.754C160.699 171.67 157.231 173.766 153.392 174.802L152.266 171.612C160.65 169.344 166.327 161.497 165.571 152.206C165.085 146.759 162.573 141.693 158.533 138.008L160.703 135.642C170.531 144.706 171.748 159.66 163.402 168.754Z" fill="#E0E0E0"/>
<path d="M160.703 135.619L158.533 137.985C154.553 134.248 149.311 132.148 143.852 132.103C141.281 132.072 138.733 132.58 136.371 133.594C134.008 134.609 131.885 136.107 130.138 137.992L127.575 135.619C129.619 133.425 132.098 131.682 134.854 130.5C137.61 129.318 140.581 128.723 143.579 128.754C149.946 128.815 156.057 131.265 160.703 135.619Z" fill="#263238"/>
<path d="M153.392 174.817C145.492 176.972 136.662 174.659 130.274 168.769C120.446 159.697 119.229 144.721 127.575 135.634L130.138 138.008C128.406 139.914 127.092 142.161 126.278 144.604C125.464 147.048 125.17 149.634 125.413 152.198C126.312 163.288 136.035 172.277 147.125 172.277C148.861 172.281 150.589 172.055 152.266 171.604L153.392 174.817Z" fill="#8EC3B0"/>
<path d="M89.1248 55.7095H83.6665V56.3672H89.1248V55.7095Z" fill="#8EC3B0"/>
<path d="M78.3669 55.7095H65.9382V56.3672H78.3669V55.7095Z" fill="#8EC3B0"/>
<path d="M136.186 115.887H68.0928C65.9598 115.847 63.9158 115.025 62.3492 113.577C60.7826 112.129 59.8026 110.155 59.5954 108.032L56.1858 66.1573C56.0867 65.155 56.2004 64.1431 56.5195 63.1878C56.8386 62.2325 57.3559 61.3553 58.0375 60.6138C58.719 59.8722 59.5496 59.283 60.4747 58.8847C61.3998 58.4864 62.3986 58.288 63.4056 58.3025H131.499C133.631 58.3441 135.674 59.1668 137.24 60.6146C138.807 62.0624 139.787 64.0347 139.996 66.1573L143.406 108.032C143.505 109.034 143.391 110.046 143.072 111.002C142.753 111.957 142.236 112.834 141.554 113.576C140.872 114.317 140.042 114.906 139.117 115.305C138.192 115.703 137.193 115.901 136.186 115.887Z" fill="white"/>
<path d="M136.186 116.22H68.0929C65.877 116.181 63.7527 115.329 62.1254 113.824C60.4981 112.32 59.4818 110.269 59.2704 108.062L55.8608 66.1875C55.7585 65.139 55.8788 64.0807 56.2136 63.0819C56.5485 62.0831 57.0905 61.1662 57.8041 60.3912C58.5177 59.6162 59.3868 59.0006 60.3547 58.5847C61.3226 58.1687 62.3674 57.9618 63.4208 57.9774H131.514C133.73 58.0156 135.854 58.8683 137.481 60.3729C139.108 61.8774 140.125 63.9285 140.336 66.1346L143.746 108.009C143.848 109.058 143.728 110.116 143.393 111.115C143.058 112.114 142.516 113.031 141.803 113.806C141.089 114.581 140.22 115.196 139.252 115.612C138.284 116.028 137.239 116.235 136.186 116.22ZM63.4057 58.6275C62.4422 58.6095 61.4859 58.7964 60.6 59.1757C59.7142 59.555 58.919 60.1182 58.2672 60.8279C57.6154 61.5377 57.1217 62.3778 56.819 63.2926C56.5162 64.2074 56.4112 65.1762 56.511 66.1346L59.9205 108.009C60.117 110.053 61.0584 111.953 62.5656 113.347C64.0727 114.742 66.0401 115.532 68.0929 115.569H136.186C137.149 115.587 138.104 115.401 138.989 115.022C139.875 114.643 140.669 114.08 141.321 113.372C141.973 112.663 142.467 111.824 142.77 110.91C143.073 109.996 143.179 109.028 143.08 108.07L139.671 66.1951C139.473 64.152 138.531 62.253 137.024 60.8591C135.517 59.4653 133.551 58.6737 131.499 58.6351L63.4057 58.6275Z" fill="#8EC3B0"/>
<path d="M229.28 115.887H161.187C159.058 115.842 157.019 115.017 155.457 113.569C153.896 112.122 152.919 110.152 152.712 108.032L149.303 66.1575C149.204 65.1577 149.317 64.1484 149.634 63.1952C149.951 62.242 150.466 61.3663 151.144 60.6253C151.822 59.8842 152.649 59.2944 153.571 58.8942C154.492 58.494 155.488 58.2924 156.492 58.3026H224.593C226.725 58.3442 228.768 59.1669 230.334 60.6147C231.901 62.0625 232.881 64.0348 233.09 66.1575L236.5 108.032C236.599 109.035 236.485 110.047 236.166 111.002C235.847 111.957 235.33 112.834 234.648 113.576C233.966 114.317 233.136 114.907 232.211 115.305C231.286 115.703 230.287 115.902 229.28 115.887Z" fill="white"/>
<path d="M229.28 116.22H161.187C158.973 116.172 156.853 115.316 155.227 113.813C153.6 112.311 152.579 110.265 152.357 108.062L148.932 66.1875C148.83 65.139 148.95 64.0807 149.285 63.0819C149.62 62.0831 150.162 61.1662 150.875 60.3912C151.589 59.6162 152.458 59.0006 153.426 58.5847C154.394 58.1687 155.438 57.9618 156.492 57.9774H224.592C226.808 58.0156 228.933 58.8683 230.56 60.3729C232.187 61.8774 233.203 63.9285 233.415 66.1346L236.824 108.009C236.927 109.058 236.806 110.116 236.472 111.115C236.137 112.114 235.595 113.031 234.881 113.806C234.168 114.581 233.298 115.196 232.33 115.612C231.363 116.028 230.318 116.235 229.264 116.22H229.28ZM156.492 58.6275C155.529 58.6106 154.574 58.7982 153.689 59.1781C152.804 59.5579 152.009 60.1212 151.358 60.8308C150.707 61.5404 150.214 62.3801 149.912 63.2944C149.61 64.2087 149.505 65.1768 149.605 66.1346L153.014 108.009C153.211 110.053 154.152 111.953 155.659 113.347C157.166 114.742 159.134 115.532 161.187 115.569H229.28C230.242 115.587 231.198 115.401 232.083 115.022C232.968 114.643 233.763 114.08 234.415 113.372C235.067 112.663 235.56 111.824 235.864 110.91C236.167 109.996 236.273 109.028 236.174 108.07L232.765 66.1951C232.567 64.152 231.625 62.253 230.118 60.8591C228.611 59.4653 226.645 58.6737 224.592 58.6351L156.492 58.6275Z" fill="#8EC3B0"/>
<path d="M156.409 245.526H88.3084C86.1764 245.483 84.1342 244.659 82.5683 243.212C81.0024 241.764 80.0214 239.793 79.811 237.671L76.409 195.804C76.3099 194.802 76.4234 193.791 76.7421 192.836C77.0607 191.881 77.5773 191.004 78.2581 190.263C78.9388 189.522 79.7684 188.932 80.6926 188.533C81.6168 188.135 82.6148 187.935 83.6212 187.949H151.722C153.854 187.992 155.896 188.815 157.462 190.263C159.028 191.71 160.009 193.682 160.219 195.804L163.629 237.679C163.725 238.68 163.61 239.691 163.29 240.644C162.97 241.598 162.452 242.474 161.771 243.215C161.09 243.955 160.26 244.543 159.336 244.942C158.412 245.34 157.415 245.539 156.409 245.526Z" fill="white"/>
<path d="M156.409 245.851H88.3082C86.0928 245.811 83.9694 244.958 82.3425 243.454C80.7156 241.949 79.6987 239.899 79.4857 237.694L76.0761 195.804C75.9739 194.755 76.0941 193.697 76.429 192.698C76.7638 191.699 77.3058 190.782 78.0194 190.007C78.733 189.232 79.6022 188.617 80.5701 188.201C81.538 187.785 82.5828 187.578 83.6361 187.594H151.737C153.958 187.638 156.084 188.501 157.709 190.016C159.334 191.53 160.344 193.591 160.544 195.804L163.954 237.671C164.056 238.72 163.936 239.778 163.601 240.777C163.266 241.776 162.724 242.692 162.01 243.467C161.297 244.242 160.428 244.858 159.46 245.274C158.492 245.69 157.447 245.897 156.394 245.881L156.409 245.851ZM83.621 188.244C82.6532 188.226 81.6927 188.415 80.8037 188.798C79.9147 189.181 79.1177 189.749 78.4658 190.464C77.8139 191.18 77.3222 192.026 77.0236 192.947C76.7249 193.868 76.6261 194.842 76.7338 195.804L80.1358 237.641C80.3321 239.683 81.2725 241.582 82.7781 242.976C84.2836 244.37 86.2492 245.162 88.3006 245.201H156.401C157.364 245.218 158.319 245.03 159.204 244.65C160.089 244.27 160.884 243.707 161.535 242.998C162.186 242.288 162.678 241.448 162.981 240.534C163.283 239.62 163.388 238.652 163.288 237.694L159.894 195.804C159.696 193.761 158.754 191.862 157.247 190.468C155.74 189.074 153.774 188.282 151.721 188.244H83.621Z" fill="#8EC3B0"/>
<path d="M281.897 120.249C283.719 123.666 285.284 127.053 286.758 130.561C288.236 134.108 289.498 137.741 290.538 141.44C290.803 142.377 291.03 143.345 291.249 144.313C291.419 144.984 291.52 145.67 291.551 146.361C291.577 147.049 291.539 147.737 291.438 148.418C291.039 150.617 290.272 152.733 289.17 154.677C287.264 158.129 284.885 161.297 282.101 164.09C281.743 164.459 281.265 164.686 280.753 164.731C280.241 164.776 279.73 164.635 279.313 164.334C278.896 164.033 278.602 163.592 278.484 163.092C278.365 162.592 278.431 162.066 278.669 161.61L278.722 161.512C280.395 158.432 281.85 155.239 283.077 151.956C283.595 150.573 283.909 149.121 284.006 147.647C284.009 147.406 283.989 147.165 283.946 146.928C283.935 146.853 283.915 146.779 283.886 146.709L283.742 146.263C283.492 145.447 283.235 144.63 282.933 143.814C281.784 140.533 280.37 137.237 278.896 133.986C277.422 130.735 275.872 127.416 274.299 124.264V124.196C273.78 123.184 273.684 122.008 274.032 120.925C274.38 119.843 275.144 118.943 276.155 118.423C277.167 117.904 278.343 117.808 279.426 118.156C280.508 118.504 281.408 119.268 281.927 120.279L281.897 120.249Z" fill="#8EC3B0"/>
<path d="M279.531 161.187L275.94 162.328L280.189 167.295C281.217 166.326 281.982 165.111 282.411 163.765C282.505 163.419 282.489 163.053 282.368 162.716C282.246 162.38 282.024 162.088 281.731 161.882L281.126 161.444C280.899 161.278 280.636 161.169 280.359 161.124C280.082 161.08 279.798 161.101 279.531 161.187Z" fill="#FF928E"/>
<path d="M270.95 165.39L275.502 169.004L280.174 167.295L275.925 162.328L270.95 165.39Z" fill="#FF928E"/>
<path d="M255.415 94.9612C255.324 95.4072 255.014 95.7172 254.719 95.6642C254.424 95.6113 254.266 95.1955 254.356 94.7495C254.447 94.3034 254.757 93.9935 255.052 94.0464C255.347 94.0993 255.528 94.5 255.415 94.9612Z" fill="#263238"/>
<path d="M255.052 95.7319C254.24 96.9903 253.261 98.1322 252.141 99.1264C252.402 99.4068 252.722 99.6265 253.077 99.7702C253.432 99.9139 253.815 99.978 254.197 99.958L255.052 95.7319Z" fill="#FF928E"/>
<path d="M257.554 92.8141C257.606 92.8129 257.657 92.7968 257.7 92.7678C257.743 92.7387 257.777 92.6979 257.798 92.6502C257.818 92.6025 257.825 92.5498 257.817 92.4985C257.808 92.4471 257.785 92.3992 257.751 92.3605C257.471 92.0427 257.119 91.7967 256.724 91.6428C256.33 91.4889 255.904 91.4317 255.483 91.476C255.443 91.4761 255.404 91.4849 255.368 91.5017C255.333 91.5185 255.301 91.5429 255.276 91.5732C255.25 91.6034 255.232 91.6389 255.221 91.677C255.211 91.7152 255.209 91.7551 255.216 91.7941C255.223 91.833 255.238 91.8701 255.26 91.9026C255.282 91.9352 255.312 91.9624 255.346 91.9825C255.38 92.0026 255.418 92.015 255.457 92.0189C255.496 92.0228 255.536 92.0181 255.574 92.0051C255.911 91.9794 256.249 92.0346 256.561 92.1661C256.873 92.2976 257.148 92.5016 257.365 92.7611C257.419 92.8024 257.487 92.8213 257.554 92.8141Z" fill="#263238"/>
<path d="M267.836 103.103C267.027 107.246 266.535 112.976 269.431 115.743C269.431 115.743 268.297 119.939 260.608 119.939C252.149 119.939 256.541 116.257 256.541 116.257C260.056 115.161 260.026 111.162 259.217 107.941L267.836 103.103Z" fill="#FF928E"/>
<path d="M255.052 115.607C255.052 115.607 256.292 112.689 257.547 112.183C258.802 111.676 266.83 110.361 268.675 111.525C270.52 112.689 271.774 116.424 271.774 116.424L255.052 115.607Z" fill="#8EC3B0"/>
<path d="M263.534 309.204C262.778 309.204 262.105 309.106 261.871 308.773C261.81 308.688 261.777 308.586 261.777 308.482C261.777 308.377 261.81 308.276 261.871 308.191C261.917 308.111 261.979 308.043 262.053 307.989C262.127 307.936 262.212 307.899 262.302 307.881C263.239 307.624 265.22 308.75 265.326 308.796C265.349 308.809 265.367 308.83 265.378 308.854C265.389 308.878 265.392 308.906 265.386 308.932C265.384 308.96 265.372 308.986 265.353 309.006C265.333 309.027 265.308 309.04 265.281 309.045C264.704 309.148 264.12 309.201 263.534 309.204ZM262.635 308.108C262.549 308.096 262.463 308.096 262.378 308.108C262.322 308.117 262.269 308.139 262.223 308.172C262.178 308.204 262.14 308.247 262.113 308.297C262.022 308.463 262.052 308.539 262.113 308.592C262.378 308.954 263.806 308.962 264.857 308.818C264.171 308.434 263.416 308.188 262.635 308.093V308.108Z" fill="#8EC3B0"/>
<path d="M265.243 309.03H265.19C264.502 308.72 263.149 307.518 263.254 306.861C263.254 306.709 263.383 306.52 263.753 306.483C263.888 306.466 264.025 306.478 264.155 306.517C264.285 306.556 264.406 306.622 264.509 306.709C265.265 307.307 265.386 308.826 265.394 308.894C265.393 308.918 265.388 308.941 265.377 308.961C265.367 308.982 265.352 309.001 265.333 309.015C265.306 309.031 265.274 309.037 265.243 309.03ZM263.859 306.762H263.784C263.542 306.762 263.527 306.883 263.519 306.913C263.459 307.299 264.373 308.259 265.076 308.682C265.008 308.037 264.744 307.428 264.32 306.936C264.193 306.812 264.022 306.742 263.844 306.74L263.859 306.762Z" fill="#8EC3B0"/>
<path d="M271.465 308.894H265.81L265.243 295.792H270.898L271.465 308.894Z" fill="#FF928E"/>
<path d="M265.84 308.244H272.024C272.136 308.244 272.245 308.282 272.333 308.352C272.421 308.422 272.482 308.52 272.508 308.629L273.619 313.657C273.648 313.778 273.649 313.904 273.621 314.025C273.594 314.147 273.539 314.261 273.461 314.358C273.383 314.455 273.284 314.532 273.171 314.585C273.058 314.638 272.935 314.664 272.81 314.662C270.58 314.624 267.359 314.496 264.555 314.496C261.281 314.496 260.881 314.677 257.04 314.677C254.719 314.677 254.076 312.326 255.044 312.114C259.474 311.147 260.654 311.041 264.479 308.682C264.883 308.412 265.354 308.261 265.84 308.244Z" fill="#263238"/>
<path d="M279.561 115.759C284.853 116.976 288.361 131.287 288.361 131.287L279.508 137.94C276.21 135.58 273.87 132.114 272.916 128.172C271.117 121.081 274.141 114.519 279.561 115.759Z" fill="#263238"/>
<path opacity="0.2" d="M275.018 125.715C277.898 128.565 279.758 133.064 279.985 137.577L279.516 137.94C276.223 135.579 273.888 132.112 272.939 128.172C272.833 127.749 272.735 127.326 272.659 126.91L275.018 125.715Z" fill="black"/>
<path d="M298.628 137.081L255.663 154.248L268.429 186.198L311.394 169.03L298.628 137.081Z" fill="#8EC3B0"/>
<path opacity="0.5" d="M298.004 137.328L255.671 154.243L268.437 186.192L310.77 169.278L298.004 137.328Z" fill="white"/>
<g opacity="0.5">
<path d="M263.419 154.423L259.41 156.024L260.546 158.868L264.555 157.266L263.419 154.423Z" fill="#8EC3B0"/>
<path d="M270.039 151.779L266.031 153.381L267.167 156.224L271.175 154.622L270.039 151.779Z" fill="#8EC3B0"/>
<path d="M276.654 149.135L272.646 150.737L273.782 153.58L277.79 151.978L276.654 149.135Z" fill="#8EC3B0"/>
<path d="M283.274 146.489L279.265 148.09L280.401 150.934L284.41 149.332L283.274 146.489Z" fill="#8EC3B0"/>
<path d="M289.887 143.845L285.878 145.447L287.014 148.29L291.023 146.688L289.887 143.845Z" fill="#8EC3B0"/>
<path d="M296.507 141.209L292.498 142.811L293.634 145.654L297.643 144.052L296.507 141.209Z" fill="#8EC3B0"/>
<path d="M265.299 159.115L261.291 160.716L262.427 163.56L266.435 161.958L265.299 159.115Z" fill="#8EC3B0"/>
<path d="M271.912 156.471L267.903 158.073L269.039 160.916L273.048 159.314L271.912 156.471Z" fill="#8EC3B0"/>
<path d="M278.524 153.827L274.516 155.429L275.652 158.272L279.661 156.671L278.524 153.827Z" fill="#8EC3B0"/>
<path d="M285.151 151.181L281.143 152.783L282.279 155.626L286.288 154.024L285.151 151.181Z" fill="#8EC3B0"/>
<path d="M291.767 148.537L287.758 150.139L288.894 152.982L292.903 151.38L291.767 148.537Z" fill="#8EC3B0"/>
<path d="M298.379 145.893L294.371 147.495L295.507 150.338L299.515 148.737L298.379 145.893Z" fill="#8EC3B0"/>
<path d="M267.169 163.8L263.161 165.401L264.297 168.245L268.305 166.643L267.169 163.8Z" fill="#8EC3B0"/>
<path d="M273.782 161.156L269.773 162.758L270.909 165.601L274.918 163.999L273.782 161.156Z" fill="#8EC3B0"/>
<path d="M280.405 158.52L276.396 160.122L277.532 162.965L281.541 161.363L280.405 158.52Z" fill="#8EC3B0"/>
<path d="M287.024 155.873L283.016 157.475L284.152 160.318L288.16 158.717L287.024 155.873Z" fill="#8EC3B0"/>
<path d="M293.637 153.23L289.628 154.832L290.764 157.675L294.773 156.073L293.637 153.23Z" fill="#8EC3B0"/>
<path d="M300.257 150.586L296.248 152.188L297.384 155.031L301.393 153.43L300.257 150.586Z" fill="#8EC3B0"/>
<path d="M269.05 168.499L265.041 170.101L266.177 172.944L270.186 171.343L269.05 168.499Z" fill="#8EC3B0"/>
<path d="M275.662 165.856L271.653 167.458L272.789 170.301L276.798 168.699L275.662 165.856Z" fill="#8EC3B0"/>
<path d="M282.274 163.205L278.266 164.807L279.402 167.65L283.411 166.048L282.274 163.205Z" fill="#8EC3B0"/>
<path d="M288.902 160.558L284.893 162.16L286.029 165.003L290.038 163.402L288.902 160.558Z" fill="#8EC3B0"/>
<path d="M295.514 157.915L291.506 159.517L292.642 162.36L296.65 160.758L295.514 157.915Z" fill="#8EC3B0"/>
<path d="M302.129 155.278L298.121 156.88L299.257 159.723L303.266 158.121L302.129 155.278Z" fill="#8EC3B0"/>
<path d="M270.92 173.184L266.911 174.786L268.047 177.629L272.056 176.028L270.92 173.184Z" fill="#8EC3B0"/>
<path d="M277.532 170.541L273.523 172.143L274.659 174.986L278.668 173.384L277.532 170.541Z" fill="#8EC3B0"/>
<path d="M284.152 167.897L280.143 169.499L281.279 172.342L285.288 170.741L284.152 167.897Z" fill="#8EC3B0"/>
<path d="M290.767 165.261L286.759 166.863L287.895 169.706L291.903 168.104L290.767 165.261Z" fill="#8EC3B0"/>
<path d="M297.387 162.615L293.378 164.216L294.514 167.06L298.523 165.458L297.387 162.615Z" fill="#8EC3B0"/>
<path d="M304.007 159.963L299.998 161.565L301.134 164.408L305.143 162.806L304.007 159.963Z" fill="#8EC3B0"/>
<path d="M272.8 177.877L268.791 179.479L269.927 182.322L273.936 180.72L272.8 177.877Z" fill="#8EC3B0"/>
<path d="M279.412 175.233L275.404 176.835L276.54 179.678L280.548 178.076L279.412 175.233Z" fill="#8EC3B0"/>
<path d="M286.025 172.59L282.016 174.191L283.152 177.035L287.161 175.433L286.025 172.59Z" fill="#8EC3B0"/>
<path d="M292.637 169.946L288.629 171.548L289.765 174.391L293.773 172.789L292.637 169.946Z" fill="#8EC3B0"/>
<path d="M299.264 167.292L295.256 168.894L296.392 171.737L300.401 170.136L299.264 167.292Z" fill="#8EC3B0"/>
<path d="M305.877 164.656L301.868 166.258L303.004 169.101L307.013 167.499L305.877 164.656Z" fill="#8EC3B0"/>
</g>
<path d="M295.074 147.193C294.971 146.9 294.985 146.579 295.113 146.297C295.241 146.014 295.474 145.792 295.762 145.677C296.05 145.562 296.371 145.563 296.659 145.679C296.946 145.795 297.178 146.018 297.305 146.301C297.371 146.449 297.407 146.608 297.41 146.77C297.413 146.933 297.383 147.094 297.323 147.244C297.262 147.394 297.171 147.53 297.057 147.645C296.942 147.759 296.805 147.849 296.655 147.909C296.504 147.97 296.343 147.999 296.181 147.995C296.019 147.991 295.859 147.955 295.712 147.888C295.564 147.821 295.432 147.725 295.322 147.606C295.213 147.486 295.128 147.346 295.074 147.193Z" fill="white"/>
<path d="M294.084 163.908C293.998 163.689 293.979 163.449 294.029 163.218C294.079 162.988 294.197 162.778 294.366 162.614C294.536 162.45 294.75 162.34 294.982 162.298C295.214 162.255 295.453 162.283 295.67 162.376C295.886 162.47 296.07 162.625 296.199 162.823C296.327 163.021 296.394 163.253 296.391 163.488C296.388 163.724 296.315 163.954 296.181 164.148C296.048 164.343 295.86 164.493 295.641 164.581C295.495 164.64 295.338 164.669 295.181 164.667C295.023 164.665 294.867 164.632 294.722 164.569C294.578 164.507 294.447 164.416 294.337 164.303C294.228 164.189 294.141 164.055 294.084 163.908Z" fill="white"/>
<path d="M278.964 164.505C278.876 164.284 278.855 164.042 278.905 163.809C278.954 163.577 279.072 163.364 279.243 163.198C279.413 163.032 279.629 162.921 279.863 162.878C280.097 162.835 280.339 162.862 280.557 162.956C280.776 163.051 280.961 163.208 281.09 163.408C281.219 163.608 281.286 163.841 281.282 164.079C281.278 164.317 281.204 164.549 281.069 164.744C280.933 164.94 280.743 165.091 280.521 165.178C280.375 165.237 280.218 165.266 280.061 165.264C279.903 165.262 279.747 165.229 279.602 165.166C279.458 165.104 279.327 165.013 279.217 164.9C279.108 164.786 279.022 164.652 278.964 164.505Z" fill="white"/>
<path d="M269.484 179.172C269.394 178.951 269.372 178.709 269.421 178.476C269.469 178.243 269.586 178.029 269.756 177.862C269.926 177.696 270.141 177.583 270.375 177.539C270.609 177.495 270.851 177.521 271.07 177.615C271.289 177.708 271.475 177.865 271.605 178.064C271.735 178.264 271.803 178.498 271.8 178.736C271.797 178.974 271.723 179.206 271.588 179.402C271.453 179.598 271.263 179.749 271.041 179.837C270.746 179.954 270.417 179.95 270.126 179.826C269.834 179.701 269.603 179.466 269.484 179.172Z" fill="white"/>
<path d="M270.602 179.172C270.516 179.173 270.431 179.147 270.36 179.096C270.311 179.065 270.268 179.025 270.234 178.977C270.2 178.929 270.176 178.876 270.164 178.818C270.151 178.761 270.15 178.702 270.16 178.645C270.171 178.587 270.192 178.533 270.224 178.484L279.72 163.825C279.758 163.765 279.811 163.715 279.873 163.68C279.934 163.644 280.004 163.624 280.075 163.621L294.779 163.039L295.755 146.724C295.774 146.616 295.832 146.519 295.918 146.452C296.003 146.384 296.111 146.35 296.22 146.357C296.33 146.363 296.432 146.41 296.51 146.487C296.587 146.565 296.633 146.668 296.639 146.777L295.649 163.492C295.641 163.603 295.593 163.706 295.513 163.783C295.434 163.86 295.328 163.904 295.218 163.908L280.34 164.498L270.98 178.975C270.939 179.037 270.882 179.087 270.816 179.121C270.75 179.156 270.677 179.173 270.602 179.172Z" fill="white"/>
<path d="M246.048 121.436C244.891 127.544 244.165 140.102 247.56 164.959H277.8C277.255 160.65 275.086 137.652 279.569 115.758C276.223 115.117 272.839 114.69 269.438 114.481C265.158 114.232 260.867 114.232 256.586 114.481C255.165 114.609 253.774 114.813 252.534 115.033C250.931 115.316 249.452 116.08 248.293 117.223C247.134 118.367 246.351 119.836 246.048 121.436Z" fill="#263238"/>
<path opacity="0.2" d="M250.811 130.848L245.125 131.302C244.921 138.658 245.428 149.393 247.529 164.959H247.802C251.211 153.747 255.732 137.72 250.811 130.848Z" fill="black"/>
<path opacity="0.2" d="M265.243 295.8L265.53 302.551H271.192L270.905 295.8H265.243Z" fill="black"/>
<path d="M270.527 97.0475C269.076 102.476 268.494 105.719 265.152 107.979C260.117 111.366 253.812 107.473 253.646 101.727C253.472 96.5486 255.876 88.5501 261.697 87.4539C262.98 87.2072 264.304 87.2923 265.545 87.7012C266.785 88.1101 267.901 88.8292 268.785 89.7903C269.67 90.7514 270.294 91.9225 270.599 93.1926C270.904 94.4627 270.879 95.7897 270.527 97.0475Z" fill="#FF928E"/>
<path d="M257.796 97.0854L254.855 97.8414L257.592 90.7425C256.868 89.004 256.78 87.0662 257.342 85.2691C257.447 84.9499 257.649 84.6716 257.921 84.4735C258.192 84.2755 258.519 84.1677 258.854 84.1653C264.948 84.0519 271.321 87.4691 274.526 90.0546C274.825 90.2956 275.026 90.6373 275.092 91.0157C275.157 91.3942 275.082 91.7835 274.882 92.1109C274.092 93.2824 273.165 94.3558 272.122 95.3088C272.062 97.2971 268.819 106.271 267.027 107.284C265.235 108.297 261.795 107.881 260.881 106.241C259.966 104.6 256.896 102.438 257.796 97.0854Z" fill="#263238"/>
<path d="M260.548 97.1989C260.213 98.5522 259.442 99.7581 258.355 100.631C256.912 101.765 255.785 100.722 255.846 99.0511C255.899 97.5391 256.715 95.1502 258.325 94.6588C259.936 94.1674 260.926 95.5584 260.548 97.1989Z" fill="#FF928E"/>
<path d="M312.289 307.238C312.289 306.482 312.379 305.809 312.704 305.567C312.79 305.506 312.893 305.473 312.999 305.473C313.105 305.473 313.208 305.506 313.294 305.567C313.449 305.663 313.56 305.815 313.604 305.991C313.869 306.928 312.757 308.916 312.704 309.015C312.693 309.04 312.673 309.06 312.648 309.073C312.624 309.085 312.595 309.089 312.568 309.083C312.542 309.078 312.517 309.066 312.498 309.047C312.479 309.028 312.467 309.003 312.462 308.977C312.354 308.403 312.296 307.822 312.289 307.238ZM313.385 306.331C313.397 306.246 313.397 306.159 313.385 306.074C313.375 306.018 313.354 305.966 313.321 305.92C313.288 305.874 313.245 305.836 313.196 305.809C313.029 305.719 312.946 305.749 312.901 305.809C312.538 306.074 312.538 307.503 312.697 308.554C313.066 307.863 313.299 307.109 313.385 306.331Z" fill="#8EC3B0"/>
<path d="M312.455 308.939C312.452 308.922 312.452 308.904 312.455 308.886C312.757 308.206 313.967 306.845 314.609 306.944C314.761 306.944 314.95 307.072 314.987 307.435C315.005 307.57 314.994 307.707 314.955 307.837C314.915 307.967 314.849 308.088 314.761 308.191C314.178 308.947 312.651 309.075 312.591 309.083C312.568 309.087 312.544 309.084 312.523 309.075C312.501 309.065 312.483 309.05 312.47 309.03C312.461 309.017 312.455 309.002 312.453 308.986C312.45 308.971 312.451 308.955 312.455 308.939ZM314.723 307.548C314.723 307.548 314.723 307.495 314.723 307.465C314.723 307.223 314.602 307.208 314.572 307.208C314.186 307.148 313.233 308.07 312.818 308.773C313.461 308.704 314.067 308.44 314.556 308.017C314.671 307.887 314.738 307.722 314.745 307.548H314.723Z" fill="#8EC3B0"/>
<path d="M312.546 308.977L307.019 309.37L303.92 296.163L309.438 295.77L312.546 308.977Z" fill="#FF928E"/>
<path d="M312.523 307.692L306.369 307.148C306.257 307.136 306.145 307.163 306.051 307.225C305.957 307.287 305.888 307.38 305.855 307.488L304.298 312.402C304.259 312.523 304.249 312.652 304.268 312.777C304.288 312.903 304.336 313.022 304.409 313.126C304.482 313.23 304.579 313.316 304.69 313.377C304.802 313.437 304.927 313.471 305.054 313.475C307.276 313.634 310.497 313.785 313.286 314.035C316.545 314.322 314.436 314.315 318.261 314.655C320.574 314.859 321.429 312.576 320.476 312.281C316.152 310.92 315.365 310.013 313.876 308.251C313.699 308.074 313.488 307.933 313.255 307.837C313.023 307.741 312.774 307.691 312.523 307.692Z" fill="#263238"/>
<path opacity="0.2" d="M303.92 296.163L305.522 302.974L311.041 302.581L309.446 295.777L303.92 296.163Z" fill="black"/>
<path d="M258.265 164.959C258.265 164.959 271.276 208.429 276.22 224.562C281.625 242.23 302.204 300.842 302.204 300.842L312.183 298.65C312.183 298.65 298.083 248.293 292.24 223.647C287.749 204.747 277.792 164.959 277.792 164.959H258.265Z" fill="#8EC3B0"/>
<path d="M300.45 297.758C300.404 297.758 301.432 301.651 301.432 301.651L313.43 300.366L313.377 296.798L300.45 297.758Z" fill="#263238"/>
<path opacity="0.3" d="M265.469 185.106C272.674 186.051 275.539 211.158 276.62 225.885C276.484 225.416 276.341 224.978 276.212 224.554C273.521 215.747 268.418 198.775 264.335 185.19C264.702 185.073 265.09 185.045 265.469 185.106Z" fill="black"/>
<path d="M247.53 164.959C247.53 164.959 251.892 207.295 253.774 224.524C255.725 242.449 263.088 301.243 263.088 301.243H272.674C272.674 301.243 271.51 243.522 271.124 225.893C270.701 206.675 267.435 164.959 267.435 164.959H247.53Z" fill="#8EC3B0"/>
<path d="M261.576 297.425C261.531 297.425 262.113 301.402 262.113 301.402H273.77L274.088 297.856L261.576 297.425Z" fill="#263238"/>
<path d="M206.592 204.785C208.383 207.623 210.975 209.866 214.04 211.231C217.105 212.596 220.507 213.021 223.813 212.452C227.12 211.884 230.185 210.347 232.618 208.038C235.052 205.728 236.746 202.748 237.486 199.475C238.227 196.202 237.98 192.784 236.777 189.651C235.574 186.519 233.469 183.813 230.729 181.877C227.988 179.941 224.735 178.861 221.381 178.774C218.026 178.687 214.722 179.596 211.884 181.387C210 182.575 208.368 184.123 207.082 185.943C205.796 187.762 204.881 189.817 204.39 191.99C203.898 194.163 203.84 196.411 204.218 198.607C204.596 200.802 205.403 202.902 206.592 204.785ZM233.052 188.153C234.559 190.542 235.323 193.324 235.248 196.148C235.173 198.971 234.263 201.709 232.633 204.015C231.002 206.321 228.725 208.091 226.088 209.103C223.451 210.115 220.573 210.322 217.819 209.698C215.064 209.075 212.556 207.648 210.612 205.6C208.669 203.551 207.376 200.972 206.898 198.188C206.419 195.405 206.777 192.542 207.926 189.962C209.074 187.382 210.962 185.2 213.351 183.693C216.549 181.678 220.415 181.013 224.102 181.843C227.789 182.674 230.997 184.932 233.022 188.123L233.052 188.153Z" fill="#263238"/>
<path opacity="0.2" d="M233.702 198.631C233.126 201.153 231.815 203.448 229.936 205.225C228.056 207.002 225.692 208.183 223.142 208.617C220.591 209.051 217.97 208.72 215.608 207.665C213.246 206.61 211.249 204.878 209.871 202.689C208.493 200.5 207.794 197.952 207.863 195.366C207.932 192.78 208.766 190.272 210.26 188.16C211.754 186.048 213.84 184.426 216.255 183.499C218.67 182.572 221.306 182.382 223.829 182.952C225.507 183.333 227.093 184.041 228.497 185.035C229.902 186.029 231.096 187.29 232.013 188.746C232.93 190.202 233.551 191.825 233.841 193.521C234.131 195.217 234.084 196.953 233.702 198.631Z" fill="#8EC3B0"/>
<path d="M235.751 184.638L237.346 187.163C237.403 187.254 237.442 187.355 237.46 187.461C237.478 187.566 237.475 187.675 237.451 187.779C237.427 187.884 237.383 187.983 237.321 188.07C237.259 188.158 237.18 188.232 237.089 188.289C236.905 188.405 236.682 188.443 236.469 188.395C236.257 188.347 236.072 188.216 235.955 188.032L234.368 185.515C234.252 185.33 234.214 185.107 234.262 184.895C234.31 184.682 234.441 184.497 234.625 184.381C234.715 184.323 234.816 184.283 234.922 184.265C235.028 184.246 235.137 184.249 235.242 184.273C235.347 184.297 235.446 184.341 235.533 184.404C235.621 184.467 235.695 184.546 235.751 184.638Z" fill="#263238"/>
<path d="M246.04 177.463C244.201 178.723 242.381 180.006 240.582 181.311C238.775 182.627 236.991 183.965 235.29 185.386C235.085 185.564 234.95 185.809 234.91 186.077C234.87 186.345 234.927 186.619 235.072 186.848C235.216 187.078 235.438 187.248 235.697 187.328C235.957 187.408 236.236 187.392 236.484 187.284C238.51 186.331 240.491 185.295 242.457 184.26C244.422 183.224 246.358 182.105 248.278 180.994C249.916 180.041 251.544 179.069 253.162 178.076C253.271 178.008 253.367 177.919 253.442 177.814C253.517 177.709 253.571 177.59 253.601 177.465C253.63 177.339 253.635 177.209 253.614 177.081C253.593 176.954 253.547 176.832 253.479 176.722L252.134 174.636C252.064 174.526 251.974 174.432 251.868 174.357C251.762 174.283 251.643 174.23 251.516 174.202C251.39 174.174 251.259 174.171 251.131 174.193C251.004 174.216 250.882 174.264 250.773 174.333C249.185 175.392 247.605 176.397 246.04 177.463Z" fill="#263238"/>
<path d="M254.47 123.553C253.547 128.089 252.565 132.612 251.521 137.123L248.391 150.625C247.371 155.025 246.501 159.486 245.708 164.014L243.334 177.622C243.246 178.145 242.967 178.616 242.551 178.944C242.135 179.271 241.612 179.433 241.083 179.396C240.555 179.359 240.059 179.127 239.692 178.744C239.326 178.362 239.115 177.857 239.1 177.327C238.934 172.602 239.01 167.93 239.274 163.228C239.536 158.498 240.04 153.784 240.786 149.106C241.542 144.479 242.351 139.905 243.243 135.339C244.135 130.773 245.08 126.222 246.131 121.731C246.385 120.633 247.061 119.678 248.013 119.075C248.965 118.472 250.117 118.268 251.219 118.507C252.32 118.747 253.283 119.411 253.899 120.355C254.514 121.3 254.733 122.448 254.508 123.553H254.47Z" fill="#8EC3B0"/>
<path d="M242.676 176.397C242.485 176.196 242.245 176.049 241.98 175.971C241.714 175.893 241.433 175.886 241.164 175.951L239.939 176.246C239.631 176.319 239.353 176.483 239.14 176.718C238.928 176.953 238.793 177.248 238.752 177.561L238.397 180.291C238.286 181.078 238.452 181.879 238.866 182.559L240.559 185.356C240.776 185.643 241.07 185.863 241.408 185.989C241.746 186.115 242.112 186.142 242.464 186.066L244.226 185.696C244.486 185.64 244.732 185.53 244.948 185.373C245.163 185.217 245.344 185.016 245.477 184.785C245.61 184.555 245.693 184.298 245.721 184.033C245.749 183.768 245.722 183.5 245.639 183.247L245.178 181.825C245.008 179.778 244.122 177.856 242.676 176.397Z" fill="#FF928E"/>
<path d="M260.359 120.96C263.111 128.255 253.6 138.665 253.6 138.665L241.557 134.681C241.557 134.681 242.479 124.725 246.66 119.107C251.816 112.145 258.265 115.373 260.359 120.96Z" fill="#263238"/>
<g clip-path="url(#clip0_543_3012)">
<mask id="mask0_543_3012" style="mask-type:luminance" maskUnits="userSpaceOnUse" x="101" y="199" width="36" height="61">
<path d="M132.19 201.915H105.95C105.336 201.915 104.747 202.159 104.313 202.593C103.879 203.027 103.635 203.616 103.635 204.23V230.47C103.635 231.084 103.879 231.673 104.313 232.107C104.747 232.541 105.336 232.785 105.95 232.785H132.19C132.804 232.785 133.393 232.541 133.827 232.107C134.261 231.673 134.505 231.084 134.505 230.47V204.23C134.505 203.616 134.261 203.027 133.827 202.593C133.393 202.159 132.804 201.915 132.19 201.915Z" fill="white" stroke="white" stroke-width="4" stroke-linejoin="round"/>
<path d="M109.809 213.533C112.375 210.446 115.462 208.902 119.07 208.902C122.678 208.902 125.765 210.446 128.331 213.533" stroke="black" stroke-width="4" stroke-linecap="round"/>
<path d="M119.07 222.752C119.684 222.752 120.273 222.508 120.707 222.074C121.141 221.64 121.385 221.051 121.385 220.437C121.385 219.823 121.141 219.234 120.707 218.8C120.273 218.366 119.684 218.122 119.07 218.122C118.456 218.122 117.867 218.366 117.433 218.8C116.999 219.234 116.755 219.823 116.755 220.437C116.755 221.051 116.999 221.64 117.433 222.074C117.867 222.508 118.456 222.752 119.07 222.752Z" fill="black"/>
<path d="M115.211 215.035L119.076 220.437" stroke="black" stroke-width="4" stroke-linecap="round"/>
<path d="M106.644 234.24V225.672H107.76V230.64L108.624 230.604L110.184 228.228H111.42L109.596 231.024L111.504 234.24H110.268L108.648 231.588L107.76 231.624V234.24H106.644ZM109.056 259.036C108.424 259.036 107.912 258.984 107.52 258.88C107.128 258.776 106.84 258.592 106.656 258.328C106.472 258.072 106.38 257.716 106.38 257.26C106.38 257.028 106.412 256.828 106.476 256.66C106.548 256.5 106.652 256.352 106.788 256.216C106.932 256.072 107.108 255.924 107.316 255.772C107.204 255.692 107.116 255.576 107.052 255.424C106.996 255.272 106.968 255.104 106.968 254.92C106.968 254.832 107.016 254.692 107.112 254.5C107.208 254.308 107.304 254.136 107.4 253.984C107.232 253.904 107.076 253.796 106.932 253.66C106.796 253.516 106.684 253.324 106.596 253.084C106.508 252.844 106.464 252.54 106.464 252.172C106.464 251.428 106.672 250.9 107.088 250.588C107.512 250.268 108.076 250.108 108.78 250.108C108.996 250.108 109.224 250.124 109.464 250.156C109.704 250.188 109.892 250.224 110.028 250.264L111.864 250.216V251.092L110.796 251.068C110.9 251.172 110.984 251.312 111.048 251.488C111.12 251.664 111.156 251.892 111.156 252.172C111.156 252.7 111.068 253.116 110.892 253.42C110.716 253.716 110.448 253.924 110.088 254.044C109.736 254.156 109.292 254.212 108.756 254.212C108.7 254.212 108.608 254.208 108.48 254.2C108.36 254.184 108.268 254.172 108.204 254.164C108.156 254.268 108.108 254.388 108.06 254.524C108.02 254.652 108 254.744 108 254.8C108 254.936 108.028 255.04 108.084 255.112C108.148 255.184 108.28 255.232 108.48 255.256C108.688 255.28 109.012 255.292 109.452 255.292C110.028 255.292 110.488 255.344 110.832 255.448C111.176 255.544 111.42 255.72 111.564 255.976C111.708 256.224 111.78 256.588 111.78 257.068C111.78 257.764 111.54 258.264 111.06 258.568C110.58 258.88 109.912 259.036 109.056 259.036ZM109.044 258.136C109.604 258.136 110.016 258.06 110.28 257.908C110.544 257.756 110.676 257.504 110.676 257.152C110.676 256.88 110.632 256.68 110.544 256.552C110.464 256.424 110.32 256.34 110.112 256.3C109.904 256.26 109.628 256.24 109.284 256.24C109.212 256.24 109.112 256.24 108.984 256.24C108.864 256.232 108.736 256.228 108.6 256.228C108.472 256.22 108.356 256.212 108.252 256.204C108.148 256.196 108.076 256.192 108.036 256.192C107.812 256.352 107.656 256.496 107.568 256.624C107.48 256.76 107.436 256.932 107.436 257.14C107.436 257.38 107.484 257.572 107.58 257.716C107.676 257.868 107.84 257.976 108.072 258.04C108.304 258.104 108.628 258.136 109.044 258.136ZM108.78 253.372C109.244 253.372 109.572 253.28 109.764 253.096C109.964 252.912 110.064 252.604 110.064 252.172C110.064 251.74 109.964 251.432 109.764 251.248C109.572 251.064 109.244 250.972 108.78 250.972C108.348 250.972 108.036 251.064 107.844 251.248C107.66 251.432 107.568 251.74 107.568 252.172C107.568 252.604 107.66 252.912 107.844 253.096C108.036 253.28 108.348 253.372 108.78 253.372Z" fill="black"/>
</mask>
<g mask="url(#mask0_543_3012)">
<path d="M100.548 198.828H137.592V235.872H100.548V198.828Z" fill="#8EC3B0"/>
</g>
</g>
<path d="M139.482 139.104C139.482 139.104 131.544 147.77 131.544 153.901C131.544 158.738 134.611 161.784 139.482 161.784C144.353 161.784 147.42 158.738 147.42 153.901C147.42 147.77 139.482 139.104 139.482 139.104ZM140.364 158.937V157.624C141.241 157.623 142.082 157.276 142.702 156.66C143.322 156.045 143.67 155.21 143.671 154.339H144.994C144.993 155.558 144.505 156.727 143.637 157.589C142.769 158.451 141.592 158.936 140.364 158.937Z" fill="#8EC3B0"/>
<path d="M161.658 155.925C161.658 155.601 161.54 155.32 161.303 155.083C161.066 154.846 160.785 154.728 160.461 154.728C160.137 154.728 159.856 154.846 159.619 155.083C159.382 155.32 159.264 155.601 159.264 155.925C159.264 156.249 159.382 156.53 159.619 156.766C159.856 157.003 160.137 157.122 160.461 157.122C160.785 157.122 161.066 157.003 161.303 156.766C161.54 156.53 161.658 156.249 161.658 155.925ZM154.476 148.743C154.476 148.419 154.358 148.138 154.121 147.901C153.884 147.664 153.603 147.546 153.279 147.546C152.955 147.546 152.674 147.664 152.437 147.901C152.2 148.138 152.082 148.419 152.082 148.743C152.082 149.067 152.2 149.348 152.437 149.584C152.674 149.821 152.955 149.94 153.279 149.94C153.603 149.94 153.884 149.821 154.121 149.584C154.358 149.348 154.476 149.067 154.476 148.743ZM164.052 155.925C164.052 156.916 163.701 157.762 163 158.464C162.299 159.165 161.452 159.516 160.461 159.516C159.47 159.516 158.623 159.165 157.922 158.464C157.221 157.762 156.87 156.916 156.87 155.925C156.87 154.934 157.221 154.087 157.922 153.386C158.623 152.685 159.47 152.334 160.461 152.334C161.452 152.334 162.299 152.685 163 153.386C163.701 154.087 164.052 154.934 164.052 155.925ZM163.154 145.75C163.154 145.875 163.114 145.993 163.033 146.106L153.157 159.273C153.039 159.435 152.88 159.516 152.68 159.516H151.184C151.022 159.516 150.882 159.457 150.763 159.338C150.645 159.22 150.586 159.079 150.586 158.917C150.586 158.793 150.626 158.674 150.707 158.562L160.583 145.395C160.701 145.233 160.86 145.152 161.059 145.152H162.556C162.718 145.152 162.858 145.211 162.977 145.33C163.095 145.448 163.154 145.588 163.154 145.75ZM156.87 148.743C156.87 149.734 156.519 150.58 155.818 151.282C155.117 151.983 154.27 152.334 153.279 152.334C152.288 152.334 151.441 151.983 150.74 151.282C150.039 150.58 149.688 149.734 149.688 148.743C149.688 147.752 150.039 146.905 150.74 146.204C151.441 145.503 152.288 145.152 153.279 145.152C154.27 145.152 155.117 145.503 155.818 146.204C156.519 146.905 156.87 147.752 156.87 148.743Z" fill="#8EC3B0"/>
<g clip-path="url(#clip1_543_3012)">
<path d="M166.279 76.5772C166.279 75.5557 167.639 75.2845 167.999 76.2415C168.872 78.5532 169.508 80.6248 169.508 81.7432C169.508 83.4559 168.827 85.0984 167.616 86.3094C166.405 87.5204 164.763 88.2007 163.05 88.2007C161.338 88.2007 159.695 87.5204 158.484 86.3094C157.273 85.0984 156.593 83.4559 156.593 81.7432C156.593 80.5421 157.326 78.242 158.3 75.721C159.559 72.4561 160.19 70.8236 160.968 70.7358C161.216 70.7074 161.489 70.7577 161.711 70.874C162.405 71.2356 162.405 73.0166 162.405 76.5772C162.405 77.091 162.609 77.5838 162.972 77.9471C163.335 78.3104 163.828 78.5145 164.342 78.5145C164.856 78.5145 165.348 78.3104 165.712 77.9471C166.075 77.5838 166.279 77.091 166.279 76.5772Z" stroke="#8EC3B0" stroke-width="2"/>
<path d="M161.759 88.2006L161.419 87.3521C161.13 86.6295 161.038 85.8431 161.152 85.0733C161.266 84.3035 161.583 83.5777 162.069 82.97C162.186 82.8228 162.336 82.7039 162.506 82.6222C162.676 82.5405 162.862 82.498 163.05 82.498C163.239 82.498 163.425 82.5405 163.595 82.6222C163.765 82.7039 163.914 82.8228 164.032 82.97C165.021 84.2073 165.269 85.8811 164.681 87.3521L164.342 88.2006" stroke="#8EC3B0" stroke-width="2"/>
<path d="M163.216 92.4256C163.159 92.42 163.106 92.396 163.063 92.3573C163.033 92.3333 163.008 92.3034 162.989 92.2695C162.971 92.2356 162.959 92.1983 162.955 92.1599C162.951 92.1214 162.955 92.0826 162.966 92.0456C162.978 92.0087 162.996 91.9743 163.021 91.9447L170.386 83.0478C170.416 83.0114 170.454 82.9827 170.498 82.9641C170.541 82.9456 170.588 82.9377 170.635 82.9411L180.338 83.6907L182.234 73.0505C182.255 72.9813 182.3 72.9221 182.362 72.8842C182.424 72.8463 182.497 72.8324 182.568 72.8451C182.639 72.8578 182.704 72.8962 182.748 72.9531C182.793 73.0099 182.815 73.0812 182.811 73.1534L180.874 84.0555C180.86 84.1275 180.821 84.1919 180.762 84.2362C180.704 84.2806 180.632 84.3017 180.559 84.2955L170.741 83.5374L163.48 92.3256C163.448 92.3629 163.407 92.3916 163.361 92.4091C163.315 92.4266 163.265 92.4322 163.216 92.4256Z" fill="white"/>
</g>
<path d="M222.861 91.5166H217.602V108.108H222.861V91.5166Z" fill="#8EC3B0" stroke="#263238" stroke-miterlimit="10"/>
<path d="M217.017 102.252H211.757V108.108H217.017V102.252Z" fill="#263238" stroke="#263238" stroke-linecap="round" stroke-linejoin="round"/>
<path d="M211.172 69.5518H205.913V108.102H211.172V69.5518Z" fill="#8EC3B0" stroke="#263238" stroke-miterlimit="10"/>
<path d="M205.333 71.5073H200.073V108.108H205.333V71.5073Z" fill="white" stroke="#263238" stroke-linecap="round" stroke-linejoin="round"/>
<path d="M199.488 91.5166H194.229V108.108H199.488V91.5166Z" fill="#8EC3B0" stroke="#263238" stroke-miterlimit="10"/>
<path d="M193.643 86.1484H188.384V108.108H193.643V86.1484Z" fill="#263238" stroke="#263238" stroke-linecap="round" stroke-linejoin="round"/>
<path d="M187.805 105.177H182.545V108.108H187.805V105.177Z" fill="#8EC3B0" stroke="#263238" stroke-miterlimit="10"/>
<path d="M181.96 102.252H176.7V108.108H181.96V102.252Z" fill="white" stroke="#263238" stroke-linecap="round" stroke-linejoin="round"/>
<path d="M176.116 91.5166H170.856V108.108H176.116V91.5166Z" fill="#8EC3B0" stroke="#263238" stroke-miterlimit="10"/>
<path d="M110.566 69.3604L105.241 74.6849L107.008 76.4517L109.317 74.1427V96.9808L107.008 94.6718L105.241 96.4385L110.566 101.763L115.891 96.4385L114.124 94.6718L111.815 96.9808V74.1427L114.124 76.4518L115.891 74.6849L110.566 69.3604ZM93.7408 69.3783C92.1192 69.5889 90.6489 71.491 90.6489 73.954C90.6489 75.3113 91.1188 76.5118 91.8075 77.3417L92.6292 78.3316L91.365 78.5692C90.4697 78.7375 89.8133 79.2104 89.2523 79.9805C88.6912 80.7506 88.2622 81.8235 87.9616 83.06C87.4173 85.3002 87.2976 88.0354 87.2786 90.4465H90.2535L91.0704 101.4C93.145 101.868 95.36 101.852 97.3581 101.402L98.0808 90.4465H100.913C100.911 88.0059 100.88 85.233 100.387 82.9758C100.115 81.7312 99.7029 80.6599 99.1351 79.8985C98.5671 79.1372 97.8804 78.667 96.8753 78.5113L95.585 78.3114L96.3995 77.291C97.0584 76.4654 97.5051 75.2787 97.5051 73.9542C97.5051 71.3283 95.8635 69.3847 94.0769 69.3847L93.7408 69.3783Z" fill="#8EC3B0"/>
<defs>
<clipPath id="clip0_543_3012">
<rect width="37.044" height="37.044" fill="white" transform="translate(100.548 198.828)"/>
</clipPath>
<clipPath id="clip1_543_3012">
<rect width="30.996" height="30.996" fill="white" transform="translate(142.128 67.2842)"/>
</clipPath>
</defs>
</svg>
