<svg width="378" height="283" viewBox="0 0 378 283" fill="none" xmlns="http://www.w3.org/2000/svg">
<path d="M378 248.094H0V248.283H378V248.094Z" fill="#EBEBEB"/>
<path d="M324.861 253.243H251.075V253.432H324.861V253.243Z" fill="#EBEBEB"/>
<path d="M253.766 257.612H218.484V257.801H253.766V257.612Z" fill="#EBEBEB"/>
<path d="M340.124 260.258H325.617V260.447H340.124V260.258Z" fill="#EBEBEB"/>
<path d="M165.564 257.703H95.6113V257.892H165.564V257.703Z" fill="#EBEBEB"/>
<path d="M88.883 257.703H73.8386V257.892H88.883V257.703Z" fill="#EBEBEB"/>
<path d="M68.5314 254.513H43.6892V254.702H68.5314V254.513Z" fill="#EBEBEB"/>
<path d="M179.172 214.377H33.1959C32.0524 214.375 30.9563 213.919 30.1484 213.11C29.3405 212.301 28.8867 211.204 28.8867 210.06V4.85904C28.8967 3.72203 29.3548 2.63487 30.1617 1.83369C30.9685 1.03251 32.0589 0.582026 33.1959 0.580078H179.172C180.317 0.580078 181.415 1.03488 182.224 1.84443C183.034 2.65398 183.489 3.75196 183.489 4.89684V210.06C183.489 211.205 183.034 212.303 182.224 213.113C181.415 213.922 180.317 214.377 179.172 214.377ZM33.1959 0.731279C32.1025 0.733281 31.0545 1.16905 30.282 1.94294C29.5096 2.71683 29.0757 3.7656 29.0757 4.85904V210.06C29.0757 211.154 29.5096 212.202 30.282 212.976C31.0545 213.75 32.1025 214.186 33.1959 214.188H179.172C180.266 214.186 181.315 213.75 182.089 212.977C182.862 212.203 183.298 211.154 183.3 210.06V4.85904C183.298 3.7649 182.862 2.71615 182.089 1.94248C181.315 1.16881 180.266 0.733277 179.172 0.731279H33.1959Z" fill="#EBEBEB"/>
<path d="M342.702 214.377H196.719C195.575 214.375 194.478 213.919 193.669 213.11C192.86 212.301 192.404 211.204 192.402 210.06V4.85904C192.414 3.72134 192.874 2.63419 193.682 1.83322C194.49 1.03225 195.581 0.582005 196.719 0.580078H342.702C343.838 0.584013 344.927 1.03538 345.732 1.83634C346.537 2.63731 346.994 3.72334 347.004 4.85904V210.06C347.004 211.202 346.551 212.298 345.745 213.107C344.939 213.916 343.845 214.373 342.702 214.377ZM196.719 0.731279C195.625 0.733277 194.576 1.16881 193.802 1.94248C193.029 2.71615 192.593 3.7649 192.591 4.85904V210.06C192.593 211.154 193.029 212.203 193.802 212.977C194.576 213.75 195.625 214.186 196.719 214.188H342.702C343.797 214.186 344.845 213.75 345.619 212.977C346.393 212.203 346.828 211.154 346.83 210.06V4.85904C346.828 3.7649 346.393 2.71615 345.619 1.94248C344.845 1.16881 343.797 0.733277 342.702 0.731279H196.719Z" fill="#EBEBEB"/>
<path d="M295.649 241.132H67.3067L53.6912 86.2427H282.033L295.649 241.132Z" fill="#F0F0F0"/>
<path d="M63.2772 246.069L67.3067 241.132L53.6911 86.2427L49.6616 91.255L63.2772 246.069Z" fill="#E0E0E0"/>
<path d="M70.308 235.257L57.7811 92.5775C57.7507 92.2222 57.7944 91.8646 57.9094 91.5271C58.0243 91.1896 58.2081 90.8796 58.4489 90.6167C58.6898 90.3538 58.9825 90.1438 59.3087 89.9998C59.6349 89.8558 59.9874 89.7811 60.3439 89.7803H276.454C277.097 89.7779 277.718 90.0176 278.193 90.4518C278.668 90.886 278.962 91.4829 279.017 92.1239L291.559 234.804C291.59 235.159 291.548 235.517 291.433 235.855C291.319 236.193 291.135 236.504 290.894 236.767C290.653 237.03 290.359 237.24 290.033 237.384C289.706 237.527 289.353 237.601 288.996 237.601H72.886C72.24 237.607 71.6155 237.369 71.1375 236.935C70.6595 236.5 70.3632 235.901 70.308 235.257Z" fill="#FAFAFA"/>
<path d="M99.4065 241.132H65.001L62.5667 248.095H96.9722L99.4065 241.132Z" fill="#E0E0E0"/>
<path d="M99.4065 241.132H325.617L323.182 248.095H96.9722L99.4065 241.132Z" fill="#F5F5F5"/>
<path d="M192.553 241.132H235.917L235.449 245.691H192.092L192.553 241.132Z" fill="#E0E0E0"/>
<path d="M258.265 76.0742H313.052C317.588 106.133 296.594 130.862 266.535 130.862C256.579 130.774 246.794 128.254 238.034 123.521L258.265 76.0742Z" fill="#E0E0E0"/>
<path d="M258.265 76.0744L287.136 34.1089C294.031 39.2362 299.895 45.6205 304.418 52.9257C308.823 59.9831 311.76 67.8562 313.052 76.0744H258.265Z" fill="#EBEBEB"/>
<path d="M258.265 76.0744L249.987 21.2871C256.539 21.3142 263.042 22.4332 269.227 24.5984C275.65 26.8301 281.69 30.0379 287.136 34.1089L258.265 76.0744Z" fill="#E6E6E6"/>
<path d="M258.265 76.0744L238.034 123.521C219.625 113.753 206.426 95.6246 203.477 76.0744C198.941 46.0234 219.928 21.2871 249.986 21.2871L258.265 76.0744Z" fill="#F0F0F0"/>
<path d="M190.625 173.848H239.229C239.871 178.011 239.952 182.242 239.471 186.427C239.013 190.462 237.974 194.409 236.386 198.145L190.625 173.848Z" fill="#EBEBEB"/>
<path d="M190.625 173.848L191.843 125.985C203.744 128.16 214.679 133.971 223.141 142.617C231.805 151.364 237.505 162.432 239.229 173.855L190.625 173.848Z" fill="#E0E0E0"/>
<path d="M190.625 173.848L147.473 190.48C144.766 185.269 142.927 179.651 142.03 173.848C138 147.184 156.628 125.245 183.285 125.245C186.154 125.254 189.016 125.506 191.843 126.001L190.625 173.848Z" fill="#F0F0F0"/>
<path d="M190.625 173.848L236.386 198.145C229.983 213.167 215.309 222.443 197.974 222.443C177.562 222.443 157.339 209.591 147.473 190.472L190.625 173.848Z" fill="white"/>
<path d="M189 282.235C269.954 282.235 335.581 278.404 335.581 273.678C335.581 268.951 269.954 265.12 189 265.12C108.046 265.12 42.4192 268.951 42.4192 273.678C42.4192 278.404 108.046 282.235 189 282.235Z" fill="#F5F5F5"/>
<path d="M181.886 139.979H113.785C111.653 139.937 109.61 139.114 108.044 137.667C106.477 136.219 105.497 134.247 105.288 132.124L101.878 90.2566C101.779 89.2539 101.893 88.2417 102.212 87.286C102.531 86.3303 103.048 85.4527 103.73 84.7106C104.411 83.9684 105.242 83.3785 106.167 82.9794C107.092 82.5802 108.091 82.3808 109.098 82.3942H177.191C179.325 82.436 181.369 83.2598 182.935 84.7091C184.502 86.1585 185.482 88.1326 185.689 90.2566L189.098 132.124C189.197 133.126 189.084 134.137 188.765 135.092C188.446 136.046 187.93 136.923 187.249 137.665C186.568 138.406 185.739 138.995 184.814 139.394C183.89 139.793 182.892 139.992 181.886 139.979Z" fill="white"/>
<path d="M181.886 140.304H113.785C111.566 140.265 109.439 139.409 107.811 137.9C106.183 136.391 105.169 134.334 104.963 132.124L101.553 90.2491C101.451 89.2006 101.571 88.1423 101.906 87.1434C102.241 86.1446 102.783 85.2277 103.497 84.4527C104.21 83.6777 105.079 83.0621 106.047 82.6462C107.015 82.2302 108.06 82.0233 109.113 82.0389H177.206C179.422 82.0771 181.547 82.9298 183.174 84.4344C184.801 85.939 185.817 87.99 186.029 90.1961L189.423 132.124C189.526 133.172 189.405 134.231 189.07 135.23C188.736 136.228 188.194 137.145 187.48 137.92C186.766 138.695 185.897 139.311 184.929 139.727C183.961 140.143 182.917 140.35 181.863 140.334L181.886 140.304ZM109.098 82.7193C108.136 82.7014 107.18 82.8881 106.295 83.2669C105.409 83.6458 104.615 84.2083 103.963 84.9172C103.311 85.6261 102.817 86.4652 102.514 87.3791C102.211 88.2931 102.105 89.261 102.204 90.2188L105.613 132.124C105.81 134.168 106.751 136.068 108.258 137.462C109.765 138.856 111.733 139.647 113.785 139.684H181.886C182.854 139.702 183.814 139.513 184.703 139.13C185.592 138.747 186.389 138.179 187.041 137.463C187.693 136.748 188.185 135.901 188.483 134.98C188.782 134.06 188.881 133.086 188.773 132.124L185.364 90.2491C185.167 88.2054 184.226 86.3054 182.719 84.9112C181.211 83.517 179.244 82.7261 177.191 82.6891L109.098 82.7193Z" fill="#8EC3B0"/>
<path d="M163.402 127.754C160.699 130.67 157.231 132.766 153.392 133.802L152.266 130.612C160.65 128.344 166.327 120.497 165.571 111.206C165.085 105.759 162.573 100.693 158.533 97.0079L160.703 94.6416C170.531 103.706 171.748 118.66 163.402 127.754Z" fill="#E0E0E0"/>
<path d="M160.703 94.6185L158.533 96.9848C154.553 93.2482 149.311 91.1482 143.852 91.1031C141.281 91.072 138.733 91.5799 136.371 92.5943C134.008 93.6087 131.885 95.1069 130.138 96.9924L127.575 94.6185C129.619 92.4251 132.098 90.6818 134.854 89.4999C137.61 88.318 140.581 87.7234 143.579 87.7541C149.946 87.8155 156.057 90.2653 160.703 94.6185Z" fill="#263238"/>
<path d="M153.392 133.817C145.492 135.972 136.662 133.659 130.274 127.769C120.446 118.697 119.229 103.721 127.575 94.6338L130.138 97.0076C128.406 98.914 127.092 101.161 126.278 103.604C125.464 106.048 125.17 108.634 125.413 111.198C126.312 122.288 136.035 131.277 147.125 131.277C148.861 131.281 150.589 131.055 152.266 130.604L153.392 133.817Z" fill="#8EC3B0"/>
<path d="M89.1248 14.7095H83.6665V15.3672H89.1248V14.7095Z" fill="#8EC3B0"/>
<path d="M78.3669 14.7095H65.9382V15.3672H78.3669V14.7095Z" fill="#8EC3B0"/>
<path d="M136.186 74.887H68.0928C65.9598 74.8471 63.9158 74.0249 62.3492 72.5768C60.7826 71.1287 59.8026 69.1555 59.5954 67.0322L56.1858 25.1573C56.0867 24.155 56.2004 23.1431 56.5195 22.1878C56.8386 21.2325 57.3559 20.3553 58.0375 19.6138C58.719 18.8722 59.5496 18.283 60.4747 17.8847C61.3998 17.4864 62.3986 17.288 63.4056 17.3025H131.499C133.631 17.3441 135.674 18.1668 137.24 19.6146C138.807 21.0624 139.787 23.0347 139.996 25.1573L143.406 67.0322C143.505 68.0345 143.391 69.0464 143.072 70.0017C142.753 70.9571 142.236 71.8342 141.554 72.5757C140.872 73.3173 140.042 73.9065 139.117 74.3048C138.192 74.7031 137.193 74.9015 136.186 74.887Z" fill="white"/>
<path d="M136.186 75.2196H68.0929C65.877 75.1814 63.7527 74.3287 62.1254 72.8241C60.4981 71.3196 59.4818 69.2685 59.2704 67.0624L55.8608 25.1875C55.7585 24.139 55.8788 23.0807 56.2136 22.0819C56.5485 21.0831 57.0905 20.1662 57.8041 19.3912C58.5177 18.6162 59.3868 18.0006 60.3547 17.5847C61.3226 17.1687 62.3674 16.9618 63.4208 16.9774H131.514C133.73 17.0156 135.854 17.8683 137.481 19.3729C139.108 20.8774 140.125 22.9285 140.336 25.1346L143.746 67.0095C143.848 68.058 143.728 69.1163 143.393 70.1151C143.058 71.1139 142.516 72.0308 141.803 72.8058C141.089 73.5808 140.22 74.1964 139.252 74.6124C138.284 75.0283 137.239 75.2352 136.186 75.2196ZM63.4057 17.6275C62.4422 17.6095 61.4859 17.7964 60.6 18.1757C59.7142 18.555 58.919 19.1182 58.2672 19.8279C57.6154 20.5377 57.1217 21.3778 56.819 22.2926C56.5162 23.2074 56.4112 24.1762 56.511 25.1346L59.9205 67.0095C60.117 69.0531 61.0584 70.9531 62.5656 72.3473C64.0727 73.7415 66.0401 74.5325 68.0929 74.5695H136.186C137.149 74.5874 138.104 74.4007 138.989 74.0218C139.875 73.6429 140.669 73.0805 141.321 72.3716C141.973 71.6627 142.467 70.8236 142.77 69.9096C143.073 68.9957 143.179 68.0278 143.08 67.0699L139.671 25.1951C139.473 23.152 138.531 21.253 137.024 19.8591C135.517 18.4653 133.551 17.6737 131.499 17.6351L63.4057 17.6275Z" fill="#8EC3B0"/>
<path d="M229.28 74.8871H161.187C159.058 74.8417 157.019 74.0171 155.457 72.5695C153.896 71.1219 152.919 69.1518 152.712 67.0323L149.303 25.1575C149.204 24.1577 149.317 23.1484 149.634 22.1952C149.951 21.242 150.466 20.3663 151.144 19.6253C151.822 18.8842 152.649 18.2944 153.571 17.8942C154.492 17.494 155.488 17.2924 156.492 17.3026H224.593C226.725 17.3442 228.768 18.1669 230.334 19.6147C231.901 21.0625 232.881 23.0348 233.09 25.1575L236.5 67.0323C236.599 68.0346 236.485 69.0465 236.166 70.0019C235.847 70.9572 235.33 71.8343 234.648 72.5758C233.966 73.3174 233.136 73.9066 232.211 74.3049C231.286 74.7032 230.287 74.9016 229.28 74.8871Z" fill="white"/>
<path d="M229.28 75.2196H161.187C158.973 75.1718 156.853 74.316 155.227 72.8135C153.6 71.3109 152.579 69.2654 152.357 67.0624L148.932 25.1875C148.83 24.139 148.95 23.0807 149.285 22.0819C149.62 21.0831 150.162 20.1662 150.875 19.3912C151.589 18.6162 152.458 18.0006 153.426 17.5847C154.394 17.1687 155.438 16.9618 156.492 16.9774H224.592C226.808 17.0156 228.933 17.8683 230.56 19.3729C232.187 20.8774 233.203 22.9285 233.415 25.1346L236.824 67.0095C236.927 68.058 236.806 69.1163 236.472 70.1151C236.137 71.1139 235.595 72.0308 234.881 72.8058C234.168 73.5808 233.298 74.1964 232.33 74.6124C231.363 75.0283 230.318 75.2352 229.264 75.2196H229.28ZM156.492 17.6275C155.529 17.6106 154.574 17.7982 153.689 18.1781C152.804 18.5579 152.009 19.1212 151.358 19.8308C150.707 20.5404 150.214 21.3801 149.912 22.2944C149.61 23.2087 149.505 24.1768 149.605 25.1346L153.014 67.0095C153.211 69.0531 154.152 70.9531 155.659 72.3473C157.166 73.7415 159.134 74.5325 161.187 74.5695H229.28C230.242 74.5874 231.198 74.4007 232.083 74.0218C232.968 73.6429 233.763 73.0805 234.415 72.3716C235.067 71.6627 235.56 70.8236 235.864 69.9096C236.167 68.9957 236.273 68.0278 236.174 67.0699L232.765 25.1951C232.567 23.152 231.625 21.253 230.118 19.8591C228.611 18.4653 226.645 17.6737 224.592 17.6351L156.492 17.6275Z" fill="#8EC3B0"/>
<path d="M156.409 204.526H88.3084C86.1764 204.483 84.1342 203.659 82.5683 202.212C81.0024 200.764 80.0214 198.793 79.811 196.671L76.409 154.804C76.3099 153.802 76.4234 152.791 76.7421 151.836C77.0607 150.881 77.5773 150.004 78.2581 149.263C78.9388 148.522 79.7684 147.932 80.6926 147.533C81.6168 147.135 82.6148 146.935 83.6212 146.949H151.722C153.854 146.992 155.896 147.815 157.462 149.263C159.028 150.71 160.009 152.682 160.219 154.804L163.629 196.679C163.725 197.68 163.61 198.691 163.29 199.644C162.97 200.598 162.452 201.474 161.771 202.215C161.09 202.955 160.26 203.543 159.336 203.942C158.412 204.34 157.415 204.539 156.409 204.526Z" fill="white"/>
<path d="M156.409 204.851H88.3082C86.0928 204.811 83.9694 203.958 82.3425 202.454C80.7156 200.949 79.6987 198.899 79.4857 196.694L76.0761 154.804C75.9739 153.755 76.0941 152.697 76.429 151.698C76.7638 150.699 77.3058 149.782 78.0194 149.007C78.733 148.232 79.6022 147.617 80.5701 147.201C81.538 146.785 82.5828 146.578 83.6361 146.594H151.737C153.958 146.638 156.084 147.501 157.709 149.016C159.334 150.53 160.344 152.591 160.544 154.804L163.954 196.671C164.056 197.72 163.936 198.778 163.601 199.777C163.266 200.776 162.724 201.692 162.01 202.467C161.297 203.242 160.428 203.858 159.46 204.274C158.492 204.69 157.447 204.897 156.394 204.881L156.409 204.851ZM83.621 147.244C82.6532 147.226 81.6927 147.415 80.8037 147.798C79.9147 148.181 79.1177 148.749 78.4658 149.464C77.8139 150.18 77.3222 151.026 77.0236 151.947C76.7249 152.868 76.6261 153.842 76.7338 154.804L80.1358 196.641C80.3321 198.683 81.2725 200.582 82.7781 201.976C84.2836 203.37 86.2492 204.162 88.3006 204.201H156.401C157.364 204.218 158.319 204.03 159.204 203.65C160.089 203.27 160.884 202.707 161.535 201.998C162.186 201.288 162.678 200.448 162.981 199.534C163.283 198.62 163.388 197.652 163.288 196.694L159.894 154.804C159.696 152.761 158.754 150.862 157.247 149.468C155.74 148.074 153.774 147.282 151.721 147.244H83.621Z" fill="#8EC3B0"/>
<path d="M281.897 79.2492C283.719 82.6663 285.284 86.0532 286.758 89.561C288.236 93.1081 289.498 96.741 290.538 100.44C290.803 101.377 291.03 102.345 291.249 103.313C291.419 103.984 291.52 104.67 291.551 105.361C291.577 106.049 291.539 106.737 291.438 107.418C291.039 109.617 290.272 111.733 289.17 113.677C287.264 117.129 284.885 120.297 282.101 123.09C281.743 123.459 281.265 123.686 280.753 123.731C280.241 123.776 279.73 123.635 279.313 123.334C278.896 123.033 278.602 122.592 278.484 122.092C278.365 121.592 278.431 121.066 278.669 120.61L278.722 120.512C280.395 117.432 281.85 114.239 283.077 110.956C283.595 109.573 283.909 108.121 284.006 106.647C284.009 106.406 283.989 106.165 283.946 105.928C283.935 105.853 283.915 105.779 283.886 105.709L283.742 105.263C283.492 104.447 283.235 103.63 282.933 102.814C281.784 99.5327 280.37 96.2365 278.896 92.9857C277.422 89.7349 275.872 86.4161 274.299 83.2635V83.1955C273.78 82.184 273.684 81.0076 274.032 79.9251C274.38 78.8426 275.144 77.9428 276.155 77.4234C277.167 76.9041 278.343 76.8079 279.426 77.156C280.508 77.5041 281.408 78.2679 281.927 79.2794L281.897 79.2492Z" fill="#8EC3B0"/>
<path d="M279.531 120.187L275.94 121.328L280.189 126.295C281.217 125.326 281.982 124.111 282.411 122.765C282.505 122.419 282.489 122.053 282.368 121.716C282.246 121.38 282.024 121.088 281.731 120.882L281.126 120.444C280.899 120.278 280.636 120.169 280.359 120.124C280.082 120.08 279.798 120.101 279.531 120.187Z" fill="#FF928E"/>
<path d="M270.95 124.39L275.502 128.004L280.174 126.295L275.925 121.328L270.95 124.39Z" fill="#FF928E"/>
<path d="M255.415 53.9612C255.324 54.4072 255.014 54.7172 254.719 54.6642C254.424 54.6113 254.266 54.1955 254.356 53.7495C254.447 53.3034 254.757 52.9935 255.052 53.0464C255.347 53.0993 255.528 53.5 255.415 53.9612Z" fill="#263238"/>
<path d="M255.052 54.7319C254.24 55.9903 253.261 57.1322 252.141 58.1264C252.402 58.4068 252.722 58.6265 253.077 58.7702C253.432 58.9139 253.815 58.978 254.197 58.958L255.052 54.7319Z" fill="#FF928E"/>
<path d="M257.554 51.8141C257.606 51.8129 257.657 51.7968 257.7 51.7678C257.743 51.7387 257.777 51.6979 257.798 51.6502C257.818 51.6025 257.825 51.5498 257.817 51.4985C257.808 51.4471 257.785 51.3992 257.751 51.3605C257.471 51.0427 257.119 50.7967 256.724 50.6428C256.33 50.4889 255.904 50.4317 255.483 50.476C255.443 50.4761 255.404 50.4849 255.368 50.5017C255.333 50.5185 255.301 50.5429 255.276 50.5732C255.25 50.6034 255.232 50.6389 255.221 50.677C255.211 50.7152 255.209 50.7551 255.216 50.7941C255.223 50.833 255.238 50.8701 255.26 50.9026C255.282 50.9352 255.312 50.9624 255.346 50.9825C255.38 51.0026 255.418 51.015 255.457 51.0189C255.496 51.0228 255.536 51.0181 255.574 51.0051C255.911 50.9794 256.249 51.0346 256.561 51.1661C256.873 51.2976 257.148 51.5016 257.365 51.7611C257.419 51.8024 257.487 51.8213 257.554 51.8141Z" fill="#263238"/>
<path d="M267.836 62.103C267.027 66.2459 266.535 71.9764 269.431 74.7433C269.431 74.7433 268.297 78.9391 260.608 78.9391C252.149 78.9391 256.541 75.2574 256.541 75.2574C260.056 74.1612 260.026 70.162 259.217 66.9414L267.836 62.103Z" fill="#FF928E"/>
<path d="M255.052 74.6075C255.052 74.6075 256.292 71.6893 257.547 71.1828C258.802 70.6763 266.83 69.3609 268.675 70.5251C270.52 71.6893 271.774 75.424 271.774 75.424L255.052 74.6075Z" fill="#8EC3B0"/>
<path d="M263.534 268.204C262.778 268.204 262.105 268.106 261.871 267.773C261.81 267.688 261.777 267.586 261.777 267.482C261.777 267.377 261.81 267.276 261.871 267.191C261.917 267.111 261.979 267.043 262.053 266.989C262.127 266.936 262.212 266.899 262.302 266.881C263.239 266.624 265.22 267.75 265.326 267.796C265.349 267.809 265.367 267.83 265.378 267.854C265.389 267.878 265.392 267.906 265.386 267.932C265.384 267.96 265.372 267.986 265.353 268.006C265.333 268.027 265.308 268.04 265.281 268.045C264.704 268.148 264.12 268.201 263.534 268.204ZM262.635 267.108C262.549 267.096 262.463 267.096 262.378 267.108C262.322 267.117 262.269 267.139 262.223 267.172C262.178 267.204 262.14 267.247 262.113 267.297C262.022 267.463 262.052 267.539 262.113 267.592C262.378 267.954 263.806 267.962 264.857 267.818C264.171 267.434 263.416 267.188 262.635 267.093V267.108Z" fill="#8EC3B0"/>
<path d="M265.243 268.03H265.19C264.502 267.72 263.149 266.518 263.254 265.861C263.254 265.709 263.383 265.52 263.753 265.483C263.888 265.466 264.025 265.478 264.155 265.517C264.285 265.556 264.406 265.622 264.509 265.709C265.265 266.307 265.386 267.826 265.394 267.894C265.393 267.918 265.388 267.941 265.377 267.961C265.367 267.982 265.352 268.001 265.333 268.015C265.306 268.031 265.274 268.037 265.243 268.03ZM263.859 265.762H263.784C263.542 265.762 263.527 265.883 263.519 265.913C263.459 266.299 264.373 267.259 265.076 267.682C265.008 267.037 264.744 266.428 264.32 265.936C264.193 265.812 264.022 265.742 263.844 265.74L263.859 265.762Z" fill="#8EC3B0"/>
<path d="M271.465 267.894H265.81L265.243 254.792H270.898L271.465 267.894Z" fill="#FF928E"/>
<path d="M265.84 267.244H272.024C272.136 267.244 272.245 267.282 272.333 267.352C272.421 267.422 272.482 267.52 272.508 267.629L273.619 272.657C273.648 272.778 273.649 272.904 273.621 273.025C273.594 273.147 273.539 273.261 273.461 273.358C273.383 273.455 273.284 273.532 273.171 273.585C273.058 273.638 272.935 273.664 272.81 273.662C270.58 273.624 267.359 273.496 264.555 273.496C261.281 273.496 260.881 273.677 257.04 273.677C254.719 273.677 254.076 271.326 255.044 271.114C259.474 270.147 260.654 270.041 264.479 267.682C264.883 267.412 265.354 267.261 265.84 267.244Z" fill="#263238"/>
<path d="M279.561 74.7586C284.853 75.9757 288.361 90.2868 288.361 90.2868L279.508 96.9396C276.21 94.5804 273.87 91.1135 272.916 87.1721C271.117 80.0808 274.141 73.5187 279.561 74.7586Z" fill="#263238"/>
<path opacity="0.2" d="M275.018 84.7153C277.898 87.5655 279.758 92.0637 279.985 96.577L279.516 96.9399C276.223 94.5785 273.888 91.1118 272.939 87.1723C272.833 86.749 272.735 86.3256 272.659 85.9098L275.018 84.7153Z" fill="black"/>
<path d="M298.628 96.0809L255.663 113.248L268.429 145.198L311.394 128.03L298.628 96.0809Z" fill="#8EC3B0"/>
<path opacity="0.5" d="M298.004 96.328L255.671 113.243L268.437 145.192L310.77 128.278L298.004 96.328Z" fill="white"/>
<g opacity="0.5">
<path d="M263.419 113.423L259.41 115.024L260.546 117.868L264.555 116.266L263.419 113.423Z" fill="#8EC3B0"/>
<path d="M270.039 110.779L266.031 112.381L267.167 115.224L271.175 113.622L270.039 110.779Z" fill="#8EC3B0"/>
<path d="M276.654 108.135L272.646 109.737L273.782 112.58L277.79 110.978L276.654 108.135Z" fill="#8EC3B0"/>
<path d="M283.274 105.489L279.265 107.09L280.401 109.934L284.41 108.332L283.274 105.489Z" fill="#8EC3B0"/>
<path d="M289.887 102.845L285.878 104.447L287.014 107.29L291.023 105.688L289.887 102.845Z" fill="#8EC3B0"/>
<path d="M296.507 100.209L292.498 101.811L293.634 104.654L297.643 103.052L296.507 100.209Z" fill="#8EC3B0"/>
<path d="M265.299 118.115L261.291 119.716L262.427 122.56L266.435 120.958L265.299 118.115Z" fill="#8EC3B0"/>
<path d="M271.912 115.471L267.903 117.073L269.039 119.916L273.048 118.314L271.912 115.471Z" fill="#8EC3B0"/>
<path d="M278.524 112.827L274.516 114.429L275.652 117.272L279.661 115.671L278.524 112.827Z" fill="#8EC3B0"/>
<path d="M285.151 110.181L281.143 111.783L282.279 114.626L286.288 113.024L285.151 110.181Z" fill="#8EC3B0"/>
<path d="M291.767 107.537L287.758 109.139L288.894 111.982L292.903 110.38L291.767 107.537Z" fill="#8EC3B0"/>
<path d="M298.379 104.893L294.371 106.495L295.507 109.338L299.515 107.737L298.379 104.893Z" fill="#8EC3B0"/>
<path d="M267.169 122.8L263.161 124.401L264.297 127.245L268.305 125.643L267.169 122.8Z" fill="#8EC3B0"/>
<path d="M273.782 120.156L269.773 121.758L270.909 124.601L274.918 122.999L273.782 120.156Z" fill="#8EC3B0"/>
<path d="M280.405 117.52L276.396 119.122L277.532 121.965L281.541 120.363L280.405 117.52Z" fill="#8EC3B0"/>
<path d="M287.024 114.873L283.016 116.475L284.152 119.318L288.16 117.717L287.024 114.873Z" fill="#8EC3B0"/>
<path d="M293.637 112.23L289.628 113.832L290.764 116.675L294.773 115.073L293.637 112.23Z" fill="#8EC3B0"/>
<path d="M300.257 109.586L296.248 111.188L297.384 114.031L301.393 112.43L300.257 109.586Z" fill="#8EC3B0"/>
<path d="M269.05 127.499L265.041 129.101L266.177 131.944L270.186 130.343L269.05 127.499Z" fill="#8EC3B0"/>
<path d="M275.662 124.856L271.653 126.458L272.789 129.301L276.798 127.699L275.662 124.856Z" fill="#8EC3B0"/>
<path d="M282.274 122.205L278.266 123.807L279.402 126.65L283.411 125.048L282.274 122.205Z" fill="#8EC3B0"/>
<path d="M288.902 119.558L284.893 121.16L286.029 124.003L290.038 122.402L288.902 119.558Z" fill="#8EC3B0"/>
<path d="M295.514 116.915L291.506 118.517L292.642 121.36L296.65 119.758L295.514 116.915Z" fill="#8EC3B0"/>
<path d="M302.129 114.278L298.121 115.88L299.257 118.723L303.266 117.121L302.129 114.278Z" fill="#8EC3B0"/>
<path d="M270.92 132.184L266.911 133.786L268.047 136.629L272.056 135.028L270.92 132.184Z" fill="#8EC3B0"/>
<path d="M277.532 129.541L273.523 131.143L274.659 133.986L278.668 132.384L277.532 129.541Z" fill="#8EC3B0"/>
<path d="M284.152 126.897L280.143 128.499L281.279 131.342L285.288 129.741L284.152 126.897Z" fill="#8EC3B0"/>
<path d="M290.767 124.261L286.759 125.863L287.895 128.706L291.903 127.104L290.767 124.261Z" fill="#8EC3B0"/>
<path d="M297.387 121.615L293.378 123.216L294.514 126.06L298.523 124.458L297.387 121.615Z" fill="#8EC3B0"/>
<path d="M304.007 118.963L299.998 120.565L301.134 123.408L305.143 121.806L304.007 118.963Z" fill="#8EC3B0"/>
<path d="M272.8 136.877L268.791 138.479L269.927 141.322L273.936 139.72L272.8 136.877Z" fill="#8EC3B0"/>
<path d="M279.412 134.233L275.404 135.835L276.54 138.678L280.548 137.076L279.412 134.233Z" fill="#8EC3B0"/>
<path d="M286.025 131.59L282.016 133.191L283.152 136.035L287.161 134.433L286.025 131.59Z" fill="#8EC3B0"/>
<path d="M292.637 128.946L288.629 130.548L289.765 133.391L293.773 131.789L292.637 128.946Z" fill="#8EC3B0"/>
<path d="M299.264 126.292L295.256 127.894L296.392 130.737L300.401 129.136L299.264 126.292Z" fill="#8EC3B0"/>
<path d="M305.877 123.656L301.868 125.258L303.004 128.101L307.013 126.499L305.877 123.656Z" fill="#8EC3B0"/>
</g>
<path d="M295.074 106.193C294.971 105.9 294.985 105.579 295.113 105.297C295.241 105.014 295.474 104.792 295.762 104.677C296.05 104.562 296.371 104.563 296.659 104.679C296.946 104.795 297.178 105.018 297.305 105.301C297.371 105.449 297.407 105.608 297.41 105.77C297.413 105.933 297.383 106.094 297.323 106.244C297.262 106.394 297.171 106.53 297.057 106.645C296.942 106.759 296.805 106.849 296.655 106.909C296.504 106.97 296.343 106.999 296.181 106.995C296.019 106.991 295.859 106.955 295.712 106.888C295.564 106.821 295.432 106.725 295.322 106.606C295.213 106.486 295.128 106.346 295.074 106.193Z" fill="white"/>
<path d="M294.084 122.908C293.998 122.689 293.979 122.449 294.029 122.218C294.079 121.988 294.197 121.778 294.366 121.614C294.536 121.45 294.75 121.34 294.982 121.298C295.214 121.255 295.453 121.283 295.67 121.376C295.886 121.47 296.07 121.625 296.199 121.823C296.327 122.021 296.394 122.253 296.391 122.488C296.388 122.724 296.315 122.954 296.181 123.148C296.048 123.343 295.86 123.493 295.641 123.581C295.495 123.64 295.338 123.669 295.181 123.667C295.023 123.665 294.867 123.632 294.722 123.569C294.578 123.507 294.447 123.416 294.337 123.303C294.228 123.189 294.141 123.055 294.084 122.908Z" fill="white"/>
<path d="M278.964 123.505C278.876 123.284 278.855 123.042 278.905 122.809C278.954 122.577 279.072 122.364 279.243 122.198C279.413 122.032 279.629 121.921 279.863 121.878C280.097 121.835 280.339 121.862 280.557 121.956C280.776 122.051 280.961 122.208 281.09 122.408C281.219 122.608 281.286 122.841 281.282 123.079C281.278 123.317 281.204 123.549 281.069 123.744C280.933 123.94 280.743 124.091 280.521 124.178C280.375 124.237 280.218 124.266 280.061 124.264C279.903 124.262 279.747 124.229 279.602 124.166C279.458 124.104 279.327 124.013 279.217 123.9C279.108 123.786 279.022 123.652 278.964 123.505Z" fill="white"/>
<path d="M269.484 138.172C269.394 137.951 269.372 137.709 269.421 137.476C269.469 137.243 269.586 137.029 269.756 136.862C269.926 136.696 270.141 136.583 270.375 136.539C270.609 136.495 270.851 136.521 271.07 136.615C271.289 136.708 271.475 136.865 271.605 137.064C271.735 137.264 271.803 137.498 271.8 137.736C271.797 137.974 271.723 138.206 271.588 138.402C271.453 138.598 271.263 138.749 271.041 138.837C270.746 138.954 270.417 138.95 270.126 138.826C269.834 138.701 269.603 138.466 269.484 138.172Z" fill="white"/>
<path d="M270.602 138.172C270.516 138.173 270.431 138.147 270.36 138.096C270.311 138.065 270.268 138.025 270.234 137.977C270.2 137.929 270.176 137.876 270.164 137.818C270.151 137.761 270.15 137.702 270.16 137.645C270.171 137.587 270.192 137.533 270.224 137.484L279.72 122.825C279.758 122.765 279.811 122.715 279.873 122.68C279.934 122.644 280.004 122.624 280.075 122.621L294.779 122.039L295.755 105.724C295.774 105.616 295.832 105.519 295.918 105.452C296.003 105.384 296.111 105.35 296.22 105.357C296.33 105.363 296.432 105.41 296.51 105.487C296.587 105.565 296.633 105.668 296.639 105.777L295.649 122.492C295.641 122.603 295.593 122.706 295.513 122.783C295.434 122.86 295.328 122.904 295.218 122.908L280.34 123.498L270.98 137.975C270.939 138.037 270.882 138.087 270.816 138.121C270.75 138.156 270.677 138.173 270.602 138.172Z" fill="white"/>
<path d="M246.048 80.436C244.891 86.5444 244.165 99.1016 247.56 123.959H277.8C277.255 119.65 275.086 96.6522 279.569 74.7584C276.223 74.1167 272.839 73.69 269.438 73.4808C265.158 73.2317 260.867 73.2317 256.586 73.4808C255.165 73.6093 253.774 73.8134 252.534 74.0326C250.931 74.3156 249.452 75.0797 248.293 76.2235C247.134 77.3672 246.351 78.8365 246.048 80.436Z" fill="#263238"/>
<path opacity="0.2" d="M250.811 89.8481L245.125 90.3017C244.921 97.6576 245.428 108.393 247.529 123.959H247.802C251.211 112.747 255.732 96.7202 250.811 89.8481Z" fill="black"/>
<path opacity="0.2" d="M265.243 254.8L265.53 261.551H271.192L270.905 254.8H265.243Z" fill="black"/>
<path d="M270.527 56.0475C269.076 61.4756 268.494 64.7188 265.152 66.9793C260.117 70.3662 253.812 66.4728 253.646 60.7272C253.472 55.5486 255.876 47.5501 261.697 46.4539C262.98 46.2072 264.304 46.2923 265.545 46.7012C266.785 47.1101 267.901 47.8292 268.785 48.7903C269.67 49.7514 270.294 50.9225 270.599 52.1926C270.904 53.4627 270.879 54.7897 270.527 56.0475Z" fill="#FF928E"/>
<path d="M257.796 56.0854L254.855 56.8414L257.592 49.7425C256.868 48.004 256.78 46.0662 257.342 44.2691C257.447 43.9499 257.649 43.6716 257.921 43.4735C258.192 43.2755 258.519 43.1677 258.854 43.1653C264.948 43.0519 271.321 46.4691 274.526 49.0546C274.825 49.2956 275.026 49.6373 275.092 50.0157C275.157 50.3942 275.082 50.7835 274.882 51.1109C274.092 52.2824 273.165 53.3558 272.122 54.3088C272.062 56.2971 268.819 65.2708 267.027 66.2838C265.235 67.2969 261.795 66.8811 260.881 65.2405C259.966 63.6 256.896 61.4379 257.796 56.0854Z" fill="#263238"/>
<path d="M260.548 56.1989C260.213 57.5522 259.442 58.7581 258.355 59.6312C256.912 60.7652 255.785 59.7219 255.846 58.0511C255.899 56.5391 256.715 54.1502 258.325 53.6588C259.936 53.1674 260.926 54.5584 260.548 56.1989Z" fill="#FF928E"/>
<path d="M312.289 266.238C312.289 265.482 312.379 264.809 312.704 264.567C312.79 264.506 312.893 264.473 312.999 264.473C313.105 264.473 313.208 264.506 313.294 264.567C313.449 264.663 313.56 264.815 313.604 264.991C313.869 265.928 312.757 267.916 312.704 268.015C312.693 268.04 312.673 268.06 312.648 268.073C312.624 268.085 312.595 268.089 312.568 268.083C312.542 268.078 312.517 268.066 312.498 268.047C312.479 268.028 312.467 268.003 312.462 267.977C312.354 267.403 312.296 266.822 312.289 266.238ZM313.385 265.331C313.397 265.246 313.397 265.159 313.385 265.074C313.375 265.018 313.354 264.966 313.321 264.92C313.288 264.874 313.245 264.836 313.196 264.809C313.029 264.719 312.946 264.749 312.901 264.809C312.538 265.074 312.538 266.503 312.697 267.554C313.066 266.863 313.299 266.109 313.385 265.331Z" fill="#8EC3B0"/>
<path d="M312.455 267.939C312.452 267.922 312.452 267.904 312.455 267.886C312.757 267.206 313.967 265.845 314.609 265.944C314.761 265.944 314.95 266.072 314.987 266.435C315.005 266.57 314.994 266.707 314.955 266.837C314.915 266.967 314.849 267.088 314.761 267.191C314.178 267.947 312.651 268.075 312.591 268.083C312.568 268.087 312.544 268.084 312.523 268.075C312.501 268.065 312.483 268.05 312.47 268.03C312.461 268.017 312.455 268.002 312.453 267.986C312.45 267.971 312.451 267.955 312.455 267.939ZM314.723 266.548C314.723 266.548 314.723 266.495 314.723 266.465C314.723 266.223 314.602 266.208 314.572 266.208C314.186 266.148 313.233 267.07 312.818 267.773C313.461 267.704 314.067 267.44 314.556 267.017C314.671 266.887 314.738 266.722 314.745 266.548H314.723Z" fill="#8EC3B0"/>
<path d="M312.546 267.977L307.019 268.37L303.92 255.163L309.438 254.77L312.546 267.977Z" fill="#FF928E"/>
<path d="M312.523 266.692L306.369 266.148C306.257 266.136 306.145 266.163 306.051 266.225C305.957 266.287 305.888 266.38 305.855 266.488L304.298 271.402C304.259 271.523 304.249 271.652 304.268 271.777C304.288 271.903 304.336 272.022 304.409 272.126C304.482 272.23 304.579 272.316 304.69 272.377C304.802 272.437 304.927 272.471 305.054 272.475C307.276 272.634 310.497 272.785 313.286 273.035C316.545 273.322 314.436 273.315 318.261 273.655C320.574 273.859 321.429 271.576 320.476 271.281C316.152 269.92 315.365 269.013 313.876 267.251C313.699 267.074 313.488 266.933 313.255 266.837C313.023 266.741 312.774 266.691 312.523 266.692Z" fill="#263238"/>
<path opacity="0.2" d="M303.92 255.163L305.522 261.974L311.041 261.581L309.446 254.777L303.92 255.163Z" fill="black"/>
<path d="M258.265 123.959C258.265 123.959 271.276 167.429 276.22 183.562C281.625 201.23 302.204 259.842 302.204 259.842L312.183 257.65C312.183 257.65 298.083 207.293 292.24 182.647C287.749 163.747 277.792 123.959 277.792 123.959H258.265Z" fill="#8EC3B0"/>
<path d="M300.45 256.758C300.404 256.758 301.432 260.651 301.432 260.651L313.43 259.366L313.377 255.798L300.45 256.758Z" fill="#263238"/>
<path opacity="0.3" d="M265.469 144.106C272.674 145.051 275.539 170.158 276.62 184.885C276.484 184.416 276.341 183.978 276.212 183.554C273.521 174.747 268.418 157.775 264.335 144.19C264.702 144.073 265.09 144.045 265.469 144.106Z" fill="black"/>
<path d="M247.53 123.959C247.53 123.959 251.892 166.295 253.774 183.524C255.725 201.449 263.088 260.243 263.088 260.243H272.674C272.674 260.243 271.51 202.522 271.124 184.893C270.701 165.675 267.435 123.959 267.435 123.959H247.53Z" fill="#8EC3B0"/>
<path d="M261.576 256.425C261.531 256.425 262.113 260.402 262.113 260.402H273.77L274.088 256.856L261.576 256.425Z" fill="#263238"/>
<path d="M206.592 163.785C208.383 166.623 210.975 168.866 214.04 170.231C217.105 171.596 220.507 172.021 223.813 171.452C227.12 170.884 230.185 169.347 232.618 167.038C235.052 164.728 236.746 161.748 237.486 158.475C238.227 155.202 237.98 151.784 236.777 148.651C235.574 145.519 233.469 142.813 230.729 140.877C227.988 138.941 224.735 137.861 221.381 137.774C218.026 137.687 214.722 138.596 211.884 140.387C210 141.575 208.368 143.123 207.082 144.943C205.796 146.762 204.881 148.817 204.39 150.99C203.898 153.163 203.84 155.411 204.218 157.607C204.596 159.802 205.403 161.902 206.592 163.785ZM233.052 147.153C234.559 149.542 235.323 152.324 235.248 155.148C235.173 157.971 234.263 160.709 232.633 163.015C231.002 165.321 228.725 167.091 226.088 168.103C223.451 169.115 220.573 169.322 217.819 168.698C215.064 168.075 212.556 166.648 210.612 164.6C208.669 162.551 207.376 159.972 206.898 157.188C206.419 154.405 206.777 151.542 207.926 148.962C209.074 146.382 210.962 144.2 213.351 142.693C216.549 140.678 220.415 140.013 224.102 140.843C227.789 141.674 230.997 143.932 233.022 147.123L233.052 147.153Z" fill="#263238"/>
<path opacity="0.2" d="M233.702 157.631C233.126 160.153 231.815 162.448 229.936 164.225C228.056 166.002 225.692 167.183 223.142 167.617C220.591 168.051 217.97 167.72 215.608 166.665C213.246 165.61 211.249 163.878 209.871 161.689C208.493 159.5 207.794 156.952 207.863 154.366C207.932 151.78 208.766 149.272 210.26 147.16C211.754 145.048 213.84 143.426 216.255 142.499C218.67 141.572 221.306 141.382 223.829 141.952C225.507 142.333 227.093 143.041 228.497 144.035C229.902 145.029 231.096 146.29 232.013 147.746C232.93 149.202 233.551 150.825 233.841 152.521C234.131 154.217 234.084 155.953 233.702 157.631Z" fill="#8EC3B0"/>
<path d="M235.751 143.638L237.346 146.163C237.403 146.254 237.442 146.355 237.46 146.461C237.478 146.566 237.475 146.675 237.451 146.779C237.427 146.884 237.383 146.983 237.321 147.07C237.259 147.158 237.18 147.232 237.089 147.289C236.905 147.405 236.682 147.443 236.469 147.395C236.257 147.347 236.072 147.216 235.955 147.032L234.368 144.515C234.252 144.33 234.214 144.107 234.262 143.895C234.31 143.682 234.441 143.497 234.625 143.381C234.715 143.323 234.816 143.283 234.922 143.265C235.028 143.246 235.137 143.249 235.242 143.273C235.347 143.297 235.446 143.341 235.533 143.404C235.621 143.467 235.695 143.546 235.751 143.638Z" fill="#263238"/>
<path d="M246.04 136.463C244.201 137.723 242.381 139.006 240.582 140.311C238.775 141.627 236.991 142.965 235.29 144.386C235.085 144.564 234.95 144.809 234.91 145.077C234.87 145.345 234.927 145.619 235.072 145.848C235.216 146.078 235.438 146.248 235.697 146.328C235.957 146.408 236.236 146.392 236.484 146.284C238.51 145.331 240.491 144.295 242.457 143.26C244.422 142.224 246.358 141.105 248.278 139.994C249.916 139.041 251.544 138.069 253.162 137.076C253.271 137.008 253.367 136.919 253.442 136.814C253.517 136.709 253.571 136.59 253.601 136.465C253.63 136.339 253.635 136.209 253.614 136.081C253.593 135.954 253.547 135.832 253.479 135.722L252.134 133.636C252.064 133.526 251.974 133.432 251.868 133.357C251.762 133.283 251.643 133.23 251.516 133.202C251.39 133.174 251.259 133.171 251.131 133.193C251.004 133.216 250.882 133.264 250.773 133.333C249.185 134.392 247.605 135.397 246.04 136.463Z" fill="#263238"/>
<path d="M254.47 82.553C253.547 87.089 252.565 91.6124 251.521 96.1232L248.391 109.625C247.371 114.025 246.501 118.486 245.708 123.014L243.334 136.622C243.246 137.145 242.967 137.616 242.551 137.944C242.135 138.271 241.612 138.433 241.083 138.396C240.555 138.359 240.059 138.127 239.692 137.744C239.326 137.362 239.115 136.857 239.1 136.327C238.934 131.602 239.01 126.93 239.274 122.228C239.536 117.498 240.04 112.784 240.786 108.106C241.542 103.479 242.351 98.9053 243.243 94.3391C244.135 89.7728 245.08 85.2217 246.131 80.7311C246.385 79.6327 247.061 78.6784 248.013 78.075C248.965 77.4715 250.117 77.2675 251.219 77.5071C252.32 77.7467 253.283 78.4107 253.899 79.3551C254.514 80.2995 254.733 81.4485 254.508 82.553H254.47Z" fill="#8EC3B0"/>
<path d="M242.676 135.397C242.485 135.196 242.245 135.049 241.98 134.971C241.714 134.893 241.433 134.886 241.164 134.951L239.939 135.246C239.631 135.319 239.353 135.483 239.14 135.718C238.928 135.953 238.793 136.248 238.752 136.561L238.397 139.291C238.286 140.078 238.452 140.879 238.866 141.559L240.559 144.356C240.776 144.643 241.07 144.863 241.408 144.989C241.746 145.115 242.112 145.142 242.464 145.066L244.226 144.696C244.486 144.64 244.732 144.53 244.948 144.373C245.163 144.217 245.344 144.016 245.477 143.785C245.61 143.555 245.693 143.298 245.721 143.033C245.749 142.768 245.722 142.5 245.639 142.247L245.178 140.825C245.008 138.778 244.122 136.856 242.676 135.397Z" fill="#FF928E"/>
<path d="M260.359 79.9597C263.111 87.2551 253.6 97.6652 253.6 97.6652L241.557 93.6811C241.557 93.6811 242.479 83.7245 246.66 78.1075C251.816 71.1447 258.265 74.3728 260.359 79.9597Z" fill="#263238"/>
<g clip-path="url(#clip0_543_3012)">
<mask id="mask0_543_3012" style="mask-type:luminance" maskUnits="userSpaceOnUse" x="101" y="158" width="36" height="61">
<path d="M132.19 160.915H105.95C105.336 160.915 104.747 161.159 104.313 161.593C103.879 162.027 103.635 162.616 103.635 163.23V189.47C103.635 190.084 103.879 190.673 104.313 191.107C104.747 191.541 105.336 191.785 105.95 191.785H132.19C132.804 191.785 133.393 191.541 133.827 191.107C134.261 190.673 134.505 190.084 134.505 189.47V163.23C134.505 162.616 134.261 162.027 133.827 161.593C133.393 161.159 132.804 160.915 132.19 160.915Z" fill="white" stroke="white" stroke-width="4" stroke-linejoin="round"/>
<path d="M109.809 172.533C112.375 169.446 115.462 167.902 119.07 167.902C122.678 167.902 125.765 169.446 128.331 172.533" stroke="black" stroke-width="4" stroke-linecap="round"/>
<path d="M119.07 181.752C119.684 181.752 120.273 181.508 120.707 181.074C121.141 180.64 121.385 180.051 121.385 179.437C121.385 178.823 121.141 178.234 120.707 177.8C120.273 177.366 119.684 177.122 119.07 177.122C118.456 177.122 117.867 177.366 117.433 177.8C116.999 178.234 116.755 178.823 116.755 179.437C116.755 180.051 116.999 180.64 117.433 181.074C117.867 181.508 118.456 181.752 119.07 181.752Z" fill="black"/>
<path d="M115.211 174.035L119.076 179.437" stroke="black" stroke-width="4" stroke-linecap="round"/>
<path d="M106.644 193.24V184.672H107.76V189.64L108.624 189.604L110.184 187.228H111.42L109.596 190.024L111.504 193.24H110.268L108.648 190.588L107.76 190.624V193.24H106.644ZM109.056 218.036C108.424 218.036 107.912 217.984 107.52 217.88C107.128 217.776 106.84 217.592 106.656 217.328C106.472 217.072 106.38 216.716 106.38 216.26C106.38 216.028 106.412 215.828 106.476 215.66C106.548 215.5 106.652 215.352 106.788 215.216C106.932 215.072 107.108 214.924 107.316 214.772C107.204 214.692 107.116 214.576 107.052 214.424C106.996 214.272 106.968 214.104 106.968 213.92C106.968 213.832 107.016 213.692 107.112 213.5C107.208 213.308 107.304 213.136 107.4 212.984C107.232 212.904 107.076 212.796 106.932 212.66C106.796 212.516 106.684 212.324 106.596 212.084C106.508 211.844 106.464 211.54 106.464 211.172C106.464 210.428 106.672 209.9 107.088 209.588C107.512 209.268 108.076 209.108 108.78 209.108C108.996 209.108 109.224 209.124 109.464 209.156C109.704 209.188 109.892 209.224 110.028 209.264L111.864 209.216V210.092L110.796 210.068C110.9 210.172 110.984 210.312 111.048 210.488C111.12 210.664 111.156 210.892 111.156 211.172C111.156 211.7 111.068 212.116 110.892 212.42C110.716 212.716 110.448 212.924 110.088 213.044C109.736 213.156 109.292 213.212 108.756 213.212C108.7 213.212 108.608 213.208 108.48 213.2C108.36 213.184 108.268 213.172 108.204 213.164C108.156 213.268 108.108 213.388 108.06 213.524C108.02 213.652 108 213.744 108 213.8C108 213.936 108.028 214.04 108.084 214.112C108.148 214.184 108.28 214.232 108.48 214.256C108.688 214.28 109.012 214.292 109.452 214.292C110.028 214.292 110.488 214.344 110.832 214.448C111.176 214.544 111.42 214.72 111.564 214.976C111.708 215.224 111.78 215.588 111.78 216.068C111.78 216.764 111.54 217.264 111.06 217.568C110.58 217.88 109.912 218.036 109.056 218.036ZM109.044 217.136C109.604 217.136 110.016 217.06 110.28 216.908C110.544 216.756 110.676 216.504 110.676 216.152C110.676 215.88 110.632 215.68 110.544 215.552C110.464 215.424 110.32 215.34 110.112 215.3C109.904 215.26 109.628 215.24 109.284 215.24C109.212 215.24 109.112 215.24 108.984 215.24C108.864 215.232 108.736 215.228 108.6 215.228C108.472 215.22 108.356 215.212 108.252 215.204C108.148 215.196 108.076 215.192 108.036 215.192C107.812 215.352 107.656 215.496 107.568 215.624C107.48 215.76 107.436 215.932 107.436 216.14C107.436 216.38 107.484 216.572 107.58 216.716C107.676 216.868 107.84 216.976 108.072 217.04C108.304 217.104 108.628 217.136 109.044 217.136ZM108.78 212.372C109.244 212.372 109.572 212.28 109.764 212.096C109.964 211.912 110.064 211.604 110.064 211.172C110.064 210.74 109.964 210.432 109.764 210.248C109.572 210.064 109.244 209.972 108.78 209.972C108.348 209.972 108.036 210.064 107.844 210.248C107.66 210.432 107.568 210.74 107.568 211.172C107.568 211.604 107.66 211.912 107.844 212.096C108.036 212.28 108.348 212.372 108.78 212.372Z" fill="black"/>
</mask>
<g mask="url(#mask0_543_3012)">
<path d="M100.548 157.828H137.592V194.872H100.548V157.828Z" fill="#8EC3B0"/>
</g>
</g>
<path d="M139.482 98.104C139.482 98.104 131.544 106.77 131.544 112.901C131.544 117.738 134.611 120.784 139.482 120.784C144.353 120.784 147.42 117.738 147.42 112.901C147.42 106.77 139.482 98.104 139.482 98.104ZM140.364 117.937V116.624C141.241 116.623 142.082 116.276 142.702 115.66C143.322 115.045 143.67 114.21 143.671 113.339H144.994C144.993 114.558 144.505 115.727 143.637 116.589C142.769 117.451 141.592 117.936 140.364 117.937Z" fill="#8EC3B0"/>
<path d="M161.658 114.925C161.658 114.601 161.54 114.32 161.303 114.083C161.066 113.846 160.785 113.728 160.461 113.728C160.137 113.728 159.856 113.846 159.619 114.083C159.382 114.32 159.264 114.601 159.264 114.925C159.264 115.249 159.382 115.53 159.619 115.766C159.856 116.003 160.137 116.122 160.461 116.122C160.785 116.122 161.066 116.003 161.303 115.766C161.54 115.53 161.658 115.249 161.658 114.925ZM154.476 107.743C154.476 107.419 154.358 107.138 154.121 106.901C153.884 106.664 153.603 106.546 153.279 106.546C152.955 106.546 152.674 106.664 152.437 106.901C152.2 107.138 152.082 107.419 152.082 107.743C152.082 108.067 152.2 108.348 152.437 108.584C152.674 108.821 152.955 108.94 153.279 108.94C153.603 108.94 153.884 108.821 154.121 108.584C154.358 108.348 154.476 108.067 154.476 107.743ZM164.052 114.925C164.052 115.916 163.701 116.762 163 117.464C162.299 118.165 161.452 118.516 160.461 118.516C159.47 118.516 158.623 118.165 157.922 117.464C157.221 116.762 156.87 115.916 156.87 114.925C156.87 113.934 157.221 113.087 157.922 112.386C158.623 111.685 159.47 111.334 160.461 111.334C161.452 111.334 162.299 111.685 163 112.386C163.701 113.087 164.052 113.934 164.052 114.925ZM163.154 104.75C163.154 104.875 163.114 104.993 163.033 105.106L153.157 118.273C153.039 118.435 152.88 118.516 152.68 118.516H151.184C151.022 118.516 150.882 118.457 150.763 118.338C150.645 118.22 150.586 118.079 150.586 117.917C150.586 117.793 150.626 117.674 150.707 117.562L160.583 104.395C160.701 104.233 160.86 104.152 161.059 104.152H162.556C162.718 104.152 162.858 104.211 162.977 104.33C163.095 104.448 163.154 104.588 163.154 104.75ZM156.87 107.743C156.87 108.734 156.519 109.58 155.818 110.282C155.117 110.983 154.27 111.334 153.279 111.334C152.288 111.334 151.441 110.983 150.74 110.282C150.039 109.58 149.688 108.734 149.688 107.743C149.688 106.752 150.039 105.905 150.74 105.204C151.441 104.503 152.288 104.152 153.279 104.152C154.27 104.152 155.117 104.503 155.818 105.204C156.519 105.905 156.87 106.752 156.87 107.743Z" fill="#8EC3B0"/>
<g clip-path="url(#clip1_543_3012)">
<path d="M166.279 35.5772C166.279 34.5557 167.639 34.2845 167.999 35.2415C168.872 37.5532 169.508 39.6248 169.508 40.7432C169.508 42.4559 168.827 44.0984 167.616 45.3094C166.405 46.5204 164.763 47.2007 163.05 47.2007C161.338 47.2007 159.695 46.5204 158.484 45.3094C157.273 44.0984 156.593 42.4559 156.593 40.7432C156.593 39.5421 157.326 37.242 158.3 34.721C159.559 31.4561 160.19 29.8236 160.968 29.7358C161.216 29.7074 161.489 29.7577 161.711 29.874C162.405 30.2356 162.405 32.0166 162.405 35.5772C162.405 36.091 162.609 36.5838 162.972 36.9471C163.335 37.3104 163.828 37.5145 164.342 37.5145C164.856 37.5145 165.348 37.3104 165.712 36.9471C166.075 36.5838 166.279 36.091 166.279 35.5772Z" stroke="#8EC3B0" stroke-width="2"/>
<path d="M161.759 47.2006L161.419 46.3521C161.13 45.6295 161.038 44.8431 161.152 44.0733C161.266 43.3035 161.583 42.5777 162.069 41.97C162.186 41.8228 162.336 41.7039 162.506 41.6222C162.676 41.5405 162.862 41.498 163.05 41.498C163.239 41.498 163.425 41.5405 163.595 41.6222C163.765 41.7039 163.914 41.8228 164.032 41.97C165.021 43.2073 165.269 44.8811 164.681 46.3521L164.342 47.2006" stroke="#8EC3B0" stroke-width="2"/>
<path d="M163.216 51.4256C163.159 51.42 163.106 51.396 163.063 51.3573C163.033 51.3333 163.008 51.3034 162.989 51.2695C162.971 51.2356 162.959 51.1983 162.955 51.1599C162.951 51.1214 162.955 51.0826 162.966 51.0456C162.978 51.0087 162.996 50.9743 163.021 50.9447L170.386 42.0478C170.416 42.0114 170.454 41.9827 170.498 41.9641C170.541 41.9456 170.588 41.9377 170.635 41.9411L180.338 42.6907L182.234 32.0505C182.255 31.9813 182.3 31.9221 182.362 31.8842C182.424 31.8463 182.497 31.8324 182.568 31.8451C182.639 31.8578 182.704 31.8962 182.748 31.9531C182.793 32.0099 182.815 32.0812 182.811 32.1534L180.874 43.0555C180.86 43.1275 180.821 43.1919 180.762 43.2362C180.704 43.2806 180.632 43.3017 180.559 43.2955L170.741 42.5374L163.48 51.3256C163.448 51.3629 163.407 51.3916 163.361 51.4091C163.315 51.4266 163.265 51.4322 163.216 51.4256Z" fill="white"/>
</g>
<path d="M222.861 50.5171H217.602V67.1084H222.861V50.5171Z" fill="#8EC3B0" stroke="#263238" stroke-miterlimit="10"/>
<path d="M217.017 61.2529H211.757V67.1084H217.017V61.2529Z" fill="#263238" stroke="#263238" stroke-linecap="round" stroke-linejoin="round"/>
<path d="M211.172 28.5522H205.913V67.1028H211.172V28.5522Z" fill="#8EC3B0" stroke="#263238" stroke-miterlimit="10"/>
<path d="M205.333 30.5078H200.073V67.1083H205.333V30.5078Z" fill="white" stroke="#263238" stroke-linecap="round" stroke-linejoin="round"/>
<path d="M199.488 50.5171H194.229V67.1084H199.488V50.5171Z" fill="#8EC3B0" stroke="#263238" stroke-miterlimit="10"/>
<path d="M193.643 45.1489H188.384V67.1081H193.643V45.1489Z" fill="#263238" stroke="#263238" stroke-linecap="round" stroke-linejoin="round"/>
<path d="M187.805 64.1777H182.545V67.1081H187.805V64.1777Z" fill="#8EC3B0" stroke="#263238" stroke-miterlimit="10"/>
<path d="M181.96 61.2529H176.7V67.1084H181.96V61.2529Z" fill="white" stroke="#263238" stroke-linecap="round" stroke-linejoin="round"/>
<path d="M176.116 50.5171H170.856V67.1084H176.116V50.5171Z" fill="#8EC3B0" stroke="#263238" stroke-miterlimit="10"/>
<path d="M110.566 28.3604L105.241 33.6849L107.008 35.4517L109.317 33.1427V55.9808L107.008 53.6718L105.241 55.4385L110.566 60.7632L115.891 55.4385L114.124 53.6718L111.815 55.9808V33.1427L114.124 35.4518L115.891 33.6849L110.566 28.3604ZM93.7408 28.3783C92.1192 28.5889 90.6489 30.491 90.6489 32.954C90.6489 34.3113 91.1188 35.5118 91.8075 36.3417L92.6292 37.3316L91.365 37.5692C90.4697 37.7375 89.8133 38.2104 89.2523 38.9805C88.6912 39.7506 88.2622 40.8235 87.9616 42.06C87.4173 44.3002 87.2976 47.0354 87.2786 49.4465H90.2535L91.0704 60.4001C93.145 60.8684 95.36 60.8519 97.3581 60.4018L98.0808 49.4465H100.913C100.911 47.0059 100.88 44.233 100.387 41.9758C100.115 40.7312 99.7029 39.6599 99.1351 38.8985C98.5671 38.1372 97.8804 37.667 96.8753 37.5113L95.585 37.3114L96.3995 36.291C97.0584 35.4654 97.5051 34.2787 97.5051 32.9542C97.5051 30.3283 95.8635 28.3847 94.0769 28.3847L93.7408 28.3783Z" fill="#8EC3B0"/>
<defs>
<clipPath id="clip0_543_3012">
<rect width="37.044" height="37.044" fill="white" transform="translate(100.548 157.828)"/>
</clipPath>
<clipPath id="clip1_543_3012">
<rect width="30.996" height="30.996" fill="white" transform="translate(142.128 26.2842)"/>
</clipPath>
</defs>
</svg>
