<svg width="20" height="20" viewBox="0 0 20 20" fill="none" xmlns="http://www.w3.org/2000/svg">
<path d="M8.90005 4.73133L0.581299 7.56727C0.581299 7.56727 0.639111 8.11883 0.882861 8.59383C1.18755 9.18602 1.78599 9.90946 2.93911 10.1688C4.6438 10.5516 6.67661 9.93133 8.64067 8.6157C10.6047 7.30008 11.6719 5.1157 11.2797 3.40633C10.9157 1.82195 9.92817 1.41258 9.20005 1.33914C8.91411 1.31102 8.43911 1.33446 8.22817 1.40946C7.90005 1.52352 8.90005 4.73133 8.90005 4.73133Z" fill="#871E0C"/>
<path d="M5.15623 3.61863C4.0031 4.44519 1.92342 4.20613 0.874979 6.04363C-0.0593956 7.68426 1.15623 9.43426 2.72029 9.43426C4.26717 9.43426 6.31404 8.71863 7.8406 7.70769C9.43435 6.65144 11.5797 3.32332 9.86248 1.92957C7.92654 0.357693 6.65467 2.54519 5.15623 3.61863Z" fill="#A62714"/>
<path d="M6.47971 3.2111C6.30158 3.17985 6.14689 3.60173 5.34689 4.12517C4.26564 4.83298 3.60783 4.70485 3.68596 5.06579C3.74846 5.35485 4.36721 5.53767 5.19221 5.27204C6.59533 4.82048 6.91721 3.28923 6.47971 3.2111Z" fill="#FBCB89"/>
<path d="M7.2798 3.11874C6.92667 2.92655 7.12042 2.4578 7.55011 2.07499C8.01417 1.66249 8.5548 1.70155 8.68292 1.9078C8.84542 2.16718 8.4423 2.49218 8.20636 2.70624C7.92355 2.96561 7.7048 3.35155 7.2798 3.11874ZM2.66573 5.61093C2.38136 5.25468 1.82355 5.59374 1.49386 6.03593C1.12042 6.53749 0.928235 7.76093 1.4423 7.81249C1.82823 7.85155 1.82824 7.12968 2.08605 6.7953C2.34386 6.46093 2.97355 5.99686 2.66573 5.61093Z" fill="#D16250"/>
<path d="M13.5202 5.47812C13.5202 5.47812 13.8312 4.51874 14.2655 4.56406C14.7171 4.61093 15.1515 4.66406 15.7343 5.45781C16.3905 6.34999 16.6312 7.60468 17.1155 8.21249C18.4218 9.84843 19.2093 9.99687 19.4093 11.6719C19.5999 13.2656 18.4687 15.3312 16.1374 14.8953C13.3171 14.3687 12.0952 10.9469 12.0952 10.9469L13.5202 5.47812Z" fill="#871E0C"/>
<path d="M12.0314 5.41115C11.3157 6.27209 11.3079 7.64865 11.411 8.44709C11.5142 9.24552 12.1235 11.8033 13.1923 12.9236C14.261 14.044 15.822 14.7018 16.9423 14.3158C18.0626 13.9299 18.647 13.0846 18.4439 11.7455C18.3345 11.0236 17.8767 10.3971 17.2204 9.92052C16.5642 9.44396 15.4298 8.19552 15.4298 8.19552C15.4298 8.19552 15.1079 6.52209 15.0439 5.9299C14.9798 5.33771 14.9845 4.77834 14.4985 4.61115C14.1423 4.48615 12.7907 4.49709 12.0314 5.41115Z" fill="#A62714"/>
<path d="M13.4078 5.47823C13.1656 5.25636 12.8703 5.42042 12.7546 5.62198C12.6515 5.80167 12.5921 6.02355 12.7796 6.17042C13.0109 6.35011 13.1984 6.21261 13.3812 6.02042C13.5187 5.87355 13.5624 5.61886 13.4078 5.47823ZM12.3265 6.68136C12.089 6.72042 11.8343 7.0673 11.9843 8.3923C12.164 9.97511 12.9093 11.2329 13.439 11.961C13.9875 12.7142 14.5203 12.5876 14.5265 12.5095C14.5437 12.2876 14.1921 11.9532 13.7656 11.1314C13.1249 9.90167 12.7421 8.62198 12.6874 7.94855C12.6093 6.99073 12.6343 6.63136 12.3265 6.68136Z" fill="#D16250"/>
<path d="M14.9921 6.79235C14.8656 6.89547 14.6906 7.66578 15.4843 8.97047C16.4109 10.4939 17.2124 10.2283 17.2812 10.0658C17.3499 9.90328 16.7281 9.38766 16.4515 9.00641C15.9562 8.32359 15.8015 7.9861 15.4796 7.34703C15.3406 7.07047 15.1281 6.68141 14.9921 6.79235Z" fill="#FBCB89"/>
<path d="M7.87823 14.9373C7.83917 14.9248 2.26261 13.2779 2.26261 13.2779C2.26261 13.2779 2.20636 13.4451 2.17511 13.7185C2.11104 14.2748 2.17511 15.2232 2.65011 16.0435C3.05323 16.7389 3.71417 17.2842 4.62042 17.6935C5.17823 17.9467 5.89229 18.1576 6.86886 18.3607C9.71417 18.9514 13.1642 18.1514 13.5173 15.4748C13.661 14.3889 13.0329 13.5373 12.4907 13.1185C11.697 12.5045 10.8423 12.617 10.8423 12.617L7.87823 14.9373Z" fill="#871E0C"/>
<path d="M8.75634 12.6297C6.9079 12.6297 6.08134 11.436 4.48134 11.5407C3.37665 11.6126 2.72353 12.236 2.46103 12.761C2.19853 13.286 1.92821 14.2016 2.56571 14.9251C3.26103 15.7126 4.34853 16.8532 7.70634 17.4297C11.1142 18.0157 12.7954 15.961 12.9391 14.7813C13.0829 13.6016 12.4282 12.8016 11.4579 12.6563C10.4876 12.511 9.11259 12.6297 8.75634 12.6297Z" fill="#A62714"/>
<path d="M6.63137 12.7218C6.45637 12.9015 6.9548 13.8905 8.19699 13.964C9.43918 14.0374 9.91887 13.2421 9.76262 13.139C9.67043 13.078 8.69074 13.114 8.21887 13.0655C7.40324 12.9843 6.73293 12.6187 6.63137 12.7218Z" fill="#FBCB89"/>
<path d="M5.4454 12.6031C5.27978 13.1797 4.27978 12.711 3.67353 13.0875C3.02353 13.4891 2.81728 14.2313 2.66415 14.2313C2.43759 14.2313 2.42197 12.9219 3.58134 12.2735C4.44697 11.7891 5.56259 12.1969 5.4454 12.6031Z" fill="#D16250"/>
</svg>
