<svg width="20" height="20" viewBox="0 0 20 20" fill="none" xmlns="http://www.w3.org/2000/svg">
<g clip-path="url(#clip0_506_2367)">
<path d="M12.785 13.5118L9.70387 10.4307L6.6222 7.34961C6.6222 7.34961 6.87498 13.5624 0.409424 15.1791C0.409424 15.1791 0.982757 16.5607 2.27831 17.8563C3.57387 19.1518 4.95553 19.7252 4.95553 19.7252C6.5722 13.2591 12.785 13.5118 12.785 13.5118Z" fill="#77B255"/>
<path d="M7.68338 9.21928C7.27949 11.2398 4.85449 14.4726 4.85449 14.4726L9.70338 9.62373C11.3195 8.00762 7.68338 9.21928 7.68338 9.21928ZM14.5528 12.8559C14.5528 12.8559 8.49171 13.2598 4.85449 16.0887C9.29949 11.6437 11.32 11.2398 11.32 11.2398L14.5528 12.8559Z" fill="#5C913B"/>
<path d="M16.7534 15.6622C16.9428 15.6763 17.133 15.6494 17.3112 15.5835C17.4893 15.5175 17.6511 15.414 17.7857 15.28C18.0357 15.03 18.1762 14.6908 18.1762 14.3372C18.1762 13.9836 18.0357 13.6445 17.7857 13.3944C17.7384 13.3472 17.6857 13.3089 17.6334 13.27C17.8693 13.2137 18.0852 13.0936 18.2573 12.9228C18.4225 12.756 18.5401 12.5481 18.5979 12.3206C18.8253 12.2626 19.0332 12.145 19.2001 11.98C19.4501 11.73 19.5906 11.3908 19.5906 11.0372C19.5906 10.6836 19.4501 10.3445 19.2001 10.0944C19.3712 9.9233 19.4925 9.70881 19.551 9.47398C19.6094 9.23914 19.6029 8.99282 19.5321 8.76142C19.4612 8.53002 19.3287 8.32227 19.1488 8.16044C18.9688 7.99861 18.7482 7.8888 18.5107 7.84278C18.6313 7.59454 18.6718 7.31491 18.6264 7.04265C18.581 6.7704 18.452 6.51901 18.2573 6.32334C18.0852 6.1525 17.8693 6.03237 17.6334 5.97612C17.6857 5.93723 17.7384 5.89889 17.7857 5.85167C18.0357 5.60162 18.1762 5.2625 18.1762 4.90889C18.1762 4.55529 18.0357 4.21616 17.7857 3.96612C17.5901 3.77123 17.3387 3.64211 17.0664 3.59671C16.7941 3.55131 16.5144 3.59188 16.2662 3.71278C16.2049 3.39387 16.0286 3.10858 15.7708 2.91103C15.5131 2.71349 15.1918 2.61744 14.8679 2.64112C14.8819 2.45171 14.8551 2.2615 14.7891 2.0834C14.7232 1.90529 14.6197 1.74346 14.4857 1.60889C14.2356 1.35886 13.8965 1.2184 13.5429 1.2184C13.1893 1.2184 12.8501 1.35886 12.6001 1.60889C12.4046 1.41401 12.1532 1.28489 11.8809 1.23949C11.6085 1.19408 11.3288 1.23465 11.0807 1.35556C11.0217 1.05171 10.8588 0.777859 10.62 0.580956C10.3812 0.384052 10.0813 0.276367 9.77177 0.276367C9.46225 0.276367 9.16237 0.384052 8.92356 0.580956C8.68475 0.777859 8.52188 1.05171 8.46288 1.35556C8.21464 1.2349 7.935 1.19447 7.66275 1.23986C7.39049 1.28525 7.13911 1.41422 6.94344 1.60889C6.7726 1.78103 6.65247 1.99688 6.59621 2.23278C6.55733 2.18056 6.51899 2.12778 6.47177 2.08056C6.22172 1.83053 5.8826 1.69007 5.52899 1.69007C5.17539 1.69007 4.83626 1.83053 4.58621 2.08056C4.39119 2.27588 4.26189 2.52712 4.21629 2.79935C4.17068 3.07157 4.21105 3.35123 4.33177 3.59945C4.09418 3.64546 3.87359 3.75527 3.69366 3.91711C3.51373 4.07894 3.38123 4.28669 3.31038 4.51809C3.23953 4.74949 3.23299 4.99581 3.29146 5.23064C3.34994 5.46548 3.47123 5.67997 3.64233 5.85112C3.82066 6.02945 4.03788 6.14223 4.26621 6.19834C4.21399 6.23723 4.16121 6.27556 4.11399 6.32278C3.9429 6.49393 3.82161 6.70842 3.76313 6.94325C3.70465 7.17809 3.71119 7.42441 3.78204 7.65581C3.8529 7.88721 3.98539 8.09496 4.16533 8.25679C4.34526 8.41862 4.56585 8.52843 4.80344 8.57445C4.68278 8.82269 4.64234 9.10233 4.68774 9.37458C4.73313 9.64684 4.8621 9.89822 5.05677 10.0939C5.25231 10.2888 5.50371 10.4179 5.77602 10.4633C6.04833 10.5087 6.32803 10.4681 6.57621 10.3472C6.62391 10.597 6.7427 10.8277 6.91831 11.0116C7.09393 11.1955 7.31891 11.3248 7.56621 11.3839C7.51399 11.4228 7.46121 11.4611 7.41399 11.5083C7.16396 11.7584 7.0235 12.0975 7.0235 12.4511C7.0235 12.8047 7.16396 13.1438 7.41399 13.3939C7.60953 13.5888 7.86093 13.7179 8.13324 13.7633C8.40556 13.8087 8.68525 13.7681 8.93344 13.6472C8.96825 13.8281 9.04035 13.9998 9.14515 14.1513C9.24996 14.3028 9.38516 14.4308 9.54216 14.5272C9.69915 14.6235 9.8745 14.6862 10.057 14.711C10.2396 14.7359 10.4253 14.7225 10.6023 14.6717C10.6379 14.7183 10.6712 14.7656 10.714 14.8083C10.9973 15.0917 11.3757 15.215 11.7462 15.1906C11.7322 15.38 11.759 15.5702 11.825 15.7483C11.8909 15.9264 11.9944 16.0882 12.1284 16.2228C12.3785 16.4728 12.7176 16.6133 13.0712 16.6133C13.4248 16.6133 13.7639 16.4728 14.014 16.2228C14.0612 16.1756 14.0995 16.1228 14.1384 16.0706C14.1945 16.2989 14.3073 16.5161 14.4857 16.6944C14.7357 16.9445 15.0748 17.0849 15.4284 17.0849C15.782 17.0849 16.1212 16.9445 16.3712 16.6944C16.6545 16.4111 16.7779 16.0328 16.7534 15.6622Z" fill="#3E721D"/>
<path d="M6.0667 4.01425C6.54013 4.01425 6.92392 3.63046 6.92392 3.15703C6.92392 2.6836 6.54013 2.2998 6.0667 2.2998C5.59326 2.2998 5.20947 2.6836 5.20947 3.15703C5.20947 3.63046 5.59326 4.01425 6.0667 4.01425Z" fill="#5C913B"/>
<path d="M8.49174 4.01425C8.96517 4.01425 9.34897 3.63046 9.34897 3.15703C9.34897 2.6836 8.96517 2.2998 8.49174 2.2998C8.01831 2.2998 7.63452 2.6836 7.63452 3.15703C7.63452 3.63046 8.01831 4.01425 8.49174 4.01425Z" fill="#5C913B"/>
<path d="M10.1077 2.39804C10.5811 2.39804 10.9649 2.01425 10.9649 1.54082C10.9649 1.06739 10.5811 0.683594 10.1077 0.683594C9.63428 0.683594 9.25049 1.06739 9.25049 1.54082C9.25049 2.01425 9.63428 2.39804 10.1077 2.39804Z" fill="#5C913B"/>
<path d="M12.1282 3.61093C12.6016 3.61093 12.9854 3.22714 12.9854 2.75371C12.9854 2.28028 12.6016 1.89648 12.1282 1.89648C11.6548 1.89648 11.271 2.28028 11.271 2.75371C11.271 3.22714 11.6548 3.61093 12.1282 3.61093Z" fill="#5C913B"/>
<path d="M13.7444 3.61093C14.2179 3.61093 14.6017 3.22714 14.6017 2.75371C14.6017 2.28028 14.2179 1.89648 13.7444 1.89648C13.271 1.89648 12.8872 2.28028 12.8872 2.75371C12.8872 3.22714 13.271 3.61093 13.7444 3.61093Z" fill="#5C913B"/>
<path d="M14.149 4.82284C14.6224 4.82284 15.0062 4.43905 15.0062 3.96562C15.0062 3.49219 14.6224 3.1084 14.149 3.1084C13.6755 3.1084 13.2917 3.49219 13.2917 3.96562C13.2917 4.43905 13.6755 4.82284 14.149 4.82284Z" fill="#5C913B"/>
<path d="M15.3611 5.22714C15.8346 5.22714 16.2184 4.84335 16.2184 4.36992C16.2184 3.89649 15.8346 3.5127 15.3611 3.5127C14.8877 3.5127 14.5039 3.89649 14.5039 4.36992C14.5039 4.84335 14.8877 5.22714 15.3611 5.22714Z" fill="#5C913B"/>
<path d="M16.9773 6.03476C17.4508 6.03476 17.8346 5.65097 17.8346 5.17753C17.8346 4.7041 17.4508 4.32031 16.9773 4.32031C16.5039 4.32031 16.1201 4.7041 16.1201 5.17753C16.1201 5.65097 16.5039 6.03476 16.9773 6.03476Z" fill="#5C913B"/>
<path d="M16.5733 7.24765C17.0467 7.24765 17.4305 6.86386 17.4305 6.39043C17.4305 5.91699 17.0467 5.5332 16.5733 5.5332C16.0999 5.5332 15.7161 5.91699 15.7161 6.39043C15.7161 6.86386 16.0999 7.24765 16.5733 7.24765Z" fill="#5C913B"/>
<path d="M17.7854 9.26816C18.2589 9.26816 18.6427 8.88436 18.6427 8.41093C18.6427 7.9375 18.2589 7.55371 17.7854 7.55371C17.312 7.55371 16.9282 7.9375 16.9282 8.41093C16.9282 8.88436 17.312 9.26816 17.7854 9.26816Z" fill="#5C913B"/>
<path d="M18.1895 11.2887C18.6629 11.2887 19.0467 10.9049 19.0467 10.4314C19.0467 9.95801 18.6629 9.57422 18.1895 9.57422C17.7161 9.57422 17.3323 9.95801 17.3323 10.4314C17.3323 10.9049 17.7161 11.2887 18.1895 11.2887Z" fill="#5C913B"/>
<path d="M14.9566 7.24765C15.43 7.24765 15.8138 6.86386 15.8138 6.39043C15.8138 5.91699 15.43 5.5332 14.9566 5.5332C14.4832 5.5332 14.0994 5.91699 14.0994 6.39043C14.0994 6.86386 14.4832 7.24765 14.9566 7.24765Z" fill="#5C913B"/>
<path d="M13.3406 5.63144C13.8141 5.63144 14.1978 5.24765 14.1978 4.77421C14.1978 4.30078 13.8141 3.91699 13.3406 3.91699C12.8672 3.91699 12.4834 4.30078 12.4834 4.77421C12.4834 5.24765 12.8672 5.63144 13.3406 5.63144Z" fill="#5C913B"/>
<path d="M11.3201 4.41855C11.7935 4.41855 12.1773 4.03475 12.1773 3.56132C12.1773 3.08789 11.7935 2.7041 11.3201 2.7041C10.8467 2.7041 10.4629 3.08789 10.4629 3.56132C10.4629 4.03475 10.8467 4.41855 11.3201 4.41855Z" fill="#5C913B"/>
<path d="M8.89555 5.22714C9.36898 5.22714 9.75277 4.84335 9.75277 4.36992C9.75277 3.89649 9.36898 3.5127 8.89555 3.5127C8.42212 3.5127 8.03833 3.89649 8.03833 4.36992C8.03833 4.84335 8.42212 5.22714 8.89555 5.22714Z" fill="#5C913B"/>
<path d="M9.7039 4.41855C10.1773 4.41855 10.5611 4.03475 10.5611 3.56132C10.5611 3.08789 10.1773 2.7041 9.7039 2.7041C9.23047 2.7041 8.84668 3.08789 8.84668 3.56132C8.84668 4.03475 9.23047 4.41855 9.7039 4.41855Z" fill="#5C913B"/>
<path d="M7.27885 6.03476C7.75228 6.03476 8.13608 5.65097 8.13608 5.17753C8.13608 4.7041 7.75228 4.32031 7.27885 4.32031C6.80542 4.32031 6.42163 4.7041 6.42163 5.17753C6.42163 5.65097 6.80542 6.03476 7.27885 6.03476Z" fill="#5C913B"/>
<path d="M11.3201 6.84335C11.7935 6.84335 12.1773 6.45956 12.1773 5.98613C12.1773 5.5127 11.7935 5.12891 11.3201 5.12891C10.8467 5.12891 10.4629 5.5127 10.4629 5.98613C10.4629 6.45956 10.8467 6.84335 11.3201 6.84335Z" fill="#5C913B"/>
<path d="M14.149 9.67148C14.6224 9.67148 15.0062 9.28768 15.0062 8.81425C15.0062 8.34082 14.6224 7.95703 14.149 7.95703C13.6755 7.95703 13.2917 8.34082 13.2917 8.81425C13.2917 9.28768 13.6755 9.67148 14.149 9.67148Z" fill="#5C913B"/>
<path d="M14.9566 12.0963C15.43 12.0963 15.8138 11.7125 15.8138 11.2391C15.8138 10.7656 15.43 10.3818 14.9566 10.3818C14.4832 10.3818 14.0994 10.7656 14.0994 11.2391C14.0994 11.7125 14.4832 12.0963 14.9566 12.0963Z" fill="#5C913B"/>
</g>
<defs>
<clipPath id="clip0_506_2367">
<rect width="20" height="20" fill="white"/>
</clipPath>
</defs>
</svg>
