<svg width="18" height="16" viewBox="0 0 18 16" fill="none" xmlns="http://www.w3.org/2000/svg">
<path d="M5.0625 6.125C5.0625 5.95924 5.12835 5.80027 5.24556 5.68306C5.36277 5.56585 5.52174 5.5 5.6875 5.5H9.6875C9.85326 5.5 10.0122 5.56585 10.1294 5.68306C10.2467 5.80027 10.3125 5.95924 10.3125 6.125V9.875C10.3125 10.0408 10.2467 10.1997 10.1294 10.3169C10.0122 10.4342 9.85326 10.5 9.6875 10.5H5.6875C5.52174 10.5 5.36277 10.4342 5.24556 10.3169C5.12835 10.1997 5.0625 10.0408 5.0625 9.875V6.125ZM6.3125 9.25H9.0625V6.75H6.3125V9.25ZM0.585003 3.0125C1.1975 1.6275 2.58375 0.5 4.25 0.5H14C15.7963 0.5 17.75 1.9825 17.75 4.25C17.75 5.57 17.0125 6.68875 16.495 7.25875C16.4863 7.94375 16.5138 8.85125 16.5475 9.8225L16.5575 10.1162C16.5913 11.1062 16.6263 12.135 16.6263 13C16.6263 13.8 16.5438 14.5487 16.0088 15.0187C15.7438 15.2525 15.4213 15.3662 15.0963 15.4262C14.7337 15.483 14.3669 15.5076 14 15.5H4C2.82125 15.5 2.05875 15.1462 1.6675 14.4937C1.3575 13.9775 1.36875 13.375 1.37375 13.085L1.375 13V7.275C0.0900025 6.025 -0.00874745 4.35625 0.585003 3.0125ZM4.25 1.75C3.16625 1.75 2.17875 2.49875 1.72875 3.5175C1.29125 4.50875 1.3975 5.6675 2.405 6.52375C2.47399 6.58245 2.5294 6.65544 2.56739 6.73767C2.60538 6.81991 2.62504 6.90942 2.625 7V13.0838C2.625 13.4225 2.625 13.6588 2.73875 13.85C2.81625 13.9788 3.055 14.25 4.00125 14.25H11.5013C11.8913 14.25 12.1563 14.2338 12.345 14.1975C12.5263 14.1625 12.58 14.1187 12.595 14.1025C12.61 14.0862 12.6563 14.0363 12.6938 13.855C12.7313 13.6675 12.75 13.3988 12.75 13C12.75 12.3913 12.745 11.7175 12.7413 11.0375C12.7245 9.7692 12.7274 8.50071 12.75 7.2325C12.7546 7.07253 12.8204 6.92042 12.9338 6.8075C13.0338 6.70833 13.1296 6.61583 13.2213 6.53C13.4638 6.3 13.6763 6.09875 13.87 5.815C14.1075 5.465 14.3025 4.99375 14.3025 4.25C14.3025 3.43 13.93 2.8225 13.3925 2.4025C12.8481 1.98741 12.1845 1.75863 11.5 1.75H4.25Z" fill="#4E3F08"/>
</svg>
