<svg width="24" height="21" viewBox="0 0 24 21" fill="none" xmlns="http://www.w3.org/2000/svg">
<g clip-path="url(#clip0_605_3184)">
<path d="M10.9534 11.1889L16.6759 18.3517C16.6759 18.3517 17.0178 18.5878 17.3091 18.3816C17.6004 18.1739 17.5157 17.4887 17.0038 16.387C16.5396 15.3888 15.1666 12.8186 14.3125 11.5708C13.6848 10.6548 12.8583 9.25619 12.033 8.39759C11.6525 8.00022 11.3613 7.77751 10.9111 7.65387C9.52945 7.27491 8.96804 8.02604 8.96804 8.02604L10.9534 11.1889Z" fill="#ED6C31"/>
<path d="M16.9164 17.9156C16.767 17.1229 15.3799 14.9903 14.7373 13.9029C14.0948 12.8156 11.7387 9.03297 10.8112 8.53289C10.2929 8.25401 9.3448 8.12828 8.75137 8.57323C8.15793 9.01818 7.70172 9.85657 8.27028 10.9899C8.79554 12.0351 11.5836 14.074 12.7499 15.097C14.3329 16.4845 15.8197 17.7186 16.466 18.2181C16.6847 18.3883 16.7975 18.4108 16.7975 18.4108C16.7975 18.4108 16.9751 18.2214 16.9164 17.9156Z" fill="#FF8D02"/>
<path d="M6.93003 7.67673C7.17798 7.71013 7.40751 7.95332 7.80113 8.38146C8.32022 8.94441 8.29367 9.17821 8.55793 9.2775C8.72326 9.33868 9.07314 9.20483 9.4442 8.85694C9.77636 8.54612 9.88106 8.26491 9.85849 8.14988C9.80571 7.87069 9.42965 7.71656 8.9399 7.13917C8.57722 6.71064 8.45013 6.56037 8.46282 6.34222C8.47408 6.12269 8.6784 5.93304 8.92146 5.69366C9.28259 5.33887 9.60288 4.64989 9.35619 3.94282C9.06137 3.10136 8.27631 3.07762 8.18802 2.99155C8.09973 2.90548 8.10411 2.25709 7.7047 1.92607C7.30669 1.59502 6.35069 1.51018 6.08961 1.65978C5.82853 1.80937 4.03475 8.59124 4.03475 8.59124C4.03475 8.59124 4.86662 8.86753 5.46712 8.6461C6.41196 8.29652 6.46655 7.61514 6.93003 7.67673Z" fill="#2F7C31"/>
<path d="M10.6423 12.3769C10.9113 12.0726 10.6936 11.7631 10.4856 11.5604C10.2991 11.3786 9.8788 10.955 9.74561 10.7669C9.61241 10.5787 9.31509 10.2028 9.12209 9.9563C8.92909 9.70984 8.29247 9.74609 8.39659 10.3017C8.45994 10.637 8.77132 11.0127 9.12685 11.4315C9.40813 11.7626 9.83782 12.1524 10.0578 12.3113C10.2778 12.4688 10.4981 12.5391 10.6423 12.3769ZM12.0493 13.6346C11.8452 13.8439 11.9883 14.0404 12.2985 14.3177C12.6086 14.595 12.8213 14.6261 12.9781 14.4581C13.1987 14.2232 12.9143 13.9793 12.6882 13.7839C12.4621 13.5885 12.2783 13.3996 12.0493 13.6346Z" fill="#FFA726"/>
<path d="M9.96605 10.6405C10.1001 10.7893 10.3292 10.7751 10.5238 10.5983C10.7602 10.3829 10.9615 10.1764 11.111 9.99587C11.2592 9.81678 11.186 9.58707 11.0781 9.50828C10.9305 9.40047 10.7395 9.424 10.5728 9.58505C10.4325 9.72185 10.0988 10.0257 9.96892 10.2045C9.88464 10.3223 9.84049 10.5001 9.96605 10.6405ZM11.1257 13.1277C11.3183 13.3432 11.6149 13.2185 11.8434 13.0566C12.072 12.8934 12.3696 12.6336 12.1887 12.342C12.0078 12.0504 11.5232 12.3153 11.3294 12.45C11.1357 12.5861 10.8817 12.8565 11.1257 13.1277ZM13.5431 14.4413C13.7593 14.634 14.0036 14.4875 14.1708 14.2561C14.3449 14.0148 14.4479 13.7111 14.2506 13.5631C14.0532 13.4152 13.7716 13.6143 13.6418 13.8015C13.5106 13.9889 13.3368 14.2569 13.5431 14.4413ZM15.0842 16.8476C15.2658 17.0802 15.5998 16.9114 15.7403 16.7942C15.8809 16.6771 16.0736 16.4623 15.8939 16.2607C15.7184 16.0646 15.4527 16.1819 15.2642 16.2954C15.0088 16.4492 14.967 16.6986 15.0842 16.8476Z" fill="#ED6C31"/>
<path d="M3.24223 6.65615C3.22258 6.54951 1.98175 5.52464 2.79265 3.93635C3.57472 2.40328 4.87575 3.0758 4.95658 3.01851C5.03742 2.96122 5.00355 2.29082 5.55983 1.90963C6.15654 1.5012 6.49132 1.61647 6.49132 1.61647C6.49132 1.61647 7.05562 1.75413 7.19784 2.42878C7.28766 2.85516 7.10108 3.3329 7.17028 3.46562C7.23948 3.59834 7.86198 3.55805 8.11232 4.32976C8.27187 4.81996 8.08203 5.81386 7.4758 6.46853C6.86126 7.13314 6.20034 6.91796 5.8877 7.32558C5.45333 7.89226 4.84376 9.05607 3.83687 8.51059C2.67988 7.88404 3.26185 6.76137 3.24223 6.65615Z" fill="#709921"/>
</g>
<path d="M17.4462 11.1287L8.56616 17.9575C8.56616 17.9575 8.81991 18.9512 9.74991 19.5012C10.5237 19.9587 11.3562 19.9662 12.4137 19.6075C13.4712 19.2475 14.0837 18.72 14.0837 18.72C14.0837 18.72 14.5074 18.855 14.8237 18.6137C15.1137 18.3937 15.0749 18.045 15.0774 18.0425C15.1787 17.9475 16.7724 16.7325 17.5124 16.035C18.2524 15.3375 20.4687 13.0525 20.4687 13.0525C20.4687 13.0525 20.8824 13.09 21.1249 12.8137C21.3512 12.5562 21.2299 12.3125 21.2299 12.3125C21.2299 12.3125 23.4962 10.3462 23.5349 8.76121C23.5774 7.00621 22.1824 6.41496 21.9487 6.35121C21.7162 6.28746 17.4462 11.1287 17.4462 11.1287Z" fill="#2E7E30"/>
<path d="M17.1288 8.69759C17.1288 8.69759 16.5575 9.33134 16.3888 9.54384C16.22 9.75509 15.755 10.2413 15.755 10.2413C15.755 10.2413 15.4125 10.0926 15.1213 10.4101C14.8625 10.6913 14.9313 11.0863 14.9313 11.0863C14.9313 11.0863 13.2813 12.5451 11.8438 13.5388C10.4063 14.5326 8.86878 15.5476 8.54628 16.7526C8.36628 17.4251 8.56753 17.9576 8.56753 17.9576C8.56753 17.9576 8.92753 18.0426 9.24378 18.2751C9.56002 18.5076 9.76753 18.7701 9.76753 18.7701C9.76753 18.7701 11.02 18.8876 12.12 18.3176C13.22 17.7476 16.22 15.4626 16.96 14.7863C17.7 14.1101 20.5163 11.2913 21.21 10.4101C21.9538 9.46509 22.5213 8.25384 22.3513 7.30259C22.1825 6.35134 21.95 6.35134 21.95 6.35134C21.95 6.35134 20.7025 5.84384 19.5825 6.41509C18.5325 6.95009 17.9125 7.78884 17.9125 7.78884C17.9125 7.78884 17.5563 7.66384 17.3063 7.95134C17.01 8.29009 17.1288 8.69759 17.1288 8.69759Z" fill="#559833"/>
<path d="M21.6725 8.33234C21.4938 8.22734 21.21 8.34734 21.0875 8.57859C20.965 8.80984 21.0263 9.08734 21.2263 9.17984C21.4263 9.27234 21.6575 9.19484 21.8113 8.96359C21.9213 8.79734 21.9338 8.48609 21.6725 8.33234ZM16.3725 14.2161C16.1238 14.0336 15.8338 14.1698 15.6788 14.4161C15.525 14.6623 15.525 14.8936 15.71 15.0636C15.895 15.2336 16.2025 15.1411 16.3875 14.8786C16.5513 14.6473 16.6038 14.3861 16.3725 14.2161ZM16.3413 13.2311C16.4338 13.4661 18.0975 11.9673 19.0375 10.8586C19.9775 9.74984 21.5713 7.81359 21.1475 7.62359C20.7013 7.42359 19.7225 9.03859 18.975 9.99609C17.8825 11.3973 16.2025 12.8761 16.3413 13.2311ZM15.1263 14.2873C15.1813 14.6136 13.805 15.8286 13.1888 16.2911C12.84 16.5523 10.8213 17.6536 10.6738 17.2923C10.5763 17.0523 12.0663 16.3486 12.645 15.9536C13.2988 15.5073 13.7988 15.0823 14.1913 14.7673C14.4138 14.5861 15.0863 14.0523 15.1263 14.2873ZM21.2225 6.75359C21.2288 6.91734 20.9825 7.05859 20.6125 7.15609C20.2425 7.25359 19.5238 7.95109 19.055 8.45234C18.5863 8.95359 17.455 10.3898 17.27 10.6298C17.085 10.8698 16.0938 11.7511 15.8225 12.0236C15.5513 12.2961 13.9388 13.5586 13.515 13.8848C13.09 14.2111 11.4775 15.2873 11.0963 15.5586C10.745 15.8098 10.1763 16.2423 9.87879 16.7811C9.64629 17.1986 9.47629 17.6736 9.32379 17.6298C9.17129 17.5861 9.17129 16.8898 9.50879 16.2911C9.84629 15.6923 10.5975 15.2236 11 14.9523C11.4025 14.6811 13.2863 13.4386 13.2863 13.4386C13.2863 13.4386 14.5925 12.3498 14.8975 12.0998C15.2025 11.8498 16.6063 10.6186 17.0313 10.0636C17.4563 9.50859 18.36 8.34359 18.915 7.75484C19.47 7.16734 20.1013 6.79734 20.4288 6.69859C20.755 6.60109 21.2125 6.49234 21.2225 6.75359Z" fill="#2E7E30"/>
<path d="M10.5312 16.4648C10.6124 16.6536 10.9237 16.6611 11.3037 16.4436C11.6849 16.2261 12.4574 15.6811 12.8824 15.3761C13.3837 15.0173 13.9062 14.6036 14.0687 14.4398C14.3299 14.1786 14.4062 13.9623 14.3412 13.8086C14.2762 13.6548 14.0249 13.6998 13.7862 13.8736C13.2637 14.2548 12.9149 14.4611 12.0112 15.0711C11.6487 15.3161 11.0749 15.7248 10.8574 15.8986C10.6399 16.0736 10.4337 16.2361 10.5312 16.4648ZM19.3499 7.06855C19.4312 7.23105 19.6662 7.1448 19.9699 6.94855C20.2737 6.7523 20.3399 6.6223 20.2424 6.4698C20.1449 6.3173 19.8362 6.36355 19.6549 6.48105C19.4699 6.60105 19.2412 6.85105 19.3499 7.06855ZM19.6112 8.4423C19.7699 8.6523 20.0974 8.3723 20.3249 8.1473C20.5399 7.93605 20.7999 7.7248 20.8974 7.6098C20.9737 7.5198 21.1462 7.11355 20.7437 7.1248C20.4187 7.13355 19.9837 7.5348 19.7899 7.7348C19.6499 7.87855 19.4462 8.2248 19.6112 8.4423Z" fill="#7FBA42"/>
<defs>
<clipPath id="clip0_605_3184">
<rect width="18" height="18" fill="white" transform="translate(1.11572 19.1143) rotate(-90.731)"/>
</clipPath>
</defs>
</svg>
