<svg width="20" height="20" viewBox="0 0 20 20" fill="none" xmlns="http://www.w3.org/2000/svg">
<g clip-path="url(#clip0_514_4366)">
<path d="M1.42969 6.76074C1.42969 6.76074 1.02188 6.98418 0.859379 7.16855C0.696879 7.35137 0.582816 7.51387 0.615629 7.73887C0.676566 8.16699 2.1625 9.30605 3.18125 10.3248C4.04688 11.1904 5.88907 12.7889 5.88907 12.7889L6.76407 11.8936L5.25782 9.95918L1.42969 6.76074Z" fill="#50352F"/>
<path d="M12.4844 5.86575C12.4844 5.86575 10.9156 4.22982 9.93748 3.21732C9.2156 2.47044 7.7781 0.854816 7.62654 0.753253C7.47498 0.651691 7.07029 0.567316 6.83435 0.803253C6.59685 1.04075 5.04529 2.72825 4.43748 3.36888C3.82966 4.0095 0.865601 7.16575 0.865601 7.16575C0.865601 7.16575 1.18123 6.97825 1.48591 7.28138C1.69685 7.49232 6.3781 12.072 6.3781 12.072L10.6625 10.3845L12.4844 5.86575Z" fill="#865C50"/>
<path d="M7.28909 11.5234L2.76721 7.1875C2.68909 7.1125 2.68753 6.98906 2.76096 6.9125L7.19846 2.25625C7.2344 2.21719 7.28596 2.19687 7.33753 2.19531C7.39378 2.19687 7.44065 2.21562 7.47815 2.25312L11.7969 6.63906L11.5188 6.9125L7.34221 2.67031L3.17815 7.04063L7.5594 11.2406L7.28909 11.5234Z" fill="#50352F"/>
<path d="M5.16095 4.85973L5.43657 4.58301L9.44517 8.57566L9.16954 8.85254L5.16095 4.85973Z" fill="#50352F"/>
<path d="M4.41327 8.48457L8.77671 3.86035L9.06077 4.12848L4.69749 8.7527L4.41327 8.48457ZM6.07608 10.085L10.2634 5.54441L10.5506 5.80926L6.36327 10.3499L6.07608 10.085Z" fill="#50352F"/>
<path d="M7.56876 12.602L7.45782 13.6973C7.45782 13.6973 9.07814 15.3645 9.69689 16.0004C10.3156 16.6363 12.4766 18.5426 12.4766 18.5426C12.4766 18.5426 13.5406 18.0504 13.5719 17.9395C13.6031 17.8285 19.0203 12.0941 19.0203 12.0941C19.0203 12.0941 17.0344 10.0926 16.3203 9.37852C15.6063 8.66445 14.0485 6.88477 14.0485 6.88477L7.56876 12.602Z" fill="#DC0D28"/>
<path d="M14.0969 8.21738C14.0969 8.21738 14.5578 9.04395 14.6375 9.21738C14.7172 9.39238 14.8391 9.68613 14.6391 9.76738C14.3688 9.87832 12.1922 10.3518 12.1922 10.3518C12.1922 10.3518 12.1453 12.5689 11.9141 12.7986C11.6594 13.0533 8.11095 13.3768 7.99689 13.3939C7.77501 13.4252 7.96564 13.6158 8.0922 13.7596C8.21876 13.9018 12.7297 18.2236 12.7297 18.2236L12.5078 19.1283L12.0469 18.7471C12.0469 18.7471 10.6875 17.4268 9.2422 16.0127C7.79689 14.5986 6.53595 13.3158 6.53595 13.3158L13.2547 7.67676L14.0969 8.21738Z" fill="#B0091B"/>
<path d="M13.1078 18.1184L12.6625 18.1652L12.0469 18.748C12.0469 18.748 12.5109 19.3402 12.7672 19.3684C13.0234 19.3965 15.7781 16.3715 16.6172 15.5465C17.4547 14.723 19.4797 12.6402 19.4797 12.5637C19.4797 12.3934 19.0219 12.0918 19.0219 12.0918L13.1078 18.1184Z" fill="#B0B3AF"/>
<path d="M13.0594 18.5502C13.1015 18.4502 19.2828 12.2939 19.2828 12.2939L18.8984 11.9658L12.6625 18.1658L13.0594 18.5502Z" fill="#E4E0E8"/>
<path d="M10.3125 7.18574L11.6219 6.62637C11.6219 6.62637 12.2938 5.75293 12.3734 5.67324C12.4531 5.59356 13.4094 5.52637 13.4094 5.52637L14.2125 6.18887C14.2125 6.18887 14.4016 6.93262 14.4344 7.09356C14.4656 7.25293 14.7797 8.4248 14.6547 8.76699C14.5406 9.07949 12.1469 9.62324 11.9016 9.69199C11.7594 9.73262 11.7938 9.84199 11.7656 10.0764C11.7484 10.2201 11.6938 11.9123 11.55 12.0873C11.4063 12.2623 9.99532 12.5014 9.5 12.5982C9.22188 12.6529 7.4125 12.9576 7.4125 12.9576L6.94532 13.6357C6.94532 13.6357 6.99375 13.8904 6.83282 13.9717C6.67344 14.0514 6.23907 13.8436 6.15938 13.7482C6.07969 13.6529 5.5125 12.6451 5.57657 12.5014C5.64063 12.3576 6.25313 11.4936 6.36407 11.4295C6.47657 11.3654 7.32813 11.1623 7.32813 11.1623C7.32813 11.1623 8.13907 9.01543 8.32032 8.84668C8.42813 8.74668 9.89844 8.11387 9.89844 8.11387L10.3125 7.18574Z" fill="#E0E0E0"/>
<path d="M10.6641 7.62492C10.5547 7.63117 10.3375 8.83742 10.3688 8.91554C10.4016 8.9921 12.6016 8.9546 12.6219 8.77492C12.6406 8.59367 11.0016 7.6046 10.6641 7.62492ZM13.8563 6.68585C13.9078 6.82648 13.3813 7.30773 13.3422 7.31554C13.3031 7.32335 12.1891 7.02335 12.1547 6.78273C12.1219 6.55773 12.7875 6.59054 13.0703 6.59054C13.3547 6.58898 13.825 6.59992 13.8563 6.68585ZM8.59376 9.46554C8.3672 9.35773 7.8672 10.753 7.79845 10.9296C7.71564 11.1421 8.18595 11.2249 8.45939 11.2484C8.85939 11.2812 10.2156 11.3484 10.2453 11.2359C10.2953 11.0359 8.90158 9.61242 8.59376 9.46554ZM6.53283 11.8593C6.32814 11.9499 6.88751 13.6359 6.93908 13.6359C6.99064 13.6359 7.41251 12.9499 7.41251 12.9499C7.41251 12.9499 6.74689 11.7655 6.53283 11.8593Z" fill="white"/>
</g>
<defs>
<clipPath id="clip0_514_4366">
<rect width="20" height="20" fill="white"/>
</clipPath>
</defs>
</svg>
