<svg width="20" height="20" viewBox="0 0 20 20" fill="none" xmlns="http://www.w3.org/2000/svg">
<g clip-path="url(#clip0_514_4908)">
<path d="M19.8823 13.295C19.8823 16.8514 15.4479 19.7345 9.97773 19.7345C4.50762 19.7345 0.0732422 16.8515 0.0732422 13.295C0.0732422 9.73852 4.50766 6.85547 9.97777 6.85547C15.4479 6.85547 19.8823 9.73855 19.8823 13.295Z" fill="#BFBCAF"/>
<path d="M19.8823 12.3985C19.8823 15.955 15.4479 18.838 9.97773 18.838C4.50762 18.838 0.0732422 15.955 0.0732422 12.3985C0.0732422 8.84203 4.50766 5.95898 9.97777 5.95898C15.4479 5.95898 19.8823 8.84207 19.8823 12.3985Z" fill="#E3E8E7"/>
<path d="M17.7813 12.3988C17.7813 15.2009 14.2875 17.4724 9.97771 17.4724C5.6679 17.4724 2.17407 15.2009 2.17407 12.3988C2.17407 9.59672 5.66786 7.3252 9.97767 7.3252C14.2875 7.3252 17.7813 9.59672 17.7813 12.3988Z" fill="#F9F9F7"/>
<path d="M16.4902 4.8307C16.12 4.83066 15.4639 4.45961 14.9847 4.18871C14.5164 3.92387 14.2633 3.78566 14.0771 3.78566C14.0714 3.78566 14.0657 3.78578 14.0602 3.78605C14.0517 3.78641 14.0431 3.7866 14.0343 3.7866C13.7117 3.7866 13.1217 3.5627 12.6476 3.38281C12.1658 3.2 11.8841 3.09656 11.6971 3.09656C11.6898 3.09656 11.6825 3.09672 11.6755 3.09703C11.6614 3.09766 11.6474 3.09797 11.6333 3.09797C10.9985 3.09797 10.3631 2.46402 10.2169 1.68477C10.1355 1.25059 10.2156 0.841563 10.4369 0.562539C10.5976 0.359805 10.8171 0.24668 11.0716 0.235313C11.0857 0.234688 11.0997 0.234375 11.1138 0.234375C11.6149 0.234375 12.1441 0.643594 12.4007 1.22953C12.4172 1.26714 12.4433 1.29977 12.4763 1.32415C12.5093 1.34853 12.5482 1.36382 12.5889 1.36848C12.6297 1.37314 12.671 1.367 12.7087 1.3507C12.7464 1.33439 12.7791 1.30847 12.8036 1.27555C12.9659 1.05758 13.1916 0.936133 13.4562 0.924336C13.4703 0.923711 13.4843 0.923398 13.4984 0.923398C14.0911 0.923398 14.6855 1.4677 14.881 2.18945C14.8923 2.23087 14.9146 2.26841 14.9457 2.29798C14.9768 2.32755 15.0154 2.34803 15.0574 2.35718C15.0993 2.36634 15.1429 2.36381 15.1835 2.34989C15.2241 2.33596 15.2601 2.31117 15.2876 2.2782C15.4471 2.0866 15.6615 1.97953 15.9074 1.96855C15.9215 1.96793 15.9355 1.96762 15.9496 1.96762C16.5844 1.96762 17.2198 2.60156 17.3661 3.38082C17.4475 3.81496 17.3673 4.22398 17.1461 4.50305C16.9854 4.70578 16.7659 4.81895 16.5113 4.83027C16.5043 4.83056 16.4972 4.8307 16.4902 4.8307Z" fill="#F2F2F0"/>
<path d="M17.5966 3.3377C17.428 2.43918 16.6976 1.7332 15.9496 1.7332C15.9321 1.7332 15.9146 1.73359 15.897 1.73437C15.5737 1.74879 15.3015 1.89516 15.1074 2.12824C14.8858 1.30992 14.1999 0.689062 13.4984 0.689023C13.4809 0.689023 13.4633 0.689414 13.4458 0.690195C13.0992 0.705625 12.8114 0.872617 12.6155 1.13563C12.325 0.472227 11.7254 7.8125e-05 11.1137 0C11.0962 0 11.0787 0.000390625 11.0612 0.00117187C10.2951 0.0353125 9.81386 0.808516 9.9864 1.72812C9.99851 1.7927 10.0139 1.85613 10.0316 1.91852C9.96331 1.93035 9.90378 1.94809 9.8544 1.97246C8.78757 2.49941 4.9889 8.2618 4.868 8.44547L4.86499 8.44637V15.2955C4.86499 15.4546 5.0169 15.5697 5.17003 15.5264C7.05265 14.9944 17.0121 12.1606 17.0121 11.7597V4.92363C17.4785 4.65609 17.7284 4.03992 17.5966 3.3377ZM16.9623 4.35742C16.9116 4.42145 16.8538 4.47195 16.7902 4.51039C15.8465 3.68898 12.1916 2.07895 10.523 1.91449C10.4902 1.8258 10.465 1.73454 10.4474 1.64164C10.3785 1.2743 10.4416 0.934141 10.6207 0.708359C10.7396 0.558359 10.8948 0.478047 11.0821 0.469727C11.0927 0.469258 11.1032 0.469023 11.1138 0.469023C11.5247 0.469063 11.9656 0.820547 12.186 1.32375C12.2189 1.39898 12.271 1.46424 12.3371 1.51301C12.4031 1.56178 12.4808 1.59235 12.5624 1.60166C12.644 1.61097 12.7266 1.5987 12.802 1.56606C12.8773 1.53343 12.9428 1.48158 12.9918 1.4157C13.0747 1.30445 13.2243 1.16953 13.4667 1.15875C13.4773 1.15828 13.4879 1.15805 13.4984 1.15805C13.9809 1.15809 14.4888 1.63809 14.6548 2.25086C14.6772 2.33374 14.7219 2.40889 14.7841 2.46809C14.8463 2.52729 14.9236 2.56828 15.0074 2.5866C15.0913 2.60491 15.1786 2.59985 15.2598 2.57195C15.341 2.54405 15.413 2.4944 15.468 2.4284C15.5858 2.28688 15.7373 2.21102 15.918 2.20297C15.9286 2.2025 15.9392 2.20227 15.9498 2.20227C16.1894 2.20227 16.4429 2.32039 16.6636 2.53488C16.9044 2.76883 17.072 3.08469 17.1357 3.42418C17.2045 3.79148 17.1414 4.13164 16.9623 4.35742Z" fill="#E2E0D7"/>
<path d="M16.0782 11.7104L4.86499 15.0896V8.44566L16.0782 5.06641V11.7104Z" fill="#FFD469"/>
<path d="M16.0782 5.06641V11.7104L4.86499 15.0896V14.4988L15.5901 11.2666V8.83086L4.86499 12.063V11.4722L15.5901 8.24004V5.8043L4.86499 9.03648V8.44566L16.0782 5.06641Z" fill="#FFBD03"/>
<path d="M9.69272 5.53576C8.84979 4.69283 9.83346 3.98865 10.321 2.29549C10.8085 0.602324 12.7922 1.77709 13.5206 2.50557C15.8723 4.85721 10.5356 6.37869 9.69272 5.53576Z" fill="#FF473E"/>
<path d="M11.5043 1.97447L11.4976 1.98564C11.4932 1.99185 11.4868 2.00322 11.4784 2.01322C11.4706 2.02396 11.4584 2.03708 11.4516 2.05126L11.4295 2.09244C11.4204 2.1072 11.4113 2.12115 11.4017 2.13416C11.3919 2.14884 11.3816 2.16111 11.3706 2.1731C11.3597 2.18546 11.3477 2.19679 11.3347 2.20697C11.3217 2.21783 11.308 2.22599 11.2933 2.23498C11.2625 2.25194 11.2294 2.26404 11.1949 2.27087C11.1593 2.27802 11.121 2.28017 11.0842 2.27861C11.0659 2.27783 11.0477 2.27607 11.0311 2.27396C11.0145 2.27205 10.9981 2.26833 10.9849 2.26603C10.9721 2.26412 10.9598 2.26021 10.9523 2.25873L10.9397 2.25533C10.9397 2.25533 10.9386 2.25048 10.9379 2.24236C10.9374 2.2347 10.9355 2.22166 10.9362 2.20849C10.9364 2.19474 10.9365 2.17751 10.9389 2.16017C10.941 2.14244 10.9449 2.124 10.9502 2.10458C10.9618 2.06388 10.9809 2.02568 11.0065 1.99197C11.0341 1.95584 11.069 1.92588 11.1089 1.904C11.1288 1.89244 11.1515 1.88376 11.1736 1.87634C11.1959 1.869 11.2205 1.86501 11.2435 1.86244C11.2671 1.86059 11.2907 1.86105 11.3142 1.8638C11.3366 1.86703 11.3587 1.87228 11.3802 1.87951C11.4007 1.88624 11.4204 1.89517 11.439 1.90615C11.4561 1.91501 11.4654 1.92873 11.4751 1.93833C11.4843 1.94751 11.4917 1.95822 11.4967 1.964L11.5043 1.97447ZM10.8699 3.42822L10.8803 3.43318C10.8866 3.43564 10.8968 3.44087 10.9082 3.44427C10.9201 3.44775 10.9331 3.4547 10.9515 3.45435C10.9719 3.45519 10.9924 3.45407 11.0125 3.45099C11.0339 3.4477 11.055 3.44268 11.0755 3.43599C11.097 3.42808 11.1178 3.41852 11.1377 3.4074C11.157 3.39552 11.1772 3.38208 11.1943 3.36662C11.2113 3.35115 11.2286 3.33451 11.2423 3.31646C11.2703 3.28165 11.2918 3.24205 11.3057 3.19958C11.3129 3.17939 11.3165 3.15841 11.3199 3.13869C11.3227 3.11857 11.3237 3.09896 11.3234 3.0804C11.323 3.06289 11.3213 3.04542 11.3184 3.02814C11.316 3.01228 11.3116 2.99751 11.3082 2.98556C11.3054 2.97396 11.3004 2.96349 11.2981 2.95701L11.2934 2.94638C11.2906 2.94017 11.2859 2.93504 11.28 2.93178C11.274 2.92852 11.2671 2.92731 11.2604 2.92833L11.2558 2.92904C11.2558 2.92904 11.2517 2.92966 11.2449 2.93142C11.2384 2.93341 11.2275 2.93541 11.2167 2.93943C11.1878 2.94819 11.1597 2.9594 11.1327 2.97294C11.1021 2.98806 11.0718 3.00755 11.0438 3.02978C11.0165 3.05197 10.9921 3.07736 10.9709 3.1054C10.9609 3.11978 10.9511 3.13291 10.9429 3.14794C10.9345 3.16224 10.9271 3.17712 10.9208 3.19248C10.9142 3.20728 10.9088 3.22232 10.9039 3.2383C10.899 3.25306 10.8946 3.26818 10.8908 3.28388L10.883 3.32552C10.8814 3.33943 10.8744 3.35423 10.8706 3.36564C10.8662 3.37665 10.8639 3.38791 10.8618 3.39443L10.8592 3.40564C10.8581 3.41006 10.8586 3.41472 10.8605 3.41883C10.8625 3.42294 10.8658 3.42626 10.8699 3.42822ZM10.5939 4.13775L10.5835 4.13283C10.5771 4.1304 10.5669 4.12521 10.5556 4.12185C10.5436 4.11841 10.5306 4.11154 10.5122 4.11197C10.4918 4.11122 10.4714 4.11245 10.4512 4.11564C10.4315 4.11884 10.41 4.12369 10.3883 4.13095C10.3669 4.13895 10.3462 4.14862 10.3263 4.15986C10.3071 4.17181 10.2869 4.18537 10.2699 4.20091C10.253 4.21646 10.2358 4.23318 10.2222 4.2513C10.1943 4.28624 10.173 4.32594 10.1593 4.36849C10.1523 4.38873 10.1488 4.4097 10.1454 4.42947C10.1429 4.44879 10.1418 4.46827 10.1422 4.48775C10.1429 4.50654 10.1445 4.52388 10.1474 4.54001C10.15 4.55587 10.1545 4.57064 10.1579 4.58255C10.1608 4.59416 10.1658 4.60458 10.1681 4.61107L10.1729 4.62169C10.1757 4.6279 10.1804 4.63302 10.1864 4.63625C10.1924 4.63948 10.1993 4.64065 10.206 4.63958L10.2106 4.63884C10.2106 4.63884 10.2147 4.63818 10.2215 4.63642C10.2279 4.63439 10.2388 4.63236 10.2497 4.6283C10.2785 4.61938 10.3066 4.60803 10.3335 4.59439C10.3641 4.57915 10.3943 4.55947 10.4222 4.53712C10.4493 4.51481 10.4737 4.4893 10.4947 4.46115C10.5046 4.44673 10.5143 4.43353 10.5224 4.41845C10.5307 4.40365 10.5382 4.38974 10.5443 4.3738C10.5508 4.35896 10.5561 4.34388 10.5609 4.32791C10.5659 4.31314 10.5701 4.29798 10.5739 4.28224L10.5815 4.24056C10.583 4.22666 10.5899 4.21181 10.5936 4.20041C10.5981 4.18935 10.6003 4.1781 10.6024 4.17158L10.6049 4.16033C10.6059 4.15587 10.6054 4.15121 10.6034 4.14711C10.6014 4.14301 10.598 4.13971 10.5939 4.13775ZM12.5356 2.70646C12.5371 2.70145 12.5377 2.69618 12.5373 2.69094C12.5368 2.68571 12.5354 2.68061 12.5329 2.67594C12.5305 2.67128 12.5272 2.66714 12.5232 2.66375C12.5192 2.66037 12.5145 2.65781 12.5095 2.65623L12.4997 2.65314C12.4936 2.65173 12.4841 2.64837 12.4732 2.64666C12.462 2.64462 12.4491 2.64076 12.431 2.64333C12.4112 2.64501 12.3916 2.6483 12.3724 2.65318C12.3536 2.65826 12.3324 2.66462 12.3122 2.67349C12.2929 2.68271 12.2715 2.69306 12.2525 2.70591C12.2336 2.71849 12.2137 2.73263 12.197 2.74861C12.1799 2.76451 12.1629 2.78138 12.1486 2.79951C12.1195 2.83436 12.0959 2.87334 12.0784 2.91517C12.0625 2.95214 12.0519 2.99115 12.0468 3.03107C12.0429 3.06149 12.0427 3.09228 12.0463 3.12275C12.047 3.134 12.0496 3.14408 12.0506 3.15033L12.053 3.16068L12.053 3.16083C12.0581 3.18271 12.08 3.19626 12.1018 3.19119L12.1087 3.18958C12.1087 3.18958 12.1122 3.18876 12.1182 3.18662C12.1239 3.18427 12.1333 3.18158 12.1431 3.17685C12.1639 3.16822 12.1914 3.15498 12.2197 3.13732C12.2822 3.09826 12.3377 3.04898 12.3838 2.99154C12.3953 2.9765 12.4066 2.9624 12.4168 2.94724C12.4268 2.93162 12.437 2.91818 12.4451 2.90216C12.4539 2.88708 12.4619 2.8731 12.469 2.85779C12.4762 2.84322 12.4829 2.82974 12.4889 2.81533C12.4946 2.80134 12.4979 2.79115 12.5023 2.77837C12.5052 2.76638 12.5129 2.75361 12.5184 2.74384C12.5241 2.73431 12.5277 2.72482 12.5305 2.71923L12.5344 2.7097C12.5348 2.70865 12.5352 2.70748 12.5356 2.70646ZM12.8481 4.25357C12.8555 4.25533 12.8678 4.2597 12.8806 4.26177C12.8941 4.26388 12.9097 4.26958 12.9288 4.26673C12.9503 4.26477 12.9715 4.26049 12.9921 4.25396C13.0137 4.24729 13.0347 4.23866 13.0547 4.22818C13.0754 4.21669 13.0949 4.20321 13.1129 4.18794C13.1301 4.1724 13.1477 4.15482 13.1615 4.13583C13.1751 4.11689 13.1885 4.09654 13.1979 4.07556C13.2174 4.0345 13.2282 3.98981 13.2295 3.94435C13.2306 3.90204 13.2237 3.8599 13.2093 3.82009C13.2028 3.8023 13.1951 3.785 13.1861 3.76833C13.1779 3.75287 13.1679 3.73884 13.16 3.72755C13.1529 3.71646 13.1437 3.70701 13.1388 3.70107C13.136 3.69775 13.133 3.69459 13.1298 3.69158L13.1176 3.69619C13.1106 3.69939 13.0984 3.70337 13.0868 3.70935C13.0748 3.71513 13.0593 3.72177 13.0447 3.7299C13.03 3.73794 13.0142 3.74712 12.9989 3.7572C12.9678 3.77741 12.9391 3.80123 12.9136 3.82818C12.8897 3.85386 12.8698 3.88309 12.8548 3.91482C12.8481 3.93072 12.8418 3.94537 12.8376 3.96173C12.833 3.97757 12.8298 3.9938 12.8282 4.01021C12.8261 4.02672 12.8253 4.04337 12.8257 4.06001C12.8256 4.07615 12.8263 4.09283 12.8276 4.11013L12.8338 4.15646C12.8365 4.17189 12.8343 4.1897 12.8342 4.20298C12.8333 4.21599 12.8348 4.22896 12.8348 4.23658L12.8358 4.24955L12.8481 4.25357ZM11.7093 3.96341C11.7026 3.95974 11.692 3.95228 11.6802 3.94685C11.6677 3.94123 11.6543 3.93162 11.635 3.92927C11.6138 3.92546 11.5922 3.92395 11.5706 3.92478C11.548 3.92547 11.5255 3.92821 11.5034 3.93298C11.4804 3.93857 11.458 3.9464 11.4366 3.95634C11.4159 3.96677 11.3943 3.97904 11.3759 3.99369C11.3578 4.00833 11.3394 4.02439 11.3249 4.04212C11.2951 4.0765 11.2728 4.11672 11.2595 4.16021C11.2472 4.20072 11.2426 4.24317 11.2459 4.28537C11.2477 4.30544 11.2504 4.32404 11.2546 4.34146C11.2584 4.35853 11.2643 4.3747 11.2689 4.38767C11.2728 4.40025 11.2792 4.41181 11.2822 4.41884C11.2858 4.42619 11.2884 4.43037 11.2884 4.43037L11.3014 4.42915C11.309 4.42794 11.3219 4.42732 11.3345 4.42466C11.3477 4.42228 11.3643 4.42001 11.3806 4.41603C11.397 4.4122 11.4146 4.40755 11.432 4.40189C11.4671 4.39056 11.5022 4.37525 11.5331 4.35611C11.563 4.33771 11.5899 4.31481 11.6129 4.28822C11.6235 4.27466 11.6336 4.26224 11.6419 4.24755C11.6504 4.23314 11.6579 4.21943 11.6638 4.2033C11.67 4.18822 11.6754 4.17314 11.6795 4.15595C11.6839 4.14041 11.6876 4.12419 11.691 4.10716L11.6974 4.06087C11.6988 4.04525 11.7057 4.02869 11.7093 4.01587C11.7136 4.00357 11.7157 3.99068 11.7177 3.98333L11.7201 3.97052L11.7093 3.96341Z" fill="#E21A1A"/>
<path d="M13.8198 1.77825C14.4307 1.57239 14.7328 1.90747 14.0477 2.44184C13.6657 2.73985 13.2922 2.82989 13.0722 2.78137C13.0536 2.77716 13.0343 2.77778 13.016 2.78317C12.8748 2.82626 12.7589 2.75579 12.73 2.55673C12.7221 2.50274 12.6795 2.46239 12.6263 2.45051C12.4967 2.42157 12.3598 2.24626 12.2687 1.87528C11.9987 0.775397 12.5957 0.241686 12.9036 1.29864L12.9051 1.3038C12.9339 1.40356 13.06 1.42985 13.1275 1.35094C13.4075 1.02352 13.7044 1.09325 13.65 1.6454C13.6408 1.73829 13.7313 1.80805 13.8198 1.77825Z" fill="#16992B"/>
</g>
<defs>
<clipPath id="clip0_514_4908">
<rect width="20" height="20" fill="white"/>
</clipPath>
</defs>
</svg>
