<svg width="20" height="20" viewBox="0 0 20 20" fill="none" xmlns="http://www.w3.org/2000/svg">
<g clip-path="url(#clip0_510_3974)">
<path d="M14.4312 7.56895C14.4218 7.48145 14.4031 7.39395 14.3749 7.30645C14.3437 7.2127 14.2999 7.1127 14.2468 7.01895C14.2374 7.00332 14.2218 6.95332 14.2093 6.90645C14.1968 6.86582 14.1812 6.81895 14.1656 6.76582C14.1187 6.63145 14.0437 6.46582 13.8937 6.28457C13.7406 6.10332 13.7124 5.87832 13.6812 5.6377C13.6812 5.62832 13.6781 5.61895 13.6781 5.60645C13.6374 5.26895 13.5937 4.8877 13.2156 4.58145C12.5562 4.05332 11.7093 4.10957 10.8937 4.1627C10.7781 4.16895 10.6624 4.1752 10.5531 4.18145C10.2499 4.19395 9.93744 4.2377 9.60306 4.31582C9.25931 4.39395 8.96869 4.57832 8.68744 4.75645C8.40306 4.93457 8.13744 5.10332 7.81556 5.1752C7.44994 5.25645 7.06244 5.28457 6.68744 5.30645C6.39994 5.32207 6.10619 5.34395 5.81556 5.38457C5.35306 5.45645 4.95931 5.55332 4.61869 5.68457C4.39994 5.76895 4.19369 5.86582 3.99681 5.97207C3.59994 6.19082 3.26244 6.5127 2.93744 6.82832C2.74056 7.01582 2.55619 7.19395 2.35931 7.3502C2.28431 7.40645 2.21244 7.46895 2.14056 7.52832C1.94369 7.69395 1.74056 7.86582 1.53431 7.97207C1.09681 8.19707 0.746814 8.41582 0.465564 8.9502C0.284314 9.29707 0.146814 9.72207 0.0468143 10.2408C-0.162561 11.3252 0.421814 12.1814 1.79056 12.7877C1.99994 12.8846 2.23119 12.9752 2.48119 13.0533C3.18119 13.2877 3.88744 13.4002 4.58744 13.4002C4.91556 13.4002 5.24056 13.3752 5.56556 13.3252C5.68744 13.3064 5.80619 13.2846 5.92806 13.2533C6.29681 13.1752 6.66244 13.0627 7.01556 12.9189C7.17806 12.8502 7.33744 12.7814 7.49681 12.7002C7.77494 12.5627 8.04681 12.4033 8.31244 12.2221C8.32806 12.2127 8.34369 12.2033 8.35931 12.1908C8.43119 12.1408 8.49994 12.0939 8.56869 12.0533C8.73431 11.9408 8.89056 11.8471 9.05306 11.7689L9.16556 11.7127C9.71869 11.4377 10.6468 10.9783 11.9249 10.8127C12.4093 10.7471 12.8031 10.6221 13.1218 10.4502C13.2343 10.3939 13.3343 10.3252 13.4281 10.2564C13.5624 10.1596 13.6781 10.0502 13.7812 9.9377C13.9437 9.75957 14.0687 9.5627 14.1624 9.3627C14.2281 9.23145 14.2781 9.09707 14.3187 8.95957C14.3531 8.84395 14.3781 8.73457 14.3999 8.6252C14.4718 8.19082 14.4562 7.79082 14.4312 7.56895ZM13.6999 9.49395C13.5687 9.6877 13.3999 9.86582 13.1781 10.0189C12.9406 10.1846 12.6468 10.3189 12.2781 10.4127C12.1531 10.4439 12.0187 10.4658 11.8718 10.4877C10.5374 10.6596 9.57806 11.1346 9.00931 11.4221L8.89681 11.4752C8.83119 11.5064 8.77181 11.5346 8.71556 11.5689C8.71244 11.5689 8.70931 11.5721 8.70619 11.5752C8.53431 11.6689 8.36869 11.7783 8.18431 11.9033C8.17806 11.9096 8.16869 11.9127 8.15931 11.9189C7.36556 12.4658 6.51869 12.8221 5.64994 12.9783C5.63119 12.9846 5.60619 12.9908 5.58119 12.9908C4.60306 13.1596 3.59369 13.0752 2.58119 12.7377C2.04056 12.5596 1.59681 12.3533 1.25306 12.1189C0.524939 11.6283 0.231189 11.0221 0.371814 10.3096C0.465564 9.82207 0.593689 9.43145 0.759314 9.10957C0.974939 8.69707 1.21869 8.52207 1.68119 8.27832C1.92181 8.15332 2.13744 7.97207 2.34681 7.79395C2.41869 7.73457 2.48744 7.6752 2.55931 7.61895C2.76869 7.45332 2.96869 7.25957 3.16244 7.07832C3.47494 6.78145 3.79369 6.47207 4.14994 6.27832C4.33119 6.17832 4.52806 6.0877 4.73119 6.00645C5.05619 5.88145 5.41556 5.79395 5.85619 5.7252C6.13431 5.68457 6.42181 5.66895 6.69681 5.64707C7.08431 5.62207 7.48744 5.6002 7.88119 5.5127C8.25931 5.42832 8.56556 5.23457 8.85931 5.0502C9.13119 4.88145 9.38431 4.71895 9.67494 4.6502C9.99056 4.57832 10.2812 4.5377 10.5656 4.5252C10.6812 4.51895 10.7968 4.5127 10.9093 4.5002C11.1499 4.4877 11.3906 4.46895 11.6249 4.46895C12.1312 4.46895 12.6187 4.54395 12.9968 4.84707C13.2124 5.01895 13.2781 5.2252 13.3156 5.4627C13.3249 5.51895 13.3312 5.58457 13.3406 5.6502C13.3718 5.9252 13.4093 6.23457 13.6312 6.50332C13.7906 6.69707 13.8406 6.86895 13.8812 7.00332C13.8999 7.0752 13.9187 7.13457 13.9499 7.19082C14.0312 7.32832 14.0781 7.47207 14.0906 7.60645C14.1374 8.04082 14.1374 8.8127 13.7218 9.45332C13.7187 9.4627 13.7093 9.47832 13.6999 9.49395Z" fill="black"/>
<path d="M14.0937 7.60322C14.0812 7.46885 14.0343 7.3251 13.953 7.1876C13.9218 7.13447 13.9062 7.07197 13.8843 7.0001C13.8437 6.86572 13.7937 6.69385 13.6343 6.5001C13.4124 6.23447 13.3749 5.92197 13.3437 5.64697C13.3374 5.58135 13.3312 5.51885 13.3187 5.45947C13.0374 5.36572 12.7312 5.33447 12.4155 5.33447C12.178 5.33447 11.9374 5.3501 11.6999 5.36572C11.5843 5.3751 11.4687 5.38135 11.3562 5.39072C11.0718 5.40322 10.7812 5.44385 10.4655 5.51572C10.1749 5.58447 9.92179 5.74697 9.64992 5.91572C9.35617 6.10322 9.04992 6.29385 8.67179 6.37822C8.27804 6.46572 7.87804 6.49072 7.48742 6.5126C7.20929 6.53447 6.92179 6.5501 6.64679 6.59072C6.20304 6.65947 5.84679 6.74697 5.52179 6.87197C5.31867 6.95322 5.12179 7.04072 4.94054 7.14385C4.58429 7.34072 4.26554 7.64697 3.95304 7.94385C3.78742 8.1001 3.61867 8.2626 3.44367 8.40635C3.81554 8.24385 4.23429 8.03447 4.67804 7.77822C6.16242 6.91572 7.89367 6.38135 8.79992 6.50322C8.89367 6.51572 8.95929 6.6001 8.94679 6.69697C8.93429 6.7876 8.84992 6.85322 8.75617 6.8376C8.05304 6.74385 6.44679 7.14072 4.84679 8.06885C3.78117 8.6876 2.85304 9.04072 2.37804 9.19385C1.97492 9.4126 1.74992 9.59385 1.54992 9.9751C1.38429 10.297 1.25617 10.6876 1.16242 11.1751C1.09367 11.5126 1.12804 11.8282 1.25617 12.1157C1.59992 12.3501 2.04367 12.5563 2.58429 12.7345C3.59679 13.072 4.60617 13.1563 5.58429 12.9876C5.60929 12.9876 5.63117 12.9813 5.65304 12.9751C6.52179 12.8188 7.36867 12.4657 8.16242 11.9157C8.16867 11.9095 8.17804 11.9063 8.18742 11.9001C8.36867 11.7751 8.53429 11.6657 8.70929 11.572C8.71242 11.5688 8.71554 11.5657 8.71867 11.5657C8.77492 11.5313 8.83742 11.5001 8.89992 11.472L9.01242 11.4188C9.58429 11.1313 10.5405 10.6595 11.8749 10.4845C12.0218 10.4657 12.1562 10.4407 12.2812 10.4095C12.9874 10.2376 13.428 9.89072 13.6999 9.49385C14.1405 8.84385 14.1405 8.04385 14.0937 7.60322ZM11.7905 6.46885C11.8249 6.0751 12.0062 5.9626 12.1155 5.9251C12.2249 5.89072 12.4405 5.8751 12.6999 6.16885C12.8374 6.3251 12.9593 6.5376 13.0593 6.78135C13.0718 6.82197 13.0874 6.85947 13.0999 6.9001C13.1937 7.19072 13.2374 7.48447 13.2155 7.7251C13.1812 8.1126 12.9999 8.23135 12.8937 8.26885C12.8593 8.27822 12.8218 8.28447 12.7749 8.28447C12.7655 8.28447 12.7499 8.28447 12.7374 8.28135C12.6218 8.2751 12.4749 8.2126 12.3093 8.0251C12.1468 7.84697 12.0062 7.58447 11.9093 7.29385C11.8124 7.00322 11.7718 6.70947 11.7905 6.46885ZM2.26554 11.3251C2.23429 11.372 2.18117 11.397 2.13117 11.397C2.09679 11.397 2.05929 11.3876 2.03429 11.3657C1.95617 11.3126 1.94054 11.2063 1.99367 11.1282C2.02804 11.0813 2.87179 9.92197 5.24679 9.8626C5.26242 9.8626 5.71554 9.88135 6.20617 9.57822C6.28429 9.53135 6.38742 9.55322 6.44054 9.63135C6.48742 9.7126 6.46554 9.81885 6.38742 9.86572C5.80304 10.2313 5.26554 10.2001 5.24054 10.2001C3.06242 10.2563 2.27804 11.3157 2.26554 11.3251ZM7.57492 10.9907C7.54054 11.0251 7.49679 11.0407 7.45304 11.0407C7.40929 11.0407 7.36867 11.0282 7.33429 10.997C7.26554 10.9313 7.26242 10.8251 7.32804 10.7563C7.37492 10.7063 8.55304 9.47822 11.0937 9.24697C12.3749 9.13135 12.7468 8.68447 12.7499 8.68135C12.7874 8.6376 12.8437 8.6126 12.8999 8.62197C12.9312 8.62197 12.9593 8.63447 12.9874 8.65635C13.0437 8.7001 13.0655 8.77197 13.0437 8.83447C13.0405 8.85322 13.0312 8.87197 13.0155 8.8876C12.9999 8.9126 12.5718 9.45322 11.1218 9.58135C8.71867 9.80322 7.58429 10.9782 7.57492 10.9907Z" fill="#7E2900"/>
<path d="M13.3187 5.4625C13.0375 5.36875 12.7312 5.3375 12.4156 5.3375C12.1781 5.3375 11.9375 5.35313 11.7 5.36875C11.5843 5.37813 11.4687 5.38438 11.3562 5.39375C11.0718 5.40625 10.7812 5.44687 10.4656 5.51875C10.175 5.5875 9.92184 5.75 9.64996 5.91875C9.35621 6.10625 9.04996 6.29688 8.67184 6.38125C8.27809 6.46875 7.87809 6.49375 7.48746 6.51562C7.20934 6.5375 6.92184 6.55313 6.64684 6.59375C6.20309 6.6625 5.84684 6.75 5.52184 6.875C5.31871 6.95625 5.12184 7.04375 4.94059 7.14688C4.58434 7.34375 4.26559 7.65 3.95309 7.94688C3.78746 8.10313 3.61872 8.26562 3.44372 8.40937C2.57184 8.80625 1.96559 8.97187 1.95621 8.975C1.86559 9.00312 1.80934 9.09375 1.83746 9.18437C1.85621 9.25937 1.92496 9.30938 1.99996 9.30938C2.01246 9.30938 2.03121 9.30625 2.04371 9.30312C2.05934 9.3 2.17809 9.26562 2.37809 9.19688C1.97496 9.41563 1.74996 9.59688 1.54996 9.97813C1.38434 10.3 1.25621 10.6906 1.16246 11.1781C1.09371 11.5156 1.12809 11.8312 1.25621 12.1187C0.52809 11.6281 0.23434 11.0219 0.374965 10.3094C0.468715 9.82188 0.59684 9.43125 0.762465 9.10938C0.97809 8.69687 1.22184 8.52187 1.68434 8.27812C1.92496 8.15312 2.14059 7.97188 2.34996 7.79375C2.42184 7.73438 2.49059 7.675 2.56246 7.61875C2.77184 7.45312 2.97184 7.25937 3.16559 7.07812C3.47809 6.78125 3.79684 6.47187 4.15309 6.27813C4.33434 6.17813 4.53121 6.0875 4.73434 6.00625C5.05934 5.88125 5.41871 5.79375 5.85934 5.725C6.13746 5.68437 6.42496 5.66875 6.69996 5.64687C7.08746 5.62187 7.49059 5.6 7.88434 5.5125C8.26246 5.42812 8.56872 5.23437 8.86246 5.05C9.13434 4.88125 9.38746 4.71875 9.67809 4.65C9.99371 4.57812 10.2843 4.5375 10.5687 4.525C10.6843 4.51875 10.8 4.5125 10.9125 4.5C11.1531 4.4875 11.3937 4.46875 11.6281 4.46875C12.1343 4.46875 12.6218 4.54375 13 4.84688C13.2187 5.01875 13.2843 5.225 13.3187 5.4625Z" fill="#702103"/>
<path d="M13.1 6.89983C13.0031 6.60921 12.8593 6.34983 12.7 6.16858C12.4406 5.87483 12.2218 5.89046 12.1156 5.92483C12.0062 5.96233 11.825 6.07796 11.7906 6.46858C11.7718 6.70921 11.8125 7.00296 11.9093 7.29358C12.0031 7.58421 12.1468 7.84358 12.3093 8.02483C12.4906 8.23421 12.6562 8.28421 12.775 8.28421C12.8218 8.28421 12.8593 8.27796 12.8937 8.26858C13 8.23108 13.1812 8.11233 13.2156 7.72483C13.2375 7.48421 13.1937 7.19046 13.1 6.89983ZM12.8812 7.69358C12.8687 7.85921 12.8156 7.93733 12.7875 7.94671C12.7562 7.95608 12.6718 7.92796 12.5593 7.79671C12.4312 7.65608 12.3125 7.43108 12.2312 7.18421C12.15 6.94046 12.1125 6.69046 12.1312 6.49671C12.1437 6.32796 12.1968 6.25296 12.2218 6.24358H12.2343C12.2718 6.24358 12.35 6.28108 12.4468 6.39046C12.575 6.53733 12.6968 6.75921 12.7781 7.00608C12.8593 7.24983 12.8968 7.49983 12.8812 7.69358Z" fill="black"/>
<path d="M12.8812 7.69365C12.8687 7.85928 12.8156 7.9374 12.7875 7.94678C12.7562 7.95615 12.6718 7.92803 12.5593 7.79678C12.4312 7.65615 12.3125 7.43115 12.2312 7.18428C12.15 6.94053 12.1125 6.69053 12.1312 6.49678C12.1437 6.32803 12.1968 6.25303 12.2218 6.24365H12.2343C12.2718 6.24365 12.35 6.28115 12.4468 6.39053C12.575 6.5374 12.6968 6.75928 12.7781 7.00615C12.8593 7.2499 12.8968 7.4999 12.8812 7.69365Z" fill="#BF6D0C"/>
<path d="M8.94381 6.69684C8.93131 6.78746 8.84693 6.85309 8.75318 6.83746C8.05006 6.74371 6.44381 7.14059 4.84381 8.06871C3.77818 8.68746 2.85006 9.04059 2.37506 9.19371C2.17506 9.26246 2.05631 9.29371 2.04068 9.29996C2.02818 9.30309 2.00943 9.30621 1.99693 9.30621C1.92193 9.30621 1.85631 9.25621 1.83443 9.18121C1.80631 9.09059 1.86256 8.99996 1.95318 8.97184C1.96256 8.96871 2.56881 8.80309 3.44068 8.40621C3.81256 8.24371 4.23131 8.03434 4.67506 7.77809C6.15943 6.91559 7.89068 6.38121 8.79693 6.50309C8.89381 6.51559 8.95943 6.59996 8.94381 6.69684ZM13.0188 8.89059C13.0032 8.91559 12.5751 9.45621 11.1251 9.58434C8.7188 9.80309 7.58443 10.9781 7.57506 10.9906C7.54068 11.025 7.49693 11.0406 7.45318 11.0406C7.40943 11.0406 7.3688 11.0281 7.33443 10.9968C7.26568 10.9312 7.26256 10.825 7.32818 10.7562C7.37506 10.7062 8.55318 9.47809 11.0938 9.24684C12.3751 9.13121 12.7469 8.68434 12.7501 8.68121C12.8063 8.60934 12.9157 8.59684 12.9876 8.65309C13.0626 8.71559 13.0782 8.81871 13.0188 8.89059ZM6.38443 9.86871C5.80006 10.2343 5.26256 10.2031 5.23756 10.2031C3.05943 10.2562 2.27506 11.3156 2.26568 11.325C2.23443 11.3718 2.18131 11.3968 2.13131 11.3968C2.09693 11.3968 2.05943 11.3875 2.03443 11.3656C1.95631 11.3125 1.94068 11.2062 1.99381 11.1281C2.02818 11.0812 2.87193 9.92184 5.24693 9.86246C5.26256 9.86246 5.71568 9.88121 6.20631 9.57809C6.28443 9.53121 6.38756 9.55309 6.44068 9.63121C6.48756 9.71559 6.46256 9.82184 6.38443 9.86871ZM19.9813 12.7937C19.8657 13.4062 19.3469 15.2625 17.2626 15.2531C17.0688 15.2531 16.8657 15.2406 16.6501 15.2031C15.3688 15 14.3469 15.1843 13.7376 15.2906L13.6251 15.3125C13.6157 15.3125 13.6032 15.3125 13.5907 15.3156C13.3469 15.3562 13.1126 15.4281 12.8407 15.5187C12.3282 15.6875 11.8063 15.7968 11.2907 15.8406C11.0876 15.8593 10.8876 15.8718 10.6876 15.8718C9.36881 15.8718 8.09068 15.4687 6.96256 14.6843C6.43131 14.3156 6.01256 13.9375 5.72193 13.5593C5.66256 13.4843 5.60631 13.4062 5.55943 13.3312C5.54068 13.2968 5.51881 13.2656 5.50006 13.2343C5.45318 13.1531 5.48131 13.0468 5.55631 13C5.56256 12.9937 5.57193 12.9906 5.58443 12.9906C5.60943 12.9906 5.63131 12.9843 5.65318 12.9781C5.70943 12.9812 5.76568 13.0125 5.79068 13.0625C5.82818 13.1312 5.87193 13.1937 5.92193 13.2625C5.96256 13.3187 6.00631 13.3812 6.0563 13.4375C6.31881 13.7625 6.68755 14.0875 7.1563 14.4093C8.83131 15.5718 10.7594 15.8468 12.7344 15.2C13.0344 15.1 13.2938 15.025 13.5688 14.9781L13.6813 14.9593C14.3094 14.8468 15.3657 14.6593 16.7032 14.8718C17.1907 14.95 17.6001 14.925 17.9407 14.8375C19.1657 14.5156 19.5376 13.3281 19.6469 12.7375C19.6719 12.6062 19.6626 12.4562 19.6282 12.2968C19.6126 12.2375 19.6157 12.1718 19.6157 12.0968C19.6157 11.9562 19.6157 11.7781 19.5188 11.5468C19.3844 11.2343 19.4219 10.9187 19.4532 10.6062C19.4907 10.2656 19.5282 9.94059 19.3251 9.64996C18.9657 9.13121 18.3532 9.02184 17.7094 8.89996C17.5157 8.86559 17.3251 8.82809 17.1344 8.78434C16.8532 8.71559 16.5626 8.67496 16.2438 8.65621C15.9469 8.63746 15.6594 8.72184 15.3532 8.80934C15.0251 8.89996 14.6844 8.99684 14.3094 8.97496H14.2782C14.2407 8.97184 14.2001 8.96871 14.1626 8.96559C14.0719 8.95309 14.0063 8.86871 14.0219 8.77184C14.0344 8.68121 14.1188 8.61559 14.2126 8.63121C14.2438 8.63434 14.2719 8.63746 14.3032 8.63746C14.3344 8.64059 14.3594 8.64059 14.3907 8.64059C14.6876 8.64684 14.9688 8.56559 15.2594 8.48121C15.5813 8.39371 15.9126 8.29996 16.2626 8.31871C16.5969 8.33746 16.9157 8.38746 17.2094 8.45621C17.3969 8.49996 17.5813 8.53434 17.7688 8.56871C18.4563 8.69684 19.1626 8.82496 19.6001 9.45934C19.8782 9.85621 19.8313 10.2781 19.7876 10.65C19.7563 10.9281 19.7282 11.1875 19.8282 11.4187C19.9532 11.7125 19.9532 11.95 19.9532 12.1062C19.9532 12.1531 19.9532 12.2031 19.9563 12.225C20.0063 12.4187 20.0126 12.6125 19.9813 12.7937Z" fill="black"/>
<path d="M18.7157 10.9627C18.6751 10.8752 18.6313 10.8065 18.5876 10.7565C18.4501 10.5877 18.3032 10.5596 18.2219 10.5627C18.1094 10.5658 17.9001 10.6283 17.7594 10.9908C17.7282 11.0658 17.7063 11.1471 17.6876 11.2346C17.6469 11.4096 17.6313 11.6096 17.6376 11.8158C17.6501 12.219 17.7594 12.6221 17.9501 12.844C18.0438 12.9596 18.1594 13.0252 18.2938 13.0252H18.3063C18.4876 13.019 18.6282 12.8908 18.7251 12.6971C18.8376 12.4783 18.8907 12.169 18.8907 11.8596V11.7752C18.8813 11.4721 18.8188 11.1783 18.7157 10.9627ZM18.5532 11.8596C18.5532 12.3971 18.3751 12.6877 18.2938 12.6908C18.2094 12.6908 17.9969 12.3877 17.9751 11.8096C17.9688 11.5502 18.0032 11.3002 18.0719 11.119C18.1313 10.9627 18.2001 10.9065 18.2344 10.9033C18.2657 10.9033 18.3407 10.9565 18.4063 11.1096C18.4594 11.2221 18.5001 11.3627 18.5282 11.519V11.5315C18.5407 11.6158 18.5469 11.7002 18.5532 11.7877V11.8596Z" fill="black"/>
<path d="M14.9625 10.4061C14.9343 10.4717 14.875 10.5061 14.8093 10.5061C14.7843 10.5061 14.7625 10.4998 14.7375 10.4904C14.4468 10.3623 13.9781 10.2811 13.4187 10.2654C13.4031 10.2623 13.3812 10.2623 13.3656 10.2623C13.2718 10.2623 13.2 10.1842 13.2 10.0904C13.2031 9.99668 13.275 9.92793 13.3718 9.9248C13.5093 9.92793 13.6437 9.93418 13.7718 9.9498C14.2281 9.98418 14.6031 10.0654 14.8781 10.1873C14.9625 10.2186 15.0031 10.3217 14.9625 10.4061Z" fill="black"/>
<path d="M18.2532 13.6655C18.2282 13.6812 17.6688 14.0812 16.2407 13.7968C13.8657 13.3249 12.4501 14.1312 12.4376 14.1374C12.4095 14.153 12.3813 14.1624 12.3532 14.1624C12.2938 14.1624 12.2376 14.1312 12.2032 14.078C12.1563 13.9968 12.1845 13.8968 12.2626 13.8468C12.322 13.8093 13.797 12.9655 16.3032 13.4655C17.5657 13.7155 18.047 13.3937 18.0501 13.3905C18.1282 13.3405 18.2313 13.3562 18.2876 13.4312C18.3407 13.5062 18.3282 13.6093 18.2532 13.6655Z" fill="black"/>
<path d="M18.7375 12.7781C18.7312 12.7531 18.7281 12.7281 18.7281 12.7C18.6312 12.8937 18.4906 13.0219 18.3094 13.0281H18.2969C18.1625 13.0281 18.0469 12.9594 17.9531 12.8469C17.7625 12.625 17.6562 12.2219 17.6406 11.8187C17.6344 11.6125 17.65 11.4125 17.6906 11.2375C17.7063 11.15 17.7312 11.0687 17.7625 10.9937C17.9031 10.6281 18.1156 10.5687 18.225 10.5656C18.3062 10.5625 18.45 10.5906 18.5906 10.7594C18.6 10.5406 18.5688 10.3312 18.4344 10.1344C18.075 9.61561 17.4625 9.50623 16.8187 9.38436C16.625 9.34998 16.4344 9.31248 16.2437 9.26873C15.9625 9.19998 15.6719 9.15936 15.3531 9.14061C15.0563 9.11873 14.7687 9.20623 14.4625 9.29373C14.3625 9.32186 14.2594 9.34686 14.1562 9.37498C14.0625 9.57498 13.9375 9.77186 13.775 9.94998C14.2313 9.98436 14.6062 10.0656 14.8812 10.1875C14.9656 10.225 15.0062 10.325 14.9656 10.4094C14.9375 10.475 14.8781 10.5094 14.8125 10.5094C14.7875 10.5094 14.7656 10.5031 14.7406 10.4937C14.45 10.3656 13.9812 10.2844 13.4219 10.2687C13.3281 10.3375 13.225 10.4031 13.1156 10.4625C12.7969 10.6344 12.4031 10.7594 11.9187 10.825C10.6406 10.9906 9.71562 11.45 9.15937 11.725L9.04688 11.7812C8.88438 11.8594 8.72812 11.9531 8.5625 12.0656C8.49375 12.1062 8.425 12.1531 8.35312 12.2031C8.3375 12.2125 8.32187 12.2219 8.30625 12.2344C8.85625 12.1531 9.59375 12.1594 10.5219 12.4062C10.5375 12.4125 10.9687 12.5594 11.5219 12.4062C11.6094 12.3812 11.7031 12.4344 11.7281 12.525C11.7562 12.6156 11.7 12.7062 11.6094 12.7344C10.9469 12.9156 10.4406 12.7375 10.4187 12.7281C9.26562 12.4219 8.42813 12.5219 7.90313 12.6781C7.47188 12.8031 7.25312 12.9656 7.25 12.9687C7.21875 12.9937 7.18125 13.0062 7.14375 13.0062C7.09375 13.0062 7.04687 12.9812 7.0125 12.9406C7.00937 12.9375 7.00937 12.9344 7.00937 12.9312C6.65312 13.0781 6.29062 13.1875 5.92188 13.2656C5.9625 13.3219 6.00625 13.3844 6.05625 13.4406C6.31875 13.7656 6.6875 14.0906 7.15625 14.4125C8.83125 15.575 10.7594 15.85 12.7344 15.2031C13.0344 15.1031 13.2937 15.0281 13.5687 14.9812L13.6812 14.9625C14.3094 14.85 15.3656 14.6625 16.7031 14.875C17.1906 14.9531 17.6 14.9281 17.9406 14.8406C18.475 14.3437 18.6781 13.6406 18.7563 13.2281C18.7812 13.0875 18.775 12.9375 18.7375 12.7781ZM18.2531 13.6656C18.2375 13.6781 17.9781 13.8625 17.375 13.8906C17.3 13.8969 17.2188 13.8969 17.1344 13.8937C17.1313 13.8937 17.1312 13.8937 17.1312 13.8937C16.8812 13.8937 16.5875 13.8625 16.2406 13.7969C14.9719 13.5437 13.9781 13.6594 13.325 13.8156C13.3219 13.8125 13.3187 13.8125 13.3156 13.8156C12.75 13.9562 12.4437 14.1344 12.4375 14.1375C12.4094 14.1531 12.3812 14.1625 12.3531 14.1625C12.2937 14.1625 12.2375 14.1312 12.2031 14.0781C12.1906 14.0562 12.1844 14.0344 12.1844 14.0125C12.175 13.9469 12.2031 13.8844 12.2656 13.8469C12.325 13.8094 13.8 12.9656 16.3062 13.4656C17.5687 13.7156 18.05 13.3937 18.0531 13.3906C18.1313 13.3406 18.2344 13.3562 18.2906 13.4312C18.3406 13.5062 18.3281 13.6094 18.2531 13.6656Z" fill="#6E2019"/>
<path d="M19.65 12.7313C19.5375 13.322 19.1657 14.5095 17.9438 14.8313C18.4782 14.3345 18.6813 13.6313 18.7594 13.2188C18.7844 13.0876 18.775 12.9376 18.7407 12.7782C18.7344 12.7532 18.7313 12.7282 18.7313 12.7001C18.8438 12.4813 18.8969 12.172 18.8969 11.8626V11.7782C18.8875 11.472 18.8219 11.1782 18.7219 10.9626C18.6813 10.8751 18.6375 10.8063 18.5938 10.7563C18.6032 10.5376 18.5719 10.3282 18.4375 10.1313C18.0782 9.6126 17.4657 9.50322 16.8219 9.38135C16.6282 9.34697 16.4375 9.30947 16.2469 9.26572C15.9657 9.19697 15.675 9.15635 15.3563 9.1376C15.0594 9.11572 14.7719 9.20322 14.4657 9.29072C14.3657 9.31885 14.2625 9.34385 14.1594 9.37197C14.225 9.24072 14.275 9.10635 14.3157 8.96885C14.6907 8.9876 15.0313 8.89385 15.3594 8.80322C15.6625 8.71572 15.95 8.63135 16.25 8.6501C16.5688 8.66885 16.8594 8.70947 17.1407 8.77822C17.3313 8.82197 17.5219 8.85947 17.7157 8.89385C18.3625 9.01572 18.975 9.12822 19.3313 9.64385C19.5344 9.93447 19.4969 10.2595 19.4594 10.6001C19.425 10.9126 19.3875 11.2282 19.525 11.5407C19.6219 11.7751 19.6219 11.9501 19.6219 12.0907C19.6219 12.1657 19.6188 12.2282 19.6344 12.2907C19.6657 12.4501 19.675 12.6001 19.65 12.7313Z" fill="#601915"/>
<path d="M18.5532 11.7877V11.8596C18.5532 12.3971 18.3751 12.6877 18.2938 12.6908C18.2095 12.6908 17.997 12.3877 17.9751 11.8096C17.9688 11.5502 18.0032 11.3002 18.072 11.1189C18.1313 10.9627 18.2001 10.9064 18.2345 10.9033C18.2657 10.9033 18.3407 10.9564 18.4063 11.1096C18.4938 11.2814 18.5438 11.5314 18.5532 11.7877Z" fill="#BF6D0C"/>
<path d="M11.6095 12.7282C10.947 12.9095 10.4407 12.7314 10.4189 12.722C8.31574 12.1595 7.25949 12.9564 7.25011 12.9626C7.21886 12.9876 7.18136 13.0001 7.14386 13.0001C7.09386 13.0001 7.04699 12.9751 7.01261 12.9345C7.00949 12.9314 7.00949 12.9282 7.00949 12.9251C6.95636 12.8501 6.96886 12.7532 7.04074 12.697C7.06886 12.6782 7.48761 12.3532 8.30636 12.2282C8.85636 12.147 9.59386 12.1532 10.522 12.4001C10.5376 12.4064 10.9689 12.5532 11.522 12.4001C11.6095 12.3751 11.7032 12.4282 11.7282 12.5189C11.7532 12.6095 11.7001 12.7001 11.6095 12.7282Z" fill="black"/>
</g>
<defs>
<clipPath id="clip0_510_3974">
<rect width="20" height="20" fill="white"/>
</clipPath>
</defs>
</svg>
