<svg width="20" height="20" viewBox="0 0 20 20" fill="none" xmlns="http://www.w3.org/2000/svg">
<path d="M9.91082 0.704601C14.8608 0.693663 17.9843 8.74523 16.7514 13.8484C15.6608 18.3671 12.528 19.303 10.0202 19.303C7.51238 19.303 4.46707 18.0874 3.28895 14.0234C1.92645 9.3171 5.29207 0.715538 9.91082 0.704601Z" fill="#F2A05B"/>
<path d="M6.1343 4.53575C5.54055 5.48419 4.94212 6.67794 4.81399 7.67325C4.57962 9.50607 5.92805 9.71232 6.39837 8.80294C6.86868 7.89357 7.34993 6.97325 8.11399 5.75294C9.17024 4.067 10.8999 2.93732 10.0499 2.2045C9.19993 1.47169 7.38118 2.542 6.1343 4.53575Z" fill="#FECC88"/>
<path d="M14.2812 7.13105C14.4555 7.13105 14.5968 6.98695 14.5968 6.80918C14.5968 6.63141 14.4555 6.4873 14.2812 6.4873C14.1069 6.4873 13.9656 6.63141 13.9656 6.80918C13.9656 6.98695 14.1069 7.13105 14.2812 7.13105Z" fill="#D47858"/>
<path d="M14.6362 14.826C14.7081 14.6512 14.6253 14.4515 14.4513 14.3799C14.2773 14.3084 14.078 14.3921 14.0061 14.5668C13.9343 14.7416 14.017 14.9413 14.191 15.0129C14.365 15.0844 14.5643 15.0008 14.6362 14.826Z" fill="#D47858"/>
<path d="M5.43666 16.1958C5.50362 16.033 5.42593 15.8467 5.26312 15.7797C5.10031 15.7128 4.91404 15.7905 4.84708 15.9533C4.78012 16.1161 4.85781 16.3023 5.02062 16.3693C5.18343 16.4363 5.36969 16.3586 5.43666 16.1958Z" fill="#D47858"/>
<path d="M15.452 10.1505C15.6873 10.0286 15.791 9.76211 15.6838 9.55524C15.5766 9.34837 15.2991 9.27948 15.0638 9.40137C14.8286 9.52326 14.7248 9.78977 14.832 9.99664C14.9392 10.2035 15.2168 10.2724 15.452 10.1505Z" fill="#D47858"/>
<path d="M10.9005 14.3444C11.1357 14.2225 11.2395 13.956 11.1323 13.7491C11.0251 13.5422 10.7475 13.4733 10.5123 13.5952C10.2771 13.7171 10.1733 13.9836 10.2805 14.1905C10.3877 14.3974 10.6653 14.4662 10.9005 14.3444Z" fill="#D47858"/>
<path d="M10.4536 16.5636C10.6274 16.3457 10.6206 16.0513 10.4384 15.906C10.2563 15.7607 9.96771 15.8196 9.79392 16.0376C9.62013 16.2555 9.62692 16.5499 9.80908 16.6952C9.99124 16.8404 10.2798 16.7815 10.4536 16.5636Z" fill="#D47858"/>
<path d="M8.58987 17.0803C8.79515 16.8494 8.78069 16.5014 8.55757 16.303C8.33444 16.1046 7.98715 16.1309 7.78186 16.3618C7.57657 16.5926 7.59103 16.9406 7.81416 17.139C8.03728 17.3374 8.38458 17.3111 8.58987 17.0803Z" fill="#D47858"/>
</svg>
