<svg width="16" height="19" viewBox="0 0 16 19" fill="none" xmlns="http://www.w3.org/2000/svg">
<g clip-path="url(#clip0_510_4834)">
<path d="M7.51254 7.9752C5.64254 8.2602 2.86629 7.68769 1.00379 10.1089C-0.35996 11.8802 -0.243709 14.7552 1.19129 16.3614C2.25754 17.5552 4.00754 18.3564 6.29754 18.1364C12.3938 17.5502 14.3188 9.79395 14.3188 9.79395L15.2988 6.5477L11.8713 4.2627C11.8713 4.2627 9.75129 7.6352 7.51254 7.9752Z" fill="#D7598B"/>
<path d="M15.9488 10.0699C15.9375 10.0186 15.9013 9.96611 15.8675 9.91486C15.855 9.89611 15.8425 9.87861 15.8338 9.86361C15.5025 9.27611 15.62 8.65861 15.745 8.00486C15.8675 7.36361 15.9938 6.70111 15.67 6.05861C15.63 5.97986 15.5775 5.89986 15.5263 5.82361C15.4138 5.65361 15.2963 5.47861 15.3088 5.30236C15.315 5.20611 15.3725 5.11361 15.4338 5.01611C15.5188 4.88236 15.6138 4.72986 15.575 4.54111C15.5088 4.22861 15.1088 4.02861 14.8438 3.89611L14.8038 3.87486C14.79 3.86861 14.78 3.86236 14.7713 3.85736C14.7488 3.84486 14.7225 3.82861 14.6838 3.82861C14.655 3.82861 14.6288 3.83611 14.5813 3.85111C14.5675 3.85486 14.5563 3.85736 14.5463 3.85986C14.5025 3.86986 14.4725 3.87986 14.42 3.92236C14.245 4.06861 14.085 4.13736 13.9025 4.14486C13.8475 4.14736 13.7913 4.14736 13.735 4.14736C13.5513 4.14736 13.3638 4.13736 13.1813 4.12611C12.9988 4.11611 12.8088 4.10486 12.6225 4.10486C12.25 4.10486 11.95 4.14986 11.68 4.24736C11.57 4.28611 11.46 4.32986 11.3488 4.37236C11.0588 4.48486 10.7588 4.60111 10.4588 4.66486C10.3338 4.69111 10.215 4.70361 10.0938 4.70361C9.85629 4.70361 9.64129 4.65361 9.39254 4.59611C9.33254 4.58111 9.27254 4.56736 9.20879 4.55361C9.17629 4.54611 9.14504 4.54361 9.11629 4.54361C8.99379 4.54361 8.92754 4.60611 8.89379 4.65736C8.80629 4.79236 8.83879 5.01986 8.90754 5.17361C9.07004 5.54361 9.42879 5.84486 10.0038 6.09236C10.3688 6.24986 10.7388 6.32986 11.1038 6.32986C11.2788 6.32986 11.4525 6.31111 11.6213 6.27361C11.6638 6.26486 11.705 6.25736 11.7463 6.24986C11.795 6.24111 11.8413 6.23236 11.8913 6.22111L11.9238 6.21361C11.9713 6.20236 12.0438 6.18361 12.0975 6.18361C12.1275 6.18361 12.1375 6.18986 12.1375 6.18986C12.1575 6.20111 12.165 6.21236 12.1275 6.31361C12.1113 6.35486 12.0888 6.38861 12.0613 6.42611C12.0425 6.45361 12.0238 6.48236 12.0063 6.51236C11.9675 6.58111 11.9438 6.65486 11.92 6.72486C11.91 6.75611 11.9 6.78611 11.8888 6.81486C11.725 7.25486 11.79 7.64361 11.8863 7.99861C11.9288 8.15736 11.9925 8.30736 12.0675 8.42111C12.0813 8.44361 12.0963 8.46611 12.11 8.48861C12.1725 8.59111 12.2438 8.70611 12.345 8.77861C12.43 8.84111 12.5125 8.87111 12.5963 8.87111C12.765 8.87111 12.9 8.74236 13.0088 8.63861C13.1788 8.47611 13.32 8.26611 13.4563 8.06236L13.5175 7.96986C13.5875 7.86611 13.7263 7.66111 13.85 7.57986C13.9288 8.02236 14.2513 9.21111 14.2563 9.22361C14.5525 9.89736 15.0438 10.2686 15.6425 10.2686C15.665 10.2686 15.68 10.2686 15.6963 10.2699C15.7163 10.2711 15.7375 10.2724 15.7575 10.2724C15.8063 10.2724 15.875 10.2661 15.9175 10.2124C15.9525 10.1799 15.9625 10.1299 15.9488 10.0699ZM9.10504 4.63486C9.11004 4.63361 9.11504 4.63111 9.12004 4.63111C9.14254 4.63111 9.16754 4.63361 9.19379 4.63986C9.16004 4.63236 9.13129 4.63236 9.10504 4.63486ZM11.1075 6.24611C11.0113 6.24611 10.915 6.23986 10.8188 6.22736C10.9363 6.24236 11.055 6.24486 11.1738 6.24236C11.1513 6.24236 11.13 6.24611 11.1075 6.24611ZM12.6 8.79111C12.595 8.79111 12.59 8.78861 12.585 8.78861C12.595 8.78861 12.6025 8.78986 12.6113 8.78861C12.6075 8.78861 12.6038 8.79111 12.6 8.79111ZM12.58 4.19236C12.595 4.19111 12.6113 4.19111 12.6263 4.19111C12.6425 4.19111 12.66 4.19236 12.6763 4.19236H12.58ZM14.685 3.91361C14.6863 3.91361 14.6875 3.91486 14.69 3.91486C14.6838 3.91486 14.6775 3.91486 14.67 3.91611C14.675 3.91486 14.6813 3.91361 14.685 3.91361ZM15.6475 10.1874C15.6075 10.1874 15.57 10.1799 15.5313 10.1774C15.5725 10.1811 15.6125 10.1874 15.655 10.1874H15.6475ZM15.7625 10.1911C15.7538 10.1911 15.7463 10.1911 15.7375 10.1899C15.7588 10.1911 15.7775 10.1911 15.7963 10.1886C15.785 10.1899 15.775 10.1911 15.7625 10.1911Z" fill="#BDCF46"/>
<path d="M4.48499 9.63978C3.65499 9.76353 2.57624 10.1135 2.05374 11.071C0.931242 13.1285 2.34874 14.006 3.25499 12.7248C4.70124 10.681 6.91374 10.2785 6.30874 9.81103C6.05749 9.61603 5.10999 9.54728 4.48499 9.63978Z" fill="white"/>
</g>
<g clip-path="url(#clip1_510_4834)">
<path d="M5.90647 6.125C5.8725 6.12503 5.839 6.11714 5.80862 6.10195C5.77824 6.08676 5.75182 6.06469 5.73147 6.0375L5.55319 5.79994C5.38427 5.57475 5.26562 5.31596 5.20524 5.04101C5.14487 4.76606 5.14416 4.48137 5.20319 4.20613L5.52541 2.702C5.57133 2.48791 5.57079 2.26647 5.52381 2.05261C5.47682 1.83875 5.3845 1.63747 5.25306 1.46234L5.075 1.225C5.05776 1.20202 5.04522 1.17587 5.03809 1.14804C5.03096 1.12021 5.02939 1.09125 5.03345 1.06282C5.03751 1.03438 5.04714 1.00702 5.06177 0.982299C5.07641 0.957581 5.09577 0.935987 5.11875 0.918751C5.14173 0.901515 5.16788 0.888974 5.19571 0.881845C5.22354 0.874715 5.2525 0.873137 5.28094 0.877199C5.30937 0.881262 5.33673 0.890886 5.36145 0.905522C5.38617 0.920158 5.40776 0.93952 5.425 0.962501L5.60328 1.20006C5.77217 1.42522 5.8908 1.68398 5.95118 1.95889C6.01155 2.23379 6.01227 2.51845 5.95328 2.79366L5.63084 4.29778C5.58492 4.51187 5.58546 4.73332 5.63244 4.94717C5.67943 5.16103 5.77175 5.36232 5.90319 5.53744L6.08125 5.775C6.10561 5.80749 6.12045 5.84611 6.12411 5.88655C6.12777 5.92699 6.1201 5.96765 6.10195 6.00398C6.08381 6.04031 6.05592 6.07087 6.02139 6.09224C5.98687 6.11362 5.94707 6.12496 5.90647 6.125ZM4.81272 6.125C4.77875 6.12503 4.74525 6.11714 4.71487 6.10195C4.68449 6.08676 4.65807 6.06469 4.63772 6.0375L4.45944 5.79994C4.29052 5.57475 4.17187 5.31596 4.11149 5.04101C4.05112 4.76606 4.05041 4.48137 4.10944 4.20613L4.43166 2.702C4.47758 2.48791 4.47704 2.26647 4.43006 2.05261C4.38307 1.83875 4.29075 1.63747 4.15931 1.46234L3.98125 1.225C3.96401 1.20202 3.95147 1.17587 3.94434 1.14804C3.93721 1.12021 3.93564 1.09125 3.9397 1.06282C3.94376 1.03438 3.95339 1.00702 3.96802 0.982299C3.98266 0.957581 4.00202 0.935987 4.025 0.918751C4.04798 0.901515 4.07413 0.888974 4.10196 0.881845C4.12979 0.874715 4.15875 0.873137 4.18719 0.877199C4.21562 0.881262 4.24298 0.890886 4.2677 0.905522C4.29242 0.920158 4.31401 0.93952 4.33125 0.962501L4.50953 1.20006C4.67842 1.42522 4.79705 1.68398 4.85743 1.95889C4.9178 2.23379 4.91852 2.51845 4.85953 2.79366L4.53709 4.29778C4.49117 4.51187 4.49171 4.73332 4.53869 4.94717C4.58568 5.16103 4.678 5.36232 4.80944 5.53744L4.9875 5.775C5.01186 5.80749 5.0267 5.84611 5.03036 5.88655C5.03402 5.92699 5.02635 5.96765 5.0082 6.00398C4.99006 6.04031 4.96217 6.07087 4.92764 6.09224C4.89312 6.11362 4.85332 6.12496 4.81272 6.125ZM3.71897 6.125C3.685 6.12503 3.6515 6.11714 3.62112 6.10195C3.59074 6.08676 3.56432 6.06469 3.54397 6.0375L3.36569 5.79994C3.19677 5.57475 3.07812 5.31596 3.01774 5.04101C2.95737 4.76606 2.95666 4.48137 3.01569 4.20613L3.33791 2.702C3.38383 2.48791 3.38329 2.26647 3.33631 2.05261C3.28932 1.83875 3.197 1.63747 3.06556 1.46234L2.8875 1.225C2.87026 1.20202 2.85772 1.17587 2.85059 1.14804C2.84346 1.12021 2.84189 1.09125 2.84595 1.06282C2.85001 1.03438 2.85964 1.00702 2.87427 0.982299C2.88891 0.957581 2.90827 0.935987 2.93125 0.918751C2.95423 0.901515 2.98038 0.888974 3.00821 0.881845C3.03604 0.874715 3.065 0.873137 3.09344 0.877199C3.12187 0.881262 3.14923 0.890886 3.17395 0.905522C3.19867 0.920158 3.22026 0.93952 3.2375 0.962501L3.41556 1.20006C3.58449 1.4252 3.70316 1.68396 3.76357 1.95886C3.82399 2.23377 3.82474 2.51844 3.76578 2.79366L3.44334 4.29778C3.39742 4.51187 3.39796 4.73332 3.44494 4.94717C3.49193 5.16103 3.58425 5.36232 3.71569 5.53744L3.89375 5.775C3.91811 5.80749 3.93295 5.84611 3.93661 5.88655C3.94027 5.92699 3.9326 5.96765 3.91445 6.00398C3.89631 6.04031 3.86842 6.07087 3.83389 6.09224C3.79937 6.11362 3.75957 6.12496 3.71897 6.125ZM2.62522 6.125C2.59125 6.12503 2.55775 6.11714 2.52737 6.10195C2.49699 6.08676 2.47057 6.06469 2.45022 6.0375L2.27194 5.79994C2.10302 5.57475 1.98437 5.31596 1.92399 5.04101C1.86362 4.76606 1.86291 4.48137 1.92194 4.20613L2.24416 2.702C2.29005 2.48795 2.28949 2.26654 2.24251 2.05272C2.19553 1.83891 2.10322 1.63766 1.97181 1.46256L1.79375 1.225C1.77651 1.20202 1.76397 1.17587 1.75684 1.14804C1.74971 1.12021 1.74814 1.09125 1.7522 1.06282C1.75626 1.03438 1.76589 1.00702 1.78052 0.982299C1.79516 0.957581 1.81452 0.935987 1.8375 0.918751C1.86048 0.901515 1.88663 0.888974 1.91446 0.881845C1.94229 0.874715 1.97125 0.873137 1.99969 0.877199C2.02812 0.881262 2.05548 0.890886 2.0802 0.905522C2.10492 0.920158 2.12651 0.93952 2.14375 0.962501L2.32203 1.20006C2.49092 1.42522 2.60955 1.68398 2.66993 1.95889C2.7303 2.23379 2.73102 2.51845 2.67203 2.79366L2.34959 4.29778C2.30367 4.51187 2.30421 4.73332 2.35119 4.94717C2.39818 5.16103 2.4905 5.36232 2.62194 5.53744L2.8 5.775C2.82436 5.80749 2.8392 5.84611 2.84286 5.88655C2.84652 5.92699 2.83885 5.96765 2.8207 6.00398C2.80256 6.04031 2.77467 6.07087 2.74014 6.09224C2.70562 6.11362 2.66582 6.12496 2.62522 6.125ZM1.53147 6.125C1.49747 6.12507 1.46392 6.11719 1.4335 6.102C1.40308 6.08681 1.37662 6.06472 1.35625 6.0375L1.17819 5.79994C1.00927 5.57475 0.890622 5.31596 0.830244 5.04101C0.769866 4.76606 0.769165 4.48137 0.828188 4.20613L1.15041 2.702C1.1963 2.48795 1.19574 2.26654 1.14876 2.05272C1.10178 1.83891 1.00947 1.63766 0.878062 1.46256L0.7 1.225C0.682764 1.20202 0.670223 1.17587 0.663094 1.14804C0.655964 1.12021 0.654386 1.09125 0.658449 1.06282C0.666653 1.00538 0.697337 0.953561 0.74375 0.918751C0.790163 0.883941 0.848503 0.868995 0.905936 0.877199C0.963369 0.885404 1.01519 0.916088 1.05 0.962501L1.22828 1.20006C1.39717 1.42522 1.5158 1.68398 1.57618 1.95889C1.63655 2.23379 1.63727 2.51845 1.57828 2.79366L1.25584 4.29778C1.20992 4.51187 1.21046 4.73332 1.25744 4.94717C1.30443 5.16103 1.39675 5.36232 1.52819 5.53744L1.70625 5.775C1.73061 5.80749 1.74545 5.84611 1.74911 5.88655C1.75277 5.92699 1.7451 5.96765 1.72695 6.00398C1.70881 6.04031 1.68092 6.07087 1.64639 6.09224C1.61187 6.11362 1.57207 6.12496 1.53147 6.125Z" fill="#545454"/>
</g>
<defs>
<clipPath id="clip0_510_4834">
<rect width="16" height="16" fill="white" transform="translate(0 3)"/>
</clipPath>
<clipPath id="clip1_510_4834">
<rect width="7" height="7" fill="white"/>
</clipPath>
</defs>
</svg>
