<svg width="15" height="15" viewBox="0 0 15 15" fill="none" xmlns="http://www.w3.org/2000/svg">
<path d="M6.82748 0.00187498C6.6806 0.00187498 6.53685 0.02375 6.39623 0.07125C5.97435 0.216563 5.5681 0.600313 5.28685 1.3875C4.98373 2.22312 4.88373 2.96062 4.4306 3.57625C3.97435 4.19187 3.18373 4.58563 1.67341 4.74813C1.03185 4.82 0.613415 5.095 0.34529 5.47625C0.0768523 5.8575 -0.0353352 6.35437 0.00966478 6.86375C0.0999773 7.87625 0.792477 8.87 1.99373 8.98562C3.57748 9.13875 4.77748 9.02312 5.70248 8.7075C5.68998 8.5075 5.6806 8.3075 5.67748 8.10437C5.64623 6.52312 6.71498 5.27625 7.90248 4.845C8.19935 4.73563 8.5056 4.67938 8.80873 4.6825C8.83373 4.6825 8.8556 4.68563 8.8806 4.68563C8.9681 4.36063 9.04623 4.01687 9.1181 3.66375C9.4181 2.20125 8.67123 0.860312 7.7556 0.294687C7.47123 0.117812 7.17748 0.0178125 6.8931 0.00312501C6.87123 0.00312501 6.84935 0 6.82748 0V0.00187498ZM5.81498 1.3025L6.36498 1.40625C6.0431 3.12937 5.53685 4.22312 4.69623 4.91375C4.11185 5.395 3.38998 5.66687 2.50873 5.84812L2.36935 5.30125C3.20873 5.12937 3.84935 4.8825 4.33998 4.47938C5.0431 3.90125 5.50248 2.96375 5.81498 1.3025ZM8.79623 5.245C8.57123 5.24188 8.33373 5.28562 8.0931 5.37313C7.13685 5.72312 6.21185 6.77625 6.23998 8.09188C6.27123 9.67625 6.57123 11.07 7.4556 12.1137C8.33685 13.1575 9.8306 13.8919 12.3681 14.0981C13.5337 14.195 14.3087 13.5075 14.5306 12.7481C14.64 12.3669 14.6087 11.9731 14.4181 11.6356C14.2306 11.2981 13.8744 11.0012 13.2775 10.8325C11.8712 10.4356 11.1369 9.81062 10.7619 9.06375C10.3869 8.32 10.3587 7.5075 10.2181 6.72V6.71688C10.0931 5.98563 9.78373 5.59188 9.41498 5.395C9.22748 5.29812 9.0181 5.24813 8.79623 5.245ZM1.81435 5.40125L1.95185 5.95125C1.72623 5.98563 1.49248 6.01688 1.24748 6.04813L1.17873 5.49188C1.40123 5.46375 1.61216 5.43563 1.81435 5.40125ZM8.7931 5.84812L8.83685 6.41062C8.65873 6.42625 8.50248 6.4575 8.36498 6.50125L8.1181 5.995C8.32123 5.92 8.54623 5.87 8.7931 5.84812ZM7.62123 6.26063L7.87435 6.77938C7.8306 6.81687 7.7931 6.8575 7.7556 6.90125C7.53373 7.16688 7.41185 7.53562 7.37435 7.96063C7.29623 8.81375 7.5681 9.87 7.83373 10.5294L7.31498 10.7419C7.02123 10.0169 6.72435 8.91687 6.81185 7.91062C6.85873 7.41062 7.00248 6.92313 7.32435 6.54188C7.40873 6.43875 7.50873 6.345 7.62123 6.26063Z" fill="#545454"/>
</svg>
