<svg width="26" height="26" viewBox="0 0 26 26" fill="none" xmlns="http://www.w3.org/2000/svg">
<path d="M18.525 22.4658H7.475C7.475 22.4658 7.6375 23.5221 9.1 24.4158C9.62813 24.7408 10.9281 25.1877 13 25.1877C15.0719 25.1877 16.3719 24.7408 16.9 24.4158C18.4031 23.5627 18.525 22.4658 18.525 22.4658Z" fill="#D2D8D9"/>
<path d="M23.1562 12.8779H2.84375C2.84375 12.8779 3.12813 17.3873 5.80938 21.0436C6.825 22.3842 9.18125 24.3342 13 24.3342C16.7781 24.3342 19.175 22.3842 20.1906 21.0436C22.8719 17.3873 23.1562 12.8779 23.1562 12.8779Z" fill="#EFF6F7"/>
<path d="M13 16.8188C18.6091 16.8188 23.1562 15.0545 23.1562 12.8781C23.1562 10.7018 18.6091 8.9375 13 8.9375C7.39086 8.9375 2.84375 10.7018 2.84375 12.8781C2.84375 15.0545 7.39086 16.8188 13 16.8188Z" fill="#EFF6F7"/>
<path d="M13 10.9689C17.3063 10.9689 20.9219 12.0658 21.7344 13.5689C21.8563 13.3658 21.9375 13.1221 21.9375 12.9189C21.9375 11.1314 17.9563 9.66895 13 9.66895C8.04375 9.66895 4.0625 11.1314 4.0625 12.9189C4.0625 13.1627 4.14375 13.3658 4.26562 13.5689C5.07812 12.0658 8.69375 10.9689 13 10.9689Z" fill="#D2D8D9"/>
<path d="M13 16.1281C17.3063 16.1281 20.9219 15.0312 21.7344 13.5281C20.9219 12.0656 17.3063 10.9688 13 10.9688C8.69375 10.9688 5.07812 12.0656 4.26562 13.5688C5.07812 15.0313 8.69375 16.1281 13 16.1281Z" fill="#96B269"/>
<path d="M10.3594 21.1252L8.6125 18.8096L6.13437 20.2314L5.56562 22.8721L9.83125 23.7252L10.3594 21.1252Z" fill="#4E6B20"/>
<path d="M10.0344 21.3283L8.6125 18.8096L5.93125 19.8658L5.0375 22.3439L9.1 23.8471L10.0344 21.3283Z" fill="#8CC63E"/>
<path d="M8.2875 20.2719C8.55674 20.2719 8.775 20.0536 8.775 19.7844C8.775 19.5151 8.55674 19.2969 8.2875 19.2969C8.01826 19.2969 7.8 19.5151 7.8 19.7844C7.8 20.0536 8.01826 20.2719 8.2875 20.2719Z" fill="#4E6B20"/>
<path d="M8.08437 15.5186H8.49062V19.5811H8.08437V15.5186Z" fill="#B59267"/>
<path opacity="0.6" d="M13.5281 4.63125C12.025 3.0875 13.0406 0.8125 13.0406 0.8125C13.0406 0.8125 9.87188 3.81875 11.8625 5.89062C14.1781 8.2875 13.0406 9.75 13.0406 9.75C13.0406 9.75 15.8844 7.06875 13.5281 4.63125ZM9.05938 6.0125C7.92188 4.91563 8.69375 3.25 8.69375 3.25C8.69375 3.25 6.3375 5.44375 7.84063 6.94688C9.54688 8.69375 8.69375 9.75 8.69375 9.75C8.69375 9.75 10.8063 7.8 9.05938 6.0125ZM17.9969 6.0125C16.8594 4.91563 17.6313 3.25 17.6313 3.25C17.6313 3.25 15.275 5.44375 16.7781 6.94688C18.4844 8.69375 17.6313 9.75 17.6313 9.75C17.6313 9.75 19.7438 7.8 17.9969 6.0125Z" fill="#A6AEB0"/>
</svg>
