<svg width="22" height="18" viewBox="0 0 22 18" fill="none" xmlns="http://www.w3.org/2000/svg">
<g clip-path="url(#clip0_506_2505)">
<path d="M11.9158 9.66826C11.9158 9.55285 11.9539 7.89672 12.1085 7.30007C12.2632 6.70341 12.5517 6.43332 12.6291 5.56658C12.7064 4.69984 12.2031 3.97306 11.9735 3.70174C11.55 3.20207 10.9349 2.96759 10.9349 2.96759C10.9349 2.96759 11.0785 2.08734 10.3959 1.6773C9.62496 1.21446 9.04672 1.96457 8.93132 2.02227C8.81592 2.07998 6.46614 0.790913 6.46614 0.790913C6.46614 0.790913 6.04259 0.470489 5.21391 0.482766C4.06971 0.498726 3.59951 1.19359 3.38467 1.44527C3.05688 1.83076 2.78065 2.76256 2.79906 3.32116C2.81748 3.87975 2.95007 4.14493 2.88623 4.27752C2.82239 4.41011 2.4725 4.34504 2.15822 4.72194C1.86971 5.06815 1.48299 5.61692 1.46335 6.63712C1.44493 7.6254 2.41112 8.93165 2.64192 9.14281C2.87272 9.3552 3.14404 9.57004 3.33679 9.85977C3.52953 10.1483 3.77016 10.7302 4.26982 11.1157C4.77071 11.5012 5.53924 11.651 6.04013 11.7087C6.54103 11.7664 7.04683 11.6669 7.39549 11.8965C7.75643 12.1334 8.18366 13.145 8.87853 13.6877C9.28612 14.0069 9.63109 14.1296 10.0215 14.1505C10.6206 14.1837 10.8821 14.0388 11.124 13.97C11.5303 13.8546 11.9158 9.66826 11.9158 9.66826Z" fill="#598B15"/>
<path d="M12.9605 12.526C12.9605 12.526 13.7757 11.9306 13.5498 10.8035C13.3485 9.79685 12.7592 9.3733 12.4915 8.43781C12.2264 7.50968 12.3835 7.10332 12.451 6.66381C12.5247 6.18379 12.564 6.14696 12.5087 6.12241C12.451 6.09662 11.9158 7.56861 11.9158 7.60176C11.9047 8.02776 11.7832 8.74473 11.8728 9.17932C11.9624 9.61392 12.8095 10.2376 12.8647 10.6611C12.92 11.0847 13.0882 12.0324 12.9875 12.2878C12.8868 12.5444 12.397 12.6352 12.397 12.6352L12.9605 12.526Z" fill="#85BB41"/>
<path d="M12.898 12.4018C12.9422 12.4607 13.1202 12.683 13.313 12.8462C13.5057 13.0095 13.9354 13.1126 13.9207 13.217C13.9059 13.3201 12.677 14.4312 12.677 14.4312L11.658 15.1641C11.658 15.1641 11.3585 14.8117 11.1694 14.4692C11.0663 14.2826 10.9435 14.0309 10.9435 14.0309C10.9435 14.0309 10.617 14.1807 10.1124 14.0997C9.35737 13.9794 8.67478 13.104 8.38014 12.5798C8.19353 12.2484 7.84855 11.5866 7.30101 11.276C6.75346 10.9654 6.09665 10.9126 5.47422 10.5726C4.98683 10.3049 4.32389 9.72057 4.05748 9.29211C3.79107 8.86242 3.80581 8.70282 3.80581 8.70282C3.80581 8.70282 2.36942 7.04054 2.85804 5.20394C3.34665 3.36733 3.83527 3.57481 4.17657 3.10092C4.51663 2.62704 4.56206 1.4276 5.74677 0.938981C6.93148 0.450365 8.11496 0.936526 8.72634 1.43496C9.3144 1.91376 10.2904 2.69456 10.8294 4.49679C11.108 5.43106 10.8306 6.97057 10.8662 7.37447C10.9251 8.03742 11.7133 8.92257 11.7133 8.92257C11.7133 8.92257 12.6021 9.92927 12.6463 10.0484C12.6905 10.1674 13.0171 11.6333 13.0171 11.6333L12.898 12.4018Z" fill="url(#paint0_radial_506_2505)"/>
<path d="M10.601 12.5115C10.4892 12.5225 9.60899 12.3997 9.00743 11.6091C8.40586 10.8185 8.41691 9.88177 8.42796 9.91492C8.43901 9.94807 9.97729 10.115 9.99939 10.6392C10.0215 11.1622 10.601 12.5115 10.601 12.5115Z" fill="#598B15"/>
<path d="M12.4879 12.8573C12.4879 12.8573 13.3349 12.5798 13.2588 11.416C13.1852 10.2804 12.2681 9.76597 12.1011 8.49041C12.0201 7.87289 12.192 7.39164 12.3442 6.87478C12.5099 6.31128 12.645 5.76619 12.5529 5.94911C12.4093 6.23516 12.3037 6.42177 11.9698 7.22713C11.7697 7.7096 11.6088 8.29152 11.6837 8.87958C11.8053 9.83594 12.7076 10.6167 12.7849 11.4061C12.8758 12.3318 12.4105 12.7284 12.4105 12.7284L12.4879 12.8573Z" fill="#E9E7D7"/>
<path d="M12.0263 13.7295C12.3111 13.4779 12.7101 12.9401 12.5125 12.2416C12.2547 11.3306 11.6924 11.0421 11.1313 10.1914C10.5703 9.34058 10.4782 8.54013 10.4672 7.68812C10.4524 6.54883 10.3874 5.63544 10.1897 5.57528C9.99206 5.51513 10.094 6.71212 10.0485 7.69917C10.0166 8.38176 9.93191 9.43142 9.93191 9.43142C9.93191 9.43142 9.32912 8.92562 9.18425 8.2418C8.92644 7.02763 9.4126 5.71279 9.30948 4.34515C9.23213 3.32741 8.74965 2.33912 8.26226 1.81C7.9136 1.43064 7.56372 1.14214 7.45814 1.20229C7.35255 1.26245 8.06584 1.99169 8.38381 2.84247C8.70177 3.69325 8.77666 4.52808 8.65512 5.43901C8.53358 6.34995 8.36293 7.25352 8.25613 7.22283C8.14932 7.19214 7.49988 5.90062 7.29731 4.90743C7.09965 3.93511 6.99898 3.28321 6.52878 2.63008C6.05858 1.97696 5.51104 1.59761 5.42019 1.68845C5.25936 1.84928 5.85724 2.1427 6.25133 3.11379C6.48704 3.69325 6.48213 4.09225 6.68593 5.09649C6.79028 5.61334 7.17822 6.76982 7.16349 6.81647C7.14876 6.86312 6.61595 6.59303 6.2366 6.32049C5.85724 6.04794 5.19184 5.54214 4.6001 4.76747C4.26494 4.32796 4.03905 3.9658 3.88682 4.07138C3.73459 4.17819 4.41472 5.48812 5.04329 6.07372C5.9395 6.90854 7.09106 7.53343 7.09106 7.65375C7.09106 7.77406 5.99352 7.67707 4.89965 7.37506C4.01941 7.13198 3.08269 6.4543 2.97588 6.62127C2.86907 6.78823 3.96293 7.40821 4.67499 7.68444C5.81427 8.12517 6.77186 8.07975 7.42499 8.47383C8.07811 8.86915 8.46851 9.52227 8.53358 9.64258C8.55691 9.68555 7.44095 9.38477 6.37778 9.23254C5.31461 9.08031 3.85736 8.56468 3.81193 8.73165C3.76651 8.89861 4.34351 9.23254 5.61907 9.53578C6.89463 9.83901 7.86572 10.1275 8.56427 10.5683C9.26282 11.009 9.70233 11.543 10.067 12.1802C10.4316 12.8174 10.4377 13.8216 10.9693 14.05C11.3192 14.1997 11.7673 13.9566 12.0263 13.7295Z" fill="#E9E7D7"/>
<path d="M13.9034 13.1489C14.0605 13.2275 13.9979 13.4595 13.9046 13.6007C13.7634 13.818 13.524 14.0648 12.9507 14.5129C12.505 14.8603 12.2816 15.0187 12.0238 15.1304C11.8225 15.2175 11.6199 15.2225 11.5867 15.0874C11.5781 15.053 12.3098 14.5779 12.7702 14.2121C13.5633 13.5835 13.869 13.1317 13.9034 13.1489Z" fill="#B5CF17"/>
</g>
<g clip-path="url(#clip1_506_2505)">
<path d="M16.8507 9.52963L9.87354 14.8951C9.87354 14.8951 10.0729 15.6759 10.8036 16.108C11.4116 16.4675 12.0657 16.4734 12.8966 16.1915C13.7275 15.9086 14.2087 15.4942 14.2087 15.4942C14.2087 15.4942 14.5417 15.6003 14.7901 15.4107C15.018 15.2378 14.9876 14.9638 14.9895 14.9619C15.0691 14.8872 16.3213 13.9326 16.9027 13.3845C17.4842 12.8365 19.2255 11.0411 19.2255 11.0411C19.2255 11.0411 19.5506 11.0706 19.7411 10.8536C19.9189 10.6512 19.8236 10.4597 19.8236 10.4597C19.8236 10.4597 21.6042 8.91481 21.6347 7.66945C21.6681 6.29052 20.572 5.82597 20.3884 5.77588C20.2057 5.72579 16.8507 9.52963 16.8507 9.52963Z" fill="#2E7E30"/>
<path d="M16.6011 7.61905C16.6011 7.61905 16.1523 8.117 16.0197 8.28396C15.8871 8.44994 15.5218 8.832 15.5218 8.832C15.5218 8.832 15.2527 8.71512 15.0238 8.96459C14.8205 9.18557 14.8745 9.49593 14.8745 9.49593C14.8745 9.49593 13.5781 10.6421 12.4486 11.4229C11.3192 12.2037 10.1111 13.0012 9.85775 13.948C9.71632 14.4764 9.87445 14.8948 9.87445 14.8948C9.87445 14.8948 10.1573 14.9615 10.4058 15.1442C10.6543 15.3269 10.8173 15.5332 10.8173 15.5332C10.8173 15.5332 11.8014 15.6255 12.6657 15.1776C13.53 14.7298 15.8871 12.9344 16.4686 12.4031C17.05 11.8717 19.2628 9.657 19.8078 8.96459C20.3922 8.22209 20.8381 7.27039 20.7045 6.52298C20.5719 5.77557 20.3893 5.77557 20.3893 5.77557C20.3893 5.77557 19.4091 5.37682 18.5291 5.82566C17.7041 6.24601 17.2169 6.90503 17.2169 6.90503C17.2169 6.90503 16.937 6.80682 16.7406 7.03271C16.5078 7.29887 16.6011 7.61905 16.6011 7.61905Z" fill="#559833"/>
<path d="M20.1713 6.54607C20.0308 6.46357 19.8079 6.55786 19.7116 6.73955C19.6154 6.92125 19.6635 7.13928 19.8207 7.21196C19.9778 7.28464 20.1595 7.22375 20.2803 7.04205C20.3667 6.91143 20.3766 6.66687 20.1713 6.54607ZM16.007 11.169C15.8116 11.0256 15.5837 11.1327 15.4619 11.3262C15.3411 11.5196 15.3411 11.7013 15.4865 11.8349C15.6318 11.9685 15.8734 11.8958 16.0188 11.6896C16.1474 11.5079 16.1887 11.3026 16.007 11.169ZM15.9824 10.3951C16.0551 10.5797 17.3624 9.40214 18.1009 8.53098C18.8395 7.65982 20.0917 6.13848 19.7588 5.98919C19.4082 5.83205 18.6391 7.10098 18.0518 7.8533C17.1934 8.95428 15.8734 10.1162 15.9824 10.3951ZM15.0278 11.225C15.071 11.4813 13.9897 12.436 13.5055 12.7994C13.2315 13.0046 11.6453 13.8699 11.5294 13.5861C11.4528 13.3975 12.6235 12.8446 13.0782 12.5342C13.5919 12.1836 13.9848 11.8496 14.2932 11.6021C14.468 11.4597 14.9964 11.0404 15.0278 11.225ZM19.8177 5.30562C19.8226 5.43428 19.6291 5.54527 19.3384 5.62187C19.0477 5.69848 18.483 6.24652 18.1147 6.64036C17.7464 7.03419 16.8575 8.16268 16.7122 8.35125C16.5668 8.53982 15.788 9.23223 15.5749 9.44634C15.3617 9.66044 14.0948 10.6524 13.7618 10.9087C13.4279 11.1651 12.1609 12.0107 11.8614 12.2238C11.5854 12.4212 11.1385 12.7611 10.9048 13.1844C10.7221 13.5124 10.5885 13.8856 10.4687 13.8512C10.3489 13.8169 10.3489 13.2698 10.6141 12.7994C10.8792 12.3289 11.4695 11.9606 11.7857 11.7475C12.102 11.5344 13.5821 10.5581 13.5821 10.5581C13.5821 10.5581 14.6084 9.70268 14.8481 9.50625C15.0877 9.30982 16.1907 8.34241 16.5246 7.90634C16.8585 7.47027 17.5686 6.55491 18.0047 6.09232C18.4407 5.63071 18.9367 5.34 19.1941 5.26241C19.4504 5.1858 19.8099 5.10036 19.8177 5.30562Z" fill="#2E7E30"/>
<path d="M11.4175 13.7222C11.4813 13.8705 11.7259 13.8764 12.0244 13.7055C12.324 13.5346 12.931 13.1064 13.2649 12.8668C13.6587 12.5849 14.0693 12.2598 14.1969 12.1311C14.4022 11.9259 14.4621 11.756 14.411 11.6352C14.36 11.5143 14.1626 11.5497 13.975 11.6862C13.5644 11.9858 13.2904 12.1478 12.5803 12.6271C12.2955 12.8196 11.8447 13.1408 11.6738 13.2773C11.5029 13.4148 11.3409 13.5425 11.4175 13.7222ZM18.3465 6.33944C18.4103 6.46711 18.595 6.39935 18.8336 6.24515C19.0723 6.09095 19.1243 5.98881 19.0477 5.86899C18.9711 5.74917 18.7285 5.78551 18.5861 5.87783C18.4408 5.97212 18.261 6.16854 18.3465 6.33944ZM18.5518 7.41881C18.6765 7.58381 18.9338 7.36381 19.1126 7.18703C19.2815 7.02104 19.4858 6.85506 19.5624 6.7647C19.6223 6.69399 19.7578 6.37479 19.4416 6.38363C19.1862 6.39051 18.8444 6.70578 18.6922 6.86292C18.5822 6.97587 18.4221 7.24792 18.5518 7.41881Z" fill="#7FBA42"/>
</g>
<defs>
<radialGradient id="paint0_radial_506_2505" cx="0" cy="0" r="1" gradientUnits="userSpaceOnUse" gradientTransform="translate(3.18792 2.24499) rotate(180) scale(15.4433 15.4433)">
<stop offset="0.554" stop-color="#85BB41"/>
<stop offset="0.614" stop-color="#A2C65F"/>
<stop offset="0.706" stop-color="#C9D487"/>
<stop offset="0.779" stop-color="#E1DDA0"/>
<stop offset="0.823" stop-color="#EAE0A9"/>
</radialGradient>
<clipPath id="clip0_506_2505">
<rect width="15.7143" height="15.7143" fill="white" transform="matrix(-1 0 0 1 15.7142 0)"/>
</clipPath>
<clipPath id="clip1_506_2505">
<rect width="12.5714" height="12.5714" fill="white" transform="translate(9.42859 4.71387)"/>
</clipPath>
</defs>
</svg>
