<svg width="20" height="13" viewBox="0 0 20 13" fill="none" xmlns="http://www.w3.org/2000/svg">
<path d="M1.96666 10.7379C1.68569 9.51483 0.97597 5.63275 2.56896 3.09622C2.87726 2.61625 3.30623 2.22567 3.81291 1.96358C5.00146 1.33504 7.49035 0.507681 10.4522 2.32914V8.91692C9.2116 9.09448 7.96222 9.20435 6.70965 9.24601C6.47099 9.2479 6.23629 9.30719 6.02536 9.41887C5.81444 9.53055 5.63348 9.69135 5.49778 9.88768C4.84444 10.8419 3.53291 12.4028 2.4275 11.5186C2.19021 11.3177 2.02766 11.0426 1.96618 10.7379M10.4522 2.32331V8.91692C11.933 8.52923 13.2534 7.68327 14.2244 6.49997C14.2244 6.49997 15.5097 5.12768 16.4781 4.87733C16.4781 4.87733 18.214 4.00963 16.094 3.05782C14.2726 2.47689 12.3616 2.22825 10.4522 2.32379" fill="#D22F27"/>
<path d="M1.99247 10.7379C1.69347 9.51483 0.938202 5.63275 2.63342 3.09622C2.96151 2.61625 3.418 2.22567 3.9572 1.96358C5.22202 1.33504 7.87063 0.507681 11.0226 2.32914V8.91692C9.70234 9.09448 8.37279 9.20435 7.03983 9.24601C6.78586 9.2479 6.53609 9.30719 6.31163 9.41887C6.08717 9.53055 5.8946 9.69135 5.75019 9.88768C5.05493 10.8419 3.65923 12.4028 2.48288 11.5186C2.23036 11.3177 2.05738 11.0426 1.99196 10.7379M11.0226 2.32331V8.91692C12.5984 8.52923 14.0035 7.68327 15.0369 6.49997C15.0369 6.49997 16.4046 5.12768 17.4351 4.87733C17.4351 4.87733 19.2824 4.00963 17.0264 3.05782C15.0882 2.47689 13.0545 2.22825 11.0226 2.32379" stroke="black" stroke-opacity="0.2" stroke-width="2" stroke-linecap="round" stroke-linejoin="round"/>
</svg>
