<svg width="20" height="22" viewBox="0 0 20 22" fill="none" xmlns="http://www.w3.org/2000/svg">
<path d="M18.969 3.54052L17.4706 1.75L17.3533 2.34983C16.1709 1.86638 14.483 1.95591 12.8673 4.85656C12.8673 4.85656 11.387 7.78406 5.62832 10.4519C5.62832 10.4519 -0.346995 12.9408 1.91857 18.178L1.48531 18.1691L2.73092 19.6463C2.73995 19.6552 2.73995 19.6642 2.74898 19.6731C2.74898 19.6731 7.01835 25.7967 13.8873 17.7573C13.8963 17.7662 23.0037 8.23169 18.969 3.54052Z" fill="#873000"/>
<path d="M11.4591 3.15568C11.4591 3.15568 9.97886 6.08318 4.22017 8.75106C4.22017 8.75106 -2.89244 11.7054 1.34985 17.9723C1.34985 17.9723 5.61923 24.0958 12.4881 16.0564C12.4881 16.0564 21.7038 6.41443 17.4796 1.74116C17.4706 1.75011 14.3295 -2.01894 11.4591 3.15568Z" fill="#873000"/>
<path d="M4.69863 19.2169C3.04684 18.823 2.09007 17.4891 2.08104 17.4801C0.266784 14.7943 0.492438 12.5741 2.79411 10.6851C3.66062 9.97782 4.482 9.61971 4.57226 9.57495L4.59934 9.566C6.55801 8.66178 8.2459 7.62328 9.61788 6.49525C11.4592 4.99121 12.1362 3.80051 12.2535 3.5767C12.6868 2.80677 13.1381 2.2159 13.6074 1.83094C14.149 1.38331 14.7267 1.23111 15.3224 1.37435C16.1618 1.58026 16.7666 2.28752 16.7937 2.31438L16.8117 2.33228C18.635 4.35557 17.2721 7.73071 15.8008 10.2016C14.0949 13.0754 11.8654 15.421 11.8383 15.4479L11.8112 15.4747C11.1072 16.2984 10.4122 16.9967 9.72619 17.5517L9.71717 17.5607C8.08343 18.8946 6.53093 19.4765 5.09578 19.2796C4.96038 19.2706 4.83402 19.2438 4.69863 19.2169Z" fill="#F75E3B"/>
<path d="M6.84668 14.1584C6.63908 14.1584 6.43147 14.0688 6.28706 13.8987C6.03432 13.5944 6.08848 13.1467 6.39537 12.8961C6.4405 12.8602 10.6106 9.49406 11.8111 7.49763C12.0096 7.15743 12.4519 7.05 12.7949 7.25591C13.1379 7.45287 13.2462 7.89154 13.0386 8.23174C11.7118 10.4341 7.46948 13.854 7.29798 13.9972C7.16259 14.1047 7.00012 14.1584 6.84668 14.1584Z" fill="white"/>
</svg>
