<svg width="20" height="20" viewBox="0 0 20 20" fill="none" xmlns="http://www.w3.org/2000/svg">
<path d="M2.50624 1.91626L4.86874 18.2456C4.89007 18.3858 4.96084 18.5136 5.06825 18.6061C5.17565 18.6987 5.31261 18.7497 5.45436 18.75H14.5456C14.6879 18.7518 14.826 18.7015 14.9339 18.6086C15.0417 18.5157 15.1119 18.3866 15.1312 18.2456L17.4937 1.91626C17.5048 1.83301 17.4979 1.74836 17.4736 1.66799C17.4492 1.58763 17.4079 1.5134 17.3525 1.4503C17.2971 1.38719 17.2288 1.33667 17.1523 1.30213C17.0758 1.26758 16.9927 1.24981 16.9087 1.25001H3.09186C3.00778 1.24963 2.92459 1.26727 2.8479 1.30174C2.77121 1.3362 2.70278 1.3867 2.64724 1.44982C2.59169 1.51295 2.55032 1.58724 2.52589 1.66769C2.50146 1.74815 2.49454 1.8329 2.50561 1.91626" fill="#AEDDFF"/>
<path d="M4.06874 5.80938L5.60686 16.5387C5.63186 16.7319 5.80061 16.875 5.99436 16.875H13.9981C14.1919 16.875 14.3606 16.7319 14.3856 16.5387L15.9294 5.80938C15.9919 5.37938 15.6606 5 15.2231 5H4.77499C4.34374 5 4.01249 5.38563 4.06874 5.80938Z" fill="#F3EEF8"/>
<path d="M15.5349 3.25924C15.5466 3.17799 15.5421 3.09523 15.5218 3.0157C15.5015 2.93617 15.4657 2.86142 15.4165 2.79573C15.3672 2.73003 15.3056 2.67467 15.235 2.63281C15.1644 2.59094 15.0862 2.5634 15.0049 2.55174C14.9237 2.54009 14.8409 2.54455 14.7614 2.56488C14.6819 2.58521 14.6071 2.621 14.5414 2.67021C14.4757 2.71943 14.4204 2.7811 14.3785 2.85171C14.3366 2.92232 14.3091 3.00049 14.2974 3.08174L12.3206 16.8749H13.5831L15.5349 3.25924Z" fill="white"/>
</svg>
