<svg width="24" height="24" viewBox="0 0 24 24" fill="none" xmlns="http://www.w3.org/2000/svg">
<path d="M15.9077 15.9637C18.9076 12.9638 19.5865 8.77888 17.424 6.61642C15.2616 4.45396 11.0767 5.13282 8.07678 8.13269C5.0769 11.1326 4.39804 15.3175 6.56051 17.4799C8.72297 19.6424 12.9079 18.9635 15.9077 15.9637Z" fill="#B1CC33"/>
<path d="M18.7101 9.79102C18.2516 11.3548 17.3995 12.7747 16.2354 13.915C13.2354 16.915 9.00774 17.551 6.79241 15.3357C6.07377 14.601 5.62397 13.6454 5.51574 12.6233C5.51574 12.6233 4.22774 19.299 10.3334 18.6663C10.3334 18.6663 16.3367 18.5703 18.5821 11.0897L18.7101 9.79102Z" fill="#5C9E31"/>
<path d="M15.9914 10.5901C15.2691 10.5473 14.5914 10.2266 14.1004 9.69514C13.151 8.7458 12.9227 7.48747 13.5804 6.83014C13.7655 6.66072 13.991 6.54175 14.2354 6.48466C14.4798 6.42757 14.7347 6.43428 14.9757 6.50414C15.5355 6.64179 16.045 6.93496 16.4454 7.3498C17.3947 8.29914 17.623 9.55747 16.9654 10.2151C16.8362 10.3395 16.6835 10.4367 16.5163 10.5011C16.349 10.5655 16.1705 10.5958 15.9914 10.5901Z" fill="#A57939"/>
<path d="M15.9077 15.9637C18.9076 12.9638 19.5865 8.77888 17.424 6.61642C15.2616 4.45396 11.0767 5.13282 8.07678 8.13269C5.0769 11.1326 4.39804 15.3175 6.56051 17.4799C8.72297 19.6424 12.9079 18.9635 15.9077 15.9637Z" stroke="#699635" stroke-opacity="0.5" stroke-width="2" stroke-miterlimit="10"/>
<path d="M16.752 9.98011C16.2347 10.4974 15.163 10.2648 14.3583 9.46011C13.5537 8.65544 13.3206 7.58377 13.8383 7.06644C14.356 6.54911 15.4273 6.78177 16.2316 7.58644C16.5959 7.93656 16.856 8.38078 16.983 8.86977" stroke="#699635" stroke-opacity="0.5" stroke-width="2" stroke-miterlimit="10" stroke-linecap="round"/>
</svg>
