<svg width="22" height="19" viewBox="0 0 22 19" fill="none" xmlns="http://www.w3.org/2000/svg">
<path d="M5.2425 4.49729C5.2425 4.49729 4.15376 4.16604 3.25376 5.17354C2.20751 6.34604 2.72626 8.13604 3.20126 9.46354C3.67626 10.791 3.89375 11.2673 4.13125 12.3935C4.31 13.236 4.50875 14.736 6.0175 15.2235C7.0725 15.5635 8.15875 14.7948 8.15875 14.7948C8.15875 14.7948 8.60501 15.2935 9.59001 15.4123C10.6563 15.5398 11.7875 15.2085 12.1813 14.2785C12.3875 13.7923 12.5875 12.2335 12.7288 11.2423C12.9138 9.94229 13.575 8.53104 13.74 7.41229C13.88 6.45729 13.645 4.24854 10.6813 4.18979C9.645 4.16979 8.48 4.58104 8.48 4.58104C8.48 4.58104 7.56751 4.10229 6.87126 4.02479C5.53126 3.87479 5.2425 4.49729 5.2425 4.49729Z" fill="#7CB342"/>
<path d="M12.1212 4.44622C11.7387 4.27872 11.2812 4.12372 10.4625 4.07247C9.3025 3.99997 8.48125 4.57997 8.48125 4.57997C8.48125 4.57997 7.56875 4.10122 6.8725 4.02372C5.53125 3.87372 5.11875 4.46997 5.11875 4.46997C5.11875 4.46997 5.3375 4.50747 5.69 4.63747C5.97625 4.74247 5.87 4.99747 5.63375 5.02122C5.17 5.06747 4.79125 5.37247 4.745 5.53747C4.745 5.53747 5.48625 5.21872 6.25875 5.46247C7.28625 5.78747 7.56375 6.54997 7.56375 6.54997C7.56375 6.54997 8.1425 5.87497 9.5175 5.56247C10.825 5.26497 11.765 5.82872 11.765 5.82872C11.6887 5.49872 11.5 5.33372 11.3312 5.17622C11.0275 4.89247 11.1275 4.64372 11.4375 4.55622C11.695 4.48372 12.1212 4.44622 12.1212 4.44622Z" fill="#558B2F"/>
<path d="M5.055 1.39616C5.06625 1.99366 5.52125 2.27116 5.73 2.28366C6.1525 2.30741 6.46625 1.79491 7.25375 2.55116C7.57375 2.85866 7.69875 3.29616 7.68875 3.73116C7.685 3.87491 7.72 4.41241 7.4675 4.53241C7.38875 4.56991 7.33625 4.59866 7.09125 4.50491C6.8175 4.39991 6.57375 4.65991 6.57375 4.65991L7.04375 5.19616L8.2075 5.57366L9.375 5.34116L10.05 4.74741C10.05 4.74741 9.73625 4.50366 9.46375 4.60116C9.31625 4.65366 9.03125 4.56741 9.03 4.39491C9.025 4.03116 9.04 3.68491 8.9725 3.32241C8.86 2.72366 8.605 2.15116 8.19625 1.69616C7.61 1.04366 6.77125 0.704905 5.92 0.567405C5.22125 0.456155 5.04375 0.806155 5.055 1.39616Z" fill="#E0E080"/>
<path d="M7.78374 1.31889C7.24749 0.908887 6.58749 0.675137 5.91874 0.567637C5.69374 0.531387 5.52374 0.543887 5.39624 0.595137C5.65624 0.601387 6.15999 0.728887 6.97374 1.29014C7.48624 1.64264 8.49874 2.90889 7.65624 4.21764C7.63374 4.32639 7.59374 4.42514 7.52624 4.48764C7.73499 4.39389 8.14249 4.07264 8.23499 3.21764C8.33249 2.31264 8.11749 1.71514 7.78374 1.31889Z" fill="#C4C451"/>
<path opacity="0.6" d="M7.20373 9.54272C7.19373 10.0165 7.26998 11.074 7.56498 12.5802C7.81623 13.8627 7.56123 14.794 7.22748 15.2102C7.76748 15.064 8.15748 14.7965 8.15748 14.7965C8.15748 14.7965 8.29623 14.2815 8.30498 13.7552C8.31623 13.1227 8.05248 11.8527 7.74373 10.8452C7.52623 10.1377 7.46123 9.07022 7.45123 8.47022C7.45123 8.46897 7.22123 8.68647 7.20373 9.54272Z" fill="#33691E"/>
<path opacity="0.75" d="M6.48122 7.90737C6.34872 7.92237 6.22872 7.83862 6.12872 7.75737C5.76372 7.45862 5.55622 7.20862 5.14622 6.95987C4.82872 6.76737 4.20247 6.63737 4.41247 6.14612C4.51372 5.90987 4.90247 5.87987 5.16622 5.92487C6.08497 6.07987 6.49372 6.61987 6.68747 7.29487C6.72122 7.41237 6.76622 7.53112 6.73997 7.65237C6.71497 7.77237 6.61747 7.88862 6.48747 7.90737H6.48122ZM9.35622 6.57362C9.96122 6.21362 10.8537 6.22112 11.6012 6.60362C11.7862 6.69862 11.9637 6.82237 12.0712 7.00112C12.1525 7.13612 12.1737 7.33862 12.045 7.42987C11.9375 7.50487 11.79 7.45987 11.665 7.41987C10.915 7.18237 10.0662 7.27237 9.38372 7.66362C9.12622 7.81112 8.57372 8.35737 8.41122 7.97487C8.24997 7.58862 8.60372 7.02112 9.35622 6.57362Z" fill="#BBE68B"/>
<path d="M15.4462 9.12871L6.56622 15.9575C6.56622 15.9575 6.81997 16.9512 7.74997 17.5012C8.52372 17.9587 9.35622 17.9662 10.4137 17.6075C11.4712 17.2475 12.0837 16.72 12.0837 16.72C12.0837 16.72 12.5075 16.855 12.8237 16.6137C13.1137 16.3937 13.075 16.045 13.0775 16.0425C13.1787 15.9475 14.7725 14.7325 15.5125 14.035C16.2525 13.3375 18.4687 11.0525 18.4687 11.0525C18.4687 11.0525 18.8825 11.09 19.125 10.8137C19.3512 10.5562 19.23 10.3125 19.23 10.3125C19.23 10.3125 21.4962 8.34621 21.535 6.76121C21.5775 5.00621 20.1825 4.41496 19.9487 4.35121C19.7162 4.28746 15.4462 9.12871 15.4462 9.12871Z" fill="#2E7E30"/>
<path d="M15.1288 6.69759C15.1288 6.69759 14.5575 7.33134 14.3888 7.54384C14.22 7.75509 13.755 8.24134 13.755 8.24134C13.755 8.24134 13.4125 8.09259 13.1213 8.41009C12.8625 8.69134 12.9313 9.08634 12.9313 9.08634C12.9313 9.08634 11.2813 10.5451 9.84378 11.5388C8.40628 12.5326 6.86878 13.5476 6.54628 14.7526C6.36628 15.4251 6.56753 15.9576 6.56753 15.9576C6.56753 15.9576 6.92753 16.0426 7.24378 16.2751C7.56002 16.5076 7.76753 16.7701 7.76753 16.7701C7.76753 16.7701 9.02002 16.8876 10.12 16.3176C11.22 15.7476 14.22 13.4626 14.96 12.7863C15.7 12.1101 18.5163 9.29134 19.21 8.41009C19.9538 7.46509 20.5213 6.25384 20.3513 5.30259C20.1825 4.35134 19.95 4.35134 19.95 4.35134C19.95 4.35134 18.7025 3.84384 17.5825 4.41509C16.5325 4.95009 15.9125 5.78884 15.9125 5.78884C15.9125 5.78884 15.5563 5.66384 15.3063 5.95134C15.01 6.29009 15.1288 6.69759 15.1288 6.69759Z" fill="#559833"/>
<path d="M19.6725 6.33234C19.4937 6.22734 19.21 6.34734 19.0875 6.57859C18.965 6.80984 19.0262 7.08734 19.2262 7.17984C19.4262 7.27234 19.6575 7.19484 19.8112 6.96359C19.9212 6.79734 19.9337 6.48609 19.6725 6.33234ZM14.3725 12.2161C14.1237 12.0336 13.8337 12.1698 13.6787 12.4161C13.525 12.6623 13.525 12.8936 13.71 13.0636C13.895 13.2336 14.2025 13.1411 14.3875 12.8786C14.5512 12.6473 14.6037 12.3861 14.3725 12.2161ZM14.3412 11.2311C14.4337 11.4661 16.0975 9.96734 17.0375 8.85859C17.9775 7.74984 19.5712 5.81359 19.1475 5.62359C18.7012 5.42359 17.7225 7.03859 16.975 7.99609C15.8825 9.39734 14.2025 10.8761 14.3412 11.2311ZM13.1262 12.2873C13.1812 12.6136 11.805 13.8286 11.1887 14.2911C10.84 14.5523 8.82123 15.6536 8.67373 15.2923C8.57623 15.0523 10.0662 14.3486 10.645 13.9536C11.2987 13.5073 11.7987 13.0823 12.1912 12.7673C12.4137 12.5861 13.0862 12.0523 13.1262 12.2873ZM19.2225 4.75359C19.2287 4.91734 18.9825 5.05859 18.6125 5.15609C18.2425 5.25359 17.5237 5.95109 17.055 6.45234C16.5862 6.95359 15.455 8.38984 15.27 8.62984C15.085 8.86984 14.0937 9.75109 13.8225 10.0236C13.5512 10.2961 11.9387 11.5586 11.515 11.8848C11.09 12.2111 9.47748 13.2873 9.09623 13.5586C8.74498 13.8098 8.17623 14.2423 7.87873 14.7811C7.64623 15.1986 7.47623 15.6736 7.32373 15.6298C7.17123 15.5861 7.17123 14.8898 7.50873 14.2911C7.84623 13.6923 8.59748 13.2236 8.99998 12.9523C9.40248 12.6811 11.2862 11.4386 11.2862 11.4386C11.2862 11.4386 12.5925 10.3498 12.8975 10.0998C13.2025 9.84984 14.6062 8.61859 15.0312 8.06359C15.4562 7.50859 16.36 6.34359 16.915 5.75484C17.47 5.16734 18.1012 4.79734 18.4287 4.69859C18.755 4.60109 19.2125 4.49234 19.2225 4.75359Z" fill="#2E7E30"/>
<path d="M8.53126 14.4648C8.61251 14.6536 8.92376 14.6611 9.30376 14.4436C9.68501 14.2261 10.4575 13.6811 10.8825 13.3761C11.3838 13.0173 11.9063 12.6036 12.0688 12.4398C12.33 12.1786 12.4063 11.9623 12.3413 11.8086C12.2763 11.6548 12.025 11.6998 11.7863 11.8736C11.2638 12.2548 10.915 12.4611 10.0113 13.0711C9.64876 13.3161 9.07501 13.7248 8.85751 13.8986C8.64001 14.0736 8.43376 14.2361 8.53126 14.4648ZM17.35 5.06855C17.4313 5.23105 17.6663 5.1448 17.97 4.94855C18.2738 4.7523 18.34 4.6223 18.2425 4.4698C18.145 4.3173 17.8363 4.36355 17.655 4.48105C17.47 4.60105 17.2413 4.85105 17.35 5.06855ZM17.6113 6.4423C17.77 6.6523 18.0975 6.3723 18.325 6.1473C18.54 5.93605 18.8 5.7248 18.8975 5.6098C18.9738 5.5198 19.1463 5.11355 18.7438 5.1248C18.4188 5.13355 17.9838 5.5348 17.79 5.7348C17.65 5.87855 17.4463 6.2248 17.6113 6.4423Z" fill="#7FBA42"/>
</svg>
