<svg width="19" height="19" viewBox="0 0 19 19" fill="none" xmlns="http://www.w3.org/2000/svg">
<path d="M15.1406 3.53269C15.7046 1.81082 13.5374 0.86082 12.6468 1.81082C11.489 -0.0891804 9.02494 1.27644 9.02494 1.27644C9.02494 1.27644 7.68901 -0.20793 5.96713 1.15769C5.3437 0.534257 3.47338 0.38582 3.53276 3.41394C1.45463 3.59207 1.48432 6.50144 2.43432 6.94676L16.1499 8.13426C17.4859 7.59988 17.9906 4.03738 15.1406 3.53269Z" fill="#EDD8B4"/>
<path d="M6.47187 1.425C6.62031 0.148442 4.15625 0.385942 4.54219 1.78125C3.62187 2.10782 4.275 3.50313 5.01719 3.14688C5.04687 4.24532 6.8875 3.97813 6.62031 2.82032C7.30312 3.11719 7.89687 1.27657 6.47187 1.425Z" fill="#FFF8D6"/>
<path d="M6.14536 1.81094C6.41255 1.33594 5.52192 0.801569 5.46255 1.66251C4.92817 1.21719 4.24536 2.46407 5.19536 2.49376C4.75005 3.17657 5.90786 3.59219 6.11567 2.93907C7.03598 2.85001 6.7688 1.66251 6.14536 1.81094Z" fill="#EDD8B4"/>
<path d="M6.17502 2.28583C5.81877 2.19676 5.87815 2.16708 5.90784 1.89989C5.96721 1.3952 5.67034 1.3952 5.70002 1.8702C5.72971 2.16708 5.67034 2.28583 5.37346 2.04833C4.98752 1.78114 4.95784 2.07801 5.31409 2.19676C5.64065 2.3452 5.5219 2.25614 5.5219 2.67176C5.5219 2.99833 5.70002 3.08739 5.72971 2.67176C5.7594 2.25614 5.72971 2.28583 6.05627 2.49364C6.38284 2.67176 6.50159 2.37489 6.17502 2.28583Z" fill="#C9AE81"/>
<path d="M5.31404 4.69066C5.99685 4.09691 4.33435 2.49379 3.71092 4.1266C2.40467 3.32504 1.78123 5.72972 3.05779 6.41254C3.68123 6.76879 7.27342 6.53129 5.31404 4.69066Z" fill="#FFF8D6"/>
<path d="M3.94848 4.69057C3.59223 4.1562 2.52348 4.83901 3.38442 5.37339C1.5141 6.23432 6.76879 6.85776 5.13598 5.28432C5.5516 4.21557 4.15629 3.9187 3.94848 4.69057Z" fill="#EDD8B4"/>
<path d="M4.48287 4.89861C4.18599 5.22518 4.18599 5.1658 3.9188 5.01736C3.41412 4.6908 3.23599 5.19549 3.80005 5.43299C4.12662 5.55174 4.09693 5.61111 4.54224 5.84861C4.89849 6.02674 5.07662 5.84861 4.6313 5.61111C4.18599 5.37361 4.21568 5.43299 4.6313 5.1658C5.01724 4.83924 4.75005 4.57205 4.48287 4.89861Z" fill="#C9AE81"/>
<path d="M16.5063 5.52193C17.1297 4.98756 15.6454 3.56256 15.0813 5.01724C13.9235 4.30474 12.9141 6.79849 14.4875 7.06568C14.3688 8.13443 16.0313 8.13443 16.0313 7.24381C17.1 7.74849 17.7829 5.81881 16.5063 5.52193Z" fill="#FFF8D6"/>
<path d="M15.2891 5.52184C14.9625 5.04684 13.9828 5.64059 14.7844 6.11559C14.0719 6.44215 14.9625 7.65934 15.4672 6.73903C15.9422 7.48122 16.8922 6.53122 16.3875 6.02653C16.7141 5.10622 15.4672 4.83903 15.2891 5.52184Z" fill="#EDD8B4"/>
<path d="M15.764 5.70005C15.4968 5.99692 15.4968 5.93755 15.2593 5.78911C14.814 5.49223 14.6359 5.75942 15.1406 5.96723C15.4375 6.08598 15.5265 6.17505 15.1406 6.38286C14.6953 6.62036 14.9922 6.79848 15.2593 6.5313C15.5562 6.23442 15.4078 6.32348 15.7937 6.5313C16.1203 6.67973 16.2687 6.5313 15.8828 6.32348C15.4968 6.11567 15.4968 6.14536 15.8828 5.90786C16.239 5.67036 16.0015 5.40317 15.764 5.70005Z" fill="#C9AE81"/>
<path d="M10.6282 2.07798C11.2813 1.51392 9.70786 0.0295453 9.14379 1.54361C7.92661 0.80142 6.88755 3.38423 8.52036 3.68111C8.40161 4.77955 10.1235 4.80923 10.1532 3.85923C11.2516 4.39361 11.9344 2.37486 10.6282 2.07798Z" fill="#FFF8D6"/>
<path d="M9.35159 2.07833C9.02502 1.57364 8.01565 2.19708 8.81721 2.70177C8.07502 3.02833 8.99533 4.30489 9.52971 3.35489C10.0047 4.12677 11.0141 3.14708 10.4797 2.6127C10.8656 1.63302 9.52971 1.36583 9.35159 2.07833Z" fill="#EDD8B4"/>
<path d="M9.82661 2.25629C9.52973 2.58286 9.55942 2.52348 9.29223 2.37504C8.81723 2.07817 8.63911 2.34536 9.17348 2.55317C9.47036 2.67192 9.55942 2.79067 9.20317 2.96879C8.72817 3.23598 9.02504 3.41411 9.32192 3.11723C9.61879 2.82036 9.47036 2.90942 9.88598 3.11723C10.2125 3.29536 10.3907 3.11723 9.97504 2.90942C9.55942 2.67192 9.58911 2.73129 9.97504 2.49379C10.3313 2.22661 10.0938 1.98911 9.82661 2.25629Z" fill="#C9AE81"/>
<path d="M8.19378 4.77992C8.3719 3.91899 6.11565 3.59242 6.62034 5.25492C5.13596 5.37367 5.7594 7.4518 7.48128 7.4518C9.91565 7.42211 9.47034 4.21586 8.19378 4.77992Z" fill="#FFF8D6"/>
<path d="M6.88753 5.58108C6.41253 7.92639 9.8266 7.06546 8.4016 5.34358C8.10472 4.27483 7.06566 4.8092 6.88753 5.58108Z" fill="#EDD8B4"/>
<path d="M7.62966 5.40289C7.59997 5.8482 7.27341 5.64039 7.03591 5.8482C6.3531 6.44195 8.19372 7.00601 8.4906 5.93726C8.54997 5.67007 7.71872 5.96695 7.86716 5.52164C8.04528 5.07632 7.68903 5.01695 7.62966 5.40289Z" fill="#C9AE81"/>
<path d="M13.4484 2.76087C13.6265 1.89993 11.4 1.60306 11.9046 3.23587C10.45 3.35462 11.2218 6.11556 12.7359 5.37337C13.3296 6.35306 14.7546 5.34368 14.1906 4.57181C15.4078 4.30462 14.725 2.22649 13.4484 2.76087Z" fill="#FFF8D6"/>
<path d="M12.4094 3.53301C11.8156 3.3252 11.4 4.45332 12.3797 4.36426C11.9938 5.07676 13.5375 5.58145 13.3594 4.48301C14.25 4.83926 14.4578 3.41426 13.686 3.3252C13.3594 2.25645 12.1125 2.82051 12.4094 3.53301Z" fill="#EDD8B4"/>
<path d="M12.9438 3.3846C12.9141 3.82991 12.8844 3.77054 12.5875 3.77054C12.0235 3.80022 12.0532 4.12679 12.5875 4.00804C12.9141 3.91897 13.0625 3.94866 12.8547 4.36429C12.6172 4.86897 13.0032 4.83929 13.0625 4.39397C13.1219 3.94866 13.0625 4.12679 13.5078 4.06741C13.8938 4.00804 13.9235 3.77054 13.4485 3.82991C12.9735 3.88929 13.0328 3.91897 13.1813 3.47366C13.3297 3.05804 12.9735 2.99866 12.9438 3.3846Z" fill="#C9AE81"/>
<path d="M2.31558 6.6502L4.6609 18.4064H6.59058L5.01715 6.6502C4.8984 4.9877 2.07808 4.9877 2.31558 6.6502Z" fill="#ED4C5C"/>
<path d="M5.0172 6.6502L6.59064 18.4064H8.52032L7.71876 6.6502C7.71876 4.9877 4.89845 4.9877 5.0172 6.6502Z" fill="#F9F9F9"/>
<path d="M7.71875 6.6502L8.52031 18.4064H10.45V6.6502C10.5391 4.9877 7.71875 4.9877 7.71875 6.6502Z" fill="#ED4C5C"/>
<path d="M10.45 6.6502V18.4064H12.35L13.1515 6.6502C13.3296 4.9877 10.539 4.9877 10.45 6.6502Z" fill="#F9F9F9"/>
<path d="M12.35 18.406L13.5672 17.5748L14.1312 7.03572C14.3094 5.75916 13.2406 5.28416 13.1219 6.64979L12.35 18.406Z" fill="#C94747"/>
<path d="M14.6063 16.8625L15.1704 7.42188C15.3782 6.23438 14.3391 5.75938 14.161 7.03594L13.5969 17.575L14.6063 16.8625Z" fill="#E8E8E8"/>
<path d="M15.4671 16.2985L16.15 7.83759C16.3875 6.73915 15.3781 6.26415 15.1703 7.45165L14.6062 16.8923L15.4671 16.2985Z" fill="#C94747"/>
<path d="M16.0312 15.9125L16.714 8.19379C16.7734 7.33285 16.239 7.03597 16.15 7.83754L15.4672 16.2985L16.0312 15.9125Z" fill="#E8E8E8"/>
</svg>
