<svg width="20" height="20" viewBox="0 0 20 20" fill="none" xmlns="http://www.w3.org/2000/svg">
<g clip-path="url(#clip0_510_4016)">
<path d="M13.0453 15.4751C12.7609 15.5313 6.01564 16.386 6.01564 16.386C6.01564 16.386 5.87345 17.5813 6.07189 17.9798C6.27032 18.3782 7.55157 19.2892 9.97032 19.2892C12.3891 19.2892 13.7266 18.5204 13.9266 18.0657C14.1266 17.611 13.8406 15.6751 13.8406 15.6751L13.0453 15.4751Z" fill="#77A3AB"/>
<path d="M5.32339 6.69385L0.731201 8.82041C0.731201 8.82041 1.09839 13.147 3.97026 15.5157C8.10308 18.9235 14.2906 17.9079 17.1421 14.5735C19.7453 11.5298 19.2687 7.49229 19.2687 7.49229L5.32339 6.69385Z" fill="#A7D0D6"/>
<path d="M0.617194 7.89064C0.489069 9.74533 2.33594 12.0125 9.95001 12.0985C17.8906 12.1875 20.7047 8.27658 18.9266 6.23283C17.1484 4.18907 12.8234 3.95157 9.83126 3.98126C6.83907 4.01095 0.825007 4.8797 0.617194 7.89064Z" fill="#77A3AC"/>
<path d="M1.61875 8.64664C1.61875 8.64664 1.53593 8.2607 1.67031 7.85758C1.80468 7.45445 2.04531 7.33727 2.07968 7.20758C2.11406 7.07789 1.78437 6.39195 2.34062 5.49039C2.89687 4.58883 3.25781 4.77945 3.41093 4.58883C3.56406 4.3982 3.55625 3.75445 4.24687 3.14039C4.9375 2.52633 5.57031 2.58414 5.57031 2.58414C5.57031 2.58414 5.87812 1.77789 6.625 1.47164C7.37187 1.16539 8.125 1.35445 8.125 1.35445C8.125 1.35445 8.79687 0.74039 9.7375 0.72164C10.6781 0.70289 10.9469 0.97164 11.1578 0.99039C11.3687 1.00914 11.8672 0.760702 12.75 1.0857C13.6328 1.41226 13.6453 1.90758 13.8437 1.98726C14.0422 2.06695 14.5734 1.9107 15.3797 2.56226C16.1859 3.21383 16.0531 3.51383 16.1672 3.63726C16.2797 3.7607 17.0375 3.76539 17.4531 4.82633C17.7594 5.60758 17.5953 6.18101 17.6266 6.26539C17.6578 6.34976 18.0922 6.80133 18.2797 7.26383C18.4531 7.69508 18.5297 8.29976 18.5297 8.29976C18.5297 8.29976 18.1266 9.00601 17.15 9.6482C16.1172 10.3279 4.51875 10.3576 3.75 10.1123C2.42187 9.69195 1.61875 8.64664 1.61875 8.64664Z" fill="#CDCBC0"/>
<path d="M2.88605 7.47632C2.88605 7.47632 2.80011 6.51069 3.05949 5.97944C3.42355 5.23101 4.13449 5.15444 4.13449 5.15444C4.13449 5.15444 4.21418 4.30132 4.82511 3.83101C5.57355 3.25601 5.86105 3.40913 6.11105 3.17788C6.36105 2.94819 6.51418 2.54507 7.12824 2.27632C7.7423 2.00757 8.24074 2.18101 8.45168 2.08413C8.66261 1.98726 9.00011 1.59351 9.67199 1.54819C10.5361 1.49038 10.5923 1.82476 11.0876 1.87788C11.4392 1.91538 11.7017 1.70757 12.4501 1.93726C13.1986 2.16694 13.2236 2.62007 13.4611 2.77476C13.6986 2.92944 14.2845 2.78726 14.9189 3.27319C15.4939 3.71382 15.4876 4.12163 15.6486 4.29038C15.8079 4.45913 16.2814 4.52007 16.6267 5.42319C16.9142 6.17476 16.7017 6.39663 16.7798 6.63257C16.8579 6.86851 17.2861 7.11538 17.547 7.82163C17.8736 8.70444 17.7767 9.16538 17.7767 9.16538C17.7767 9.16538 16.2032 11.2607 9.21886 11.1794C4.19074 11.1216 2.38761 9.37632 2.38761 9.37632C2.38761 9.37632 2.31105 8.43569 2.50324 8.07163C2.69543 7.70757 2.88605 7.47632 2.88605 7.47632Z" fill="white"/>
<path d="M9.55789 10.664C9.71257 11.0124 10.3219 11.0703 10.8344 10.4968C11.2938 9.98119 11.0251 9.18744 10.5329 9.25463C10.0844 9.31557 10.2313 9.78119 10.0173 9.95932C9.8032 10.1374 9.42351 10.3609 9.55789 10.664ZM11.9532 8.53744C12.086 8.82182 12.8829 8.76088 13.1844 8.23588C13.486 7.70932 13.4423 6.94057 13.0048 6.94838C12.4344 6.95932 12.6469 7.54213 12.4454 7.72026C12.2438 7.89838 11.7298 8.05619 11.9532 8.53744ZM15.0313 5.63744C14.7032 5.74369 14.8751 6.17494 14.7407 6.46557C14.6063 6.75619 14.2485 7.08119 14.5282 7.32807C14.8079 7.57494 15.4454 7.17182 15.536 6.55619C15.6235 5.94057 15.3782 5.52651 15.0313 5.63744ZM13.6469 9.53119C13.4376 9.86713 13.0423 9.69838 12.9641 10.0468C12.886 10.3937 13.6923 10.5171 14.1391 10.1031C14.5876 9.68901 14.4641 8.98432 14.1844 8.92807C13.9048 8.87026 13.8141 9.26244 13.6469 9.53119ZM12.3844 5.69682C12.5688 5.90307 13.3079 5.68432 13.5532 4.94838C13.7985 4.21244 13.3141 3.73744 12.9876 3.90463C12.661 4.07182 12.8938 4.42651 12.8157 4.65619C12.7376 4.88588 12.0235 5.29369 12.3844 5.69682Z" fill="#D4D4D4"/>
</g>
<defs>
<clipPath id="clip0_510_4016">
<rect width="20" height="20" fill="white"/>
</clipPath>
</defs>
</svg>
