<svg width="20" height="20" viewBox="0 0 20 20" fill="none" xmlns="http://www.w3.org/2000/svg">
<path d="M0.625 10.375C0.625 14.5 4.8125 19.375 10 19.375C15.1875 19.375 19.375 14.5 19.375 10.375H0.625Z" fill="#B2C1C0"/>
<path d="M19.375 10.375C19.375 13.0313 15.1875 15.1875 10 15.1875C4.8125 15.1875 0.625 13.0313 0.625 10.375C0.625 7.71875 4.8125 5.5625 10 5.5625C15.1875 5.5625 19.375 7.71875 19.375 10.375Z" fill="#E8E8E8"/>
<path d="M10 14.5625C5.25 14.5625 1.21875 12.625 1.21875 10.3437C1.21875 8.0625 5.25 6.125 10 6.125C14.75 6.125 18.7812 8.0625 18.7812 10.3437C18.7812 12.6562 14.75 14.5625 10 14.5625Z" fill="#B2C1C0"/>
<path d="M3.90625 5.125C3.9375 5.65625 4.1875 7.4375 3.96875 8.25C5.34375 8.5 4.3125 5.84375 3.90625 5.125Z" fill="#699635"/>
<path d="M17.375 8.65613C18 7.21863 17.0312 5.71863 16.4062 6.59363C15.7812 7.46863 16.25 8.03113 14.6563 7.71863C14.3125 7.12488 15.1563 5.31238 14.6563 4.96863C13.8438 4.43738 13.8438 6.43738 12.9062 5.28113C11.9688 4.15613 11.9375 6.81238 10.5312 6.81238C9.84375 6.81238 10.8125 4.74988 9.25 4.34363C7.6875 3.93738 8.125 5.71863 6.25 4.68738C4.375 3.65613 3.40625 5.21863 4.28125 5.87488C5.125 6.53113 4.4375 7.84363 4.3125 8.34363C3.25 7.84363 3.3125 9.99988 3.34375 10.3436C2.59375 10.5936 1.375 11.1249 1.34375 11.1561C2.125 13.0311 5.75 14.5624 10 14.5624C14.75 14.5624 18.7812 12.6249 18.7812 10.3436C18.7812 8.03113 16.3438 10.9999 17.375 8.65613Z" fill="#83BF4F"/>
<path d="M11.9688 11.25C12.75 9.59375 10.8438 10.2813 10.125 11C10.0938 9.8125 10.7188 9.0625 11.25 8.25C10.375 8.875 9.4375 9.59375 8.40625 9.96875C9 10.6562 9.3125 11.5938 9.4375 12.5C11.9375 12.75 11.375 13.9375 11.25 14.5312C14.2188 14.3125 11.2187 12.875 11.9688 11.25Z" fill="#699635"/>
<path d="M5.40634 7.12493C4.90634 7.62493 4.75009 8.24993 5.06259 8.56243C5.34384 8.87493 5.96884 8.71868 6.46884 8.21868C6.96884 7.71868 7.12509 7.09368 6.81259 6.78118C6.50009 6.49993 5.87509 6.65618 5.40634 7.12493ZM12.0001 12.9999C11.5001 13.4999 11.3438 14.1249 11.6563 14.4374C11.9376 14.7499 12.5626 14.5937 13.0626 14.0937C13.5626 13.5937 13.7188 12.9687 13.4063 12.6562C13.1251 12.3437 12.5001 12.4999 12.0001 12.9999Z" fill="#ED4C5C"/>
<path d="M8.15625 6.25C6.9375 6.3125 6.375 9.46875 5.5 9.28125C6.21875 9.96875 6.59375 11 6.59375 12C6.78125 12.0313 7.0625 11.5 7.21875 12.0625C7 10.3437 7.0625 8.46875 8.15625 6.25Z" fill="#699635"/>
<path d="M13.2499 7.28109C13.5624 7.90609 13.5312 8.56234 13.1562 8.74984C12.7812 8.93734 12.2499 8.62484 11.9062 7.99984C11.5937 7.37484 11.6249 6.71859 11.9999 6.53109C12.3749 6.34359 12.9374 6.65609 13.2499 7.28109Z" fill="#ED4C5C"/>
<path d="M15.6562 7.81259C13 7.50009 12.5938 7.43759 14.8125 9.65634C15.4063 10.4063 13.1563 12.0001 12.3438 12.1563C13.375 14.1251 13.5625 14.3126 15 13.8126C17 13.1251 16 10.7813 16.9375 11.2813C16.4375 10.5313 13.625 10.1876 15.6562 7.81259Z" fill="#699635"/>
<path d="M17.2813 9.40607C17.2188 9.06232 17.9688 8.28107 17.8125 7.18732C17.6563 6.18732 16.5 5.59357 16.1563 6.74982C15.8438 7.81232 14.8438 7.56232 14.8438 7.56232C15.5 4.99982 15.1563 3.74982 13.7188 5.28107C12.9688 6.06232 13.6563 2.62482 11.2813 6.28107C10.0625 8.15607 10.5625 1.99982 8.37503 4.24982C6.62503 6.03107 5.28128 2.56232 4.12503 4.65607C3.53128 5.74982 4.81253 5.90607 4.46878 8.03107C4.46878 8.03107 3.15628 7.21857 3.28128 9.90607C3.31253 10.3748 0.96878 10.4686 1.50003 11.2498C2.03128 11.0311 5.37503 9.43732 5.18753 10.9061C5.12503 11.3436 4.84378 12.7498 5.62503 12.6873C6.46878 12.6248 7.25003 11.3123 7.28128 12.8123C7.31253 13.9686 7.87503 14.0311 8.68753 13.3123C8.90628 13.1248 9.06253 12.8123 9.37503 12.6873C9.93753 12.4686 10.4688 12.7811 11 12.9686C12 13.3436 11.7188 11.9373 11.0313 11.6873C10.9063 11.6561 10.125 11.5311 10.1875 11.4061C10.3125 11.0311 10.75 10.7811 11.0625 10.6248C11.3438 10.4998 11.6563 10.4061 11.9688 10.4061C12.4063 10.4373 12.25 10.7186 12.1563 11.0623C12.0625 11.4686 12.125 11.9998 12.5625 12.1248C13.0625 12.2811 13.4688 11.8123 13.8125 11.5311C14.0625 11.3123 15.7188 10.2498 15.1563 11.3748C14.8125 12.0311 13.1563 12.2498 13.9063 13.2186C14.4063 13.8436 15.0938 13.5623 15.4688 12.9686C15.7813 12.4998 15.9063 11.9373 16.0313 11.3748C16.125 10.9373 16.1563 10.6873 16.5938 10.9061C17.1875 11.2186 17.9375 11.9061 17.9688 10.7811C18 10.0311 18.2813 8.65607 18.9375 9.96857C18.5313 8.24982 17.3438 9.87482 17.2813 9.40607ZM13.2188 11.5311C13.1875 11.5623 12.4063 12.1248 12.2813 11.5936C12.1875 11.1873 12.5938 10.7186 12.3438 10.3748C11.9063 9.78107 10.75 10.3436 10.3125 10.6561C10.0625 10.8436 9.43753 11.4373 9.90628 11.7186C10.25 11.9373 10.7813 11.8123 11.0938 12.1248C11.3438 12.3748 11.4063 12.8436 10.9688 12.6561C10.4063 12.4373 9.84378 12.1561 9.21878 12.4061C8.87503 12.5311 8.03128 13.7811 7.62503 13.5311C7.40628 13.4061 7.50003 12.5311 7.46878 12.2811C7.37503 11.5623 6.87503 11.6873 6.40628 11.9686C6.21878 12.0936 5.65628 12.4998 5.43753 12.3436C5.21878 12.1873 5.34378 11.4998 5.37503 11.2811C5.53128 9.93732 4.65628 9.81232 3.53128 10.1248C3.53128 9.71857 3.50003 8.09357 4.25003 8.37482C4.68753 8.53107 5.81253 9.90607 6.21878 9.12482C6.65628 8.28107 8.59378 4.56232 8.59378 7.34357C8.59378 8.09357 7.93753 9.68732 8.46878 10.0623C8.93753 10.3748 10.125 9.06232 10.4375 8.87482C11.2188 8.34357 12.0938 7.84357 12.5 9.03107C12.7813 9.81232 12.8438 10.8436 13.8125 11.0623C13.5625 11.2186 13.375 11.3748 13.2188 11.5311ZM14.7188 10.2186C14.625 10.7811 13.9688 10.9061 13.5313 10.6561C12.625 10.1248 13.125 8.28107 12 7.99982C10.6563 7.65607 8.90628 9.99982 8.65628 9.74982C8.34378 9.40607 9.00003 7.96857 8.90628 7.03107C8.62503 4.62482 6.75003 6.96857 6.00003 8.90607C5.84378 9.28107 4.68753 8.28107 4.68753 8.28107C5.28128 5.71857 3.87503 5.74982 4.31253 4.93732C5.21878 3.12482 6.56253 6.62482 8.40628 4.71857C10.4063 2.68732 9.65628 9.28107 11.5313 6.49982C13.25 3.96857 12.9688 6.06232 13.3438 5.93732C14 5.71857 15.125 3.56232 14.5313 7.53107C10.8125 6.84357 14.9063 9.12482 14.7188 10.2186ZM17.4688 11.1873C17 11.0936 16.5 10.2811 15.9375 10.5623C15.4688 10.7811 15.4375 12.0311 15.25 12.4686C15.0313 12.9998 14.3125 13.6561 13.875 12.8748C13.7813 12.6873 15.125 11.8436 15.2813 11.4686C15.5938 10.7498 14.9375 10.6873 15 10.2186C15.2188 8.78107 11.7813 7.34357 14.875 7.87482C16.625 8.18732 16.2188 6.03107 17.0313 6.49982C18.5938 7.43732 15.875 9.78107 17.625 9.81232C17.5 10.2811 17.5625 10.7498 17.4688 11.1873Z" fill="#C7E755"/>
<path d="M2.68759 10.8124C3.18759 11.2812 3.34384 11.9374 3.03134 12.2499C2.75009 12.5624 2.12509 12.4062 1.62509 11.9062C1.12509 11.4062 0.968836 10.7812 1.28134 10.4687C1.59384 10.1874 2.21884 10.3437 2.68759 10.8124Z" fill="#ED4C5C"/>
</svg>
