<svg width="22" height="22" viewBox="0 0 22 22" fill="none" xmlns="http://www.w3.org/2000/svg">
<path d="M7.20844 6.1842C7.20844 6.1842 5.71141 5.72873 4.47391 7.11405C3.03532 8.72623 3.7486 11.1875 4.40173 13.0128C5.05485 14.8381 5.35391 15.493 5.68048 17.0415C5.92626 18.2 6.19954 20.2625 8.27407 20.9328C9.72469 21.4003 11.2183 20.3433 11.2183 20.3433C11.2183 20.3433 11.8319 21.029 13.1863 21.1923C14.6524 21.3676 16.2078 20.9122 16.7492 19.6334C17.0328 18.9648 17.3078 16.8215 17.502 15.4586C17.7564 13.6711 18.6656 11.7306 18.8925 10.1923C19.085 8.8792 18.7619 5.84217 14.6867 5.76139C13.2619 5.73389 11.66 6.29936 11.66 6.29936C11.66 6.29936 10.4053 5.64108 9.44798 5.53452C7.60548 5.32827 7.20844 6.1842 7.20844 6.1842Z" fill="#7CB342"/>
<path d="M16.6667 6.11373C16.1408 5.88342 15.5117 5.67029 14.3859 5.59982C12.7909 5.50014 11.6617 6.29764 11.6617 6.29764C11.6617 6.29764 10.407 5.63935 9.4497 5.53279C7.60548 5.32654 7.03829 6.14639 7.03829 6.14639C7.03829 6.14639 7.33907 6.19795 7.82376 6.3767C8.21735 6.52107 8.07126 6.8717 7.74641 6.90435C7.10876 6.96795 6.58798 7.38732 6.52438 7.6142C6.52438 7.6142 7.5436 7.17592 8.60579 7.51107C10.0186 7.95795 10.4002 9.00639 10.4002 9.00639C10.4002 9.00639 11.1959 8.07826 13.0866 7.64857C14.8844 7.23951 16.1769 8.01467 16.1769 8.01467C16.072 7.56092 15.8125 7.33404 15.5805 7.11748C15.1628 6.72732 15.3003 6.38529 15.7266 6.26498C16.0806 6.16529 16.6667 6.11373 16.6667 6.11373Z" fill="#558B2F"/>
<path d="M6.95063 1.91971C6.9661 2.74128 7.59172 3.12284 7.87876 3.14003C8.45969 3.17268 8.8911 2.46799 9.97391 3.50784C10.4139 3.93065 10.5858 4.53221 10.572 5.13034C10.5669 5.32799 10.615 6.06706 10.2678 6.23206C10.1595 6.28362 10.0873 6.32315 9.75047 6.19424C9.37407 6.04987 9.03891 6.40737 9.03891 6.40737L9.68516 7.14471L11.2853 7.66378L12.8906 7.34409L13.8188 6.52768C13.8188 6.52768 13.3874 6.19253 13.0127 6.32659C12.8098 6.39878 12.418 6.28018 12.4163 6.04299C12.4094 5.54284 12.43 5.06674 12.3372 4.56831C12.1825 3.74503 11.8319 2.95784 11.2698 2.33221C10.4638 1.43503 9.31048 0.969245 8.14001 0.780182C7.17923 0.627214 6.93516 1.10846 6.95063 1.91971Z" fill="#E0E080"/>
<path d="M10.7026 1.81347C9.9653 1.24972 9.0578 0.928314 8.13827 0.780501C7.82889 0.730657 7.59514 0.747845 7.41983 0.818314C7.77733 0.826907 8.46999 1.00222 9.58889 1.77394C10.2936 2.25863 11.6858 3.99972 10.5273 5.79925C10.4964 5.94878 10.4414 6.08456 10.3486 6.1705C10.6356 6.04159 11.1959 5.59988 11.3231 4.42425C11.4572 3.17988 11.1615 2.35831 10.7026 1.81347Z" fill="#C4C451"/>
<path opacity="0.6" d="M9.90515 13.1212C9.8914 13.7726 9.99625 15.2266 10.4019 17.2977C10.7473 19.0612 10.3967 20.3416 9.93781 20.914C10.6803 20.7129 11.2166 20.3451 11.2166 20.3451C11.2166 20.3451 11.4073 19.637 11.4194 18.9134C11.4348 18.0437 11.0722 16.2974 10.6477 14.9121C10.3486 13.9393 10.2592 12.4715 10.2455 11.6465C10.2455 11.6448 9.92922 11.9438 9.90515 13.1212Z" fill="#33691E"/>
<path opacity="0.75" d="M8.91168 10.8728C8.72949 10.8934 8.56449 10.7782 8.42699 10.6665C7.92511 10.2557 7.6398 9.91197 7.07605 9.56994C6.63949 9.30525 5.77839 9.1265 6.06714 8.45103C6.20636 8.12619 6.74089 8.08494 7.10355 8.14681C8.36683 8.35994 8.92886 9.10244 9.19527 10.0306C9.24168 10.1921 9.30355 10.3554 9.26746 10.5221C9.23308 10.6871 9.09902 10.847 8.92027 10.8728H8.91168ZM12.8648 9.03884C13.6967 8.54384 14.9239 8.55416 15.9517 9.0801C16.206 9.21072 16.4501 9.38088 16.5979 9.62666C16.7096 9.81228 16.7389 10.0907 16.5618 10.2162C16.414 10.3193 16.2112 10.2574 16.0393 10.2024C15.0081 9.87588 13.8411 9.99963 12.9026 10.5376C12.5486 10.7404 11.7889 11.4915 11.5654 10.9656C11.3437 10.4345 11.8301 9.65416 12.8648 9.03884Z" fill="#BBE68B"/>
</svg>
