<svg width="20" height="20" viewBox="0 0 20 20" fill="none" xmlns="http://www.w3.org/2000/svg">
<path d="M7.52813 10.6955L1.04688 10.9299C1.04688 10.9299 0.635944 10.519 0.695319 10.3721C0.754694 10.2252 6.12188 6.03148 6.32657 6.06116C6.53126 6.09085 7.00157 6.58929 7.38282 6.41272C7.76407 6.23616 7.38282 5.2096 7.50001 5.06429C7.61719 4.91741 11.8109 2.6596 12.075 2.54241C12.3391 2.42523 12.5734 2.16116 13.1016 2.27835C13.6297 2.39554 14.95 2.62991 16.3859 3.59866C17.8219 4.56741 19.3188 5.68147 19.2016 6.2971C19.0844 6.91272 7.52813 10.6955 7.52813 10.6955Z" fill="#FFE265"/>
<path d="M3.04063 18.0578C4.47813 17.8813 17.8813 15.0078 18.4391 14.9203C18.9969 14.8328 19.3484 14.3047 19.3484 13.7172C19.3484 13.1297 19.2016 6.29688 19.2016 6.29688C19.2016 6.29688 18.5563 6.50156 17.7938 6.67813C17.0313 6.85313 10.7828 8.37812 8.32032 8.93594C5.85782 9.49375 1.92657 10.5203 1.48594 10.5203C1.04532 10.5203 0.693756 10.3734 0.693756 10.3734C0.693756 10.3734 0.810944 16.4734 0.840631 16.9141C0.870319 17.3547 1.07501 17.8813 1.57344 18.0281C2.07188 18.175 2.39688 18.1359 3.04063 18.0578Z" fill="#FEB502"/>
<path d="M11.7141 3.99363C11.7141 4.36863 12.0953 4.61707 12.7265 4.59832C13.4156 4.57801 13.6062 4.16863 13.5844 3.90613C13.5625 3.64207 13.2453 3.41082 12.6172 3.42176C12.0344 3.4327 11.7141 3.66395 11.7141 3.99363Z" fill="#FF8B0D"/>
<path d="M4.675 8.66886C3.65938 9.01105 3.77344 9.90011 4.07032 10.0986C4.36719 10.297 4.7625 10.2861 5.225 10.1204C5.6875 9.9548 5.98125 9.76574 6.02813 9.45636C6.07188 9.16261 5.6875 8.32668 4.675 8.66886ZM13.9031 6.12824C13.2219 6.15949 12.4688 6.64855 12.1875 7.11886C11.8906 7.61418 11.8688 8.19699 12.55 8.55949C13.2313 8.92199 15.6406 7.99855 15.5203 7.15168C15.4 6.30324 14.6188 6.09543 13.9031 6.12824ZM11.5391 12.9798C11.5391 12.9798 12.5063 12.2642 12.5063 11.7595C12.5063 11.2532 12.0891 10.0579 10.3172 9.9673C8.65625 9.88136 7.63282 12.1454 8.72188 13.3111C9.81094 14.4767 10.4703 13.9486 10.8781 13.8392C11.2859 13.7282 11.5391 12.9798 11.5391 12.9798ZM6.75469 15.0142C6.75469 15.0142 7.71563 14.4126 6.97813 13.7532C6.45938 13.2892 5.76563 13.4986 5.4125 13.8595C4.96094 14.322 5.08282 15.0579 5.5 15.3876C5.91875 15.7189 6.75469 15.0142 6.75469 15.0142ZM3.49844 12.3095C3.49844 12.3095 3.38907 11.9642 2.99688 11.8251C2.55625 11.6689 1.89844 12.2173 2.17969 12.8032C2.43282 13.3314 2.99375 13.1767 2.99375 13.1767L3.49844 12.3095ZM17.5656 12.8142C17.6609 12.7111 18.2844 12.2611 18.2844 11.9189C18.2844 11.5782 17.3453 10.5251 16.1469 11.3173C14.9484 12.1095 15.575 13.3079 15.9047 13.5064C16.2344 13.7048 17.1484 13.2657 17.5656 12.8142Z" fill="#ED6B31"/>
<path d="M4.82189 9.20766C4.1547 9.43891 3.90314 9.91078 4.07032 10.0983C4.24689 10.2967 4.63126 10.428 5.30157 10.1858C5.82032 9.99828 6.08282 9.68422 6.03907 9.40453C6.00782 9.20141 5.42657 8.99828 4.82189 9.20766ZM2.59689 12.2858C2.3047 12.6514 2.5422 13.067 2.8172 13.1655C3.0922 13.2639 3.57657 12.967 3.54376 12.4733C3.50939 11.978 2.86095 11.9561 2.59689 12.2858ZM5.99532 14.278C5.3672 14.7873 5.35001 15.2858 5.5922 15.4545C5.76095 15.5733 6.38282 15.8202 6.95157 15.3998C7.37345 15.0889 7.38126 14.4358 7.24845 14.1233C7.13751 13.8577 6.52345 13.8483 5.99532 14.278ZM9.80782 11.5014C8.9672 12.3186 8.7672 13.6452 9.5922 13.9577C10.3188 14.2327 11.3625 14.067 11.9781 13.3092C12.625 12.5123 12.6938 11.6327 12.2781 11.1139C11.7813 10.4905 10.4578 10.8717 9.80782 11.5014ZM13.6281 6.94203C12.5281 7.31547 11.8797 8.10766 12.4406 8.50453C13.0016 8.89985 13.5844 8.84203 14.2219 8.62485C14.9453 8.37953 15.4984 7.81078 15.5203 7.27172C15.5375 6.82953 14.5969 6.61235 13.6281 6.94203ZM16.5656 11.9998C15.8172 12.6092 15.5984 13.2202 15.9063 13.5061C16.2141 13.792 16.9516 13.9233 17.6328 13.4514C18.3406 12.9608 18.3922 12.4045 18.3141 11.9561C18.2266 11.4514 17.3344 11.3733 16.5656 11.9998Z" fill="#FF8B0D"/>
</svg>
