<svg width="21" height="20" viewBox="0 0 21 20" fill="none" xmlns="http://www.w3.org/2000/svg">
<g clip-path="url(#clip0_506_2708)">
<path d="M11.1716 11.2897L17.5196 18.4444C17.5196 18.4444 17.8992 18.6801 18.2232 18.4734C18.5471 18.2654 18.454 17.5803 17.8867 16.4793C17.3724 15.4817 15.8505 12.9134 14.9032 11.6668C14.2071 10.7517 13.2908 9.35422 12.3751 8.49677C11.9528 8.09993 11.6296 7.87763 11.1296 7.75463C9.59495 7.37761 8.97012 8.12955 8.97012 8.12955L11.1716 11.2897Z" fill="#ED6C31"/>
<path d="M17.7875 18.0076C17.6227 17.2151 16.0845 15.0844 15.3721 13.998C14.6597 12.9115 12.0473 9.13216 11.0174 8.63338C10.4419 8.35523 9.38867 8.23085 8.72868 8.67665C8.06868 9.12245 7.5606 9.9615 8.19072 11.094C8.77284 12.1386 11.8678 14.1735 13.1622 15.1948C14.9191 16.5802 16.5693 17.8122 17.2867 18.3108C17.5295 18.4806 17.6548 18.5029 17.6548 18.5029C17.6548 18.5029 17.8524 18.3134 17.7875 18.0076Z" fill="#FF8D02"/>
<path d="M6.7061 7.78199C6.98154 7.81504 7.23623 8.0579 7.67297 8.48549C8.24894 9.04772 8.2191 9.28156 8.51258 9.38048C8.69618 9.44142 9.08513 9.30707 9.4979 8.95865C9.8674 8.64735 9.98413 8.366 9.95922 8.25099C9.90097 7.97187 9.48335 7.81828 8.94001 7.24157C8.53764 6.81354 8.39666 6.66345 8.41106 6.44528C8.42389 6.22573 8.65117 6.03578 8.92157 5.79606C9.32332 5.44075 9.68018 4.7513 9.40708 4.04457C9.0807 3.20351 8.20846 3.18088 8.11048 3.09494C8.0125 3.00899 8.01829 2.36059 7.57498 2.03012C7.13323 1.69964 6.07114 1.61615 5.78084 1.76611C5.49054 1.91608 3.48787 8.70062 3.48787 8.70062C3.48787 8.70062 4.41177 8.97573 5.0793 8.75345C6.12959 8.40252 6.19122 7.72105 6.7061 7.78199Z" fill="#2F7C31"/>
<path d="M10.8242 12.4783C11.1234 12.1735 10.882 11.8644 10.6512 11.662C10.4442 11.4804 9.97785 11.0574 9.83013 10.8694C9.68241 10.6815 9.35259 10.3059 9.13849 10.0597C8.9244 9.81355 8.217 9.8507 8.33191 10.4062C8.40182 10.7414 8.74726 11.1167 9.14169 11.535C9.45375 11.8657 9.93062 12.2548 10.1749 12.4134C10.4191 12.5706 10.6637 12.6407 10.8242 12.4783ZM12.3856 13.7339C12.1586 13.9436 12.3174 14.1398 12.6616 14.4167C13.0057 14.6936 13.2421 14.7243 13.4165 14.5562C13.662 14.321 13.3463 14.0775 13.0954 13.8824C12.8444 13.6873 12.6405 13.4986 12.3856 13.7339Z" fill="#FFA726"/>
<path d="M10.0754 10.742C10.2242 10.8906 10.4787 10.8761 10.6952 10.6989C10.9581 10.4832 11.1821 10.2764 11.3485 10.0957C11.5134 9.91638 11.4324 9.68677 11.3126 9.60814C11.1487 9.50053 10.9365 9.52434 10.751 9.68562C10.595 9.82263 10.2238 10.1269 10.0792 10.306C9.9854 10.4239 9.9361 10.6017 10.0754 10.742ZM11.3603 13.2275C11.574 13.4428 11.9037 13.3176 12.1579 13.1555C12.4121 12.9919 12.7432 12.7317 12.5426 12.4403C12.342 12.149 11.8031 12.4146 11.5877 12.5496C11.3722 12.6859 11.0897 12.9567 11.3603 13.2275ZM14.0445 14.5378C14.2844 14.7302 14.556 14.5833 14.7421 14.3516C14.936 14.1101 15.0508 13.8063 14.8318 13.6586C14.6127 13.5109 14.2996 13.7104 14.1551 13.8979C14.009 14.0854 13.8155 14.3536 14.0445 14.5378ZM15.7534 16.9419C15.9548 17.1742 16.3261 17.0049 16.4825 16.8876C16.6388 16.7703 16.8532 16.5552 16.6538 16.3538C16.4591 16.158 16.1637 16.2757 15.9542 16.3895C15.6702 16.5436 15.6234 16.7931 15.7534 16.9419Z" fill="#ED6C31"/>
<path d="M2.61003 6.76697C2.58836 6.66036 1.21113 5.63722 2.11436 4.04776C2.98549 2.51355 4.4301 3.18424 4.52 3.12683C4.6099 3.06943 4.57322 2.39906 5.19183 2.01708C5.85541 1.6078 6.22722 1.7226 6.22722 1.7226C6.22722 1.7226 6.85402 1.85945 7.01107 2.53391C7.11027 2.96018 6.90229 3.43818 6.97899 3.57081C7.05568 3.70344 7.7474 3.66227 8.02445 4.43364C8.20103 4.92361 7.9887 5.91781 7.31419 6.57334C6.63044 7.23884 5.8964 7.02459 5.54845 7.43266C5.06502 7.99996 4.38608 9.16466 3.26811 8.6206C1.98347 7.99568 2.63169 6.87217 2.61003 6.76697Z" fill="#709921"/>
</g>
<defs>
<clipPath id="clip0_506_2708">
<rect width="18" height="20" fill="white" transform="translate(0.229736 19.2285) rotate(-90.731)"/>
</clipPath>
</defs>
</svg>
