<svg width="20" height="20" viewBox="0 0 20 20" fill="none" xmlns="http://www.w3.org/2000/svg">
<path d="M18.7141 10.8404C18.7141 10.8404 18.9813 8.80138 18.4953 7.87951C18.0094 6.95763 16.5094 4.92169 13.3984 4.55451C11.7484 4.36076 10.6313 4.57951 9.6125 4.69982C8.96719 4.77638 7.76563 4.37951 5.60782 4.87013C4.00782 5.23419 1.57969 6.64201 0.790629 9.67638C0.375004 11.2748 0.532816 13.0014 1.24063 14.4561C2.6 17.2467 5.12344 17.9264 5.12344 17.9264L10.1953 18.3389L16.3359 15.742L18.7141 10.8404Z" fill="#FF2A23"/>
<path d="M12.8172 18.6062C16.0453 17.9749 18.8359 15.0874 19.3219 12.0296C19.7766 9.16865 18.1047 7.25146 18.1047 7.25146C18.1047 7.25146 18.2953 8.77803 17.9391 10.4046C17.5563 12.1452 16.4484 15.0468 12.9391 16.6905C8.63126 18.7077 3.91251 17.378 3.91251 17.378C3.91251 17.378 7.11876 19.7202 12.8172 18.6062Z" fill="#DC0D27"/>
<path d="M3.89375 8.24382C3.03594 8.02194 1.96563 8.67038 1.81094 10.5688C1.66875 12.3079 2.61094 14.4032 3.53438 14.1532C4.31875 13.9407 3.56407 12.4876 3.84375 11.2954C4.12657 10.1032 5.20157 8.58288 3.89375 8.24382Z" fill="#FED3B0"/>
<path d="M4.97968 7.19551C4.8578 7.35332 5.14062 8.04707 6.57655 8.03769C8.01093 8.02832 8.25155 7.59551 8.89062 7.78926C9.52968 7.98301 10.0281 8.75176 10.7344 9.17207C11.7219 9.75957 13.1469 9.60957 13.1375 9.34863C13.1281 9.08613 12.7797 9.22051 12.4797 8.85332C12.1797 8.48457 11.6484 7.51113 11.6484 7.51113C11.6484 7.51113 11.7969 7.05488 12.1109 7.07207C12.8359 7.11113 13.6422 6.96738 14.0859 6.68926C14.6172 6.35801 14.8172 5.84707 14.7203 5.72988C14.6234 5.61426 14.3219 5.92676 14.1578 5.89707C13.9937 5.86738 12.9266 5.88769 12.9266 5.88769L11.6375 5.67832C11.6375 5.67832 11.8141 4.92363 12.1625 4.53613C12.5109 4.14863 13.0578 3.61582 13.0469 3.54863C13.0359 3.48144 12.5969 3.54082 12.5969 3.54082L11.2391 4.16113L10.2891 5.41113L8.48593 5.64394L6.74999 4.47988C6.74999 4.47988 5.75468 3.67676 5.70937 3.69551C5.4578 3.79863 5.84062 4.18144 6.12968 4.64394C6.37968 5.04551 6.43124 5.24707 6.76874 5.52676C7.09843 5.79863 7.65155 6.06894 7.65155 6.06894L7.25468 6.78613C7.25468 6.78613 5.97499 7.29082 5.75155 7.29082C5.52968 7.29238 5.04687 7.10957 4.97968 7.19551Z" fill="#BDCF44"/>
<path d="M8.98595 6.76256C9.50938 6.80162 9.88751 7.49694 10.3594 7.97037C11.0484 8.65944 11.5875 9.01881 12.1672 9.15475C12.4578 9.22194 13.125 9.33287 13.125 9.33287C13.125 9.33287 13.2219 9.26569 12.8922 9.08131C12.5625 8.89694 12.3641 8.54381 12.3156 8.37975C12.2672 8.21569 12.1156 7.67662 11.7969 7.22975C11.4781 6.78287 11.1156 6.59381 11.2313 6.39069C11.3469 6.18756 12.3469 6.53131 13.3094 6.37662C14.5797 6.1735 14.7734 5.76569 14.7156 5.71725C14.6578 5.66881 13.8719 5.90162 13.475 5.81412C13.0781 5.72662 12.7375 5.45475 12.1375 5.45475C11.7281 5.45475 11.3281 5.60319 11.2203 5.37975C11.1297 5.19225 11.4703 4.56569 11.7297 4.32975C12.3594 3.75787 13.0391 3.62194 13.0391 3.54381C13.0391 3.38287 11.9344 3.29225 11.1688 3.90319C10.4063 4.511 10.55 5.30944 9.55938 5.30944C9.2297 5.30944 9.10313 5.23131 9.10313 5.23131C9.10313 5.23131 8.66095 4.86725 8.07032 4.54694C7.4797 4.22662 7.03438 4.36881 6.69376 4.20475C6.3547 4.04069 5.75313 3.61569 5.69532 3.70162C5.63751 3.78756 6.14688 4.36881 6.78751 4.84381C7.42813 5.31881 8.14532 5.561 7.94063 5.75475C7.73751 5.9485 7.39845 6.07506 7.07813 6.31725C6.75782 6.55944 6.47657 6.90787 6.08907 7.03444C5.70157 7.161 5.06407 7.07194 4.97657 7.17819C4.88907 7.28444 5.65157 7.65162 6.84376 7.42975C8.03282 7.20787 8.03595 6.69225 8.98595 6.76256Z" fill="#94A61D"/>
<path d="M10.175 0.77203C9.91406 0.75953 9.58437 0.96578 9.58437 0.96578C9.58437 0.96578 9.10624 1.54859 8.91718 2.99547C8.82968 3.66422 8.92499 4.56266 8.90624 5.05797C8.88749 5.55172 8.77968 5.73609 8.80937 5.98922C8.83906 6.24078 9.10312 6.52516 9.71406 6.51891C10.2047 6.51422 10.4578 6.13453 10.4484 5.99859C10.4391 5.86266 10.0187 4.47672 10.1375 3.25484C10.2484 2.11891 10.6625 1.33453 10.6797 1.17047C10.6891 1.08141 10.5719 0.79078 10.175 0.77203Z" fill="#728035"/>
</svg>
