<svg width="24" height="24" viewBox="0 0 24 24" fill="none" xmlns="http://www.w3.org/2000/svg">
<path d="M20 10C20.5304 10 21.0391 10.2108 21.4142 10.5858C21.7893 10.9609 22 11.4696 22 12V12.5C22 14.194 19.753 17.99 18.017 19.483L18 19.496V20C18.0002 20.5046 17.8096 20.9906 17.4665 21.3606C17.1234 21.7306 16.6532 21.9572 16.15 21.995L16 22H8C7.46957 22 6.96086 21.7893 6.58579 21.4143C6.21071 21.0392 6 20.5305 6 20V19.504L5.935 19.451C4.175 17.955 2.141 14.486 2.007 12.681L2 12.5V12C2 11.4696 2.21071 10.9609 2.58579 10.5858C2.96086 10.2108 3.46957 10 4 10H20ZM11.417 3.18804C11.5234 3.10711 11.6449 3.04833 11.7744 3.01516C11.9038 2.982 12.0386 2.97512 12.1708 2.99495C12.303 3.01477 12.4298 3.06088 12.5439 3.13057C12.6579 3.20025 12.7569 3.2921 12.8348 3.40066C12.9128 3.50923 12.9682 3.63232 12.9977 3.76266C13.0273 3.89301 13.0304 4.02795 13.007 4.15953C12.9835 4.2911 12.9339 4.41664 12.861 4.52871C12.7882 4.64079 12.6937 4.73713 12.583 4.81204C12.208 5.08204 11.99 5.51804 12 6.02104C11.9951 6.24827 12.0457 6.47327 12.1473 6.67659C12.2488 6.87992 12.3984 7.05545 12.583 7.18804C12.6937 7.26295 12.7882 7.35929 12.861 7.47137C12.9339 7.58344 12.9835 7.70898 13.007 7.84055C13.0304 7.97213 13.0273 8.10707 12.9977 8.23741C12.9682 8.36776 12.9128 8.49085 12.8348 8.59941C12.7569 8.70798 12.6579 8.79982 12.5439 8.86951C12.4298 8.93919 12.303 8.98531 12.1708 9.00513C12.0386 9.02495 11.9038 9.01808 11.7744 8.98491C11.6449 8.95175 11.5234 8.89297 11.417 8.81204C10.9733 8.49554 10.6127 8.07643 10.366 7.59045C10.1192 7.10447 9.99367 6.56603 10 6.02104C9.98853 5.46928 10.1116 4.92302 10.3584 4.42944C10.6053 3.93586 10.9686 3.50979 11.417 3.18804ZM15.417 3.18804C15.5234 3.10711 15.6449 3.04833 15.7744 3.01516C15.9038 2.982 16.0386 2.97512 16.1708 2.99495C16.303 3.01477 16.4298 3.06088 16.5439 3.13057C16.6579 3.20025 16.7569 3.2921 16.8348 3.40066C16.9128 3.50923 16.9682 3.63232 16.9977 3.76266C17.0273 3.89301 17.0304 4.02795 17.007 4.15953C16.9835 4.2911 16.9339 4.41664 16.861 4.52871C16.7882 4.64079 16.6937 4.73713 16.583 4.81204C16.208 5.08204 15.99 5.51804 16 6.02104C15.9951 6.24827 16.0457 6.47327 16.1473 6.67659C16.2488 6.87992 16.3984 7.05545 16.583 7.18804C16.6937 7.26295 16.7882 7.35929 16.861 7.47137C16.9339 7.58344 16.9835 7.70898 17.007 7.84055C17.0304 7.97213 17.0273 8.10707 16.9977 8.23741C16.9682 8.36776 16.9128 8.49085 16.8348 8.59941C16.7569 8.70798 16.6579 8.79982 16.5439 8.86951C16.4298 8.93919 16.303 8.98531 16.1708 9.00513C16.0386 9.02495 15.9038 9.01808 15.7744 8.98491C15.6449 8.95175 15.5234 8.89297 15.417 8.81204C14.9733 8.49554 14.6127 8.07643 14.366 7.59045C14.1192 7.10447 13.9937 6.56603 14 6.02104C13.9885 5.46928 14.1116 4.92302 14.3584 4.42944C14.6053 3.93586 14.9686 3.50979 15.417 3.18804ZM7.417 3.18804C7.52337 3.10711 7.64488 3.04833 7.77435 3.01516C7.90382 2.982 8.03863 2.97512 8.1708 2.99495C8.30298 3.01477 8.42984 3.06088 8.54389 3.13057C8.65794 3.20025 8.75686 3.2921 8.83481 3.40066C8.91276 3.50923 8.96815 3.63232 8.99772 3.76266C9.02729 3.89301 9.03043 4.02795 9.00695 4.15953C8.98348 4.2911 8.93386 4.41664 8.86105 4.52871C8.78823 4.64079 8.69369 4.73713 8.583 4.81204C8.208 5.08204 7.99 5.51804 8 6.02104C7.99515 6.24827 8.04569 6.47327 8.14727 6.67659C8.24884 6.87992 8.39839 7.05545 8.583 7.18804C8.69369 7.26295 8.78823 7.35929 8.86105 7.47137C8.93386 7.58344 8.98348 7.70898 9.00695 7.84055C9.03043 7.97213 9.02729 8.10707 8.99772 8.23741C8.96815 8.36776 8.91276 8.49085 8.83481 8.59941C8.75686 8.70798 8.65794 8.79982 8.54389 8.86951C8.42984 8.93919 8.30298 8.98531 8.1708 9.00513C8.03863 9.02495 7.90382 9.01808 7.77435 8.98491C7.64488 8.95175 7.52337 8.89297 7.417 8.81204C6.97328 8.49554 6.61269 8.07643 6.36595 7.59045C6.11922 7.10447 5.99366 6.56603 6 6.02104C5.98853 5.46928 6.11155 4.92302 6.35843 4.42944C6.60531 3.93586 6.96862 3.50979 7.417 3.18804Z" fill="#545454"/>
</svg>
