<svg width="20" height="20" viewBox="0 0 20 20" fill="none" xmlns="http://www.w3.org/2000/svg">
<path d="M0.600004 12.8157C0.351566 10.2063 1.83907 8.13602 3.1 7.30164C4.38907 6.44852 4.99063 6.32664 5.28125 6.16258C6.62032 5.40946 7.5625 3.72977 9.3625 2.49071C11.4109 1.08133 14.2125 0.871957 15.9313 1.81414C17.4984 2.67352 19.1047 4.54539 18.675 8.27196C18.2453 11.9985 8.88282 18.1313 7.27657 18.2188C5.67032 18.3063 0.975004 16.7595 0.600004 12.8157Z" fill="#B8885A"/>
<path d="M11.0375 11.9828C10.3016 12.4141 7.53749 15.1531 4.36561 15.0781C1.19374 15.0031 0.706238 13.4703 0.706238 13.4703C0.706238 13.4703 1.16093 16.1422 3.34843 17.725C5.82343 19.5156 8.44843 18.8109 9.21405 18.6391C10.35 18.3844 11.3531 17.8625 12.3578 17.3172C13.3625 16.7719 16.9344 15.0516 18.3375 12.3438C19.8859 9.35625 19.5172 6.9625 18.7437 5.22187C17.925 3.37969 17.1266 2.70312 17.1266 2.70312C17.1266 2.70312 17.8703 6.56094 16.2953 8.70781C14.0609 11.7531 11.7734 11.5516 11.0375 11.9828Z" fill="#875B52"/>
<path d="M9.87969 15.1825C9.88907 15.3794 10.5906 15.3637 11.1 15.2809C11.6391 15.1934 12.0844 15.1856 12.1594 14.9778C12.2344 14.77 11.4125 14.0466 10.9281 14.0716C10.625 14.0887 9.86563 14.895 9.87969 15.1825ZM13.5297 15.5622C13.6344 15.7137 14.0688 15.4825 14.2281 15.2747C14.3875 15.0669 14.5672 14.6653 14.4234 14.5762C14.2797 14.4872 13.8688 14.4887 13.6656 14.7387C13.4641 14.9903 13.425 15.4106 13.5297 15.5622ZM18.3203 5.98093C18.15 5.68093 17.8453 6.3903 17.8313 6.63562C17.8172 6.88093 18.0016 7.02468 18.2063 7.06843C18.4078 7.11062 18.8672 6.94499 18.3203 5.98093ZM4.54376 16.7309C4.40626 16.9637 4.63282 17.1325 4.86251 17.2887C5.04376 17.4122 5.48751 17.4778 5.57501 17.3403C5.66407 17.2028 5.48907 17.0169 5.15782 16.7387C4.93126 16.5497 4.68126 16.4981 4.54376 16.7309Z" fill="#513531"/>
<path d="M2.71874 13.1625C2.52343 13.2984 2.68124 13.9015 2.7078 14.0171C2.73437 14.1328 3.51249 14.1734 3.62812 13.9953C3.74374 13.8171 3.49999 13.5593 3.32812 13.3796C3.15624 13.2015 2.91405 13.0265 2.71874 13.1625ZM4.10937 11.7578C4.34999 12.0843 4.78593 11.6921 4.85624 11.4C4.93124 11.0859 4.66718 10.8812 4.36874 11.0671C4.12968 11.214 3.96874 11.5687 4.10937 11.7578ZM7.22187 5.54058C6.90937 5.40933 6.79062 5.68433 6.67343 5.96246C6.55624 6.24058 6.17812 6.74683 6.41562 6.81715C6.65312 6.88746 7.21249 6.85465 7.35155 6.62808C7.49062 6.39996 7.53437 5.6734 7.22187 5.54058Z" fill="#875B52"/>
<path d="M1.88596 12.4189C2.22971 12.5736 2.76409 11.8424 3.0094 11.4908C3.37034 10.9736 3.91409 10.3205 5.18753 9.53145C6.9344 8.4502 8.75784 8.72207 9.69534 7.90801C10.6328 7.09395 11.1766 5.47989 11.8922 4.67989C13.2 3.21739 14.5578 4.21582 14.7469 3.50801C14.936 2.8002 13.9672 2.19864 12.8235 2.2002C11.6813 2.20332 10.375 2.62364 9.18753 4.54395C8.00003 6.46426 7.70471 7.05176 6.60315 7.39864C5.50159 7.74707 4.13284 8.20645 2.81409 9.67364C2.08128 10.4893 1.31253 12.1611 1.88596 12.4189Z" fill="#D9AC82"/>
<path d="M12.9328 5.2847C13 5.7847 13.6875 6.05657 14.0922 6.06126C14.4719 6.06595 14.7453 5.81907 14.7406 5.56751C14.736 5.26595 14.2453 5.12689 14.0531 5.05189C13.6766 4.90657 13.5891 4.59095 13.2375 4.70345C12.9188 4.80657 12.9235 5.20813 12.9328 5.2847Z" fill="#875B52"/>
</svg>
