<svg width="19" height="15" viewBox="0 0 19 15" fill="none" xmlns="http://www.w3.org/2000/svg">
<g clip-path="url(#clip0_511_6521)">
<path d="M10.2927 5.96249C10.2927 5.96249 10.4397 4.841 10.1724 4.33397C9.90516 3.82694 9.08016 2.70718 7.36914 2.50522C6.46164 2.39866 5.84719 2.51897 5.28688 2.58514C4.93195 2.62725 4.27109 2.40897 3.0843 2.67882C2.2043 2.87905 0.868829 3.65335 0.434845 5.32225C0.206251 6.20139 0.293048 7.151 0.682345 7.95108C1.43 9.48593 2.81789 9.85975 2.81789 9.85975L5.60742 10.0866L8.98477 8.65835L10.2927 5.96249Z" fill="#FF2A23"/>
<path d="M7.04945 10.2334C8.82492 9.88617 10.3598 8.29805 10.627 6.61625C10.8771 5.04273 9.95758 3.98828 9.95758 3.98828C9.95758 3.98828 10.0624 4.82789 9.86648 5.7225C9.65594 6.67984 9.04664 8.2757 7.11648 9.17977C4.74719 10.2892 2.15187 9.55789 2.15187 9.55789C2.15187 9.55789 3.91531 10.8461 7.04945 10.2334Z" fill="#DC0D27"/>
<path d="M2.14156 4.53415C1.66976 4.41212 1.08109 4.76876 0.996015 5.8129C0.917812 6.76938 1.43601 7.9218 1.94391 7.7843C2.37531 7.66743 1.96023 6.86821 2.11406 6.21251C2.26961 5.5568 2.86086 4.72063 2.14156 4.53415Z" fill="#FED3B0"/>
<path d="M2.73883 3.95748C2.6718 4.04428 2.82734 4.42584 3.61711 4.42068C4.40601 4.41553 4.53836 4.17748 4.88984 4.28404C5.24133 4.3906 5.51547 4.81342 5.90391 5.04459C6.44703 5.36771 7.23078 5.28521 7.22562 5.1417C7.22047 4.99732 7.02883 5.07123 6.86383 4.86928C6.69883 4.66646 6.40664 4.13107 6.40664 4.13107C6.40664 4.13107 6.48828 3.88014 6.66102 3.88959C7.05976 3.91107 7.5032 3.83201 7.74726 3.67904C8.03945 3.49686 8.14945 3.21584 8.09617 3.15139C8.04289 3.08779 7.87703 3.25967 7.7868 3.24334C7.69656 3.22701 7.10961 3.23818 7.10961 3.23818L6.40062 3.12303C6.40062 3.12303 6.49773 2.70795 6.68937 2.49482C6.88101 2.2817 7.1818 1.98865 7.17578 1.9517C7.16976 1.91475 6.92828 1.9474 6.92828 1.9474L6.18148 2.28857L5.65898 2.97607L4.66727 3.10412L3.7125 2.46389C3.7125 2.46389 3.16508 2.02217 3.14016 2.03248C3.0018 2.0892 3.21234 2.29975 3.37133 2.55412C3.50883 2.77498 3.53719 2.88584 3.72281 3.03967C3.90414 3.1892 4.20836 3.33787 4.20836 3.33787L3.99008 3.73232C3.99008 3.73232 3.28625 4.0099 3.16336 4.0099C3.04133 4.01076 2.77578 3.91021 2.73883 3.95748Z" fill="#BDCF44"/>
<path d="M4.94227 3.71955C5.23016 3.74104 5.43813 4.12346 5.69766 4.38385C6.07664 4.76284 6.37313 4.96049 6.69195 5.03526C6.8518 5.07221 7.21875 5.13323 7.21875 5.13323C7.21875 5.13323 7.27203 5.09627 7.0907 4.99487C6.90938 4.89346 6.80023 4.69924 6.77359 4.60901C6.74695 4.51877 6.66359 4.22229 6.48828 3.97651C6.31297 3.73073 6.11359 3.62674 6.17719 3.51502C6.24078 3.40331 6.79078 3.59237 7.32016 3.50729C8.01883 3.39557 8.12539 3.17127 8.09359 3.14463C8.0618 3.11799 7.62953 3.24604 7.41125 3.19791C7.19297 3.14979 7.00563 3.00026 6.67563 3.00026C6.45047 3.00026 6.23047 3.0819 6.17117 2.95901C6.12133 2.85588 6.30867 2.51127 6.45133 2.38151C6.79766 2.06698 7.17148 1.99221 7.17148 1.94924C7.17148 1.86073 6.56391 1.81088 6.14281 2.1469C5.72344 2.4812 5.8025 2.92034 5.25766 2.92034C5.07633 2.92034 5.00672 2.87737 5.00672 2.87737C5.00672 2.87737 4.76352 2.67713 4.43867 2.50096C4.11383 2.32479 3.86891 2.40299 3.68156 2.31276C3.49508 2.22252 3.16422 1.98877 3.13242 2.03604C3.10063 2.08331 3.38078 2.40299 3.73313 2.66424C4.08547 2.92549 4.47992 3.0587 4.36734 3.16526C4.25563 3.27182 4.06914 3.34143 3.89297 3.47463C3.7168 3.60784 3.56211 3.79948 3.34898 3.86909C3.13586 3.9387 2.78523 3.88971 2.73711 3.94815C2.68898 4.00659 3.10836 4.20854 3.76406 4.08651C4.41805 3.96448 4.41977 3.68088 4.94227 3.71955Z" fill="#94A61D"/>
<path d="M5.59625 0.424617C5.45273 0.417742 5.27141 0.531179 5.27141 0.531179C5.27141 0.531179 5.00844 0.851726 4.90445 1.64751C4.85633 2.01532 4.90875 2.50946 4.89844 2.78188C4.88812 3.05344 4.82883 3.15485 4.84516 3.29407C4.86148 3.43243 5.00672 3.58884 5.34273 3.5854C5.61258 3.58282 5.7518 3.37399 5.74664 3.29923C5.74148 3.22446 5.51031 2.46219 5.57562 1.79016C5.63664 1.1654 5.86437 0.733992 5.87383 0.643757C5.87898 0.594773 5.81453 0.434929 5.59625 0.424617Z" fill="#728035"/>
</g>
<path d="M9.58719 4.93531C9.58719 4.93531 8.63453 4.64547 7.84703 5.52703C6.93156 6.55297 7.38547 8.11922 7.80109 9.28078C8.21672 10.4423 8.40703 10.8591 8.61484 11.8445C8.77125 12.5817 8.94516 13.8942 10.2653 14.3208C11.1884 14.6183 12.1389 13.9456 12.1389 13.9456C12.1389 13.9456 12.5294 14.382 13.3913 14.4859C14.3242 14.5975 15.3141 14.3077 15.6586 13.4939C15.8391 13.0684 16.0141 11.7045 16.1377 10.8372C16.2995 9.69969 16.8781 8.46484 17.0225 7.48594C17.145 6.65031 16.9394 4.71766 14.3461 4.66625C13.4394 4.64875 12.42 5.00859 12.42 5.00859C12.42 5.00859 11.6216 4.58969 11.0123 4.52188C9.83984 4.39063 9.58719 4.93531 9.58719 4.93531Z" fill="#7CB342"/>
<path d="M15.6061 4.89038C15.2714 4.74381 14.8711 4.60819 14.1547 4.56335C13.1397 4.49991 12.4211 5.00741 12.4211 5.00741C12.4211 5.00741 11.6227 4.5885 11.0134 4.52069C9.83984 4.38944 9.47891 4.91116 9.47891 4.91116C9.47891 4.91116 9.67031 4.94397 9.97875 5.05772C10.2292 5.1496 10.1362 5.37272 9.92953 5.3935C9.52375 5.43397 9.19234 5.70085 9.15187 5.84522C9.15187 5.84522 9.80047 5.56631 10.4764 5.7796C11.3755 6.06397 11.6183 6.73116 11.6183 6.73116C11.6183 6.73116 12.1247 6.14053 13.3278 5.8671C14.4719 5.60678 15.2944 6.10006 15.2944 6.10006C15.2277 5.81131 15.0625 5.66694 14.9148 5.52913C14.6491 5.28085 14.7366 5.06319 15.0078 4.98663C15.2331 4.92319 15.6061 4.89038 15.6061 4.89038Z" fill="#558B2F"/>
<path d="M9.42312 2.22164C9.43297 2.74445 9.83109 2.98726 10.0138 2.9982C10.3834 3.01898 10.658 2.57054 11.347 3.23226C11.627 3.50132 11.7364 3.88414 11.7277 4.26476C11.7244 4.39054 11.755 4.86085 11.5341 4.96585C11.4652 4.99867 11.4192 5.02382 11.2048 4.94179C10.9653 4.84992 10.752 5.07742 10.752 5.07742L11.1633 5.54664L12.1816 5.87695L13.2031 5.67351L13.7938 5.15398C13.7938 5.15398 13.5192 4.9407 13.2808 5.02601C13.1517 5.07195 12.9023 4.99648 12.9012 4.84554C12.8969 4.52726 12.91 4.22429 12.8509 3.9071C12.7525 3.3832 12.5294 2.88226 12.1717 2.48414C11.6588 1.9132 10.9248 1.61679 10.18 1.49648C9.56859 1.39914 9.41328 1.70539 9.42312 2.22164Z" fill="#E0E080"/>
<path d="M11.8108 2.15403C11.3416 1.79528 10.7641 1.59074 10.1789 1.49668C9.98203 1.46496 9.83328 1.4759 9.72172 1.52075C9.94922 1.52621 10.39 1.63778 11.102 2.12887C11.5505 2.43731 12.4364 3.54528 11.6992 4.69043C11.6795 4.78559 11.6445 4.872 11.5855 4.92668C11.7681 4.84465 12.1247 4.56356 12.2056 3.81543C12.2909 3.02356 12.1028 2.50075 11.8108 2.15403Z" fill="#C4C451"/>
<path opacity="0.6" d="M11.3033 9.34957C11.2945 9.76411 11.3613 10.6894 11.6194 12.0074C11.8392 13.1296 11.6161 13.9444 11.3241 14.3086C11.7966 14.1807 12.1378 13.9466 12.1378 13.9466C12.1378 13.9466 12.2592 13.496 12.2669 13.0355C12.2767 12.4821 12.0459 11.3708 11.7758 10.4893C11.5855 9.8702 11.5286 8.93614 11.5198 8.41114C11.5198 8.41004 11.3186 8.60036 11.3033 9.34957Z" fill="#33691E"/>
<path opacity="0.75" d="M10.6711 7.91907C10.5551 7.93219 10.4501 7.85891 10.3626 7.78782C10.0433 7.52641 9.86169 7.30766 9.50294 7.09001C9.22513 6.92157 8.67716 6.80782 8.86091 6.37797C8.9495 6.17126 9.28966 6.14501 9.52044 6.18438C10.3243 6.32001 10.682 6.79251 10.8515 7.38313C10.8811 7.48594 10.9204 7.58985 10.8975 7.69594C10.8756 7.80094 10.7903 7.90266 10.6765 7.91907H10.6711ZM13.1867 6.75204C13.7161 6.43704 14.497 6.4436 15.1511 6.77829C15.3129 6.86141 15.4683 6.96969 15.5623 7.1261C15.6334 7.24422 15.652 7.42141 15.5393 7.50126C15.4453 7.56688 15.3162 7.52751 15.2068 7.49251C14.5506 7.28469 13.8079 7.36344 13.2108 7.70579C12.9854 7.83485 12.502 8.31282 12.3598 7.97813C12.2187 7.64016 12.5283 7.1436 13.1867 6.75204Z" fill="#BBE68B"/>
<defs>
<clipPath id="clip0_511_6521">
<rect width="11" height="11" fill="white"/>
</clipPath>
</defs>
</svg>
