<svg width="21" height="21" viewBox="0 0 21 21" fill="none" xmlns="http://www.w3.org/2000/svg">
<path d="M10.5 2.66602C7.82168 2.66602 5.39766 3.10447 3.67664 3.79395C2.81572 4.13848 2.13281 4.54453 1.68328 4.97109C1.23416 5.39355 1.02539 5.81602 1.02539 6.23438C1.02539 6.65273 1.23416 7.0752 1.68328 7.49766C2.13281 7.92422 2.81572 8.33027 3.67664 8.6748C5.39766 9.36387 7.82168 9.80273 10.5 9.80273C13.1783 9.80273 15.6023 9.36387 17.325 8.6748C18.1822 8.33027 18.8672 7.92422 19.3184 7.49766C19.7654 7.0752 19.9746 6.65273 19.9746 6.23438C19.9746 5.81602 19.7654 5.39355 19.3184 4.97109C18.8672 4.54453 18.1822 4.13848 17.325 3.79395C15.6023 3.10447 13.1783 2.66602 10.5 2.66602ZM10.5041 3.22096C12.6082 3.22096 14.5154 3.49043 15.9223 3.9416C16.6277 4.16719 17.2102 4.43379 17.6408 4.76191C18.0756 5.08594 18.3791 5.5002 18.3791 5.98828C18.3791 6.47637 18.0756 6.89062 17.6408 7.21465C17.2102 7.54277 16.6277 7.80937 15.9223 8.03496C14.5154 8.48613 12.6082 8.75684 10.5041 8.75684C8.4 8.75684 6.49277 8.48613 5.08594 8.03496C4.38047 7.80937 3.79682 7.54277 3.36533 7.21465C2.93426 6.89062 2.6291 6.47637 2.6291 5.98828C2.6291 5.5002 2.93426 5.08594 3.36533 4.76191C3.79682 4.43379 4.38047 4.16719 5.08594 3.9416C6.49277 3.49043 8.4 3.22096 10.5041 3.22096ZM10.5041 3.95801C8.46152 3.95801 6.61582 4.22871 5.30742 4.64297C4.65527 4.85215 4.13848 5.10234 3.81076 5.34844C3.48223 5.59863 3.36738 5.81191 3.36738 5.98828C3.36738 6.16465 3.48223 6.37793 3.81076 6.62813C4.13848 6.87422 4.65527 7.12441 5.30742 7.33359C6.61582 7.74785 8.46152 8.01855 10.5041 8.01855C12.5467 8.01855 14.3924 7.74785 15.7008 7.33359C16.3529 7.12441 16.8697 6.87422 17.1979 6.62813C17.526 6.37793 17.6408 6.16465 17.6408 5.98828C17.6408 5.81191 17.526 5.59863 17.1979 5.34844C16.8697 5.10234 16.3529 4.85215 15.7008 4.64297C14.3924 4.22871 12.5467 3.95801 10.5041 3.95801ZM1.02539 7.8832V14.7656C1.02539 15.307 1.26656 15.7746 1.75137 16.2176C2.23576 16.6605 2.96379 17.0543 3.85629 17.3701C5.63965 18.0059 8.07188 18.334 10.5 18.334C12.9281 18.334 15.3604 18.0059 17.1445 17.3701C18.0346 17.0543 18.7646 16.6605 19.2486 16.2176C19.7326 15.7746 19.9746 15.307 19.9746 14.7656V7.8832C19.9254 7.93652 19.8762 7.98574 19.8229 8.03496C19.2773 8.55176 18.5186 8.99473 17.5957 9.35977C15.7582 10.098 13.2562 10.541 10.5 10.541C7.74375 10.541 5.2418 10.098 3.40225 9.35977C2.48145 8.99473 1.72307 8.55176 1.17633 8.03496C1.12383 7.98574 1.07379 7.93652 1.02539 7.8832ZM3.9375 11.4844L6.57891 13.4613C7.94473 12.8338 9.52383 12.0627 12.1447 12.0627C13.7854 12.0627 17.0666 13.125 17.0666 13.9494C17.0666 14.7656 13.7854 15.832 12.1447 15.832C9.52383 15.832 7.94473 15.0568 6.57891 14.4293L3.9375 16.4062V11.4844Z" fill="#545454"/>
</svg>
