<svg width="19" height="22" viewBox="0 0 19 22" fill="none" xmlns="http://www.w3.org/2000/svg">
<g clip-path="url(#clip0_510_4387)">
<path d="M11.2788 10.8211C10.9229 11.1424 10.5891 11.4919 10.2798 11.8666L8.77376 12.8946L6.66772 12.2313L7.29651 10.5263C7.61559 9.621 7.83098 8.67593 7.93776 7.71267L11.5293 6.95117L11.2788 10.8211Z" fill="#8BC000"/>
<path d="M11.521 7.0791L8.53151 7.71287C8.42473 8.67613 8.20934 9.6212 7.89026 10.5265L7.26147 12.2315L8.96138 12.7668L10.2798 11.8668C10.5891 11.4921 10.9229 11.1426 11.2788 10.8213L11.521 7.0791Z" fill="#A4D200"/>
<path d="M10.0504 9.90019L8.90625 10.5265L9.10664 8.99016L9.28773 8.01221L10.6875 8.723L10.0504 9.90019Z" fill="white"/>
<path d="M4.94304 5.65284L4.37808 5.45361L3.82382 7.33542L3.45362 6.38964L2.90796 6.64607L3.53229 8.24089L3.91021 8.06376L4.20263 8.16679L4.94304 5.65284Z" fill="#709300"/>
<path d="M4.03755 6.21959C4.19713 6.28485 4.36768 6.31176 4.5376 6.29848C4.70753 6.28521 4.87286 6.23207 5.02236 6.14266C5.17187 6.05326 5.30205 5.92968 5.40408 5.78032C5.5061 5.63097 5.57758 5.45933 5.61366 5.27706C5.77545 5.22178 5.91936 5.11684 6.02829 4.9747C6.13722 4.83255 6.20661 4.65916 6.22821 4.47513C6.24981 4.29109 6.22271 4.10413 6.15014 3.93645C6.07757 3.76877 5.96257 3.62742 5.8188 3.52916C5.89735 3.38266 5.93836 3.21568 5.93753 3.04581C5.93669 2.87593 5.89403 2.70945 5.81405 2.56388C5.8941 2.4163 5.93673 2.24801 5.93755 2.07637C5.93826 1.87825 5.88363 1.68462 5.78097 1.52146C5.67831 1.35829 5.53253 1.2334 5.36319 1.16351C5.19385 1.09363 5.00904 1.0821 4.83354 1.13047C4.65805 1.17885 4.50025 1.28481 4.38133 1.43415C4.20635 1.45024 4.03964 1.52273 3.90226 1.64247C3.76488 1.76221 3.66299 1.92383 3.60945 2.10692C3.33 2.17277 3.08152 2.34651 2.90942 2.59638L2.9688 4.67644L4.03755 6.21959Z" fill="#709300"/>
<path d="M2.93906 14.8031L2.79062 14.2747C2.51497 13.2942 2.3099 12.2916 2.17728 11.2761C2.11177 10.7772 2.07863 10.2738 2.07812 9.7697C2.07813 9.19467 2.28678 8.6432 2.65819 8.23659C3.02959 7.82999 3.53333 7.60156 4.05858 7.60156C4.5658 7.60154 5.0537 7.81458 5.42168 8.19675C5.78966 8.57892 6.00967 9.1011 6.03636 9.65562L6.11562 11.3067L6.23438 14.7518L2.93906 14.8031Z" fill="#F89B1C"/>
<path d="M10.2329 19.2154C10.5493 19.679 10.996 20.016 11.5044 20.1748C11.7203 20.2423 11.9437 20.2766 12.1682 20.2765C13.7319 20.2765 15.2316 19.5965 16.3373 18.386C17.443 17.1755 18.0642 15.5337 18.0642 13.8218V11.2637L16.9218 8.57617L14.9624 10.8444L14.8389 11.2159C14.6497 11.7863 14.315 12.2855 13.8746 12.6541C13.4342 13.0228 12.9065 13.2455 12.3541 13.296C11.6258 13.3624 10.9473 13.7274 10.4541 14.3178L10.2329 19.2154Z" fill="#672892"/>
<path d="M17.2187 10.6139L16.5403 9.01807L14.9624 10.8446L14.8389 11.2161C14.6496 11.7866 14.315 12.2857 13.8746 12.6543C13.4342 13.023 12.9065 13.2457 12.3541 13.2962C11.7026 13.3561 11.0888 13.6554 10.6123 14.1454L10.6651 14.2104C11.2437 14.8863 11.5695 15.7753 11.578 16.7016C11.5695 17.2179 11.4647 17.7268 11.27 18.1972C11.0753 18.6676 10.795 19.0894 10.446 19.4369C10.5154 19.4708 10.5864 19.5002 10.6589 19.525C10.8748 19.5925 11.0982 19.6267 11.3227 19.6267C12.8864 19.6267 14.3861 18.9466 15.4918 17.7362C16.5975 16.5257 17.2187 14.8839 17.2187 13.172V10.6139Z" fill="#7435A6"/>
<path d="M10.4455 14.4265C10.9738 15.0441 11.2719 15.8556 11.2812 16.7016C11.2812 18.8554 9.28744 20.6017 6.82812 20.6017C4.36881 20.6017 2.375 18.8554 2.375 16.7016C2.38445 15.8555 2.68266 15.044 3.211 14.4265L6.82812 13.1265L10.4455 14.4265Z" fill="#E9353F"/>
<path d="M10.4455 14.4265L6.82812 13.1265L4.09688 14.108C3.57154 14.7246 3.27514 15.5335 3.26562 16.3766C3.26562 18.5304 5.25944 20.2767 7.71875 20.2767C8.14335 20.2761 8.56646 20.2215 8.97958 20.1142C10.3514 19.4511 11.2812 18.1719 11.2812 16.7016C11.2717 15.8556 10.9737 15.0441 10.4455 14.4265Z" fill="#FF4B50"/>
<path d="M7.42188 10.5264L7.59584 11.6695C7.63021 11.895 7.73654 12.0999 7.89593 12.2477C8.05532 12.3955 8.25742 12.4765 8.46628 12.4765C8.56114 12.4764 8.65536 12.4596 8.74534 12.4268L10.3906 11.8265C10.3018 12.2154 10.114 12.5688 9.84893 12.8455C9.5839 13.1222 9.25258 13.3108 8.89348 13.3895L8.60938 13.4515L10.6875 14.4266H10.1303C9.31732 14.4265 8.50743 14.3174 7.71875 14.1015C7.71875 14.7344 7.53124 15.3503 7.18438 15.8566L6.82812 16.3766L6.47187 15.8566C6.12501 15.3503 5.9375 14.7344 5.9375 14.1015C5.14882 14.3174 4.33894 14.4265 3.52598 14.4266H2.96875L5.04688 13.4515L4.76277 13.3895C4.40367 13.3108 4.07235 13.1222 3.80732 12.8455C3.54229 12.5688 3.35444 12.2154 3.26562 11.8265L4.91091 12.4268C5.00089 12.4596 5.09511 12.4764 5.18997 12.4765C5.39883 12.4765 5.60093 12.3955 5.76032 12.2477C5.91971 12.0999 6.02604 11.895 6.06041 11.6695L6.23438 10.5264H7.42188ZM17.2781 9.08048C17.6259 8.52628 17.8122 7.86976 17.8125 7.19738V6.95135H16.625V7.0794C16.6246 7.72684 16.4758 8.36383 16.1922 8.93195C15.8528 8.99459 15.5355 9.15705 15.274 9.40197C15.0125 9.64688 14.8168 9.96502 14.7078 10.3223L14.5469 10.8515H14.7737C15.2102 10.8515 15.6408 10.7403 16.0312 10.5264L16.625 11.5015C17.0104 11.2905 17.3229 10.9484 17.5156 10.5264C17.7083 10.9484 18.0209 11.2905 18.4062 11.5015V10.9789C18.4062 10.5768 18.2996 10.1835 18.0994 9.84651C17.8991 9.50953 17.6138 9.24342 17.2781 9.08048ZM15.1406 7.60136C15.1403 7.22009 15.0173 6.85112 14.7932 6.5592C14.5692 6.26728 14.2584 6.07105 13.9154 6.00492C13.9399 5.88894 13.9526 5.77034 13.9531 5.65131C13.9531 5.22032 13.7967 4.80698 13.5184 4.50223C13.24 4.19747 12.8624 4.02626 12.4688 4.02626C12.4281 4.02626 12.3898 4.03601 12.35 4.03926C12.2625 3.81189 12.1285 3.60949 11.9584 3.4476C11.7884 3.2857 11.5867 3.16862 11.3688 3.10533C11.151 3.04203 10.9228 3.03422 10.7018 3.08247C10.4807 3.13073 10.2727 3.23378 10.0938 3.38372C9.89442 3.21681 9.65951 3.10829 9.41122 3.0684C9.16292 3.02851 8.90944 3.05856 8.67471 3.15573C8.43997 3.25289 8.23174 3.41396 8.06967 3.62371C7.9076 3.83347 7.79704 4.08499 7.74844 4.35452C7.73834 4.35452 7.72884 4.35127 7.71875 4.35127C7.51263 4.34368 7.30732 4.3832 7.11593 4.46731C6.92453 4.55141 6.75125 4.67826 6.60712 4.83975C6.46299 5.00125 6.35119 5.19386 6.27883 5.40529C6.20648 5.61672 6.17517 5.84234 6.18689 6.06775C6.19861 6.29317 6.25311 6.51344 6.34691 6.71452C6.44071 6.9156 6.57176 7.09307 6.7317 7.23562C6.89163 7.37816 7.07695 7.48266 7.27583 7.54245C7.4747 7.60223 7.68278 7.61599 7.88678 7.58284C8.04491 8.01979 8.30827 8.40165 8.64884 8.6878C8.98942 8.97395 9.39447 9.15368 9.82092 9.20788C9.88749 9.66583 10.1009 10.0828 10.423 10.384C10.745 10.6852 11.1546 10.851 11.5781 10.8515H11.5847C11.8055 11.1778 12.1305 11.4012 12.4949 11.4773C12.8594 11.5535 13.2367 11.4767 13.5518 11.2623C13.8669 11.0478 14.0968 10.7115 14.1958 10.32C14.2948 9.92859 14.2556 9.51069 14.0861 9.14938C14.3904 9.04946 14.6572 8.84499 14.8471 8.56621C15.037 8.28742 15.1399 7.94913 15.1406 7.60136Z" fill="#709300"/>
<path d="M15.1407 7.60135C15.1403 7.22008 15.0173 6.85111 14.7933 6.55919C14.5693 6.26728 14.2585 6.07104 13.9155 6.00491C13.94 5.88893 13.9527 5.77033 13.9532 5.6513C13.9532 5.22031 13.7968 4.80697 13.5184 4.50222C13.2401 4.19746 12.8625 4.02625 12.4688 4.02625C12.4282 4.02625 12.3899 4.036 12.3501 4.03925C12.2626 3.81188 12.1286 3.60948 11.9585 3.44759C11.7884 3.28569 11.5867 3.16861 11.3689 3.10532C11.1511 3.04202 10.9229 3.03421 10.7018 3.08247C10.4808 3.13072 10.2728 3.23377 10.0938 3.38371C9.91029 3.23104 9.69687 3.12713 9.4704 3.08015C9.19545 3.31758 9.00614 3.65389 8.93602 4.0295C8.92593 4.0295 8.91643 4.02625 8.90633 4.02625C8.70021 4.01866 8.49491 4.05818 8.30351 4.14229C8.11212 4.22639 7.93883 4.35324 7.7947 4.51473C7.65058 4.67623 7.53877 4.86884 7.46642 5.08027C7.39406 5.2917 7.36275 5.51732 7.37447 5.74274C7.38619 5.96815 7.44069 6.18842 7.53449 6.3895C7.6283 6.59058 7.75934 6.76805 7.91928 6.9106C8.07922 7.05315 8.26453 7.15764 8.46341 7.21743C8.66229 7.27721 8.87036 7.29097 9.07436 7.25782C9.23249 7.69478 9.49585 8.07664 9.83643 8.36278C10.177 8.64893 10.5821 8.82866 11.0085 8.88286C11.0751 9.34081 11.2885 9.75779 11.6106 10.059C11.9326 10.3602 12.3421 10.5259 12.7657 10.5264H12.7722C12.9944 10.8498 13.3187 11.0708 13.6819 11.1462C13.9527 10.9183 14.1416 10.5934 14.2156 10.2283C14.2895 9.86316 14.2437 9.48122 14.0862 9.14937C14.3905 9.04945 14.6573 8.84498 14.8472 8.5662C15.0371 8.28741 15.14 7.94912 15.1407 7.60135Z" fill="#80AC00"/>
<path d="M4.15631 5.65136C4.15631 5.99615 4.0312 6.32682 3.8085 6.57062C3.5858 6.81443 3.28376 6.9514 2.96881 6.9514C2.89711 6.95042 2.8256 6.94281 2.75506 6.92864C2.6421 7.0766 2.49138 7.18429 2.32218 7.23793C2.15299 7.29156 1.97303 7.28871 1.80533 7.22972C1.63762 7.17073 1.48982 7.0583 1.38082 6.90681C1.27183 6.75533 1.20661 6.57168 1.1935 6.37938C1.10423 6.29453 1.0315 6.19083 0.979681 6.07449C0.92786 5.95816 0.898008 5.83157 0.89191 5.70231C0.885813 5.57305 0.903595 5.44378 0.944194 5.32222C0.984792 5.20065 1.04737 5.08931 1.12819 4.99484C0.982242 4.97878 0.846888 4.90415 0.748218 4.78533C0.649548 4.66651 0.594547 4.5119 0.593815 4.35132C0.5937 4.23529 0.622359 4.1214 0.676735 4.02181C0.73111 3.92221 0.809162 3.84064 0.902565 3.78581C0.809065 3.69803 0.733263 3.58992 0.679972 3.46836C0.626681 3.34679 0.597067 3.21442 0.593011 3.07965C0.588955 2.94488 0.610545 2.81066 0.656411 2.68551C0.702276 2.56037 0.771414 2.44704 0.859433 2.35271C0.947451 2.25839 1.05243 2.18513 1.16769 2.13761C1.28296 2.09008 1.40599 2.06931 1.52898 2.07663C1.65197 2.08394 1.77222 2.11918 1.8821 2.18011C1.99198 2.24103 2.08909 2.32631 2.16725 2.43052C2.23532 2.41239 2.30502 2.40258 2.37506 2.40127C2.52085 2.40096 2.66446 2.43991 2.79325 2.51468C2.92204 2.58946 3.03205 2.69777 3.11359 2.83007C3.19513 2.96236 3.24569 3.11458 3.26083 3.27332C3.27596 3.43205 3.2552 3.59242 3.20038 3.7403C3.38934 3.79452 3.55654 3.91582 3.67581 4.0852C3.79507 4.25458 3.85965 4.46247 3.85944 4.67633C3.85944 4.71533 3.8535 4.75108 3.85053 4.78683C4.04633 5.02388 4.15523 5.33177 4.15631 5.65136Z" fill="#8BC000"/>
<path d="M8.89348 13.3893C9.25258 13.3106 9.5839 13.122 9.84893 12.8453C10.114 12.5686 10.3018 12.2153 10.3906 11.8263L8.74534 12.4266C8.62439 12.4708 8.49612 12.4858 8.36936 12.4706C8.2426 12.4553 8.12038 12.4101 8.01111 12.3381C7.90185 12.2661 7.80814 12.1691 7.73645 12.0536C7.66476 11.9381 7.61679 11.807 7.59584 11.6693L7.42188 10.5263H6.23438L6.06041 11.6693C6.03975 11.8064 5.99228 11.9369 5.92125 12.052C5.85022 12.1671 5.75731 12.2641 5.64887 12.3362C5.54044 12.4083 5.41904 12.454 5.293 12.47C5.16696 12.486 5.03926 12.4719 4.91863 12.4289C5.19321 12.7538 5.55407 12.976 5.95027 13.0643L6.23438 13.1263L4.15625 14.1014H4.71348C5.52644 14.1013 6.33632 13.9922 7.125 13.7764C7.12567 14.2996 7.25454 14.8131 7.49817 15.2633C7.64344 14.8965 7.71852 14.5011 7.71875 14.1014C8.50743 14.3172 9.31732 14.4264 10.1303 14.4264H10.6875L8.60938 13.4514L8.89348 13.3893ZM16.1922 8.93113C15.8528 8.99376 15.5355 9.15623 15.274 9.40114C15.0125 9.64606 14.8168 9.9642 14.7078 10.3215L14.5469 10.8513H14.7737C15.2102 10.8514 15.6408 10.7401 16.0312 10.5263L16.625 11.5013C17.0104 11.2903 17.3229 10.9482 17.5156 10.5263C17.5954 10.6961 17.6952 10.8537 17.8125 10.9949V10.9787C17.8125 10.5767 17.7059 10.1833 17.5056 9.84633C17.3054 9.50936 17.0201 9.24325 16.6844 9.08031C17.0322 8.52611 17.2185 7.86959 17.2188 7.1972V6.95117H16.625V7.07923C16.6245 7.72645 16.4757 8.3632 16.1922 8.93113Z" fill="#80AC00"/>
<path d="M2.97766 11.9055L2.84644 11.3309L5.00502 12.1191C5.1344 12.1661 5.27468 12.1625 5.40194 12.109C5.50025 12.0638 5.58614 11.9914 5.6512 11.899C5.71625 11.8065 5.75824 11.6971 5.77303 11.5815L5.98292 10.2015H6.06248L6.03636 9.6555C6.0121 9.15749 5.83166 8.68389 5.52549 8.31461C5.21933 7.94532 4.80618 7.70296 4.35575 7.62842C3.8875 7.70572 3.4601 7.96428 3.15113 8.35715C2.84216 8.75002 2.67212 9.25116 2.67188 9.76958C2.67189 10.2736 2.70453 10.777 2.76955 11.276C2.83743 11.796 2.92501 12.3122 3.03228 12.8247C3.06004 12.9551 3.11256 13.0777 3.18642 13.1845C3.26028 13.2913 3.35384 13.3799 3.46101 13.4446C3.56818 13.5092 3.68657 13.5485 3.8085 13.5597C3.93042 13.571 4.05315 13.5541 4.16872 13.5101C3.87558 13.3535 3.61715 13.1288 3.41145 12.8517C3.20574 12.5746 3.05771 12.2517 2.97766 11.9055Z" fill="#FDB716"/>
<path d="M4.15625 5.65153C4.15517 5.33194 4.04627 5.02406 3.85047 4.78701C3.85344 4.75126 3.85938 4.71551 3.85938 4.67651C3.85958 4.46265 3.795 4.25475 3.67574 4.08537C3.55648 3.91599 3.38928 3.7947 3.20031 3.74048C3.25514 3.5926 3.2759 3.43223 3.26076 3.27349C3.24563 3.11476 3.19506 2.96254 3.11352 2.83024C3.03198 2.69794 2.92197 2.58964 2.79318 2.51486C2.66439 2.44008 2.52078 2.40113 2.375 2.40144C2.30496 2.40275 2.23526 2.41256 2.16719 2.43069C2.06317 2.29672 1.92827 2.19571 1.7765 2.13818C1.63042 2.19504 1.50054 2.29291 1.39987 2.42199C1.2992 2.55108 1.23128 2.70686 1.2029 2.87372C1.17452 3.04059 1.18668 3.21269 1.23816 3.37279C1.28965 3.53289 1.37865 3.67538 1.49625 3.78598C1.40285 3.84082 1.3248 3.92239 1.27042 4.02198C1.21604 4.12158 1.18739 4.23547 1.1875 4.3515C1.18823 4.51208 1.24323 4.66668 1.3419 4.7855C1.44057 4.90433 1.57593 4.97896 1.72188 4.99501C1.64106 5.08948 1.57848 5.20083 1.53788 5.32239C1.49728 5.44395 1.4795 5.57323 1.4856 5.70249C1.49169 5.83175 1.52155 5.95833 1.57337 6.07467C1.62519 6.191 1.69791 6.2947 1.78719 6.37955C1.80167 6.56517 1.86418 6.74242 1.9674 6.89054C2.07061 7.03865 2.21025 7.15148 2.36995 7.2158C2.51947 7.15909 2.65262 7.06008 2.75589 6.92882C2.82613 6.94293 2.89734 6.95054 2.96875 6.95157C3.28369 6.95157 3.58574 6.8146 3.80844 6.5708C4.03114 6.32699 4.15625 5.99632 4.15625 5.65153Z" fill="#A4D200"/>
<path d="M5.81875 3.52916C5.8973 3.38266 5.93831 3.21568 5.93748 3.04581C5.93664 2.87593 5.89399 2.70945 5.814 2.56388C5.89405 2.4163 5.93669 2.24801 5.9375 2.07637C5.93822 1.87825 5.88358 1.68462 5.78092 1.52146C5.67826 1.35829 5.53249 1.2334 5.36314 1.16351C5.1938 1.09363 5.00899 1.0821 4.83349 1.13047C4.658 1.17885 4.50021 1.28481 4.38128 1.43415C4.2063 1.45024 4.03959 1.52273 3.90221 1.64247C3.76483 1.76221 3.66294 1.92383 3.60941 2.10692C3.42885 2.15082 3.26025 2.24055 3.11719 2.36888C3.25567 2.48951 3.3676 2.6427 3.44468 2.8171C3.52177 2.99151 3.56203 3.18266 3.5625 3.37641C3.5625 3.43391 3.55893 3.49136 3.55181 3.54834C3.73489 3.6608 3.88736 3.82454 3.99357 4.02278C4.09979 4.22102 4.15593 4.44662 4.15625 4.67644V4.68392C4.31289 4.9105 4.41189 5.17847 4.44318 5.46055C4.47447 5.74263 4.43693 6.02875 4.33438 6.28979C4.37416 6.29401 4.41334 6.30149 4.45312 6.30149C4.72436 6.30129 4.98735 6.19944 5.19837 6.01289C5.40939 5.82633 5.55572 5.56632 5.61302 5.27608C5.77462 5.22075 5.91834 5.11585 6.02715 4.97383C6.13597 4.8318 6.20531 4.65861 6.22696 4.47476C6.24861 4.29091 6.22167 4.10412 6.14932 3.93653C6.07697 3.76893 5.96225 3.62756 5.81875 3.52916Z" fill="#80AC00"/>
<path d="M17.6937 8.95881C17.9666 8.41986 18.1096 7.81376 18.1094 7.19759V6.95156C18.1094 6.86536 18.0781 6.78269 18.0224 6.72174C17.9667 6.66079 17.8912 6.62655 17.8125 6.62655H16.625C16.5463 6.62655 16.4707 6.66079 16.4151 6.72174C16.3594 6.78269 16.3281 6.86536 16.3281 6.95156V7.08156C16.3273 7.62406 16.2131 8.15915 15.9941 8.64583C15.6832 8.72783 15.3925 8.88345 15.1425 9.10171C14.8924 9.31997 14.6891 9.59558 14.5469 9.90914C14.5469 9.89874 14.5484 9.88866 14.5484 9.87664C14.5483 9.69079 14.5228 9.50599 14.4729 9.32835C14.7823 9.15509 15.0384 8.88618 15.2094 8.555C15.3804 8.22383 15.4588 7.84497 15.4348 7.46545C15.4109 7.08593 15.2857 6.72246 15.0747 6.42015C14.8638 6.11785 14.5764 5.89002 14.2482 5.76495C14.25 5.72692 14.25 5.68922 14.25 5.65152C14.2497 5.14559 14.07 4.65956 13.7488 4.29581C13.4276 3.93206 12.99 3.71898 12.5281 3.70146C12.3718 3.40468 12.1468 3.15826 11.8758 2.98708C11.6048 2.81589 11.2973 2.72598 10.9844 2.72644C10.671 2.72646 10.3634 2.81861 10.0937 2.99327C9.82405 2.81861 9.51646 2.72646 9.20312 2.72644C8.83302 2.7274 8.47232 2.85415 8.17085 3.08918C7.86938 3.32421 7.642 3.65592 7.52013 4.0385C7.14439 4.08685 6.7927 4.2658 6.51669 4.54909C6.54605 4.34695 6.53087 4.14005 6.47242 3.94564C6.41396 3.75122 6.31392 3.57491 6.18063 3.43138C6.26308 3.14678 6.25056 2.83937 6.1453 2.56393C6.20429 2.40952 6.23457 2.24379 6.23437 2.07642C6.23506 1.82327 6.16804 1.57545 6.04156 1.36353C5.91508 1.15162 5.73468 0.984885 5.52264 0.883921C5.31059 0.782957 5.07619 0.75218 4.84835 0.795389C4.62051 0.838597 4.40922 0.953901 4.24055 1.12707C4.05741 1.16338 3.88471 1.24659 3.73653 1.36989C3.58836 1.49319 3.46891 1.6531 3.38793 1.83656C3.18853 1.9107 3.00578 2.03034 2.85177 2.18757C2.70166 2.11453 2.53926 2.07667 2.37499 2.07642C2.34039 2.07647 2.30581 2.07842 2.27138 2.08227C2.05765 1.87261 1.78164 1.75505 1.49467 1.75145C1.20771 1.74785 0.929315 1.85846 0.711249 2.06271C0.493184 2.26695 0.350286 2.55094 0.309123 2.86187C0.26796 3.1728 0.331333 3.48952 0.48746 3.75314C0.412037 3.85763 0.357107 3.97803 0.326104 4.1068C0.295102 4.23558 0.288692 4.36998 0.307275 4.50159C0.325859 4.63321 0.369036 4.75921 0.434109 4.87173C0.499183 4.98425 0.584754 5.08087 0.685476 5.15555C0.624875 5.31248 0.59368 5.48114 0.593742 5.65152C0.594669 5.97915 0.708787 6.29427 0.913179 6.53359C0.964117 6.83188 1.10817 7.1015 1.32068 7.29632C1.53319 7.49115 1.80094 7.59905 2.07812 7.60157C2.36804 7.60123 2.64765 7.48376 2.86335 7.27169C2.8969 7.27657 2.93193 7.27656 2.96874 7.27656C3.02844 7.27407 3.08793 7.26745 3.14687 7.25674L3.22316 7.45174C2.79832 7.63543 2.4337 7.95464 2.17658 8.36796C1.91947 8.78128 1.78174 9.26965 1.78124 9.76971C1.78125 10.2891 1.81498 10.8078 1.88218 11.322C2.01704 12.3543 2.22549 13.3735 2.50562 14.3702L2.61249 14.7518C2.26596 15.3316 2.08035 16.0089 2.07812 16.7018C2.07812 19.0315 4.20909 20.927 6.82812 20.927C8.05191 20.9451 9.24405 20.5012 10.2039 19.6698C10.4553 19.9645 10.7595 20.1994 11.0975 20.3597C11.4354 20.5201 11.8 20.6026 12.1683 20.6019C13.8102 20.5999 15.3842 19.8849 16.5452 18.6139C17.7062 17.3429 18.3592 15.6197 18.3611 13.8223V11.8212C18.4034 11.8288 18.4466 11.8263 18.4879 11.8138C18.5292 11.8012 18.5674 11.7789 18.6 11.7485C18.6326 11.7181 18.6587 11.6802 18.6765 11.6376C18.6943 11.5949 18.7034 11.5486 18.7031 11.5017V10.9791C18.7026 10.5768 18.61 10.181 18.4336 9.8281C18.2573 9.47515 18.0029 9.17627 17.6937 8.95881ZM14.9889 10.4249C15.0805 10.1233 15.2454 9.85469 15.466 9.64802C15.6866 9.44134 15.9545 9.30442 16.2408 9.25197C16.2851 9.24377 16.3271 9.22468 16.3637 9.19614C16.4002 9.1676 16.4304 9.13035 16.4519 9.08719C16.7299 8.52982 16.889 7.91082 16.9174 7.27656H17.5156C17.5017 7.85635 17.3342 8.41922 17.0335 8.89674C17.0088 8.93608 16.9924 8.98089 16.9853 9.02797C16.9782 9.07506 16.9807 9.12328 16.9926 9.16919C17.0045 9.21511 17.0254 9.25759 17.054 9.29364C17.0826 9.32968 17.118 9.3584 17.1579 9.37775C17.426 9.50795 17.6564 9.7162 17.8239 9.97981C17.9914 10.2434 18.0896 10.5523 18.1079 10.8728C17.9756 10.7297 17.8657 10.5637 17.7828 10.3814C17.7554 10.331 17.7165 10.2893 17.6699 10.2603C17.6233 10.2314 17.5707 10.2161 17.5171 10.2161C17.4635 10.2161 17.4109 10.2314 17.3643 10.2603C17.3177 10.2893 17.2788 10.331 17.2514 10.3814C17.1267 10.6531 16.9433 10.8874 16.717 11.0639L16.28 10.3463C16.2399 10.2804 16.1792 10.2328 16.1093 10.2124C16.0393 10.1921 15.965 10.2004 15.9003 10.2358C15.6074 10.3954 15.289 10.4914 14.9628 10.5185L14.9889 10.4249ZM14.3061 11.0424C14.3323 11.0816 14.3661 11.1139 14.4051 11.1369C14.4442 11.1599 14.4874 11.1731 14.5317 11.1754C14.3537 11.6695 14.0533 12.0994 13.6643 12.4168C13.2753 12.7343 12.8132 12.9267 12.3298 12.9724C11.6007 13.0387 10.9148 13.378 10.3874 13.9331L9.48752 13.5106C9.78066 13.354 10.0391 13.1293 10.2448 12.8522C10.4505 12.5751 10.5985 12.2522 10.6786 11.906C10.6804 11.8979 10.6786 11.8897 10.6813 11.8816C10.9014 11.6284 11.1335 11.388 11.3765 11.1614C11.3982 11.1637 11.4184 11.1699 11.4404 11.1715C11.6059 11.3777 11.8097 11.5429 12.0383 11.6559C12.2669 11.7689 12.5148 11.8271 12.7656 11.8267C13.0634 11.8265 13.3564 11.7444 13.6177 11.5881C13.879 11.4318 14.1003 11.2062 14.2613 10.9319C14.2699 10.9713 14.2851 11.0085 14.3061 11.0418V11.0424ZM8.4924 13.7504L9.11584 14.0429C8.66906 13.9913 8.22613 13.9055 7.79029 13.7862C7.74653 13.7743 7.70087 13.7735 7.65678 13.7838C7.61268 13.7941 7.57131 13.8152 7.5358 13.8456C7.50029 13.8761 7.47158 13.9149 7.45184 13.9593C7.43209 14.0037 7.42184 14.0524 7.42187 14.1018C7.42078 14.6641 7.25422 15.2112 6.94687 15.6618L6.82812 15.835L6.70937 15.6618C6.40201 15.2112 6.23545 14.6641 6.23437 14.1018C6.23437 14.0524 6.22408 14.0036 6.20428 13.9592C6.18449 13.9148 6.15571 13.8759 6.12013 13.8455C6.08456 13.8152 6.04312 13.794 5.99897 13.7838C5.95482 13.7736 5.90912 13.7745 5.86535 13.7865C5.4295 13.9058 4.98658 13.9916 4.5398 14.0433L5.16324 13.7507C5.22151 13.7234 5.27024 13.6763 5.30231 13.6165C5.33438 13.5566 5.3481 13.4871 5.34146 13.418C5.33483 13.349 5.30818 13.2841 5.26543 13.2329C5.22267 13.1816 5.16606 13.1467 5.10387 13.1332L4.81976 13.0708C4.41926 12.9821 4.06332 12.7332 3.82137 12.3727L4.8159 12.7354C4.97763 12.7947 5.14918 12.8148 5.31871 12.7945C5.48824 12.7741 5.65172 12.7137 5.79786 12.6175C5.94401 12.5212 6.06934 12.3914 6.1652 12.237C6.26106 12.0826 6.32517 11.9072 6.35312 11.723L6.48582 10.8517H7.17041L7.30312 11.723C7.33094 11.9072 7.39492 12.0825 7.49064 12.237C7.58637 12.3914 7.71156 12.5213 7.85757 12.6177C8.00359 12.7141 8.16697 12.7746 8.33643 12.7952C8.50589 12.8157 8.67741 12.7958 8.83915 12.7367L9.83368 12.374C9.59168 12.7346 9.23561 12.9835 8.83499 13.0721L8.55118 13.1345C8.48899 13.148 8.43237 13.1829 8.38962 13.2342C8.34686 13.2854 8.32022 13.3503 8.31358 13.4193C8.30695 13.4884 8.32067 13.5579 8.35274 13.6178C8.38481 13.6776 8.43354 13.7247 8.4918 13.752L8.4924 13.7504ZM4.6731 6.60705C4.94309 6.56164 5.19654 6.43607 5.40591 6.244C5.61527 6.05192 5.77253 5.80069 5.8606 5.51761C5.91667 5.4876 5.97056 5.45294 6.0218 5.41394C5.96828 5.59583 5.93986 5.78545 5.93749 5.97653C5.93806 6.47242 6.11117 6.94945 6.42162 7.31056C6.73206 7.67167 7.1565 7.88975 7.6086 7.92041C7.50679 8.69849 7.33179 9.46296 7.0864 10.2016H6.35965L6.33263 9.63873C6.30552 9.07663 6.10537 8.54115 5.76478 8.11947C5.4242 7.6978 4.96324 7.4148 4.45698 7.31654L4.6731 6.60705ZM9.34888 9.43138C9.4231 9.45478 9.49732 9.47818 9.57332 9.49638C9.59621 9.58406 9.62397 9.67013 9.65644 9.75411L9.2803 9.96017L9.34888 9.43138ZM8.73287 10.7902C8.77676 10.8249 8.82848 10.8458 8.88243 10.8506C8.93638 10.8554 8.9905 10.844 9.03895 10.8175L9.9557 10.3157C10.1533 10.5888 10.4063 10.8078 10.6946 10.9553C10.4948 11.1568 10.301 11.3652 10.1178 11.5836L8.65123 12.1192C8.57095 12.1484 8.48584 12.1583 8.40176 12.1481C8.31767 12.1379 8.2366 12.1079 8.16412 12.0601C8.09165 12.0123 8.02948 11.9479 7.98191 11.8713C7.93434 11.7947 7.90249 11.7078 7.88855 11.6164L7.71459 10.4734C7.70726 10.429 7.69126 10.3868 7.66768 10.3499C7.85702 9.77333 8.00589 9.18183 8.11299 8.5805C8.30596 8.81638 8.53291 9.01609 8.78482 9.17169L8.61382 10.4808C8.60606 10.5394 8.61304 10.5991 8.63402 10.6537C8.655 10.7082 8.68918 10.7554 8.73287 10.7902ZM7.69054 4.67454C7.70212 4.67649 7.72794 4.67942 7.73982 4.67974C7.80973 4.68197 7.87811 4.65711 7.93291 4.60954C7.98771 4.56198 8.02541 4.49476 8.03937 4.41973C8.09398 4.12574 8.23959 3.86139 8.45162 3.67132C8.66364 3.48125 8.92908 3.3771 9.20312 3.37645C9.46088 3.37737 9.71123 3.47101 9.91562 3.64296C9.96716 3.68562 10.03 3.7087 10.0946 3.7087C10.1592 3.7087 10.2221 3.68562 10.2736 3.64296C10.4167 3.52282 10.583 3.4402 10.7598 3.40147C10.9366 3.36275 11.1192 3.36894 11.2934 3.41958C11.4677 3.47021 11.629 3.56394 11.765 3.69356C11.901 3.82317 12.008 3.98521 12.0778 4.1672C12.1024 4.22962 12.1443 4.282 12.1975 4.31699C12.2508 4.35197 12.3127 4.36778 12.3746 4.36221C12.3951 4.36026 12.4153 4.35733 12.434 4.35441C12.4455 4.35254 12.4571 4.35156 12.4687 4.35148C12.6471 4.34995 12.8234 4.39272 12.9844 4.47656C13.1454 4.5604 13.287 4.68314 13.3985 4.83553C13.5099 4.98793 13.5884 5.16601 13.6279 5.35638C13.6674 5.54675 13.6669 5.74445 13.6266 5.9346C13.6179 5.97735 13.6173 6.02156 13.6246 6.06458C13.632 6.10761 13.6472 6.14856 13.6694 6.18499C13.6916 6.22141 13.7203 6.25255 13.7537 6.27655C13.7872 6.30054 13.8247 6.31689 13.8641 6.32461C14.1265 6.37432 14.3658 6.51967 14.5433 6.73705C14.7207 6.95443 14.8258 7.23109 14.8416 7.52212C14.8573 7.81314 14.7828 8.10146 14.63 8.34025C14.4772 8.57905 14.2552 8.75431 14 8.83758C13.9587 8.85144 13.9206 8.87503 13.8884 8.90669C13.8562 8.93835 13.8308 8.97732 13.8138 9.02088C13.7969 9.06444 13.7888 9.11152 13.7902 9.15885C13.7916 9.20618 13.8024 9.2526 13.8219 9.29487C13.907 9.47472 13.952 9.67409 13.9531 9.87664C13.9544 10.1494 13.8769 10.4156 13.7318 10.6373C13.5867 10.8591 13.3814 11.025 13.1451 11.1114C12.9088 11.1979 12.6536 11.2005 12.4159 11.1188C12.1782 11.0372 11.9701 10.8754 11.8213 10.6567C11.7924 10.6162 11.7555 10.5835 11.7134 10.561C11.6713 10.5385 11.625 10.5267 11.5781 10.5267C11.2248 10.5281 10.8827 10.3907 10.614 10.1395C10.3454 9.88819 10.168 9.53971 10.1142 9.15739C10.1041 9.08724 10.0732 9.02266 10.0263 8.97353C9.97949 8.9244 9.91922 8.89343 9.85476 8.88536C9.48141 8.83856 9.12671 8.68148 8.82864 8.43096C8.53056 8.18043 8.30032 7.84588 8.16257 7.46312C8.14062 7.40259 8.10256 7.35067 8.05333 7.3141C8.0041 7.27753 7.94597 7.258 7.88648 7.25804C7.87517 7.25806 7.86388 7.25871 7.85263 7.25999L7.7989 7.26779C7.77239 7.27269 7.74561 7.27562 7.71874 7.27656C7.40356 7.28066 7.0998 7.14752 6.87429 6.90642C6.64878 6.66533 6.51999 6.33604 6.51625 5.99099C6.51251 5.64594 6.63413 5.3134 6.85435 5.06651C7.07457 4.81963 7.37536 4.67864 7.69054 4.67454ZM3.67085 2.4245C3.72172 2.41243 3.76879 2.38592 3.80735 2.34764C3.84591 2.30937 3.8746 2.26066 3.89054 2.20642C3.92597 2.08418 3.99385 1.97626 4.08554 1.89644C4.17722 1.81662 4.28855 1.7685 4.40532 1.75823C4.4819 1.75144 4.55309 1.71242 4.60393 1.64935C4.65878 1.57952 4.72674 1.52345 4.80318 1.48497C4.87962 1.4465 4.96274 1.42652 5.04687 1.4264C5.20434 1.4264 5.35536 1.49488 5.46671 1.61678C5.57806 1.73869 5.64062 1.90402 5.64062 2.07642C5.64002 2.19095 5.61131 2.3032 5.55749 2.40143C5.53144 2.45083 5.51772 2.50688 5.51772 2.56393C5.51772 2.62098 5.53144 2.67703 5.55749 2.72644C5.61134 2.82293 5.64008 2.93369 5.6406 3.04677C5.64113 3.15984 5.61341 3.27092 5.56046 3.368C5.52287 3.44061 5.51223 3.52626 5.53074 3.60721C5.54926 3.68817 5.59551 3.75822 5.65991 3.80287C5.75573 3.86816 5.83239 3.96223 5.88075 4.07387C5.92911 4.18551 5.94713 4.31002 5.93268 4.43256C5.91823 4.5551 5.8719 4.67051 5.79923 4.76504C5.72655 4.85958 5.63058 4.92924 5.52276 4.96575C5.47301 4.98308 5.42831 5.01448 5.39318 5.05676C5.35805 5.09904 5.33373 5.15072 5.32266 5.20658C5.27926 5.42402 5.16948 5.61878 5.01141 5.75874C4.85334 5.89871 4.65642 5.97552 4.45312 5.97653C4.44302 5.97653 4.43323 5.97393 4.42343 5.9736C4.46513 5.7502 4.46287 5.51963 4.4168 5.29726C4.37073 5.07488 4.28191 4.86581 4.15624 4.68397V4.67649C4.15592 4.44667 4.09978 4.22107 3.99356 4.02283C3.88735 3.82459 3.73488 3.66085 3.5518 3.54838C3.55892 3.49141 3.5625 3.43396 3.56249 3.37645C3.56196 3.09725 3.47861 2.8258 3.32499 2.60293C3.42712 2.51675 3.54513 2.45587 3.67085 2.4245ZM2.80338 6.60802C2.75272 6.59889 2.70076 6.6043 2.65257 6.62373C2.60439 6.64315 2.56163 6.67593 2.52848 6.71885C2.47376 6.79164 2.405 6.85025 2.32713 6.89049C2.24926 6.93072 2.16422 6.95158 2.07812 6.95156C1.92948 6.9497 1.78681 6.88728 1.67796 6.77646C1.56911 6.66565 1.50188 6.5144 1.48941 6.35224C1.48299 6.26908 1.44759 6.1918 1.39055 6.13643C1.33081 6.0803 1.28209 6.01148 1.24733 5.93415C1.21258 5.85681 1.19251 5.77256 1.18835 5.68649C1.18419 5.60042 1.19601 5.51432 1.22311 5.43339C1.25022 5.35247 1.29203 5.27841 1.34602 5.21568C1.3835 5.17132 1.40895 5.11639 1.41949 5.05707C1.43003 4.99776 1.42526 4.93639 1.40571 4.87988C1.38616 4.82337 1.35261 4.77394 1.30881 4.73715C1.26502 4.70036 1.21273 4.67767 1.1578 4.67162C1.08508 4.66362 1.01761 4.62653 0.968311 4.56746C0.919011 4.50839 0.891347 4.43149 0.890617 4.35148C0.890652 4.29371 0.905071 4.23703 0.932323 4.18756C0.959575 4.13808 0.99863 4.09767 1.04529 4.07067C1.08723 4.04558 1.12301 4.00978 1.1496 3.9663C1.17619 3.92283 1.1928 3.87297 1.19801 3.82096C1.20323 3.76895 1.1969 3.71633 1.17956 3.66758C1.16223 3.61882 1.13439 3.57537 1.09843 3.54091C1.03586 3.48266 0.985071 3.41077 0.949295 3.32983C0.913519 3.2489 0.893543 3.16069 0.890641 3.07083C0.88774 2.98097 0.901976 2.89143 0.932442 2.80793C0.962909 2.72443 1.00894 2.6488 1.06759 2.58586C1.12624 2.52291 1.19623 2.47404 1.2731 2.44237C1.34997 2.41069 1.43202 2.39689 1.51402 2.40186C1.59603 2.40683 1.67619 2.43046 1.74939 2.47123C1.82259 2.51201 1.88723 2.56904 1.93918 2.63868C1.97421 2.68468 2.02016 2.7192 2.07197 2.73841C2.12378 2.75762 2.17944 2.76079 2.23279 2.74756C2.27934 2.73484 2.32703 2.72776 2.37499 2.72644C2.47217 2.72654 2.56783 2.75276 2.65359 2.80279C2.73935 2.85281 2.81258 2.92512 2.86686 3.01336C2.92115 3.1016 2.95481 3.20307 2.96492 3.30888C2.97502 3.41469 2.96124 3.52159 2.9248 3.62021C2.90929 3.66286 2.90221 3.70862 2.90403 3.75449C2.90584 3.80035 2.91651 3.84527 2.93533 3.88629C2.95415 3.92732 2.98069 3.96351 3.01322 3.99249C3.04574 4.02147 3.0835 4.04258 3.12401 4.05442C3.24946 4.09078 3.36045 4.17147 3.43973 4.28395C3.51902 4.39643 3.56217 4.53441 3.56249 4.67649C3.56205 4.68901 3.56096 4.70149 3.55923 4.71387L3.55477 4.75677C3.55099 4.80111 3.55558 4.84583 3.56824 4.88816C3.58091 4.93048 3.60138 4.9695 3.6284 5.0028C3.74427 5.14216 3.82058 5.31543 3.848 5.50147C3.87542 5.68752 3.85277 5.87827 3.78282 6.05046C3.71287 6.22264 3.59864 6.36881 3.45408 6.47111C3.30952 6.57341 3.14087 6.62742 2.96874 6.62655C2.91324 6.6255 2.85792 6.6193 2.80338 6.60802ZM3.71093 7.04906C3.80631 6.98892 3.89532 6.91742 3.97634 6.83585L3.83859 7.28762L3.80593 7.29151L3.71093 7.04906ZM2.46969 11.23C2.40666 10.7463 2.37501 10.2583 2.37499 9.76971C2.37508 9.28939 2.54643 8.82808 2.85257 8.48401C3.1587 8.13994 3.57543 7.9403 4.01402 7.92759C4.45261 7.91488 4.8784 8.09011 5.20074 8.41597C5.52307 8.74183 5.71648 9.19257 5.73977 9.67221L5.81755 11.2875L5.76768 11.6154C5.75385 11.7069 5.72208 11.794 5.67456 11.8707C5.62704 11.9474 5.56489 12.0119 5.4924 12.0598C5.41991 12.1076 5.3388 12.1378 5.25466 12.148C5.17052 12.1583 5.08534 12.1484 5.00501 12.1192L3.35943 11.5186C3.30894 11.5002 3.25487 11.497 3.20286 11.5093C3.15085 11.5216 3.10282 11.549 3.06379 11.5886C3.02477 11.6282 2.99618 11.6785 2.98102 11.7344C2.96587 11.7902 2.9647 11.8495 2.97765 11.906C3.0577 12.2522 3.20573 12.5751 3.41144 12.8522C3.61714 13.1293 3.87557 13.354 4.16871 13.5106L3.03673 14.0416C2.78445 13.1211 2.59492 12.1813 2.46969 11.23ZM2.67187 16.7018C2.6797 15.9844 2.92 15.2933 3.34993 14.7518H3.52598C4.24441 14.7517 4.96085 14.6689 5.66348 14.5048C5.72842 15.0658 5.92512 15.5988 6.23437 16.0518L6.59062 16.5718C6.61827 16.6122 6.65413 16.645 6.69535 16.6675C6.73657 16.6901 6.78203 16.7018 6.82812 16.7018C6.87421 16.7018 6.91966 16.6901 6.96088 16.6675C7.00211 16.645 7.03796 16.6122 7.06562 16.5718L7.42187 16.0518C7.7309 15.5988 7.92739 15.0657 7.99216 14.5048C8.69479 14.6689 9.41123 14.7517 10.1297 14.7518H10.3054C10.7358 15.2931 10.9764 15.9842 10.9844 16.7018C10.9844 18.673 9.11999 20.2769 6.82812 20.2769C4.53624 20.2769 2.67187 18.673 2.67187 16.7018ZM12.1683 19.9519C11.9713 19.9519 11.7753 19.922 11.5858 19.8629C11.2207 19.7476 10.8911 19.5259 10.632 19.2216C11.2275 18.5432 11.5657 17.6426 11.5781 16.7018C11.574 15.9429 11.3516 15.2046 10.9425 14.5919C10.9699 14.5421 10.9843 14.485 10.984 14.4269C10.9838 14.3687 10.9689 14.3118 10.941 14.2623C11.3493 13.8922 11.8514 13.6678 12.3797 13.6194C12.9883 13.5627 13.5694 13.3168 14.0547 12.9107C14.54 12.5046 14.9092 11.9552 15.1189 11.3272L15.1801 11.1435C15.4349 11.1077 15.6846 11.0377 15.9238 10.9352L16.3786 11.6827C16.4187 11.7486 16.4794 11.7962 16.5494 11.8166C16.6193 11.8369 16.6936 11.8286 16.7583 11.7932C17.0515 11.6316 17.3097 11.4032 17.5156 11.1234C17.5926 11.2257 17.6768 11.3214 17.7674 11.4094V13.8223C17.7657 15.4474 17.1753 17.0054 16.1256 18.1546C15.0759 19.3037 13.6528 19.9501 12.1683 19.9519Z" fill="black"/>
<g clip-path="url(#clip1_510_4387)">
<path d="M13.7047 18.1445L11.1071 18.2473C11.1071 18.2473 10.9424 18.067 10.9662 18.0026C10.99 17.9381 13.1411 16.0981 13.2231 16.1111C13.3052 16.1241 13.4936 16.3428 13.6464 16.2654C13.7992 16.1879 13.6464 15.7375 13.6934 15.6737C13.7404 15.6093 15.4212 14.6186 15.527 14.5672C15.6328 14.5158 15.7267 14.3999 15.9384 14.4513C16.1501 14.5028 16.6792 14.6056 17.2547 15.0306C17.8302 15.4557 18.4301 15.9445 18.3832 16.2146C18.3362 16.4847 13.7047 18.1445 13.7047 18.1445Z" fill="#FFE265"/>
<path d="M11.9062 21.3746C12.4823 21.2971 17.854 20.0364 18.0776 19.998C18.3011 19.9596 18.442 19.7279 18.442 19.4701C18.442 19.2123 18.3832 16.2144 18.3832 16.2144C18.3832 16.2144 18.1245 16.3042 17.8189 16.3816C17.5133 16.4584 15.0091 17.1275 14.0222 17.3723C13.0352 17.617 11.4597 18.0674 11.2831 18.0674C11.1065 18.0674 10.9656 18.003 10.9656 18.003C10.9656 18.003 11.0125 20.6794 11.0244 20.8728C11.0363 21.0661 11.1184 21.2971 11.3181 21.3616C11.5179 21.426 11.6482 21.4089 11.9062 21.3746Z" fill="#FEB502"/>
<path d="M15.3823 15.2038C15.3823 15.368 15.5351 15.4768 15.7881 15.4686C16.0643 15.4597 16.1407 15.2804 16.1319 15.1654C16.1231 15.0498 15.996 14.9485 15.7443 14.9533C15.5107 14.9581 15.3823 15.0594 15.3823 15.2038Z" fill="#FF8B0D"/>
<path d="M12.5612 17.2553C12.1541 17.4055 12.1998 17.7955 12.3188 17.8826C12.4378 17.9697 12.5962 17.9649 12.7816 17.8922C12.9669 17.8195 13.0847 17.7366 13.1035 17.6008C13.121 17.472 12.9669 17.1052 12.5612 17.2553ZM16.2596 16.1406C15.9866 16.1543 15.6847 16.3689 15.572 16.5752C15.453 16.7926 15.4443 17.0483 15.7173 17.2073C15.9903 17.3664 16.956 16.9612 16.9078 16.5896C16.8595 16.2174 16.5464 16.1262 16.2596 16.1406ZM15.3121 19.1468C15.3121 19.1468 15.6998 18.8328 15.6998 18.6114C15.6998 18.3892 15.5326 17.8648 14.8224 17.825C14.1568 17.7873 13.7466 18.7807 14.1831 19.2921C14.6195 19.8036 14.8838 19.5718 15.0472 19.5238C15.2107 19.4752 15.3121 19.1468 15.3121 19.1468ZM13.3947 20.0394C13.3947 20.0394 13.7798 19.7755 13.4842 19.4861C13.2763 19.2825 12.9983 19.3744 12.8567 19.5328C12.6758 19.7357 12.7246 20.0586 12.8918 20.2032C13.0596 20.3486 13.3947 20.0394 13.3947 20.0394ZM12.0896 18.8527C12.0896 18.8527 12.0458 18.7012 11.8886 18.6402C11.712 18.5716 11.4484 18.8122 11.5611 19.0693C11.6625 19.301 11.8873 19.2332 11.8873 19.2332L12.0896 18.8527ZM17.7275 19.0741C17.7657 19.0289 18.0155 18.8314 18.0155 18.6813C18.0155 18.5318 17.6392 18.0698 17.1589 18.4173C16.6786 18.7649 16.9297 19.2908 17.0618 19.3778C17.1939 19.4649 17.5603 19.2722 17.7275 19.0741Z" fill="#ED6B31"/>
<path d="M12.62 17.4917C12.3526 17.5932 12.2518 17.8002 12.3188 17.8825C12.3895 17.9695 12.5436 18.0271 12.8122 17.9209C13.0201 17.8386 13.1253 17.7008 13.1078 17.5781C13.0953 17.489 12.8623 17.3998 12.62 17.4917ZM11.7282 18.8423C11.6111 19.0027 11.7063 19.1851 11.8165 19.2282C11.9268 19.2714 12.1209 19.1412 12.1077 18.9245C12.094 18.7072 11.8341 18.6976 11.7282 18.8423ZM13.0903 19.7164C12.8385 19.9399 12.8316 20.1586 12.9287 20.2326C12.9963 20.2847 13.2456 20.393 13.4735 20.2086C13.6426 20.0722 13.6457 19.7856 13.5925 19.6485C13.548 19.532 13.3019 19.5278 13.0903 19.7164ZM14.6182 18.4981C14.2813 18.8567 14.2012 19.4387 14.5318 19.5758C14.823 19.6965 15.2413 19.6238 15.4881 19.2913C15.7473 18.9417 15.7749 18.5557 15.6083 18.3281C15.4092 18.0546 14.8788 18.2218 14.6182 18.4981ZM16.1494 16.4976C15.7085 16.6615 15.4486 17.0091 15.6734 17.1832C15.8982 17.3567 16.1318 17.3313 16.3873 17.236C16.6773 17.1284 16.8989 16.8788 16.9077 16.6423C16.9146 16.4483 16.5376 16.353 16.1494 16.4976ZM17.3267 18.7168C17.0267 18.9842 16.939 19.2522 17.0624 19.3777C17.1858 19.5032 17.4813 19.5607 17.7544 19.3537C18.038 19.1384 18.0587 18.8944 18.0274 18.6976C17.9923 18.4762 17.6348 18.4419 17.3267 18.7168Z" fill="#FF8B0D"/>
</g>
</g>
<defs>
<clipPath id="clip0_510_4387">
<rect width="19" height="20.8006" fill="white" transform="translate(0 0.451172)"/>
</clipPath>
<clipPath id="clip1_510_4387">
<rect width="8.01562" height="8.77525" fill="white" transform="translate(10.6875 13.4517)"/>
</clipPath>
</defs>
</svg>
