<svg width="20" height="20" viewBox="0 0 20 20" fill="none" xmlns="http://www.w3.org/2000/svg">
<path d="M7.5762 3.36837C5.95745 2.52462 3.94495 3.11212 3.0512 4.71836C2.4887 5.73087 2.49495 6.91212 2.98245 7.87462C2.45745 8.11837 2.00745 8.52462 1.70745 9.06212C1.48282 9.46281 1.35814 9.91177 1.34399 10.3709C1.32985 10.8301 1.42666 11.2859 1.6262 11.6996C2.1262 12.7496 2.11995 13.9746 1.5512 14.9871C1.28506 15.4634 1.19134 16.017 1.28584 16.5544C1.38034 17.0918 1.65728 17.5801 2.06995 17.9371C2.42692 18.3498 2.91528 18.6267 3.45268 18.7212C3.99008 18.8157 4.54362 18.722 5.01995 18.4559C6.03245 17.8871 7.25745 17.8809 8.30745 18.3809C9.11995 18.7684 10.1012 18.7746 10.945 18.2996C11.4825 17.9996 11.8887 17.5496 12.1325 17.0246C13.095 17.5121 14.2762 17.5184 15.2887 16.9559C16.895 16.0621 17.4825 14.0496 16.6387 12.4309C16.9387 12.3496 17.2387 12.2184 17.5137 12.0309C18.0741 11.6462 18.4793 11.0746 18.6568 10.4184C18.8343 9.76227 18.7725 9.06437 18.4825 8.44962C18.2895 8.04118 18.0025 7.68427 17.6451 7.40812C17.2876 7.13198 16.8698 6.94445 16.4259 6.86091C15.9819 6.77737 15.5245 6.80019 15.0911 6.92751C14.6577 7.05482 14.2607 7.28301 13.9325 7.59337C13.7481 7.28209 13.5149 7.00248 13.2418 6.76524C13.0046 6.49214 12.725 6.25895 12.4137 6.07462C12.7241 5.7464 12.9522 5.34933 13.0796 4.91593C13.2069 4.48253 13.2297 4.02513 13.1462 3.58121C13.0626 3.13729 12.8751 2.71947 12.5989 2.362C12.3228 2.00452 11.9659 1.71756 11.5575 1.52462C10.9427 1.23459 10.2448 1.1728 9.58865 1.35029C8.9325 1.52778 8.36092 1.93298 7.9762 2.49337C7.7887 2.76837 7.65745 3.06837 7.5762 3.36837Z" fill="#008463"/>
<path d="M14.9763 13.7929C15.5993 13.1695 15.9545 12.3276 15.9661 11.4463C15.9778 10.565 15.6451 9.7139 15.0388 9.07419C15.3075 8.91169 15.5575 8.70544 15.77 8.44919C16.6638 7.38044 16.645 5.79294 15.7263 4.74294C15.4689 4.44762 15.1535 4.20836 14.7998 4.04002C14.4461 3.87169 14.0615 3.77787 13.67 3.76439C13.2785 3.75091 12.8884 3.81806 12.5239 3.96166C12.1594 4.10527 11.8284 4.32227 11.5513 4.59919C11.3825 4.76794 11.2388 4.95544 11.12 5.15544C10.4803 4.54913 9.62926 4.21641 8.74796 4.22809C7.86665 4.23976 7.0247 4.5949 6.40128 5.21794C6.01222 5.60611 5.72398 6.08352 5.56167 6.60858C5.39936 7.13364 5.3679 7.69043 5.47003 8.23044C4.90128 8.32419 4.35753 8.59294 3.92003 9.03044C3.59448 9.35256 3.35213 9.749 3.21385 10.1856C3.07558 10.6222 3.04552 11.0859 3.12628 11.5367C3.32628 12.6804 2.98253 13.8554 2.16378 14.6804C1.71954 15.1247 1.46997 15.7272 1.46997 16.3554C1.46997 16.9837 1.71954 17.5862 2.16378 18.0304C2.60802 18.4747 3.21053 18.7242 3.83878 18.7242C4.46703 18.7242 5.06954 18.4747 5.51378 18.0304C6.33878 17.2054 7.50753 16.8679 8.65753 17.0679C9.10929 17.1476 9.5736 17.117 10.011 16.9789C10.4484 16.8407 10.846 16.5989 11.17 16.2742C11.6075 15.8367 11.87 15.2929 11.97 14.7242C13.0263 14.9179 14.1575 14.6117 14.9763 13.7929Z" fill="#86D72F"/>
<path d="M8.66493 7.17616C8.70417 7.16398 8.74541 7.15966 8.78632 7.16343C8.82722 7.16721 8.86698 7.17901 8.90332 7.19817C8.93966 7.21732 8.97187 7.24346 8.9981 7.27507C9.02433 7.30669 9.04406 7.34316 9.05618 7.38241L9.83993 9.90679L12.4931 7.25366C12.552 7.19674 12.6309 7.16524 12.7129 7.16595C12.7948 7.16666 12.8732 7.19953 12.9311 7.25747C12.9891 7.31541 13.0219 7.39379 13.0226 7.47572C13.0234 7.55766 12.9919 7.6366 12.9349 7.69554L10.2824 10.348L12.8124 11.1324C12.8901 11.1581 12.9547 11.2133 12.9921 11.2861C13.0296 11.3589 13.037 11.4434 13.0128 11.5216C12.9885 11.5998 12.9346 11.6654 12.8625 11.7042C12.7905 11.743 12.7061 11.752 12.6274 11.7293L9.78243 10.848L7.24493 13.3855L9.02493 13.9387C9.06483 13.9502 9.10203 13.9696 9.13436 13.9957C9.16668 14.0218 9.19348 14.054 9.21318 14.0906C9.23289 14.1272 9.24511 14.1673 9.24912 14.2086C9.25314 14.25 9.24888 14.2917 9.23658 14.3314C9.22428 14.371 9.2042 14.4079 9.17751 14.4397C9.15081 14.4715 9.11804 14.4977 9.08111 14.5167C9.04418 14.5357 9.00383 14.5472 8.96242 14.5504C8.92101 14.5536 8.87937 14.5486 8.83993 14.5355L6.74493 13.8855L5.35368 15.2768C5.32486 15.3066 5.29037 15.3304 5.25225 15.3468C5.21412 15.3632 5.17312 15.3718 5.13162 15.3722C5.09013 15.3725 5.04898 15.3646 5.01057 15.3489C4.97217 15.3332 4.93728 15.31 4.90794 15.2807C4.87859 15.2513 4.85539 15.2164 4.83968 15.178C4.82396 15.1396 4.81606 15.0985 4.81642 15.057C4.81678 15.0155 4.8254 14.9745 4.84178 14.9363C4.85815 14.8982 4.88196 14.8637 4.91181 14.8349L6.30306 13.4437L5.65306 11.3487C5.62844 11.2695 5.63628 11.1838 5.67484 11.1105C5.7134 11.0371 5.77953 10.982 5.85868 10.9574C5.93783 10.9328 6.02352 10.9406 6.0969 10.9792C6.17027 11.0178 6.22532 11.0839 6.24993 11.163L6.80243 12.9443L9.34056 10.4055L8.45931 7.56741C8.44712 7.52822 8.44276 7.48701 8.4465 7.44614C8.45023 7.40526 8.46198 7.36553 8.48108 7.32919C8.50017 7.29286 8.52624 7.26065 8.55778 7.23439C8.58933 7.20813 8.62574 7.18835 8.66493 7.17616Z" fill="#C3EF3C"/>
</svg>
