<svg width="20" height="20" viewBox="0 0 20 20" fill="none" xmlns="http://www.w3.org/2000/svg">
<g clip-path="url(#clip0_510_4438)">
<path d="M15.1941 4.37637L13.941 5.62637H11.291L14.1973 2.72012L16.3285 0.585742C16.5043 0.410153 16.7426 0.311523 16.991 0.311523C17.2395 0.311523 17.4777 0.410153 17.6535 0.585742L17.6566 0.588867C17.8322 0.764635 17.9309 1.00292 17.9309 1.25137C17.9309 1.49981 17.8322 1.7381 17.6566 1.91387L15.1941 4.37324V4.37637Z" fill="#636A74"/>
<path d="M16.7566 7.18848H4.03784C3.98446 7.18858 3.93159 7.17815 3.88225 7.15777C3.83291 7.13739 3.78809 7.10747 3.75034 7.06973C3.7126 7.03198 3.68268 6.98715 3.6623 6.93782C3.64192 6.88848 3.63149 6.83561 3.63159 6.78223V6.03223C3.63191 5.92458 3.67481 5.82143 3.75093 5.74531C3.82705 5.66919 3.9302 5.62629 4.03784 5.62598H17.2878C17.3955 5.62629 17.4986 5.66919 17.5748 5.74531C17.6509 5.82143 17.6938 5.92458 17.6941 6.03223V6.78223C17.6942 6.83561 17.6838 6.88848 17.6634 6.93782C17.643 6.98715 17.6131 7.03198 17.5753 7.06973C17.5376 7.10747 17.4928 7.13739 17.4434 7.15777C17.3941 7.17815 17.3412 7.18858 17.2878 7.18848H16.7566Z" fill="#E6ECF4"/>
<path d="M15.1941 18.376C15.0778 18.4177 14.9551 18.4388 14.8316 18.4385H6.49722C6.37236 18.4391 6.24845 18.4168 6.13159 18.3729C5.93839 18.3032 5.76919 18.1796 5.64402 18.0168C5.51886 17.854 5.44297 17.6587 5.42534 17.4541C5.37534 16.8447 5.3243 16.2354 5.27222 15.626H16.0535C16.0035 16.2354 15.9503 16.8447 15.9003 17.4541C15.8844 17.6596 15.8092 17.8561 15.6839 18.0197C15.5585 18.1834 15.3884 18.3071 15.1941 18.376Z" fill="#FF5666"/>
<path d="M15.194 4.37646V5.62646H13.9409L15.194 4.37646Z" fill="#D8E0EB"/>
<path d="M12.3816 14.3764C12.382 14.0726 12.4931 13.7793 12.6941 13.5514C12.7101 13.5302 12.7279 13.5103 12.7472 13.492C12.8926 13.3464 13.0716 13.2389 13.2685 13.1791C13.4653 13.1192 13.6739 13.1089 13.8757 13.1489C14.0775 13.189 14.2664 13.2782 14.4254 13.4087C14.5845 13.5392 14.709 13.7069 14.7877 13.8969C14.8665 14.087 14.8971 14.2936 14.877 14.4984C14.8568 14.7031 14.7864 14.8997 14.6721 15.0708C14.5577 15.2418 14.4029 15.382 14.2214 15.4789C14.0399 15.5759 13.8373 15.6265 13.6316 15.6264C13.3003 15.6256 12.9828 15.4937 12.7486 15.2594C12.5143 15.0252 12.3824 14.7077 12.3816 14.3764Z" fill="#FF5666"/>
<path d="M10.8722 13.4916C11.1069 13.2575 11.425 13.126 11.7565 13.126C12.0881 13.126 12.4061 13.2575 12.6409 13.4916C12.6602 13.5099 12.678 13.5297 12.694 13.551C12.4927 13.7786 12.3815 14.0721 12.3815 14.376C12.3815 14.6799 12.4927 14.9733 12.694 15.201C12.678 15.2222 12.6602 15.2421 12.6409 15.2604C12.4062 15.4943 12.0883 15.6255 11.757 15.6252C11.4256 15.6249 11.1079 15.4932 10.8736 15.2589C10.6393 15.0246 10.5076 14.7069 10.5073 14.3755C10.507 14.0442 10.6383 13.7263 10.8722 13.4916Z" fill="#F3445A"/>
<path d="M8.89097 15.2604C8.68631 15.4656 8.41682 15.5934 8.12843 15.6222C7.84004 15.6509 7.55061 15.5788 7.30948 15.418C7.06834 15.2572 6.89043 15.0178 6.80607 14.7405C6.72171 14.4633 6.73612 14.1653 6.84685 13.8975C6.95757 13.6297 7.15776 13.4085 7.41329 13.2718C7.66882 13.135 7.96386 13.0911 8.24813 13.1476C8.53239 13.204 8.78829 13.3573 8.97218 13.5813C9.15608 13.8053 9.25659 14.0862 9.25659 14.376C9.256 14.7074 9.1246 15.0252 8.89097 15.2604ZM8.00659 9.68848H4.77847C4.75034 9.37598 4.72534 9.06348 4.70034 8.75098C4.65659 8.2291 4.61284 7.71035 4.56909 7.18848H16.7566C16.6878 8.02285 16.6191 8.8541 16.5472 9.68848H13.3191V9.58535C13.3193 9.43493 13.29 9.28594 13.2326 9.14689C13.1752 9.00783 13.0911 8.88144 12.9848 8.77493C12.8786 8.66843 12.7525 8.58389 12.6136 8.52616C12.4747 8.46843 12.3258 8.43864 12.1753 8.43848H9.15034C8.99992 8.43864 8.85101 8.46843 8.71211 8.52616C8.57322 8.58389 8.44706 8.66843 8.34084 8.77493C8.23462 8.88144 8.15043 9.00783 8.09308 9.14689C8.03573 9.28594 8.00634 9.43493 8.00659 9.58535V9.68848Z" fill="#FF5666"/>
<path d="M12.6409 15.2606C12.4058 15.4942 12.088 15.6256 11.7566 15.6262H13.6316C13.4541 15.6263 13.2786 15.5884 13.1169 15.5151C12.9552 15.4418 12.811 15.3348 12.6941 15.2012C12.678 15.2224 12.6603 15.2423 12.6409 15.2606Z" fill="#E6ECF4"/>
<path d="M13.3192 9.68848V9.58535C13.3195 9.43493 13.2901 9.28594 13.2327 9.14688C13.1754 9.00782 13.0912 8.88143 12.9849 8.77493C12.8787 8.66842 12.7526 8.58389 12.6137 8.52616C12.4748 8.46843 12.3258 8.43863 12.1754 8.43848H9.15044C9.00002 8.43863 8.85111 8.46843 8.71221 8.52616C8.57331 8.58389 8.44715 8.66843 8.34094 8.77493C8.23473 8.88144 8.15054 9.00783 8.09319 9.14689C8.03584 9.28594 8.00646 9.43494 8.00671 9.58535V9.68848H4.77856C4.94106 11.6666 5.10566 13.6458 5.27234 15.626H8.00671C7.71795 15.6256 7.43824 15.5252 7.21522 15.3417C6.9922 15.1583 6.83967 14.9032 6.78361 14.6199C6.72754 14.3367 6.77141 14.0427 6.90774 13.7881C7.04407 13.5336 7.26443 13.3342 7.53128 13.2238C7.79814 13.1135 8.095 13.0991 8.37129 13.183C8.64758 13.267 8.88622 13.4441 9.04657 13.6843C9.20691 13.9245 9.27905 14.2128 9.25069 14.5001C9.22233 14.7875 9.09523 15.0562 8.89104 15.2604C8.77488 15.3764 8.637 15.4684 8.48526 15.5312C8.33352 15.5939 8.17091 15.6261 8.00671 15.626H11.7567C11.5512 15.6258 11.3489 15.575 11.1678 15.478C10.9866 15.3811 10.8321 15.2409 10.718 15.07C10.6039 14.8991 10.5337 14.7027 10.5136 14.4982C10.4935 14.2937 10.5242 14.0874 10.6028 13.8975C10.6815 13.7077 10.8057 13.5401 10.9646 13.4098C11.1234 13.2794 11.312 13.1902 11.5135 13.1501C11.715 13.1099 11.9234 13.1201 12.12 13.1797C12.3167 13.2392 12.4956 13.3464 12.641 13.4916C12.6604 13.5099 12.6782 13.5297 12.6942 13.551C12.7102 13.5297 12.728 13.5099 12.7473 13.4916C12.8927 13.346 13.0717 13.2385 13.2686 13.1787C13.4654 13.1188 13.674 13.1085 13.8758 13.1485C14.0776 13.1886 14.2664 13.2778 14.4255 13.4083C14.5846 13.5388 14.709 13.7065 14.7878 13.8965C14.8665 14.0866 14.8972 14.2932 14.877 14.4979C14.8568 14.7027 14.7865 14.8993 14.6721 15.0703C14.5578 15.2414 14.403 15.3816 14.2215 15.4785C14.04 15.5754 13.8375 15.6261 13.6317 15.626H16.0536C16.2192 13.6479 16.3838 11.6687 16.5473 9.68848H13.3192Z" fill="#E6ECF4"/>
<path d="M6.13159 18.373C6.24845 18.417 6.37236 18.4393 6.49722 18.4387H14.8316C14.9551 18.439 15.0778 18.4179 15.1941 18.3762V19.373C15.1942 19.4145 15.1861 19.4556 15.1703 19.494C15.1545 19.5323 15.1312 19.5672 15.1019 19.5965C15.0726 19.6258 15.0377 19.6491 14.9994 19.6649C14.961 19.6807 14.9199 19.6888 14.8785 19.6887H6.44722C6.40574 19.6888 6.36464 19.6807 6.3263 19.6649C6.28795 19.6491 6.25311 19.6258 6.22378 19.5965C6.19445 19.5672 6.17121 19.5323 6.15538 19.494C6.13956 19.4556 6.13148 19.4145 6.13159 19.373V18.373Z" fill="#F3445A"/>
<path d="M3.94409 2.50099H13.3191C13.6254 2.49995 13.9272 2.57513 14.1972 2.71974L11.291 5.62599H5.81909V4.37599C5.8187 3.87883 5.62103 3.40214 5.26948 3.0506C4.91794 2.69905 4.44125 2.50138 3.94409 2.50099Z" fill="#D8E0EB"/>
<path d="M4.03784 7.18848H4.56909C4.61284 7.71035 4.65659 8.2291 4.70034 8.75098H3.94409C3.69784 8.75104 3.454 8.70259 3.22648 8.60839C2.99896 8.51418 2.79224 8.37608 2.61812 8.20195C2.44399 8.02783 2.30588 7.8211 2.21168 7.59359C2.11748 7.36607 2.06902 7.12222 2.06909 6.87598V4.37598C2.06984 3.87892 2.26762 3.40244 2.61909 3.05097C2.97056 2.6995 3.44704 2.50172 3.94409 2.50098C4.44125 2.50137 4.91794 2.69904 5.26948 3.05059C5.62103 3.40213 5.8187 3.87882 5.81909 4.37598V5.62598H4.03784C3.93019 5.62629 3.82705 5.66919 3.75093 5.74531C3.67481 5.82143 3.63191 5.92458 3.63159 6.03223V6.78223C3.63149 6.83561 3.64192 6.88848 3.6623 6.93782C3.68268 6.98715 3.7126 7.03198 3.75034 7.06973C3.78809 7.10747 3.83291 7.13739 3.88225 7.15777C3.93159 7.17815 3.98446 7.18858 4.03784 7.18848Z" fill="#CAD1E1"/>
<path d="M17.2879 7.50146H4.03778C3.84723 7.5013 3.66452 7.42552 3.52978 7.29078C3.39503 7.15603 3.31926 6.97333 3.31909 6.78277V6.03265C3.31926 5.8421 3.39504 5.65939 3.52978 5.52465C3.66452 5.38991 3.84723 5.31413 4.03778 5.31396H17.2879C17.4785 5.31413 17.6612 5.38991 17.7959 5.52465C17.9307 5.65939 18.0064 5.8421 18.0066 6.03265V6.78277C18.0064 6.97333 17.9307 7.15603 17.7959 7.29078C17.6612 7.42552 17.4785 7.5013 17.2879 7.50146ZM4.03778 5.93896C4.01295 5.93902 3.98916 5.94891 3.9716 5.96647C3.95404 5.98403 3.94415 6.00782 3.94409 6.03265V6.78277C3.94415 6.8076 3.95404 6.8314 3.9716 6.84896C3.98915 6.86652 4.01295 6.87641 4.03778 6.87646H17.2879C17.3127 6.87641 17.3365 6.86652 17.3541 6.84896C17.3716 6.8314 17.3815 6.8076 17.3816 6.78277V6.03265C17.3815 6.00782 17.3716 5.98403 17.3541 5.96647C17.3365 5.94891 17.3127 5.93902 17.2879 5.93896H4.03778Z" fill="black"/>
<path d="M14.8299 18.7511H6.49559C6.1481 18.7493 5.8138 18.6179 5.55811 18.3825C5.30242 18.1472 5.14374 17.825 5.11314 17.4788L4.25773 7.21455C4.25422 7.17361 4.25882 7.13239 4.27127 7.09323C4.28371 7.05408 4.30376 7.01777 4.33026 6.98637C4.35676 6.95498 4.38919 6.92912 4.4257 6.91028C4.4622 6.89143 4.50207 6.87998 4.54301 6.87657C4.58396 6.87316 4.62517 6.87785 4.66429 6.89039C4.70341 6.90293 4.73968 6.92307 4.77101 6.94964C4.80234 6.97622 4.82812 7.00872 4.84687 7.04527C4.86563 7.08183 4.87698 7.12172 4.88029 7.16267L5.7357 17.427C5.75258 17.6172 5.83982 17.7943 5.98036 17.9236C6.12089 18.0529 6.30462 18.1251 6.49559 18.1261H14.8299C15.0209 18.1251 15.2046 18.0529 15.3452 17.9236C15.4857 17.7943 15.573 17.6172 15.5898 17.4269L16.4452 7.16267C16.4523 7.08026 16.4918 7.00402 16.555 6.95067C16.6182 6.89732 16.7 6.87122 16.7824 6.87808C16.8648 6.88495 16.9411 6.92423 16.9947 6.98731C17.0482 7.05038 17.0745 7.1321 17.0678 7.21454L16.2124 17.4788C16.1818 17.825 16.0231 18.1472 15.7674 18.3825C15.5117 18.6179 15.1774 18.7493 14.8299 18.7511Z" fill="black"/>
<path d="M14.8779 20.001H6.44775C6.28108 20.0008 6.12128 19.9345 6.00342 19.8167C5.88556 19.6988 5.81927 19.539 5.81909 19.3723V18.3729C5.81909 18.29 5.85202 18.2105 5.91062 18.1519C5.96923 18.0933 6.04871 18.0604 6.13159 18.0604C6.21447 18.0604 6.29396 18.0933 6.35256 18.1519C6.41117 18.2105 6.44409 18.29 6.44409 18.3729V19.3723L14.8779 19.376L14.8816 18.3729C14.8816 18.29 14.9145 18.2105 14.9731 18.1519C15.0317 18.0933 15.1112 18.0604 15.1941 18.0604C15.277 18.0604 15.3565 18.0933 15.4151 18.1519C15.4737 18.2105 15.5066 18.29 15.5066 18.3729V19.3723C15.5064 19.539 15.4401 19.6988 15.3223 19.8167C15.2044 19.9345 15.0446 20.0008 14.8779 20.001ZM4.6994 9.06348H3.94409C3.36415 9.06278 2.80816 8.83209 2.39807 8.422C1.98799 8.01192 1.75729 7.45593 1.75659 6.87598V4.37598C1.75659 3.79582 1.98706 3.23942 2.3973 2.82919C2.80753 2.41895 3.36393 2.18848 3.94409 2.18848C4.52425 2.18848 5.08065 2.41895 5.49089 2.82919C5.90112 3.23942 6.13159 3.79582 6.13159 4.37598V5.62598C6.13159 5.70886 6.09867 5.78835 6.04006 5.84696C5.98146 5.90556 5.90197 5.93848 5.81909 5.93848C5.73621 5.93848 5.65673 5.90556 5.59812 5.84696C5.53952 5.78835 5.50659 5.70886 5.50659 5.62598V4.37598C5.50659 3.96158 5.34197 3.56416 5.04895 3.27113C4.75592 2.9781 4.35849 2.81348 3.94409 2.81348C3.52969 2.81348 3.13226 2.9781 2.83924 3.27113C2.54621 3.56416 2.38159 3.96158 2.38159 4.37598V6.87598C2.38208 7.29024 2.54686 7.68738 2.83978 7.9803C3.1327 8.27322 3.52984 8.438 3.94409 8.43848H4.6994C4.78228 8.43848 4.86177 8.47141 4.92038 8.53001C4.97898 8.58862 5.0119 8.6681 5.0119 8.75098C5.0119 8.83386 4.97898 8.91335 4.92038 8.97196C4.86177 9.03056 4.78228 9.06348 4.6994 9.06348ZM15.1941 5.93848C15.153 5.93851 15.1124 5.93044 15.0745 5.91474C15.0366 5.89905 15.0021 5.87603 14.9731 5.84701C14.944 5.81798 14.921 5.78353 14.9053 5.7456C14.8896 5.70768 14.8816 5.66703 14.8816 5.62598V4.37598C14.8812 4.2931 14.9137 4.21346 14.972 4.15457C15.0304 4.09567 15.1097 4.06236 15.1926 4.06196C15.2754 4.06155 15.3551 4.09409 15.414 4.15241C15.4729 4.21073 15.5062 4.29005 15.5066 4.37293V5.62598C15.5066 5.66703 15.4985 5.70768 15.4829 5.7456C15.4672 5.78353 15.4441 5.81799 15.4151 5.84701C15.3861 5.87603 15.3516 5.89905 15.3137 5.91475C15.2758 5.93044 15.2351 5.93851 15.1941 5.93848ZM14.1971 3.03229C14.1458 3.03227 14.0952 3.01959 14.05 2.99537C13.8253 2.87478 13.5741 2.81226 13.3191 2.81349C13.2362 2.81349 13.1567 2.78057 13.0981 2.72196C13.0395 2.66336 13.0066 2.58387 13.0066 2.50099C13.0066 2.41811 13.0395 2.33863 13.0981 2.28002C13.1567 2.22142 13.2362 2.18849 13.3191 2.18849C13.6769 2.18706 14.0295 2.27496 14.3448 2.44423C14.4062 2.4771 14.455 2.52956 14.4832 2.59329C14.5114 2.65701 14.5175 2.72834 14.5005 2.79593C14.4835 2.86352 14.4444 2.9235 14.3895 2.96633C14.3345 3.00916 14.2668 3.03237 14.1971 3.03229Z" fill="black"/>
<path d="M3.94409 2.81369C3.86121 2.81369 3.78173 2.78076 3.72312 2.72216C3.66452 2.66355 3.63159 2.58407 3.63159 2.50119C3.63159 2.41831 3.66452 2.33882 3.72312 2.28022C3.78173 2.22161 3.86121 2.18869 3.94409 2.18869L13.3191 2.18838C13.402 2.18838 13.4815 2.2213 13.5401 2.2799C13.5987 2.33851 13.6316 2.41799 13.6316 2.50087C13.6316 2.58376 13.5987 2.66324 13.5401 2.72185C13.4815 2.78045 13.402 2.81337 13.3191 2.81337L3.94409 2.81369ZM11.2909 5.93869C11.2291 5.93867 11.1687 5.92034 11.1173 5.886C11.0659 5.85166 11.0259 5.80286 11.0022 5.74577C10.9786 5.68867 10.9724 5.62585 10.9845 5.56524C10.9965 5.50463 11.0263 5.44895 11.07 5.40525L16.1075 0.364653C16.3425 0.131424 16.6604 0.000830132 16.9915 0.00146716C17.3226 0.00210419 17.64 0.13392 17.8741 0.368052C18.1082 0.602184 18.2401 0.919551 18.2407 1.25066C18.2413 1.58177 18.1107 1.89964 17.8775 2.13467L14.162 5.84713C14.133 5.87615 14.0985 5.89917 14.0606 5.91487C14.0227 5.93057 13.9821 5.93865 13.941 5.93865C13.9 5.93865 13.8594 5.93057 13.8215 5.91487C13.7836 5.89917 13.7491 5.87615 13.7201 5.84713C13.6911 5.81812 13.6681 5.78367 13.6524 5.74576C13.6367 5.70785 13.6286 5.66722 13.6286 5.62619C13.6286 5.58515 13.6367 5.54452 13.6524 5.50661C13.6681 5.4687 13.6911 5.43426 13.7201 5.40524L17.4356 1.69278C17.5531 1.57525 17.6192 1.41586 17.6192 1.24966C17.6192 1.08345 17.5531 0.924058 17.4356 0.806536C17.3181 0.689014 17.1587 0.622992 16.9925 0.622993C16.8263 0.622995 16.6669 0.68902 16.5494 0.806544L11.5118 5.84713C11.4829 5.8762 11.4484 5.89925 11.4105 5.91496C11.3726 5.93067 11.3319 5.93874 11.2909 5.93869ZM16.0535 15.9387H5.27222C5.18934 15.9387 5.10985 15.9058 5.05125 15.8472C4.99264 15.7886 4.95972 15.7091 4.95972 15.6262C4.95972 15.5433 4.99264 15.4638 5.05125 15.4052C5.10985 15.3466 5.18934 15.3137 5.27222 15.3137H16.0535C16.1363 15.3137 16.2158 15.3466 16.2744 15.4052C16.333 15.4638 16.366 15.5433 16.366 15.6262C16.366 15.7091 16.333 15.7886 16.2744 15.8472C16.2158 15.9058 16.1363 15.9387 16.0535 15.9387Z" fill="black"/>
<path d="M8.00659 15.9385C7.69756 15.9385 7.39547 15.8468 7.13851 15.6751C6.88156 15.5035 6.68129 15.2594 6.56303 14.9739C6.44477 14.6884 6.41383 14.3742 6.47412 14.0711C6.5344 13.7681 6.68322 13.4896 6.90174 13.2711C7.12026 13.0526 7.39867 12.9038 7.70176 12.8435C8.00486 12.7832 8.31903 12.8142 8.60454 12.9324C8.89005 13.0507 9.13407 13.2509 9.30576 13.5079C9.47745 13.7649 9.56909 14.0669 9.56909 14.376C9.56861 14.7902 9.40383 15.1874 9.11091 15.4803C8.81799 15.7732 8.42084 15.938 8.00659 15.9385ZM8.00659 13.4385C7.82117 13.4385 7.63992 13.4935 7.48575 13.5965C7.33157 13.6995 7.21141 13.8459 7.14046 14.0172C7.0695 14.1885 7.05093 14.377 7.08711 14.5589C7.12328 14.7407 7.21257 14.9078 7.34368 15.0389C7.47479 15.17 7.64184 15.2593 7.8237 15.2955C8.00555 15.3316 8.19405 15.3131 8.36536 15.2421C8.53666 15.1712 8.68308 15.051 8.7861 14.8968C8.88911 14.7427 8.94409 14.5614 8.94409 14.376C8.94382 14.1274 8.84496 13.8891 8.66921 13.7134C8.49345 13.5376 8.25515 13.4387 8.00659 13.4385Z" fill="black"/>
<path d="M8.01276 14.376C7.92988 14.3764 7.85023 14.3438 7.79134 14.2855C7.73245 14.2272 7.69914 14.1479 7.69873 14.065C7.69833 13.9821 7.73087 13.9025 7.78918 13.8436C7.8475 13.7847 7.92683 13.7514 8.00971 13.751H8.01276C8.09564 13.751 8.17512 13.7839 8.23373 13.8425C8.29234 13.9011 8.32526 13.9806 8.32526 14.0635C8.32526 14.1464 8.29234 14.2258 8.23373 14.2844C8.17512 14.3431 8.09564 14.376 8.01276 14.376ZM13.6317 15.9385C13.3226 15.9385 13.0205 15.8468 12.7636 15.6751C12.5066 15.5035 12.3064 15.2594 12.1881 14.9739C12.0698 14.6884 12.0389 14.3742 12.0992 14.0711C12.1595 13.7681 12.3083 13.4896 12.5268 13.2711C12.7453 13.0526 13.0237 12.9038 13.3268 12.8435C13.6299 12.7832 13.9441 12.8142 14.2296 12.9324C14.5151 13.0507 14.7591 13.2509 14.9308 13.5079C15.1025 13.7649 15.1942 14.0669 15.1942 14.376C15.1937 14.7902 15.0289 15.1874 14.736 15.4803C14.4431 15.7732 14.0459 15.938 13.6317 15.9385ZM13.6317 13.4385C13.4462 13.4385 13.265 13.4935 13.1108 13.5965C12.9566 13.6995 12.8365 13.8459 12.7655 14.0172C12.6946 14.1885 12.676 14.377 12.7122 14.5589C12.7483 14.7407 12.8376 14.9078 12.9687 15.0389C13.0999 15.17 13.2669 15.2593 13.4488 15.2955C13.6306 15.3316 13.8191 15.3131 13.9904 15.2421C14.1617 15.1712 14.3081 15.051 14.4112 14.8968C14.5142 14.7427 14.5692 14.5614 14.5692 14.376C14.5689 14.1274 14.47 13.8891 14.2943 13.7134C14.1185 13.5376 13.8802 13.4387 13.6317 13.4385Z" fill="black"/>
<path d="M13.6376 14.3765C13.5547 14.3769 13.475 14.3443 13.4162 14.286C13.3573 14.2277 13.324 14.1484 13.3236 14.0655C13.3231 13.9826 13.3557 13.903 13.414 13.8441C13.4723 13.7852 13.5516 13.7519 13.6345 13.7515H13.6376C13.7205 13.7515 13.7999 13.7844 13.8585 13.843C13.9172 13.9016 13.9501 13.9811 13.9501 14.064C13.9501 14.1468 13.9172 14.2263 13.8585 14.2849C13.7999 14.3435 13.7205 14.3765 13.6376 14.3765ZM11.7565 15.939C11.4997 15.9388 11.2469 15.8754 11.0205 15.7542C10.794 15.6331 10.6009 15.458 10.4583 15.2445C10.3156 15.031 10.2278 14.7856 10.2025 14.5301C10.1773 14.2745 10.2154 14.0167 10.3135 13.7794C10.4117 13.5421 10.5668 13.3326 10.7651 13.1695C10.9635 13.0064 11.199 12.8948 11.4508 12.8444C11.7026 12.794 11.9629 12.8064 12.2088 12.8806C12.4546 12.9547 12.6784 13.0883 12.8603 13.2696C12.8923 13.3001 12.9217 13.3334 12.9479 13.3691C12.9962 13.4364 13.0158 13.5202 13.0023 13.602C12.9889 13.6838 12.9435 13.7569 12.8762 13.8052C12.8088 13.8535 12.725 13.8731 12.6433 13.8596C12.5615 13.8462 12.4884 13.8008 12.4401 13.7335C12.353 13.6433 12.2489 13.5713 12.1338 13.5215C12.0188 13.4718 11.8951 13.4452 11.7697 13.4435C11.6444 13.4417 11.5199 13.4648 11.4035 13.5113C11.2871 13.5578 11.1811 13.6269 11.0915 13.7145C10.9159 13.8909 10.8176 14.1298 10.8182 14.3786C10.8188 14.6275 10.9182 14.8659 11.0945 15.0414C11.2709 15.217 11.5098 15.3153 11.7586 15.3147C12.0075 15.3142 12.2459 15.2148 12.4214 15.0384C12.4703 14.9697 12.544 14.9227 12.6268 14.9071C12.7097 14.8916 12.7953 14.9088 12.8658 14.9551C12.8996 14.9773 12.9287 15.0061 12.9513 15.0398C12.9738 15.0734 12.9895 15.1113 12.9972 15.151C13.005 15.1908 13.0047 15.2317 12.9965 15.2714C12.9882 15.311 12.9721 15.3487 12.9491 15.382C12.9229 15.4177 12.8937 15.4511 12.8618 15.4818C12.5685 15.7746 12.1709 15.939 11.7565 15.939ZM16.5471 10.0015H13.319C13.2361 10.0015 13.1566 9.96854 13.098 9.90994C13.0394 9.85133 13.0065 9.77185 13.0065 9.68896C13.0065 9.60608 13.0394 9.5266 13.098 9.46799C13.1566 9.40939 13.2361 9.37646 13.319 9.37646H16.5471C16.63 9.37646 16.7095 9.40939 16.7681 9.46799C16.8267 9.5266 16.8596 9.60608 16.8596 9.68896C16.8596 9.77185 16.8267 9.85133 16.7681 9.90994C16.7095 9.96854 16.63 10.0015 16.5471 10.0015ZM8.00647 10.0015H4.77832C4.69544 10.0015 4.61595 9.96854 4.55735 9.90994C4.49874 9.85133 4.46582 9.77185 4.46582 9.68896C4.46582 9.60608 4.49874 9.5266 4.55735 9.46799C4.61595 9.40939 4.69544 9.37646 4.77832 9.37646H8.00647C8.08935 9.37646 8.16884 9.40939 8.22744 9.46799C8.28605 9.5266 8.31897 9.60608 8.31897 9.68896C8.31897 9.77185 8.28605 9.85133 8.22744 9.90994C8.16884 9.96854 8.08935 10.0015 8.00647 10.0015Z" fill="black"/>
<path d="M13.3191 10.001C13.278 10.001 13.2374 9.99294 13.1995 9.97724C13.1616 9.96155 13.1271 9.93853 13.0981 9.90951C13.069 9.88048 13.046 9.84602 13.0303 9.8081C13.0146 9.77017 13.0066 9.72953 13.0066 9.68848V9.58289C13.0063 9.36233 12.9186 9.15089 12.7626 8.99493C12.6067 8.83898 12.3952 8.75125 12.1747 8.75098H9.151C8.93045 8.75125 8.719 8.83898 8.56304 8.99493C8.40709 9.15089 8.31936 9.36233 8.31909 9.58289V9.68848C8.31909 9.77136 8.28617 9.85084 8.22756 9.90945C8.16896 9.96805 8.08947 10.001 8.00659 10.001C7.92371 10.001 7.84423 9.96805 7.78562 9.90945C7.72702 9.85084 7.69409 9.77136 7.69409 9.68848V9.58289C7.69457 9.19664 7.84822 8.82634 8.12134 8.55322C8.39446 8.2801 8.76475 8.12645 9.151 8.12598H12.1747C12.5609 8.12645 12.9312 8.2801 13.2043 8.55322C13.4775 8.82634 13.6311 9.19664 13.6316 9.58289V9.68848C13.6316 9.72952 13.6236 9.77017 13.6079 9.8081C13.5922 9.84602 13.5691 9.88048 13.5401 9.9095C13.5111 9.93853 13.4766 9.96155 13.4387 9.97724C13.4008 9.99294 13.3601 10.001 13.3191 10.001Z" fill="black"/>
<path d="M12.0691 10.0015H9.25659C9.17371 10.0015 9.09423 9.96854 9.03562 9.90994C8.97702 9.85133 8.94409 9.77185 8.94409 9.68896C8.94409 9.60608 8.97702 9.5266 9.03562 9.46799C9.09423 9.40939 9.17371 9.37646 9.25659 9.37646H12.0691C12.152 9.37646 12.2315 9.40939 12.2901 9.46799C12.3487 9.5266 12.3816 9.60608 12.3816 9.68896C12.3816 9.77185 12.3487 9.85133 12.2901 9.90994C12.2315 9.96854 12.152 10.0015 12.0691 10.0015ZM14.8816 11.564H6.44409C6.36121 11.564 6.28173 11.531 6.22312 11.4724C6.16452 11.4138 6.13159 11.3343 6.13159 11.2515C6.13159 11.1686 6.16452 11.0891 6.22312 11.0305C6.28173 10.9719 6.36121 10.939 6.44409 10.939H14.8816C14.9645 10.939 15.044 10.9719 15.1026 11.0305C15.1612 11.0891 15.1941 11.1686 15.1941 11.2515C15.1941 11.3343 15.1612 11.4138 15.1026 11.4724C15.044 11.531 14.9645 11.564 14.8816 11.564ZM12.7216 12.5015H8.94409C8.86121 12.5015 8.78173 12.4685 8.72312 12.4099C8.66452 12.3513 8.63159 12.2718 8.63159 12.189C8.63159 12.1061 8.66452 12.0266 8.72312 11.968C8.78173 11.9094 8.86121 11.8765 8.94409 11.8765H12.7216C12.8044 11.8765 12.8839 11.9094 12.9425 11.968C13.0011 12.0266 13.0341 12.1061 13.0341 12.189C13.0341 12.2718 13.0011 12.3513 12.9425 12.4099C12.8839 12.4685 12.8044 12.5015 12.7216 12.5015Z" fill="black"/>
</g>
<defs>
<clipPath id="clip0_510_4438">
<rect width="20" height="20" fill="white"/>
</clipPath>
</defs>
</svg>
