<svg width="32" height="32" viewBox="0 0 32 32" fill="none" xmlns="http://www.w3.org/2000/svg">
<path d="M32 16C32 7.1625 24.8375 0 16 0C7.1625 0 0 7.1625 0 16C0 23.9875 5.84999 30.6063 13.4999 31.8063V20.625H9.4375V16H13.4999V12.475C13.4999 8.46563 15.8876 6.25001 19.5437 6.25001C21.2938 6.25001 23.1249 6.5625 23.1249 6.5625V10.5H21.1062C19.1187 10.5 18.5001 11.7344 18.5001 13V16H22.9375L22.2281 20.625H18.5001V31.8063C26.15 30.6063 32 23.9875 32 16Z" fill="#1877F2"/>
<path d="M22.2281 20.625L22.9375 16H18.5001V13C18.5001 11.7344 19.1187 10.5 21.1062 10.5H23.1249V6.5625C23.1249 6.5625 21.2938 6.25 19.5437 6.25C15.8876 6.25 13.4999 8.46562 13.4999 12.475V16H9.4375V20.625H13.4999V31.8062C14.3156 31.9344 15.15 32 16 32C16.85 32 17.6844 31.9344 18.5001 31.8062V20.625H22.2281Z" fill="white"/>
</svg>
