<svg width="32" height="32" viewBox="0 0 32 32" fill="none" xmlns="http://www.w3.org/2000/svg">
<path d="M32 16C32 7.16344 24.8366 0 16 0C7.16344 0 0 7.16344 0 16C0 24.8366 7.16344 32 16 32C24.8366 32 32 24.8366 32 16Z" fill="url(#paint0_linear_896_3342)"/>
<path d="M13.3369 16.0413C13.3369 14.5673 14.5312 13.3721 16.0047 13.3721C17.4783 13.3721 18.6732 14.5673 18.6732 16.0413C18.6732 17.5153 17.4783 18.7105 16.0047 18.7105C14.5312 18.7105 13.3369 17.5153 13.3369 16.0413ZM11.8944 16.0413C11.8944 18.3121 13.7346 20.1528 16.0047 20.1528C18.2749 20.1528 20.1151 18.3121 20.1151 16.0413C20.1151 13.7705 18.2749 11.9297 16.0047 11.9297C13.7346 11.9297 11.8944 13.7705 11.8944 16.0413ZM19.3173 11.7667C19.3172 11.9568 19.3735 12.1425 19.4789 12.3006C19.5844 12.4587 19.7344 12.5819 19.9099 12.6547C20.0854 12.7275 20.2785 12.7466 20.4649 12.7096C20.6512 12.6726 20.8224 12.5811 20.9568 12.4468C21.0912 12.3125 21.1827 12.1413 21.2199 11.9549C21.257 11.7686 21.2381 11.5754 21.1654 11.3997C21.0928 11.2242 20.9697 11.074 20.8118 10.9684C20.6539 10.8627 20.4682 10.8063 20.2782 10.8062H20.2778C20.0232 10.8064 19.779 10.9076 19.5989 11.0877C19.4188 11.2677 19.3175 11.512 19.3173 11.7667ZM12.7708 22.5589C11.9904 22.5233 11.5662 22.3933 11.2843 22.2834C10.9106 22.1379 10.6439 21.9646 10.3635 21.6845C10.0832 21.4045 9.90963 21.138 9.7648 20.7641C9.65488 20.4823 9.52491 20.0579 9.48943 19.2772C9.45061 18.4332 9.44285 18.1797 9.44285 16.0414C9.44285 13.9031 9.45123 13.6503 9.48943 12.8055C9.52494 12.0249 9.65593 11.6013 9.7648 11.3186C9.91029 10.9447 10.0836 10.678 10.3635 10.3976C10.6435 10.1171 10.9099 9.94352 11.2843 9.79862C11.566 9.6887 11.9904 9.55866 12.7708 9.52319C13.6146 9.48436 13.868 9.4766 16.0047 9.4766C18.1415 9.4766 18.3952 9.48502 19.2396 9.52319C20.0201 9.55873 20.4436 9.68972 20.7262 9.79862C21.0999 9.94352 21.3666 10.1175 21.6469 10.3976C21.9273 10.6776 22.1002 10.9447 22.2457 11.3186C22.3555 11.6004 22.4856 12.0249 22.521 12.8055C22.5599 13.6503 22.5676 13.9031 22.5676 16.0414C22.5676 18.1797 22.5599 18.4325 22.521 19.2772C22.4855 20.0579 22.3549 20.4822 22.2457 20.7641C22.1002 21.138 21.9269 21.4047 21.6469 21.6845C21.3669 21.9643 21.0999 22.1379 20.7262 22.2834C20.4444 22.3934 20.0201 22.5234 19.2396 22.5589C18.3959 22.5977 18.1424 22.6055 16.0047 22.6055C13.8671 22.6055 13.6143 22.5977 12.7708 22.5589ZM12.7045 8.08269C11.8524 8.12148 11.2701 8.25667 10.7615 8.45458C10.2349 8.659 9.78905 8.93321 9.34352 9.37815C8.89803 9.82308 8.62458 10.2698 8.42024 10.7966C8.22236 11.3056 8.08724 11.8877 8.04841 12.7401C8.00899 13.5939 7.99994 13.8668 7.99994 16.0413C7.99994 18.2158 8.00899 18.4887 8.04841 19.3425C8.08724 20.1949 8.22236 20.777 8.42024 21.286C8.62458 21.8125 8.8981 22.2597 9.34352 22.7044C9.78898 23.1492 10.2349 23.423 10.7615 23.628C11.271 23.826 11.8524 23.9611 12.7045 23.9999C13.5585 24.0387 13.8309 24.0484 16.0047 24.0484C18.1786 24.0484 18.4515 24.0394 19.305 23.9999C20.1572 23.9611 20.7391 23.826 21.2479 23.628C21.7743 23.423 22.2204 23.1494 22.666 22.7044C23.1115 22.2595 23.3843 21.8125 23.5893 21.286C23.7871 20.777 23.9229 20.1949 23.9611 19.3425C23.9999 18.4881 24.0089 18.2158 24.0089 16.0413C24.0089 13.8668 23.9999 13.5939 23.9611 12.7401C23.9222 11.8877 23.7871 11.3052 23.5893 10.7966C23.3843 10.2701 23.1108 9.82382 22.666 9.37815C22.2211 8.93251 21.7743 8.659 21.2486 8.45458C20.7391 8.25667 20.1571 8.12085 19.3056 8.08269C18.4521 8.04386 18.1792 8.03418 16.0054 8.03418C13.8315 8.03418 13.5585 8.0432 12.7045 8.08269Z" fill="white"/>
<defs>
<linearGradient id="paint0_linear_896_3342" x1="31.385" y1="32" x2="-0.61504" y2="7.33185e-08" gradientUnits="userSpaceOnUse">
<stop stop-color="#FBE18A"/>
<stop offset="0.21" stop-color="#FCBB45"/>
<stop offset="0.38" stop-color="#F75274"/>
<stop offset="0.52" stop-color="#D53692"/>
<stop offset="0.74" stop-color="#8F39CE"/>
<stop offset="1" stop-color="#5B4FE9"/>
</linearGradient>
</defs>
</svg>
